<svg xmlns="http://www.w3.org/2000/svg" id="Layer_1" data-name="Layer 1" viewBox="0 0 496 496"><defs><style>.cls-1{fill:#e10454;}.cls-2{fill:#40208b;}</style></defs><title>خدمات ویستا قیمت - ضمانت</title><path class="cls-1" d="M488,0H40a8,8,0,0,0-8,8V32H8a8,8,0,0,0-8,8V360a8,8,0,0,0,8,8H164.17A88.47,88.47,0,0,0,192,390.29V488a8,8,0,0,0,13.66,5.66L232,467.31l26.34,26.35A8,8,0,0,0,264,496a7.89,7.89,0,0,0,3.07-.61A8,8,0,0,0,272,488V390.29A88.58,88.58,0,0,0,299.83,368H456a8,8,0,0,0,8-8V336h24a8,8,0,0,0,8-8V8A8,8,0,0,0,488,0ZM256,468.69l-18.34-18.35a8,8,0,0,0-11.32,0L208,468.69v-72.1a86.16,86.16,0,0,0,48,0ZM232,384a72,72,0,1,1,72-72A72.09,72.09,0,0,1,232,384Zm-87.59-64h-49A56.12,56.12,0,0,0,48,272.57V127.43A56.13,56.13,0,0,0,95.43,80H368.58A56.13,56.13,0,0,0,416,127.43V272.57A56.13,56.13,0,0,0,368.58,320h-49c.23-2.65.4-5.31.4-8a88,88,0,0,0-176,0C144,314.7,144.17,317.36,144.41,320ZM448,352H310.29a86.7,86.7,0,0,0,6.3-16H376a8,8,0,0,0,8-8,40.05,40.05,0,0,1,40-40,8,8,0,0,0,8-8V120a8,8,0,0,0-8-8,40.05,40.05,0,0,1-40-40,8,8,0,0,0-8-8H88a8,8,0,0,0-8,8,40,40,0,0,1-40,40,8,8,0,0,0-8,8V280a8,8,0,0,0,8,8,40,40,0,0,1,40,40,8,8,0,0,0,8,8h59.41a86.7,86.7,0,0,0,6.3,16H16V48H448Zm32-32H464V40a8,8,0,0,0-8-8H48V16H480Z" transform="translate(0)"></path><path class="cls-2" d="M232,256a56.07,56.07,0,0,0-56,56h16a40.05,40.05,0,0,1,40-40Z" transform="translate(0)"></path><path class="cls-2" d="M272,312a40,40,0,0,1-40,40v16a56.07,56.07,0,0,0,56-56Z" transform="translate(0)"></path><path class="cls-2" d="M352,136V104a8,8,0,0,0-8-8H120a8,8,0,0,0-8,8v32a8,8,0,0,0,8,8H344A8,8,0,0,0,352,136Zm-16-8H128V112H336Z" transform="translate(0)"></path><path class="cls-2" d="M64,160h64v16H64Z" transform="translate(0)"></path><path class="cls-2" d="M64,192h64v16H64Z" transform="translate(0)"></path><path class="cls-2" d="M144,192H400v16H144Z" transform="translate(0)"></path><path class="cls-2" d="M144,160H400v16H144Z" transform="translate(0)"></path></svg>