<svg xmlns="http://www.w3.org/2000/svg" id="Layer_1" data-name="Layer 1" viewBox="0 0 512 512"><defs><style>.cls-1{fill:#e10454;}.cls-2{fill:#40208b;}</style></defs><title>خدمات ویستا قیمت - استاندارد گوگل</title><path class="cls-1" d="M319.83,230.52a10.29,10.29,0,0,0-10.1-8.37H188.57a10.29,10.29,0,0,0-10.29,10.29v49.9a10.29,10.29,0,0,0,10.29,10.28h50.56A64.71,64.71,0,0,1,125.19,278.7,64.71,64.71,0,0,1,220,201.08a10.29,10.29,0,0,0,12-.77l40.86-33.45a10.28,10.28,0,0,0,.05-15.87,136.6,136.6,0,0,0-87.08-31.41c-75.22,0-136.41,61.2-136.41,136.42a136.42,136.42,0,1,0,270.45-25.48ZM299.11,280.2c-11.27,53.11-58.93,91.65-113.32,91.65a115.85,115.85,0,1,1,63.8-212.55L224.36,180a85.26,85.26,0,1,0,41.28,106,10.29,10.29,0,0,0-9.63-13.9H198.85V242.72h102a117.33,117.33,0,0,1-1.78,37.48Z"></path><path class="cls-1" d="M256,0C114.84,0,0,114.84,0,256S114.84,512,256,512,512,397.16,512,256,397.16,0,256,0Zm0,491.43C126.18,491.43,20.57,385.82,20.57,256S126.18,20.57,256,20.57,491.43,126.18,491.43,256,385.82,491.43,256,491.43Z"></path><path class="cls-2" d="M463.52,228.24H434.73V199.45a10.29,10.29,0,0,0-10.28-10.29h-35a10.29,10.29,0,0,0-10.28,10.29v28.79H350.42a10.28,10.28,0,0,0-10.28,10.28v35a10.28,10.28,0,0,0,10.28,10.28h28.79v28.79a10.29,10.29,0,0,0,10.28,10.29h35a10.29,10.29,0,0,0,10.28-10.29V283.76h28.79a10.29,10.29,0,0,0,10.29-10.28v-35A10.29,10.29,0,0,0,463.52,228.24Zm-10.28,35H424.45a10.28,10.28,0,0,0-10.28,10.28v28.79h-14.4V273.48a10.28,10.28,0,0,0-10.28-10.28H360.7V248.8h28.79a10.28,10.28,0,0,0,10.28-10.28V209.73h14.4v28.79a10.28,10.28,0,0,0,10.28,10.28h28.79Z"></path></svg>