<svg xmlns="http://www.w3.org/2000/svg" id="Layer_1" data-name="Layer 1" viewBox="0 0 496 408"><defs><style>.cls-1{fill:#e10454;}.cls-2{fill:#40208b;}</style></defs><title>خدمات ویستا قیمت -طراحی گرافیکی</title><path class="cls-1" d="M472,4H40A32,32,0,0,0,8,36V308a32,32,0,0,0,32,32H204.9l-10.67,32H168a8,8,0,0,0-8,8v16H88a8,8,0,0,0,0,16H440a8,8,0,0,0,0-16H352V380a8,8,0,0,0-8-8H317.77L307.1,340H472a32,32,0,0,0,32-32V36A32,32,0,0,0,472,4ZM336,388v8H176v-8ZM211.1,372l10.67-32h68.46l10.67,32ZM488,308a16,16,0,0,1-16,16H40a16,16,0,0,1-16-16V292H488ZM143.66,204l-3,72h-9.32l-3-72Zm-14.22-16,5.34-32h2.44l5.34,32ZM136,140c-8.67,0-16-11-16-24,0-8.21,8.38-20.14,16-28.55,6.85,7.6,16,19.75,16,28.55C152,129,144.67,140,136,140Zm87.06-16,.94,1.89V132H192v-6.11l.94-1.89Zm-22.12-16L208,93.89,215.06,108ZM224,148V275a8.4,8.4,0,0,0,.07,1H191.93a8.4,8.4,0,0,0,.07-1V148Zm72-32h24v16h-8a8,8,0,0,0,0,16h8v16H296a8,8,0,0,0,0,16h24v16h-8a8,8,0,0,0,0,16h8v16H296a8,8,0,0,0,0,16h24v32H264V84h56v16H296a8,8,0,0,0,0,16Zm96,96v63a8.4,8.4,0,0,0,.07,1H359.93a8.4,8.4,0,0,0,.07-1V212Zm-32-16v-6.11l16-32,16,32V196Zm128,80H407.93a8.4,8.4,0,0,0,.07-1V188a8.08,8.08,0,0,0-.84-3.58l-24-48a8,8,0,0,0-14.32,0l-24,48A8.08,8.08,0,0,0,344,188v87a8.4,8.4,0,0,0,.07,1H336V76a8,8,0,0,0-8-8H256a8,8,0,0,0-8,8V276h-8.07a8.4,8.4,0,0,0,.07-1V124a8.08,8.08,0,0,0-.84-3.58l-24-48a8,8,0,0,0-14.32,0l-24,48A8.08,8.08,0,0,0,176,124V275a8.4,8.4,0,0,0,.07,1h-19.4L160,196.33c0-.18,0-.36,0-.55v-.24a8,8,0,0,0-.1-.84v0l-7.4-44.41c9.29-7,15.51-19.75,15.51-34.27,0-20.56-23.83-43.33-26.55-45.86a8,8,0,0,0-10.9,0C127.83,72.67,104,95.44,104,116c0,14.52,6.22,27.26,15.51,34.27l-7.4,44.41v0a8,8,0,0,0-.1.84v.24c0,.19,0,.37,0,.55L115.33,276H24V36A16,16,0,0,1,40,20H472a16,16,0,0,1,16,16Z" transform="translate(-8 -4)"></path><path class="cls-2" d="M96,300H48a8,8,0,0,0,0,16H96a8,8,0,0,0,0-16Z" transform="translate(-8 -4)"></path><path class="cls-2" d="M128,300h-8a8,8,0,0,0,0,16h8a8,8,0,0,0,0-16Z" transform="translate(-8 -4)"></path><path class="cls-2" d="M208,156a8,8,0,0,0-8,8v88a8,8,0,0,0,16,0V164A8,8,0,0,0,208,156Z" transform="translate(-8 -4)"></path><path class="cls-2" d="M376,220a8,8,0,0,0-8,8v24a8,8,0,0,0,16,0V228A8,8,0,0,0,376,220Z" transform="translate(-8 -4)"></path><path class="cls-2" d="M48,52h64a8,8,0,0,0,0-16H48a8,8,0,0,0,0,16Z" transform="translate(-8 -4)"></path><path class="cls-2" d="M48,76H64a8,8,0,0,0,0-16H48a8,8,0,0,0,0,16Z" transform="translate(-8 -4)"></path><path class="cls-2" d="M432,260h32a8,8,0,0,0,0-16H432a8,8,0,0,0,0,16Z" transform="translate(-8 -4)"></path><path class="cls-2" d="M456,236h8a8,8,0,0,0,0-16h-8a8,8,0,0,0,0,16Z" transform="translate(-8 -4)"></path></svg>