<svg xmlns="http://www.w3.org/2000/svg" id="Capa_1" data-name="Capa 1" viewBox="0 0 390.64 512"><defs><style>.cls-1{fill:#e10454;}.cls-2{fill:#40208b;}</style></defs><title>خدمات ویستا قیمت- مشاوره</title><path class="cls-1" d="M390.64,423.77c-1.14-69.58-72.28-90.14-124.23-105.15-6.06-1.75-11.89-3.44-17.35-5.12V284.79a102.23,102.23,0,0,0,27.43-25.21h31.64a28.12,28.12,0,0,0,28.09-28.09v-34a36.19,36.19,0,0,0,2.92-14.25V172.68a36.11,36.11,0,0,0-2.92-14.24V140.9C336.22,63.21,273,0,195.32,0S54.45,63.21,54.45,140.9v17c0,.13,0,.26,0,.39a35.94,35.94,0,0,0-3,14.35v10.57A36.28,36.28,0,0,0,87.72,219.5H96a101.74,101.74,0,0,0,45.59,65.29V313.5c-5.46,1.68-11.29,3.37-17.35,5.12C72.28,333.63,1.14,354.19,0,423.77V502a10,10,0,0,0,10,10H39.65a10,10,0,0,0,0-20H20V424c.42-24.28,11.57-42.48,35.09-57.27,15.52-9.77,34.5-16.72,53.2-22.54l24.16,47.07A10.11,10.11,0,0,0,146.94,395l10.77-7.27L167,422.5,151.12,492H129.44a10,10,0,0,0,0,20h251.2a10,10,0,0,0,10-10V423.77ZM260.86,337.83l2,.58-17.29,33.71-32.35-21.81,27.41-18.49c6.37,2,13.14,4,20.24,6Zm-65.53,24.54,20,13.52-9.69,36.43H185l-9.69-36.42Zm0-24.12-33.74-22.76V294.44a101.25,101.25,0,0,0,67.47,0v21Zm81.47-195.52-.41-.26c-20.52-13.06-38.24-24.34-66-16.4l-.77.25c-5.88,2.21-11.24,4.28-16.41,6.27-31.63,12.17-48.89,18.82-79.34,18v-8a81.47,81.47,0,1,1,162.94,0v.18Zm39.43,88.76a8.1,8.1,0,0,1-8.09,8.09H288.2a99.93,99.93,0,0,0,6.45-20.08h8.27a35.9,35.9,0,0,0,13.3-2.55v14.54Zm2.92-48.24a16.26,16.26,0,0,1-16.22,16.25h-6.14c0-.25,0-43,0-43h6.13a16.24,16.24,0,0,1,16.22,16.22v10.57ZM87.72,199.5A16.26,16.26,0,0,1,71.5,183.25V172.68a16.24,16.24,0,0,1,16.22-16.22h6.13s0,42.79,0,43Zm6.32-63H87.72A36.06,36.06,0,0,0,74.47,139c1-65.78,54.85-119,120.85-119A121,121,0,0,1,316.19,139a35.93,35.93,0,0,0-13.27-2.53H296.6a101.46,101.46,0,0,0-202.56,0Zm20.41,72v0a81.58,81.58,0,0,1-.6-9.69V170.55c34.21.84,54.62-7,86.52-19.3,5-1.93,10.22-3.93,15.88-6.06,18.89-5.27,29.75,1.65,49.39,14.15,3.41,2.17,7.14,4.55,11.15,7v32.43a81,81,0,0,1-11,40.82H195.32a10,10,0,0,0,0,20h54.12a81.39,81.39,0,0,1-135-51.1ZM145.1,372.12l-17.3-33.71,2-.58c7.1-2.05,13.87-4,20.24-6l27.42,18.49ZM171.63,492l13.61-59.68H205.4L219,492Zm199,0H239.55l-15.88-69.5,9.26-34.77,10.8,7.28a10.11,10.11,0,0,0,14.49-3.73l24.13-47.07C301.05,350,320,357,335.55,366.75c23.52,14.79,34.67,33,35.09,57.27v68Z" transform="translate(0 0)"></path><path class="cls-2" d="M331.15,442h-50.4a10,10,0,0,0,0,20h50.4a10,10,0,0,0,0-20Z" transform="translate(0 0)"></path><path class="cls-2" d="M84.55,492a10,10,0,1,0,0,20h0a10,10,0,0,0,0-20Z" transform="translate(0 0)"></path></svg>