<svg xmlns="http://www.w3.org/2000/svg" id="Layer_1" data-name="Layer 1" viewBox="0 0 429.57 512"><defs><style>.cls-1{fill:#e10454;}.cls-2{fill:#40208b;}</style></defs><title>خدمات ویستا قیمت - پروژه</title><path class="cls-1" d="M295.44,127.27a24.69,24.69,0,0,0-34.91,34.91l42.05,42a24.69,24.69,0,0,0,34.91,0l89.85-89.85a24.69,24.69,0,0,0-34.91-34.91l-9.9,9.91A95.55,95.55,0,0,0,358.6,76V64.8a24.71,24.71,0,0,0-24.69-24.68h-77.4V31.55A31.58,31.58,0,0,0,225,0H138.64a31.58,31.58,0,0,0-31.55,31.55V67.19a17.54,17.54,0,0,0,17.53,17.53H239a17.55,17.55,0,0,0,17.53-17.53v-12h77.4a9.67,9.67,0,0,1,9.66,9.66v6.92a95.4,95.4,0,1,0,0,187V487.32a9.67,9.67,0,0,1-9.66,9.66H29.68A9.68,9.68,0,0,1,20,487.32V64.8a9.68,9.68,0,0,1,9.66-9.66H79.62a7.51,7.51,0,0,0,0-15H29.68A24.71,24.71,0,0,0,5,64.8V487.32A24.71,24.71,0,0,0,29.68,512H333.91a24.71,24.71,0,0,0,24.69-24.68V254.42A95.44,95.44,0,0,0,420,168.56a7.51,7.51,0,1,0-15-.52,80,80,0,0,1-55.65,73.75,6.77,6.77,0,0,0-1.25.41A80.43,80.43,0,1,1,324.66,84.83a80.24,80.24,0,0,1,47.14,15.28L320,151.87Zm-54-60.08A2.51,2.51,0,0,1,239,69.7H124.62a2.51,2.51,0,0,1-2.51-2.51V31.55A16.54,16.54,0,0,1,138.64,15H225a16.54,16.54,0,0,1,16.52,16.53ZM403.06,90.1a9.66,9.66,0,0,1,13.66,0,9.66,9.66,0,0,1,0,13.66l-89.85,89.85a9.64,9.64,0,0,1-13.67,0l-42.05-42.05a9.67,9.67,0,0,1,13.67-13.67l29.91,29.91a7.5,7.5,0,0,0,10.62,0Z" transform="translate(-5)"></path><path class="cls-2" d="M209.44,188.55H117.91a7.51,7.51,0,0,0,0,15h91.53a7.51,7.51,0,0,0,0-15Z" transform="translate(-5)"></path><path class="cls-2" d="M103.57,111H53a7.52,7.52,0,0,0,0,15h50.54a7.52,7.52,0,1,0,0-15Z" transform="translate(-5)"></path><path class="cls-2" d="M117.91,238.41h91.53a7.51,7.51,0,0,0,0-15H117.91a7.51,7.51,0,1,0,0,15Z" transform="translate(-5)"></path><path class="cls-2" d="M241.05,279.65H117.91a7.51,7.51,0,1,0,0,15H241.05a7.51,7.51,0,1,0,0-15Z" transform="translate(-5)"></path><path class="cls-2" d="M117.91,329.52h61.57a7.51,7.51,0,1,0,0-15H117.91a7.51,7.51,0,1,0,0,15Z" transform="translate(-5)"></path><path class="cls-2" d="M117.91,385.87h91.53a7.51,7.51,0,0,0,0-15H117.91a7.51,7.51,0,1,0,0,15Z" transform="translate(-5)"></path><path class="cls-2" d="M117.91,420.71H241.05a7.51,7.51,0,1,0,0-15H117.91a7.51,7.51,0,1,0,0,15Z" transform="translate(-5)"></path><path class="cls-2" d="M69,182a30.34,30.34,0,1,0,30.34,30.34A30.37,30.37,0,0,0,69,182Zm0,45.65a15.32,15.32,0,1,1,15.32-15.31A15.33,15.33,0,0,1,69,227.69Z" transform="translate(-5)"></path><path class="cls-2" d="M69,274.24a30.34,30.34,0,1,0,30.34,30.34A30.38,30.38,0,0,0,69,274.24Zm0,45.66a15.32,15.32,0,1,1,15.32-15.31A15.33,15.33,0,0,1,69,319.9Z" transform="translate(-5)"></path><path class="cls-2" d="M69,365.44a30.34,30.34,0,1,0,30.34,30.34A30.37,30.37,0,0,0,69,365.44Zm0,45.66a15.32,15.32,0,1,1,15.32-15.32A15.33,15.33,0,0,1,69,411.1Z" transform="translate(-5)"></path></svg>