<svg xmlns="http://www.w3.org/2000/svg" id="Layer_1" data-name="Layer 1" viewBox="0 0 511 442.14"><defs><style>.cls-1{fill:#40208b;}.cls-2{fill:#e10454;}</style></defs><title>خدمات ویستا قیمت - دامنه</title><path class="cls-1" d="M324.28,238.62a10.75,10.75,0,0,0-7.52,2.94,10.2,10.2,0,0,0,0,14.95,10.88,10.88,0,0,0,7.52,2.94,10.42,10.42,0,0,0,0-20.83Z" transform="translate(1 -34.93)"></path><path class="cls-1" d="M324.28,277.48a10.46,10.46,0,0,0-7.47,3.06,10,10,0,0,0-3.19,7.47,10.73,10.73,0,0,0,3.05,7.48,10.55,10.55,0,0,0,7.61,3.08,10.46,10.46,0,0,0,10.41-10.42,10.42,10.42,0,0,0-3.05-7.55A10,10,0,0,0,324.28,277.48Z" transform="translate(1 -34.93)"></path><path class="cls-1" d="M211.06,227.94h-5.74l.11-11a8.54,8.54,0,0,0-2.83-6.62,8.91,8.91,0,0,0-6.48-2.8,9.44,9.44,0,0,0-9.45,9.42v11h-3a8.54,8.54,0,0,0-6.11,2.41,7.72,7.72,0,0,0-2.57,6,8.14,8.14,0,0,0,2.43,5.85,8.24,8.24,0,0,0,6.25,2.58h3.19v40.85a9.85,9.85,0,0,0,.68,3.74,9.33,9.33,0,0,0,15.31,3,9.57,9.57,0,0,0,2.63-6.73l-.11-40.71H211a8.23,8.23,0,0,0,6.05-2.52,8.41,8.41,0,0,0-5.94-14.41Z" transform="translate(1 -34.93)"></path><path class="cls-1" d="M160.59,227.94h-5.77l.14-11a8.65,8.65,0,0,0-2.83-6.62,8.91,8.91,0,0,0-6.48-2.8,9,9,0,0,0-6.68,2.75,9.15,9.15,0,0,0-2.77,6.67v11h-3a8.66,8.66,0,0,0-6.14,2.41,7.83,7.83,0,0,0-2.58,6,8.62,8.62,0,0,0,8.72,8.43h3.17v40.85a9.85,9.85,0,0,0,.67,3.74,9.26,9.26,0,0,0,2,3,9.27,9.27,0,0,0,13.3,0,9.57,9.57,0,0,0,2.63-6.73l-.14-40.71h5.66a8.28,8.28,0,0,0,6.05-2.52,8.41,8.41,0,0,0-5.94-14.41Z" transform="translate(1 -34.93)"></path><path class="cls-1" d="M92.72,226.73a27.91,27.91,0,0,0-14.46,3.79l-2.71,1.84V207.71a8.53,8.53,0,0,0-2.81-6.6,8.79,8.79,0,0,0-6.62-2.83,9.12,9.12,0,0,0-6.73,2.83,9,9,0,0,0-2.82,6.6v78.1a9,9,0,0,0,2.82,6.62,9.43,9.43,0,0,0,13.41.06,9.06,9.06,0,0,0,2.75-6.68V253.57a10.31,10.31,0,0,1,3.31-7.73,11,11,0,0,1,8-3.17,10.19,10.19,0,0,1,7.59,3.25,10.72,10.72,0,0,1,3.19,7.79v32.1a9.65,9.65,0,0,0,9.57,9.57,8.54,8.54,0,0,0,6.62-2.84,9.18,9.18,0,0,0,2.8-6.73V250.62c0-7-1.93-12.54-5.75-16.53A24.29,24.29,0,0,0,92.72,226.73Z" transform="translate(1 -34.93)"></path><path class="cls-1" d="M292.31,242.78a33.66,33.66,0,0,0-5-6.34A30.35,30.35,0,0,0,265,227.15a32.57,32.57,0,0,0-17.34,4.79c-2.86-7.11-17.51-9-17.51,4.72v75.87a8.73,8.73,0,0,0,2.8,6.76,9.26,9.26,0,0,0,6.76,2.81,8.76,8.76,0,0,0,6.59-2.81,9.09,9.09,0,0,0,2.83-6.62V286.35A33,33,0,0,0,265,290.28a31.1,31.1,0,0,0,31.55-31.56A31.15,31.15,0,0,0,294.78,248,23.13,23.13,0,0,0,292.31,242.78Zm-27.58,29.41a13.86,13.86,0,1,1,13.83-13.84A13.84,13.84,0,0,1,264.73,272.19Z" transform="translate(1 -34.93)"></path><path class="cls-2" d="M466.53,152.81H450.14A221.21,221.21,0,0,0,204.7,40.62a10,10,0,0,0,4.52,19.44A202,202,0,0,1,374.9,94.55H329.2a40,40,0,0,0-35.7,58.25H82.2A202.23,202.23,0,0,1,142.62,89,10,10,0,1,0,131.48,72.5,222.06,222.06,0,0,0,59.3,152.8H42.44A43.51,43.51,0,0,0-1,196.27V313.41A43.52,43.52,0,0,0,42.44,356.9H58.11a221.33,221.33,0,0,0,41.83,56.85l0,0A220.89,220.89,0,0,0,451.32,356.9h15.21A43.53,43.53,0,0,0,510,313.41V196.27A43.51,43.51,0,0,0,466.53,152.81ZM309.05,134.67A20.18,20.18,0,0,1,329.2,114.5h68.54a201.81,201.81,0,0,1,29.53,38.31H320.4A20.39,20.39,0,0,1,309.05,134.67ZM183.87,356.9a20.16,20.16,0,0,1-4.44,39.83H111.31A200,200,0,0,1,80.85,356.9Zm306.18-43.49A23.56,23.56,0,0,1,466.53,337H354.92a10,10,0,0,0,0,19.95h73.66c-35.71,61.36-102.29,100.21-173.86,100.21a201.33,201.33,0,0,1-120.57-40.43h45.28a40.12,40.12,0,0,0,35-59.78H275.2a10,10,0,0,0,0-19.95H42.44A23.53,23.53,0,0,1,19,313.41V196.27a23.52,23.52,0,0,1,23.48-23.51H466.53a23.54,23.54,0,0,1,23.52,23.51Z" transform="translate(1 -34.93)"></path><path class="cls-1" d="M425.68,204.42l-33.05,82.15a8.07,8.07,0,0,0-.65,3c0,12.54,15.56,14.47,19.33,4.7L444.49,212a7.51,7.51,0,0,0,.65-3.14C445.14,195.73,429.27,194.65,425.68,204.42Z" transform="translate(1 -34.93)"></path><path class="cls-1" d="M402.14,206.37c0-13.1-15.9-14.15-19.47-4.41l-33,82.18a7.52,7.52,0,0,0-.65,3c0,12.52,15.56,14.44,19.32,4.68l33.19-82.35A7.67,7.67,0,0,0,402.14,206.37Z" transform="translate(1 -34.93)"></path><path class="cls-1" d="M168.8,73.17a10.06,10.06,0,0,0,4.46-1l.17-.09a10,10,0,1,0-8.93-17.84l-.17.08a10,10,0,0,0,4.47,18.9Z" transform="translate(1 -34.93)"></path><path class="cls-1" d="M315.26,337h-.2a10,10,0,1,0,0,19.95h.2a10,10,0,1,0,0-19.95Z" transform="translate(1 -34.93)"></path></svg>