<svg xmlns="http://www.w3.org/2000/svg" id="Capa_1" data-name="Capa 1" viewBox="0 0 496.41 512"><defs><style>.cls-1{fill:#e10454;}.cls-2{fill:#40208b;}</style></defs><title>خدمات ویستا قیمت - پول قرارداد</title><path class="cls-1" d="M498.67,366.46c-9.55-14-25.76-17.46-43.35-9.18L446,361.39c14.71-31.35,16.53-66.3,9.21-99.31-8.41-37.91-28.72-74.64-60.37-109.16a7.5,7.5,0,0,0-11.06,10.13c29.85,32.56,49,67,56.79,102.28,8.25,37.19,3.45,75.55-17.6,106.2l-93.35,41.1.08-10.54a7,7,0,0,0,0-.8,47,47,0,0,0-40.27-42l-.2,0-83-9.55c-31.9-4.54-40.11-23.66-83.32-34.56-3-25.33,1-52.3,11.9-79.33,16.43-40.72,48.56-80.28,93.11-114.71,16.6,11.77,90.67,13.23,107.25-1.95,8.49,6.45,16.6,13.09,24.15,19.82a7.5,7.5,0,0,0,10-11.2c-8.27-7.37-17.18-14.65-26.51-21.68a26.7,26.7,0,0,0-9-26.6c23.48-35.61,30.31-58.92,20.88-71.13-6.48-8.39-14.54-4.45-18-2.77-5.84,2.85-9,3-14.39-.51-10.24-6.71-21-6.92-31.57,0-5.44,3.55-9.72,3.55-15.15,0-10.24-6.71-21-6.92-31.58,0-5.43,3.55-8.62,3.33-14.36.48-3.44-1.71-11.49-5.72-18,2.67-9.22,11.87-3.05,34.45,18.84,68.85a23.45,23.45,0,0,0-3.81,2.55c-8.71-9.2-23-18.79-43.61-16.49a54.9,54.9,0,0,1-37.3-8.82,7.5,7.5,0,1,0-8.36,12.46,69.88,69.88,0,0,0,47.33,11.27c15.94-1.79,26.75,6.35,33.49,14.64-.1.32-.18.65-.26,1a128.34,128.34,0,0,0-23.78,2.59c-22.73,4.73-39.6,15.53-48.8,31.24a7.5,7.5,0,0,0,13,7.58c13.67-23.37,47-26.23,60.3-26.41.06.17.13.33.19.49-47.31,36.5-80.25,77.19-97.93,121-11.18,27.72-15.65,55.49-13.38,81.88a155.2,155.2,0,0,0-21.78-1.69v-4.53A21.78,21.78,0,0,0,64,284.12H29.56A21.78,21.78,0,0,0,7.8,305.88V480.52a21.78,21.78,0,0,0,21.76,21.76H64a21.78,21.78,0,0,0,21.76-21.76v-2.13l75.09,27.95A90,90,0,0,0,192.27,512H304.15a90,90,0,0,0,48.24-14c149.26-94.62,140.19-88.73,141.05-89.5a32.16,32.16,0,0,0,5.23-42ZM321.09,110.29a162.42,162.42,0,0,1-81.52,0c-11.76-3-8.35-24,4.29-20.79a146.26,146.26,0,0,0,72.94,0C329.23,86.38,333,107.27,321.09,110.29ZM222.81,18.93,223,19c10.15,5,19,5.32,29.25-1.36,12.78-8.37,14.17,5,30.94,5a26.07,26.07,0,0,0,15.79-5c5.43-3.56,9.72-3.56,15.15,0C324.37,24.37,333,24,343.49,19c1.54,5.56-1.95,22.14-24.19,55.25-11-.19-27.06,10.65-72.42.56-22.19-33.53-25.62-50.28-24.07-55.88Zm261.08,378L344.36,485.34A75,75,0,0,1,304.15,497H192.27a74.72,74.72,0,0,1-26.21-4.72L85.74,462.39V381.63a7.5,7.5,0,1,0-15,0v98.9A6.77,6.77,0,0,1,64,487.29H29.56a6.77,6.77,0,0,1-6.77-6.76V305.88a6.77,6.77,0,0,1,6.77-6.76H64a6.76,6.76,0,0,1,6.76,6.76v40.7a7.5,7.5,0,0,0,15,0V325.42c62,.47,76,33.17,118.48,39.18l.19,0,83,9.55a32,32,0,0,1,27.32,28.23l-.11,14.26H237.22a7.5,7.5,0,1,0,0,15H322a7.81,7.81,0,0,0,3-.62L461.44,371c9.81-4.36,18.76-5,24.83,3.93A17.13,17.13,0,0,1,483.89,396.92Z" transform="translate(-7.8 0)"></path><path class="cls-2" d="M282.31,340.22a7.5,7.5,0,0,0,7.5-7.5V320.29c21.05-3.41,33.33-20.45,36-36.35,3.34-19.86-7.06-37.13-26.49-44-3.44-1.22-6.6-2.38-9.52-3.5V188.64a30.87,30.87,0,0,1,14.59,6.4A7.5,7.5,0,0,0,314.52,184,46.44,46.44,0,0,0,289.8,173.5V162.83a7.5,7.5,0,1,0-15,0V174.1c-1.81.35-3.66.79-5.57,1.36-12.72,3.83-22.22,14.74-24.81,28.46-2.35,12.46,1.6,24.44,10.3,31.26,5,3.92,11.29,7.51,20.08,11.35v59.3c-8.67-.37-14-2-23.32-8.09a7.5,7.5,0,0,0-8.21,12.55c12.24,8,20.42,10.1,31.53,10.53v11.9a7.5,7.5,0,0,0,7.5,7.5ZM264,223.38c-4.28-3.36-6.13-9.75-4.82-16.68,1.21-6.43,5.63-14.24,14.4-16.88.42-.13.83-.23,1.24-.34V230A63.38,63.38,0,0,1,264,223.38Zm30.33,30.71c18.66,6.59,17.5,22.61,16.7,27.37-1.65,9.84-8.88,20.34-21.22,23.5v-52.5l4.52,1.63Z" transform="translate(-7.8 0)"></path></svg>