<svg xmlns="http://www.w3.org/2000/svg" xmlns:xlink="http://www.w3.org/1999/xlink" id="Layer_1" data-name="Layer 1" viewBox="0 0 2187.92 1339.6"><defs><style>.cls-1{fill:none;}.cls-2,.cls-60{opacity:0.3;}.cls-2,.cls-3,.cls-57,.cls-61{isolation:isolate;}.cls-2{fill:url(#linear-gradient);}.cls-3,.cls-61{opacity:0.5;}.cls-3{fill:url(#linear-gradient-2);}.cls-4{fill:url(#linear-gradient-3);}.cls-5,.cls-57,.cls-61{fill:#fff;}.cls-6{fill:url(#linear-gradient-4);}.cls-7{fill:#f0f0f0;}.cls-8{fill:url(#linear-gradient-5);}.cls-9{fill:url(#linear-gradient-6);}.cls-10{fill:url(#linear-gradient-7);}.cls-11{fill:url(#linear-gradient-8);}.cls-12{fill:url(#linear-gradient-9);}.cls-13{fill:url(#linear-gradient-10);}.cls-14{fill:url(#linear-gradient-11);}.cls-15{fill:url(#linear-gradient-12);}.cls-16{fill:url(#linear-gradient-13);}.cls-17{fill:url(#linear-gradient-14);}.cls-18{fill:url(#linear-gradient-15);}.cls-19{fill:url(#linear-gradient-16);}.cls-20{fill:url(#linear-gradient-17);}.cls-21{fill:url(#linear-gradient-18);}.cls-22{fill:url(#linear-gradient-19);}.cls-23{fill:url(#linear-gradient-20);}.cls-24{fill:url(#linear-gradient-21);}.cls-25{fill:url(#linear-gradient-22);}.cls-26{fill:url(#linear-gradient-23);}.cls-27{fill:url(#linear-gradient-24);}.cls-28{fill:url(#linear-gradient-25);}.cls-29{fill:url(#linear-gradient-26);}.cls-30{fill:url(#linear-gradient-27);}.cls-31{fill:url(#linear-gradient-28);}.cls-32{fill:url(#linear-gradient-29);}.cls-33{fill:url(#linear-gradient-30);}.cls-34{clip-path:url(#clip-path);}.cls-35{fill:url(#linear-gradient-31);}.cls-36{fill:url(#linear-gradient-32);}.cls-37{fill:url(#linear-gradient-33);}.cls-38{fill:url(#linear-gradient-34);}.cls-39{fill:url(#linear-gradient-35);}.cls-40{fill:url(#linear-gradient-36);}.cls-41{fill:url(#linear-gradient-37);}.cls-42{fill:url(#linear-gradient-38);}.cls-43{fill:url(#linear-gradient-39);}.cls-44{fill:url(#linear-gradient-40);}.cls-45{fill:url(#linear-gradient-41);}.cls-46{fill:url(#linear-gradient-42);}.cls-47{fill:url(#linear-gradient-43);}.cls-48{fill:url(#linear-gradient-44);}.cls-49{fill:url(#linear-gradient-45);}.cls-50{fill:url(#linear-gradient-46);}.cls-51{fill:url(#linear-gradient-47);}.cls-52{fill:url(#linear-gradient-48);}.cls-53{fill:url(#linear-gradient-49);}.cls-54{fill:url(#linear-gradient-50);}.cls-55{fill:url(#linear-gradient-51);}.cls-56{fill:url(#linear-gradient-52);}.cls-57{opacity:0.58;}.cls-58{fill:url(#linear-gradient-53);}.cls-59{fill:url(#linear-gradient-54);}.cls-62{fill:url(#linear-gradient-55);}.cls-63{fill:url(#linear-gradient-56);}.cls-64{fill:url(#linear-gradient-57);}.cls-65{fill:url(#linear-gradient-58);}.cls-66{fill:url(#linear-gradient-59);}.cls-67{fill:url(#linear-gradient-60);}.cls-68{fill:url(#linear-gradient-61);}.cls-69{fill:url(#linear-gradient-62);}.cls-70{fill:url(#linear-gradient-63);}.cls-71{fill:url(#linear-gradient-64);}.cls-72{fill:url(#linear-gradient-65);}.cls-73{fill:url(#linear-gradient-66);}.cls-74{fill:url(#linear-gradient-67);}.cls-75{fill:url(#linear-gradient-68);}.cls-76{fill:url(#linear-gradient-69);}.cls-77{fill:url(#linear-gradient-70);}.cls-78{fill:url(#linear-gradient-71);}.cls-79{fill:url(#linear-gradient-72);}.cls-80{fill:url(#linear-gradient-73);}</style><linearGradient id="linear-gradient" x1="-125.49" y1="-2483.81" x2="2062.43" y2="-2483.81" gradientTransform="matrix(-1, 0, 0, 1, 2062.43, 3165.8)" gradientUnits="userSpaceOnUse"><stop offset="0" stop-color="#b37cff"></stop><stop offset="1" stop-color="#f895e7"></stop></linearGradient><linearGradient id="linear-gradient-2" x1="343.64" y1="-2523.9" x2="2446.22" y2="-2523.9" gradientTransform="translate(-258.41 3165.8)" xlink:href="#linear-gradient"></linearGradient><linearGradient id="linear-gradient-3" x1="547.08" y1="314.83" x2="469.92" y2="623.48" gradientTransform="matrix(1, 0, 0, -1, 0.43, 1321.8)" xlink:href="#linear-gradient"></linearGradient><linearGradient id="linear-gradient-4" x1="4644.22" y1="615.4" x2="4079.21" y2="-378.04" gradientTransform="translate(4851.27 1321.8) rotate(180)" gradientUnits="userSpaceOnUse"><stop offset="0" stop-color="#a737d5"></stop><stop offset="1" stop-color="#ef497a"></stop></linearGradient><linearGradient id="linear-gradient-5" x1="-2966.37" y1="314.85" x2="-3043.53" y2="623.5" gradientTransform="translate(-1314.34 1321.8) rotate(180)" xlink:href="#linear-gradient"></linearGradient><linearGradient id="linear-gradient-6" x1="8157.71" y1="615.41" x2="7592.69" y2="-378.03" gradientTransform="matrix(1, 0, 0, -1, -6165.17, 1321.8)" xlink:href="#linear-gradient-4"></linearGradient><linearGradient id="linear-gradient-7" x1="504.76" y1="378.43" x2="1682.24" y2="378.43" gradientTransform="matrix(1, 0, 0, -1, 0.43, 1321.8)" gradientUnits="userSpaceOnUse"><stop offset="0" stop-color="#40208b"></stop><stop offset="1" stop-color="#d93c65"></stop></linearGradient><linearGradient id="linear-gradient-8" x1="503.52" y1="711.31" x2="1683.52" y2="711.31" xlink:href="#linear-gradient-7"></linearGradient><linearGradient id="linear-gradient-9" x1="1219.3" y1="621.76" x2="1717.36" y2="118.94" gradientTransform="matrix(1, 0, 0, -1, 0.43, 1321.8)" gradientUnits="userSpaceOnUse"><stop offset="0" stop-color="#cb236d"></stop><stop offset="1" stop-color="#4c246d"></stop></linearGradient><linearGradient id="linear-gradient-10" x1="5358.61" y1="83.72" x2="5421.92" y2="83.72" gradientTransform="matrix(1, 0, 0, -1, -3933.53, 1321.8)" gradientUnits="userSpaceOnUse"><stop offset="0" stop-color="#f9b776"></stop><stop offset="1" stop-color="#f47960"></stop></linearGradient><linearGradient id="linear-gradient-11" x1="5285.19" y1="990.12" x2="5294.3" y2="910.33" gradientTransform="matrix(1, 0, 0, -1, -3933.53, 1321.8)" xlink:href="#linear-gradient-9"></linearGradient><linearGradient id="linear-gradient-12" x1="5284.26" y1="79.4" x2="5417.86" y2="79.4" xlink:href="#linear-gradient-10"></linearGradient><linearGradient id="linear-gradient-13" x1="692.85" y1="162.81" x2="770.36" y2="11.2" gradientTransform="matrix(1, 0, 0, -1, 808.64, 1321.8)" gradientUnits="userSpaceOnUse"><stop offset="0" stop-color="#2b3582"></stop><stop offset="1" stop-color="#150e42"></stop></linearGradient><linearGradient id="linear-gradient-14" x1="5192.43" y1="979.51" x2="5201.55" y2="899.72" gradientTransform="matrix(1, 0, 0, -1, -3933.53, 1321.8)" xlink:href="#linear-gradient-9"></linearGradient><linearGradient id="linear-gradient-15" x1="5432.61" y1="273.02" x2="5503.6" y2="118.51" gradientTransform="matrix(1, 0, 0, -1, -3933.53, 1321.8)" xlink:href="#linear-gradient-13"></linearGradient><linearGradient id="linear-gradient-16" x1="5434.32" y1="262.76" x2="5427.64" y2="305.64" xlink:href="#linear-gradient-10"></linearGradient><linearGradient id="linear-gradient-17" x1="5405.44" y1="343.57" x2="5464.46" y2="303.47" xlink:href="#linear-gradient-10"></linearGradient><linearGradient id="linear-gradient-18" x1="1226.25" y1="628.65" x2="1724.31" y2="125.82" xlink:href="#linear-gradient-9"></linearGradient><linearGradient id="linear-gradient-19" x1="5408.99" y1="348.81" x2="5468.02" y2="308.71" xlink:href="#linear-gradient-10"></linearGradient><linearGradient id="linear-gradient-20" x1="5472.68" y1="188.51" x2="5598.19" y2="188.51" xlink:href="#linear-gradient-10"></linearGradient><linearGradient id="linear-gradient-21" x1="5448.82" y1="6.65" x2="5468.06" y2="127.7" gradientTransform="matrix(1, 0, 0, -1, -3933.53, 1321.8)" gradientUnits="userSpaceOnUse"><stop offset="0" stop-color="#53d8ff"></stop><stop offset="1" stop-color="#3840f7"></stop></linearGradient><linearGradient id="linear-gradient-22" x1="5456.53" y1="5.42" x2="5475.78" y2="126.47" xlink:href="#linear-gradient-21"></linearGradient><linearGradient id="linear-gradient-23" x1="5441.67" y1="7.78" x2="5460.91" y2="128.84" xlink:href="#linear-gradient-21"></linearGradient><linearGradient id="linear-gradient-24" x1="5406.6" y1="-122.16" x2="5327.6" y2="-143.81" gradientTransform="matrix(1, -0.05, -0.05, -1, -3864.67, 1265.33)" xlink:href="#linear-gradient-13"></linearGradient><linearGradient id="linear-gradient-25" x1="5368.14" y1="252.48" x2="5312.08" y2="193.23" gradientTransform="matrix(1, 0, 0, -1, -3933.53, 1321.8)" xlink:href="#linear-gradient-13"></linearGradient><linearGradient id="linear-gradient-26" x1="1243.71" y1="167.04" x2="1661.59" y2="167.04" gradientTransform="matrix(1, 0, 0, -1, 0.43, 1321.8)" gradientUnits="userSpaceOnUse"><stop offset="0" stop-color="#e10454"></stop><stop offset="1" stop-color="#e10454"></stop></linearGradient><linearGradient id="linear-gradient-27" x1="1267.71" y1="75.43" x2="1350.21" y2="75.43" xlink:href="#linear-gradient-26"></linearGradient><linearGradient id="linear-gradient-28" x1="1277.23" y1="75.44" x2="1359.73" y2="75.44" xlink:href="#linear-gradient-26"></linearGradient><linearGradient id="linear-gradient-29" x1="1564.27" y1="75.43" x2="1646.77" y2="75.43" xlink:href="#linear-gradient-26"></linearGradient><linearGradient id="linear-gradient-30" x1="1573.79" y1="75.44" x2="1656.29" y2="75.44" xlink:href="#linear-gradient-26"></linearGradient><clipPath id="clip-path" transform="translate(0 0)"><polygon class="cls-1" points="554.07 633.87 1094.67 960.19 1604.43 653.16 1604.43 177.8 596.51 177.8 554.07 633.87"></polygon></clipPath><linearGradient id="linear-gradient-31" x1="1368.78" y1="740.94" x2="817.45" y2="-14.73" gradientTransform="matrix(1, 0, 0, -1, 0.43, 1321.8)" xlink:href="#linear-gradient"></linearGradient><linearGradient id="linear-gradient-32" x1="1139.04" y1="1112.28" x2="1036.69" y2="40.67" gradientTransform="matrix(1, 0, 0, -1, 0.43, 1321.8)" xlink:href="#linear-gradient-4"></linearGradient><linearGradient id="linear-gradient-33" x1="1761.84" y1="642.58" x2="1895.55" y2="83.15" xlink:href="#linear-gradient-7"></linearGradient><linearGradient id="linear-gradient-34" x1="1983.22" y1="-120.91" x2="1985.48" y2="-53.23" gradientTransform="matrix(1, 0, 0, -1, -42.68, 1321.8)" gradientUnits="userSpaceOnUse"><stop offset="0" stop-color="#7c27dd"></stop><stop offset="1" stop-color="#2b41d9"></stop></linearGradient><linearGradient id="linear-gradient-35" x1="2063.64" y1="52.29" x2="1924.21" y2="-57.19" gradientTransform="matrix(1, 0, 0, -1, -42.68, 1321.8)" xlink:href="#linear-gradient-21"></linearGradient><linearGradient id="linear-gradient-36" x1="2744.97" y1="50.62" x2="2737.4" y2="-15.43" gradientTransform="translate(4682.82 1321.8) rotate(180)" xlink:href="#linear-gradient-10"></linearGradient><linearGradient id="linear-gradient-37" x1="2873.42" y1="19.82" x2="2738.58" y2="-86.06" gradientTransform="translate(4682.82 1321.8) rotate(180)" xlink:href="#linear-gradient-21"></linearGradient><linearGradient id="linear-gradient-38" x1="2834.55" y1="-162.76" x2="2836.81" y2="-95.08" gradientTransform="translate(4682.82 1321.8) rotate(180)" xlink:href="#linear-gradient-34"></linearGradient><linearGradient id="linear-gradient-39" x1="2824.71" y1="42.17" x2="2817.63" y2="-19.62" gradientTransform="translate(4682.82 1321.8) rotate(180)" xlink:href="#linear-gradient-10"></linearGradient><linearGradient id="linear-gradient-40" x1="4795.14" y1="44.14" x2="4803.64" y2="310.25" gradientTransform="translate(6696.98 1321.8) rotate(180)" gradientUnits="userSpaceOnUse"><stop offset="0" stop-color="#2c759e"></stop><stop offset="1" stop-color="#051042"></stop></linearGradient><linearGradient id="linear-gradient-41" x1="1851.18" y1="663.88" x2="1984.88" y2="104.53" xlink:href="#linear-gradient-7"></linearGradient><linearGradient id="linear-gradient-42" x1="938.51" y1="474.35" x2="972.44" y2="474.35" gradientTransform="translate(2870.98 1321.8) rotate(180)" xlink:href="#linear-gradient-10"></linearGradient><linearGradient id="linear-gradient-43" x1="1901.31" y1="675.86" x2="2035.01" y2="116.5" xlink:href="#linear-gradient-7"></linearGradient><linearGradient id="linear-gradient-44" x1="946.75" y1="296.17" x2="886.35" y2="244.58" gradientTransform="translate(2870.98 1321.8) rotate(180)" xlink:href="#linear-gradient-10"></linearGradient><linearGradient id="linear-gradient-45" x1="-7158.8" y1="949.62" x2="-7180.97" y2="926.18" gradientTransform="matrix(0.96, 0.29, 0.37, -1.22, 8314.29, 4084.9)" xlink:href="#linear-gradient-13"></linearGradient><linearGradient id="linear-gradient-46" x1="1767.01" y1="481.25" x2="1769.51" y2="440.71" gradientTransform="matrix(1, 0, 0, -1, 0.43, 1321.8)" xlink:href="#linear-gradient-10"></linearGradient><linearGradient id="linear-gradient-47" x1="-3059.58" y1="4599.57" x2="-3112.84" y2="4529.12" gradientTransform="matrix(-0.99, -0.16, 0.16, -0.99, -1872.93, 4873.95)" xlink:href="#linear-gradient-10"></linearGradient><linearGradient id="linear-gradient-48" x1="-3113.46" y1="4584.09" x2="-3049.85" y2="4584.09" gradientTransform="matrix(-0.99, -0.16, 0.16, -0.99, -1872.93, 4873.95)" xlink:href="#linear-gradient-13"></linearGradient><linearGradient id="linear-gradient-49" x1="-3137.95" y1="4543.24" x2="-3096.12" y2="4586.15" gradientTransform="matrix(-0.99, -0.16, 0.16, -0.99, -1872.93, 4873.95)" xlink:href="#linear-gradient-10"></linearGradient><linearGradient id="linear-gradient-50" x1="1452.28" y1="206.88" x2="1411.88" y2="8.4" gradientTransform="matrix(1, 0, 0, -1, 0.43, 1321.8)" xlink:href="#linear-gradient-4"></linearGradient><linearGradient id="linear-gradient-51" x1="219.35" y1="507.31" x2="137.21" y2="385.73" gradientTransform="translate(1547.43 1321.8) rotate(180)" xlink:href="#linear-gradient-7"></linearGradient><linearGradient id="linear-gradient-52" x1="1484.84" y1="540.32" x2="1488.8" y2="455.76" gradientTransform="matrix(1, 0, 0, -1, 0, 1340)" xlink:href="#linear-gradient-7"></linearGradient><linearGradient id="linear-gradient-53" x1="-4314.03" y1="250.98" x2="-4022.49" y2="250.98" gradientTransform="translate(-3611.69 1241.12) rotate(-178.85)" xlink:href="#linear-gradient-13"></linearGradient><linearGradient id="linear-gradient-54" x1="-4085.08" y1="372.93" x2="-4686.12" y2="-395.94" gradientTransform="translate(-3611.69 1241.12) rotate(-178.85)" xlink:href="#linear-gradient-4"></linearGradient><linearGradient id="linear-gradient-55" x1="555.69" y1="449.18" x2="560.34" y2="129.99" gradientTransform="matrix(0.71, 0.71, 0.71, -0.71, -23.01, 849.5)" xlink:href="#linear-gradient-7"></linearGradient><linearGradient id="linear-gradient-56" x1="1548.58" y1="44.75" x2="1362.72" y2="-157.42" gradientTransform="matrix(1, 0, 0, -1, -1198.1, 1321.8)" xlink:href="#linear-gradient-13"></linearGradient><linearGradient id="linear-gradient-57" x1="1488.25" y1="29.76" x2="1504.76" y2="29.76" gradientTransform="matrix(1, 0, 0, -1, -1198.1, 1321.8)" xlink:href="#linear-gradient-10"></linearGradient><linearGradient id="linear-gradient-58" x1="1458.36" y1="44.41" x2="1494.84" y2="256.35" gradientTransform="matrix(1, 0, 0, -1, -1198.1, 1321.8)" xlink:href="#linear-gradient-13"></linearGradient><linearGradient id="linear-gradient-59" x1="1506.88" y1="83.08" x2="1321.02" y2="-119.09" gradientTransform="matrix(1, 0, 0, -1, -1198.1, 1321.8)" xlink:href="#linear-gradient-13"></linearGradient><linearGradient id="linear-gradient-60" x1="1428.75" y1="30.58" x2="1443.01" y2="30.58" gradientTransform="matrix(1, 0, 0, -1, -1198.1, 1321.8)" xlink:href="#linear-gradient-10"></linearGradient><linearGradient id="linear-gradient-61" x1="1417.1" y1="51.51" x2="1453.58" y2="263.45" gradientTransform="matrix(1, 0, 0, -1, -1198.1, 1321.8)" xlink:href="#linear-gradient-13"></linearGradient><linearGradient id="linear-gradient-62" x1="1391.35" y1="306.38" x2="1651.13" y2="493.33" gradientTransform="matrix(1, 0, 0, -1, -1198.1, 1321.8)" xlink:href="#linear-gradient-7"></linearGradient><linearGradient id="linear-gradient-63" x1="1556.19" y1="460.45" x2="1640.53" y2="460.45" gradientTransform="matrix(1, 0, 0, -1, -1198.1, 1321.8)" xlink:href="#linear-gradient-10"></linearGradient><linearGradient id="linear-gradient-64" x1="8877.98" y1="474.56" x2="8934.57" y2="345.79" gradientTransform="translate(9301.68 1321.8) rotate(180)" xlink:href="#linear-gradient-10"></linearGradient><linearGradient id="linear-gradient-65" x1="1640.11" y1="517.48" x2="1663.72" y2="553.79" gradientTransform="matrix(1, 0, 0, -1, -1198.1, 1321.8)" xlink:href="#linear-gradient-10"></linearGradient><linearGradient id="linear-gradient-66" x1="1356.96" y1="354.18" x2="1616.74" y2="541.13" gradientTransform="matrix(1, 0, 0, -1, -1198.1, 1321.8)" xlink:href="#linear-gradient-7"></linearGradient><linearGradient id="linear-gradient-67" x1="1453.58" y1="455.08" x2="1495.78" y2="455.08" gradientTransform="matrix(1, 0, 0, -1, -1198.1, 1321.8)" xlink:href="#linear-gradient-10"></linearGradient><linearGradient id="linear-gradient-68" x1="-4368.63" y1="2759.13" x2="-4384.4" y2="2811.14" gradientTransform="matrix(0.75, -0.67, -0.67, -0.75, 5423.01, -23.75)" xlink:href="#linear-gradient-10"></linearGradient><linearGradient id="linear-gradient-69" x1="-1529.11" y1="6034.73" x2="-1399.43" y2="6182.78" gradientTransform="matrix(0.75, -0.67, -0.67, -0.75, 5423.01, -23.75)" xlink:href="#linear-gradient-13"></linearGradient><linearGradient id="linear-gradient-70" x1="-4384.65" y1="2759.4" x2="-4398.84" y2="2806.2" gradientTransform="matrix(0.75, -0.67, -0.67, -0.75, 5423.01, -23.75)" xlink:href="#linear-gradient-10"></linearGradient><linearGradient id="linear-gradient-71" x1="1458.74" y1="281.29" x2="1371.86" y2="350.8" gradientTransform="matrix(1, 0, 0, -1, -1198.1, 1321.8)" xlink:href="#linear-gradient-10"></linearGradient><linearGradient id="linear-gradient-72" x1="-8590.06" y1="476.34" x2="-8612.23" y2="452.9" gradientTransform="matrix(0.96, 0.29, 0.37, -1.22, 8314.29, 4084.9)" xlink:href="#linear-gradient-13"></linearGradient><linearGradient id="linear-gradient-73" x1="229.74" y1="312.26" x2="213.64" y2="300.24" gradientTransform="matrix(1, 0, 0, -1, 0.43, 1321.8)" xlink:href="#linear-gradient-10"></linearGradient></defs><title>مشاوره قیمت طراحی سایت</title><g id="Illustration"><path class="cls-2" d="M24.43,629.16c25.38,44.91,65.72,82.69,96.8,124.64,89.8,121.34-3.64,263.33,37.35,394.14,35.71,114,184.24,144.53,292.81,149.15,183,7.8,365.69-3.88,542.07-53.5,122.4-34.43,245-79.51,374-82.24,131.88-2.79,255.93,50.16,383.34,75.2,139.91,27.49,307.24-2.36,341-158.6,20.9-96.78-35.36-185.92-40.62-281.21-7-126.16,118.79-195.39,135.07-313.33,10.26-74.36-28.08-140.8-78.1-194.61C2055.38,232,1984.4,181.88,1903,177.22c-85.12-4.87-161.08,39.82-240.62,61.15-223.55,60-350.44-140-556.17-167.89-92.77-12.58-206.8-6.61-291,36.58C736.86,147.23,698.85,236.44,611,262.64c-93,27.72-178.09-27.69-266.46-45.4C253,199,166.43,231.49,109.21,302.8,53.71,372-6.35,463,.54,554.34,2.64,582.07,11.63,606.52,24.43,629.16Z" transform="translate(0 0)"></path><path class="cls-3" d="M2164.37,586.93c-24.39,46.7-63.15,86-93,129.64-86.31,126.17,3.49,273.82-35.9,409.84-34.32,118.51-177.06,150.28-281.4,155.09-175.82,8.1-351.44-4-520.95-55.64-117.63-35.8-235.41-82.67-359.39-85.51-126.74-2.9-246,52.15-368.41,78.19-134.45,28.59-295.26-2.46-327.67-164.91-20.09-100.64,34-193.32,39-292.41C223.34,630,102.48,558.05,86.84,435.41c-9.86-77.32,27-146.4,75-202.35,50.72-59,118.93-111.17,197.18-116,81.8-5.07,154.8,41.4,231.24,63.58C805.17,243,927.11,35.05,1124.82,6.05,1214-7,1323.56-.82,1404.52,44.05c75.28,41.76,111.81,134.52,196.25,161.76,89.38,28.83,171.16-28.79,256.09-47.2,87.89-19,171,14.77,226,88.93,53.33,71.9,111,166.61,104.43,261.55C2185.32,538,2176.67,563.39,2164.37,586.93Z" transform="translate(0 0)"></path><path class="cls-4" d="M584.13,1269.8c-54.54,10.91-124.18-48.55-146.62-113.51-23.08-66.89,19.25-94.89,18.92-187.65-.37-105.37-55.18-121.25-91.44-263.28-8.18-32-55.51-217.48,3.16-252.24,54.28-32.14,206.61,60.1,233.28,178.15,19.08,84.17-39.78,119.53-17.3,217.53,19.73,86,71.57,87.27,91.44,170.27C699.75,1120.13,655.73,1255.44,584.13,1269.8Z" transform="translate(0 0)"></path><path class="cls-5" d="M580.17,1295.28c14.7-113.53-14-288.67-40.63-415.61C510.69,742.24,478,630.14,477.62,629l-4.54,1.34c.33,1.11,33,113.06,61.84,250.32,26.57,126.57,55.17,301.13,40.56,414Z" transform="translate(0 0)"></path><path class="cls-6" d="M521.32,1257.08c71.54-37.28,96-165.27,55.36-206.87-27.48-28.11-66.88,1.46-104.89-27.68-48.53-37.2-12.83-107.26-51-198.12-32.46-77.33-110.36-150.5-155.87-135.49-47.64,15.72-72.74,132.32-32.05,202.5,26.46,45.63,67,47.88,75.76,90.32,10.19,49.25-39.07,71.71-39.34,119.46C268.81,1187,426.68,1306.39,521.32,1257.08Z" transform="translate(0 0)"></path><path class="cls-5" d="M482.72,1289.86a2.94,2.94,0,0,0,2.62-4.19c-94.84-195.42-122.65-422.13-122.91-424.4a2.92,2.92,0,0,0-5.79.69c.27,2.27,28.2,230,123.47,426.25A2.91,2.91,0,0,0,482.72,1289.86Z" transform="translate(0 0)"></path><path class="cls-7" d="M288.14,920a1.42,1.42,0,0,0,.86-.29,1.39,1.39,0,0,0,.27-2l0,0c-29.93-38.42-63.11-96.15-51.17-153,7.11-33.83,27.14-51.48,27.34-51.65a1.4,1.4,0,0,0-1.83-2.11c-.85.74-20.93,18.44-28.23,53.19-6.72,31.93-3.2,84.79,51.69,155.24A1.41,1.41,0,0,0,288.14,920Z" transform="translate(0 0)"></path><path class="cls-7" d="M527.77,1240a1.39,1.39,0,0,0,1.15-.6c46-67.14,61.69-119,46.63-154.2-13.4-31.27-47.21-37.09-47.55-37.15a1.41,1.41,0,0,0-1.6,1.16,1.38,1.38,0,0,0,1.15,1.59c.32.06,32.68,5.67,45.45,35.53,14.64,34.24-1,85.21-46.38,151.49a1.39,1.39,0,0,0,1.15,2.18Z" transform="translate(0 0)"></path><path class="cls-8" d="M1615.43,1269.8c54.53,10.91,124.18-48.55,146.61-113.51,23.09-66.84-19.24-94.84-18.92-187.6.37-105.37,55.19-121.25,91.44-263.28,8.18-32,55.52-217.48-3.15-252.24-54.25-32.14-206.62,60.1-233.33,178.15-19,84.12,39.87,119.48,17.35,217.48-19.73,86-71.58,87.27-91.44,170.27C1499.84,1120.13,1543.86,1255.44,1615.43,1269.8Z" transform="translate(0 0)"></path><path class="cls-5" d="M1619.43,1295.28c-14.71-113.53,14-288.67,40.62-415.61C1688.9,742.24,1721.65,630.14,1722,629l4.53,1.34c-.32,1.11-33,113.06-61.84,250.32-26.57,126.57-55.17,301.13-40.55,414Z" transform="translate(0 0)"></path><path class="cls-9" d="M1678.27,1257.08c-71.53-37.28-96-165.27-55.36-206.87,27.48-28.11,66.88,1.46,104.89-27.68,48.54-37.2,12.83-107.26,51-198.12,32.47-77.33,110.36-150.5,155.88-135.49,47.65,15.72,72.74,132.32,32,202.5-26.46,45.63-67,47.88-75.75,90.32-10.2,49.25,39.06,71.71,39.33,119.46C1930.78,1187,1772.91,1306.39,1678.27,1257.08Z" transform="translate(0 0)"></path><path class="cls-5" d="M1716.88,1289.86a2.94,2.94,0,0,1-2.62-4.19c94.83-195.42,122.64-422.13,122.91-424.4a2.92,2.92,0,0,1,5.79.69c-.27,2.27-28.2,230-123.46,426.25A2.9,2.9,0,0,1,1716.88,1289.86Z" transform="translate(0 0)"></path><path class="cls-7" d="M1911.43,920a1.41,1.41,0,0,1-1.12-2.27l0,0c29.94-38.42,63.11-96.15,51.17-153-7.11-33.83-27.13-51.48-27.33-51.65a1.39,1.39,0,0,1,1.82-2.11h0c.85.74,20.93,18.44,28.24,53.19,6.71,31.93,3.19,84.79-51.7,155.24A1.41,1.41,0,0,1,1911.43,920Z" transform="translate(0 0)"></path><path class="cls-7" d="M1671.82,1240a1.39,1.39,0,0,1-1.15-.6c-46-67.14-61.69-119-46.63-154.2,13.4-31.27,47.22-37.09,47.56-37.15a1.4,1.4,0,0,1,1.59,1.16,1.38,1.38,0,0,1-1.14,1.59h0c-.32.06-32.68,5.67-45.45,35.53-14.64,34.24,1,85.21,46.38,151.49a1.41,1.41,0,0,1-.36,1.94A1.39,1.39,0,0,1,1671.82,1240Z" transform="translate(0 0)"></path><path class="cls-10" d="M505.19,604.34v598.34c0,44,38.68,79.72,86.38,79.72H1596.29c47.7,0,86.38-35.69,86.38-79.72V604.34Z" transform="translate(0 0)"></path><path class="cls-11" d="M1388.91,426.19,1133.53,271.66c-24.85-15-54.36-15-79.2,0L799,426.14,504,604.57l295,178,295,178,295-178.19,295-177.8Z" transform="translate(0 0)"></path><path class="cls-5" d="M528.26,1256.54a2,2,0,0,1-1.37-.52,2.07,2.07,0,0,1-.17-2.92L894.63,839.18a2.06,2.06,0,0,1,3.08,2.74l-367.9,413.93A2.08,2.08,0,0,1,528.26,1256.54Z" transform="translate(0 0)"></path><path class="cls-5" d="M1659.6,1256.54a2.08,2.08,0,0,1-1.55-.69l-367.9-413.93a2.06,2.06,0,1,1,3.08-2.74l367.91,413.92a2.07,2.07,0,0,1-.17,2.92A2,2,0,0,1,1659.6,1256.54Z" transform="translate(0 0)"></path><path class="cls-12" d="M1482,973.68s-12.13-14.54,4.36-23.5,42.41.87,45.68,19.93,19.66,7.75,26.81,3.57,27.11-9.83,32.17,11.92c2,8.61-.53,19.62,3.21,27.63,5.15,11,21.9,8.19,31,12.41,11.89,5.48,18.11,16.09,11.92,28.47-9.54,19.07-28.3,31.18-18.17,47.76s-30.69,53.82-44.69,19.27-35.74-28.71-53.32-30.89-26.51-17.38-21.74-32.86-1.49-24.72-8-31.28S1462.67,991.26,1482,973.68Z" transform="translate(0 0)"></path><path class="cls-13" d="M1456.51,1159.08s-13.23,2-28.11,12a7.42,7.42,0,0,0-3.27,7.08c1.78,14.11,9.1,59.78,33.25,104.39a11.2,11.2,0,0,1,1.08,7.7l-4.19,19.53-7.79,7.29h20l13.34-36.11-5.7-1.8a10.79,10.79,0,0,1-7.54-10.11l-.67-38.74c.57-17.26-10.59-29.17-10.59-29.17l32-1.56Z" transform="translate(0 0)"></path><path class="cls-14" d="M1439.66,1320.6c-1.83,2.38,19.64,5.54,30.49.31,0,0,15-26.16,15-39.63,0,0-1.2-2.75-10-2.12,0,0-5,31-10.38,34.44s-14.92.35-14.92.35S1442.35,1317.07,1439.66,1320.6Z" transform="translate(0 0)"></path><path class="cls-15" d="M1484.33,1201.71c-.17-.3-34.46-4.12-34.46-4.12s1.12,10.42-2.39,24.78-53.85,76.53-53.85,76.53l5.28,16.74c-16.32,5.68-32.38,6.59-48.18,2.9l32.7-19.64s30.62-104.34,49.37-123l34.38-11.9Z" transform="translate(0 0)"></path><path class="cls-16" d="M1561.23,1141s19.76,29.38,21.38,42.79-5.41,18.85-26.14,19.75-76.07.88-76.07.88l-47.23-40.37s34.42-12.28,43.37-15.75S1561.23,1141,1561.23,1141Z" transform="translate(0 0)"></path><path class="cls-17" d="M1396.91,1310s5.69,5.51,1.85,11.63c0,0-45,8-57.25,4.36,0,0,2.54-5.79,16.3-12.39l-1,.78a1.64,1.64,0,0,0,1.09,3C1367,1316.8,1385.73,1315.15,1396.91,1310Z" transform="translate(0 0)"></path><path class="cls-18" d="M1507.8,1137.11s-23-21.91-34.33-36.42a30.8,30.8,0,0,1-5.21-27.71c5.17-17.42,14.36-35.46,15.2-38.27,1.28-4.3,27.08-4.12,27.08-4.12s50.76,32.94,70.71,88.75l-22.4,7s-13.26-22.23-26.35-36.37c0,0,22.66,29.94,23.45,42.19Z" transform="translate(0 0)"></path><path class="cls-19" d="M1480.34,1010.66c.27.89,7,23.21,7.53,23.68s14.76,1.23,21.46-3.35L1498,1007.18Z" transform="translate(0 0)"></path><path class="cls-20" d="M1491.43,963.8s-12.16,5.13-20.42,22.69-2.1,25.68,5.66,26.79,19.34.94,31.61-10.4S1507.2,957.69,1491.43,963.8Z" transform="translate(0 0)"></path><path class="cls-21" d="M1500,993.48s9.17-25.7-13.61-26l-5.36,3.75s-8.36-14.25,5.36-21,34.19-.75,40,17.74,2.42,30.42-7.29,39.26-13.72-1.18-13.72-1.18,5.29-8.27,3.14-12.7-7.12.92-7.12.92Z" transform="translate(0 0)"></path><path class="cls-22" d="M1502.56,996.34s4.63-13.23,10.82-8-5,12.22-9.42,14.48Z" transform="translate(0 0)"></path><path class="cls-23" d="M1460.93,1138.73l16.91-16.29,23.38,9.88s23.28,3.61,36.6,0l13.32-3.61,30.11-9.37,4.72,13.36A8,8,0,0,1,1583,1142a52.7,52.7,0,0,1-7.6,4.73c-4,1.74-97.73-1.2-97.73-1.2Z" transform="translate(0 0)"></path><path class="cls-5" d="M1583.73,995l-.8-.09c.69-6.39-.37-10.65-3.25-13-5.71-4.7-17.55-1-28,2.22-5.29,1.65-10.29,3.2-13.79,3.39a8,8,0,0,1-6.38-2.12c-2.84-2.83-2.64-7.42-2.63-7.61h.81s-.2,4.43,2.39,7a7.32,7.32,0,0,0,5.77,1.88c3.4-.19,8.35-1.72,13.6-3.35,10.64-3.31,22.7-7.05,28.74-2.08C1583.3,983.87,1584.43,988.36,1583.73,995Z" transform="translate(0 0)"></path><path class="cls-5" d="M1608.61,1091.31c-1.88-7.74,3.2-14.28,9.09-21.85,4.23-5.44,9-11.62,11.6-19a10.88,10.88,0,0,0-.79-9.65c-5.48-8.94-23.66-11.54-23.84-11.57l.11-.79c.76.1,18.74,2.68,24.41,11.94a11.65,11.65,0,0,1,.87,10.34c-2.61,7.53-7.46,13.76-11.73,19.26-5.76,7.4-10.73,13.8-8.94,21.16Z" transform="translate(0 0)"></path><rect class="cls-24" x="1517.79" y="1223.28" width="8.9" height="96.29"></rect><path class="cls-25" d="M1561.23,1321.43h-78a5.79,5.79,0,0,1,5.79-5.79h66.41a5.79,5.79,0,0,1,5.79,5.79h0Z" transform="translate(0 0)"></path><rect class="cls-26" x="1474.75" y="1201.71" width="98.05" height="27.81" rx="9.58"></rect><path class="cls-27" d="M1524.9,1146.41h-.22l-98.06-.11a4.39,4.39,0,0,1,0-8.78l98.06.11a4.39,4.39,0,0,1,.21,8.77Z" transform="translate(0 0)"></path><path class="cls-28" d="M1338.48,1057.39h81.66a15.55,15.55,0,0,1,14.07,8.92l37.75,80H1370.48a9.44,9.44,0,0,1-8.79-6l-29.26-74a6.53,6.53,0,0,1,3.68-8.46A6.61,6.61,0,0,1,1338.48,1057.39Z" transform="translate(0 0)"></path><path class="cls-29" d="M1662,1150a3.63,3.63,0,0,0-.85-3.14,4.17,4.17,0,0,0-3.12-1.38H1248.8a4.73,4.73,0,0,0-3.92,2,4.13,4.13,0,0,0-.31,4.18l4.44,9a6.24,6.24,0,0,0,5.63,3.38h400.53a4.64,4.64,0,0,0,4.62-3.57Z" transform="translate(0 0)"></path><path class="cls-30" d="M1271.73,1339.6a3.4,3.4,0,0,1-1.41-.3,3.71,3.71,0,0,1-1.88-4.83l75.31-179.12a3.55,3.55,0,0,1,4.62-2l.09,0a3.69,3.69,0,0,1,1.88,4.82L1275,1337.37A3.59,3.59,0,0,1,1271.73,1339.6Z" transform="translate(0 0)"></path><path class="cls-31" d="M1356.57,1339.6a3.59,3.59,0,0,1-3.3-2.23L1278,1158.25a3.7,3.7,0,0,1,1.88-4.82,3.56,3.56,0,0,1,4.68,1.82l0,.1,75.31,179.12a3.72,3.72,0,0,1-1.88,4.83A3.48,3.48,0,0,1,1356.57,1339.6Z" transform="translate(0 0)"></path><path class="cls-32" d="M1568.29,1339.6a3.65,3.65,0,0,1-1.42-.3,3.71,3.71,0,0,1-1.87-4.83l75.3-179.12a3.55,3.55,0,0,1,4.64-1.95l.08,0a3.7,3.7,0,0,1,1.88,4.82l-75.31,179.12A3.59,3.59,0,0,1,1568.29,1339.6Z" transform="translate(0 0)"></path><path class="cls-33" d="M1653.13,1339.6a3.59,3.59,0,0,1-3.3-2.23l-75.31-179.12a3.7,3.7,0,0,1,1.88-4.82,3.56,3.56,0,0,1,4.68,1.82l0,.1,75.31,179.12a3.72,3.72,0,0,1-1.88,4.83A3.48,3.48,0,0,1,1653.13,1339.6Z" transform="translate(0 0)"></path><g class="cls-34"><path class="cls-5" d="M1460.2,314.8H636c-14.57,0-26.57,12.61-26.57,27.14V1010.8h969V434.91Z" transform="translate(0 0)"></path><path class="cls-35" d="M1578,434.91l-108.15.93a9.59,9.59,0,0,1-7.15-3.11c-2-2-2.24-4.78-2.24-7.64V315.63Z" transform="translate(0 0)"></path><path class="cls-36" d="M1307.7,669.09q0,37.71-12,69t-34,49.11q-22,17.81-51.08,17.81-19.38,0-34.31-9.3a53.37,53.37,0,0,1-21.48-24.49h-4.19q-28.29,33.79-72,33.79-46.37,0-73.08-27.9T978.72,700.8q0-55.26,35.1-89T1105.49,578a317.66,317.66,0,0,1,49.64,4.32q27.11,4.32,44.65,10.35l-6,128.08q0,36.4,19.91,36.41,16.75,0,26.71-24.49t10-64q0-42.18-17.55-74.52a119.14,119.14,0,0,0-49.42-49.44q-31.82-17-72.68-17-52.9,0-91.94,21.74T959,612.14q-20.82,41-20.82,94.69,0,72.28,38.63,110.92t112,38.64q27.76,0,61-6.16a403.35,403.35,0,0,0,65.48-17.94v50.29q-56.05,23.83-124.42,23.84-99.52,0-155.19-52.39T880,708.38q0-64.7,28.42-117.48t80.94-82.76q52.51-30,120.88-30,57.61,0,102.93,23.57t69.94,67.09Q1307.7,612.26,1307.7,669.09ZM1039.49,701.8q0,55.28,45,55.27,23.57,0,35.88-16.64t14.93-54.08l3.41-57.89a143.74,143.74,0,0,0-30.13-2.88q-32.73,0-50.94,20.43T1039.49,701.8Z" transform="translate(0 0)"></path></g><path class="cls-5" d="M1706.09,434.32c-1.18-101.6,80.53-185.22,182.13-186.39a183,183,0,0,1,104.62,31.12l10.48-10.63a5.39,5.39,0,0,1,9,2.36l18.33,66.6a5.39,5.39,0,0,1-6.56,6.64l-66.84-17.43a5.4,5.4,0,0,1-3.84-6.6,5.48,5.48,0,0,1,1.36-2.4l11.81-12a147.09,147.09,0,0,0-78-21.22c-81.46.94-147,67.95-146,149.36s68,146.8,149.44,145.85a148.19,148.19,0,0,0,146-146.49c0-2.81,2.22-6,5.32-6l25.75-.3c1.66,0,2.87,1.21,3.67,2l.21.22a7,7,0,0,1,1.59,4.52,184.47,184.47,0,0,1-182.13,182.89C1790.88,617.62,1707.26,535.92,1706.09,434.32Zm320.79-95.52a1,1,0,0,0,0-.35l-18.37-66.65a1.44,1.44,0,0,0-1-1,1.41,1.41,0,0,0-1.35.38l-12.82,13-1.37-.94a179.13,179.13,0,0,0-103.71-31.36c-99.4,1.15-179.33,82.95-178.18,182.35s83,179.37,182.35,178.22a180.48,180.48,0,0,0,178.19-178.93h0a3.24,3.24,0,0,0-.44-1.69l-.22-.22a6.5,6.5,0,0,0-.91-.83l-25.61.3c-.55,0-1.37,1.09-1.38,2.05a152.19,152.19,0,0,1-150,150.44c-83.66,1-152.51-66.23-153.48-149.79s66.31-152.43,150-153.4a151,151,0,0,1,82.26,23.14l2.1,1.32-15.31,15.53a1.41,1.41,0,0,0-.35,1.37,1.37,1.37,0,0,0,1,1l66.84,17.43a1.38,1.38,0,0,0,1.35-.37A1.45,1.45,0,0,0,2026.88,338.8Z" transform="translate(0 0)"></path><path class="cls-5" d="M1834.05,468.44H1781V457.27L1800,438q8.48-8.69,11.07-12a26.52,26.52,0,0,0,3.74-6.21,15.78,15.78,0,0,0,1.14-5.92q0-4.58-2.52-6.81a9.77,9.77,0,0,0-6.72-2.23,19.34,19.34,0,0,0-8.58,2,44.19,44.19,0,0,0-8.67,5.77l-8.73-10.34a56.57,56.57,0,0,1,9.3-6.75,34.09,34.09,0,0,1,8-3,41.68,41.68,0,0,1,9.77-1.07,28.82,28.82,0,0,1,12.57,2.6,20,20,0,0,1,8.47,7.27,19.31,19.31,0,0,1,3,10.71,26.09,26.09,0,0,1-1.84,9.84,37.55,37.55,0,0,1-5.72,9.43,139.5,139.5,0,0,1-13.63,13.77l-9.77,9.19V455H1834Z" transform="translate(0 0)"></path><path class="cls-5" d="M1896.5,452.7h-9.14v15.74h-15.69V452.7h-32.42V441.53l33.3-49h14.81v47.75h9.14Zm-24.83-12.47V427.35c0-2.15.08-5.27.26-9.36s.31-6.46.41-7.11h-.41a57.72,57.72,0,0,1-4.63,8.31l-13.92,21Z" transform="translate(0 0)"></path><path class="cls-5" d="M1941.6,392.48l-28.32,76h-14.39l28.31-76Z" transform="translate(0 0)"></path><path class="cls-5" d="M1953.91,468.44l28.52-62.34H1945V392.59h54.46v10.08l-28.73,65.77Z" transform="translate(0 0)"></path><path class="cls-5" d="M414.88,490.86a6.35,6.35,0,0,1-6-4.23L400,461.55a129.15,129.15,0,0,1-34.81-14.1L341.37,459.3a6.37,6.37,0,0,1-7.3-1.16l-24.64-24.22a6.38,6.38,0,0,1-1.28-7.27l11.46-24a129.1,129.1,0,0,1-14.67-34.57l-25.21-8.47a6.36,6.36,0,0,1-4.34-6l-.28-34.54a6.39,6.39,0,0,1,4.23-6l25.09-8.92a129.34,129.34,0,0,1,14.1-34.82L306.69,245.5a6.34,6.34,0,0,1,1.16-7.29l24.22-24.62a6.34,6.34,0,0,1,7.27-1.28l24,11.46a129.1,129.1,0,0,1,34.57-14.67l8.52-25.22a6.36,6.36,0,0,1,6-4.33l34.54-.29h0a6.36,6.36,0,0,1,6,4.24l8.88,25.08a129.15,129.15,0,0,1,34.81,14.1l23.78-11.88a6.38,6.38,0,0,1,7.29,1.16l24.65,24.25a6.34,6.34,0,0,1,1.27,7.26l-11.46,24a129.16,129.16,0,0,1,14.67,34.58l25.22,8.46a6.36,6.36,0,0,1,4.33,6l.29,34.55a6.36,6.36,0,0,1-4.24,6L557.43,366a129.37,129.37,0,0,1-14.11,34.82l11.85,23.84a6.34,6.34,0,0,1-1.16,7.28l-24.23,24.63a6.36,6.36,0,0,1-7.26,1.28l-24-11.46A129.1,129.1,0,0,1,464,461l-8.52,25.21a6.36,6.36,0,0,1-6,4.33Zm-49.31-52.51,1.86,1.15a121,121,0,0,0,36.47,14.77l2.15.49L416,482.87l32.23-.26,9.49-28.28,2.14-.52a121.19,121.19,0,0,0,36.23-15.37l1.86-1.17,26.94,12.85,22.6-23L534.2,400.4l1.14-1.88a121.29,121.29,0,0,0,14.78-36.47l.48-2.15L578.72,350l-.29-32.21-28.27-9.49-.52-2.14a121.45,121.45,0,0,0-15.37-36.23L533.09,268l12.85-26.94-23-22.6L496.29,231.8l-1.86-1.17A121.45,121.45,0,0,0,458,215.85l-2.14-.48-10-28.12-32.23.27-9.47,28.28-2.14.52a121.39,121.39,0,0,0-36.22,15.37l-1.87,1.18L337,220l-22.6,23,13.29,26.72-1.15,1.88a121.69,121.69,0,0,0-14.77,36.48l-.49,2.15-28.11,9.95.26,32.23,28.28,9.49.52,2.14a121,121,0,0,0,15.37,36.22l1.17,1.87-12.85,26.93,23,22.6ZM401,212.44ZM430.43,423a87.34,87.34,0,1,1-.7-174.68,88.49,88.49,0,0,1,18.51,1.8,4,4,0,0,1-1.62,7.82,79.35,79.35,0,1,0,51.61,36.41,4,4,0,0,1,6.81-4.16A87.36,87.36,0,0,1,431.16,423Z" transform="translate(0 0)"></path><path class="cls-5" d="M430.87,369.74a34.67,34.67,0,0,1-8.7-68.22h0a34.67,34.67,0,1,1,8.7,68.22Zm-6.69-60.49a26.11,26.11,0,1,0,.36-.1Z" transform="translate(0 0)"></path><path class="cls-5" d="M280.17,620.59a4.14,4.14,0,0,1-3.32-1.68l-7.25-9.84a63.15,63.15,0,0,1-17.17-1.55l-8.9,8.39a4.12,4.12,0,0,1-4.75.65l-14.71-7.7a4.15,4.15,0,0,1-2.17-4.28l1.83-12.09a63.15,63.15,0,0,1-11-13.22l-12.21-.35a4.15,4.15,0,0,1-3.83-2.9l-5-15.86a4.13,4.13,0,0,1,1.49-4.56l9.84-7.24a63,63,0,0,1,1.55-17.15l-8.39-8.9a4.13,4.13,0,0,1-.66-4.75l7.74-14.76a4.14,4.14,0,0,1,4.29-2.16l12.08,1.83a62.49,62.49,0,0,1,13.21-11l.36-12.21a4.14,4.14,0,0,1,2.89-3.83L252,470.48a4.14,4.14,0,0,1,4.56,1.48l7.25,9.84a63.8,63.8,0,0,1,17.15,1.55L289.8,475a4.16,4.16,0,0,1,4.75-.67L309.27,482a4.12,4.12,0,0,1,2.16,4.28l-1.83,12.08a63.67,63.67,0,0,1,11,13.22l12.21.36a4.11,4.11,0,0,1,3.82,2.9l5,15.85a4.13,4.13,0,0,1-1.49,4.56l-9.84,7.25a63,63,0,0,1-1.55,17.15l8.39,8.89a4.14,4.14,0,0,1,.66,4.75L330.09,588a4.11,4.11,0,0,1-4.28,2.17l-12.09-1.83a63.41,63.41,0,0,1-13.22,11l-.35,12.21a4.13,4.13,0,0,1-2.89,3.82l-15.87,5A3.89,3.89,0,0,1,280.17,620.59Zm-.55-5.9Zm-7.19-11.81,8.41,11.41,13.33-4.17.42-14.16,1.42-.84a57.26,57.26,0,0,0,14.26-11.91l1.08-1.25,14,2.12,6.48-12.37-9.73-10.32.41-1.6a56.79,56.79,0,0,0,1.67-18.5l-.12-1.65,11.41-8.4-4.16-13.34-14.17-.41-.84-1.42a57.11,57.11,0,0,0-11.87-14.27l-1.25-1.08,2.12-14-12.37-6.48L282.61,490l-1.6-.42a57.37,57.37,0,0,0-18.5-1.67l-1.65.12-8.4-11.41-13.32,4.21L238.73,495l-1.42.84a57,57,0,0,0-14.26,11.91L222,509l-14-2.13-6.54,12.33,9.73,10.31-.41,1.6a57.16,57.16,0,0,0-1.68,18.51l.12,1.64-11.41,8.41L202,573l14.17.41.84,1.43a57.26,57.26,0,0,0,11.91,14.26l1.25,1.08-2.13,14,12.44,6.5,10.31-9.73,1.6.41A57.43,57.43,0,0,0,270.85,603Zm-65.79-96.29Zm99.85-19.27Zm-70.31-8Zm17.56-3.15Zm12.82,112.66a43.09,43.09,0,0,1-3.89-86,3,3,0,1,1,.54,6h0a37.07,37.07,0,1,0,28,9.27,3,3,0,0,1,4-4.47,43.1,43.1,0,0,1-28.66,75.24Z" transform="translate(0 0)"></path><path class="cls-37" d="M1846.43,881.67s-23,21.82-30.61,60.61-25.67-54.83-25.67-54.83h-18.26s-6.88,96.47,44.65,104.14a27.67,27.67,0,0,0,25.83-10.23c9.41-12,24.09-33.21,27.64-53.47C1867,895.94,1846.43,881.67,1846.43,881.67Z" transform="translate(0 0)"></path><path class="cls-38" d="M1963.34,1328.37a4.28,4.28,0,0,0-.09-.87c-4.32-17.11-22-25.88-22-25.88l-8.49.66c-4.88,15.09-8,22.45-7.24,26.57a2.14,2.14,0,0,0,.09.34A201.56,201.56,0,0,0,1963.34,1328.37Z" transform="translate(0 0)"></path><path class="cls-39" d="M1925.64,1329.19a3.65,3.65,0,0,0,2.69,2.72c10,2.1,25.8.41,32.45-.46a3.1,3.1,0,0,0,2.56-3.08A201.24,201.24,0,0,1,1925.64,1329.19Z" transform="translate(0 0)"></path><path class="cls-40" d="M1948.27,1288.41l-3.71,17.89a2.94,2.94,0,0,1-2.5,2.41,25.22,25.22,0,0,1-5.76-.09,3.68,3.68,0,0,1-2.92-4.31h0l2.59-15.89Z" transform="translate(0 0)"></path><path class="cls-41" d="M1853.5,1329c9.07-.25,13.76-1.32,16.18-2.31v2.77a1.79,1.79,0,0,1-1.71,1.82l-49.78-.32a2.28,2.28,0,0,1-2.07-2.47,2.25,2.25,0,0,1,.24-.84C1822.86,1328.23,1839.48,1329.43,1853.5,1329Z" transform="translate(0 0)"></path><path class="cls-42" d="M1816.33,1327.69a2,2,0,0,1,.2-.38c4.39-6.14,15.59-18.38,37.72-23.68l10.61-.34s4.73,8.22,4.82,23.44c-2.42,1-7.11,2.06-16.18,2.31C1839.48,1329.43,1822.86,1328.23,1816.33,1327.69Z" transform="translate(0 0)"></path><path class="cls-43" d="M1866.83,1287.21c-.11.79-1.57,12.81-2.13,17.48a2.32,2.32,0,0,1-2,2.08,24.41,24.41,0,0,1-7.29-.11,3.14,3.14,0,0,1-2.38-3.15v-18.88Z" transform="translate(0 0)"></path><path class="cls-44" d="M1941.18,1053.42s17,151,7.55,245.37c0,0-11.32,0-17-1.89,0,0-17.65-147.63-23.36-189.88a1.42,1.42,0,0,0-2.8-.09c-7,35.54-34.72,174.92-38,188.08,0,0-9.44,3.78-17,0,0,0,15.09-202,26.42-237.81Z" transform="translate(0 0)"></path><path class="cls-45" d="M1975.15,877.89s-71.72-11.32-128.34,3.78l3.78,58.51s15.09,81.16,26.42,117c0,0,43.41,7.55,64.17-3.78,0,0,17-101.92,26.42-117C1967.6,936.4,1977,896.8,1975.15,877.89Z" transform="translate(0 0)"></path><path class="cls-46" d="M1924.82,816.3l7.65,58.34s-20,9.17-33.93-.39l3-34.1Z" transform="translate(0 0)"></path><path class="cls-47" d="M1975.15,877.89s111.36,120.8-19.81,167v-9.44s49.07-41.52,11.32-98.14C1966.66,937.35,1971.43,883.56,1975.15,877.89Z" transform="translate(0 0)"></path><path class="cls-48" d="M1954.43,1036.44s-17-11.33-24.53-7.55-7.55,9.43-7.55,9.43,3.77,7.55,9.43,5.67,18.88,1.88,24.54,0C1956.28,1044,1958.17,1036.44,1954.43,1036.44Z" transform="translate(0 0)"></path><path class="cls-49" d="M1770.77,826.43l24,8.08c2.9.87,4.9,3.8,5.13,7.52l-1.24,40c.39,6.26-4.78,11.77-9.65,10.31l-19.25-6.54c-1.87-.56-3.12-2.52-3.14-5L1766.2,831C1766.18,828.16,1768.55,825.8,1770.77,826.43Z" transform="translate(0 0)"></path><path class="cls-50" d="M1766.2,877.89s-7.5-24-3.69-28.07,11.41-15.21,11.92-6.08S1779.52,892.28,1766.2,877.89Z" transform="translate(0 0)"></path><path class="cls-51" d="M1880.91,806.41c-.11.69,8.41,46.33,8.41,46.33l26-5.42-1.65-44.45S1882.79,794.8,1880.91,806.41Z" transform="translate(0 0)"></path><path class="cls-52" d="M1905.86,810.1a3.8,3.8,0,0,1,1.81,2.83l2.67,23a3.35,3.35,0,0,1,0,1c-.32,1.91-1.82,7.91-8,6.06-5.25-1.58-10.09-3-13.66-2.33a3.82,3.82,0,0,0-3,4.47,143.51,143.51,0,0,0,5.33,20.29,3.78,3.78,0,0,0,4.58,2.34c5-1.39,14.76-4.41,22.19-8.65a3.8,3.8,0,0,0,1.93-3.41c-.16-6.18-.52-23.52.13-28.43.6-4.56,6.12-7.26,8.74-8.3a3.8,3.8,0,0,0,2.17-2.17c1.17-3,2.46-9.18-5.28-12a3.83,3.83,0,0,1-2.22-4.83c1.2-3.47,1.53-8.51-4.73-11.44s-11.23.09-14,2.85a4,4,0,0,1-4.7.7,2.53,2.53,0,0,0-2.5,0,3.69,3.69,0,0,1-5-1.57l0,0c-1.6-3.21-4.79-6.51-11.13-5.54-11.62,1.8-13.15,14.61-10.21,22.19s15.41,4.91,21.72,1.22C1897.23,805.59,1903.08,808.41,1905.86,810.1Z" transform="translate(0 0)"></path><path class="cls-53" d="M1919.43,835s-3.28-12.63,1.66-15.82,12.17-1.37,10.41,8.27C1929.32,839.45,1919.43,835,1919.43,835Z" transform="translate(0 0)"></path><path class="cls-5" d="M1868.7,799.41a.39.39,0,0,1-.37-.23c-4.22-9,5.62-16.25,5.72-16.32a.41.41,0,1,1,.54.61l-.06,0c-.1.07-9.4,6.89-5.47,15.32a.38.38,0,0,1-.18.52h0A.33.33,0,0,1,1868.7,799.41Z" transform="translate(0 0)"></path><path class="cls-54" d="M1686,827.73v82.49c0,6.73-4.1,12.18-9.15,12.18H1376.32c-4.2,0-7.86,3.8-8.88,9.22l-5.4,28.72c-.71,3.81-4.69,4.12-5.74.45l-7-24.26c-1.35-4.72-4.75-7.84-8.55-7.84h-12.92c-5,0-9.15-5.45-9.15-12.18v-84.8c0-6.68,4-12.11,9.07-12.17l349-4C1681.86,815.5,1686,821,1686,827.73Z" transform="translate(0 0)"></path><ellipse class="cls-55" cx="1365.24" cy="869.49" rx="36.86" ry="37.83"></ellipse><path class="cls-5" d="M1378.6,854.16c0,6.8-5.51,14.13-12.31,14.13S1354,861,1354,854.16s5.51-11.62,12.3-11.62S1378.6,847.36,1378.6,854.16Z" transform="translate(0 0)"></path><path class="cls-5" d="M1351,894.46h30a7.29,7.29,0,0,0,6.93-5.06l1.61-5a7.26,7.26,0,0,0-4.39-9c-12.22-4.47-24.86-3.89-37.81.41a7.24,7.24,0,0,0-4.64,8.78l1.24,4.59A7.27,7.27,0,0,0,1351,894.46Z" transform="translate(0 0)"></path><path class="cls-5" d="M1657.3,879.37a7.32,7.32,0,0,1-7.46,7.15H1430.48a7.31,7.31,0,0,1-7.45-7.15h0a7.31,7.31,0,0,1,7.45-7.15h219.36A7.32,7.32,0,0,1,1657.3,879.37Z" transform="translate(0 0)"></path><path class="cls-5" d="M1553.43,902.3a6.5,6.5,0,0,1-6.5,6.5h-115a6.5,6.5,0,0,1-6.5-6.5h0a6.5,6.5,0,0,1,6.5-6.5h115A6.5,6.5,0,0,1,1553.43,902.3Z" transform="translate(0 0)"></path><path class="cls-5" d="M1657.43,902.3a6.5,6.5,0,0,1-6.5,6.5h-83a6.5,6.5,0,0,1-6.5-6.5h0a6.5,6.5,0,0,1,6.5-6.5h83A6.5,6.5,0,0,1,1657.43,902.3Z" transform="translate(0 0)"></path><rect class="cls-56" x="1422.43" y="834.8" width="129" height="19" rx="9.13"></rect><path class="cls-57" d="M1037.86,175.8c-9.45-13.52-23.55-19.09-37.36-15-15.06,4.41-23.57,21.27-37.59,28-24.45,11.77-58.26-11.48-76.83,18.85-22.72,37.09-40.27,9.27-40.27,34.44s156.93,6.62,234.36,7.95c11.19.19,59.75-.77,38.85-28-6.5-8.45-15.76-9.86-24.39-11.84-11.26-2.58-38-4-46.19-14.25-4.39-5.53-6.08-13.46-10-19.38Z" transform="translate(0 0)"></path><path class="cls-57" d="M1321.43,123.37c-5.67-8.12-14.15-11.46-22.45-9-9,2.65-14.16,12.78-22.57,16.83-14.69,7.06-35-6.9-46.16,11.32-13.65,22.28-24.19,5.57-24.19,20.69s94.27,4,140.79,4.77c6.72.12,35.9-.46,23.34-16.8-3.9-5.07-9.47-5.92-14.66-7.11-6.76-1.55-22.84-2.4-27.74-8.56-2.64-3.32-3.65-8.09-6-11.64A1.43,1.43,0,0,1,1321.43,123.37Z" transform="translate(0 0)"></path><path class="cls-58" d="M703.94,872.22c-.06,72.52-.62,322.67-5,411.23-.46,9.38-7.06,16.77-15.09,16.9-39.72.64-185.29,1.27-250.13-3.35-13.51-1-24-14-23.91-29.85.34-76.11,2.1-290.18,11.35-388.06,1.1-11.73,9.19-20.91,19.24-21.86,43.33-4.1,189.72-13.23,245.71-7.73C696.24,850.49,704,860.36,703.94,872.22Z" transform="translate(0 0)"></path><path class="cls-59" d="M685.74,894.07c.84,58.55,3.27,253.35-.46,325.28-.54,10.51-7.82,18.86-16.82,19.28-37,1.71-163.35,4.5-217.48-1.78-9.75-1.13-17.21-10.55-17.49-22-1.42-59.75-5.3-241.17-1.68-312.29.58-11.35,8.3-20.45,18-21.25,40.1-3.32,174.41-10.35,220.44-6.39C678.9,875.65,685.6,883.93,685.74,894.07Z" transform="translate(0 0)"></path><g class="cls-60"><path class="cls-5" d="M671.21,911.11c.75,51.86,2.9,224.36-.41,288-.48,9.31-6.92,16.71-14.89,17.08-32.8,1.51-144.65,4-192.59-1.58-8.63-1-15.24-9.34-15.48-19.49-1.27-52.91-4.7-213.56-1.49-276.55.51-10,7.35-18.11,15.93-18.82,35.52-2.93,154.45-9.16,195.22-5.65C665.15,894.8,671.09,902.13,671.21,911.11Z" transform="translate(0 0)"></path></g><path class="cls-61" d="M606.08,860.4h0a4,4,0,0,1-3.48,4.1c-9.38.37-35.82,1.41-47.64,2-2.33.1-4.1-2.38-3.6-5l.08-.46a3.86,3.86,0,0,1,3.26-3.3c8-.68,32.11-2.51,48-1.5A4,4,0,0,1,606.08,860.4Z" transform="translate(0 0)"></path><circle class="cls-62" cx="558.81" cy="1057.35" r="93.06" transform="translate(-583.99 704.83) rotate(-45)"></circle><path class="cls-5" d="M616.05,1081.68a16.63,16.63,0,0,0-9.85-10.91l-6.69-2.65a12.83,12.83,0,0,0-15,4.24l-6,8c-9.36.26-20.17-3.22-29.75-10.39-9-6.74-15.2-15.43-17.89-24a.29.29,0,0,1,.17-.37.28.28,0,0,1,.29.05l5.37-7.18a14.65,14.65,0,0,0-.27-17.92L532,1015a16.78,16.78,0,0,0-26.56.39,21.44,21.44,0,0,0-3.53,7.21c-4.93,17.44,9.11,43.8,35,63.19s55.13,25.43,70.47,15.8a22.22,22.22,0,0,0,6-5.43A16.64,16.64,0,0,0,616.05,1081.68Z" transform="translate(0 0)"></path><path class="cls-5" d="M448.05,1284.11a28.62,28.62,0,0,1-28.62-28.4v-48.56a1,1,0,0,1,2,0v48.56A26.59,26.59,0,0,0,448,1282.05a1,1,0,0,1,1.05,1v0a1,1,0,0,1-.94,1.06Z" transform="translate(0 0)"></path><path class="cls-63" d="M291.73,1292.11s-1.93,10.9-2.87,21.68a7.44,7.44,0,0,0,6.79,8l.32,0c14.36.6,45.09,1.76,56.12,1.27a2.42,2.42,0,0,0,2.29-2.54,2.32,2.32,0,0,0-.17-.78h0a5.39,5.39,0,0,0-2.76-2.91l-50.76-23.33Z" transform="translate(0 0)"></path><path class="cls-64" d="M290.15,1285.71l1.55,13s8.89,4.14,15-.52L303,1283.67Z" transform="translate(0 0)"></path><path class="cls-65" d="M291.31,1040.66c-.66,3.4-3.58,169.86,14.21,244.45a2.55,2.55,0,0,1-1.48,3,44.19,44.19,0,0,1-14.5,2.94,4.34,4.34,0,0,1-4.32-3.13c-5.09-17.3-29.46-104-32.64-186.85-3.55-92.56,0-3.15,0-3.15l2.09-57.22Z" transform="translate(0 0)"></path><path class="cls-66" d="M233.34,1297.8s-3.06,5.5-6,20.11a4.54,4.54,0,0,0,3.54,5.36l.46.07a177.31,177.31,0,0,0,17.9,1,4.52,4.52,0,0,0,4.5-4.54c0-.16,0-.31,0-.46-.65-5.34-2.66-14.09-8.9-20.92Z" transform="translate(0 0)"></path><path class="cls-67" d="M230.65,1281l3.62,19.71s3.57,2.66,10.64.73l-1.73-21.21Z" transform="translate(0 0)"></path><path class="cls-68" d="M220.89,1045.8c-14.55,87.82,3.16,217.06,9.13,242.35a3.92,3.92,0,0,0,3.18,3,26.7,26.7,0,0,0,11.39-.45,3.64,3.64,0,0,0,2.6-3.33c.8-20.45-.65-146,12.91-195.61a11.33,11.33,0,0,1,4.35-6.22l26.32-18.74,2-30.24Z" transform="translate(0 0)"></path><path class="cls-69" d="M313.62,879.36c-43.61-.72-91.73,11.45-91.73,11.45-13,75.85-2.28,163.34-2.28,163.34,33.77,8.85,71.85-5.41,71.85-5.41,5.61-31.71,31.79-120.94,31.79-120.94,21.31-2.65,38.86-8.79,53.32-16.92-11-12.78-16.23-29-18.48-38.66C342.67,877,327.07,879.58,313.62,879.36Z" transform="translate(0 0)"></path><path class="cls-70" d="M442.43,815.13a8.34,8.34,0,0,0-9.71-2.73c-6.41,27.11-40.06,49.09-74.63,59.83,2.25,9.62,7.45,25.88,18.48,38.66C433.94,878.63,442.43,815.13,442.43,815.13Z" transform="translate(0 0)"></path><path class="cls-71" d="M441.43,816.44c.45,1.43-4.74,3.6-7.8-2.23-.1-2.79-1.8-14.76-.13-17,8.89-12.12,26.12-27.31,26.12-27.31a4.1,4.1,0,0,1,.51,5.7l-8.36,8.71c1.75,3.16,3.88,5.83,4.88,9.65a11.68,11.68,0,0,1-1.16,8.62,100.82,100.82,0,0,1-5.37,8.77A11.59,11.59,0,0,1,441.43,816.44Z" transform="translate(0 0)"></path><path class="cls-72" d="M448.08,789.92l-7.65,6.46-2.4,6.43,6.8,7.54s2.28-12.76,4-15.53S449.66,790.73,448.08,789.92Z" transform="translate(0 0)"></path><path class="cls-73" d="M238.61,933,221.89,890.8s-40.74,27.69-47.46,62.78a92.87,92.87,0,0,1,34.31,9.62C215,949.28,238.61,933,238.61,933Z" transform="translate(0 0)"></path><path class="cls-74" d="M269.43,844l-13.87,40.13a1.44,1.44,0,0,0,.66,1.74c3.78,2.09,17.41,8.13,33.83-2.28a6.77,6.77,0,0,0,3.13-4.86l4.5-34.73Z" transform="translate(0 0)"></path><path class="cls-75" d="M299.63,806.8s15.24,28.68,13.29,40.27-20.84,10.75-37.33,1.34l-11.52-31Z" transform="translate(0 0)"></path><path class="cls-76" d="M276.32,833.2a1.2,1.2,0,0,0,.61-1.57l-.09-.16c-1.22-1.86-3.51-5.67-4.24-9,0,0-2.74-1.75,7-4.08s24.19-5.93,27.24-14.2c3-8.06-4.83-28.32-17.28-12.17a1.18,1.18,0,0,1-1.65.22,1.14,1.14,0,0,1-.22-.22c-2-2.66-7.4-8.17-14.84-4.82-7,3.12-7.75,8.23-7.66,10.8a1.18,1.18,0,0,1-1.14,1.22l-.25,0c-3.52-.67-12-1.25-15.92,7.42-3.25,7.14-1.14,11.19.79,13.16a1.18,1.18,0,0,1,.05,1.67,1.23,1.23,0,0,1-.56.33c-2.31.71-5.3,2.67-5,8.09.41,7.5,8.79,6.84,11.18,6.5a1.19,1.19,0,0,1,1,.37c2.05,2.27,11.27,11.88,21.24,13a1.19,1.19,0,0,0,1.25-1.58l-4.31-12.55a1.19,1.19,0,0,1,.64-1.47Z" transform="translate(0 0)"></path><path class="cls-77" d="M278.06,835s-10.85-7.44-11.63-1.18,9.77,9.08,15,6.74Z" transform="translate(0 0)"></path><path class="cls-78" d="M174.74,953.92s-27.84,63.41,40.21,72.69l9.28-7.73s-34-18.56-15.47-55.68C208.76,963.2,188.66,946.19,174.74,953.92Z" transform="translate(0 0)"></path><path class="cls-79" d="M223.61,987.31l24,8.07c2.91.87,4.91,3.8,5.14,7.52l-1.25,40c.39,6.26-4.77,11.77-9.65,10.31l-19.21-6.55c-1.87-.56-3.11-2.52-3.13-5l-.43-49.79C219,989,221.43,986.64,223.61,987.31Z" transform="translate(0 0)"></path><path class="cls-80" d="M217.43,1034.71c-.65-.71-5.13-8.91-4-19.88s-1-15.91,4.13-15.48,9.34,1.28,8.76,6.68S227.36,1045.71,217.43,1034.71Z" transform="translate(0 0)"></path></g></svg>