<svg xmlns="http://www.w3.org/2000/svg" xmlns:xlink="http://www.w3.org/1999/xlink" viewBox="0 0 2544.49 2773.06"><defs><style>.cls-1{fill:url(#linear-gradient);}.cls-2{fill:none;}.cls-3{isolation:isolate;}.cls-4{clip-path:url(#clip-path);}.cls-46,.cls-5{opacity:0.7;}.cls-44,.cls-5,.cls-58,.cls-70{mix-blend-mode:soft-light;}.cls-6{fill:#fcfdfe;}.cls-7{fill:url(#linear-gradient-3);}.cls-8{fill:url(#linear-gradient-4);}.cls-9{fill:url(#linear-gradient-5);}.cls-10{fill:url(#linear-gradient-6);}.cls-11{fill:url(#linear-gradient-7);}.cls-12{fill:url(#linear-gradient-8);}.cls-13,.cls-15,.cls-18,.cls-23,.cls-25,.cls-27{opacity:0.4;}.cls-13,.cls-15,.cls-18,.cls-23,.cls-25,.cls-27,.cls-34,.cls-43,.cls-46,.cls-48,.cls-66,.cls-71{mix-blend-mode:multiply;}.cls-13{fill:url(#linear-gradient-9);}.cls-14{fill:url(#linear-gradient-10);}.cls-15{fill:url(#linear-gradient-11);}.cls-16{fill:url(#linear-gradient-12);}.cls-17{fill:url(#linear-gradient-13);}.cls-19{fill:url(#linear-gradient-14);}.cls-20{fill:url(#linear-gradient-15);}.cls-21{fill:url(#linear-gradient-16);}.cls-22{fill:url(#linear-gradient-17);}.cls-23{fill:url(#linear-gradient-18);}.cls-24{fill:url(#linear-gradient-19);}.cls-25{fill:url(#linear-gradient-20);}.cls-26{fill:url(#linear-gradient-21);}.cls-27{fill:url(#linear-gradient-22);}.cls-28{fill:url(#linear-gradient-23);}.cls-29{fill:url(#linear-gradient-24);}.cls-30{fill:#d8dee8;}.cls-31{fill:url(#linear-gradient-25);}.cls-32{fill:url(#linear-gradient-26);}.cls-33{fill:url(#linear-gradient-27);}.cls-34,.cls-43,.cls-66{opacity:0.3;}.cls-35{fill:#e6e6e6;}.cls-36{fill:url(#linear-gradient-28);}.cls-37{fill:url(#linear-gradient-29);}.cls-38{fill:url(#linear-gradient-30);}.cls-39{fill:url(#linear-gradient-31);}.cls-40{fill:url(#linear-gradient-32);}.cls-41{fill:url(#linear-gradient-33);}.cls-42{fill:url(#linear-gradient-34);}.cls-43{fill:url(#linear-gradient-35);}.cls-44,.cls-53,.cls-70{fill:#fff;}.cls-44{opacity:0.5;}.cls-45{fill:url(#linear-gradient-36);}.cls-46{fill:url(#linear-gradient-37);}.cls-47{fill:url(#linear-gradient-38);}.cls-48,.cls-71{opacity:0.2;}.cls-48{fill:url(#linear-gradient-39);}.cls-49{fill:url(#linear-gradient-40);}.cls-50{fill:url(#linear-gradient-41);}.cls-51{fill:url(#linear-gradient-42);}.cls-52{clip-path:url(#clip-path-2);}.cls-54{fill:url(#linear-gradient-43);}.cls-55{clip-path:url(#clip-path-3);}.cls-56{fill:url(#linear-gradient-44);}.cls-57{fill:url(#linear-gradient-45);}.cls-58{opacity:0.48;}.cls-59{fill:url(#linear-gradient-46);}.cls-60{fill:url(#linear-gradient-47);}.cls-61{fill:url(#linear-gradient-48);}.cls-62{fill:url(#linear-gradient-49);}.cls-63{fill:url(#linear-gradient-50);}.cls-64{fill:url(#linear-gradient-51);}.cls-65{fill:url(#linear-gradient-52);}.cls-66{fill:url(#linear-gradient-53);}.cls-67{fill:url(#linear-gradient-54);}.cls-68{fill:url(#linear-gradient-55);}.cls-69{fill:url(#linear-gradient-56);}.cls-71{fill:url(#linear-gradient-57);}.cls-72{fill:url(#linear-gradient-58);}.cls-73{fill:url(#linear-gradient-59);}.cls-74{fill:url(#linear-gradient-60);}</style><linearGradient id="linear-gradient" x1="3606.2" y1="737.76" x2="3738.4" y2="1790.3" gradientTransform="matrix(-1.01, 0, 0, 1, 5950.34, 6.76)" gradientUnits="userSpaceOnUse"><stop offset="0" stop-color="#e38ddd"></stop><stop offset="1" stop-color="#9571f6"></stop></linearGradient><clipPath id="clip-path" transform="translate(-273.35 -87.68)"><path class="cls-1" d="M1951.51,2479.86c-23.08,3.83-76.72-7.89-89.43-16.62-84.55-58.1-250-156.76-275.57-261.11-4.36-17.82,70.07-57.88,76.24-77.28,41.16-36.89,57.76-47.17,79.4-101.16C1806,1864.28,1495.41,1694,1744,1526.92c182.07-122.36,373.15-105,256.44-406.21s-42.18-936.08,354-820.31c227.39,66.45,116,385.68,273.07,549.47,149.23,155.65,116.93,330.29-46.89,499.62s-32,222.28,79.33,379.33c133.74,188.65-181.8,323.72-332.88,373.84C2205.41,2143,1923.27,2326.63,1951.51,2479.86Z"></path></clipPath><linearGradient id="linear-gradient-3" x1="6033.91" y1="1285.36" x2="6373.43" y2="1285.36" gradientTransform="matrix(-0.97, 0.29, 0.3, 0.95, 7032.33, -2139.89)" gradientUnits="userSpaceOnUse"><stop offset="0" stop-color="#ffc444"></stop><stop offset="0.31" stop-color="#fba94a"></stop><stop offset="1" stop-color="#f36f56"></stop></linearGradient><linearGradient id="linear-gradient-4" x1="6078.42" y1="731.35" x2="6228.02" y2="731.35" xlink:href="#linear-gradient-3"></linearGradient><linearGradient id="linear-gradient-5" x1="6040.12" y1="1047.59" x2="6169.54" y2="1047.59" xlink:href="#linear-gradient-3"></linearGradient><linearGradient id="linear-gradient-6" x1="6033.91" y1="1345.55" x2="6125.68" y2="1345.55" xlink:href="#linear-gradient-3"></linearGradient><linearGradient id="linear-gradient-7" x1="6052.2" y1="1674.25" x2="6169.56" y2="1674.25" xlink:href="#linear-gradient-3"></linearGradient><linearGradient id="linear-gradient-8" x1="6101.57" y1="1942.16" x2="6198.82" y2="1942.16" xlink:href="#linear-gradient-3"></linearGradient><linearGradient id="linear-gradient-9" x1="6240.8" y1="1285.51" x2="6373.43" y2="1285.51" xlink:href="#linear-gradient-3"></linearGradient><linearGradient id="linear-gradient-10" x1="4425.71" y1="1165.91" x2="4748.99" y2="1165.91" gradientTransform="matrix(-1.01, 0, 0, 1, 5950.34, 6.76)" gradientUnits="userSpaceOnUse"><stop offset="0" stop-color="#aa80f9"></stop><stop offset="1" stop-color="#6165d7"></stop></linearGradient><linearGradient id="linear-gradient-11" x1="3233.19" y1="1211.93" x2="3265.09" y2="1527.76" gradientTransform="matrix(0.78, -0.64, 0.65, 0.77, -2140.56, 2159.13)" xlink:href="#linear-gradient-10"></linearGradient><linearGradient id="linear-gradient-12" x1="4025.15" y1="4.62" x2="4465.81" y2="939.19" xlink:href="#linear-gradient-10"></linearGradient><linearGradient id="linear-gradient-13" x1="4433.25" y1="925.46" x2="5032.69" y2="925.46" xlink:href="#linear-gradient-10"></linearGradient><linearGradient id="linear-gradient-14" x1="3153.71" y1="928.67" x2="3561.52" y2="928.67" gradientTransform="matrix(0.78, -0.64, 0.65, 0.77, -2140.56, 2159.13)" xlink:href="#linear-gradient-10"></linearGradient><linearGradient id="linear-gradient-15" x1="3001.72" y1="1255.68" x2="3612.41" y2="1255.68" gradientTransform="matrix(0.78, -0.64, 0.65, 0.77, -2140.56, 2159.13)" xlink:href="#linear-gradient-10"></linearGradient><linearGradient id="linear-gradient-16" x1="3086.3" y1="1344.56" x2="4618.2" y2="456.1" gradientTransform="matrix(0.78, -0.64, 0.65, 0.77, -2140.56, 2159.13)" xlink:href="#linear-gradient-10"></linearGradient><linearGradient id="linear-gradient-17" x1="4815.57" y1="907.15" x2="5088.59" y2="907.15" xlink:href="#linear-gradient-10"></linearGradient><linearGradient id="linear-gradient-18" x1="3015.51" y1="990.72" x2="3247.32" y2="990.72" gradientTransform="matrix(0.78, -0.64, 0.65, 0.77, -2140.56, 2159.13)" xlink:href="#linear-gradient-10"></linearGradient><linearGradient id="linear-gradient-19" x1="4340.59" y1="1045.82" x2="4661.47" y2="1045.82" xlink:href="#linear-gradient-10"></linearGradient><linearGradient id="linear-gradient-20" x1="3259.61" y1="1431.22" x2="3556.16" y2="1431.22" gradientTransform="matrix(0.78, -0.64, 0.65, 0.77, -2140.56, 2159.13)" xlink:href="#linear-gradient-10"></linearGradient><linearGradient id="linear-gradient-21" x1="4553.33" y1="851.48" x2="4923.48" y2="851.48" xlink:href="#linear-gradient-10"></linearGradient><linearGradient id="linear-gradient-22" x1="3169.44" y1="1076.63" x2="3509.16" y2="1076.63" gradientTransform="matrix(0.78, -0.64, 0.65, 0.77, -2140.56, 2159.13)" xlink:href="#linear-gradient-10"></linearGradient><linearGradient id="linear-gradient-23" x1="3044.78" y1="1204.21" x2="3039.66" y2="1522.89" gradientTransform="matrix(0.78, -0.64, 0.65, 0.77, -2140.56, 2159.13)" xlink:href="#linear-gradient-10"></linearGradient><linearGradient id="linear-gradient-24" x1="4016.25" y1="473.34" x2="4049.15" y2="164.53" xlink:href="#linear-gradient-10"></linearGradient><linearGradient id="linear-gradient-25" x1="4122.09" y1="1119" x2="4378.98" y2="1133.16" gradientTransform="matrix(-1.01, 0, 0, 1, 5950.34, 6.76)" gradientUnits="userSpaceOnUse"><stop offset="0" stop-color="#ebeff2"></stop><stop offset="1" stop-color="#fff"></stop></linearGradient><linearGradient id="linear-gradient-26" x1="3670.16" y1="1040.86" x2="4044.42" y2="1040.86" gradientTransform="matrix(-1.01, 0, 0, 1, 5676.99, -80.92)" xlink:href="#linear-gradient-10"></linearGradient><linearGradient id="linear-gradient-27" x1="3760.49" y1="510.54" x2="3883.67" y2="563.59" gradientTransform="matrix(-1.01, 0, 0, 1, 5676.99, -80.92)" xlink:href="#linear-gradient-25"></linearGradient><linearGradient id="linear-gradient-28" x1="3708.19" y1="1030.27" x2="3855.97" y2="1030.27" xlink:href="#linear-gradient-25"></linearGradient><linearGradient id="linear-gradient-29" x1="3708.19" y1="910.06" x2="3855.97" y2="910.06" xlink:href="#linear-gradient-25"></linearGradient><linearGradient id="linear-gradient-30" x1="3708.19" y1="811.76" x2="3855.97" y2="811.76" xlink:href="#linear-gradient-25"></linearGradient><linearGradient id="linear-gradient-31" x1="3708.19" y1="682.16" x2="3855.97" y2="682.16" xlink:href="#linear-gradient-25"></linearGradient><linearGradient id="linear-gradient-32" x1="4121.71" y1="528.92" x2="4148.01" y2="282.14" gradientTransform="matrix(-1.01, 0, 0, 1, 5676.99, -80.92)" xlink:href="#linear-gradient-25"></linearGradient><linearGradient id="linear-gradient-33" x1="4295.31" y1="701.9" x2="4349.48" y2="701.9" gradientTransform="matrix(-1.01, 0, 0, 1, 5950.34, 6.76)" gradientUnits="userSpaceOnUse"><stop offset="0" stop-color="#311944"></stop><stop offset="1" stop-color="#893976"></stop></linearGradient><linearGradient id="linear-gradient-34" x1="4110.6" y1="970.4" x2="4619.11" y2="970.4" gradientTransform="matrix(-1.01, 0, 0, 1, 5950.34, 6.76)" gradientUnits="userSpaceOnUse"><stop offset="0" stop-color="#ff9085"></stop><stop offset="1" stop-color="#fb6fbb"></stop></linearGradient><linearGradient id="linear-gradient-35" x1="4110.6" y1="993.26" x2="4589.78" y2="993.26" xlink:href="#linear-gradient-34"></linearGradient><linearGradient id="linear-gradient-36" x1="3359.56" y1="350.68" x2="3824.21" y2="2056.68" gradientTransform="matrix(-1.01, 0, 0, 1, 5950.34, 6.76)" xlink:href="#linear-gradient-3"></linearGradient><linearGradient id="linear-gradient-37" x1="3744" y1="1612.93" x2="3330.01" y2="2771.2" gradientTransform="matrix(-1.01, 0, 0, 1, 5950.34, 6.76)" xlink:href="#linear-gradient-3"></linearGradient><linearGradient id="linear-gradient-38" x1="4432.86" y1="1639.74" x2="3886.65" y2="3167.98" gradientTransform="matrix(-1.01, 0, 0, 1, 5950.34, 6.76)" xlink:href="#linear-gradient-3"></linearGradient><linearGradient id="linear-gradient-39" x1="4342.57" y1="1850.53" x2="3935.6" y2="2989.19" gradientTransform="matrix(-1.01, 0, 0, 1, 5950.34, 6.76)" xlink:href="#linear-gradient-3"></linearGradient><linearGradient id="linear-gradient-40" x1="3301.2" y1="1923.36" x2="4186.63" y2="1923.36" gradientTransform="matrix(-1.01, 0.04, 0.04, 1, 6112.26, -118.17)" gradientUnits="userSpaceOnUse"><stop offset="0" stop-color="#444b8c"></stop><stop offset="1" stop-color="#26264f"></stop></linearGradient><linearGradient id="linear-gradient-41" x1="3684.97" y1="2135.58" x2="3807.29" y2="1796.04" xlink:href="#linear-gradient-40"></linearGradient><linearGradient id="linear-gradient-42" x1="3713.32" y1="1189.88" x2="2961.66" y2="3225.64" gradientTransform="matrix(-1.01, 0.04, 0.04, 1, 6112.26, -118.17)" gradientUnits="userSpaceOnUse"><stop offset="0" stop-color="#ffc444"></stop><stop offset="1" stop-color="#f36f56"></stop></linearGradient><clipPath id="clip-path-2" transform="translate(-273.35 -87.68)"><path class="cls-2" d="M2112.81,1279.91l617.48,13.41a26.79,26.79,0,0,1,26.48,29.6L2640.38,2605.28a28.59,28.59,0,0,1-31.31,25.83l-609.41-58.53c-14.77-1.42-25.65-14.9-24.32-30.11l108-1235.25C2084.64,1291.81,2097.84,1279.58,2112.81,1279.91Z"></path></clipPath><linearGradient id="linear-gradient-43" x1="3123.14" y1="953.54" x2="3717.44" y2="2012.18" gradientTransform="matrix(-1.01, 0, -0.09, 1, 5691.83, -80.34)" xlink:href="#linear-gradient-34"></linearGradient><clipPath id="clip-path-3" transform="translate(-273.35 -87.68)"><polygon class="cls-2" points="1972.46 2575.44 2637.28 2639.51 2730.98 1607.13 2059.37 1580.93 1972.46 2575.44"></polygon></clipPath><linearGradient id="linear-gradient-44" x1="3320.78" y1="1412.77" x2="3805.13" y2="2660.35" xlink:href="#linear-gradient-10"></linearGradient><linearGradient id="linear-gradient-45" x1="3256.46" y1="2136.64" x2="2330.36" y2="3780.13" gradientTransform="matrix(-1.01, 0, 0, 1, 5676.99, -80.92)" xlink:href="#linear-gradient-3"></linearGradient><linearGradient id="linear-gradient-46" x1="3221.04" y1="1419.14" x2="3485.53" y2="1419.14" gradientTransform="matrix(-1.01, 0, 0, 1, 5950.34, 6.76)" xlink:href="#linear-gradient-42"></linearGradient><linearGradient id="linear-gradient-47" x1="3242.36" y1="1483.53" x2="3471.3" y2="1483.53" gradientTransform="matrix(-1.01, 0, 0, 1, 5950.34, 6.76)" xlink:href="#linear-gradient-42"></linearGradient><linearGradient id="linear-gradient-48" x1="3249.09" y1="1388.83" x2="3267.9" y2="1388.83" gradientTransform="matrix(-1.01, 0, 0, 1, 5950.34, 6.76)" xlink:href="#linear-gradient-42"></linearGradient><linearGradient id="linear-gradient-49" x1="3257.56" y1="1352.82" x2="3338.76" y2="1352.82" gradientTransform="matrix(-1.01, 0, 0, 1, 5950.34, 6.76)" xlink:href="#linear-gradient-42"></linearGradient><linearGradient id="linear-gradient-50" x1="3438.08" y1="1389.57" x2="3455.05" y2="1389.57" gradientTransform="matrix(-1.01, 0, 0, 1, 5950.34, 6.76)" xlink:href="#linear-gradient-42"></linearGradient><linearGradient id="linear-gradient-51" x1="3355.88" y1="1353.43" x2="3447.07" y2="1353.43" gradientTransform="matrix(-1.01, 0, 0, 1, 5950.34, 6.76)" xlink:href="#linear-gradient-42"></linearGradient><linearGradient id="linear-gradient-52" x1="4753.5" y1="1309.54" x2="4775.32" y2="3322.11" xlink:href="#linear-gradient-10"></linearGradient><linearGradient id="linear-gradient-53" x1="4063.8" y1="2386.1" x2="5414.36" y2="2386.1" xlink:href="#linear-gradient-10"></linearGradient><linearGradient id="linear-gradient-54" x1="6370.88" y1="2442.73" x2="6385.09" y2="1666.59" gradientTransform="translate(-5321.87 6.76) scale(1.01 1)" xlink:href="#linear-gradient-40"></linearGradient><linearGradient id="linear-gradient-55" x1="6385.77" y1="2111.72" x2="7004.49" y2="3631.01" gradientTransform="translate(-5595.22 -80.92) scale(1.01 1)" xlink:href="#linear-gradient-3"></linearGradient><linearGradient id="linear-gradient-56" x1="5616.71" y1="2688.06" x2="6159.81" y2="2351.21" gradientTransform="translate(-5595.22 -80.92) scale(1.01 1)" xlink:href="#linear-gradient-3"></linearGradient><linearGradient id="linear-gradient-57" x1="4644.97" y1="1739.28" x2="4840.7" y2="1739.28" xlink:href="#linear-gradient-10"></linearGradient><linearGradient id="linear-gradient-58" x1="1925.95" y1="2934.3" x2="1688.86" y2="2332.13" gradientTransform="matrix(-1.01, 0.05, 0.05, 1, 2791.36, -1017.35)" gradientUnits="userSpaceOnUse"><stop offset="0" stop-color="#444b8c"></stop><stop offset="1" stop-color="#3e4177"></stop></linearGradient><linearGradient id="linear-gradient-59" x1="6500.81" y1="960.17" x2="6375.92" y2="1477.97" gradientTransform="translate(-5321.87 6.76) scale(1.01 1)" xlink:href="#linear-gradient-10"></linearGradient><linearGradient id="linear-gradient-60" x1="4928.39" y1="1475.48" x2="5273.84" y2="1475.48" gradientTransform="matrix(-1.01, 0, 0, 1, 5950.34, 6.76)" gradientUnits="userSpaceOnUse"><stop offset="0" stop-color="#aa80f9"></stop><stop offset="0.48" stop-color="#a87ff8"></stop><stop offset="0.65" stop-color="#a17df5"></stop><stop offset="0.77" stop-color="#9678ef"></stop><stop offset="0.87" stop-color="#8572e8"></stop><stop offset="0.95" stop-color="#6f6add"></stop><stop offset="1" stop-color="#6165d7"></stop></linearGradient></defs><title>طراحی سایت رستوران.</title><g class="cls-3"><g id="Illustration"><path class="cls-1" d="M1951.51,2479.86c-23.08,3.83-76.72-7.89-89.43-16.62-84.55-58.1-250-156.76-275.57-261.11-4.36-17.82,70.07-57.88,76.24-77.28,41.16-36.89,57.76-47.17,79.4-101.16C1806,1864.28,1495.41,1694,1744,1526.92c182.07-122.36,373.15-105,256.44-406.21s-42.18-936.08,354-820.31c227.39,66.45,116,385.68,273.07,549.47,149.23,155.65,116.93,330.29-46.89,499.62s-32,222.28,79.33,379.33c133.74,188.65-181.8,323.72-332.88,373.84C2205.41,2143,1923.27,2326.63,1951.51,2479.86Z" transform="translate(-273.35 -87.68)"></path><g class="cls-4"><g class="cls-5"><path class="cls-6" d="M1729.8,2340.69l-3.38-3.59c561.59-514,752.66-1300.46,511.1-2103.75l4.77-1.39c114.48,380.7,132,772.58,50.68,1133.27C2207.47,1744.42,2012.73,2081.73,1729.8,2340.69Z" transform="translate(-273.35 -87.68)"></path><path class="cls-6" d="M2724.67,1801c-209.65-4.48-529,89.38-711.89,209.22l-2.76-4.08c183.6-120.31,504.24-214.54,714.76-210Z" transform="translate(-273.35 -87.68)"></path><path class="cls-6" d="M1838.87,2238.54l-4.26-2.53c58.82-96.38,65.9-218.34,21.05-362.5-32.89-105.71-92.41-220.66-176.93-341.67l4.11-2.78c84.8,121.43,144.55,236.83,177.58,343C1905.7,2017.62,1898.45,2140.91,1838.87,2238.54Z" transform="translate(-273.35 -87.68)"></path><path class="cls-6" d="M2302.49,1313.59l-4.39-2.31C2399.48,1124,2600.9,1021.67,2752,968.8l1.66,4.63C2603.39,1026,2403.12,1127.68,2302.49,1313.59Z" transform="translate(-273.35 -87.68)"></path><path class="cls-6" d="M2342.82,829.36l-4.85,1.08c-53.7-233.18-249.11-394.29-360.82-469.57l2.81-4.05C2092.27,432.51,2288.75,594.54,2342.82,829.36Z" transform="translate(-273.35 -87.68)"></path></g></g><path class="cls-7" d="M1262.84,1006.77c142.87,458.67,210.42,783,336.33,745a71.37,71.37,0,0,0,27.67-16.15c32-29.19,50.67-90.77,56.47-175.61,2.37-34.44,2.61-72.74.74-114.29-2.21-48.39-7.25-101.12-15.06-157.28-5.2-37.11-10.09-76.15-17.78-116-12.69-66.37-30.65-135.71-45.72-209l-.11-.34-.05-.14-34.66-111.3c-18.32-58.79-36.19-116.19-60.39-169.46a9.41,9.41,0,0,0-.57-1.35l0-.07q-3.84-12.35-8.33-24.27c-.26-.84-.62-1.72-.95-2.54-5.09-13.87-10.69-27.36-16.46-40.65-.68-1.7-1.42-3.31-2.08-4.94-4.95-11.4-9.89-22.8-14.77-34l-.93-2.24c-28-66-57.1-127.11-86.49-182.17-19.6-36.81-39.44-70.87-59.09-101.87-88.75-139.67-175.47-216.63-238.85-197.48a49.57,49.57,0,0,0-5.3,1.9C960.55,140.76,1122,554.67,1262.84,1006.77Z" transform="translate(-273.35 -87.68)"></path><path class="cls-8" d="M1218.07,380c9.58,30.76,68.5,40.35,131.52,21.31a226.77,226.77,0,0,0,30.09-11.38c-19.6-36.81-39.44-70.87-59.09-101.87-1.93.51-3.84,1.09-5.75,1.67C1251.81,308.76,1208.46,349.17,1218.07,380Z" transform="translate(-273.35 -87.68)"></path><path class="cls-9" d="M1368.48,663.9c9.58,30.75,68.33,39.77,131.35,20.73,3.75-1.13,7.75-1.47,11.37-2.8-14.15-37.46-29.28-73.83-43.75-107.61l-1.84.55C1402.59,593.82,1358.88,633.08,1368.48,663.9Z" transform="translate(-273.35 -87.68)"></path><path class="cls-10" d="M1499.67,935.84c8.26,26.5,53.22,37.25,105.82,27.54l-.11-.34-.05-.14L1571.6,854.59C1522.5,875.53,1491.4,909.27,1499.67,935.84Z" transform="translate(-273.35 -87.68)"></path><path class="cls-11" d="M1554.94,1262.49c8.69,27.9,57.89,38.36,114,25.9-5.2-37.11-10.09-76.15-17.78-116C1588.45,1191.48,1545.36,1231.74,1554.94,1262.49Z" transform="translate(-273.35 -87.68)"></path><path class="cls-12" d="M1607,1529.08c6.67,21.41,37.18,32.56,76.32,30.88,2.37-34.44,2.61-72.74.74-114.29C1632,1466.45,1598.43,1501.6,1607,1529.08Z" transform="translate(-273.35 -87.68)"></path><path class="cls-13" d="M1262.84,1006.77c142.87,458.67,210.42,783,336.33,745a71.37,71.37,0,0,0,27.67-16.15c-21.79-35.38-55.27-78.67-92.38-130.64-75-105.22-178.58-395-212.63-631.39s-158-582.28-220.17-758.06c-20.33-57.57-26.36-96.56-25.22-123C960.55,140.76,1122,554.67,1262.84,1006.77Z" transform="translate(-273.35 -87.68)"></path><path class="cls-14" d="M1465.29,1139.58c3.12,16.47,1.37,33.61-1,50.05-2.35,16.18-6.6,31.81-20.77,41.89a48.23,48.23,0,0,1-9.83,5.54c-3.83,1.55-8.56,2.08-11.94,4.51-5.57,4-8,12.56-12.35,17.77-10.65,12.6-25.35,19.88-41.83,21.51-3.93.39-8.13.53-11.76,2.22-4.1,1.91-7.24,5.62-10.77,8.34a36.51,36.51,0,0,1-22.68,7.63c-7.91.07-15.75-1.94-23.28-4.12-8.89-2.58-17.76-5.24-26.64-7.86s-17.75-5.06-26.52-7.88c-7.26-2.33-14.41-5.43-20-10.63-6.08-5.63-8.58-13.12-11.52-20.57-1.4-3.54-2.92-7.51-5.93-10s-7-3.45-10.73-4.36c-15.16-3.74-29.46-9.41-40.27-21-9.35-10-14.28-24.17-12.15-37.74.19-1.21.46-2.39.76-3.57a6.67,6.67,0,0,1-3.27-3.73c-9-27.32.88-59.38,25.2-76,6.78-4.64,14-6.87,21.41-10.11,7.14-3.1,10.6-10.1,15.7-15.53,11-11.77,25.3-10.6,40-8.46,6.7,1,13.13,1.65,19.53-1,7.37-3.09,13.81-7.92,21.14-11.08a39.87,39.87,0,0,1,23.44-3c7.15,1.35,14.07,4.61,21.37,5,8.14.46,16.11-3.51,24-5.07a81.9,81.9,0,0,1,22-1.23c15.22,1.18,31.08,6.62,42.87,16.34,6.39,5.27,12,11.71,14.93,19.51a48.16,48.16,0,0,1,2.61,12c.39,3.65.6,7.19,3,10.14,2.6,3.18,6.17,5.58,9.12,8.44a51.76,51.76,0,0,1,7.54,9.53A64.73,64.73,0,0,1,1465.29,1139.58Z" transform="translate(-273.35 -87.68)"></path><path class="cls-15" d="M1447.71,1106.1c-14,25.9-30.87,50.63-44.56,76.74-9.06,15.12-24.43,24.65-38.87,33.42a61.37,61.37,0,0,1-53,2c-33.79-12.26-54.83-42.67-92.77-46.91-25.23-2.26-49.86-2-73.42,5-1.55,13.1,3.33,26.57,12.33,36.22,10.81,11.59,25.11,17.26,40.27,21,3.7.91,7.75,1.85,10.73,4.36s4.53,6.5,5.93,10c2.94,7.45,5.44,14.94,11.52,20.57,5.62,5.2,12.77,8.3,20,10.63,8.77,2.82,17.68,5.27,26.52,7.88s17.75,5.28,26.64,7.86c7.53,2.18,15.37,4.19,23.28,4.12a36.51,36.51,0,0,0,22.68-7.63c3.53-2.73,6.67-6.43,10.77-8.34,3.63-1.69,7.83-1.83,11.76-2.22,16.48-1.63,31.18-8.91,41.83-21.51,4.4-5.21,6.78-13.77,12.35-17.77,3.38-2.43,8.11-3,11.94-4.51a48.23,48.23,0,0,0,9.83-5.54c14.17-10.08,18.42-25.71,20.77-41.89,2.38-16.44,4.13-33.58,1-50.05a64.73,64.73,0,0,0-8.58-22.61,51.76,51.76,0,0,0-7.54-9.53C1448.69,1107,1448.2,1106.54,1447.71,1106.1Z" transform="translate(-273.35 -87.68)"></path><path class="cls-16" d="M1245.63,933.05c14.22-16.15,34.13-28.1,55.51-31.46a54.44,54.44,0,0,1,21.38-58.74c25.34-17.54,55.29-14.63,82-3.34,22.38-6.72,47.59-5.72,68.94,3.5,47.18,20.37,67.42,73.23,53.15,119.5a63.72,63.72,0,0,1,43.53,42.76c7.89,26.6-3.22,53.41-24.43,70.55-10.77,8.7-23.15,15.14-34.74,22.66-12.76,8.27-20.76,18.53-30.42,29.9a95.07,95.07,0,0,1-77.13,33.5c-26.27-1.41-50.05-14.75-66.27-34.48-15.94,9-35.3,10.88-53.52,6.89-25.93-5.68-46.73-22.64-58.74-45.81C1200.57,1041.58,1210.86,972.55,1245.63,933.05Z" transform="translate(-273.35 -87.68)"></path><path class="cls-17" d="M1028,1172.21c-13.93-1.93-52.93-13.17-73.41-33.27-21.59-21.18-17.95-64-26.71-74.84s-34.59-18.5-51.45-39C852,995.52,844,954.75,861.59,929.74c7.6-10.77,29.77-28,26.76-43.81-3.42-7.77-28.5-22.22-25-70.31,2.76-38.38,25.22-96.67,102.36-112.2,15.1-8.65,13.22-42,52.69-58.09s64.33,8.71,78.73.45,49.07-29,84.43-29.93c41.19-1.1,80.52,17.56,110.52,50a154.81,154.81,0,0,1,19.2,26.07c2.28,3.83,2.91,5.23,7.39,5.43,5.31.24,10.44.16,15.82.72,19.06,2,41.26,5.9,58.52,16.44,34.85,21.29,55.07,60.69,57.39,96.16,2.2,33.64-32,93.94-28.44,104s39,42.95,37.34,83.26c-2,51.28-27.83,93.58-75,116-20.78,9.89-78.11,23-93.26,32.93s-12.16,57.85-35.93,79.11c-25.8,23.07-54.07,21.55-93.69,10.44-21.42-6-34.34-3.21-52.07-17.68-20.43,6.18-47.32-5-64.4-21.4C1037.24,1189.92,1041.89,1174.15,1028,1172.21Z" transform="translate(-273.35 -87.68)"></path><g class="cls-18"><path class="cls-19" d="M969.14,754.68c54.38-7.71,93.69,36.92,144.23,43.13s62.52-59,90.33-92.56c9.68-12.55,22.74-24.81,35.79-27.83a130.44,130.44,0,0,1,61.32-1c-2.73-3.6-5.64-7.12-8.76-10.5-30-32.46-69.33-51.12-110.52-50-35.36.95-70,21.67-84.43,29.93s-39.26-16.53-78.73-.45-37.59,49.44-52.69,58.09c-65.8,13.25-91.81,57.61-99.75,94.18l3.21-2.4C896.79,772.51,931.2,759.66,969.14,754.68Z" transform="translate(-273.35 -87.68)"></path><path class="cls-20" d="M1393,714.53c-11.86-7.24-26-11.35-39.94-13.86,21.32,17.79,51.58,41.32,37.43,66.63-23.51,42.35-72.82,69-86.8,118.88-14.3,53.25,38.84,86.53,82.15,106.36,15.52,7.26,16.74,21.63,11.21,35.4-14.6,38.11-48.09,68.66-88,76.83-94.63,19.19-184.17-7.29-279.86-13.36-25.35-2.27-47.47,15.88-66.67,30.09Q949,1109.67,936.25,1097c2.88,14.88,7.34,31.19,18.29,41.93C975,1159,1014,1170.28,1028,1172.21s9.29,17.71,17,25.15c17.08,16.45,44,27.58,64.4,21.4,17.73,14.47,30.65,11.68,52.07,17.68,39.62,11.11,67.89,12.63,93.69-10.44,23.77-21.26,20.78-69.14,35.93-79.11s72.48-23,93.26-32.93c47.12-22.42,72.9-64.72,75-116,1.62-40.31-33.73-73.19-37.34-83.26s30.64-70.37,28.44-104C1448.05,775.22,1427.83,735.82,1393,714.53Z" transform="translate(-273.35 -87.68)"></path></g><path class="cls-21" d="M1337.28,971.47c-139.43,110-179.1,307.86-179.1,307.86l-129.77-80c177.72-200.92,136.28-283.91,137.78-369.73,0,0,10.81-20.89,18.3,3.08,4,12.67,9.31,64,.53,121,42-61.19,35.38-114.64,50-131,5-5.57,18.78-4,18.78-4s-20.24,144.33-100,300.54c0,0,89.06-152.12,139.08-186.56,9.36-6.26,15.81,1.61,8.32,16.18,0,0-22.9,26.21-48.24,70.94,44.72-38.1,52.21-47.26,68-60.19S1344.49,957,1337.28,971.47Z" transform="translate(-273.35 -87.68)"></path><path class="cls-22" d="M830.12,954.62c-17.65-3.89-30.29-19.9-33.52-38.19-4-22.38,2.66-46.31,14.86-65.26,22.53-35,65.74-50.9,105.81-42.15,6.19-12,18.5-21,32.35-22.09a38.76,38.76,0,0,1,32,12.94,74.12,74.12,0,0,1,21.11,1.9c16.95,4.2,31.33,19.27,31.5,36.14,23.39,8.33,35.86,37.15,37.52,60.38,1.19,16.59-1.22,35.12-13.92,47.26-5.28,5-12.33,6.08-13,13.9-.63,7.43-1.4,14.65-4.33,21.63a65.84,65.84,0,0,1-30.21,32.45,60.46,60.46,0,0,1-18.76,6.19c-7.43,1.14-16.42-1.72-23.41.28-4,1.16-7.82,5.39-11.23,7.72a50.94,50.94,0,0,1-10.25,5.65,52.59,52.59,0,0,1-21.56,3.29c-14.11-.66-27.68-6.71-39.59-13.8C860.7,1008.08,834.33,984.05,830.12,954.62Z" transform="translate(-273.35 -87.68)"></path><path class="cls-23" d="M1030.09,943c-6.6,7-16.28,19.51-21,15.72-43.47-36.61-99.54-10.6-148.08-1.53-28.57,5-43.62-25.73-51.91-46.6A159.81,159.81,0,0,1,799,878.8a84.5,84.5,0,0,0-2.36,37.63c3.23,18.29,15.86,34.3,33.52,38.19,4.21,29.43,30.58,53.46,55.39,68.24,11.91,7.09,25.48,13.14,39.59,13.8a52.59,52.59,0,0,0,21.56-3.29,50.94,50.94,0,0,0,10.25-5.65c3.41-2.33,7.2-6.56,11.23-7.72,7-2,16,.86,23.41-.28a60.46,60.46,0,0,0,18.76-6.19,65.84,65.84,0,0,0,30.21-32.45c2.93-7,3.7-14.2,4.33-21.63.65-7.82,7.7-8.86,13-13.9,12.71-12.14,15.12-30.67,13.93-47.26-.09-1.22-.21-2.47-.36-3.72C1057.81,910.54,1045,927,1030.09,943Z" transform="translate(-273.35 -87.68)"></path><path class="cls-24" d="M1288.81,902c15.18-12.1,33.7-19.73,51.85-26.34,17.86-6.5,36.2-10.82,54.27-2.24a55.37,55.37,0,0,1,11,6.74c3.67,3,6.81,7.38,11.14,9.41,7.14,3.36,17.22,1,25,2.57A70.53,70.53,0,0,1,1487,922c2.55,3.7,5,7.8,8.7,10.49,4.19,3,9.71,4.13,14.43,6.15A41.24,41.24,0,0,1,1530.32,957c4.38,7.82,6.61,16.71,8.48,25.4,2.21,10.24,4.33,20.51,6.5,30.76s4.51,20.41,6.42,30.67c1.57,8.49,2.3,17.28,0,25.72-2.45,9.11-8.76,15.69-14.79,22.68-2.86,3.32-6.1,7-7,11.38s.3,8.86,1.39,13.05c4.45,17.11,6.45,34.41.48,51.49-5.17,14.77-17,27.39-32,32.69-1.34.47-2.7.86-4.06,1.2a7.62,7.62,0,0,1-2,5.28c-23.05,23.92-61.33,31.57-91.66,16.48-8.47-4.21-14.66-10.12-22.06-15.77-7.08-5.4-16.13-5-24.49-7.11-18.09-4.56-24.68-19.37-30.54-35.18-2.66-7.19-5.48-14-11.73-18.85-7.19-5.64-15.66-9.4-22.9-15s-13-12.85-15.85-21.68c-2.52-7.84-3-16.49-6.54-24-4-8.33-12.39-14.09-18.29-21a90.92,90.92,0,0,1-13.3-21.25c-7.11-15.77-10.19-34.51-6.68-51.54,1.91-9.23,5.43-18.36,11.84-25.5a56.7,56.7,0,0,1,10.84-9.12c3.52-2.38,7-4.53,8.74-8.54,1.83-4.33,2.35-9.19,3.67-13.67a58.63,58.63,0,0,1,5.64-12.7A75.25,75.25,0,0,1,1288.81,902Z" transform="translate(-273.35 -87.68)"></path><path class="cls-25" d="M1510.11,938.63c-4.73-2-10.24-3.12-14.43-6.15-3.72-2.69-6.15-6.79-8.7-10.49a71,71,0,0,0-34-26.74l3.51,5.48c1.53,1.81,3.53,7.87,4.14,10.44,15.36,27.38,43.15,58.39,27.79,86.38-7.38,15.27-28.42,21.77-36.56,36.14-13.83,20.57-5.23,47.35-10,71.25-2.46,17.39.76,37.82-19.51,45.23a165,165,0,0,1-104.48,1.52c3.17,4.13,5.12,9,7,14,5.86,15.81,12.45,30.62,30.54,35.18,8.36,2.1,17.41,1.71,24.49,7.11,7.4,5.65,13.59,11.56,22.06,15.77,30.33,15.09,68.61,7.44,91.66-16.48a7.62,7.62,0,0,0,2-5.28c1.36-.34,2.72-.73,4.06-1.2,15.08-5.3,26.88-17.92,32-32.69,6-17.08,4-34.38-.48-51.49-1.09-4.19-2.34-8.72-1.39-13.05s4.19-8.06,7-11.38c6-7,12.34-13.57,14.79-22.68,2.26-8.44,1.53-17.23,0-25.72-1.91-10.26-4.27-20.46-6.42-30.67s-4.28-20.52-6.5-30.76c-1.87-8.69-4.1-17.58-8.49-25.4A41.18,41.18,0,0,0,1510.11,938.63Z" transform="translate(-273.35 -87.68)"></path><path class="cls-26" d="M1104.89,695.56c22.43-.4,45.54,6.41,62.95,20.27a58,58,0,0,1,60.65-24.43c31.21,7.07,49.66,31.76,59.29,59.77,20.72,12.3,37.38,32.09,45,54.62,16.73,49.82-10.56,101.71-56.55,122.9a64.5,64.5,0,0,1-3.29,62.54c-15.31,24.37-43.92,34.5-72,30.29-14.24-2.14-27.83-7.06-41.72-10.64-15.28-3.94-28.83-2.91-44.39-2.36-30.46,1.07-60.26-11.72-79.5-35.24-17.06-20.87-23.09-48.1-18.9-74C998.34,893.42,983.5,880,974,863.49c-13.49-23.57-14.64-51-4.85-76.16C989,736.49,1050,696.54,1104.89,695.56Z" transform="translate(-273.35 -87.68)"></path><path class="cls-27" d="M1308,867.27c-14.29,34.79-54.84,40.38-89.71,39.77-40.7-2-57.45,41-89.87,59.89-6.3,3.63-13.21,4.69-19.5-.91-28-29.35-20.88-69-16.58-106.34,3.08-14.83-8.75-25.12-23.65-29.81-13.36-2.87-25.19,5.29-34.4,12.86-25.87-34.6-29.7-84-9.19-120.76-25.13,16.53-45.84,39.53-55.91,65.36-9.79,25.11-8.64,52.59,4.85,76.16,9.49,16.55,24.33,29.93,42.39,35.76-4.19,25.93,1.84,53.16,18.9,74,19.24,23.52,49,36.31,79.5,35.24,15.56-.55,29.11-1.58,44.39,2.36,13.89,3.58,27.48,8.5,41.72,10.64,28.06,4.21,56.67-5.92,72-30.29a64.5,64.5,0,0,0,3.29-62.54c46-21.19,73.28-73.08,56.55-122.9a100,100,0,0,0-24.11-38.35C1320.3,799.42,1321.24,835.28,1308,867.27Z" transform="translate(-273.35 -87.68)"></path><path class="cls-28" d="M1029.9,1195.66c18.21-14.93,133.89,35.43,129.77,80S994,1225.14,1029.9,1195.66Z" transform="translate(-273.35 -87.68)"></path><path class="cls-29" d="M1677.42,432.57l388.69-2.83V341.35a14.62,14.62,0,0,0-15.56-14.47L1691.31,347a14.6,14.6,0,0,0-13.89,14.48Z" transform="translate(-273.35 -87.68)"></path><path class="cls-30" d="M1673,432.57l388.69-21.8V341.35a14.62,14.62,0,0,0-15.56-14.47L1686.86,347A14.6,14.6,0,0,0,1673,361.5Z" transform="translate(-273.35 -87.68)"></path><polygon class="cls-30" points="1200.69 1479.56 1580.07 1500.32 1580.07 413.96 1200.69 434.72 1200.69 1479.56"></polygon><path class="cls-31" d="M1598.64,669.12c96.87,24.15-54.8,148,30.79,173.88,68,20.55,59.85-165.84,122-112.93,63,53.59-20.64,213.4-63,336.11-42,121.64-44.21,297.26,82.23,266.47,35.36-8.61,61.07-21.2,82.74-35.16V1588L1474,1567.23V710.51C1504.2,677,1547.5,656.38,1598.64,669.12Z" transform="translate(-273.35 -87.68)"></path><polygon class="cls-32" points="1579.87 1500.32 1959.01 1431.71 1959.01 533.2 1579.87 414.65 1579.87 1500.32"></polygon><polygon class="cls-33" points="1579.87 414.65 1959.01 533.2 1787.33 318.83 1787.33 318.83 1579.87 414.65"></polygon><g class="cls-34"><polygon class="cls-35" points="1787.33 318.83 1959.01 533.2 1737.02 342.07 1787.33 318.83"></polygon></g><path class="cls-30" d="M2232.36,1309v210.43L1853.22,1588V1297.82c64.68-40.38,95-86,200.24-96.09C2122.11,1195.17,2187.1,1253.11,2232.36,1309Z" transform="translate(-273.35 -87.68)"></path><path class="cls-36" d="M2139.22,998.65V999L2081,1021v30.39l58.2,25.6v.38l-95.09-.53v32.51l149.7-2.18v-31.88l-84.62-38v-.39l84.62-32.69V971.55l-149.7-11.67V993.2Z" transform="translate(-273.35 -87.68)"></path><path class="cls-37" d="M2044.13,926.15l149.7,14.8V906.69l-149.7-18.3Z" transform="translate(-273.35 -87.68)"></path><path class="cls-38" d="M2193.83,844l-118.44-19.55v-61l-31.26-6.36v97.54l149.7,21.43Z" transform="translate(-273.35 -87.68)"></path><path class="cls-39" d="M2193.83,733.18l-60.64-14.6v-.38l60.64-25.88v-36.1l-68.14,29.87-81.56-75.79v39.78l74,64.48V715l-74-17.81v34.33l149.7,32.86Z" transform="translate(-273.35 -87.68)"></path><polygon class="cls-40" points="1787.33 318.83 1399.62 336.01 1200.69 434.72 1579.87 414.65 1787.33 318.83"></polygon><polygon class="cls-35" points="1579.87 414.65 1787.33 318.83 1758.27 357.58 1579.87 414.65"></polygon><path class="cls-41" d="M1545.51,630.91a16.45,16.45,0,0,1,10.7-9.32c11.58-3.27,23.94,2.32,30,12.59,27.3,46.45,2.7,159.18,2.7,159.18h-18.41c9.49-75.36-10.76-122.62-24.34-147.73A17.58,17.58,0,0,1,1545.51,630.91Z" transform="translate(-273.35 -87.68)"></path><path class="cls-42" d="M1276,932.62c6,35,13.36,75.93,24.78,115.74,13.13,45.76,31.58,90.08,59.44,122.27,45.34,52.42,90.68,23.3,193.2,23.3,65.91,0,87.1-28,122.56-76.79,40.16-55.19,90.3-103.71,106.11-172.21,14.47-62.75-9.74-127.59-64.21-151.57h0c-15.87-13.7-34.32-11.38-55.12-10.45-16.09.72-31.39,1.19-46.29,1.5-34.94.7-67.88-1.49-104.69-13.56-53.64-17.61-175.24-46.53-217.06,10.75C1266.2,820.6,1268.38,888.24,1276,932.62Z" transform="translate(-273.35 -87.68)"></path><path class="cls-43" d="M1300.76,1048.36c13.13,45.76,31.58,90.08,59.44,122.27,45.34,52.42,90.68,23.3,193.2,23.3,65.91,0,87.1-28,122.56-76.79,40.16-55.19,90.3-103.71,106.11-172.21,14.47-62.75-9.74-127.59-64.21-151.57h0s67.21,164.37-55,198.34S1531.71,1163.2,1423.28,1104C1374.74,1077.48,1332.71,1056.47,1300.76,1048.36Z" transform="translate(-273.35 -87.68)"></path><path class="cls-44" d="M1385.82,784.9s98.58-16.46,69,53.58-110.41,137.22-138,89.07S1328.65,803,1385.82,784.9Z" transform="translate(-273.35 -87.68)"></path><path class="cls-45" d="M2039.24,1442.63l49.56,598.82,8,140.87c17.55,90.89,36,154.43,52.87,154.78,39,.69,94.42-69,136-125.91,16.84-23.19,31.32-44.29,41.56-57.62,35.32-46.38-8.83-463.76-20.6-518.83s-19.66-486-15.66-507.23-31.43-202.9-31.43-202.9l-51.57,58-3.41,3.83L2126.12,942l-35.32,54.15S2058,1269.3,2039.24,1442.63Z" transform="translate(-273.35 -87.68)"></path><path class="cls-46" d="M2039.24,1442.63l49.56,598.82,8,140.87c17.55,90.89,36,154.43,52.87,154.78,39,.69,94.42-69,136-125.91-31-116.41-106.19-403.35-102-432.46,4.6-32.81,20.85-661.66,24.26-796.15l-3.41,3.83L2126.12,942l-35.32,54.15S2058,1269.3,2039.24,1442.63Z" transform="translate(-273.35 -87.68)"></path><path class="cls-47" d="M807.93,2206.09c-1.3,47.3,23.55,89.38,61.81,112.8A132.62,132.62,0,0,0,933.08,2338c359.18,14.73,1189.4,99.36,1216.59-.92,31.31-115.94-90.3-641.49-86.41-707.23s27.54-633.72,27.54-633.72L2030.17,1011l-17.89,4.4-129.5-58-113.84,61.9-149-61.9-113.84,65.73-113.84-46.37L1298,1023.16,1180.3,957.43l-74.52,58-121.61-58-70.64,65.73-74.64-65.73-3.88,61.9S816.76,1872.41,807.93,2206.09Z" transform="translate(-273.35 -87.68)"></path><path class="cls-48" d="M869.74,2318.89A132.62,132.62,0,0,0,933.08,2338c359.18,14.73,1189.4,99.36,1216.59-.92,31.31-115.94-90.3-641.49-86.41-707.23s27.54-633.72,27.54-633.72L2030.17,1011c-49.68,29.56-111,83.7-118.55,93.79-132.68,176.69,40.27,510.71-189.42,628.86-147.87,75.94-336.23,14.95-479.5,102-57.1,34.78-100.9,92.17-119,155.82-19.06,67.13,2.83,146.67-47.68,203.36C1027.49,2249.33,944.26,2280.52,869.74,2318.89Z" transform="translate(-273.35 -87.68)"></path><path class="cls-49" d="M2088.45,1247.49,1969.72,2559.6c-1.8,19.86,12.21,37.53,31.16,39.25l642.4,65.16c38.44,2,58.78-18.51,60.5-39.15l114-1362.3c1.68-20.11-17.41-39.07-55.38-40.45l-636.51-9.21C2107,1212.55,2090.2,1228.11,2088.45,1247.49Z" transform="translate(-273.35 -87.68)"></path><path class="cls-50" d="M2059.27,1244.23l-119.81,1320c-1.81,20,12.27,37.76,31.33,39.5l666.57,60.58c20.44,1.86,38.62-13.62,40.36-34.38l115-1370.52a34.23,34.23,0,0,0-33.83-37.48l-662-12.45C2078,1209.08,2061,1224.74,2059.27,1244.23Z" transform="translate(-273.35 -87.68)"></path><path class="cls-51" d="M2406.56,1255.39a11.45,11.45,0,0,0,11.2,12.72,13.44,13.44,0,0,0,13.4-12.21,11.45,11.45,0,0,0-11.22-12.72A13.44,13.44,0,0,0,2406.56,1255.39Z" transform="translate(-273.35 -87.68)"></path><g class="cls-52"><polygon class="cls-53" points="1777.63 1589.28 2448.58 1619.15 2466.14 1425.62 1793.92 1402.89 1777.63 1589.28"></polygon><polygon class="cls-30" points="1699.11 2487.76 2363.93 2551.83 2457.63 1519.45 1786.02 1493.26 1699.11 2487.76"></polygon><polygon class="cls-54" points="1788.63 1463.47 2460.43 1488.53 2488.46 1179.77 1814.61 1166.11 1788.63 1463.47"></polygon><polygon class="cls-53" points="1868.47 1320.63 2110.67 1327.66 2112.83 1303.44 1870.56 1296.75 1868.47 1320.63"></polygon><polygon class="cls-53" points="1864.46 1366.28 2106.56 1373.93 2108.71 1349.73 1866.56 1342.41 1864.46 1366.28"></polygon><g class="cls-55"><path class="cls-53" d="M1933.59,2644.75a29.67,29.67,0,0,0,24.64-13l292.93-433.43,282.18,20.28,177.74,361.48a29.78,29.78,0,0,0,39.5,13.51,28.92,28.92,0,0,0,13.72-38.89L2579.12,2178.1a29.58,29.58,0,0,0-24.46-16.35L2238.25,2139a29.75,29.75,0,0,0-26.76,12.91L1909,2599.5a28.85,28.85,0,0,0,8.23,40.37A29.73,29.73,0,0,0,1933.59,2644.75Z" transform="translate(-273.35 -87.68)"></path><path class="cls-53" d="M2339.59,2676.86A29.4,29.4,0,0,0,2369,2650.3l41.37-463.44,333.81-626.77a28.89,28.89,0,0,0-12.45-39.3,29.78,29.78,0,0,0-39.91,12.26L2355.26,2165a28.68,28.68,0,0,0-3.27,11L2310.1,2645.2a29.25,29.25,0,0,0,26.87,31.55C2337.85,2676.83,2338.72,2676.86,2339.59,2676.86Z" transform="translate(-273.35 -87.68)"></path><path class="cls-53" d="M2359.37,2446.64a20.54,20.54,0,0,0,1.79-41L2158,2388.17l71.5-811.37a20.87,20.87,0,0,0-41.58-3.55l-73.31,831.83a20.64,20.64,0,0,0,19,22.25l224,19.24C2358.15,2446.62,2358.76,2446.64,2359.37,2446.64Z" transform="translate(-273.35 -87.68)"></path><path class="cls-53" d="M1993.55,2236.8a12.19,12.19,0,0,0,8.61-3.52l373.52-368.4c19.31,6.18,75,23.89,130.45,40.87,40.18,12.29,72.42,21.8,95.84,28.26,14.36,4,24.9,6.75,32.79,8.47-14.49,39.76-61.19,160.7-93.62,244a11.94,11.94,0,0,0,7,15.48,12.22,12.22,0,0,0,15.73-6.9c.25-.64,25.37-65.2,49.95-129,14.44-37.51,25.87-67.44,34-89,4.6-12.22,8.39-22.42,11-29.6,4.7-13,7.54-20.93-2-26a12.27,12.27,0,0,0-8.79-1c-22.26-2.32-177.24-50.31-271.85-80.71a12.3,12.3,0,0,0-12.39,2.93l-378.79,373.6a11.85,11.85,0,0,0,0,16.95A12.23,12.23,0,0,0,1993.55,2236.8ZM2641,1925.24v0Zm0,0v0Zm.3-.4-.3.4Zm0,0h0Zm0,0Z" transform="translate(-273.35 -87.68)"></path><path class="cls-53" d="M2372.35,1863.2a12.11,12.11,0,0,0,12.12-10.94l30.09-337.9a12.17,12.17,0,0,0-24.25-2.09l-30.1,337.89a12.05,12.05,0,0,0,11.07,13C2371.64,1863.18,2372,1863.2,2372.35,1863.2Z" transform="translate(-273.35 -87.68)"></path><path class="cls-56" d="M1946.6,2603.23a8.72,8.72,0,0,0,7.23-3.81l8.88-13.08a8.48,8.48,0,0,0-2.4-11.88,8.79,8.79,0,0,0-12.06,2.36l-8.88,13.09a8.49,8.49,0,0,0,2.4,11.88A8.81,8.81,0,0,0,1946.6,2603.23Zm39.8-58.65a8.75,8.75,0,0,0,7.24-3.81l30.91-45.56a8.48,8.48,0,0,0-2.4-11.88,8.76,8.76,0,0,0-12.05,2.36l-30.92,45.56a8.48,8.48,0,0,0,2.39,11.88A8.77,8.77,0,0,0,1986.4,2544.58Zm61.84-91.13a8.73,8.73,0,0,0,7.24-3.81l30.91-45.57a8.49,8.49,0,0,0-2.39-11.88,8.78,8.78,0,0,0-12.06,2.37L2041,2440.12a8.48,8.48,0,0,0,2.4,11.88A8.71,8.71,0,0,0,2048.24,2453.45Zm61.84-91.14a8.72,8.72,0,0,0,7.24-3.8l30.92-45.57a8.49,8.49,0,0,0-2.4-11.88,8.78,8.78,0,0,0-12.06,2.36L2102.86,2349a8.49,8.49,0,0,0,2.4,11.88A8.7,8.7,0,0,0,2110.08,2362.31Zm61.85-91.13a8.72,8.72,0,0,0,7.23-3.81l30.92-45.56a8.48,8.48,0,0,0-2.4-11.88,8.78,8.78,0,0,0-12.06,2.36l-30.92,45.57a8.47,8.47,0,0,0,2.4,11.87A8.74,8.74,0,0,0,2171.93,2271.18Zm214.57-83.73,10.55-19.83a8.48,8.48,0,0,0-3.66-11.56,8.76,8.76,0,0,0-11.74,3.6l-5.26,9.89-32.83-2.36a8.56,8.56,0,1,0-1.26,17.08Zm-99.06-7.15a8.56,8.56,0,0,0,.62-17.1l-56.38-4-5.14,7.58a8.48,8.48,0,0,0,2.4,11.87,8.8,8.8,0,0,0,11.53-1.65l46.33,3.33C2287,2180.3,2287.22,2180.3,2287.44,2180.3Zm127.76-56.63a8.72,8.72,0,0,0,7.71-4.59l25.84-48.53a8.48,8.48,0,0,0-3.66-11.56,8.77,8.77,0,0,0-11.74,3.61l-25.84,48.53a8.48,8.48,0,0,0,3.66,11.56A8.68,8.68,0,0,0,2415.2,2123.67Zm51.7-97.07a8.7,8.7,0,0,0,7.7-4.58l25.85-48.54a8.48,8.48,0,0,0-3.66-11.56,8.77,8.77,0,0,0-11.74,3.61l-25.85,48.53a8.5,8.5,0,0,0,3.66,11.56A8.72,8.72,0,0,0,2466.9,2026.6Zm51.7-97.06a8.71,8.71,0,0,0,7.7-4.59l25.85-48.54a8.5,8.5,0,0,0-3.66-11.56,8.77,8.77,0,0,0-11.74,3.61L2510.9,1917a8.5,8.5,0,0,0,3.66,11.56A8.73,8.73,0,0,0,2518.6,1929.54Zm51.7-97.07a8.71,8.71,0,0,0,7.7-4.59l25.85-48.53a8.5,8.5,0,0,0-3.66-11.56,8.76,8.76,0,0,0-11.74,3.6l-25.85,48.54a8.5,8.5,0,0,0,3.66,11.56A8.85,8.85,0,0,0,2570.3,1832.47ZM2622,1735.4a8.72,8.72,0,0,0,7.71-4.59l25.85-48.53a8.5,8.5,0,0,0-3.66-11.56,8.76,8.76,0,0,0-11.74,3.6l-25.85,48.54a8.5,8.5,0,0,0,3.66,11.56A8.84,8.84,0,0,0,2622,1735.4Zm51.7-97.07a8.72,8.72,0,0,0,7.71-4.59l13.76-25.82,3-28.79a8.59,8.59,0,0,0-7.75-9.39,8.69,8.69,0,0,0-9.54,7.63l-2.68,25.51-12.2,22.91a8.5,8.5,0,0,0,3.66,11.56A8.71,8.71,0,0,0,2673.69,1638.33Zm21.56-106a8.63,8.63,0,0,0,8.64-7.68l5.72-54.52a8.59,8.59,0,0,0-7.76-9.39,8.69,8.69,0,0,0-9.54,7.63l-5.71,54.52a8.59,8.59,0,0,0,7.75,9.4C2694.65,1532.29,2695,1532.3,2695.25,1532.3Z" transform="translate(-273.35 -87.68)"></path></g></g><ellipse class="cls-57" cx="2247.58" cy="1822.57" rx="46.03" ry="45.33"></ellipse><g class="cls-58"><path class="cls-53" d="M2219.43,2150.36c64.62-222.34,253-200.11,309.37-401,46.28-165-60.42-252,4.3-390.15,30.45-65,83.78-108.91,139.08-138.93l86.68,1.63a34.23,34.23,0,0,1,33.83,37.48l-115,1370.52c-1.74,20.76-19.92,36.24-40.36,34.38l-546.52-49.67c34.94-43.66,68.1-97.09,91.11-161.27C2230.67,2317.48,2183.7,2273.32,2219.43,2150.36Z" transform="translate(-273.35 -87.68)"></path></g><g class="cls-34"><path class="cls-59" d="M2425.52,1435.87l251,2c4.22,0,8.06-3.08,8.56-7l2.16-16.54c.5-3.89-2.54-7-6.78-7H2428.12a7.41,7.41,0,0,0-7.3,6.58l-1.39,15.42A6,6,0,0,0,2425.52,1435.87Z" transform="translate(-273.35 -87.68)"></path><path class="cls-60" d="M2665.74,1443.9l-32.07,79.81a13.6,13.6,0,0,1-13,8.13l-164.28-5.29a10.29,10.29,0,0,1-10.09-8.46l-12.52-76.36Zm-72,74.38a5.34,5.34,0,0,0,5.47,5.84l5.87.18a6.64,6.64,0,0,0,6.86-5.49l7.46-61.78c.39-3.2-2.11-5.83-5.56-5.87l-5.94-.07a6.85,6.85,0,0,0-6.9,5.7Zm-32.43-.94a5.29,5.29,0,0,0,5.4,5.79l5.76.18a6.53,6.53,0,0,0,6.73-5.45l7.09-61.25a5.28,5.28,0,0,0-5.49-5.82l-5.84-.07a6.71,6.71,0,0,0-6.76,5.65Zm-31.89-.92a5.25,5.25,0,0,0,5.33,5.74l5.67.18a6.41,6.41,0,0,0,6.59-5.41l6.73-60.74a5.24,5.24,0,0,0-5.42-5.77l-5.74-.07a6.6,6.6,0,0,0-6.63,5.61Zm-31.37-.91a5.23,5.23,0,0,0,5.27,5.7l5.57.17a6.27,6.27,0,0,0,6.46-5.37l6.39-60.23a5.2,5.2,0,0,0-5.35-5.73l-5.65-.06a6.46,6.46,0,0,0-6.49,5.56Zm-30.84-.89a5.18,5.18,0,0,0,5.2,5.65l5.48.17a6.17,6.17,0,0,0,6.33-5.33l6-59.74a5.16,5.16,0,0,0-5.28-5.67l-5.55-.06a6.33,6.33,0,0,0-6.36,5.51Z" transform="translate(-273.35 -87.68)"></path><path class="cls-61" d="M2642.35,1398.94c3.53,3.17,9.54,2.78,13.44-.88s4.19-9.22.63-12.39-9.59-2.75-13.47.92S2638.82,1395.78,2642.35,1398.94Z" transform="translate(-273.35 -87.68)"></path><path class="cls-62" d="M2569,1320.5c1.44-1.44,4.08-1.3,5.89.32l73.84,65.93c1.86,1.66,2.14,4.15.63,5.57s-4.22,1.23-6.07-.43L2569.66,1326C2567.85,1324.42,2567.55,1321.94,2569,1320.5Z" transform="translate(-273.35 -87.68)"></path><path class="cls-63" d="M2463.87,1399.33c-3.86,3-9.22,2.67-12-.78s-1.89-8.71,1.94-11.75,9.23-2.73,12,.74S2467.73,1396.29,2463.87,1399.33Z" transform="translate(-273.35 -87.68)"></path><path class="cls-64" d="M2550.24,1320.93c-1.12-1.37-3.77-1.11-5.92.58l-83.77,66.24c-2,1.59-2.78,4-1.71,5.31s3.58,1.14,5.6-.45l83.93-66.12C2550.52,1324.8,2551.36,1322.31,2550.24,1320.93Z" transform="translate(-273.35 -87.68)"></path></g><path class="cls-53" d="M2422.15,1432.54l251,2c4.23,0,8.07-3.07,8.57-6.94l2.15-16.54c.51-3.89-2.53-7-6.78-7H2424.75a7.43,7.43,0,0,0-7.31,6.58l-1.39,15.42A6,6,0,0,0,2422.15,1432.54Z" transform="translate(-273.35 -87.68)"></path><path class="cls-53" d="M2662.37,1440.58l-32.07,79.81a13.6,13.6,0,0,1-13,8.13l-164.28-5.29a10.28,10.28,0,0,1-10.09-8.46l-12.52-76.36Zm-72,74.38c-.37,3.12,2.08,5.74,5.47,5.84l5.87.18a6.66,6.66,0,0,0,6.86-5.49l7.46-61.78c.38-3.2-2.11-5.83-5.56-5.87l-5.94-.07a6.85,6.85,0,0,0-6.9,5.7Zm-32.43-.94a5.29,5.29,0,0,0,5.4,5.79l5.76.18a6.53,6.53,0,0,0,6.73-5.45l7.08-61.25a5.27,5.27,0,0,0-5.48-5.82l-5.84-.07a6.7,6.7,0,0,0-6.76,5.65Zm-31.9-.92a5.26,5.26,0,0,0,5.34,5.74l5.66.18a6.39,6.39,0,0,0,6.59-5.41l6.73-60.74a5.22,5.22,0,0,0-5.41-5.77l-5.74-.07a6.6,6.6,0,0,0-6.63,5.61Zm-31.36-.91a5.23,5.23,0,0,0,5.27,5.7l5.57.17a6.28,6.28,0,0,0,6.46-5.37l6.38-60.23a5.2,5.2,0,0,0-5.34-5.73l-5.65-.06a6.46,6.46,0,0,0-6.49,5.56Zm-30.84-.89a5.18,5.18,0,0,0,5.2,5.65l5.48.17a6.17,6.17,0,0,0,6.33-5.33l6-59.74a5.16,5.16,0,0,0-5.28-5.67l-5.55-.07a6.36,6.36,0,0,0-6.37,5.52Z" transform="translate(-273.35 -87.68)"></path><path class="cls-53" d="M2639,1395.62c3.54,3.17,9.55,2.78,13.45-.88s4.19-9.22.63-12.39-9.59-2.75-13.47.92S2635.44,1392.46,2639,1395.62Z" transform="translate(-273.35 -87.68)"></path><path class="cls-53" d="M2565.62,1317.18c1.45-1.44,4.09-1.3,5.9.32l73.84,65.93c1.85,1.66,2.14,4.15.63,5.57s-4.22,1.23-6.07-.43l-73.63-65.85C2564.48,1321.1,2564.18,1318.62,2565.62,1317.18Z" transform="translate(-273.35 -87.68)"></path><path class="cls-53" d="M2460.49,1396c-3.85,3-9.21,2.67-12-.78s-1.9-8.71,1.94-11.76,9.23-2.72,12,.75S2464.36,1393,2460.49,1396Z" transform="translate(-273.35 -87.68)"></path><path class="cls-53" d="M2546.87,1317.61c-1.13-1.37-3.78-1.11-5.92.58l-83.77,66.24c-2,1.59-2.78,4-1.71,5.31s3.58,1.14,5.6-.46l83.93-66.11C2547.15,1321.48,2548,1319,2546.87,1317.61Z" transform="translate(-273.35 -87.68)"></path><path class="cls-65" d="M1180.08,2783.31c-501.18,3.81-881.89-.4-905.81-210.67-13.8-121.29,130.64-432.68,218.05-531.93,138.19-156.89,360-164.59,663.51-172.92,285.4-7.83,461.27-12.66,600.14,108.47,129.83,113.25,270.39,553.42,189.54,662.22C1870.49,2739.44,1658.59,2779.68,1180.08,2783.31Z" transform="translate(-273.35 -87.68)"></path><path class="cls-66" d="M1700.61,2499.32s60-28.32,111,0,5.13-131.3-55.51-149.43-131-59.86-248.92-56.23-821.78-38.93-902.72-14-167.18,126.49-130.22,175.46,119.66-15.3,147.81-17.63S1700.61,2499.32,1700.61,2499.32Z" transform="translate(-273.35 -87.68)"></path><path class="cls-67" d="M988.36,1867.3l-58.67,14.79a21.35,21.35,0,0,0-12.93,32.35c40,61.33,145.77,215.36,212,233.48,68.5,18.74,196.47-176.44,239-245.13a21.33,21.33,0,0,0-12-31.59l-43-13.49a288.13,288.13,0,0,0-109.1-12.27l-160.42,12.8A332.39,332.39,0,0,0,988.36,1867.3Z" transform="translate(-273.35 -87.68)"></path><polygon class="cls-68" points="1438.23 2733.14 600 2773.05 600 1941.75 1438.23 1981.67 1438.23 2733.14"></polygon><polygon class="cls-69" points="600 2773.05 299.41 2716.17 299.41 1994.82 600 1941.75 600 2773.05"></polygon><polygon class="cls-70" points="868.7 1955.88 868.7 2085.85 1093.09 2095.51 1093.09 1969.26 868.7 1955.88"></polygon><polygon class="cls-70" points="363.72 1983.46 489.63 1961.23 489.63 2089.24 363.72 2102.69 363.72 1983.46"></polygon><path class="cls-53" d="M554.37,2487.64s-1-135.43,40.62-173.22,91.24-31.5,103.18-34.65-37.49,48.82-45.62,115S596.91,2475,554.37,2487.64Z" transform="translate(-273.35 -87.68)"></path><path class="cls-53" d="M1729.92,2551.25s-43.45-85.61-110.3-106.17-40.11,1.64,0,53.08,40.11,127.15,76.88,137S1748.26,2603.92,1729.92,2551.25Z" transform="translate(-273.35 -87.68)"></path><path class="cls-53" d="M1032.87,1900.31l120.34,129.11,121.89-153s-20.67-15.34-30.68-79.33c-3.39-21.7-5.57-48.83-5.27-83,.11-15.53.74-33.62,2-50.75H1044.58s.81,5.66,2,15.42c0,.18,0,.57.07.76,1,8.59,2.32,19.91,3.61,33.26,0,.11,0,.27,0,.38C1056.51,1778.51,1062.08,1886,1032.87,1900.31Z" transform="translate(-273.35 -87.68)"></path><path class="cls-71" d="M1046.57,1679.24c0,.18,0,.36.07.54,1,8.6,2.32,19.81,3.61,33.16,0,0,0,0,0,0,4.09,5.34,10.27,10.34,19,14.77,53.41,27.21,55.47,53.51,87.74,82.53s87.85-13.06,87.85-13.06v-.07c-3.47-21.7-5.78-49.44-5.48-83.62-18.24-13.35-47-33-74.52-50.13H1055.33c-3.64,3.43-6.66,10.19-8.73,15.34C1046.6,1678.77,1046.57,1679.2,1046.57,1679.24Z" transform="translate(-273.35 -87.68)"></path><path class="cls-72" d="M1321.27,1523.87c70.5-66.73-25.89-71.35-79.19-112.34-15.23-11.72,1.23-99.16-101.18-53.81-105.68,46.79-103.91,7.64-121.33,54.41-10.64,28.55-62.17,78.79-50.42,109.18,6.05,15.64,17.84,35.11,44.05,72.26,23.26,33,21.7,31.86,28.83,41.44,17.13,23,50.18,61.78,110.73,106.71a358.12,358.12,0,0,1,17.61-60.42c3.43-8.75,17.26-43,39.19-71.78C1247.31,1559.91,1293.68,1550,1321.27,1523.87Z" transform="translate(-273.35 -87.68)"></path><path class="cls-53" d="M1075.35,1697.57s62.79,92.1,179.07,79.61c104.12-11.2,109.17-242.46,40.3-288.52-23-15.37-67.83-20.22-103.63-8.67-21.14,6.83-28,15.91-62.75,26.4-32.06,9.68-41.38,6.53-50.81,15.07-11.8,10.68-19.66,35.94,3.79,102.48-20.81-19-45.06-25.6-61.65-17a35.2,35.2,0,0,0-13.31,13.94C992.93,1647.86,1018.84,1680.44,1075.35,1697.57Z" transform="translate(-273.35 -87.68)"></path><path class="cls-73" d="M965,1519.53s5.43,49.91,30.72,36.35c93.2-50,280-104.7,334.25-51.34,0,0,26.29-230.61-203.59-214.42-95.18,6.7-141.76,53.75-164.21,103.45C934.79,1454.18,965,1519.53,965,1519.53Z" transform="translate(-273.35 -87.68)"></path><path class="cls-74" d="M1044.55,1531.19c-5.82,1.59,81.93-66.33,81.93-66.33s84.89-59.77,239.94-30.5c77.38,14.61-31.3,74.6-31.3,74.6S1304.42,1460.13,1044.55,1531.19Z" transform="translate(-273.35 -87.68)"></path></g></g></svg>