<svg xmlns="http://www.w3.org/2000/svg" xmlns:xlink="http://www.w3.org/1999/xlink" id="Layer_1" data-name="Layer 1" viewBox="0 0 446.79 410.8"><defs><style>.cls-1,.cls-21,.cls-27,.cls-4{fill:none;}.cls-2,.cls-5{fill:#e10454;}.cls-14,.cls-3,.cls-7{fill:#fff;}.cls-3{opacity:0.7;}.cls-11,.cls-27,.cls-3{isolation:isolate;}.cls-16,.cls-28,.cls-4,.cls-5,.cls-7{stroke:#263238;}.cls-16,.cls-21,.cls-27,.cls-28,.cls-4,.cls-5,.cls-7{stroke-linecap:round;stroke-linejoin:round;}.cls-6{fill:#40208b;}.cls-8{fill:#263238;}.cls-28,.cls-9{fill:#999;}.cls-10{clip-path:url(#clip-path);}.cls-11{fill-opacity:0.7;opacity:0.3;}.cls-12{clip-path:url(#clip-path-2);}.cls-13{clip-path:url(#clip-path-3);}.cls-15{clip-path:url(#clip-path-4);}.cls-16,.cls-17{fill:#bfbfbf;}.cls-18{clip-path:url(#clip-path-5);}.cls-19{clip-path:url(#clip-path-6);}.cls-20,.cls-27{opacity:0.2;}.cls-21,.cls-27{stroke:#fff;}.cls-22{clip-path:url(#clip-path-7);}.cls-23{clip-path:url(#clip-path-8);}.cls-24{clip-path:url(#clip-path-9);}.cls-25{clip-path:url(#clip-path-10);}.cls-26{clip-path:url(#clip-path-11);}.cls-29{clip-path:url(#clip-path-12);}.cls-30{clip-path:url(#clip-path-13);}.cls-31{clip-path:url(#clip-path-14);}.cls-32{clip-path:url(#clip-path-15);}</style><clipPath id="clip-path" transform="translate(-7.57 -7.56)"><path class="cls-1" d="M244.36,200.17c-8.44,2.38-32.11,26.93-32.11,26.93s-2.78-3-3.76-2.44-3.89,6.11-3.89,6.11-5.48-3-9.47-2.13-14,19.05-14,19.05-2.93,7,0,9.19a9.87,9.87,0,0,0,5.31,2.14,52.85,52.85,0,0,0,4.73,7.38c2.37,2.9,13.71,0,13.71,0l37.62-20.63s10.67-27.23,11.5-30.22S244.36,200.17,244.36,200.17Z"></path></clipPath><clipPath id="clip-path-2" transform="translate(-7.57 -7.56)"><path class="cls-1" d="M150.75,178.05s2,7,3.73,8.28,16.89,7.7,16.89,7.7l-1.68,20c10.71,4,23.48-2.63,23.48-2.63a121.58,121.58,0,0,1-4.8-19.91s6.86-10,6.33-13.45S150.75,178.05,150.75,178.05Z"></path></clipPath><clipPath id="clip-path-3" transform="translate(-7.57 -7.56)"><path class="cls-1" d="M240.91,201.4s8.31-3.17,11.67-3.17,10.65,1.59,10.65,1.59,3.52-1.54,13.55-3.28,14,3.54,14,3.54,24.87,3.08,28.92,9.45-13.62,45.93-31,63.34l11.65,41.74s-38.55,18-76.82,6.26l11.9-45.3s-7.81-28.6-9.18-41.36S243.13,208,243.13,208"></path></clipPath><clipPath id="clip-path-4" transform="translate(-7.57 -7.56)"><path class="cls-1" d="M290.75,200.07c.8,11.08-12.57,32.44-12.57,32.44s-30.28-1.1-41.69-5c0,0,9.5-17.92,26.74-27.67l-3.25-.65s-30,20.12-33.79,28.32S233,276.09,233,276.09s-22.4,67.19-22.16,104.38c0,0,0,30.18,34.28,30.18,43.68,0,50.15-27.34,50.15-27.34s-5.31-73.79-10-95.15c0,0-4.11-35.87,2.3-47.47s8-31,6.45-40.16Z"></path></clipPath><clipPath id="clip-path-5" transform="translate(-7.57 -7.56)"><path class="cls-1" d="M233.6,168.4v2.78l-22.89,2.93-5.23,5.29s-36.37,3.56-69.76,2.12L129.24,177l-20.77-2.92V171s41.51-5.37,76.77-5.27S233.6,168.4,233.6,168.4Z"></path></clipPath><clipPath id="clip-path-6" transform="translate(-7.57 -7.56)"><path class="cls-1" d="M319.67,209.52c8.4,4.92,36,45.92,37.62,51.76s-6.83,18.26-6.83,18.26l-7.49,7.3s-18.23-12.39-19-13.45,2.46-6.33,2.46-6.33L324,263.92l.91-3.41-17.72-15.37s-3.27-22.41,3.64-30"></path></clipPath><clipPath id="clip-path-7" transform="translate(-7.57 -7.56)"><polygon class="cls-1" points="39.54 415.86 31.62 415.86 27.76 393.96 20.82 354.56 28.74 354.56 34.99 390.03 39.54 415.86"></polygon></clipPath><clipPath id="clip-path-8" transform="translate(-7.57 -7.56)"><polygon class="cls-1" points="111.58 359.94 17.31 359.94 8.07 307.48 102.34 307.48 111.58 359.94"></polygon></clipPath><clipPath id="clip-path-9" transform="translate(-7.57 -7.56)"><path class="cls-1" d="M132.69,366.25c-3.11,2.78-6.59,5.13-8.55,4.33-2.84-1.17-4.24-10.93-4.84-17.06-.28-2.9-.39-5-.39-5l5.23-28.31c10.46,7.75,12.31,12.1,12.83,17.25s1.72,20.8,2.11,21.48C139.29,359.32,136.24,363.07,132.69,366.25Z"></path></clipPath><clipPath id="clip-path-10" transform="translate(-7.57 -7.56)"><path class="cls-1" d="M128.17,351.47c-.63,2.76-1.29,5.95-1.95,9.42-3.57,18.66-7.31,45.28-7.31,55H49.51s-.5-23.77,0-47.85c.37-17.14,1.25-34.43,3.2-43.41,0,0,15.36-18.82,44.93-15.31,14.78,1.76,23.52,7.6,28.57,13"></path></clipPath><clipPath id="clip-path-11" transform="translate(-7.57 -7.56)"><path class="cls-1" d="M66.16,327.85a33.88,33.88,0,0,1,.45,5.86,32.24,32.24,0,0,1-5,17.09c-1.47,4.36-4.09,12-9.51,18.76-.12.17-.26.33-.39.49-5.67,6.86-5.81-5.73-12.27-9.26s-6-6.17-6-6.17c5.4-7.9,5.22-11.72,8.3-16.62,7.53-11.94,6.33-15.42,25.48-23.94"></path></clipPath><clipPath id="clip-path-12" transform="translate(-7.57 -7.56)"><path class="cls-1" d="M397.7,416.86s-2.41-68.61,1.51-92.75A64.8,64.8,0,0,0,388.75,277c-3.92-5.62-25.71-11.15-25.71-11.15s-3.49-4.6-17-4.2S314.2,270,314.2,270c-7.4,1.81-12.9,4.52-17,7.77-5.27,1.07-11.56,6.38-18,13.55-2.94-3-8.76-6.1-10.81-6-1.52.1-3.09,2.55-4.09,4.45-7.52-2-7.06,6-7.06,6s-37,55.61-11.87,70.92V367l1,.36c4.32,2.29,8.06,2.31,11.31.74,10.23-2.45,19.1-13.72,34.1-29.79,1.33,17.05,2.5,78.59,2.5,78.59"></path></clipPath><clipPath id="clip-path-13" transform="translate(-7.57 -7.56)"><polyline class="cls-1" points="316.16 416.86 329.7 339.96 339.63 339.96 326.09 416.86"></polyline></clipPath><clipPath id="clip-path-14" transform="translate(-7.57 -7.56)"><polyline class="cls-1" points="414.38 416.86 427.45 342.62 427.92 339.96 437.86 339.96 437.24 343.51 424.32 416.86"></polyline></clipPath><clipPath id="clip-path-15" transform="translate(-7.57 -7.56)"><polygon class="cls-1" points="453.86 280.9 452.77 287.09 442.27 346.71 324 346.71 335.59 280.9 453.86 280.9"></polygon></clipPath></defs><title>امکان رزرو میز سایت رستوران</title><g id="freepik--background-simple--inject-153"><path class="cls-2" d="M406.25,167.78c-18.19-20.11-48.65-22.38-72.37-35.55-40.79-22.7-56.6-74.39-93.71-102.71-23.43-17.88-55.09-24.82-83.4-20.9-40.19,5.57-78,32.5-89.36,72A99.84,99.84,0,0,0,64,116c1.82,23.55,6.88,47.4,2.1,70.53-5.26,25.49-21.85,47-31.76,71.09-12.34,30-14,63.6-8.76,95.58,3.6,21.82,10.77,43.84,25.76,60.11,1.13,1.23,2.31,2.4,3.51,3.55H218.43c10.26-13.09,18-28.58,27.07-42.33,22.72-34.58,59.1-59.24,98.83-70.81,17.8-5.18,37.08-8.26,51.38-20.06,14.72-12.13,21.48-31.49,24.41-50.34C423.66,210.5,421.74,184.92,406.25,167.78Z" transform="translate(-7.57 -7.56)"></path><path class="cls-3" d="M406.25,167.78c-18.19-20.11-48.65-22.38-72.37-35.55-40.79-22.7-56.6-74.39-93.71-102.71-23.43-17.88-55.09-24.82-83.4-20.9-40.19,5.57-78,32.5-89.36,72A99.84,99.84,0,0,0,64,116c1.82,23.55,6.88,47.4,2.1,70.53-5.26,25.49-21.85,47-31.76,71.09-12.34,30-14,63.6-8.76,95.58,3.6,21.82,10.77,43.84,25.76,60.11,1.13,1.23,2.31,2.4,3.51,3.55H218.43c10.26-13.09,18-28.58,27.07-42.33,22.72-34.58,59.1-59.24,98.83-70.81,17.8-5.18,37.08-8.26,51.38-20.06,14.72-12.13,21.48-31.49,24.41-50.34C423.66,210.5,421.74,184.92,406.25,167.78Z" transform="translate(-7.57 -7.56)"></path></g><g id="freepik--Window--inject-153"><polyline class="cls-4" points="207.94 240.01 207.94 82.26 194.53 82.26"></polyline><line class="cls-4" x1="207.94" y1="265.8" x2="207.94" y2="260.05"></line><polyline class="cls-4" points="160.02 82.26 21.6 82.26 21.6 286 207.94 286"></polyline><line class="cls-4" x1="177" y1="82.26" x2="164.83" y2="82.26"></line><rect class="cls-4" x="28.61" y="89.24" width="172.32" height="189.76"></rect><polyline class="cls-4" points="36.62 102.57 36.62 176.37 192.92 176.37 192.92 169.64"></polyline><polyline class="cls-4" points="192.92 153.85 192.92 96.58 36.62 96.58"></polyline><line class="cls-4" x1="192.92" y1="164.46" x2="192.92" y2="157.91"></line><line class="cls-4" x1="63.02" y1="184.13" x2="28.61" y2="184.13"></line><line class="cls-4" x1="75.25" y1="184.13" x2="70.38" y2="184.13"></line><line class="cls-4" x1="200.93" y1="184.13" x2="81.07" y2="184.13"></line><polyline class="cls-4" points="123.43 176.37 123.43 172.82 109.02 172.82 109.02 174.84 114.77 174.84 114.77 176.37"></polyline><path class="cls-4" d="M208.2,255.28s-2.38,1.81-4.07,12.76c0,0-2.89-17.48-6.4-17.76s-2.79,11.38-2.79,11.38-.58-5.74-3.33-5.48,0,11.86,0,11.86-3.3-9-6.42-8.88,2.07,16.37,2.07,16.37-8-5.8-11.25-3,1.8,10,1.8,10-11.49-2.49-13.28,4.25" transform="translate(-7.57 -7.56)"></path><path class="cls-4" d="M164.53,280.28s-5-3.28-8.94-1.75c0,0,2.5-3.82,0-6.15s-5.73,6.15-5.73,6.15-.35-14.21-5.36-13.49,0,13.49,0,13.49-9-7.93-11.09-5.17,1.43,6.92,1.43,6.92-5.37-1.71-9.3,2.29c0,0-6-6.12-12.66-7,0,0,4.43-12.86,2.28-15.45s-6,11.22-6,11.22-1.7-9-7.3-9.68c0,0,4.66-2.53,3.28-6.38s-7.82.9-7.82.9,2.65-6.75-1.54-8.61-5.93,5.66-5.93,5.66-1.16-7.87-6.09-7.44-3.32,9.49-3.32,9.49-4.64-7.2-7.13-6.46c-5,1.46-3.46,12.84-3.46,12.84s-6.93-4.82-8.71-2.6c-1.93,2.39,7.2,8.55,7.2,8.55s-6.87.79-11.15,4.79" transform="translate(-7.57 -7.56)"></path><path class="cls-4" d="M36.18,257.88s.79-7.22,8-7.6-2,15.83-2,15.83,6-4.92,8.09-3.41-6.1,9.87-6.1,9.87,4-3.66,8.13-2.53-2.39,12.76-2.39,12.76a29.79,29.79,0,0,1,18.35,2.14" transform="translate(-7.57 -7.56)"></path></g><g id="freepik--Pennants--inject-153"><path class="cls-4" d="M217.08,31.4c32.52,20,65.52,39,101.52,52,30,10,62,20,93.93,11.84" transform="translate(-7.57 -7.56)"></path><path class="cls-4" d="M201.94,21.77q5.58,3.6,11.2,7.14" transform="translate(-7.57 -7.56)"></path><path class="cls-4" d="M193.48,16.28l4.75,3.12" transform="translate(-7.57 -7.56)"></path><path class="cls-4" d="M187.37,12.15l2.92,2" transform="translate(-7.57 -7.56)"></path><path class="cls-5" d="M406.19,96.91l-9.83,27.16-9.61-24.48A16.52,16.52,0,0,0,406.19,96.91Z" transform="translate(-7.57 -7.56)"></path><path class="cls-6" d="M386.75,99.59,375.6,121.74l-7.47-23.46S379,105.31,386.75,99.59Z" transform="translate(-7.57 -7.56)"></path><path class="cls-5" d="M368.12,98.28l-15.69,20.59L345.1,92S356.69,101.47,368.12,98.28Z" transform="translate(-7.57 -7.56)"></path><path class="cls-6" d="M345.1,92,331.49,109.2l-4.06-22.8S339,94.4,345.1,92Z" transform="translate(-7.57 -7.56)"></path><path class="cls-5" d="M327.43,86.4,313.6,102.47l-5.24-23.42S317.82,87.4,327.43,86.4Z" transform="translate(-7.57 -7.56)"></path><path class="cls-6" d="M308.36,79.05s-12.49,17.48-12.69,16.57l-5-24.37S298.6,80.73,308.36,79.05Z" transform="translate(-7.57 -7.56)"></path><path class="cls-5" d="M290.6,71.25c2.17-1-13.06,17.32-13.06,17.32l-8.43-27.83S282.22,75,290.6,71.25Z" transform="translate(-7.57 -7.56)"></path><path class="cls-6" d="M269.14,60.74S253.81,79,253.81,77.25,247,48.85,247,48.85,259,62,269.14,60.74Z" transform="translate(-7.57 -7.56)"></path><path class="cls-5" d="M247,48.85,232.6,67.2l-7.32-30.88S236.25,52.65,247,48.85Z" transform="translate(-7.57 -7.56)"></path><path class="cls-4" d="M222.18,31.62C175.06,49.71,79.27,80.16,27.5,52.3" transform="translate(-7.57 -7.56)"></path><path class="cls-4" d="M237.46,25.53c-1.85.76-3.88,1.6-6.08,2.48" transform="translate(-7.57 -7.56)"></path><path class="cls-4" d="M249.82,20.19s-1.46.68-4.17,1.86" transform="translate(-7.57 -7.56)"></path><path class="cls-5" d="M33.6,55.26,43.08,83.4,52.37,62S42.6,65.6,33.6,55.26Z" transform="translate(-7.57 -7.56)"></path><path class="cls-6" d="M52.37,62,63.18,85.69l7.26-20.91S59.92,69.18,52.37,62Z" transform="translate(-7.57 -7.56)"></path><path class="cls-5" d="M70.44,64.78,85.71,88l7.16-24.29S81.6,70.33,70.44,64.78Z" transform="translate(-7.57 -7.56)"></path><path class="cls-6" d="M92.87,63.72l13.32,19.56,4-21.14S98.85,67.4,92.87,63.72Z" transform="translate(-7.57 -7.56)"></path><path class="cls-5" d="M110.16,62.14,123.75,80.7l5.16-21.51S119.6,65.22,110.16,62.14Z" transform="translate(-7.57 -7.56)"></path><path class="cls-6" d="M128.91,59.19S141.23,78.85,141.43,78s5-22.52,5-22.52S138.6,63,128.91,59.19Z" transform="translate(-7.57 -7.56)"></path><path class="cls-5" d="M146.42,55.49c-2.15-1.41,12.93,19.66,12.93,19.66L167.73,50S154.74,61,146.42,55.49Z" transform="translate(-7.57 -7.56)"></path><path class="cls-6" d="M167.73,50S183,71,183,69.4s6.84-26.18,6.84-26.18S177.86,53.4,167.73,50Z" transform="translate(-7.57 -7.56)"></path><path class="cls-5" d="M189.84,43.19l14.34,21,7.34-28.57S200.6,49.23,189.84,43.19Z" transform="translate(-7.57 -7.56)"></path></g><g id="freepik--Plant--inject-153"><path class="cls-4" d="M406.07,373.77c1.08-5.26-8.86-169.08,14.31-239.12" transform="translate(-7.57 -7.56)"></path><path class="cls-4" d="M382.54,158s19.66,18,26.09,41.68" transform="translate(-7.57 -7.56)"></path><path class="cls-4" d="M406.07,238.4s14.27-17.93,29.56-24.12" transform="translate(-7.57 -7.56)"></path><path class="cls-4" d="M385.52,254.21s12.93,1.33,19.66,9.8" transform="translate(-7.57 -7.56)"></path><path class="cls-4" d="M395.6,159.4a40.53,40.53,0,0,1-.2,13.59s-7.73-1.07-10.81-.67" transform="translate(-7.57 -7.56)"></path><path class="cls-4" d="M410.78,142.08s2.35,8.49,4.34,12.52A102.49,102.49,0,0,1,426,147.83" transform="translate(-7.57 -7.56)"></path><path class="cls-4" d="M406.07,164.76s3.38,6.39,5.5,10c0,0,8.7-5.35,12.85-6.7" transform="translate(-7.57 -7.56)"></path><path class="cls-4" d="M429.17,206.5s-5.16,8.39-5.84,15.07c0,0,8.41,3.72,10,5.9" transform="translate(-7.57 -7.56)"></path><path class="cls-4" d="M393.76,249s4.32,5,5.52,9.89c0,0-5.52,3.08-6.9,5.1" transform="translate(-7.57 -7.56)"></path><path class="cls-4" d="M392.38,214.67s11.33,3.27,14.26,11.48" transform="translate(-7.57 -7.56)"></path><path class="cls-4" d="M405,276a111.51,111.51,0,0,1,12.73-7.54" transform="translate(-7.57 -7.56)"></path><path class="cls-7" d="M422.89,133.3a2,2,0,1,1,0-.05Z" transform="translate(-7.57 -7.56)"></path><circle class="cls-7" cx="418.89" cy="140.27" r="2.04"></circle><path class="cls-7" d="M426.46,168.09a2,2,0,1,1-2-2A2,2,0,0,1,426.46,168.09Z" transform="translate(-7.57 -7.56)"></path><path class="cls-7" d="M412.82,140.73a2,2,0,1,1-2-2A2,2,0,0,1,412.82,140.73Z" transform="translate(-7.57 -7.56)"></path><path class="cls-7" d="M397.6,159.4a2,2,0,1,1-2-2A2,2,0,0,1,397.6,159.4Z" transform="translate(-7.57 -7.56)"></path><path class="cls-7" d="M430.6,206.5a2,2,0,1,1-2-2A2,2,0,0,1,430.6,206.5Z" transform="translate(-7.57 -7.56)"></path><circle class="cls-7" cx="383.93" cy="207.11" r="2.04"></circle><path class="cls-7" d="M435.37,228.48a2,2,0,1,1-2-2A2,2,0,0,1,435.37,228.48Z" transform="translate(-7.57 -7.56)"></path><path class="cls-7" d="M420.43,268.5a2,2,0,1,1-2-2A2,2,0,0,1,420.43,268.5Z" transform="translate(-7.57 -7.56)"></path><path class="cls-7" d="M395.6,247.61a2,2,0,1,1-2-2A2,2,0,0,1,395.6,247.61Z" transform="translate(-7.57 -7.56)"></path><path class="cls-7" d="M393.6,264.71a2,2,0,1,1-2.05-2A2.06,2.06,0,0,1,393.6,264.71Z" transform="translate(-7.57 -7.56)"></path><path class="cls-7" d="M407.22,164.76a2,2,0,1,1-2-2A2,2,0,0,1,407.22,164.76Z" transform="translate(-7.57 -7.56)"></path><path class="cls-7" d="M386.6,171.81a2,2,0,1,1-2-2A2,2,0,0,1,386.6,171.81Z" transform="translate(-7.57 -7.56)"></path><path class="cls-7" d="M438.82,214.27a2,2,0,1,1-2-2A2,2,0,0,1,438.82,214.27Z" transform="translate(-7.57 -7.56)"></path><path class="cls-7" d="M385,254.21a2,2,0,1,1-2-2A2,2,0,0,1,385,254.21Z" transform="translate(-7.57 -7.56)"></path><path class="cls-7" d="M384.6,157.32a2,2,0,1,1-2-2A2,2,0,0,1,384.6,157.32Z" transform="translate(-7.57 -7.56)"></path></g><g id="freepik--character-2--inject-153"><path class="cls-8" d="M295.27,304.9s6.74,12.76,11.89,36.43c2.13,9.8,7.42,74.53,7.42,74.53H265.23l-7.75-20.46v20.5H215.76s-5.95-53.29,11.84-110.76S295.27,304.9,295.27,304.9Z" transform="translate(-7.57 -7.56)"></path><path class="cls-9" d="M244.36,200.17c-8.44,2.38-32.11,26.93-32.11,26.93s-2.78-3-3.76-2.44-3.89,6.11-3.89,6.11-5.48-3-9.47-2.13-14,19.05-14,19.05-2.93,7,0,9.19a9.87,9.87,0,0,0,5.31,2.14,52.85,52.85,0,0,0,4.73,7.38c2.37,2.9,13.71,0,13.71,0l37.62-20.63s10.67-27.23,11.5-30.22S244.36,200.17,244.36,200.17Z" transform="translate(-7.57 -7.56)"></path><g class="cls-10"><path class="cls-11" d="M238.06,248.2l-33.2,18.2s-11.34,2.9-13.71,0a52.85,52.85,0,0,1-4.73-7.38,9.87,9.87,0,0,1-5.31-2.14,3.69,3.69,0,0,1-1.29-3c11.62,7.33,20.9-7.16,21.09-4.22.2,3.17-2.46,14.44-2.46,14.44s9.47.6,14.72-11.08,22.11-35.41,22.11-35.41Z" transform="translate(-7.57 -7.56)"></path></g><path class="cls-4" d="M244.36,200.17c-8.44,2.38-32.11,26.93-32.11,26.93s-2.78-3-3.76-2.44-3.89,6.11-3.89,6.11-5.48-3-9.47-2.13-14,19.05-14,19.05-2.93,7,0,9.19a9.87,9.87,0,0,0,5.31,2.14,52.85,52.85,0,0,0,4.73,7.38c2.37,2.9,13.71,0,13.71,0l37.62-20.63s10.67-27.23,11.5-30.22S244.36,200.17,244.36,200.17Z" transform="translate(-7.57 -7.56)"></path><path class="cls-7" d="M186.86,191.14c.06,13.87,5,25.9,6.55,29.66,3.68,8.83,5.94,14.91,4.69,17.81s-9.49,19.51-17.24,7.25-5-51.34-5-51.34Z" transform="translate(-7.57 -7.56)"></path><path class="cls-6" d="M150.75,178.05s2,7,3.73,8.28,16.89,7.7,16.89,7.7l-1.68,20c10.71,4,23.48-2.63,23.48-2.63a121.58,121.58,0,0,1-4.8-19.91s6.86-10,6.33-13.45S150.75,178.05,150.75,178.05Z" transform="translate(-7.57 -7.56)"></path><g class="cls-12"><path class="cls-11" d="M188.37,191.5s.13,1.05.48,3c-3.66,2.6-10.33,4.39-17.95,5.13l.4-4.8a76.8,76.8,0,0,0,17.89-4.55Z" transform="translate(-7.57 -7.56)"></path><path class="cls-11" d="M191.39,186.66a45.45,45.45,0,0,1-5.71.45s-5.81-2.11-8.53-3.2-13.36,1.32-13.36,1.32a28.25,28.25,0,0,1-4-2.37c-.66-.53-4-.19-7.24.3a48.25,48.25,0,0,1-1.78-5.11s43.42-3.43,43.95,0C195,179.88,193.16,183.6,191.39,186.66Z" transform="translate(-7.57 -7.56)"></path></g><path class="cls-4" d="M150.75,178.05s2,7,3.73,8.28,16.89,7.7,16.89,7.7l-1.68,20c10.71,4,23.48-2.63,23.48-2.63a121.58,121.58,0,0,1-4.8-19.91s6.86-10,6.33-13.45S150.75,178.05,150.75,178.05Z" transform="translate(-7.57 -7.56)"></path><path class="cls-8" d="M278.78,139.65s5.12-12.63,18-9.21S306.89,146.55,302,158s-3.79,19.64-1.72,24.13-4.29,9.75-7.83,9.23c0,0,2.62-.94,1.51-6.14S274.71,157.81,278.78,139.65Z" transform="translate(-7.57 -7.56)"></path><path class="cls-9" d="M240.91,201.4s8.31-3.17,11.67-3.17,10.65,1.59,10.65,1.59,3.52-1.54,13.55-3.28,14,3.54,14,3.54,24.87,3.08,28.92,9.45-13.62,45.93-31,63.34l11.65,41.74s-38.55,18-76.82,6.26l11.9-45.3s-7.81-28.6-9.18-41.36S243.13,208,243.13,208" transform="translate(-7.57 -7.56)"></path><g class="cls-13"><path class="cls-11" d="M313,235.27a170.63,170.63,0,0,1-13.35,23.83c-.83-15.17,6.45-31.9,6.45-31.9Z" transform="translate(-7.57 -7.56)"></path></g><path class="cls-4" d="M240.91,201.4s8.31-3.17,11.67-3.17,10.65,1.59,10.65,1.59,3.52-1.54,13.55-3.28,14,3.54,14,3.54,24.87,3.08,28.92,9.45-13.62,45.93-31,63.34l11.65,41.74s-38.55,18-76.82,6.26l11.9-45.3s-7.81-28.6-9.18-41.36S243.13,208,243.13,208" transform="translate(-7.57 -7.56)"></path><path class="cls-7" d="M286.8,199.54l-19.2,14.73s-4.22-7.34-2.59-12.09a6.1,6.1,0,0,0,.31-1.64c.19-2.71-1.05-5.82-2.11-7.95a27.44,27.44,0,0,0-1.42-2.54s26.11-20.84,22.42-15.56S286.8,199.54,286.8,199.54Z" transform="translate(-7.57 -7.56)"></path><path class="cls-14" d="M290.75,200.07c.8,11.08-12.57,32.44-12.57,32.44s-30.28-1.1-41.69-5c0,0,9.5-17.92,26.74-27.67l-3.25-.65s-30,20.12-33.79,28.32S233,276.09,233,276.09s-22.4,67.19-22.16,104.38c0,0,0,30.18,34.28,30.18,43.68,0,50.15-27.34,50.15-27.34s-5.31-73.79-10-95.15c0,0-4.11-35.87,2.3-47.47s8-31,6.45-40.16Z" transform="translate(-7.57 -7.56)"></path><g class="cls-15"><path class="cls-11" d="M277.19,283.45S243.47,311.27,223,310c5.17-19.35,10-33.94,10-33.94s-1.5-5.75-3.17-13.35c5.79,6.58,13.16,14.38,15.64,14.46,4.29.14,11-5.4,14.44-1.79S277.19,283.45,277.19,283.45Z" transform="translate(-7.57 -7.56)"></path></g><path class="cls-4" d="M290.75,200.07c.8,11.08-12.57,32.44-12.57,32.44s-30.28-1.1-41.69-5c0,0,9.5-17.92,26.74-27.67l-3.25-.65s-30,20.12-33.79,28.32S233,276.09,233,276.09s-22.4,67.19-22.16,104.38c0,0,0,30.18,34.28,30.18,43.68,0,50.15-27.34,50.15-27.34s-5.31-73.79-10-95.15c0,0-4.11-35.87,2.3-47.47s8-31,6.45-40.16Z" transform="translate(-7.57 -7.56)"></path><path class="cls-4" d="M177.15,194s7.21,1.11,11.22-2.45" transform="translate(-7.57 -7.56)"></path><path class="cls-4" d="M167.49,184.4l6.69-3s7.27,2,8.58,3" transform="translate(-7.57 -7.56)"></path><path class="cls-4" d="M157.6,184.4s5.39-4.44,9.92-3.65" transform="translate(-7.57 -7.56)"></path><path class="cls-16" d="M129.35,154.91s-8.63-2.88-10.7-4.32-3-4.44-4.87-3.87a2.8,2.8,0,0,0-1.13,4.72s-2,.53-.88,2.59,2.76-.43,5.57.82,9.75,5.31,9.75,5.31Z" transform="translate(-7.57 -7.56)"></path><path class="cls-16" d="M168.37,142.57s-8.63-2.87-10.69-4.31-3-4.44-4.88-3.87a2.82,2.82,0,0,0-1.87,3.51,2.78,2.78,0,0,0,.75,1.21s-2,.53-.88,2.59,2.75-.43,5.57.82,9.75,5.31,9.75,5.31Z" transform="translate(-7.57 -7.56)"></path><path class="cls-2" d="M151.35,144.94s22.51-12.47,34.52-9.1,17,12,17,12a43.66,43.66,0,0,1,10,7.73c5,5.16,2.49,15.74,0,15.45l-2.5-.28H147.85s-18.33-5.72-23.17-9.11,5-11.47,4.56-10.18,8.61,2.72,11.11,0S144.85,142.66,151.35,144.94Z" transform="translate(-7.57 -7.56)"></path><path class="cls-4" d="M151.35,144.94s9.32,1.09,13.07,6.5,3.75,12.41,1.69,13.32" transform="translate(-7.57 -7.56)"></path><path class="cls-4" d="M202.87,147.83s6.76,8.64,4.88,13.71-3,3.22-3,3.22" transform="translate(-7.57 -7.56)"></path><path class="cls-17" d="M233.6,168.4v2.78l-22.89,2.93-5.23,5.29s-36.37,3.56-69.76,2.12L129.24,177l-20.77-2.92V171s41.51-5.37,76.77-5.27S233.6,168.4,233.6,168.4Z" transform="translate(-7.57 -7.56)"></path><g class="cls-18"><path class="cls-11" d="M205.48,177.62l5.27-3.53-5.27,5.31s-36.37,3.56-69.76,2.12a220,220,0,0,1,37-5.51C193.6,174.72,205.48,177.62,205.48,177.62Z" transform="translate(-7.57 -7.56)"></path><path class="cls-11" d="M233.6,171.16l-22.89,2.93S169.56,169,129.2,177l-20.77-2.92S178.47,163.64,233.6,171.16Z" transform="translate(-7.57 -7.56)"></path></g><path class="cls-4" d="M233.6,168.4v2.78l-22.89,2.93-5.23,5.29s-36.37,3.56-69.76,2.12L129.24,177l-20.77-2.92V171s41.51-5.37,76.77-5.27S233.6,168.4,233.6,168.4Z" transform="translate(-7.57 -7.56)"></path><path class="cls-7" d="M353.79,269.7s-20.93,26.63-39.35,46.7l-4.7,13.71,2.17,2.9a4.41,4.41,0,0,1,3.88,0c1.86,1.06-3.88,3.85-3.88,3.85s-9.23-3.62-10.53-6-8.84-10.31-7-13.22,12.29-8.93,12.29-8.93,10.9-14.77,13.58-21.89S331.93,261,331.93,261Z" transform="translate(-7.57 -7.56)"></path><path class="cls-9" d="M319.67,209.52c8.4,4.92,36,45.92,37.62,51.76s-6.83,18.26-6.83,18.26l-7.49,7.3s-18.23-12.39-19-13.45,2.46-6.33,2.46-6.33L324,263.92l.91-3.41-17.72-15.37s-3.27-22.41,3.64-30" transform="translate(-7.57 -7.56)"></path><g class="cls-19"><path class="cls-11" d="M331.94,261c-2.75,1.12-5.54,6-5.54,6L324,263.88l.91-3.41L307.16,245.1a86.66,86.66,0,0,1-.58-16.81,101.71,101.71,0,0,0,5.3,11.7s16.21,7.74,20.06,10.91-4.11,5-4,5.78S334.69,259.91,331.94,261Z" transform="translate(-7.57 -7.56)"></path></g><path class="cls-4" d="M319.67,209.52c8.4,4.92,36,45.92,37.62,51.76s-6.83,18.26-6.83,18.26l-7.49,7.3s-18.23-12.39-19-13.45,2.46-6.33,2.46-6.33L324,263.92l.91-3.41-17.72-15.37s-3.27-22.41,3.64-30" transform="translate(-7.57 -7.56)"></path><path class="cls-6" d="M253.19,252.58l.91,6.36,1.52.12-.4,5.12,1-1.49-1.08,4.2,3.13-3.2-.15,2,3.53-2.55-.12,1.56,4.67-1.21-1.74,3.77,1.4.49-3.53,2.54,1.07,1.09-4.69,3,5.12.4-1.31.94,2.38.19-.1,1.25,2.16.17a17.13,17.13,0,0,1-12,2.09l1.79,1.3-.67,1,1.66,1.72s-.86,1.83-8-3.8c0,0-5.48,2.61-8.94,2.48l1.91-1.44-1.31-.1,3.43-2.45s-7.58-.83-10.43-4.17l1.82-.34-.29-.86,2.55-.4-.22-.3,4.8,1.11-6-4.91,1.62.13-1.89-3.35,1.31.1-.91-5.27,3.59,3.15.24-1.56,3.35,3.1.8-1.93,1.16,3.16.32-4.05.8,1.8-.08-5.16,1.67.13.54-5.34,1.43,1.64,1.12-5.16.23,4Z" transform="translate(-7.57 -7.56)"></path><path class="cls-5" d="M249.75,279.67a24.62,24.62,0,0,1-.59,7.56" transform="translate(-7.57 -7.56)"></path><path class="cls-4" d="M244.36,238.29S241,235,239.8,235.2s-1.41,10.82,0,13,3.9,0,3.9,0" transform="translate(-7.57 -7.56)"></path><path class="cls-4" d="M243.25,242.93s.37,7.37,1.11,8.92" transform="translate(-7.57 -7.56)"></path><polyline class="cls-4" points="234.02 235.37 237.9 235.37 237.9 237.23"></polyline><path class="cls-4" d="M248.1,236.49a86,86,0,0,0,0,11.12" transform="translate(-7.57 -7.56)"></path><path class="cls-4" d="M252.06,237.4a55.56,55.56,0,0,0,2.14,11.29s3-7.23,4.85-9.51" transform="translate(-7.57 -7.56)"></path><path class="cls-4" d="M267,251.85,261,249.68c1.38-2.47,2.66-11.17,2.66-11.17H269" transform="translate(-7.57 -7.56)"></path><line class="cls-4" x1="255.2" y1="236.16" x2="259.59" y2="237.08"></line><line class="cls-4" x1="227.71" y1="280.25" x2="225.11" y2="288.95"></line><path class="cls-4" d="M233.68,285.2a51.73,51.73,0,0,0,5.93,3.78" transform="translate(-7.57 -7.56)"></path><line class="cls-4" x1="232.36" y1="281.42" x2="230.26" y2="291.37"></line><line class="cls-4" x1="231.31" y1="286.4" x2="234.68" y2="286.68"></line><path class="cls-4" d="M243.36,289c0,.86-1.11,9.95-1.11,9.95" transform="translate(-7.57 -7.56)"></path><polyline class="cls-4" points="236.9 292.96 240.59 283.07 242.12 291.77"></polyline><line class="cls-4" x1="239.35" y1="287.86" x2="241.25" y2="287.86"></line><polyline class="cls-4" points="243.49 293.62 244.49 282.54 246.98 291.37 247.79 282.54"></polyline><line class="cls-4" x1="250.03" y1="281.42" x2="250.48" y2="292.96"></line><polyline class="cls-4" points="254.2 281.42 250.48 287.86 253.07 290.85"></polyline><path class="cls-4" d="M265.51,287.81s-.84-.94-1.48-1-1.86,7.45-1.7,7.4,4.14,0,3.83,1.18-1.24,5.36-2.2,5.1-1.63-2.11-1.63-2.11" transform="translate(-7.57 -7.56)"></path><path class="cls-4" d="M269,216.17l5.23,10s12.18-15.77,13.41-21.77" transform="translate(-7.57 -7.56)"></path><path class="cls-4" d="M265,214.67s-13.18,7-12.9,6.27,1.73-10.73,6.45-15.93" transform="translate(-7.57 -7.56)"></path><path class="cls-8" d="M276.27,185.23s-3.7,13.56-11,15.31c.19-2.71-1-5.82-2.11-7.95Z" transform="translate(-7.57 -7.56)"></path><path class="cls-7" d="M285.3,177a31.69,31.69,0,0,0,3.5-14.15c0-21.43-23-30.46-37.45-16.45-14.77,14.35.52,44.73,6.85,49.63,3.58,2.77,20.58-5.89,20.58-12.41" transform="translate(-7.57 -7.56)"></path><path class="cls-4" d="M245.24,165.83s2.74-1.14,4.33,0" transform="translate(-7.57 -7.56)"></path><path class="cls-4" d="M257.48,165.32s4.85-3.29,9-.92" transform="translate(-7.57 -7.56)"></path><path class="cls-8" d="M263,170.21c.12.88-.22,1.65-.76,1.72s-1.08-.57-1.2-1.44.22-1.65.76-1.72S262.89,169.34,263,170.21Z" transform="translate(-7.57 -7.56)"></path><path class="cls-8" d="M250.6,171.27c.12.87-.22,1.64-.76,1.72s-1.08-.57-1.2-1.45.22-1.64.76-1.72S250.43,170.4,250.6,171.27Z" transform="translate(-7.57 -7.56)"></path><path class="cls-7" d="M251.6,170.4c.72,2.16,1.18,5.26-1.52,7.7s1.19,4,3.36,3.62" transform="translate(-7.57 -7.56)"></path><path class="cls-7" d="M254.6,185.4s6.79.19,10.81-3.23c0,0-.66,4.55-4.81,5.86s-4.22-2-4.22-2" transform="translate(-7.57 -7.56)"></path><path class="cls-8" d="M260,150s1.65,12.33,15.1,18.3l1.59,3.69s1.84-8.18,5.27-6.12,1.21,14.9,1.21,14.9,6.44-1.67,9.87-14.9S290.6,141,276.5,136.51s-37,3.69-39.66,20.31S247.25,176,247.25,176s-6.45-16.59,8.58-26.34c0,0,2.37,18.39,16.88,20.4C272.71,170.1,259.13,165.52,260,150Z" transform="translate(-7.57 -7.56)"></path><path class="cls-7" d="M278.78,168.26s2.72-7.49,5.71-6.43,4.31,6.26,1.41,10.12-3.7,8.08-5.28,6" transform="translate(-7.57 -7.56)"></path><g class="cls-20"><path class="cls-21" d="M261,141.07s4,17.73,17.75,19.56" transform="translate(-7.57 -7.56)"></path><path class="cls-21" d="M266.48,139.66S276,150.79,285,154.85s6.21,9.91,6.21,9.91" transform="translate(-7.57 -7.56)"></path><path class="cls-21" d="M255.6,143.06s-19.55,9.7-16.72,21.37" transform="translate(-7.57 -7.56)"></path><path class="cls-21" d="M288.8,138.73s7.08-9.44,12.2-3.44,0,17.6-3,26.44.2,19.61.2,19.61" transform="translate(-7.57 -7.56)"></path><path class="cls-21" d="M293.26,142.08s5-.17,4.77,5.75" transform="translate(-7.57 -7.56)"></path><path class="cls-21" d="M284.38,137.33s2.51-5.34,4.42-5.53" transform="translate(-7.57 -7.56)"></path></g></g><g id="freepik--character-1--inject-153"><polygon class="cls-16" points="102.35 408.3 110.27 408.3 99.47 347 91.55 347 102.35 408.3"></polygon><polygon class="cls-17" points="31.97 408.3 24.05 408.3 20.19 386.4 13.25 347 21.17 347 27.42 382.47 31.97 408.3"></polygon><g class="cls-22"><polygon class="cls-11" points="27.42 382.47 20.19 386.4 13.25 347 21.17 347 27.42 382.47"></polygon></g><polygon class="cls-4" points="31.97 408.3 24.05 408.3 20.19 386.4 13.25 347 21.17 347 27.42 382.47 31.97 408.3"></polygon><polygon class="cls-17" points="104.01 352.38 9.74 352.38 0.5 299.92 94.77 299.92 104.01 352.38"></polygon><g class="cls-23"><path class="cls-11" d="M111.6,359.94H31.86c-1.32-2.22-2-4.09-1.38-5,2.26-3,7.77-22.82,9.06-30.39.8-4.71,5.72-12.16,9.31-17.12h53.49Z" transform="translate(-7.57 -7.56)"></path></g><polygon class="cls-4" points="104.01 352.38 9.74 352.38 0.5 299.92 94.77 299.92 104.01 352.38"></polygon><line class="cls-4" x1="5.53" y1="303.35" x2="13.49" y2="348.56"></line><path class="cls-7" d="M118.25,358.09c0,3.25,4.62,22.24,10.75,25.41s14-3,19.28-9.14c0,0-9.72-3.2-9.72-3.63s-5.3-18.35-5.3-18.35" transform="translate(-7.57 -7.56)"></path><path class="cls-2" d="M132.69,366.25c-3.11,2.78-6.59,5.13-8.55,4.33-2.84-1.17-4.24-10.93-4.84-17.06-.28-2.9-.39-5-.39-5l5.23-28.31c10.46,7.75,12.31,12.1,12.83,17.25s1.72,20.8,2.11,21.48C139.29,359.32,136.24,363.07,132.69,366.25Z" transform="translate(-7.57 -7.56)"></path><g class="cls-24"><path class="cls-11" d="M132.69,366.25c-3.11,2.78-6.59,5.13-8.55,4.33-2.84-1.17-4.24-10.93-4.84-17.06,3.3-6.12,8.1-10.19,11.3-5.82,0,0,1.58,7.58.66,9.48s-3.33,5.63-2.85,6.27,3.91-3.64,4.89-2.56C133.6,361.29,133.53,363.63,132.69,366.25Z" transform="translate(-7.57 -7.56)"></path></g><path class="cls-4" d="M132.69,366.25c-3.11,2.78-6.59,5.13-8.55,4.33-2.84-1.17-4.24-10.93-4.84-17.06-.28-2.9-.39-5-.39-5l5.23-28.31c10.46,7.75,12.31,12.1,12.83,17.25s1.72,20.8,2.11,21.48C139.29,359.32,136.24,363.07,132.69,366.25Z" transform="translate(-7.57 -7.56)"></path><path class="cls-7" d="M139.87,381.9a48.36,48.36,0,0,0,13.64-14.63l-5.2-14.87s-4.61,8.24-8,9-12.53,5.62-11.87,12.37" transform="translate(-7.57 -7.56)"></path><path class="cls-2" d="M128.17,351.47c-.63,2.76-1.29,5.95-1.95,9.42-3.57,18.66-7.31,45.28-7.31,55H49.51s-.5-23.77,0-47.85c.37-17.14,1.25-34.43,3.2-43.41,0,0,15.36-18.82,44.93-15.31,14.78,1.76,23.52,7.6,28.57,13" transform="translate(-7.57 -7.56)"></path><g class="cls-25"><path class="cls-11" d="M126.22,360.89c-3.57,18.66-7.31,45.28-7.31,55H49.51s-.5-23.77,0-47.85c6.2.2,13.16-5.17,17.92-6.7,21.27-6.86,13.39,1.15,15.5,2.14s25.71-9.37,28.13-6.27c2.15,2.76-2.13,7.23.49,8.25S126.22,360.89,126.22,360.89Z" transform="translate(-7.57 -7.56)"></path></g><path class="cls-4" d="M128.17,351.47c-.63,2.76-1.29,5.95-1.95,9.42-3.57,18.66-7.31,45.28-7.31,55H49.51s-.5-23.77,0-47.85c.37-17.14,1.25-34.43,3.2-43.41,0,0,15.36-18.82,44.93-15.31,14.78,1.76,23.52,7.6,28.57,13" transform="translate(-7.57 -7.56)"></path><path class="cls-2" d="M66.16,327.85a33.88,33.88,0,0,1,.45,5.86,32.24,32.24,0,0,1-5,17.09c-1.47,4.36-4.09,12-9.51,18.76-.12.17-.26.33-.39.49-5.67,6.86-5.81-5.73-12.27-9.26s-6-6.17-6-6.17c5.4-7.9,5.22-11.72,8.3-16.62,7.53-11.94,6.33-15.42,25.48-23.94" transform="translate(-7.57 -7.56)"></path><g class="cls-26"><path class="cls-11" d="M66.6,333.71a32.23,32.23,0,0,1-5,17.09c-1.47,4.36-4.09,12-9.51,18.76a6.91,6.91,0,0,1-2.74-3c-3.33-7.1,4.51-11.09,5.3-13.07s-.13-15,1.68-15.43,4.65,8.44,5.44,7.38S64,332,66.6,333.71Z" transform="translate(-7.57 -7.56)"></path></g><path class="cls-4" d="M66.16,327.85a33.88,33.88,0,0,1,.45,5.86,32.24,32.24,0,0,1-5,17.09c-1.47,4.36-4.09,12-9.51,18.76-.12.17-.26.33-.39.49-5.67,6.86-5.81-5.73-12.27-9.26s-6-6.17-6-6.17c5.4-7.9,5.22-11.72,8.3-16.62,7.53-11.94,6.33-15.42,25.48-23.94" transform="translate(-7.57 -7.56)"></path><path class="cls-7" d="M111.83,304.15c-1,.6-1.91,2.39-2.61,4.26a43.47,43.47,0,0,0-1.61,5.36l3,2.62S108,324.6,96.67,324.6s-13.73-11.07-13.73-11.07c5.29-3.37,5.78-12.53,5.53-15.88,0,0,13.24-12.27,16.36-12.08,2.45.14,6.82,10.57,7.44,15.78C112.47,302.79,112.35,303.84,111.83,304.15Z" transform="translate(-7.57 -7.56)"></path><path class="cls-8" d="M68.32,346.05s.45-3.94.53-14.37S66.67,317,66.67,317L64,339.78h0l-2.93,25.3,3.06.35,2.17-18.74Z" transform="translate(-7.57 -7.56)"></path><path class="cls-8" d="M154.73,333.12h0c-.28-1.38-.61-2.76-1-4.13s-.77-2.73-1.27-4.08a40.71,40.71,0,0,0,.07,4.28c.08,1.41.2,2.82.37,4.22v-.08a1.39,1.39,0,0,1-.6,1.08,1.09,1.09,0,0,1-.58.2h-.12l-1.54-9.54-.32,9.66h-.14a1.24,1.24,0,0,1-.6-.12,1.35,1.35,0,0,1-.73-1v.09c0-1.41-.07-2.82-.17-4.24s-.23-2.83-.46-4.25a42.63,42.63,0,0,0-.75,4.21c-.19,1.41-.35,2.81-.45,4.22h0v.08a3,3,0,0,0,2.83,3l1.53,24.08,3.08-.2-1.53-24.07a3.28,3.28,0,0,0,1.15-.5,3.09,3.09,0,0,0,1.28-2.82Z" transform="translate(-7.57 -7.56)"></path><path class="cls-7" d="M147.93,348.54s8.42-2.18,10.24-1.77a3.72,3.72,0,0,1,2.64,3.94c-.27,1.36-1,2.44,0,3.39s-.09,2.71,0,3.66a17.25,17.25,0,0,0,.45,2.85c.33,1.35-.89,1.46-1,2.9s.81,1.36.14,2.52c-1.31,2.23-10.6,2.52-12.48,1.43-4.09-2.35-2.31-8.5-2.31-8.5s-3.17,1.38-3.43-2.53-2.39-5.86-.36-8S147.93,348.54,147.93,348.54Z" transform="translate(-7.57 -7.56)"></path><path class="cls-4" d="M147.93,348.54s-2.2.81-1.85,2.79a7.44,7.44,0,0,0,.91,2.75s-.6.81-.25,2.94,0,3.11.25,3.87.06,2.64.26,3.76,2.67,4,6.26,3.53" transform="translate(-7.57 -7.56)"></path><path class="cls-4" d="M147,354.08s5,1.22,8.55,0" transform="translate(-7.57 -7.56)"></path><path class="cls-4" d="M147.35,359.26a31.31,31.31,0,0,0,8.54,0" transform="translate(-7.57 -7.56)"></path><path class="cls-4" d="M147.35,363.28a21.22,21.22,0,0,0,8.19.86" transform="translate(-7.57 -7.56)"></path><path class="cls-7" d="M145.6,359a5.33,5.33,0,0,0,1-3.56" transform="translate(-7.57 -7.56)"></path><path class="cls-7" d="M49.51,360.79a26.86,26.86,0,0,0-13.91-4.48S26.25,371.89,32.9,378,49.51,360.79,49.51,360.79Z" transform="translate(-7.57 -7.56)"></path><path class="cls-7" d="M31.35,373.48c.39,10.92,17.49,9.92,29.25-4.39L58.2,352.4c0,4.79-17.23,8.41-17.23,8.41-5,1.61-8,3.89-7.5,6.72" transform="translate(-7.57 -7.56)"></path><path class="cls-7" d="M66.16,349.45s-8.41-2.18-10.24-1.77a3.72,3.72,0,0,0-2.64,3.94c.28,1.36,1,2.44,0,3.39s.1,2.71,0,3.66a16.09,16.09,0,0,1-.44,2.85c-.33,1.35.89,1.46,1,2.9s-.82,1.37-.14,2.52c1.31,2.23,10.59,2.52,12.47,1.43,4.09-2.35,2.31-8.5,2.31-8.5s3.18,1.38,3.44-2.53,2.39-5.86.35-8S66.16,349.45,66.16,349.45Z" transform="translate(-7.57 -7.56)"></path><path class="cls-4" d="M66.16,349.45s2.21.81,1.86,2.79a7.44,7.44,0,0,1-.91,2.75s.6.81.25,3,0,3.1-.25,3.86-.06,2.64-.26,3.76-2.67,4-6.26,3.53" transform="translate(-7.57 -7.56)"></path><path class="cls-4" d="M67.11,355s-5,1.22-8.55,0" transform="translate(-7.57 -7.56)"></path><path class="cls-4" d="M66.75,360.17a31.39,31.39,0,0,1-8.55,0" transform="translate(-7.57 -7.56)"></path><path class="cls-4" d="M66.75,364.19a20.84,20.84,0,0,1-8.19.86" transform="translate(-7.57 -7.56)"></path><path class="cls-7" d="M68.47,359.87a5.27,5.27,0,0,1-1-3.56" transform="translate(-7.57 -7.56)"></path><path class="cls-8" d="M111.83,304.15c-1,.6-1.91,2.39-2.61,4.26-3.78-3.84-4.25-9.48-4.25-9.48l7.32,2.42C112.47,302.79,112.35,303.84,111.83,304.15Z" transform="translate(-7.57 -7.56)"></path><path class="cls-7" d="M104,301.6c6.09,7.47,17.73,6.15,19.1,4.43,1.2-1.51.9-5.2.9-5.2,2.43-.69,1.19-2.32,1.19-2.32-9.14.73-8.64-7.92-8.64-7.92,8.31.69,9.74-2,9.74-2l-1.11-4.29s3.68-3.15,2.38-4.57c-.75-.82-3.84-2.21-4.73-2.87-4.8-3.56-1.25-10.84-7.76-16.1-6.13-5-19.4-8.83-27.69-1.7-7.67,6.6-10.07,27.77-4.42,34S91.62,299,91.62,299" transform="translate(-7.57 -7.56)"></path><path class="cls-8" d="M117.4,275.1c.25,1.17,0,2.23-.63,2.36s-1.29-.72-1.53-1.9,0-2.22.63-2.35S117.15,273.93,117.4,275.1Z" transform="translate(-7.57 -7.56)"></path><path class="cls-4" d="M117.47,267.63a5.38,5.38,0,0,0-4.61,3.23" transform="translate(-7.57 -7.56)"></path><path class="cls-8" d="M107.6,247.87c-18.82-1.11-28.26,11.63-28.26,11.63l.55-3.36c-11.63,7.71-5,18.31-5,18.31-7.76,4.69-3.6,13.85-3.6,13.85l2.77-2.21c4.15,16.61,15.14,15,15.14,15l8.44-8.33c-2.77-.28-9.74-2.2-7.8-11,1.47-6.63,5.89-2.55,8.06-.5l1.87-.68c-2.59-8.67,5.86-14.42,5.86-14.42L104,269.25l13.5-5.85-1.15,2.5C126.7,262.55,126.43,249,107.6,247.87Z" transform="translate(-7.57 -7.56)"></path><path class="cls-7" d="M99,282.73s-4.09-6.61-7.22-5.41S88.85,288,90.06,289.83s5.71,2.53,7.61,4.33,3.46.12,3.09-1.08" transform="translate(-7.57 -7.56)"></path><path class="cls-27" d="M108.67,250.31s12.57,1.16,10.24,10.65" transform="translate(-7.57 -7.56)"></path><path class="cls-27" d="M105.6,249.75S116,255.4,108,264.4" transform="translate(-7.57 -7.56)"></path><path class="cls-27" d="M101.94,249.75s7.53,12.65-11.34,20.18" transform="translate(-7.57 -7.56)"></path><path class="cls-4" d="M116.32,351.86s-17.06,22-46.11,30" transform="translate(-7.57 -7.56)"></path><path class="cls-4" d="M81.24,318s6.21,9.65,16.42,9.65,13.92-6,13.92-6" transform="translate(-7.57 -7.56)"></path><path class="cls-4" d="M133.26,328.46s.2,9.77-2.7,13.46" transform="translate(-7.57 -7.56)"></path><path class="cls-4" d="M52.74,322.13s6.77,6.41,7.09,11.39" transform="translate(-7.57 -7.56)"></path></g><g id="freepik--Table--inject-153"><path class="cls-5" d="M228.08,336.84s3.17-9.18-10-17.5C218.12,319.34,215.22,337,228.08,336.84Z" transform="translate(-7.57 -7.56)"></path><path class="cls-8" d="M262.11,351.86c.39-1.3,12.45-16.33,14.31-13.59s-5.16,6.2-3.63,6.63,9.54-3.24,10.31-.86-10.5,4.5-10.5,4.5,7.11-.35,5.92,2.42S262.11,351.86,262.11,351.86Z" transform="translate(-7.57 -7.56)"></path><path class="cls-28" d="M212.47,354.08s-6.12-11.18,0-17.24S225.6,336,225.6,336s12.93-6.67,17.38-2.09,6.67,24.42-7.4,27.86S212.48,363.72,212.47,354.08Z" transform="translate(-7.57 -7.56)"></path><path class="cls-5" d="M201.18,347.31c0-1.69-3.76-16.13-6.13-18.11s-1,6.53-1.19,5.74-7.51-10.09-9.49-8.9,2,8.1,2,8.1-6.93-4.53-7.32-1.87,5.14,6,5.14,6-9.58-1.16-8.15,2.4,7,3.76,7,3.76-6.23,1.3-5.59,4.11S196,355.4,196,355.4Z" transform="translate(-7.57 -7.56)"></path><path class="cls-8" d="M178.83,360.79c-3.16-4.49-.59-7,2.77-6.71a6.84,6.84,0,0,1,6-7.37c6.62-1.09,6.62,1.83,6.62,1.83s3.86-9.1,9.55-8.58,7.46,3.48,5.68,7.74c0,0,7.09-1.09,7.7,2.07a10,10,0,0,1,0,4.85s3.22-3.05,4.49,2.78-4.49,6.38-4.49,6.38Z" transform="translate(-7.57 -7.56)"></path><path class="cls-16" d="M231.25,360.79c.79-.48,17.14-10.6,23.71-14.07s14.46,5.8,11.5,10.46S231.25,360.79,231.25,360.79Z" transform="translate(-7.57 -7.56)"></path><polygon class="cls-16" points="161.24 352.75 277.05 352.75 277.05 356.21 262.48 358.22 259.76 360.94 180.07 360.94 176.16 357.72 161.24 356.21 161.24 352.75"></polygon><path class="cls-7" d="M438.87,417.86V378a9.49,9.49,0,0,0-9.49-9.49H17.6A9.49,9.49,0,0,0,8.11,378v39.86" transform="translate(-7.57 -7.56)"></path></g><g id="freepik--character-3--inject-153"><path class="cls-7" d="M301,256.72s.58,14.26,2.06,15.43,6,18.06,6,18.06L296.8,294l-6.2-16.88Z" transform="translate(-7.57 -7.56)"></path><path class="cls-7" d="M264.69,293.64s9.18-13.49,8.39-15.85-1.22-18.88-1.22-18.88,4.83-10.15,6.32-9.73c0,0,4.46-4.51,6.51-5.17s8.57,0,8.57,0-4.57,5.59-4.46,7.3S291,264.92,291,264.92a34.43,34.43,0,0,0,1.14,10c1.37,4.22-17,33.45-17,33.45Z" transform="translate(-7.57 -7.56)"></path><path class="cls-7" d="M286.6,248s5-5.93,7.69-5.41,3,3.7,3.52,4.09,2.58,1.77,3.27,5.83.16,5.64.82,7.49-.27,5-.66,5.67-11.49,4.59-12.28,2.87a9.2,9.2,0,0,1-.29-4.45s-5.23-1.45-1-6.6c0,0-2.76-2.24-.26-5.67A4.6,4.6,0,0,1,286.6,248Z" transform="translate(-7.57 -7.56)"></path><path class="cls-4" d="M288.7,264.12s8.35-4.62,11.25-4" transform="translate(-7.57 -7.56)"></path><path class="cls-4" d="M287.68,257.52s7.65-3.56,9.1-3.82" transform="translate(-7.57 -7.56)"></path><path class="cls-4" d="M287.42,251.85c.79-.66,6.23-4.61,7.52-4.22" transform="translate(-7.57 -7.56)"></path><path class="cls-7" d="M290,270.3s3.75-2.64,5-4.48,2.14-10.92,4.52-12.12,2.81-.48,3.43,0-.25,5.76-.75,8.41,1.64,5.42-2.19,10.7S286.6,284,286.6,284" transform="translate(-7.57 -7.56)"></path><path class="cls-7" d="M316.77,215.79c-.21,2.91-2,5.14-4.12,5s-3.57-2.62-3.36-5.53,2-5.14,4.11-5S317,212.88,316.77,215.79Z" transform="translate(-7.57 -7.56)"></path><path class="cls-7" d="M314,198c1-2.11,7-4.57,8.38-6.22,12-14.86,37.27-11.74,42.9,6,6.25,19.77-18.59,51.91-24.34,53.61-8.08,2.38-28.57,3.84-28.78-5.1-.34-14.73-2.85-20.79.78-27.4C316.06,213.31,310.5,205.73,314,198Z" transform="translate(-7.57 -7.56)"></path><path class="cls-7" d="M321.51,248.64c1.7,1.46,6.25,15.72,3.32,26.7l34.63,2.45s-6.89-27.8-5.17-31.33S339.76,236.88,335,242" transform="translate(-7.57 -7.56)"></path><path class="cls-8" d="M356.1,179.28A38.9,38.9,0,0,0,325,174.2s5.29,0,7.09,1.35c0,0-8.81-.84-16.74,9.79s-4,23.16-4,23.16l1.13-3.93s2,10.4,8.52,13.76,5,19.5,6.52,24.26,20.22,7.81,26.51,5.81c5-1.61,16.29-13.42,18.9-26.39l.71,4.84s5.3-21.16-1.27-29.65l4.18,2.83s-4.33-9.76-10.28-12.11c0,0-.37-6.77-15.94-13.49A16.92,16.92,0,0,1,356.1,179.28Z" transform="translate(-7.57 -7.56)"></path><path class="cls-4" d="M323.43,239.76s.68,3.5-7.27,8.5" transform="translate(-7.57 -7.56)"></path><line class="cls-4" x1="301.72" y1="207.7" x2="314.49" y2="208.61"></line><path class="cls-7" d="M320.91,220s2.17-9.78,4.26-9.42c1.16.2,1.83,2.4,2.05,5.4a8.63,8.63,0,0,1,1.38,6.47c-1,6.48-2.57,7.41-2.57,7.41-.8,3.55-1.84,5.94-2.95,5.29-1.65-1-2.15-2.9-.89-5.76" transform="translate(-7.57 -7.56)"></path><path class="cls-4" d="M323.92,214.67c.41.13.81,9.45-.34,13.81" transform="translate(-7.57 -7.56)"></path><path class="cls-4" d="M327.22,215.93s-.05,5.31-.44,6.23" transform="translate(-7.57 -7.56)"></path><path class="cls-6" d="M397.7,416.86s-2.41-68.61,1.51-92.75A64.8,64.8,0,0,0,388.75,277c-3.92-5.62-25.71-11.15-25.71-11.15s-3.49-4.6-17-4.2S314.2,270,314.2,270c-7.4,1.81-12.9,4.52-17,7.77-5.27,1.07-11.56,6.38-18,13.55-2.94-3-8.76-6.1-10.81-6-1.52.1-3.09,2.55-4.09,4.45-7.52-2-7.06,6-7.06,6s-37,55.61-11.87,70.92V367l1,.36c4.32,2.29,8.06,2.31,11.31.74,10.23-2.45,19.1-13.72,34.1-29.79,1.33,17.05,2.5,78.59,2.5,78.59" transform="translate(-7.57 -7.56)"></path><g class="cls-29"><path class="cls-11" d="M399.21,324.11c-3.92,24.14-1.51,92.75-1.51,92.75H309.6c.51-8.15,1.5-16.34,3.44-19.29,4.31-6.61-2-12,0-20.47s11.5-23.17,8.48-25.24-2.51-45.41,8.74-53.45c8.33-6,46.09-8.26,65.13-9.06A64.71,64.71,0,0,1,399.21,324.11Z" transform="translate(-7.57 -7.56)"></path><path class="cls-11" d="M292.07,341.93c-.09-1.37-.17-2.6-.25-3.66-15,16.07-23.87,27.34-34.1,29.79a10.49,10.49,0,0,1-5,1.08c11.38-2.95,20.58-16.78,22.64-20.51,2.7-4.9,10.49-24.37,13.29-25.16s1.94,10.28,4.56,4.62,5.09-20.44,6.69-8.75C301.05,327.4,295.79,336.46,292.07,341.93Z" transform="translate(-7.57 -7.56)"></path><path class="cls-11" d="M277.21,293.69a33.32,33.32,0,0,0-8.17-2c-5.23-.69,2,4.54,1.64,5.88s-7.08.75-6,2.92-3.94,17-9.33,22.75-8.52,8.2-8.74,10.33c0,0,5.14-1.9,6.44-3.31s8.85-8.54,12-16.48S277.21,293.69,277.21,293.69Z" transform="translate(-7.57 -7.56)"></path></g><path class="cls-4" d="M397.7,416.86s-2.41-68.61,1.51-92.75A64.8,64.8,0,0,0,388.75,277c-3.92-5.62-25.71-11.15-25.71-11.15s-3.49-4.6-17-4.2S314.2,270,314.2,270c-7.4,1.81-12.9,4.52-17,7.77-5.27,1.07-11.56,6.38-18,13.55-2.94-3-8.76-6.1-10.81-6-1.52.1-3.09,2.55-4.09,4.45-7.52-2-7.06,6-7.06,6s-37,55.61-11.87,70.92V367l1,.36c4.32,2.29,8.06,2.31,11.31.74,10.23-2.45,19.1-13.72,34.1-29.79,1.33,17.05,2.5,78.59,2.5,78.59" transform="translate(-7.57 -7.56)"></path><path class="cls-4" d="M294.94,289c9.19,23-3.12,49.29-3.12,49.29,2.1-.32,8.59-4.39,11.28-11.72" transform="translate(-7.57 -7.56)"></path><path class="cls-4" d="M335.88,264.92s18.21-3.46,27.16.89" transform="translate(-7.57 -7.56)"></path><path class="cls-4" d="M386.75,327.66s-44.52,17-59.53,39.3" transform="translate(-7.57 -7.56)"></path><path class="cls-4" d="M251.3,332.27s-5,.47-8.23,3.73" transform="translate(-7.57 -7.56)"></path><path class="cls-4" d="M257.31,295.82s5.22-1.65,8.65,1.78" transform="translate(-7.57 -7.56)"></path><path class="cls-4" d="M279.27,291.34c-10.12,14.44-18.23,30.43-23.77,36.32s-9.21,9.85-8.85,15.19" transform="translate(-7.57 -7.56)"></path><g class="cls-20"><path class="cls-21" d="M357.49,188.32s12.93,13.73,7.59,30.72" transform="translate(-7.57 -7.56)"></path><path class="cls-21" d="M353.82,189.55c.79,7-3.77,14.82-9.7,20" transform="translate(-7.57 -7.56)"></path><path class="cls-21" d="M353.79,186.4c.61-.4-7.27-12.33-21.85-7.91" transform="translate(-7.57 -7.56)"></path><path class="cls-21" d="M351,186.4s-12.47-9.5-24-2.57-9.78,16.35-9.78,16.35" transform="translate(-7.57 -7.56)"></path><path class="cls-21" d="M349.85,188.32s-21.79,1.63-21.18,14.49" transform="translate(-7.57 -7.56)"></path><path class="cls-21" d="M357.49,185.23s3.8-.46.67-4.5" transform="translate(-7.57 -7.56)"></path><path class="cls-21" d="M360.53,188.32s6.73,1,8.91,9.15" transform="translate(-7.57 -7.56)"></path></g><path class="cls-4" d="M264.37,289.83c.72.21,6.56,2,10.42,5.81" transform="translate(-7.57 -7.56)"></path><polyline class="cls-17" points="308.59 409.3 322.13 332.4 332.06 332.4 318.52 409.3"></polyline><g class="cls-30"><path class="cls-11" d="M332.87,340h6.73l-13.54,76.9h-6.2C323.71,394.68,330.38,354.84,332.87,340Z" transform="translate(-7.57 -7.56)"></path></g><polyline class="cls-4" points="308.59 409.3 322.13 332.4 332.06 332.4 318.52 409.3"></polyline><polyline class="cls-17" points="406.81 409.3 419.88 335.06 420.35 332.4 430.29 332.4 429.67 335.95 416.75 409.3"></polyline><g class="cls-31"><polygon class="cls-11" points="429.67 335.95 416.75 409.3 406.81 409.3 419.88 335.06 429.67 335.95"></polygon></g><polyline class="cls-4" points="406.81 409.3 419.88 335.06 420.35 332.4 430.29 332.4 429.67 335.95 416.75 409.3"></polyline><polygon class="cls-17" points="446.29 273.34 445.2 279.53 434.7 339.15 316.43 339.15 328.02 273.34 446.29 273.34"></polygon><g class="cls-32"><polygon class="cls-11" points="445.2 279.53 434.7 339.15 324.75 339.15 336.55 279.53 445.2 279.53"></polygon></g><polygon class="cls-4" points="446.29 273.34 445.2 279.53 434.7 339.15 316.43 339.15 328.02 273.34 446.29 273.34"></polygon><line class="cls-4" x1="334.89" y1="277.64" x2="324.9" y2="334.36"></line></g></svg>