<svg xmlns="http://www.w3.org/2000/svg" xmlns:xlink="http://www.w3.org/1999/xlink" id="Illustration" viewBox="0 0 2796.72 2815.61"><defs><style>.cls-1{opacity:0.3;fill:url(#linear-gradient);}.cls-2{fill:url(#linear-gradient-2);}.cls-25,.cls-3,.cls-38{fill:#fff;}.cls-3{opacity:0.5;}.cls-4{fill:url(#linear-gradient-3);}.cls-5{fill:url(#linear-gradient-4);}.cls-6{fill:url(#linear-gradient-5);}.cls-7{fill:url(#linear-gradient-6);}.cls-8{fill:url(#linear-gradient-7);}.cls-9{fill:url(#linear-gradient-8);}.cls-10{fill:url(#linear-gradient-9);}.cls-11{fill:url(#linear-gradient-10);}.cls-12{fill:url(#linear-gradient-11);}.cls-13{fill:url(#linear-gradient-12);}.cls-14{fill:url(#linear-gradient-13);}.cls-15{fill:url(#linear-gradient-14);}.cls-16{fill:url(#linear-gradient-15);}.cls-17{fill:url(#linear-gradient-16);}.cls-18{fill:url(#linear-gradient-17);}.cls-19{fill:url(#linear-gradient-18);}.cls-20{fill:url(#linear-gradient-19);}.cls-21{fill:url(#linear-gradient-20);}.cls-22{fill:url(#linear-gradient-21);}.cls-23{fill:url(#linear-gradient-22);}.cls-24{fill:url(#linear-gradient-23);}.cls-26{fill:url(#linear-gradient-24);}.cls-27{fill:url(#linear-gradient-25);}.cls-28{fill:url(#_9);}.cls-29{fill:url(#_9-2);}.cls-30{fill:url(#_9-3);}.cls-31{fill:url(#_9-4);}.cls-32{fill:url(#_9-5);}.cls-33{fill:url(#linear-gradient-26);}.cls-34{fill:url(#linear-gradient-27);}.cls-35{fill:url(#linear-gradient-28);}.cls-36{fill:url(#linear-gradient-29);}.cls-37{fill:url(#linear-gradient-30);}.cls-38{opacity:0.23;}.cls-39{fill:url(#linear-gradient-31);}.cls-40{fill:url(#linear-gradient-32);}.cls-41{fill:url(#linear-gradient-33);}.cls-42{fill:url(#linear-gradient-34);}.cls-43{fill:url(#linear-gradient-35);}.cls-44{fill:url(#linear-gradient-36);}.cls-45{fill:url(#linear-gradient-37);}.cls-46{fill:url(#linear-gradient-38);}.cls-47{fill:url(#linear-gradient-39);}.cls-48{fill:url(#linear-gradient-40);}.cls-49{fill:url(#linear-gradient-41);}.cls-50{fill:url(#linear-gradient-42);}.cls-51{fill:url(#linear-gradient-43);}.cls-52{fill:url(#linear-gradient-44);}.cls-53{fill:url(#linear-gradient-45);}.cls-54{fill:url(#linear-gradient-46);}.cls-55{fill:url(#linear-gradient-47);}.cls-56{fill:url(#linear-gradient-48);}</style><linearGradient id="linear-gradient" x1="3226.99" y1="3646.21" x2="744.23" y2="562.78" gradientUnits="userSpaceOnUse"><stop offset="0" stop-color="#b37cff"></stop><stop offset="1" stop-color="#f895e7"></stop></linearGradient><linearGradient id="linear-gradient-2" x1="2713.04" y1="1847.77" x2="3953.2" y2="584.78" gradientTransform="translate(-1572)" gradientUnits="userSpaceOnUse"><stop offset="0" stop-color="#a737d5"></stop><stop offset="1" stop-color="#ef497a"></stop></linearGradient><linearGradient id="linear-gradient-3" x1="3947.49" y1="452.6" x2="3678.19" y2="1374.95" gradientTransform="matrix(1, 0.06, -0.06, 1, -1429.25, 1.88)" gradientUnits="userSpaceOnUse"><stop offset="0" stop-color="#c32b78"></stop><stop offset="1" stop-color="#593092"></stop></linearGradient><linearGradient id="linear-gradient-4" x1="732.15" y1="2352.17" x2="1755.38" y2="-285.51" gradientTransform="translate(-1.55 -1.19) rotate(-0.13)" gradientUnits="userSpaceOnUse"><stop offset="0" stop-color="#2b3582"></stop><stop offset="1" stop-color="#150e42"></stop></linearGradient><linearGradient id="linear-gradient-5" x1="486.02" y1="1321.58" x2="1775.01" y2="1321.58" gradientUnits="userSpaceOnUse"><stop offset="0" stop-color="#e10454"></stop><stop offset="1" stop-color="#ed83ae"></stop></linearGradient><linearGradient id="linear-gradient-6" x1="1139.36" y1="-249.32" x2="1132.76" y2="153.34" gradientUnits="userSpaceOnUse"><stop offset="0" stop-color="#8d55d1"></stop><stop offset="1" stop-color="#1c2873"></stop></linearGradient><linearGradient id="linear-gradient-7" x1="398.92" y1="708.11" x2="398.92" y2="2461.52" gradientTransform="matrix(1, 0, 0, 1, 0, 0)" xlink:href="#linear-gradient-3"></linearGradient><linearGradient id="linear-gradient-8" x1="424.44" y1="397.9" x2="781.76" y2="397.9" gradientUnits="userSpaceOnUse"><stop offset="0" stop-color="#6c4ad3"></stop><stop offset="1" stop-color="#40208b"></stop></linearGradient><linearGradient id="linear-gradient-9" x1="807.28" y1="711.63" x2="807.28" y2="2474.19" gradientTransform="matrix(1, 0, 0, 1, 0, 0)" xlink:href="#linear-gradient-3"></linearGradient><linearGradient id="linear-gradient-10" x1="894.06" y1="397.9" x2="1128.87" y2="397.9" xlink:href="#linear-gradient-8"></linearGradient><linearGradient id="linear-gradient-11" x1="1246.27" y1="711.63" x2="1246.27" y2="2474.19" gradientTransform="matrix(1, 0, 0, 1, 0, 0)" xlink:href="#linear-gradient-3"></linearGradient><linearGradient id="linear-gradient-12" x1="1302.42" y1="397.9" x2="1598.49" y2="397.9" xlink:href="#linear-gradient-8"></linearGradient><linearGradient id="linear-gradient-13" x1="1654.64" y1="711.63" x2="1654.64" y2="2474.19" gradientTransform="matrix(1, 0, 0, 1, 0, 0)" xlink:href="#linear-gradient-3"></linearGradient><linearGradient id="linear-gradient-14" x1="1649.53" y1="396.01" x2="2068.1" y2="396.01" xlink:href="#linear-gradient-8"></linearGradient><linearGradient id="linear-gradient-15" x1="307.05" y1="475.72" x2="304.89" y2="1001.68" gradientTransform="matrix(1, 0, 0, 1, 0, 0)" xlink:href="#linear-gradient-3"></linearGradient><linearGradient id="linear-gradient-16" x1="426.65" y1="670.75" x2="656.74" y2="670.75" xlink:href="#linear-gradient-8"></linearGradient><linearGradient id="linear-gradient-17" x1="775.83" y1="475.73" x2="773.66" y2="1001.66" gradientTransform="matrix(1, 0, 0, 1, 0, 0)" xlink:href="#linear-gradient-3"></linearGradient><linearGradient id="linear-gradient-18" x1="893.7" y1="670.75" x2="1127.23" y2="670.75" xlink:href="#linear-gradient-8"></linearGradient><linearGradient id="linear-gradient-19" x1="1244.6" y1="475.75" x2="1242.43" y2="1001.65" gradientTransform="matrix(1, 0, 0, 1, 0, 0)" xlink:href="#linear-gradient-3"></linearGradient><linearGradient id="linear-gradient-20" x1="1360.76" y1="670.75" x2="1597.72" y2="670.75" xlink:href="#linear-gradient-8"></linearGradient><linearGradient id="linear-gradient-21" x1="1716.8" y1="475.73" x2="1714.64" y2="1001.69" gradientTransform="matrix(1, 0, 0, 1, 0, 0)" xlink:href="#linear-gradient-3"></linearGradient><linearGradient id="linear-gradient-22" x1="1834.68" y1="670.75" x2="2064.77" y2="670.75" xlink:href="#linear-gradient-8"></linearGradient><linearGradient id="linear-gradient-23" x1="1061.33" y1="1826.96" x2="1004.36" y2="2795.37" gradientTransform="matrix(1, 0, 0, 1, 0, 0)" xlink:href="#linear-gradient-3"></linearGradient><linearGradient id="linear-gradient-24" x1="2153.4" y1="1793.5" x2="2776.17" y2="1793.5" gradientUnits="userSpaceOnUse"><stop offset="0" stop-color="#e10454"></stop><stop offset="1" stop-color="#40208b"></stop></linearGradient><linearGradient id="linear-gradient-25" x1="2176.79" y1="1862.97" x2="2643.84" y2="1862.97" xlink:href="#linear-gradient-24"></linearGradient><linearGradient id="_9" x1="727.34" y1="2964.01" x2="786.12" y2="5038.96" gradientTransform="matrix(-0.08, 1, -1, -0.08, 6070.79, 1301.79)" gradientUnits="userSpaceOnUse"><stop offset="0" stop-color="#fdf53f"></stop><stop offset="0.65" stop-color="#e57c58"></stop><stop offset="1" stop-color="#d93c65"></stop></linearGradient><linearGradient id="_9-2" x1="1567.99" y1="3578.1" x2="1255.9" y2="4327.41" gradientTransform="translate(5999.15 -397.53) rotate(82.68)" xlink:href="#_9"></linearGradient><linearGradient id="_9-3" x1="1654.51" y1="3645.26" x2="1342.42" y2="4394.58" gradientTransform="matrix(0.13, 0.99, -0.99, 0.13, 6082.86, -327.35)" xlink:href="#_9"></linearGradient><linearGradient id="_9-4" x1="1684.68" y1="3932.23" x2="1383.79" y2="4410.12" gradientTransform="translate(6155.7 -262.22) rotate(82.68)" xlink:href="#_9"></linearGradient><linearGradient id="_9-5" x1="1763.48" y1="4000.71" x2="1462.58" y2="4478.61" gradientTransform="matrix(0.13, 0.99, -0.99, 0.13, 6225.74, -194.33)" xlink:href="#_9"></linearGradient><linearGradient id="linear-gradient-26" x1="4680.95" y1="1572.41" x2="3472.23" y2="3757.4" gradientTransform="translate(-2579.48 -421.83) rotate(1.21)" gradientUnits="userSpaceOnUse"><stop offset="0" stop-color="#2c759e"></stop><stop offset="1" stop-color="#051042"></stop></linearGradient><linearGradient id="linear-gradient-27" x1="4473.6" y1="2057.1" x2="4039.02" y2="2842.68" gradientTransform="translate(-2579.48 -421.83) rotate(1.21)" gradientUnits="userSpaceOnUse"><stop offset="0" stop-color="#ce1567"></stop><stop offset="1" stop-color="#7a1dbc"></stop></linearGradient><linearGradient id="linear-gradient-28" x1="4406.04" y1="1636.97" x2="4321.02" y2="1790.64" gradientTransform="matrix(0, 1, -1, 0, 3460.6, -2979.54)" xlink:href="#linear-gradient-27"></linearGradient><linearGradient id="linear-gradient-29" x1="4407.26" y1="1519.5" x2="4234.63" y2="1831.57" gradientTransform="translate(3347.78 -3094.77) rotate(90)" xlink:href="#linear-gradient-27"></linearGradient><linearGradient id="linear-gradient-30" x1="1681.97" y1="1343.5" x2="1939.66" y2="1720.61" gradientUnits="userSpaceOnUse"><stop offset="0" stop-color="#fdf53f"></stop><stop offset="1" stop-color="#d93c65"></stop></linearGradient><linearGradient id="linear-gradient-31" x1="2001.14" y1="1596.38" x2="1949.05" y2="1661.87" xlink:href="#linear-gradient-30"></linearGradient><linearGradient id="linear-gradient-32" x1="1950.55" y1="1570.31" x2="2104.38" y2="1570.31" gradientUnits="userSpaceOnUse"><stop offset="0" stop-color="#152c19"></stop><stop offset="1" stop-color="#397851"></stop></linearGradient><linearGradient id="linear-gradient-33" x1="1917.02" y1="1606.8" x2="1970.3" y2="1606.8" gradientUnits="userSpaceOnUse"><stop offset="0" stop-color="#e40045"></stop><stop offset="1" stop-color="#5c0e16"></stop></linearGradient><linearGradient id="linear-gradient-34" x1="1552.48" y1="2281.53" x2="1773.04" y2="2281.53" gradientUnits="userSpaceOnUse"><stop offset="0" stop-color="#7854e8"></stop><stop offset="1" stop-color="#40208b"></stop></linearGradient><linearGradient id="linear-gradient-35" x1="1688.46" y1="2311.66" x2="2674.15" y2="2311.66" xlink:href="#linear-gradient-34"></linearGradient><linearGradient id="linear-gradient-36" x1="839.77" y1="787.15" x2="525.5" y2="1173.51" gradientTransform="translate(-233.53 664.32) rotate(-7.16)" gradientUnits="userSpaceOnUse"><stop offset="0" stop-color="#f9b776"></stop><stop offset="1" stop-color="#f47960"></stop></linearGradient><linearGradient id="linear-gradient-37" x1="-4259.42" y1="7216.72" x2="-4623.02" y2="8044.92" gradientTransform="matrix(-0.96, 0.28, 0.28, 0.96, -1559.81, 888.96)" xlink:href="#linear-gradient-3"></linearGradient><linearGradient id="linear-gradient-38" x1="229.93" y1="1778.17" x2="463.19" y2="1778.17" gradientUnits="userSpaceOnUse"><stop offset="0" stop-color="#f43d88"></stop><stop offset="0" stop-color="#f43d88"></stop><stop offset="0.62" stop-color="#e03c6e"></stop><stop offset="1" stop-color="#d93c65"></stop></linearGradient><linearGradient id="linear-gradient-39" x1="-1648.08" y1="1254.33" x2="-1631.29" y2="1135.12" gradientTransform="matrix(-0.96, 0.28, 0.28, 0.96, -1559.81, 888.96)" xlink:href="#linear-gradient-36"></linearGradient><linearGradient id="linear-gradient-40" x1="-1725.05" y1="998.9" x2="-1568.06" y2="1179.4" gradientTransform="matrix(-0.96, 0.28, 0.28, 0.96, -1559.81, 888.96)" xlink:href="#linear-gradient-36"></linearGradient><linearGradient id="linear-gradient-41" x1="-4376.73" y1="7165.21" x2="-4740.33" y2="7993.42" gradientTransform="matrix(-0.96, 0.28, 0.28, 0.96, -1559.81, 888.96)" xlink:href="#linear-gradient-3"></linearGradient><linearGradient id="linear-gradient-42" x1="-1685.83" y1="964.78" x2="-1528.84" y2="1145.28" gradientTransform="matrix(-0.96, 0.28, 0.28, 0.96, -1559.81, 888.96)" xlink:href="#linear-gradient-36"></linearGradient><linearGradient id="linear-gradient-43" x1="88.84" y1="2947.51" x2="463.4" y2="2286.35" gradientTransform="translate(-21.08 53.29) rotate(-0.54)" xlink:href="#linear-gradient-36"></linearGradient><linearGradient id="linear-gradient-44" x1="170.49" y1="2713.75" x2="279.98" y2="2713.75" gradientTransform="translate(-21.08 53.29) rotate(-0.54)" xlink:href="#linear-gradient-4"></linearGradient><linearGradient id="linear-gradient-45" x1="513.3" y1="2458.4" x2="-46.85" y2="2637.52" gradientTransform="translate(-21.08 53.29) rotate(-0.54)" xlink:href="#linear-gradient-36"></linearGradient><linearGradient id="linear-gradient-46" x1="272" y1="2733.52" x2="402.51" y2="2733.52" gradientTransform="translate(-21.08 53.29) rotate(-0.54)" xlink:href="#linear-gradient-4"></linearGradient><linearGradient id="linear-gradient-47" x1="707.15" y1="1621.78" x2="141.55" y2="2429.78" gradientUnits="userSpaceOnUse"><stop offset="0" stop-color="#53d8ff"></stop><stop offset="1" stop-color="#3840f7"></stop></linearGradient><linearGradient id="linear-gradient-48" x1="198.44" y1="1345.35" x2="819.78" y2="634.63" xlink:href="#linear-gradient-36"></linearGradient></defs><title>طراحی سایت فروشگاهی</title><path class="cls-1" d="M2546.31,2428.6c-57.16,59.94-111.24,98.6-154,129.15-502.26,359-1096.57,254.38-1222.87,228.82C983,2748.83,622.42,2675.88,361.76,2370.48-32.59,1908.45,28.81,1180.54,334.7,700c55.95-87.89,351.5-575.72,952.21-653.95,363.55-47.34,787.32,48.15,1094.21,304.3C3025.3,888.07,2979.44,1974.3,2546.31,2428.6Z" transform="translate(-72.23 -34.39)"></path><path class="cls-2" d="M1636.1,1588.35s179-893.53,610.43-1390.09c29-33.38,85.38-22.35,99.3,19.55C2438.88,498,2631.52,1350.45,1636.1,1588.35Z" transform="translate(-72.23 -34.39)"></path><path class="cls-3" d="M1725.51,1528.62c-2.16,2.18,1,5.45,3.42,3.57,90.25-69.2,436-406.58,539.91-1063,.33-2.11-2.91-2.82-3.43-.75C2226.92,621,2066.87,1184,1725.51,1528.62Z" transform="translate(-72.23 -34.39)"></path><path class="cls-4" d="M2803.56,623.33c4.35-2.94,1.91-10.62-3.23-10.12-82.06,7.91-379.94,57.21-598.31,360.94-199.79,277.89-297.86,511.57-331.15,600.31-6.58,17.55,6.45,37.4,23.59,35.91,101.59-8.81,384.24-50.23,499.11-241.24C2530.83,1140.87,2595.92,763.7,2803.56,623.33Z" transform="translate(-72.23 -34.39)"></path><path class="cls-3" d="M2565.11,777.36s-265.57,106.52-672.76,800.45C1892.35,1577.81,2335.52,906.37,2565.11,777.36Z" transform="translate(-72.23 -34.39)"></path><path class="cls-5" d="M1891.44,2565.77c-.51,50.9-44.24,92.16-97.67,92.28L502,2660.87c-53.82.11-98.5-41.12-99.78-92.22L342,162.65c-1.43-57.2,43.75-103.47,100.89-103.19L1814.11,66c56.71.27,102.2,46.77,101.62,103.73Z" transform="translate(-72.23 -34.39)"></path><path class="cls-6" d="M1775,308.6c.39-55-44.71-99.83-100.75-100.08L586,203.74c-56.39-.25-101.13,44.37-99.92,99.54L530.78,2349c1.1,50.11,45.41,90.57,99,90.48l1033.93-1.64c53.24-.08,96.68-40.55,97-90.5Z" transform="translate(-72.23 -34.39)"></path><path class="cls-7" d="M1294.09,130.68a19.1,19.1,0,0,1-19.16,19.22L991.7,148.61a19.67,19.67,0,0,1-19.49-19.41h0a18.93,18.93,0,0,1,19-19.27l283.55,1.33a19.45,19.45,0,0,1,19.29,19.42Z" transform="translate(-72.23 -34.39)"></path><path class="cls-8" d="M446,203.69c-7.08,0-13.67,2.63-17.45,8.61C348.93,338,269.28,468.13,189.64,588.33h234.8C485.7,468.13,547,334.19,608.21,203.69Z" transform="translate(-72.23 -34.39)"></path><path class="cls-9" d="M659.25,591.22H424.44Q516.33,397.9,608.21,204.58H781.76Q720.51,397.9,659.25,591.22Z" transform="translate(-72.23 -34.39)"></path><path class="cls-10" d="M894.06,591.22H659.25Q720.51,397.9,781.76,204.58H955.32Z" transform="translate(-72.23 -34.39)"></path><path class="cls-11" d="M1128.87,591.22H894.06l61.26-386.64h173.55Z" transform="translate(-72.23 -34.39)"></path><path class="cls-12" d="M1363.68,591.22H1128.87V204.58h173.55Z" transform="translate(-72.23 -34.39)"></path><path class="cls-13" d="M1598.49,591.22H1363.68l-61.26-386.64H1476Q1537.23,397.9,1598.49,591.22Z" transform="translate(-72.23 -34.39)"></path><path class="cls-14" d="M1833.3,591.22H1598.49Q1537.23,397.9,1476,204.58h173.55Q1741.41,397.9,1833.3,591.22Z" transform="translate(-72.23 -34.39)"></path><path class="cls-15" d="M1829.17,212.3c-3.78-6-10.37-8.61-17.45-8.61H1649.53c61.25,130.5,122.51,264.44,183.77,384.64h234.8C1988.46,468.13,1908.81,338,1829.17,212.3Z" transform="translate(-72.23 -34.39)"></path><path class="cls-16" d="M186.25,588.33v67c0,55.79,56.68,97.87,121.35,97.87h2.52c64.66,0,116.53-42.08,116.53-97.87v-67Z" transform="translate(-72.23 -34.39)"></path><path class="cls-17" d="M426.65,588.33v67c0,55.79,50,97.87,113.56,97.87h2.48c63.57,0,114-42.08,114-97.87v-67Z" transform="translate(-72.23 -34.39)"></path><path class="cls-18" d="M656.74,588.33v67c0,55.79,55.37,97.87,120,97.87h2.52c64.67,0,114.4-42.08,114.4-97.87v-67Z" transform="translate(-72.23 -34.39)"></path><path class="cls-19" d="M893.7,588.33v67c0,55.79,52.12,97.87,115.69,97.87h2.48c63.58,0,115.36-42.08,115.36-97.87v-67Z" transform="translate(-72.23 -34.39)"></path><path class="cls-20" d="M1127.23,588.33v67c0,55.79,54.06,97.87,118.73,97.87h2.52c64.67,0,112.28-42.08,112.28-97.87v-67Z" transform="translate(-72.23 -34.39)"></path><path class="cls-21" d="M1360.76,588.33v67c0,55.79,54.24,97.87,117.82,97.87h2.47c63.58,0,116.67-42.08,116.67-97.87v-67Z" transform="translate(-72.23 -34.39)"></path><path class="cls-22" d="M1597.72,588.33v67c0,55.79,52.75,97.87,117.42,97.87h2.52c64.67,0,117-42.08,117-97.87v-67Z" transform="translate(-72.23 -34.39)"></path><path class="cls-23" d="M1834.68,588.33v67c0,55.79,49.5,97.87,113.08,97.87h2.47c63.58,0,114.54-42.08,114.54-97.87v-67Z" transform="translate(-72.23 -34.39)"></path><rect class="cls-24" x="680.68" y="1762.78" width="752.09" height="285.04" rx="141.19"></rect><path class="cls-25" d="M918.45,1860.5c9.42-1.94,26.57-3.39,43.25-3.39,22,0,35.52,2.66,46.63,10.39,10.15,6,16.91,16.67,16.91,30.45,0,15-9.42,28.75-27.06,35.27v.49c17.15,4.35,32.86,17.87,32.86,40.35a42.24,42.24,0,0,1-15.71,33.58c-11.59,10.15-30.68,15.22-60.4,15.22a289.34,289.34,0,0,1-36.48-2.17Zm29.48,64.26h15.21c20.54,0,32.14-9.66,32.14-23.43,0-15.22-11.6-22.23-30.44-22.23-8.7,0-13.78.49-16.91,1.21Zm0,74.91a132,132,0,0,0,15.7.72c19.08,0,36-7.25,36-27.3,0-18.85-16.43-26.58-37-26.58H947.93Z" transform="translate(-72.23 -34.39)"></path><path class="cls-25" d="M1087.07,1858.32v95c0,31.89,13.29,46.63,33.35,46.63,21.5,0,34.31-14.74,34.31-46.63v-95h29.71v93c0,50.25-25.85,72.48-65,72.48-37.69,0-62.1-21-62.1-72.25v-93.26Z" transform="translate(-72.23 -34.39)"></path><path class="cls-25" d="M1255.46,2021.17v-67.89l-51.47-95h33.82l19.57,41.8c5.56,12.08,9.67,21.26,14,32.38h.49c4.1-10.39,8.69-20.54,14.25-32.38l19.57-41.8h33.58l-54.12,94.23v68.62Z" transform="translate(-72.23 -34.39)"></path><path class="cls-25" d="M1498.62,1051c-4.37-5.37-11.21-7.6-18.48-7.45l-661.43,13.88L802,1004.32a17.21,17.21,0,0,0-17.13-11.93l-90.82,2.39c-9.74.25-17.62,7-17.62,16.75s7.88,16.09,17.62,15.86l77.61-1.83,140.42,448.72a18.55,18.55,0,0,0,17.5,12.85l464.25,6.23c10.89.15,19.74-6.69,19.74-17s-8.85-17.35-19.74-17.47L943.12,1454,907,1337.54l495.29.75a23,23,0,0,0,21.92-15.83l78.17-252.75A19.89,19.89,0,0,0,1498.62,1051Z" transform="translate(-72.23 -34.39)"></path><path class="cls-25" d="M997.49,1514.81c-38.2-.59-69.1,29.14-69.1,66.27s30.9,68.16,69.1,69.16c38.43,1,69.87-28.71,69.87-66.25S1035.92,1515.41,997.49,1514.81Zm0,99.31c-17.85-.41-32.34-14.89-32.34-32.27s14.49-31.25,32.34-30.93,32.51,14.81,32.51,32.28S1015.39,1614.54,997.49,1614.12Z" transform="translate(-72.23 -34.39)"></path><path class="cls-25" d="M1307,1519.62c-40.09-.62-72.52,29.82-72.52,67.86s32.43,69.84,72.52,70.89c40.34,1.06,73.34-29.37,73.34-67.84S1347.31,1520.25,1307,1519.62Zm0,101.75c-18.74-.44-34-15.28-34-33.08s15.21-32,34-31.67,34.12,15.19,34.12,33.09S1325.76,1621.81,1307,1621.37Z" transform="translate(-72.23 -34.39)"></path><path class="cls-26" d="M2153.47,2207.14c.66,9.69,6.2,22.46,15.29,27,35.09,17.58,80-108.85,190.62-203.36,128.09-109.42,233.95-81.78,266.11-183.72,15.46-49-4-71.42,21-123.3,34.82-72.24,89.6-64.29,116.42-121.36,30.83-65.63,6.3-178.16-58.13-226.07-86.64-64.43-222.15,5.28-263.85,92.63-27.09,56.73-18.11,128.26-34.29,129-15.43.69-18.21-64.71-53.52-81.22-46.25-21.61-138,45.4-141.46,120.34-3.15,69,68.9,137.6,55.92,150.7-5.11,5.16-16.29-5.44-24.12-1.38-14,7.24-11.15,57.95,40.5,215.75-.52,51.47-14.44,83-27.41,102.41C2218.32,2161.88,2151,2170.17,2153.47,2207.14Z" transform="translate(-72.23 -34.39)"></path><path class="cls-27" d="M2643.84,1513.62a442.2,442.2,0,0,0-79.92,65.6,395.44,395.44,0,0,0-61.56,84.22c-8.41,15.5-16.05,31.55-23.2,47.94-3.43,8.31-7,16.51-10.26,24.94s-6.72,16.74-10,25.17L2439,1812.25l-5.07,12.68-5.27,12.6c-3.47,8.42-7.15,16.74-10.79,25.08-7.27,16.67-15,33.1-22.85,49.43-4,8.12-8,16.27-12.18,24.25l-6.25,12-6.41,11.92-6.43,11.9-6.63,11.76-6.65,11.76-6.85,11.6-6.92,11.56-7.15,11.39c-4.76,7.59-9.49,15.21-14.51,22.61l-7.41,11.17-3.71,5.59-3.84,5.47c-5.2,7.25-10.31,14.56-15.57,21.74L2268.4,2118c-5.42,7-11.17,13.78-16.78,20.63-22.78,27.09-47.12,52.66-73.5,75.53l-1.33-1.62a871.47,871.47,0,0,0,67.93-80.39l7.81-10.67c2.58-3.57,5.33-7,7.78-10.68l15.06-21.8c9.7-14.82,19.39-29.62,28.62-44.79,4.73-7.49,9.18-15.2,13.67-22.88l6.72-11.52,6.5-11.68,6.56-11.63,6.36-11.77,6.34-11.78,6.15-11.91c16.31-31.82,31.86-64.12,46.12-97.15s27.44-66.66,40.94-100.44c3.4-8.44,6.77-16.89,10.33-25.29s7.31-16.7,11-25c7.71-16.54,15.84-32.91,25-48.61,2.32-3.91,4.8-7.7,7.2-11.55l3.63-5.75,3.88-5.56c2.61-3.68,5.1-7.46,7.81-11.05l8.27-10.65c2.67-3.62,5.72-6.89,8.65-10.26l4.42-5c1.47-1.68,2.93-3.36,4.51-4.92,6.25-6.31,12.32-12.8,18.83-18.76a364.78,364.78,0,0,1,86-59.24Z" transform="translate(-72.23 -34.39)"></path><ellipse class="cls-28" cx="2242.08" cy="1734.8" rx="522.2" ry="181.51" transform="translate(-98.16 3401.16) rotate(-74.6)"></ellipse><ellipse class="cls-29" cx="2311.92" cy="1521.05" rx="24.21" ry="121.58" transform="translate(-494.46 1914.43) rotate(-42.23)"></ellipse><ellipse class="cls-30" cx="2262.91" cy="1664.52" rx="24.21" ry="121.58" transform="matrix(0.74, -0.67, 0.67, 0.74, -603.62, 1918.72)"></ellipse><ellipse class="cls-31" cx="2215.01" cy="1791.39" rx="24.21" ry="121.58" transform="translate(-701.32 1919.46) rotate(-42.23)"></ellipse><ellipse class="cls-32" cx="2162.13" cy="1916.01" rx="24.21" ry="121.58" transform="matrix(0.74, -0.67, 0.67, 0.74, -798.81, 1916.27)"></ellipse><path class="cls-33" d="M1796.74,1540.39l6.11-288.08-106.36-2.26-6.15,289.36c-12.15,9.19-63.11,49-63.55,69.79-.45,21.09-11.68,550-14.1,664-.28,13.57,9.82,26.05,22.22,31.58,21.34,9.49,57.37,22.43,90.8,23.14s67.21-10.75,88.92-19.33c12.63-5,19.37-17.12,19.66-30.69L1848.51,1608S1848.4,1576.5,1796.74,1540.39Z" transform="translate(-72.23 -34.39)"></path><path class="cls-34" d="M1798,1757.68l-118.19-2.51a11.83,11.83,0,0,0-12.07,11.57l-6.71,316.15a11.81,11.81,0,0,0,11.57,12.06l118.19,2.51a11.82,11.82,0,0,0,12.07-11.56l6.71-316.15A11.82,11.82,0,0,0,1798,1757.68Z" transform="translate(-72.23 -34.39)"></path><rect class="cls-35" x="1675.92" y="1330.94" width="141.86" height="106.39" transform="translate(253.73 3066.83) rotate(-88.78)"></rect><rect class="cls-36" x="1696.1" y="1206.84" width="106.39" height="124.12" rx="15.52" transform="translate(371.32 2956.49) rotate(-88.78)"></rect><path class="cls-37" d="M1994.07,1618.24a85.61,85.61,0,0,1-57.08.82c-20.65-6.92-54.17-8.4-105,14.37-99.6,44.64-96.08,239.4,45.29,268.53,184.64,38,271.25-53.41,287.19-119.2s-26.24-149.46-108.18-167.34C2029.48,1609.57,2008.88,1612.72,1994.07,1618.24Z" transform="translate(-72.23 -34.39)"></path><path class="cls-38" d="M1866.47,1648.05c16.22,1,46.47,8,18.74,43.42s-51,94-39.14,132-65.17-9-69.56-59.44S1816.09,1644.78,1866.47,1648.05Z" transform="translate(-72.23 -34.39)"></path><path class="cls-39" d="M2019,1640.43c0,9.23-23.8,16.71-53.15,16.71s-53.14-7.48-53.14-16.71,23.79,0,53.14,0S2019,1631.2,2019,1640.43Z" transform="translate(-72.23 -34.39)"></path><path class="cls-40" d="M1952,1638.16S1935.13,1568,2015.3,1523s78.36-49,82.74-25.23,28.57,108-59.28,144.19S1952,1638.16,1952,1638.16Z" transform="translate(-72.23 -34.39)"></path><path class="cls-38" d="M2083.58,1500.42c-12.58,20.47-71,112.89-122.37,149.43,0,0,61,7.86,104.68-33.09,37.39-35,25.57-98.2,21.36-115.76A2,2,0,0,0,2083.58,1500.42Z" transform="translate(-72.23 -34.39)"></path><path class="cls-41" d="M1962.22,1651.15c1.65,11.52,11.46-1.18,6.86-24.08s-9.32-77.35-42.38-67.83S1955.22,1602.5,1962.22,1651.15Z" transform="translate(-72.23 -34.39)"></path><path class="cls-42" d="M1773,2141.66l-36.27,445-5.85,104.67c-12.84,67.55-26.37,114.76-38.69,115-28.52.51-69.1-51.27-99.5-93.57-12.33-17.23-22.92-32.91-30.42-42.81-25.84-34.47,6.47-344.62,15.08-385.54s14.39-361.15,11.46-376.92,23-150.76,23-150.76l37.74,43.07,2.5,2.85,57.37-33,25.85,40.23S1759.35,2012.86,1773,2141.66Z" transform="translate(-72.23 -34.39)"></path><path class="cls-43" d="M2674.12,2709a95.52,95.52,0,0,1-91.58,98c-262.85,10.95-870.41,73.84-890.31-.68-22.91-86.16,66.08-476.69,63.24-525.54s-20.16-470.91-20.16-470.91l44.37,11,13.09,3.27,94.77-43.07,83.31,46,109.07-46,83.31,48.85,83.31-34.47,68.92,34.47,86.15-48.85,54.54,43.07,89-43.07,51.69,48.85,54.62-48.85,2.84,46S2667.65,2461,2674.12,2709Z" transform="translate(-72.23 -34.39)"></path><path class="cls-44" d="M667.9,1450a4.87,4.87,0,0,0-9,1c-4.38,15.74-15,43.21-37.18,53-1.12.49-2.18,1-3.2,1.49a11.3,11.3,0,0,1,1.39-10.22c6.91-10.55-5.56-25-5.56-25s-.83,12.7-10.48,20.69c-8.31,6.89-12.3,22.21-6.62,34.78,12,46.7,30,108.46-40.1,153.59s-168.89-85.16-168.89-85.16l49,155.39s75.66,55.83,163.66-22.68,29.67-192.74,29.67-192.74S697.73,1507,667.9,1450Z" transform="translate(-72.23 -34.39)"></path><path class="cls-45" d="M376,1365.82s20.32-91.13-84.08-67c0,0-50.67-8.28-53.25,39.55,0,0-32.66,21.52-8.75,62.92,0,0-97.07-37.5-139.37,47.59s-3.41,131.91,37.34,144.1c0,0-33,16.58-17.39,54s94.79,63.82,141.55,18.3c0,0,133,17.58,130.38-76.4,0,0,61.88-40-3.11-117.63S376,1365.82,376,1365.82Z" transform="translate(-72.23 -34.39)"></path><path class="cls-46" d="M381.7,1577.07c-21-6.29-82.05-17.9-140.15,35.71a36,36,0,0,0-10.37,35.85c15.61,57.45,56.78,227.18,20.68,300.62,0,0,63.61,70.13,133,13.61,0,0,31.14-135.72,71.92-195.3,28.16-41.13-44.9-154.46-63.38-181.84A21.62,21.62,0,0,0,381.7,1577.07Z" transform="translate(-72.23 -34.39)"></path><path class="cls-47" d="M323.78,1462.93s-31,87.76-33.36,126.47c0,0,34.29,15.59,66.6-10.72,0,0,3.39-87.66,8.29-103.35Z" transform="translate(-72.23 -34.39)"></path><path class="cls-48" d="M366.88,1343.28s81.14,113.56,32.63,146.55-106.27-47.72-106.27-47.72-18.83-62.16.86-83.24S366.88,1343.28,366.88,1343.28Z" transform="translate(-72.23 -34.39)"></path><path class="cls-49" d="M329.32,1316.14s37.27,8.84,42.5,25.7-52.87,32.51-69.14,33.28l-13.12,68.06s-38.76-64-23.41-101S329.32,1316.14,329.32,1316.14Z" transform="translate(-72.23 -34.39)"></path><path class="cls-50" d="M309,1433.75s-31.58-36.58-44.14-12.73,28.43,41.75,42.62,30Z" transform="translate(-72.23 -34.39)"></path><path class="cls-51" d="M465.9,2247.81c-.24,6.16,10.58,55,16.47,81.1a42.91,42.91,0,0,1-4.62,30.79L273.86,2702.85a46.81,46.81,0,0,0-5.35,13.35c-3.74,16.11-11.49,55.57-7.44,91.48l10.54,21.9L226,2819.23l-9.93-122.51,12.92-7.87a61.37,61.37,0,0,0,24.81-29c18.44-44.79,64.22-158.78,76-214.33,13.41-63.14,83.53-114.42,83.53-114.42L401,2301.92Z" transform="translate(-72.23 -34.39)"></path><path class="cls-52" d="M175.3,2777.07s24.63-39.05,27.53-54.25,11-42.05,26.16-34c0,0,7.15,73.85,4.69,102.7s32.62,27.93,32.62,27.93,9.67,1.36,16.75,8.44c4.89,4.89,1.39,13.37-5.51,13.82a197.56,197.56,0,0,1-48.87-2.77,15,15,0,0,1-12.06-13.79l-5.05-85-31.08,39.24Z" transform="translate(-72.23 -34.39)"></path><path class="cls-53" d="M344.1,2302.47s-7.19,306.94-8.16,350.54,6.88,140.2,50.58,169.08l-19,14.08s-23.77-20.2-47-59.08c-26.08-43.67-34-51.64-34-51.64l8.66-17.73a39,39,0,0,0,3.16-25c-9.43-45.71-40.94-197.74-49.53-230.48C238.69,2413.6,238,2362,273.26,2318.79S344.1,2302.47,344.1,2302.47Z" transform="translate(-72.23 -34.39)"></path><path class="cls-54" d="M303.74,2850a2.68,2.68,0,0,1-2.69-2.3c-1.46-10.23-7.51-51.26-12.47-61.88-5.67-12.17-24.21-63.37,0-67.72,0,0,60.22,88,71.78,99.84s26.15,4.15,26.15,4.15a43.5,43.5,0,0,1,19.76,14.18,8,8,0,0,1-6.28,12.81l-40.57.39a28.55,28.55,0,0,1-26.75-18c-7.14-17.84-19.41-44-33.7-55.6l7.43,71.13A2.71,2.71,0,0,1,303.74,2850Z" transform="translate(-72.23 -34.39)"></path><path class="cls-55" d="M394.48,1929.76s-9.14,29.14,4.9,77.12l87.11,304.19a9.42,9.42,0,0,1-5.89,11.46c-26.06,9.36-111.71,35.79-228.64,27.73a13.29,13.29,0,0,1-12.1-10.34c-7.71-34.68-34-153-39.4-177.31-20.63-92.63-43.65-192.53,57.65-252.94C304.79,1929.66,348.34,1941.45,394.48,1929.76Z" transform="translate(-72.23 -34.39)"></path><path class="cls-56" d="M233.24,1624.25s-99.12,82.36-123.71,194.91,144.83,124.52,144.83,124.52,23-25.69,50.3-16.53,2.11-44.82-29.83-44.68-17.15,25.4-62.35,4.93c-44-19.94-71.23-81.62,41.09-175.11a50.85,50.85,0,0,0,14.84-20.2C290.23,1637.16,272.92,1601.15,233.24,1624.25Z" transform="translate(-72.23 -34.39)"></path></svg>