<svg xmlns="http://www.w3.org/2000/svg" xmlns:xlink="http://www.w3.org/1999/xlink" viewBox="0 0 352 273.32"><defs><style>.cls-1{isolation:isolate;}.cls-2{fill:#dededc;}.cls-14,.cls-2,.cls-22,.cls-34{mix-blend-mode:multiply;}.cls-3{fill:url(#Áåçûìÿííûé_ãðàäèåíò_505);}.cls-4{fill:url(#Áåçûìÿííûé_ãðàäèåíò_510);}.cls-5{fill:#f5f5f5;}.cls-6{fill:#3a3b3b;}.cls-7{fill:#40208b;}.cls-8{fill:#743b3b;}.cls-9{fill:#c6c4bf;}.cls-10{fill:#a7a49c;}.cls-11{fill:#f0ebe7;}.cls-12{fill:#77736f;}.cls-13{fill:#cc0657;}.cls-14{fill:#999;}.cls-15{fill:#e10454;}.cls-16{fill:#c60c58;}.cls-17{fill:#f2f2f2;}.cls-18{fill:#e0e0e0;}.cls-19{fill:#ed964e;}.cls-20{fill:#fabd67;}.cls-21{fill:#ffd190;}.cls-23{fill:#fae3c8;}.cls-24{mix-blend-mode:screen;}.cls-25{fill:#734f25;}.cls-26{fill:#8b3c1c;}.cls-27{fill:#914627;}.cls-28{fill:#c2683e;}.cls-29{fill:#ad5844;}.cls-30{fill:#fc736a;}.cls-31{fill:#ffd9a1;}.cls-32{fill:#2b1810;}.cls-33{fill:#ebe4e1;}.cls-34{fill:#ba9672;}.cls-35{fill:#857372;}.cls-36{fill:#855d5c;}.cls-37{fill:#484f77;}.cls-38{fill:#fff;}</style><linearGradient id="&#xC1;&#xE5;&#xE7;&#xFB;&#xEC;&#xFF;&#xED;&#xED;&#xFB;&#xE9;_&#xE3;&#xF0;&#xE0;&#xE4;&#xE8;&#xE5;&#xED;&#xF2;_505" x1="2121.54" y1="1845.93" x2="2453.76" y2="1845.93" gradientTransform="matrix(0.98, -0.01, 0.03, 1.02, -2051.78, -1632.5)" gradientUnits="userSpaceOnUse"><stop offset="0" stop-color="#737373"></stop><stop offset="0.04" stop-color="#868686"></stop><stop offset="0.62" stop-color="#868686"></stop><stop offset="0.63" stop-color="#989898"></stop><stop offset="0.65" stop-color="#a9a9a9"></stop><stop offset="0.67" stop-color="#afafaf"></stop><stop offset="0.71" stop-color="#dedede"></stop><stop offset="0.98" stop-color="#dedede"></stop><stop offset="1" stop-color="#f9f9f9"></stop></linearGradient><linearGradient id="&#xC1;&#xE5;&#xE7;&#xFB;&#xEC;&#xFF;&#xED;&#xED;&#xFB;&#xE9;_&#xE3;&#xF0;&#xE0;&#xE4;&#xE8;&#xE5;&#xED;&#xF2;_510" x1="2121.54" y1="1840.15" x2="2453.29" y2="1840.15" gradientTransform="matrix(0.98, -0.01, 0.03, 1.02, -2051.78, -1632.5)" gradientUnits="userSpaceOnUse"><stop offset="0" stop-color="#b3b3b3"></stop><stop offset="0.04" stop-color="#bdbdbd"></stop><stop offset="0.62" stop-color="#bdbdbd"></stop><stop offset="0.62" stop-color="#bebebe"></stop><stop offset="0.65" stop-color="#cfcfcf"></stop><stop offset="0.67" stop-color="#d5d5d5"></stop><stop offset="0.71" stop-color="#f0f0f0"></stop><stop offset="0.98" stop-color="#f0f0f0"></stop><stop offset="1" stop-color="#fff"></stop></linearGradient></defs><title>اپ رستوران</title><g class="cls-1"><g id="LAYER"><path class="cls-2" d="M159.53,129.44,67.19,181.8c-6.56,3.72-5.29,10.6,2.83,15.29L268.07,311.43c8.12,4.69,41.27,6.87,47.83,3.15l71.2-53.76c6.56-3.72,5.28-10.6-2.84-15.28l-198-114.35C178.1,126.51,166.09,125.71,159.53,129.44Z" transform="translate(-62.99 -43.14)"></path><path class="cls-3" d="M414.79,253.1h0l-.95-15.56-15.11.69-5.37-1.13L209.93,131.19c-8.11-4.68-20.13-5.48-26.69-1.75l-81.63,46.29L85.76,172.4l1,15.92h0c.19,3,2.57,6.21,7,8.77L291.79,311.43c8.12,4.69,20.13,5.48,26.69,1.76l92.34-52.37C414.27,258.87,415.53,256,414.79,253.1Z" transform="translate(-62.99 -43.14)"></path><path class="cls-4" d="M93,185.35l198,114.34c8.12,4.69,20.13,5.48,26.69,1.76l92.34-52.36c2.54-1.44,3.88-3.36,4.12-5.44l-.13-2.11c0-.06,0-.12,0-.17h0l-.23-3.82-15.11.69-5.37-1.13L209.93,131.19c-8.11-4.68-20.13-5.48-26.69-1.75l-81.63,46.29L85.76,172.4l.25,4.18h0C86.22,179.58,88.6,182.79,93,185.35Z" transform="translate(-62.99 -43.14)"></path><path class="cls-5" d="M182.27,113.29,89.93,165.65c-6.56,3.72-5.29,10.6,2.83,15.29L290.81,295.28c8.12,4.69,20.13,5.48,26.69,1.76l92.34-52.36c6.56-3.72,5.28-10.6-2.84-15.29L209,115.05C200.84,110.36,188.83,109.57,182.27,113.29Z" transform="translate(-62.99 -43.14)"></path><path class="cls-6" d="M410.74,237.36a2.66,2.66,0,0,0-.16-2.69,12.24,12.24,0,0,0-4.79-4.42l-198-114.34c-7.1-4.1-17.8-4.89-23.37-1.73L92,166.54a5.5,5.5,0,0,0-2.18,2,2.69,2.69,0,0,0,.16,2.69,12.24,12.24,0,0,0,4.79,4.42L292.85,290c7.1,4.1,17.8,4.89,23.37,1.73l92.34-52.36A5.5,5.5,0,0,0,410.74,237.36Z" transform="translate(-62.99 -43.14)"></path><path class="cls-7" d="M406.42,237.31a2.57,2.57,0,0,0-.16-2.57,11.6,11.6,0,0,0-4.58-4.23L216.1,123.37c-6.79-3.93-17-4.69-22.38-1.66l-88.45,50.16a5.18,5.18,0,0,0-2.09,1.91,2.55,2.55,0,0,0,.15,2.58,11.57,11.57,0,0,0,4.59,4.23L293.49,287.73c6.8,3.93,17.05,4.69,22.39,1.66l88.45-50.16A5.19,5.19,0,0,0,406.42,237.31Z" transform="translate(-62.99 -43.14)"></path><path class="cls-5" d="M125.76,157.14l46.07-26c7.3-4.13,11.14-9.91,10.57-15.91l-.45-.8L97.29,162.82l.79,0C108.41,163.34,118.46,161.26,125.76,157.14Z" transform="translate(-62.99 -43.14)"></path><path class="cls-6" d="M172.47,125.39a5.65,5.65,0,0,0-4.91-.15c-1.34.71-1.3,1.93.08,2.73a5.58,5.58,0,0,0,4.91.15C173.89,127.41,173.85,126.19,172.47,125.39Z" transform="translate(-62.99 -43.14)"></path><path class="cls-6" d="M118.2,155.48a4.55,4.55,0,0,0-4-.12c-1.09.57-1.06,1.56.06,2.21a4.59,4.59,0,0,0,4,.13C119.34,157.12,119.31,156.13,118.2,155.48Z" transform="translate(-62.99 -43.14)"></path><path class="cls-8" d="M164.06,129.49a3.84,3.84,0,0,0-3.37-.11c-.92.49-.89,1.33.05,1.87a3.84,3.84,0,0,0,3.37.11C165,130.87,165,130,164.06,129.49Z" transform="translate(-62.99 -43.14)"></path><path class="cls-6" d="M123.81,151l31-17.9c.32-.18.28-.5-.09-.71h0a1.34,1.34,0,0,0-1.23-.05l-31,17.89c-.32.18-.28.5.08.71h0A1.4,1.4,0,0,0,123.81,151Z" transform="translate(-62.99 -43.14)"></path><polygon class="cls-9" points="208.58 45.44 134.91 88.01 144.78 169.16 207.25 133.05 208.58 45.44"></polygon><polygon class="cls-10" points="208.58 45.48 180.15 114.13 206.3 129.23 207.31 128.59 208.58 45.48"></polygon><polygon class="cls-11" points="207.25 133.05 144.78 169.12 207.64 205.41 270.11 169.34 207.25 133.05"></polygon><polygon class="cls-12" points="270.11 169.34 207.25 133.05 208.58 45.44 279.97 86.65 270.11 169.34"></polygon><polygon class="cls-13" points="207.64 205.46 144.78 169.16 134.91 88.01 206.3 129.23 207.64 205.46"></polygon><polygon class="cls-14" points="207.64 205.46 147.95 205.46 145.96 208.81 92.21 177.68 89.97 172.23 141.62 143.2 144.78 169.16 207.64 205.46"></polygon><polygon class="cls-15" points="144.78 169.16 169.4 168.51 167.51 144.78 134.91 88.01 144.78 169.16"></polygon><polygon class="cls-15" points="207.64 205.46 170.97 169.34 168.93 145.72 206.3 129.23 207.64 205.46"></polygon><polygon class="cls-12" points="206.3 129.23 168.93 149.55 134.91 88.01 206.3 129.23"></polygon><polygon class="cls-15" points="279.97 86.65 206.3 129.23 207.64 205.46 270.11 169.34 279.97 86.65"></polygon><polygon class="cls-16" points="206.3 129.23 214.01 156.66 237 163.9 273.23 143.13 276.78 113.38 206.3 129.23"></polygon><polygon class="cls-17" points="177.54 16.99 177.54 16.99 151.44 12.22 107.9 37.36 109.89 56.05 134.91 88.01 208.58 45.48 177.54 16.99"></polygon><polygon class="cls-18" points="239.62 16.99 239.62 16.99 265.72 12.22 306.98 36 304.99 54.69 279.97 86.65 208.58 45.48 239.62 16.99"></polygon><polygon class="cls-9" points="297.13 30.32 251.93 70.48 247.27 67.78 294.96 29.07 297.13 30.32"></polygon><polygon class="cls-9" points="284.85 23.23 239.65 63.39 234.99 60.69 282.68 21.98 284.85 23.23"></polygon><polygon class="cls-18" points="253.23 141.57 253.23 141.57 279.47 139.44 323.01 114.3 320.88 102.51 279.97 86.7 206.3 129.23 253.23 141.57"></polygon><polygon class="cls-17" points="166.78 138.75 166.78 138.75 140.54 136.62 99.29 112.8 101.42 101.01 134.91 88.01 206.3 129.23 166.78 138.75"></polygon><polygon class="cls-9" points="180.15 114.13 127.02 128.81 123.15 126.58 133.84 121.47 174.94 111.14 180.15 114.13"></polygon><polygon class="cls-9" points="167.83 107.02 114.7 121.7 110.83 119.46 121.52 114.36 162.63 104.02 167.83 107.02"></polygon><path class="cls-19" d="M322.44,141.7c-.38.22-.76.44-1.14.64L319,143.68c-.32.2-.62.36-.92.52l-.86.5-.78.46-.32.18-3,1.76-2.33,1.34-1.14.66-.12.08-.54.3v0l-6.18,3.56-1.68,1,0,0-2.27,1.29c-1.22.72-2.46,1.42-3.66,2.12l-4.68,2.7-.92.54-1.56.9c-.28.16-.58.34-.88.5l-3.11,1.8c-2.74,1.6-5.24,3-7.34,4.23l-1.32.76-.16.1c-.46.26-.88.52-1.28.74h0l-.62.36-.7.42-2.83,1.64-.16.1s-.06,0-.1,0l-.12.08-4.88-2.82-3-1.74L251.27,162l-11-6.36-4.32-2.49v0l-3.9-2.24-8.21-4.76-7.41-4.28-6.48-3.73-.2-.12-.16-.08a1.85,1.85,0,0,0,.1-.18,17.42,17.42,0,0,0,1.08-2.06c.32-.84,3.82-3.66,6.66-5.86s5-5.13,8.33-7.29c3-2,4-2.28,6-3.44.22-.12.44-.24.7-.4,0,0,.06,0,.1,0C235,117.16,238.24,117,240,116s9.33-4.33,9.33-4.33,5.16-2.16,9.65-3.84a56,56,0,0,1,6.52-2h0a31.55,31.55,0,0,1,19.69,1.28c4.69,1.8,9.35,4,13.15,7.27,5,4.36,8.13,10.38,10.73,16.43.46,1.06,3.73-3.95,4.47-3.1a2.12,2.12,0,0,0,.2.24,15,15,0,0,1,2.08,4.76,26.8,26.8,0,0,0,1.16,3.4,3.24,3.24,0,0,0,.2.36,15.49,15.49,0,0,0,2.5,2.84s0,0,0,0c1.22,1.2,2.44,2.19,2.64,2.35Z" transform="translate(-62.99 -43.14)"></path><path class="cls-20" d="M325.81,134.07h0a29.06,29.06,0,0,0-5.22-5.3,35.88,35.88,0,0,0-8.51-4.91,43.59,43.59,0,0,0-4.64-1.64c-2.1-3.72-5.3-6.66-8.3-9.19a55.6,55.6,0,0,0-10.05-7.18,32.45,32.45,0,0,0-3.38-1.56c-5-1.94-9.61-2-15.24-.24a.07.07,0,0,0,0,0l-1.18.4c-1.2.42-2.42.86-3.68,1.34h0A80.35,80.35,0,0,0,254,111c-4.72,1.56-8.66,4.53-11.91,7-1.38,1-2.76,2.1-4.12,3.2a15.47,15.47,0,0,0-5.48-2.58.46.46,0,0,0-.22-.06,15.84,15.84,0,0,0-11,1.36l-.7.34c-3.51,1.82-8.37,4.28-10.33,9.17a14.4,14.4,0,0,0-.58,8.28l.06.26.2.12h0l6.46,3.73,7.41,4.28,8.21,4.76,3.9,2.26,4.32,2.49.42-.68c.3-.46.58-.91.88-1.39.62-1,1.24-2.1,1.78-3.24,0-.1.1-.2.14-.32a26.37,26.37,0,0,0,2.23-9.51c.28-.16.56-.3.84-.44,2.9-1.58,5.88-3.12,8.94-4.54-.5,1.06-.92,2.1-1.3,3.1a48.18,48.18,0,0,0-3.5,16.08c0,1.08,0,2.18.08,3.26a30.15,30.15,0,0,0,.52,4l10.15,5.85a28.37,28.37,0,0,1-2.42-7.73,36.58,36.58,0,0,0,5.7,4.28c1.64,1,3.32,2.1,5.08,3.08a20.63,20.63,0,0,1-3.3,1.47l-.4.14-.62.2s0,0,0,0a9.83,9.83,0,0,1-1,.3l4.88,2.82.12-.08.1,0,.16-.1,2.83-1.64.7-.42.1,0,.52-.32h0c.4-.22.82-.48,1.28-.74a.7.7,0,0,0,.16-.1c.42-.24.86-.48,1.32-.76,2.1-1.19,4.6-2.63,7.34-4.23a2.71,2.71,0,0,1-.4,0,34.21,34.21,0,0,0,3.77-8.76c0,.2,0,.4-.08.6a38.45,38.45,0,0,0-.18,6.4c.3-.16.6-.34.88-.5l1.56-.9.92-.54,4.68-2.7c0-.26,0-.52.06-.78a15.71,15.71,0,0,1,3.42-8.37A23.39,23.39,0,0,1,301,146l.18.7a13.58,13.58,0,0,1,.16,6.34,7.29,7.29,0,0,1-.28.94l1.68-1,6.18-3.56.54-.32.12-.08a20.57,20.57,0,0,0-.3-2.72c0-.16-.06-.34-.1-.5a27.5,27.5,0,0,0-2-6.15c.2-.32.4-.64.58-1,.28.62.54,1.24.78,1.88.06.12.1.24.16.37a33.13,33.13,0,0,1,2,7.44l2.33-1.34,3-1.76.32-.18.78-.46.86-.5a42.93,42.93,0,0,0-1.52-5c-.62-1.72-1.34-3.4-2.1-5q.63.45,1.2.9c.06.06.14.1.2.16a16.73,16.73,0,0,1,1.4,1.24,20.84,20.84,0,0,1,2.5,2.84s0,0,0,0a21.09,21.09,0,0,1,1.74,2.87l.9-.52,2-1.13c1.39-.8,2.75-1.6,4.05-2.34A28.51,28.51,0,0,0,325.81,134.07Zm-53.24-22.32c4-1.34,6.88-1.34,10.24,0a37.72,37.72,0,0,1,10.33,6.67l.6.5a1.14,1.14,0,0,0-.26,0c-.54-.08-1.06-.1-1.6-.14l-.22-.18c-2.6-2.22-5.74-3.12-8.27-3.86C279.87,113.69,276.25,112.65,272.57,111.75Zm27,16.84,1,.18a11.29,11.29,0,0,1,1.1.58,8.21,8.21,0,0,1,.12,1.72c-.3-.38-.58-.74-.88-1.08A17.8,17.8,0,0,0,299.57,128.59Zm-81.12,10.34a11.61,11.61,0,0,1-.65-1.68,7.38,7.38,0,0,1-.16-4.84c.77-1.94,3.33-3.38,5.79-4.64.26-.14.52-.28.78-.39l.72-.38a8,8,0,0,1,3.68-.9,7.75,7.75,0,0,1,3.27.72c-3.93,4.17-7,9-8,14.78C222,141.7,219.59,141.3,218.45,138.93Zm31.82-9.8c-1.86.9-3.68,1.82-5.43,2.74-.14-.56-.32-1.14-.52-1.7a41.74,41.74,0,0,1,12.89-11.79,8.42,8.42,0,0,1,1-.24,19.17,19.17,0,0,1,6.49.08c1.16.18,2.32.42,3.46.68,2.46.56,4.93,1.2,7.37,1.88l-.34.1a81.9,81.9,0,0,0-12.15,3A106.23,106.23,0,0,0,250.27,129.13Zm25.34,32.38a63.5,63.5,0,0,1-6.59-3.86,35.49,35.49,0,0,1-3.44-2.4q-.42-.33-.78-.66a8.57,8.57,0,0,1-1.76-2.13c-1.2-2.12-1.28-5.18-.18-8.2a13.92,13.92,0,0,1,.68-1.58,15.68,15.68,0,0,1,4.12-5.27,6.51,6.51,0,0,1,2.82-1.56,4.92,4.92,0,0,1,.56,0,6.31,6.31,0,0,1,1.93.38,6.61,6.61,0,0,1,1.32.62,12.3,12.3,0,0,1,5.56,7.71,7.75,7.75,0,0,1,.22,1,15.9,15.9,0,0,1,.24,2C280.53,152.88,278,157.93,275.61,161.51ZM288,151.78c.06-.48.12-.94.16-1.42a21.72,21.72,0,0,0,.08-3.22,1.94,1.94,0,0,0,0-.34,22.1,22.1,0,0,0-2.73-9.43c-.07-.12-.14-.26-.22-.38-.16-.28-.32-.54-.5-.8a18.45,18.45,0,0,0-8.54-7.28c.26-.1.52-.18.78-.26,1.54-.24,3.08-.44,4.64-.58,2-.2,4-.3,6-.32.26,0,.52,0,.78,0a19,19,0,0,0,1.36,2.28,20.86,20.86,0,0,0,3.22,3.38,19.49,19.49,0,0,1,1.82,1.74l.38.46c.7.86,1.48,1.88,2.26,3.06l-.9.74a32,32,0,0,0-4,3.67A21.82,21.82,0,0,0,288,151.78Z" transform="translate(-62.99 -43.14)"></path><path class="cls-21" d="M316.54,139.17c-.18-1.34-.42-2.66-.7-4-.16-.8-.34-1.6-.56-2.4a49.19,49.19,0,0,0-1.48-4.88c-.52-1.39-1.1-2.75-1.73-4.07a28.44,28.44,0,0,0-11.7-12.71,67.59,67.59,0,0,0-11.29-5.3,35.86,35.86,0,0,0-10-2,62,62,0,0,0-8.65.18.07.07,0,0,0,0,0A96.41,96.41,0,0,0,257,106.29a58.2,58.2,0,0,0-13.79,4.58,51.24,51.24,0,0,0-10.9,7.69c-.2.16-.4.34-.58.5-.33.32-.65.6-1,.9a67.42,67.42,0,0,0-7.3,7.81,37.94,37.94,0,0,0-5.63,9.48q-.45,1.11-.78,2.22a20.93,20.93,0,0,0-.62,2.35l7.41,4.28a18.93,18.93,0,0,1,.36-2.54c1-4.85,4.14-9.91,9.41-15.27-3.43,6.08-2.39,14-.1,20,.24.66.52,1.3.8,1.9a24.6,24.6,0,0,0,1.64,3v0l4.32,2.49,11,6.36,10.15,5.85,3,1.74,4.88,2.82.12-.08.1,0,.16-.1a25.93,25.93,0,0,1-4.22-2.9s0,0,0,0l-.4-.34,1,.14c2.56.34,5.16.58,7.75.68h0c.4-.22.82-.48,1.28-.74a.7.7,0,0,0,.16-.1c.42-.24.86-.48,1.32-.76,2.1-1.19,4.6-2.63,7.34-4.23l3.11-1.8c.3-.16.6-.34.88-.5l1.56-.9.92-.54c4.42-3.68,6.66-9.47,8.36-15.33.37-1.3.79-2.78,1.13-4.35a8,8,0,0,1,1.2,3.69,15.58,15.58,0,0,1,.08,2.56,21.19,21.19,0,0,1-2.43,8.61l2.27-1.29,0,0,1.68-1,6.18-3.56v0a24.42,24.42,0,0,0,.26-3.6c0-.32,0-.66,0-1,0,.48.08,1,.12,1.48.06.9.12,1.84.18,2.8l.12-.08,1.14-.66,2.33-1.34,3-1.76.32-.18.78-.46C317,142.86,316.84,141,316.54,139.17Zm-34.47,2.61c-.56.7-1.12,1.42-1.74,2.16-.16.2-.32.4-.48.58q-.93,1.08-1.8,2a39.2,39.2,0,0,1-4.9,4.6c-.44.34-.86.66-1.29.94l0,0a19.15,19.15,0,0,1-2.14,1.36,23.28,23.28,0,0,1-4.1,1.77,23.51,23.51,0,0,1-2.8.82l-.48.12c-1.32-.12-2.64-.3-3.93-.48a22.19,22.19,0,0,1,.51-6.77c.58-2.44,2.34-4.48,4.66-6.26a49.54,49.54,0,0,1,7.2-4.43,17.19,17.19,0,0,1,3.55-1.44c3.16-.92,6.32-.86,10.3-.64a.75.75,0,0,1,.2,0,7.5,7.5,0,0,1,.93.06l-.43.74a7.17,7.17,0,0,1-.36.64A45.83,45.83,0,0,1,282.07,141.78Zm-35.3,11a9.67,9.67,0,0,1-1.44-.9,11.31,11.31,0,0,1-1.87-1.86,16,16,0,0,1-2-3.22c-2.26-4.86-3.16-11.63-.54-15.23,3.4-4.65,7.45-9.83,12.85-12.57a31.61,31.61,0,0,1,13.85-2.86,37.37,37.37,0,0,1,5,.32,32.66,32.66,0,0,0-7.91,1.8,33.43,33.43,0,0,0-8.89,4.76,21.41,21.41,0,0,0-5.56,6.15,28.37,28.37,0,0,0-3.74,10.9,41.05,41.05,0,0,0-.4,5.33A35.36,35.36,0,0,0,246.77,152.74Zm41.47-24.59v.28c-1.1-.1-2.18-.16-3.21-.22s-2.26-.12-3.36-.14c-5-.12-9.48.36-14.67,3.12-3.6,1.92-8.89,4.72-12.47,9.14.84-4.92,2.88-8.6,6-11a25.72,25.72,0,0,1,15.21-5.07,21,21,0,0,1,11.85,3.45C287.84,127.87,288,128,288.24,128.15Zm-4.51,26.92a13.33,13.33,0,0,1-4,1,57.81,57.81,0,0,0,6.77-7.05c.62-.76,1.22-1.5,1.78-2.24,1-1.36,2-2.68,2.82-4a38.6,38.6,0,0,1-2.88,7.54A10.73,10.73,0,0,1,283.73,155.07Zm25.1-13.23c-.08-.42-.18-.82-.28-1.21a15.11,15.11,0,0,0-2.2-4.88,12.8,12.8,0,0,0-5.42-4.44c-.34-.16-.66-.28-1-.42a14.26,14.26,0,0,0-1.87-4.09,15,15,0,0,0-2.22-2.62,15.93,15.93,0,0,0-2.38-5.3c-.1-.16-.22-.32-.34-.48l-.42-.56a19.23,19.23,0,0,0-2.08-2.14,20.82,20.82,0,0,0-1.62-1.36,82.47,82.47,0,0,1,7.5,3.78c5.51,3.06,9.27,9,11.29,18,.36,1.54.66,3.18.9,4.89Z" transform="translate(-62.99 -43.14)"></path><g class="cls-22"><path class="cls-23" d="M302.34,144.13a14.09,14.09,0,0,1-2-7.23c-.07-.79-.3-1.34-.48-.78a2.11,2.11,0,0,0,.31,1.45,3.2,3.2,0,0,0,.77.85c.28.19.49.2.53.09s-.5-.85-1.28-2.07a9.31,9.31,0,0,1-.51-1,6.13,6.13,0,0,1-.17-.72,4.85,4.85,0,0,1-.06-1.17c.05-.69.16-1.21.22-1.64,0-.26.13-.27,0-.65a8.89,8.89,0,0,1-.37-1.1,7.66,7.66,0,0,1-.41-2.58,4.14,4.14,0,0,1,.47-1.68,5.09,5.09,0,0,1,1.09-1.32c.71-.58,1.14-1,.87-1.14a1.88,1.88,0,0,0-1.26.39,2.88,2.88,0,0,0-.91.81c-.26.3-.2.95-.31,1.14-.11.58-.35.6-1.23.48-.29-.07-.33,0-.35,0s0,.15.18.26a2.68,2.68,0,0,0,1.09.3,5.19,5.19,0,0,0,2.64-.54,5.84,5.84,0,0,0,1.44-1,6,6,0,0,0,1-1.15c.43-.68.47-.9.41-.64a9.86,9.86,0,0,1-1,2.07,8.84,8.84,0,0,1-3.35,3.1,8.58,8.58,0,0,1-4,1,8.87,8.87,0,0,1-2.69-.42,9.29,9.29,0,0,1-3.16-1.76,12.27,12.27,0,0,1-2.39-3.25,11.67,11.67,0,0,1-1.1-8.14l1.14-.81,6.93.37c.87,0,1.79.15,2.39.15,0-.18,0-.38-.46-.62a2.83,2.83,0,0,0-1.24-.26,5.26,5.26,0,0,0-2.59.62,6,6,0,0,0-2.3,2.11c-.4.69-.45,1-.36.72a11.08,11.08,0,0,1,1-2,7.88,7.88,0,0,1,1.45-1.73,8.73,8.73,0,0,1,2-1.4,8.33,8.33,0,0,1,4.05-.85A8.84,8.84,0,0,1,301,113a9.68,9.68,0,0,1,1.57.74,6.53,6.53,0,0,1,1,.67,14.34,14.34,0,0,1,3.61,3.72,8,8,0,0,1,1.18,3.64,7.32,7.32,0,0,1-.74,3.7,5.69,5.69,0,0,1-2.82,2.8,2.67,2.67,0,0,1-1.7.25c-.06-.08.14-.51.07-.59a.93.93,0,0,0,.24.24,1.22,1.22,0,0,0,.39.15,6,6,0,0,1,.82.56,6.52,6.52,0,0,0,1.67.92,1.58,1.58,0,0,0,.69.09.5.5,0,0,0,.24-.12,1.64,1.64,0,0,0,0-.44c-.08-.54.2-.68,1.09-.35a5.5,5.5,0,0,1,1.65,1,7.71,7.71,0,0,1,2.48,6.36,8.15,8.15,0,0,1-2,4.85,13,13,0,0,1-6.77,3.47Z" transform="translate(-62.99 -43.14)"></path></g><g class="cls-24"><path class="cls-25" d="M290.22,145.32a20.47,20.47,0,0,1,1.35,7.39,5.79,5.79,0,0,1-.49,2.21c-.7,1.14-1,1.41-1.23.67-.11-.33-.19-1.34-.69-1.38s-1,.39-1.62,1.17a10.14,10.14,0,0,1-2.42,2.22,19.38,19.38,0,0,1-2.06.91,12.44,12.44,0,0,0-3,1.64c-1,.62-1.71,1.54-1.44,2.34a1.68,1.68,0,0,0,.28.55c.07.08.14.17.21.24a1.64,1.64,0,0,1,.05.32,3.38,3.38,0,0,1-.19,1.45,6.85,6.85,0,0,1-3.2,3.24,13.06,13.06,0,0,1-6.54,1.73,10.85,10.85,0,0,1-5.75-1.66,10.5,10.5,0,0,1-2.14-1.78c-.69-.72-.89-1.18-.79-1.37s.59-.08,1.5,0a3.26,3.26,0,0,0,.69,0c.09,0,.18-.08.27-.12a1.7,1.7,0,0,0,.46-.4,1.24,1.24,0,0,0,.17-.27,3.84,3.84,0,0,1-.3-.28l-.6-.61a11.75,11.75,0,0,1-1.22-1.35,20.87,20.87,0,0,1-2.42-3.69v-1.8a20.58,20.58,0,0,1,2.4-3.71,11.83,11.83,0,0,1,1.2-1.36l.6-.61a2.69,2.69,0,0,1,.3-.29l.78-.21a10.23,10.23,0,0,1,1.67-.29l.86-.07a6.34,6.34,0,0,1,1.26.2,18.33,18.33,0,0,1,3.53,1.33c.72.33,1.1.42,1.05.18a.69.69,0,0,0-.12-.46c-.18-.26-.59-.32-1.19-.17a3.87,3.87,0,0,0-1.79,1.15c-.34.53,0,.74.95.82.47,0,1.09.05,1.79.07H273l.73-.06a7.9,7.9,0,0,1,1.39.05,11.31,11.31,0,0,1,3.2,1.06c.52.24,1.26,0,1.33-.49a.8.8,0,0,0-.33-.76c-.32-.2-.95.09-1.42,0s-.91-.31-1.23-1.22a6.77,6.77,0,0,1,.11-3.64c.53-2.15,1.36-3.07,1.65-3.19a7.64,7.64,0,0,1,2.56-1.54c2-.71,4.51-.94,8,.44Z" transform="translate(-62.99 -43.14)"></path></g><g class="cls-22"><path class="cls-23" d="M254.8,129.59c0,.42.12.93.14,1.27l.08,1c0,.67.15,1.4.14,1.85a9,9,0,0,1,0,1.37,3.41,3.41,0,0,0,.05,1c.15.48,1,.51,2-.58s.87-1.86.27-1.73c-1.24.42-4.21.91-4.89,1.76a.72.72,0,0,0-.21.36,5.57,5.57,0,0,1-.39,1.31,3.44,3.44,0,0,1-1.82,1.68c-.59.23-.86.3-.89.4a4.37,4.37,0,0,0,2.16.88,4.69,4.69,0,0,0,2.61-.19c.38-.1.68-.52.86-.63a1,1,0,0,1,.52-.19c.34,0,.73.29,1.06,1a4.41,4.41,0,0,1,.35,1.31,6.34,6.34,0,0,1,0,.89,11,11,0,0,1-.13,1.43,10.69,10.69,0,0,1-1.44,3.86,9.13,9.13,0,0,1-3.23,3.18c-2.24,1.22-3.26.77-3.6.27a2.81,2.81,0,0,1-.28-1.16,7.37,7.37,0,0,0-.12-.73s0-.05,0-.11a4.57,4.57,0,0,0,.29-.47,5.68,5.68,0,0,0,.54-1.39,3.82,3.82,0,0,0-.25-2.72c-.25-.33-.26-.16-.2.71a4.74,4.74,0,0,1-.26,1.79,3.76,3.76,0,0,1-1,1.51,4,4,0,0,1-2.42.94c-.31-.09-.24-.26-.37-.39a20.9,20.9,0,0,1-1.09-1.84L243,145.5a19.92,19.92,0,0,1,.38-2.11c0-.15.18-.34,0-.46a3.11,3.11,0,0,0-2.09.79,3.44,3.44,0,0,0-.93,1.36,4.88,4.88,0,0,0-.25,1.6c0,.74,0,.8-.31.35a4.51,4.51,0,0,1-.25-3.08,6,6,0,0,1,.63-1.55,6.37,6.37,0,0,1,.35-.55.77.77,0,0,0,0-.17,8.2,8.2,0,0,1,.45-1.21,17.07,17.07,0,0,1,1-1.94c.53-.95.45-1.78-1-1.18a5.63,5.63,0,0,0-2.31,2,6.64,6.64,0,0,0-.72,1.36,6,6,0,0,0-.33,1.07c-.08.21-.07.67-.1.68s0,.12,0,.15.11,0,.2-.17a7.68,7.68,0,0,0,.71-2c.14-.49.27-1.06.49-1.67a6.33,6.33,0,0,1,1-2.1,8.67,8.67,0,0,1,3.9-2.85,11.21,11.21,0,0,1,2.41-.61,9.29,9.29,0,0,1,2.27.06c.22.07.2.13-.16.28a2.59,2.59,0,0,0-1.26,1.22c-.21.47-.18.62-.21.59a2.6,2.6,0,0,0-.12-.38c-.41-1.12-3.14-2.59-4.07-4.13-.41-.84-.26-2.59,1.29-4.51a5.87,5.87,0,0,1,4.26-2.46,3.09,3.09,0,0,1,1.38.38,6.48,6.48,0,0,1,1.36.75,9.21,9.21,0,0,1,1.49,1.21l.75.7c.24.24.55.64.82,1Z" transform="translate(-62.99 -43.14)"></path></g><g class="cls-24"><path class="cls-25" d="M280.31,116.76c-.35.23-.75.54-1,.72l-.87.54c-.57.36-1.16.79-1.56,1a10.35,10.35,0,0,1-1.21.66,3.12,3.12,0,0,0-.91.52c-.36.36,0,1.14,1.44,1.5s2-.09,1.66-.57c-.95-.9-2.77-3.29-3.84-3.5a.8.8,0,0,0-.41,0,5.37,5.37,0,0,1-1.34.27,3.49,3.49,0,0,1-2.34-.83c-.48-.41-.67-.62-.77-.6a4.43,4.43,0,0,0,.23,2.32,4.67,4.67,0,0,0,1.39,2.23c.26.28.77.35,1,.45a1.05,1.05,0,0,1,.4.38c.14.31.09.78-.37,1.39a4.36,4.36,0,0,1-1,.93,8.5,8.5,0,0,1-.76.45,13.71,13.71,0,0,1-1.32.55,10.93,10.93,0,0,1-1.81.43,10.06,10.06,0,0,1-2.28.09,9.2,9.2,0,0,1-4.33-1.37c-2.12-1.42-2.19-2.53-1.91-3.07a3.08,3.08,0,0,1,.89-.78c.18-.16.4-.26.59-.44,0,0,0-.06.1-.07a4.93,4.93,0,0,0,.55,0,5.77,5.77,0,0,0,1.48-.17,3.78,3.78,0,0,0,2.28-1.48c.19-.38,0-.31-.72.14a4.74,4.74,0,0,1-1.69.61,3.66,3.66,0,0,1-1.82-.19,4.11,4.11,0,0,1-2-1.7c-.06-.32.12-.34.17-.52.32-.55.64-1.12,1.13-1.81l1.42-1.1a18.35,18.35,0,0,1,2-.64c.13-.09.38,0,.41-.23a3.07,3.07,0,0,0-1.68-1.47,3.34,3.34,0,0,0-1.63-.19,4.65,4.65,0,0,0-1.53.52c-.64.38-.73.35-.45-.11a4.49,4.49,0,0,1,2.6-1.66,6.15,6.15,0,0,1,1.67-.16c.21,0,.43,0,.64,0a.69.69,0,0,0,.18,0,8.45,8.45,0,0,1,1.28-.16,18.11,18.11,0,0,1,2.17,0c1.1,0,1.79-.43.58-1.44a5.57,5.57,0,0,0-2.88-1.09,6.1,6.1,0,0,0-1.54,0,5,5,0,0,0-1.1.2c-.22,0-.63.25-.65.23s-.11,0-.12.09.07.1.24.11a7.84,7.84,0,0,0,2.09-.3c.5-.1,1.06-.26,1.7-.35a6.79,6.79,0,0,1,2.35-.06,8.55,8.55,0,0,1,4.33,2.13,10.47,10.47,0,0,1,1.67,1.85,9.11,9.11,0,0,1,1,2c0,.23,0,.23-.33,0a2.65,2.65,0,0,0-1.66-.55c-.51,0-.64.14-.63.09a2.4,2.4,0,0,0,.29-.28c.79-.88.83-4,1.75-5.53.56-.76,2.17-1.43,4.59-1a5.85,5.85,0,0,1,4.16,2.63,3,3,0,0,1,.31,1.39,6.24,6.24,0,0,1,0,1.55,9.86,9.86,0,0,1-.38,1.89l-.28,1c-.09.32-.3.78-.45,1.16Z" transform="translate(-62.99 -43.14)"></path></g><path class="cls-26" d="M265.52,119.38s0,.06,0,.1c-.56.86-7.05,2.94-8.11,2.8s-4.06-2.24-4.06-2.62.82-10.43.94-10.61a17.87,17.87,0,0,1,4-1.26l3.61,1.54,0,0C262.1,109.85,265.78,118.06,265.52,119.38Z" transform="translate(-62.99 -43.14)"></path><path class="cls-27" d="M265.52,119.38s0,.06,0,.1c-.56.86-7.05,2.94-8.11,2.8l.34-9.19,4.15-3.76,0,0C262.1,109.85,265.78,118.06,265.52,119.38Z" transform="translate(-62.99 -43.14)"></path><path class="cls-27" d="M307.16,137.71s-6.28.21-6.7.88-9.23,13.32-9,14a34.57,34.57,0,0,1,1.13,3.92c-.11,0,2.8.75,2.8.75l10.18-5.87,1.56-10.27Z" transform="translate(-62.99 -43.14)"></path><polygon class="cls-26" points="235.41 112.43 232.43 114.13 229.63 113.38 228.5 109.47 235.41 112.43"></polygon><path class="cls-27" d="M283,141.24c-1.24,1.74-8,8.9-12.73,11.9a5.08,5.08,0,0,1-.94.28c-3.34.7-6.74-2-7.18-3s.24-5.8.48-7.1c0-.22.54-.54,1.36-.94,4.14-2,16.29-5.73,16.29-5.73l3.38,1A4.14,4.14,0,0,1,283,141.24Z" transform="translate(-62.99 -43.14)"></path><path class="cls-26" d="M269.3,153.42c-3.34.7-6.74-2-7.18-3s.24-5.8.48-7.1c0-.22.54-.54,1.36-.94a4.74,4.74,0,0,1,3,1.24c1.06,1.24,1.22,5.66,1.22,5.66A9.35,9.35,0,0,0,269.3,153.42Z" transform="translate(-62.99 -43.14)"></path><path class="cls-27" d="M293,116a15.66,15.66,0,0,0-.92,3c0,.69,6.83,9.77,7.91,10.43s5.74.4,5.74.4.94-3.66.86-3.68-10-10.07-10-10.07Z" transform="translate(-62.99 -43.14)"></path><path class="cls-26" d="M293,116a23,23,0,0,0-.84,2.47c-.05.3-.08.5-.08.5s.43.75,1.09,1.84c2,2.87,6,8.09,6.82,8.59a5.26,5.26,0,0,0,1.21-3.12S296.52,117.41,293,116Z" transform="translate(-62.99 -43.14)"></path><path class="cls-27" d="M241.22,124.65s-6.42-.81-7-1.09-11.54,13.75-11.95,14.67-.26,6.87-.26,6.87l8.81,5.09,5.54-5.76,6.31-15.28Z" transform="translate(-62.99 -43.14)"></path><path class="cls-26" d="M232.05,142.39a20.46,20.46,0,0,1-.54,4.75,17.35,17.35,0,0,0-.65,3.05l-8.81-5.09s-.45-5.16.26-6.87S232.05,142.39,232.05,142.39Z" transform="translate(-62.99 -43.14)"></path><path class="cls-28" d="M222.31,138.23a8,8,0,0,0,3.83,3.48,12.35,12.35,0,0,0,5.91.68,76.39,76.39,0,0,1,4.75-8,35.41,35.41,0,0,0,4.42-9.75l-7-1.09S225.67,133.15,222.31,138.23Z" transform="translate(-62.99 -43.14)"></path><path class="cls-28" d="M262.61,143.34s4.17,5.63,5.58,6,8.83-6.67,9.58-6.92,5.85-4.68,5.85-4.68l-3.37-1S266.19,140.29,262.61,143.34Z" transform="translate(-62.99 -43.14)"></path><path class="cls-28" d="M254.24,109s2.13,4,3.46,4,4.16-3.75,4.16-3.75l-3.62-1.55A15.72,15.72,0,0,0,254.24,109Z" transform="translate(-62.99 -43.14)"></path><path class="cls-28" d="M307.16,137.71l-4,15-4.81,2.81-6.91-3s-.34-.44,9-14C302.89,137.09,307.16,137.71,307.16,137.71Z" transform="translate(-62.99 -43.14)"></path><path class="cls-28" d="M293,116s7.39,8.53,8.2,10.28a41.81,41.81,0,0,0,5.39-.16l-10-10.07Z" transform="translate(-62.99 -43.14)"></path><path class="cls-29" d="M298.88,129.19a1.92,1.92,0,1,1-1.92-1.92A1.92,1.92,0,0,1,298.88,129.19Z" transform="translate(-62.99 -43.14)"></path><path class="cls-30" d="M292.7,120.68a1.92,1.92,0,1,1-1.92-1.92A1.92,1.92,0,0,1,292.7,120.68Z" transform="translate(-62.99 -43.14)"></path><path class="cls-29" d="M283.12,116.7a1.92,1.92,0,1,1-1.92-1.92A1.92,1.92,0,0,1,283.12,116.7Z" transform="translate(-62.99 -43.14)"></path><path class="cls-30" d="M304.84,137.83a1.92,1.92,0,1,1-1.92-1.92A1.92,1.92,0,0,1,304.84,137.83Z" transform="translate(-62.99 -43.14)"></path><path class="cls-30" d="M290.78,149.36a1.92,1.92,0,1,1-1.92-1.92A1.92,1.92,0,0,1,290.78,149.36Z" transform="translate(-62.99 -43.14)"></path><path class="cls-29" d="M263.11,155.3a1.92,1.92,0,1,1-1.92-1.92A1.92,1.92,0,0,1,263.11,155.3Z" transform="translate(-62.99 -43.14)"></path><path class="cls-30" d="M252.89,143.48a1.92,1.92,0,1,1-.68,2.63A1.92,1.92,0,0,1,252.89,143.48Z" transform="translate(-62.99 -43.14)"></path><path class="cls-29" d="M244.55,153.63a1.92,1.92,0,1,1-.09-2.72A1.93,1.93,0,0,1,244.55,153.63Z" transform="translate(-62.99 -43.14)"></path><path class="cls-29" d="M257.29,136.51a1.92,1.92,0,1,1-.08-2.72A1.91,1.91,0,0,1,257.29,136.51Z" transform="translate(-62.99 -43.14)"></path><path class="cls-29" d="M286.37,129.51a1.92,1.92,0,1,1-.08-2.72A1.91,1.91,0,0,1,286.37,129.51Z" transform="translate(-62.99 -43.14)"></path><path class="cls-29" d="M268.05,140.62a1.92,1.92,0,1,1-.09-2.72A1.93,1.93,0,0,1,268.05,140.62Z" transform="translate(-62.99 -43.14)"></path><path class="cls-30" d="M242,144.81a1.92,1.92,0,1,1-.09-2.72A1.93,1.93,0,0,1,242,144.81Z" transform="translate(-62.99 -43.14)"></path><path class="cls-30" d="M220.44,135.74a1.92,1.92,0,1,1-.08-2.72A1.91,1.91,0,0,1,220.44,135.74Z" transform="translate(-62.99 -43.14)"></path><path class="cls-29" d="M232,128.44a1.92,1.92,0,1,1-.08-2.71A1.91,1.91,0,0,1,232,128.44Z" transform="translate(-62.99 -43.14)"></path><path class="cls-30" d="M243.27,136.09a1.92,1.92,0,1,1-.09-2.71A1.91,1.91,0,0,1,243.27,136.09Z" transform="translate(-62.99 -43.14)"></path><path class="cls-29" d="M248.39,128.14a1.92,1.92,0,1,1-.09-2.72A1.93,1.93,0,0,1,248.39,128.14Z" transform="translate(-62.99 -43.14)"></path><path class="cls-30" d="M242.63,119.3a1.92,1.92,0,1,1-.09-2.72A1.93,1.93,0,0,1,242.63,119.3Z" transform="translate(-62.99 -43.14)"></path><path class="cls-29" d="M253.34,114.06a1.92,1.92,0,1,1-.08-2.72A1.91,1.91,0,0,1,253.34,114.06Z" transform="translate(-62.99 -43.14)"></path><path class="cls-30" d="M267.39,120.22a1.92,1.92,0,1,1-.08-2.72A1.91,1.91,0,0,1,267.39,120.22Z" transform="translate(-62.99 -43.14)"></path><path class="cls-30" d="M275.52,112.07a1.92,1.92,0,1,1-.09-2.72A1.93,1.93,0,0,1,275.52,112.07Z" transform="translate(-62.99 -43.14)"></path><path class="cls-30" d="M304.32,118a1.92,1.92,0,1,1-.08-2.71A1.93,1.93,0,0,1,304.32,118Z" transform="translate(-62.99 -43.14)"></path><path class="cls-30" d="M311.78,131.14a1.92,1.92,0,1,1-.09-2.71A1.93,1.93,0,0,1,311.78,131.14Z" transform="translate(-62.99 -43.14)"></path><path class="cls-29" d="M277.4,147.3a1.92,1.92,0,1,1-1.92-1.92A1.92,1.92,0,0,1,277.4,147.3Z" transform="translate(-62.99 -43.14)"></path><path class="cls-30" d="M294.09,139.37a1.92,1.92,0,1,1-1.92-1.92A1.92,1.92,0,0,1,294.09,139.37Z" transform="translate(-62.99 -43.14)"></path><path class="cls-29" d="M312.3,143.49a1.92,1.92,0,1,1-1.92-1.92A1.92,1.92,0,0,1,312.3,143.49Z" transform="translate(-62.99 -43.14)"></path><path class="cls-31" d="M290.18,124.79a13.66,13.66,0,0,0-5.07-1.86,10.73,10.73,0,0,0-2.52-.12c-.81,0-1.25.33-1.23.43l-3.05-1c-.07.42.35.72.26.68l-.35-.09c-.4-.08-1-.12-1.51-.18l-3.54-.19c-1.19,0-2.69-.26-3.57-.25a3.38,3.38,0,0,0-1.47.49,4.5,4.5,0,0,1-2.1.61c-.7,0-1.32,0-1.9,0a8.6,8.6,0,0,0-1.75.26,7.73,7.73,0,0,0-3,1.45c-.15.17-.11.44-.23,1.26a4.32,4.32,0,0,1-1.21,2.24,17.89,17.89,0,0,0-2.35,2.62c-.34.45-.66.94-1,1.44a5.42,5.42,0,0,0-.68,1.12c.05,0,0,0,.2.32s.51.8.9,1.42a6.69,6.69,0,0,1,.79,5.16,10.23,10.23,0,0,1-2.34,3.84c-.7.92-.88,1.12-.85,1.94a10.31,10.31,0,0,0,1,3,7.06,7.06,0,0,1,.66,4.32,6.55,6.55,0,0,0,0,3.44l-.36.18a6.49,6.49,0,0,1-1.41-3.8,5.83,5.83,0,0,0-1.33-2.76,11.48,11.48,0,0,1-2.07-3.72,5.64,5.64,0,0,1,0-2.77,7.42,7.42,0,0,1,1.08-2.24,8.26,8.26,0,0,0,1.47-2.52,2.79,2.79,0,0,0-.27-2.05c-.22-.45-.59-1-.93-1.82a4.29,4.29,0,0,1-.13-3.3,7.63,7.63,0,0,1,1.37-2c.4-.49.85-1,1.32-1.47a13.73,13.73,0,0,1,3.17-2.4,2,2,0,0,0,.84-.81l.35-.93a2.57,2.57,0,0,1,.89-1.14,8.66,8.66,0,0,1,2-.83,16.28,16.28,0,0,1,1.92-.47,35.91,35.91,0,0,1,3.78-.35,2.78,2.78,0,0,0,1.37-.66,5.59,5.59,0,0,1,1.86-1.15,12.93,12.93,0,0,1,2.05-.46c.55-.11,1.2-.25,1.82-.35a18,18,0,0,1,3.92-.28,9,9,0,0,1,2.19.32,4.44,4.44,0,0,1,.64.22,3,3,0,0,1,2,2.54l-3.05-1a3.84,3.84,0,0,1,2.09-1.26,6,6,0,0,1,1.91-.1,11.7,11.7,0,0,1,3.13.79,9.81,9.81,0,0,1,4.66,4Z" transform="translate(-62.99 -43.14)"></path><path class="cls-31" d="M290.84,129.38a12.2,12.2,0,0,1-1.68,5.57,18.3,18.3,0,0,0-1.28,2.4,4.85,4.85,0,0,0-.34,2.33,9,9,0,0,1-.27,3.21,9.15,9.15,0,0,1-1.62,3c-1.38,1.77-3.25,2.84-4.49,3.9s-1.89,2.27-2.88,4a11.94,11.94,0,0,1-4.45,4.9,9.89,9.89,0,0,1-3.28,1.15c-1.06.18-2,.25-2.7.42a9.3,9.3,0,0,0-4,2.28l-1.35-3.08a15.74,15.74,0,0,1,6.26.82,22.27,22.27,0,0,0,2.53.91,4.71,4.71,0,0,0,2.24,0c1.64-.37,3.43-1.43,5.58-1.68s3.94.9,5.85.33c-1.72,1.12-4,.47-5.57,1.07s-3.09,1.77-5.12,2.58a6.82,6.82,0,0,1-3.44.5,25.76,25.76,0,0,1-3-.7,14.38,14.38,0,0,0-5.16-.2l-4.56.35,3.2-3.44a11.65,11.65,0,0,1,5.62-3.49c1.12-.28,2.1-.37,2.9-.53a6.4,6.4,0,0,0,2-.75,7.92,7.92,0,0,0,3.07-3.38,26,26,0,0,1,1.63-2.54,11.51,11.51,0,0,1,2.39-2.34,39,39,0,0,0,4.38-3.12,6.12,6.12,0,0,0,1.31-1.86,7,7,0,0,0,.52-2.38,7,7,0,0,1,1-3.12,19.94,19.94,0,0,1,1.87-2.31A14.21,14.21,0,0,0,290.84,129.38Z" transform="translate(-62.99 -43.14)"></path><g class="cls-24"><path class="cls-32" d="M240.07,126.34a2.47,2.47,0,0,1-1,2.31,2.41,2.41,0,0,1-.8.33,4.09,4.09,0,0,1-.85,0,.82.82,0,0,1-.7-.27c-.07-.09-.13-.17,0-.31a1.14,1.14,0,0,0,.33-1.09c-.2-.32-.23-.06-.2,0a.7.7,0,0,0,.19.32c.35.44,1.18.3,2,1.28l.45.5-1.52,1.22a3.67,3.67,0,0,1-.77.51l-.39.17-.2.07-.05,0a1.36,1.36,0,0,0,.39-.06,1.64,1.64,0,0,0,.78-.54,1.74,1.74,0,0,0,.43-1,.69.69,0,0,0,0-.25,1.53,1.53,0,0,0-.05-.41c-.06-.2-.08-.24,0-.2a2.74,2.74,0,0,1,.83,1.49,2.48,2.48,0,0,1-.19,1.67,2.1,2.1,0,0,1-.6.76c-.33.29-.28,0-.39-.15s-.33.18-.55.52-.58.88-1.1.88l-.28-.29c-.27-.64-1-.47-1.09-1.74a2.83,2.83,0,0,1,.2-1,3.69,3.69,0,0,0,.21-.55c0-.1-.06-.12-.17.06a1.27,1.27,0,0,0-.13.88c.15.57.2.43-.05.13a4.14,4.14,0,0,1-.45-.89,3.14,3.14,0,0,1-.16-.81,3.29,3.29,0,0,1,0-.45,2.27,2.27,0,0,1,.49-1.16,2.47,2.47,0,0,1,1-.61,2,2,0,0,1,.49-.1h0l.21,0c.14,0,.28.06.42.09a3.62,3.62,0,0,1,.86.35l-1.07,1.72c.43-.18.14-.93-.42-1.23-.14-.1-.3-.17-.47-.28s-.42-.08-.68-.7a1.55,1.55,0,0,1,.84-1.71,4.41,4.41,0,0,1,.85-.39,1.75,1.75,0,0,1,1.07-.1c.1,0,.29,0,0,.09a.12.12,0,0,0,.06.12c.23.23,1,.08,1.92.34Z" transform="translate(-62.99 -43.14)"></path></g><g class="cls-22"><path class="cls-33" d="M280.53,141.49a2.43,2.43,0,0,1-2.22,1.21,2.75,2.75,0,0,1-.84-.22,4.43,4.43,0,0,1-.7-.48.86.86,0,0,1-.39-.65c0-.11,0-.2.16-.26s.73-.1.92-.67c0-.38-.15-.19-.18-.09a.62.62,0,0,0,0,.36c0,.56.75,1,.86,2.26l0,.67-1.95,0a3.45,3.45,0,0,1-.92-.06l-.42-.1-.2-.06-.05,0a2,2,0,0,0,.35.19,1.63,1.63,0,0,0,1,0,1.75,1.75,0,0,0,.92-.51A.58.58,0,0,0,277,143a1.3,1.3,0,0,0,.21-.37c.07-.2.08-.23.12-.16a3,3,0,0,1-.24,1.69,2.57,2.57,0,0,1-1.17,1.22,2,2,0,0,1-.94.23c-.44,0-.23-.16-.22-.36s-.37-.05-.75.09-1,.35-1.41,0l-.05-.4c.17-.67-.49-1,.19-2a2.77,2.77,0,0,1,.77-.68,4,4,0,0,0,.5-.31c.08-.06,0-.13-.17,0a1.29,1.29,0,0,0-.64.61c-.23.55-.1.47-.12.07a4.41,4.41,0,0,1,.18-1,2.84,2.84,0,0,1,.37-.74,3.17,3.17,0,0,1,.29-.35,2.26,2.26,0,0,1,1.1-.61,2.21,2.21,0,0,1,1.13.1,2.15,2.15,0,0,1,.45.21l0,0,.15.15c.1.1.19.22.28.33a4,4,0,0,1,.47.79l-1.89.73c.44.12.67-.66.41-1.23-.05-.16-.13-.32-.21-.51a1.14,1.14,0,0,1-.12-1,1.56,1.56,0,0,1,1.72-.85,4.54,4.54,0,0,1,.91.2,1.87,1.87,0,0,1,.91.57c.06.09.2.21,0,.1a.13.13,0,0,0,0,.13c0,.32.71.64,1.32,1.43Z" transform="translate(-62.99 -43.14)"></path></g><g class="cls-24"><path class="cls-32" d="M259.66,116.81a2.43,2.43,0,0,1-1.39-2.11,2.23,2.23,0,0,1,.15-.86,4.39,4.39,0,0,1,.42-.74.85.85,0,0,1,.61-.44c.11,0,.2,0,.27.13s.16.73.75.87c.38,0,.17-.17.07-.19a.66.66,0,0,0-.37,0c-.55.06-.88.83-2.17,1l-.67.11-.21-1.93a3.65,3.65,0,0,1,0-.93c0-.14,0-.28.07-.42l0-.21v-.05a1.38,1.38,0,0,0-.15.37,1.58,1.58,0,0,0,0,.94,1.73,1.73,0,0,0,.58.88,1,1,0,0,0,.2.16,1.49,1.49,0,0,0,.38.17c.2.06.24.07.17.1a2.81,2.81,0,0,1-1.7-.09,2.5,2.5,0,0,1-1.31-1.06,2,2,0,0,1-.32-.92c-.06-.43.14-.24.34-.25s0-.37-.14-.74-.44-1-.16-1.4l.39-.08c.69.11.93-.57,2,0a3,3,0,0,1,.75.7,5.71,5.71,0,0,0,.35.48c.07.07.13,0,0-.18a1.36,1.36,0,0,0-.67-.59c-.56-.18-.48,0-.08-.11a5,5,0,0,1,1,.1,2.55,2.55,0,0,1,.77.3,2.51,2.51,0,0,1,.37.27,2.2,2.2,0,0,1,.71,1,2.35,2.35,0,0,1,0,1.15,2.19,2.19,0,0,1-.18.46l0,0-.14.16c-.09.11-.2.21-.3.31a4.47,4.47,0,0,1-.76.54l-.88-1.83c-.08.46.71.62,1.26.31.16-.06.31-.16.49-.25a1.09,1.09,0,0,1,1-.2,1.55,1.55,0,0,1,1,1.63,3.73,3.73,0,0,1-.13.93,1.8,1.8,0,0,1-.49,1c-.08.06-.19.21-.1,0,0,0-.07,0-.13,0-.31.08-.58.77-1.32,1.44Z" transform="translate(-62.99 -43.14)"></path></g><g class="cls-24"><path class="cls-32" d="M306.2,143.42a2.44,2.44,0,0,1-2.21,1.21,2.51,2.51,0,0,1-.85-.23,4.24,4.24,0,0,1-.7-.48.87.87,0,0,1-.39-.64c0-.11,0-.21.16-.27s.74-.09.92-.67c0-.38-.15-.18-.17-.09a.66.66,0,0,0,0,.37c0,.56.76.95.86,2.25l.05.68-1.94,0a4.59,4.59,0,0,1-.93-.06,2.75,2.75,0,0,1-.41-.11l-.21-.06h-.05a1.47,1.47,0,0,0,.36.18,1.6,1.6,0,0,0,.94,0,1.77,1.77,0,0,0,.93-.5,1.54,1.54,0,0,0,.17-.19,1.48,1.48,0,0,0,.2-.36c.08-.2.09-.23.12-.17a2.76,2.76,0,0,1-.24,1.69,2.57,2.57,0,0,1-1.17,1.22,2.1,2.1,0,0,1-.93.24c-.45,0-.23-.16-.23-.36s-.37-.06-.75.08-1,.35-1.41,0l0-.4c.17-.68-.49-1,.19-2a2.92,2.92,0,0,1,.76-.69,3.63,3.63,0,0,0,.5-.3c.08-.07,0-.14-.17-.06a1.32,1.32,0,0,0-.64.62c-.23.55-.1.47-.12.07a5.12,5.12,0,0,1,.18-1,3.06,3.06,0,0,1,.37-.75,2.43,2.43,0,0,1,.3-.34,2.2,2.2,0,0,1,1.09-.62,2.37,2.37,0,0,1,1.14.1,2.7,2.7,0,0,1,.45.22l0,0,.15.15c.1.1.19.21.28.32a3.66,3.66,0,0,1,.47.8l-1.89.72c.45.12.67-.66.41-1.23-.05-.16-.13-.32-.21-.51a1.16,1.16,0,0,1-.11-1,1.55,1.55,0,0,1,1.71-.85,3.47,3.47,0,0,1,.91.2,1.72,1.72,0,0,1,.91.57c.06.09.2.21,0,.1,0,0-.05.07,0,.13.05.31.71.64,1.33,1.43Z" transform="translate(-62.99 -43.14)"></path></g><g class="cls-22"><path class="cls-33" d="M301.66,128.63a2.41,2.41,0,0,1-1.53-1,2,2,0,0,1,.11-2.15,2.13,2.13,0,0,1,1.75-.57c.41,0,.41-.34.15-.59l1,.91a3.49,3.49,0,0,0-.43.65,2.33,2.33,0,0,1-.38.52c-.26.24-.44.56-.7.68l-2.81,1.28-.39-2.75a2.7,2.7,0,0,1,.39-1.68,3,3,0,0,1,1.55-1.31l.39.07c.58.55,1,.93,1.28,1.27a2.32,2.32,0,0,1,.61.89l-3.19-1.47a3.61,3.61,0,0,1,1.68-.42,2.06,2.06,0,0,1,.9.15c.3.12.59.27.86.4l1.18.57-.19.35a7.43,7.43,0,0,0-.78,1.5c-.17.51,0,1.18.23,1.18s0-.17-.18.13a6.53,6.53,0,0,1-1.09,1.31Z" transform="translate(-62.99 -43.14)"></path></g><g class="cls-24"><path class="cls-32" d="M297.76,121A1.26,1.26,0,0,1,296,121a1.08,1.08,0,0,1-.42-1.3c.26-.37.93-.53,1.06-.72a.17.17,0,0,0,0-.26.51.51,0,0,0-.18-.08.53.53,0,0,0,0,.47c.73.89.13.83,0,1a1.23,1.23,0,0,1-1.18,0,2.27,2.27,0,0,1-1-1,1.54,1.54,0,0,1-.16-1.3c.23-.6.74-.79,1.41-.9l.39.07c.59.32,1,.57,1.31.4s.22-.36.08-.69a1.52,1.52,0,0,0-.51-.61c-.21-.13-.06.08.12.24a1.89,1.89,0,0,1,.3.32l.08.12s0,.09.23.18a1.45,1.45,0,0,1,.61.65,1.5,1.5,0,0,1,.1.78,1.14,1.14,0,0,0-.15.24.42.42,0,0,0,0,.4c.11.25.73.53,1,.59s.09-.07-.13,0a1,1,0,0,0-.86.94Z" transform="translate(-62.99 -43.14)"></path></g><g class="cls-22"><path class="cls-33" d="M230.15,139.61c-.26.34,0,.63.07.8a.47.47,0,0,1,.09.61,1.47,1.47,0,0,1-.41.54,3,3,0,0,1-.7.41c-.09,0,.07.08.49-.33a1.51,1.51,0,0,0,.23-.35.44.44,0,0,0,.07-.19.74.74,0,0,0,0-.39,6,6,0,0,0-1,1.28c0,.13,0,.15-.13.55a.94.94,0,0,1-.5.43l-.35.09a6,6,0,0,0-.89.26c-.62.21-1.08.37-1.11.49s0,.44.54,0c.19-.24.22-.55.11-.55s-.23.09-.39.31a5.76,5.76,0,0,1-.67.78,1.46,1.46,0,0,1-1.15.43l-.27-.29c-.28-.71-.83-.67-1.06-1.12a1.68,1.68,0,0,1-.25-.94,2.42,2.42,0,0,1,.67-1.65A2.49,2.49,0,0,1,225,140a3.23,3.23,0,0,1,1.35.09,1.85,1.85,0,0,1,1.31,1.16,1.13,1.13,0,0,0,.33.49c.12.05-.14,0-.29.3s0,0-.07-.07c-.11-.45-.76-.7-1-1.23a2.35,2.35,0,0,1,0-.7,2.79,2.79,0,0,1,.09-.34,2,2,0,0,1,.33-.49,1.87,1.87,0,0,1,1-.6c.15,0-.09.09-.12.16s0,.12.06.12.5-.19,1-.24,1.13.1,1.26.64Z" transform="translate(-62.99 -43.14)"></path></g><g class="cls-24"><path class="cls-32" d="M232.64,136.56a3.18,3.18,0,0,1-1.35-.75c0-.53-.56.73.94,1.38a1.92,1.92,0,1,1,.36.08.5.5,0,0,1-.19-.12c-.26-.26-.49-.89-.79-1s-.83-.06-1.41-.16a3.3,3.3,0,0,1-1.33-.6c-.1,0-.19,0-.14.13a1.24,1.24,0,0,0,.6.55,1.68,1.68,0,0,0,1.13.14c.15-.06.08,0-.36,0a2.16,2.16,0,0,1-1.7-.69,2.34,2.34,0,0,1-.51-1.34c0-.23.12-.18.18-.28a4.72,4.72,0,0,1,1.3-.88l.4,0a4.46,4.46,0,0,1,1.43.61c.08,0,.17.19.22.09a1.37,1.37,0,0,0-.38-1,1.83,1.83,0,0,0-1.36-.58c-.32,0-.26,0,0-.08a2.25,2.25,0,0,1,1.49.18,2,2,0,0,1,.88.79,1.5,1.5,0,0,1,.22.77c.05.35-.23.46-.54.67s-.33.57-.11.43.47-.77.71-1a.47.47,0,0,1,.18-.12s.09-.07.74.09a2.21,2.21,0,0,1,.53.27,2.91,2.91,0,0,1,.27.24l.11.16a2.27,2.27,0,0,1,.31.77c.08.73,0,.46-.08.6a3.23,3.23,0,0,1-1.36.75Z" transform="translate(-62.99 -43.14)"></path></g><g class="cls-24"><path class="cls-32" d="M268.08,149.28a3.18,3.18,0,0,1-1.35-.75c0-.53-.56.73.94,1.38.52.13.44.07.36.07a.34.34,0,0,1-.19-.12c-.26-.25-.49-.89-.79-1s-.83,0-1.41-.15a3.45,3.45,0,0,1-1.33-.6c-.1,0-.19,0-.14.13a1.24,1.24,0,0,0,.6.55,1.75,1.75,0,0,0,1.13.14c.15-.06.08,0-.36,0a2.2,2.2,0,0,1-1.7-.69,2.37,2.37,0,0,1-.51-1.34c0-.23.12-.18.18-.29a4.8,4.8,0,0,1,1.3-.87l.4,0a4.67,4.67,0,0,1,1.43.62c.08,0,.17.19.22.09a1.34,1.34,0,0,0-.38-1,1.83,1.83,0,0,0-1.36-.58c-.31,0-.26,0,0-.09a2.34,2.34,0,0,1,1.49.19,2,2,0,0,1,.88.79,1.5,1.5,0,0,1,.22.77c0,.34-.23.46-.54.67s-.33.57-.11.42.47-.77.71-1a.41.41,0,0,1,.18-.13s.09-.07.74.1a2.21,2.21,0,0,1,.53.27,2.91,2.91,0,0,1,.27.24l.11.16a2.27,2.27,0,0,1,.31.77c.08.73,0,.45-.08.6a3.13,3.13,0,0,1-1.36.74Z" transform="translate(-62.99 -43.14)"></path></g><g class="cls-22"><path class="cls-33" d="M236.67,139.51a3.24,3.24,0,0,1-.64,1.42c-.53.07.78.49,1.3-1.05.09-.53,0-.45,0-.37a.45.45,0,0,1-.11.2c-.23.28-.84.56-.94.87s0,.83,0,1.42a3.36,3.36,0,0,1-.49,1.37c0,.11,0,.2.14.13a1.24,1.24,0,0,0,.5-.64,1.73,1.73,0,0,0,.05-1.14c-.07-.14,0-.08,0,.36a2.2,2.2,0,0,1-.55,1.75,2.39,2.39,0,0,1-1.3.62c-.22,0-.19-.11-.29-.16a4.84,4.84,0,0,1-1-1.22l-.07-.4a4.84,4.84,0,0,1,.5-1.48c0-.07.17-.18.07-.22a1.38,1.38,0,0,0-1,.45,1.79,1.79,0,0,0-.47,1.41c0,.32,0,.26-.09,0a2.3,2.3,0,0,1,.06-1.5,2,2,0,0,1,.72-.94,1.59,1.59,0,0,1,.75-.29c.34-.07.47.2.71.49s.6.28.43.07-.8-.41-1.08-.62a.39.39,0,0,1-.15-.17s-.07-.09,0-.74a2,2,0,0,1,.23-.55,1.94,1.94,0,0,1,.21-.29l.15-.13a2.45,2.45,0,0,1,.74-.37c.73-.13.46,0,.61,0a3.25,3.25,0,0,1,.85,1.3Z" transform="translate(-62.99 -43.14)"></path></g><g class="cls-22"><path class="cls-33" d="M297.93,154.06a3.21,3.21,0,0,1-1.55.13c-.32-.42-.05.92,1.55.62.51-.18.41-.19.34-.14a.4.4,0,0,1-.22,0c-.36-.07-.9-.47-1.22-.4s-.72.42-1.26.66a3.34,3.34,0,0,1-1.43.25c-.11,0-.19.07,0,.18a1.21,1.21,0,0,0,.8.12,1.73,1.73,0,0,0,1-.51c.09-.13.06-.07-.3.19a2.2,2.2,0,0,1-1.8.38,2.42,2.42,0,0,1-1.17-.83c-.09-.2,0-.22,0-.34a4.78,4.78,0,0,1,.59-1.44l.31-.26a4.85,4.85,0,0,1,1.54-.29c.07,0,.24.07.23,0a1.39,1.39,0,0,0-.87-.61A1.79,1.79,0,0,0,293,152c-.26.19-.23.15-.05-.07a2.3,2.3,0,0,1,1.34-.68,1.94,1.94,0,0,1,1.17.17,1.42,1.42,0,0,1,.62.51c.23.26.06.51-.08.86s0,.66.15.41a10.13,10.13,0,0,0,0-1.25.4.4,0,0,1,.08-.21s0-.11.66-.33a2,2,0,0,1,.59-.07,2.2,2.2,0,0,1,.36,0l.18.07a2.29,2.29,0,0,1,.69.47c.47.56.22.4.27.54a3.17,3.17,0,0,1-.71,1.38Z" transform="translate(-62.99 -43.14)"></path></g><path class="cls-34" d="M325.81,134.07A17.6,17.6,0,0,1,324,133a10.19,10.19,0,0,0-4-.48,29.61,29.61,0,0,0-4.2.16c-.2,0-.4.06-.6.12a8.6,8.6,0,0,0-3.73,1.5,9.92,9.92,0,0,1-2.38,1.64,3.22,3.22,0,0,1-1.36.16,5.77,5.77,0,0,1-1.46-.36c-1.86-.7-3.74-2.14-5.7-1.78-1.28.24-2.17,1.42-3.37,1.68a7.32,7.32,0,0,1-2.08-.06,5.66,5.66,0,0,0-1.14-.08c-2.3.08-3.48,1.29-5.48,2.17-.85.37-1.8.48-2.62.9a6.87,6.87,0,0,0-1.93,1.63,29.8,29.8,0,0,0-5.32,8.38,3.44,3.44,0,0,1-.56,1,3.56,3.56,0,0,1-1.61.81,6.32,6.32,0,0,0-3.17,2c-.85,1.11-1.06,2.58-1.77,3.78a5.28,5.28,0,0,1-3.82,2.52c-1.44.18-3.08-.19-4.21.71s-1.13,2.44-1.1,3.81c-2.32-1.23-4.69-2.4-7-3.69a17.58,17.58,0,0,0-4.73-1.59,18.09,18.09,0,0,1-2.48-.84,37.68,37.68,0,0,1-3.74-1.79l2.86-3.66,2-3.62s-1.41-4.65,0-5.91,5.5-2.71,5.5-2.71l3.69-3.59,3.62-3.86L264.3,128l3.54-2.6,4.59-1.37.69,2.76,7.2-1.39a34.66,34.66,0,0,1,4.65-5.19c2.1-1.7,4-3,4-3a43.4,43.4,0,0,1,6.14-2.22c2.58-.62,12,1.53,12,1.53-.84-1.45-4.09-3.68-4.09-3.68L298,111.64s-3.9.56-5,.75-2.74.57-4,.69-4,2.1-4,2.1l-4.76,3.51s-1.53,2.42-2.39,2.42-2.27-.33-3.7-.43-4.52,1.5-8.09,2.6a39.28,39.28,0,0,0-6.9,3s-2.38,3.07-3.09,4.24a4.66,4.66,0,0,1-2.92,1.81c-.92.27-2.65,2.44-3.76,2.88s-3.63,4.11-3.63,4.11L242,142.09a3.79,3.79,0,0,0,.52,1.95c.5.53.24,3.13.24,3.13l-2.38,5.59c-2.3-1.49-4.55-3.06-6.85-4.52a52.51,52.51,0,0,0-5.06-2.86h0s.94-2.46,1.35-3.27.57-2.86,2-4.66,2.71-2.23,5.35-3.55,3.74-3.22,5.59-4.75a15.5,15.5,0,0,1,6.19-2.46c.64-.06,6.25-4.22,7.61-5.54s8.08-3.56,8.08-3.56a16.67,16.67,0,0,0,5.09-2.56c1.72-1.52,1.32-1.84,2.55-4.6s5.17-1.84,5.17-1.84,4.38-.92,5.76-1.32,5.92-1.42,5.92-1.42a19.15,19.15,0,0,0-3.15-1.47l-3.76.43s-5.5,1.23-6,1.23-6.48,3.29-6.48,3.29a54.3,54.3,0,0,1-4.92,3.06c-.82.26-12.82,7.18-12.82,7.18l-7.62,4.73-6.78,2.83s-4.24,4.29-5.49,4.74-5.45,4.18-5.45,4.18l-3.77,3-1.32,3.26a13.31,13.31,0,0,1-1.18-.72c-.84-.58-1.58-1.23-2.45-1.75a5,5,0,0,0-.86-.38c-1.6-.56-4.18-.88-5.38-1.38a2,2,0,0,0-1.7,0s6.46,3.73,6.46,3.73l7.41,4.28,8.21,4.76,3.9,2.26,4.32,2.49,11,6.36,10.15,5.85,3,1.74,4.88,2.82.12-.08.1,0,.16-.1,2.83-1.64.8-.46.54-.32c.4-.22.82-.48,1.28-.74a.7.7,0,0,0,.16-.1c.42-.24.86-.48,1.32-.76,2.1-1.19,4.6-2.63,7.34-4.23l3.11-1.8c.3-.16.6-.34.88-.5l1.56-.9.92-.54,4.68-2.7c1.2-.7,2.44-1.4,3.66-2.12l2.27-1.29c.56-.34,1.14-.66,1.72-1l6.18-3.56c.18-.12.36-.22.54-.32l.12-.08,1.14-.66,2.33-1.34,3-1.76.32-.18c.86-.5,1.72-1,2.56-1.48l2.32-1.34a.83.83,0,0,0,.22-.14c.32-.16.62-.34.92-.5.66-.4,1.32-.78,2-1.15,1.39-.8,2.75-1.6,4.05-2.34L343,129.83Z" transform="translate(-62.99 -43.14)"></path><path class="cls-15" d="M382.67,45.93v0a.4.4,0,0,0,0,.15,1.4,1.4,0,0,1-.24.52h0l-.21.15L268.35,111.51l-1.53.88-6.1,3.59-1.53.9L157,177l-4-10.15,103.5-56.28,1.5-.8,6.29-3.42,1.49-.81,115-62.25.25-.13h.12a.7.7,0,0,1,.31.1,2.12,2.12,0,0,1,.69.68,2.64,2.64,0,0,1,.2.37l0,0a2.75,2.75,0,0,1,.26.86A2.81,2.81,0,0,1,382.67,45.93Z" transform="translate(-62.99 -43.14)"></path><path class="cls-35" d="M156.29,177.17a1.18,1.18,0,0,0,.7-.18,2.72,2.72,0,0,0,1-1.79c0-.14,0-.27.07-.4v-.08a7.52,7.52,0,0,0-.08-2.15,9.59,9.59,0,0,0-.78-2.45l0-.05a8.62,8.62,0,0,0-.6-1.07,5.91,5.91,0,0,0-2-1.95,2.49,2.49,0,0,0-.91-.3h-.16a1.12,1.12,0,0,0-.52.09l-.22.12a2.25,2.25,0,0,0-.73,1,4.24,4.24,0,0,0-.27,1c0,.3-.07.6-.08.9a8.28,8.28,0,0,0,.13,1.54,9.31,9.31,0,0,0,1.8,4.1l.11.13a6.1,6.1,0,0,0,.75.77l0,0a3.1,3.1,0,0,0,1.68.81Z" transform="translate(-62.99 -43.14)"></path><path class="cls-36" d="M268.35,111.51l-1.53.88a7.14,7.14,0,0,0-.09-1.28,9.69,9.69,0,0,0-.8-2.44v0a9.28,9.28,0,0,0-.61-1.07,8.51,8.51,0,0,0-1-1.23l1.49-.81a7.77,7.77,0,0,1,1.65,2.31l0,0a10,10,0,0,1,.8,2.45A6,6,0,0,1,268.35,111.51Z" transform="translate(-62.99 -43.14)"></path><path class="cls-36" d="M260.72,116l-1.53.9a7.24,7.24,0,0,0-.13-1.43,9,9,0,0,0-.79-2.46l0,0a8,8,0,0,0-.6-1.07,6,6,0,0,0-1.14-1.33l1.5-.8a5.81,5.81,0,0,1,1.17,1.35,8,8,0,0,1,.6,1.07l0,0a10.18,10.18,0,0,1,.77,2.44A10.67,10.67,0,0,1,260.72,116Z" transform="translate(-62.99 -43.14)"></path><path class="cls-15" d="M394.52,53.11v0a.41.41,0,0,0,0,.15,1.4,1.4,0,0,1-.24.52h0L394,54,280.21,118.69l-1.53.88-6.1,3.59-1.53.9L168.84,184.17l-4-10.16,103.5-56.28,1.51-.8,6.29-3.42,1.49-.81,115-62.24.26-.14H393a.66.66,0,0,1,.3.1,2.12,2.12,0,0,1,.69.68,2.71,2.71,0,0,1,.21.37l0,0a2.72,2.72,0,0,1,.25.86A2.45,2.45,0,0,1,394.52,53.11Z" transform="translate(-62.99 -43.14)"></path><path class="cls-35" d="M168.15,184.35a1.15,1.15,0,0,0,.69-.18,2.73,2.73,0,0,0,1-1.79c0-.14.05-.27.07-.4v-.08a7.5,7.5,0,0,0-.07-2.15,9.74,9.74,0,0,0-.79-2.45l0-.05a9.49,9.49,0,0,0-.61-1.07,5.83,5.83,0,0,0-2-2,2.45,2.45,0,0,0-.9-.3h-.16a1.1,1.1,0,0,0-.52.09l-.22.12a2.26,2.26,0,0,0-.74,1,4.85,4.85,0,0,0-.26,1,5.47,5.47,0,0,0-.08.9,7.51,7.51,0,0,0,.13,1.54,9.09,9.09,0,0,0,1.8,4.1,1.47,1.47,0,0,0,.1.13,6.1,6.1,0,0,0,.75.77l0,0a3.11,3.11,0,0,0,1.67.81Z" transform="translate(-62.99 -43.14)"></path><path class="cls-36" d="M280.21,118.69l-1.53.88a8.25,8.25,0,0,0-.1-1.28,10.09,10.09,0,0,0-.79-2.44l0,0a11,11,0,0,0-.6-1.07,10.06,10.06,0,0,0-1-1.23l1.49-.81a7.34,7.34,0,0,1,1,1.25,7.46,7.46,0,0,1,.61,1.06l0,0a10,10,0,0,1,.79,2.45A7,7,0,0,1,280.21,118.69Z" transform="translate(-62.99 -43.14)"></path><path class="cls-36" d="M272.58,123.16l-1.53.9a7.24,7.24,0,0,0-.13-1.43,9,9,0,0,0-.8-2.46v0a7,7,0,0,0-.61-1.07,6.23,6.23,0,0,0-1.14-1.33l1.51-.8a6,6,0,0,1,1.16,1.35,7,7,0,0,1,.6,1.07l0,0a9.75,9.75,0,0,1,.77,2.44A9.12,9.12,0,0,1,272.58,123.16Z" transform="translate(-62.99 -43.14)"></path><path class="cls-37" d="M361.28,243l-38.44,22.2c-5.47,3.16-13.76,3.5-18.5.76l-1.93-1.11c-4.74-2.74-4.15-7.52,1.33-10.68L342.18,232c5.47-3.17,13.75-3.51,18.49-.77l1.94,1.11C367.35,235,366.75,239.81,361.28,243Z" transform="translate(-62.99 -43.14)"></path><path class="cls-38" d="M320.4,256c2.5,1.44,2.42,3.66-.21,5.17a9.6,9.6,0,0,1-9,.13c-2.49-1.44-2.37-3.63.26-5.15A9.53,9.53,0,0,1,320.4,256Zm-6.88,4a5.29,5.29,0,0,0,4.79.07c1.28-.73,1.22-1.94-.17-2.74a5.15,5.15,0,0,0-4.72-.09C312.15,258,312.13,259.17,313.52,260Z" transform="translate(-62.99 -43.14)"></path><path class="cls-38" d="M330.88,254.87l-3.6-.65,0,0-1.6.92,2.37,1.36-2.22,1.28-8.54-4.93,3.81-2.2a6.43,6.43,0,0,1,6.54-.31c1.29.75,1.71,1.6,1.24,2.46l4.55.59Zm-7-.73,1.6-.93c.9-.51,1-1.08.09-1.58a2.6,2.6,0,0,0-2.7.07l-1.61.93Z" transform="translate(-62.99 -43.14)"></path><path class="cls-38" d="M338.44,245.57c2.55,1.47,2.43,3.53-.32,5.12l-3.57,2.06L326,247.82l3.65-2.11A9.08,9.08,0,0,1,338.44,245.57Zm-2.24,1.32a5,5,0,0,0-4.77-.1l-1.39.8,4.92,2.84,1.5-.86C337.74,248.82,337.66,247.73,336.2,246.89Z" transform="translate(-62.99 -43.14)"></path><path class="cls-38" d="M342,238.6l1.78,1-4.48,2.59,1.6.92,4-2.34,1.77,1-4,2.34,1.6.93,4.6-2.65,1.78,1-6.81,3.94-8.54-4.93Z" transform="translate(-62.99 -43.14)"></path><path class="cls-38" d="M357.09,239.74l-3.6-.65-.05,0-1.6.92,2.37,1.36L352,242.68l-8.54-4.93,3.81-2.2a6.42,6.42,0,0,1,6.53-.31c1.29.74,1.71,1.6,1.24,2.46l4.56.59Zm-7-.73,1.61-.93c.9-.52,1-1.08.09-1.58a2.62,2.62,0,0,0-2.71.07l-1.61.93Z" transform="translate(-62.99 -43.14)"></path></g></g></svg>