<svg xmlns="http://www.w3.org/2000/svg" xmlns:xlink="http://www.w3.org/1999/xlink" id="Layer_1" data-name="Layer 1" viewBox="0 0 556.65 419.44"><defs><style>.cls-1,.cls-15,.cls-20,.cls-21,.cls-23,.cls-27,.cls-30,.cls-9{fill:none;}.cls-12,.cls-18,.cls-2,.cls-28{fill:#e10454;}.cls-14,.cls-16,.cls-22,.cls-29,.cls-3,.cls-6,.cls-7{fill:#fff;}.cls-3{opacity:0.7;}.cls-26,.cls-3,.cls-6,.cls-7,.cls-8{isolation:isolate;}.cls-10,.cls-17,.cls-4{fill:#999;}.cls-10,.cls-11,.cls-12,.cls-15,.cls-16,.cls-18,.cls-19,.cls-21,.cls-22,.cls-27,.cls-28,.cls-29,.cls-30,.cls-4,.cls-9{stroke:#263238;}.cls-10,.cls-11,.cls-12,.cls-15,.cls-16,.cls-18,.cls-19,.cls-20,.cls-21,.cls-22,.cls-23,.cls-27,.cls-28,.cls-29,.cls-30,.cls-4,.cls-9{stroke-linecap:round;stroke-linejoin:round;}.cls-15,.cls-18,.cls-20,.cls-22,.cls-4{stroke-width:1.01px;}.cls-5{fill:#412e88;}.cls-6{opacity:0.3;}.cls-7{opacity:0.5;}.cls-8{opacity:0.2;}.cls-9{stroke-width:1.19px;}.cls-10{stroke-width:0.9px;}.cls-11,.cls-13{fill:#263238;}.cls-11,.cls-12,.cls-16,.cls-21,.cls-23{stroke-width:1.34px;}.cls-19{fill:#422f87;}.cls-20{stroke:#fff;}.cls-23{stroke:#7f7f7f;}.cls-24{clip-path:url(#clip-path);}.cls-25{clip-path:url(#clip-path-2);}.cls-26{opacity:0.37;}.cls-30{stroke-width:0.5px;}</style><clipPath id="clip-path" transform="translate(0.48 -13.9)"><rect class="cls-1" x="290.4" y="37.22" width="153.49" height="286.93"></rect></clipPath><clipPath id="clip-path-2" transform="translate(0.48 -13.9)"><path class="cls-1" d="M339.37,177.42s-1.76-3.4-3.9-4.66-6.81.88-6.81.88,2.76-2.88,5-3.51,5.53,2,5.53,2A31.41,31.41,0,0,0,338,167a34.13,34.13,0,0,0-3.51-6.91s4.52,2.76,5.52,4.65a31.42,31.42,0,0,1,1.86,4.77,27.7,27.7,0,0,1,1.38-4.65c.63-1.12,3.9-2.13,3.9-2.13s-2.14,2.89-2.39,4.14-.5,4-.5,4a11,11,0,0,1,3.27-1.76c1.5-.37,3.51,1.76,3.51,1.76a7,7,0,0,0-3.64.62c-1.72.87-3.61,7.69-3.61,7.69l-3.76-.38Z"></path></clipPath></defs><title>تخفیف در منو غذایی رستوران ها</title><g id="freepik--background-simple--inject-68"><path class="cls-2" d="M489.84,61.76c-38.74-40.95-119.95-30.67-150.2-8.32C271.56,103.75,280.24,156.2,244.87,167,201.73,180.12,162.11,97.93,96,98.27c-43.24.22-71.48,24-79.56,78.91C5.16,253.72,27.81,313.52,62.28,336.6c70.37,47.11,185.58,38.59,247.67,32,51.28-5.43,126.85,6.31,194.5-68.72C544.39,255.59,564.55,140.72,489.84,61.76Z" transform="translate(0.48 -13.9)"></path><path class="cls-3" d="M489.84,61.76c-38.74-40.95-119.95-30.67-150.2-8.32C271.56,103.75,280.24,156.2,244.87,167,201.73,180.12,162.11,97.93,96,98.27c-43.24.22-71.48,24-79.56,78.91C5.16,253.72,27.81,313.52,62.28,336.6c70.37,47.11,185.58,38.59,247.67,32,51.28-5.43,126.85,6.31,194.5-68.72C544.39,255.59,564.55,140.72,489.84,61.76Z" transform="translate(0.48 -13.9)"></path></g><g id="freepik--Shadow--inject-68"><ellipse class="cls-2" cx="276.06" cy="405.95" rx="276.06" ry="13.49"></ellipse></g><g id="freepik--Lamp--inject-68"><path class="cls-4" d="M531.78,411.55h-29.9V126.39h-7.3V411.55h-29.9a8.49,8.49,0,0,0-7.46,4.44,2.79,2.79,0,0,0,2.53,4h77a2.78,2.78,0,0,0,2.54-4A8.49,8.49,0,0,0,531.78,411.55Z" transform="translate(0.48 -13.9)"></path><path class="cls-5" d="M447.89,172.73c-1.23-.32-2.39-.65-3.61-1a5.58,5.58,0,0,1-3.78-6.93l0-.13,23.07-71.89c3.38,1.08,5.08,1.56,8.52,2.37l-17.4,73.48a5.58,5.58,0,0,1-6.72,4.13Z" transform="translate(0.48 -13.9)"></path><path class="cls-5" d="M462.62,176.07c-1.23-.22-2.39-.45-3.62-.71a5.58,5.58,0,0,1-4.3-6.62l0-.12,17.43-73.48c3.43.81,5.16,1.15,8.63,1.69l-11.63,74.61a5.58,5.58,0,0,1-6.37,4.66Z" transform="translate(0.48 -13.9)"></path><path class="cls-6" d="M462.62,176.07c-1.23-.22-2.39-.45-3.62-.71a5.58,5.58,0,0,1-4.3-6.62l0-.12,17.43-73.48c3.43.81,5.16,1.15,8.63,1.69l-11.63,74.61a5.58,5.58,0,0,1-6.37,4.66Z" transform="translate(0.48 -13.9)"></path><path class="cls-5" d="M477.52,178.25c-1.23-.12-2.39-.26-3.62-.42a5.59,5.59,0,0,1-4.8-6.27s0-.08,0-.12l11.64-74.61a85.56,85.56,0,0,0,8.72,1q-2.93,37.64-5.84,75.28a5.56,5.56,0,0,1-6,5.15Z" transform="translate(0.48 -13.9)"></path><path class="cls-7" d="M477.52,178.25c-1.23-.12-2.39-.26-3.62-.42a5.59,5.59,0,0,1-4.8-6.27s0-.08,0-.12l11.64-74.61a85.56,85.56,0,0,0,8.72,1q-2.93,37.64-5.84,75.28a5.56,5.56,0,0,1-6,5.15Z" transform="translate(0.48 -13.9)"></path><path class="cls-5" d="M492.52,179.27c-1.22,0-2.39-.07-3.61-.14a5.58,5.58,0,0,1-5.28-5.87s0-.09,0-.13q2.92-37.63,5.84-75.28c3.49.27,5.25.34,8.75.34v75.5a5.56,5.56,0,0,1-5.56,5.58Z" transform="translate(0.48 -13.9)"></path><path class="cls-5" d="M507.56,179.13c-1.22.07-2.39.11-3.62.14a5.57,5.57,0,0,1-5.71-5.43V98.19c3.51,0,5.26-.07,8.76-.34q2.91,37.64,5.83,75.28a5.57,5.57,0,0,1-5.11,6Z" transform="translate(0.48 -13.9)"></path><path class="cls-6" d="M507.56,179.13c-1.22.07-2.39.11-3.62.14a5.57,5.57,0,0,1-5.71-5.43V98.19c3.51,0,5.26-.07,8.76-.34q2.91,37.64,5.83,75.28a5.57,5.57,0,0,1-5.11,6Z" transform="translate(0.48 -13.9)"></path><path class="cls-5" d="M522.56,177.83c-1.22.16-2.39.3-3.61.42a5.59,5.59,0,0,1-6.12-5c0-.05,0-.09,0-.14Q509.91,135.5,507,97.85c3.49-.27,5.24-.47,8.71-1l11.64,74.61a5.57,5.57,0,0,1-4.66,6.35Z" transform="translate(0.48 -13.9)"></path><path class="cls-3" d="M522.56,177.83c-1.22.16-2.39.3-3.61.42a5.59,5.59,0,0,1-6.12-5c0-.05,0-.09,0-.14Q509.91,135.5,507,97.85c3.49-.27,5.24-.47,8.71-1l11.64,74.61a5.57,5.57,0,0,1-4.66,6.35Z" transform="translate(0.48 -13.9)"></path><path class="cls-5" d="M537.46,175.36c-1.22.26-2.39.49-3.61.71a5.58,5.58,0,0,1-6.49-4.51s0-.08,0-.12L515.7,96.83c3.48-.54,5.21-.88,8.64-1.69q8.7,36.74,17.39,73.48a5.55,5.55,0,0,1-4.11,6.7Z" transform="translate(0.48 -13.9)"></path><path class="cls-5" d="M552.16,171.72c-1.22.36-2.38.69-3.61,1a5.59,5.59,0,0,1-6.82-4l0-.11Q533,131.86,524.31,95.13c3.43-.81,5.14-1.29,8.52-2.37l23.07,71.89a5.58,5.58,0,0,1-3.59,7Z" transform="translate(0.48 -13.9)"></path><path class="cls-6" d="M552.16,171.72c-1.22.36-2.38.69-3.61,1a5.59,5.59,0,0,1-6.82-4l0-.11Q533,131.86,524.31,95.13c3.43-.81,5.14-1.29,8.52-2.37l23.07,71.89a5.58,5.58,0,0,1-3.59,7Z" transform="translate(0.48 -13.9)"></path><path class="cls-5" d="M532.86,92.71c-3.38,1.08-5.09,1.55-8.52,2.37s-5.16,1.15-8.64,1.69-5.21.75-8.71,1-5.25.34-8.76.34-5.26-.07-8.75-.34-5.24-.48-8.72-1a87.67,87.67,0,0,1-8.63-1.69c-3.43-.81-5.14-1.29-8.52-2.37,3.38-1.09,5.08-1.56,8.52-2.37s5.16-1.16,8.63-1.7,5.22-.74,8.72-1,5.25-.34,8.75-.34,5.26.07,8.76.34,5.24.47,8.71,1,5.21.88,8.64,1.7S529.48,91.62,532.86,92.71Z" transform="translate(0.48 -13.9)"></path></g><g id="freepik--Plant--inject-68"><path class="cls-2" d="M98.33,306.11c7.76,4.85,26.62,23.26,33.21-15.37s-13.87-40.38-31.6-29.43C79,274.25,73,290.23,98.33,306.11Z" transform="translate(0.48 -13.9)"></path><path class="cls-8" d="M98.33,306.11c7.76,4.85,26.62,23.26,33.21-15.37s-13.87-40.38-31.6-29.43C79,274.25,73,290.23,98.33,306.11Z" transform="translate(0.48 -13.9)"></path><path class="cls-9" d="M84.86,343.68s14.84-48.79,34.77-78.07" transform="translate(0.48 -13.9)"></path><path class="cls-9" d="M101.4,299.67a26,26,0,0,1,18.28,6.51" transform="translate(0.48 -13.9)"></path><path class="cls-9" d="M92.63,275.81c9.9,5.88,13.19,14.29,13.19,14.29" transform="translate(0.48 -13.9)"></path><path class="cls-9" d="M110.69,280.53s7.74-2.51,14.61,1.67" transform="translate(0.48 -13.9)"></path><path class="cls-9" d="M114.82,273.21s-1.09-6.71-6.06-8.84" transform="translate(0.48 -13.9)"></path><path class="cls-5" d="M78.31,283.06c18.36,4.2,67.46,27.28,54.2-52.29s-54.2-69.17-81.3-35.9C19.16,234.15,18.23,269.32,78.31,283.06Z" transform="translate(0.48 -13.9)"></path><path class="cls-9" d="M77.47,365.21S73.4,260.32,92.41,190" transform="translate(0.48 -13.9)"></path><path class="cls-9" d="M79.93,268.47s17.59-8.38,39.93.33" transform="translate(0.48 -13.9)"></path><path class="cls-9" d="M82.07,246.89S70,232.75,46.78,228" transform="translate(0.48 -13.9)"></path><path class="cls-9" d="M85.08,225s13.35-10.1,29.54-6.61" transform="translate(0.48 -13.9)"></path><path class="cls-9" d="M88.16,208s-6.64-12.3-17.74-13.1" transform="translate(0.48 -13.9)"></path><path class="cls-2" d="M52.36,280.58C38.59,287.14,3.85,314.07.26,248.81s30.62-64.27,57.93-42.76C90.44,231.45,97.43,259.08,52.36,280.58Z" transform="translate(0.48 -13.9)"></path><path class="cls-7" d="M52.36,280.58C38.59,287.14,3.85,314.07.26,248.81s30.62-64.27,57.93-42.76C90.44,231.45,97.43,259.08,52.36,280.58Z" transform="translate(0.48 -13.9)"></path><path class="cls-9" d="M67.55,345.38s-15.33-83.65-42.8-135.93" transform="translate(0.48 -13.9)"></path><path class="cls-9" d="M48.49,269.32S33.11,265.81,17,276.64" transform="translate(0.48 -13.9)"></path><path class="cls-9" d="M43,252.64s7-13.31,24.56-21.19" transform="translate(0.48 -13.9)"></path><path class="cls-9" d="M36.74,235.85s-12.35-5.62-24.53,0" transform="translate(0.48 -13.9)"></path><path class="cls-9" d="M31.29,222.94S34.36,212,43,209.45" transform="translate(0.48 -13.9)"></path><path class="cls-5" d="M93.54,420H61A15.42,15.42,0,0,1,45.6,405.22l-3-71h69.28l-3,71A15.43,15.43,0,0,1,93.54,420Z" transform="translate(0.48 -13.9)"></path><path class="cls-10" d="M113.83,339.19H40.41a5,5,0,0,1-4.94-4.95h0a4.94,4.94,0,0,1,4.94-4.94h73.42a4.94,4.94,0,0,1,5,4.88v.06h0A5,5,0,0,1,113.83,339.19Z" transform="translate(0.48 -13.9)"></path></g><g id="freepik--Smartphone--inject-68"><path class="cls-4" d="M426.3,14.57H409.53V360.79H426.3a10.07,10.07,0,0,0,10.07-10V24.64A10.07,10.07,0,0,0,426.3,14.57Z" transform="translate(0.48 -13.9)"></path><rect class="cls-11" x="252.31" y="0.67" width="172.45" height="346.24" rx="10.07"></rect><path class="cls-12" d="M365.44,34.79h0a7.79,7.79,0,0,1-7.73,6.81H317.08a7.78,7.78,0,0,1-7.73-6.81h0A7.78,7.78,0,0,0,301.63,28H273.05a7.79,7.79,0,0,0-7.79,7.79V339.6a7.78,7.78,0,0,0,7.79,7.79h130a7.79,7.79,0,0,0,7.79-7.79h0V35.79A7.79,7.79,0,0,0,403.05,28H373.16A7.77,7.77,0,0,0,365.44,34.79Z" transform="translate(0.48 -13.9)"></path><path class="cls-12" d="M324.09,31.57A3.58,3.58,0,1,1,320.51,28h0A3.59,3.59,0,0,1,324.09,31.57Z" transform="translate(0.48 -13.9)"></path><path class="cls-4" d="M354.06,28h-16a3.58,3.58,0,1,0,0,7.16h16a3.58,3.58,0,0,0,0-7.16Z" transform="translate(0.48 -13.9)"></path><path class="cls-4" d="M349.19,330.84H319.78a3.58,3.58,0,0,0,0,7.16h29.41a3.58,3.58,0,0,0,0-7.16Z" transform="translate(0.48 -13.9)"></path><path class="cls-13" d="M432.83,96.19v-24a2,2,0,0,0-4,0v24a2,2,0,0,0,4,0Z" transform="translate(0.48 -13.9)"></path><path class="cls-13" d="M432.83,114v-8a2,2,0,0,0-4,0v8a2,2,0,1,0,4,0Z" transform="translate(0.48 -13.9)"></path><path class="cls-14" d="M282.35,96.59V91.93h8.8v5.33c0,4.24,1.86,5.76,4.83,5.76s4.82-1.52,4.82-5.76V84c0-4.24-1.86-5.85-4.82-5.85s-4.83,1.61-4.83,5.85v.5h-8.8L284,51.38h24.55v8.47H292.34L291.57,74h.17a8.77,8.77,0,0,1,8.05-4.31c6.85,0,10.32,4.82,10.32,13.54V96.59c0,9.48-4.74,14.9-13.88,14.9S282.35,106.07,282.35,96.59Z" transform="translate(0.48 -13.9)"></path><path class="cls-14" d="M315.8,96.59V65.44c0-9.48,5-14.9,14.14-14.9s14.13,5.42,14.13,14.9V96.59c0,9.48-5,14.9-14.13,14.9S315.8,106.07,315.8,96.59Zm19,.59V64.84c0-4.23-1.86-5.84-4.82-5.84s-4.83,1.61-4.83,5.84V97.18c0,4.23,1.86,5.84,4.83,5.84s4.78-1.61,4.78-5.84Z" transform="translate(0.48 -13.9)"></path><path class="cls-14" d="M349.85,74.79V60c0-6.1,3.13-9.48,9-9.48s9,3.38,9,9.48V74.79c0,6.1-3.13,9.48-9,9.48S349.85,80.93,349.85,74.79Zm12,.43V59.6c0-2.63-1.19-3.73-3.05-3.73s-3,1.1-3,3.73V75.26c0,2.62,1.09,3.72,3,3.72s3.07-1.1,3.07-3.72ZM380.3,51.34h5.93L363.29,110.6h-5.91ZM375.81,102V87.19c0-6.09,3.14-9.48,9-9.48s9,3.39,9,9.48V102c0,6.09-3.13,9.48-9,9.48s-9-3.39-9-9.48Zm12,.42V86.79c0-2.63-1.19-3.73-3.05-3.73s-3.05,1.1-3.05,3.73v15.66c0,2.62,1.11,3.72,3.05,3.72s3.1-1.12,3.1-3.74Z" transform="translate(0.48 -13.9)"></path><path class="cls-15" d="M284,51.38h24.55v8.47H292.34L291.57,74h.17a8.77,8.77,0,0,1,8.05-4.31c5.58,0,8.92,3.2,10,9.11m-9,18.48V84c0-4.24-1.86-5.85-4.82-5.85s-4.83,1.61-4.83,5.85v.5h-8.8L283.64,59m1.86,32.9h5.64v5.33c0,4.24,1.86,5.76,4.83,5.76m14.13-10.8v4.37c0,9.48-4.74,14.9-13.88,14.9s-13.88-5.42-13.88-14.9m27.76-11v3.35" transform="translate(0.48 -13.9)"></path><path class="cls-15" d="M318.53,55.53c2.36-3.25,6.22-5,11.41-5,9.14,0,14.13,5.42,14.13,14.9V89.19M315.8,65.43a22.21,22.21,0,0,1,.42-4.45m27.85,35.6c0,9.48-5,14.9-14.13,14.9s-14.14-5.42-14.14-14.9V72m19-7.14c0-4.23-1.86-5.84-4.82-5.84s-4.83,1.61-4.83,5.84V89m0,8.2c0,4.23,1.86,5.84,4.83,5.84s4.82-1.61,4.82-5.84v-27" transform="translate(0.48 -13.9)"></path><path class="cls-15" d="M349.85,74.79V60c0-6.1,3.13-9.48,9-9.48s9,3.38,9,9.48m0,5.25v9.52c0,6.1-3.13,9.48-9,9.48-4.18,0-7-1.73-8.22-4.94m11.27-9.17V59.6c0-2.63-1.19-3.73-3-3.73s-3,1.1-3,3.73m0,5V75.26c0,2.62,1.09,3.72,3,3.72s3-1.1,3-3.72m4.57,27.3-3.13,8.08h-6l19.54-50.48m.82,13.19-8.85,22.88m11.48-29.65-1.45,3.73m-.34-14.42,1.74-4.51h5.93l-4.43,11.41m-6,39.19V87.19c0-6.09,3.14-9.48,9-9.48,4,0,6.68,1.56,8,4.47m.95,5V102c0,6.09-3.13,9.48-9,9.48-4.6,0-7.52-2.1-8.55-6m11.6-3.09V86.79c0-2.63-1.19-3.73-3.05-3.73s-3,1.1-3,3.73m0,3.11v12.55c0,2.62,1.11,3.72,3,3.72" transform="translate(0.48 -13.9)"></path><rect class="cls-16" x="278.4" y="141.21" width="120.27" height="120.27"></rect><path class="cls-17" d="M384.06,259.7c0,2.44-20.86,4.41-46.6,4.41s-46.59-2-46.59-4.41,20.86-4.42,46.59-4.42S384.06,257.26,384.06,259.7Z" transform="translate(0.48 -13.9)"></path><path class="cls-18" d="M289.15,221.05a2.08,2.08,0,0,1-1.52-.63L284,216.79a2.14,2.14,0,0,1,0-3l3.66-3.66a2.15,2.15,0,0,1,3,3l-2.13,2.14,2.13,2.13a2.16,2.16,0,0,1,0,3A2.07,2.07,0,0,1,289.15,221.05Z" transform="translate(0.48 -13.9)"></path><path class="cls-18" d="M386.63,209.44a2.18,2.18,0,0,1,1.52.63l3.66,3.66a2.22,2.22,0,0,1,.63,1.52,2.12,2.12,0,0,1-.63,1.51l-3.66,3.66a2.15,2.15,0,1,1-3-3l2.14-2.13-2.14-2.14a2.16,2.16,0,0,1,0-3A2.19,2.19,0,0,1,386.63,209.44Z" transform="translate(0.48 -13.9)"></path><rect class="cls-4" x="293.16" y="274.82" width="101.14" height="25.5" rx="8.74"></rect><rect class="cls-19" x="287.79" y="274.82" width="101.14" height="25.5" rx="8.74"></rect><path class="cls-14" d="M310.42,294.53h3.21c2.2,0,3.15,1,3.15,3.11v.54c0,1.39-.43,2.26-1.37,2.65h0c1.14.38,1.58,1.39,1.58,2.82v1.16a2.9,2.9,0,0,1-2.51,3.22,2.48,2.48,0,0,1-.72,0h-3.34Zm3,5.51c.79,0,1.27-.35,1.27-1.43v-.76c0-1-.33-1.39-1.08-1.39h-1V300Zm.38,6.09c.72,0,1.1-.33,1.1-1.34v-1.18c0-1.25-.4-1.64-1.37-1.64h-.95v4.16Z" transform="translate(0.48 -13.9)"></path><path class="cls-14" d="M318.15,304.85V294.53h2.12V305c0,1,.41,1.32,1.09,1.32s1.08-.35,1.08-1.32V294.53h2.05v10.32c0,2.16-1.08,3.4-3.17,3.4S318.15,307,318.15,304.85Z" transform="translate(0.48 -13.9)"></path><path class="cls-14" d="M328,302.3l-2.57-7.77h2.26l1.45,5h0l1.45-5h2.06l-2.57,7.77v5.76H328Z" transform="translate(0.48 -13.9)"></path><path class="cls-14" d="M336.7,294.53h2.67l2.07,8.1h0v-8.1h1.9v13.53h-2.16l-2.55-9.88h0v9.88h-1.89Z" transform="translate(0.48 -13.9)"></path><path class="cls-14" d="M344.8,304.85v-7.06c0-2.17,1.14-3.41,3.22-3.41s3.23,1.24,3.23,3.41v7.11c0,2.16-1.14,3.4-3.23,3.4S344.8,307,344.8,304.85Zm4.33.13V297.6c0-1-.43-1.33-1.11-1.33s-1.1.36-1.1,1.33V305c0,1,.43,1.34,1.1,1.34S349.13,306,349.13,305Z" transform="translate(0.48 -13.9)"></path><path class="cls-14" d="M352.18,294.53h2.05l.94,10.4h0l1-10.4h2.32l1,10.4h0l.95-10.4h1.84L361,308.06h-2.65l-1-9.13h0l-1,9.13h-2.82Z" transform="translate(0.48 -13.9)"></path><path d="M317,138.6V124.66c0-4.24,2.23-6.66,6.32-6.66s6.33,2.42,6.33,6.66V138.6c0,4.24-2.24,6.66-6.33,6.66S317,142.84,317,138.6Zm8.48.26V124.4c0-1.89-.83-2.61-2.16-2.61s-2.16.72-2.16,2.61v14.46c0,1.9.84,2.62,2.16,2.62s2.16-.69,2.16-2.62Z" transform="translate(0.48 -13.9)"></path><path d="M332.24,118.38h11v3.79h-6.86v7.38h5.38v3.79h-5.38v11.54h-4.16Z" transform="translate(0.48 -13.9)"></path><path d="M345.4,118.38h11v3.79h-6.85v7.38H355v3.79h-5.37v11.54h-4.17Z" transform="translate(0.48 -13.9)"></path><line class="cls-20" x1="311.8" y1="235.95" x2="280.7" y2="311.04"></line><line class="cls-20" x1="377.06" y1="78.4" x2="329.35" y2="193.61"></line><line class="cls-20" x1="392.99" y1="39.94" x2="381.6" y2="67.45"></line><line class="cls-20" x1="278.74" y1="190.21" x2="271.82" y2="206.92"></line><line class="cls-20" x1="324.26" y1="80.31" x2="284.19" y2="177.05"></line><line class="cls-20" x1="340.85" y1="40.27" x2="330.98" y2="64.11"></line><line class="cls-20" x1="386.94" y1="235.61" x2="355.7" y2="311.04"></line><line class="cls-20" x1="398.1" y1="208.68" x2="391.42" y2="224.79"></line></g><g id="freepik--Character--inject-68"><path class="cls-13" d="M205.5,100.06c0,.88.37,1.59.83,1.59s.82-.71.82-1.59-.37-1.58-.82-1.58S205.5,99.19,205.5,100.06Z" transform="translate(0.48 -13.9)"></path><path class="cls-15" d="M209.68,109.92a3.39,3.39,0,0,1-3.32-1.23" transform="translate(0.48 -13.9)"></path><path class="cls-21" d="M206.33,94.92s-1.25-2-3.8,0" transform="translate(0.48 -13.9)"></path><path class="cls-21" d="M190.63,132.14c6.26-.69-2.68-20.09-2.68-20.09l1.16-4.43s5.58-6.51,7.31-11.55,6.63-11.55,7.49-9.22-3.93,5.66-2.82,6.75c.48.47,4.09-.74,7.76-3.19.57,3,.66,6,.83,7,.36,2.13,6.77,3.2,7,5.17s-3.35,3.77-3.35,3.77.08,11-2,13.19-13.42,1.18-13.42,1.18c-3.92,3.79-4.32,14.56-4.32,14.56s-2.77-.11-6.25-.59A3.65,3.65,0,0,1,190.63,132.14Z" transform="translate(0.48 -13.9)"></path><path class="cls-12" d="M205.62,215.62l-36.11-5.68c2.06-3.92,2.87-9,1.4-22-2.41-21.29-10.52-49.39-2.4-54.33s18.66-2,18.66-2,9.81.38,15.36,7.9S215,153.7,215,162.51,204.83,187.14,204.83,205A67.35,67.35,0,0,0,205.62,215.62Z" transform="translate(0.48 -13.9)"></path><path class="cls-16" d="M241.76,164s-16.37,30-23.35,30.57-18.77-19.57-23.25-27-6.83-17.18-5.4-25.39,9.52-1,14.8,9.6,13.67,27.35,13.67,27.35l19.12-21.76s.35-6.59,4.41-10.16,11.14-7.76,13.29-5.68-5.18,1.46-7.73,5.57c0,0,1.13-2.37,2.88,1.59s4.8,5.7,2.24,8.73-1.72-.54-3.41,1S249.55,161.52,241.76,164Z" transform="translate(0.48 -13.9)"></path><path class="cls-16" d="M218.16,305.7s2.33,16-1.54,48.86-6.94,50.62-6.94,50.62,10,8.88,14.39,10.39,9.11,1.68,7.92,4.65c-1,2.6-20.22,0-25.5,0s-12.37-1.44-11.47-5.38,4-10.13,4-10.13-.57-19.64-.7-40c-.08-13.62-1.31-27.57-.7-36.24,1.53-21.65,6.31-28.54,6.31-28.54Z" transform="translate(0.48 -13.9)"></path><path class="cls-16" d="M184.91,306.06c1.11,9.47-2.27,16-15.25,46.44s-21.08,45.74-21.08,45.74,8.17,12.49,12,15.17,7.75,4.31,5.35,6.42c-3.4,3-19.39-5.72-24.47-7.19s-11.45-4.87-9.48-8.4a91.07,91.07,0,0,1,6.79-9.42s5.73-21.68,11.83-42.53c3.35-11.44,5.47-22.63,8.16-29.84,7.57-20.35,14.15-26,14.15-26S184.46,302.23,184.91,306.06Z" transform="translate(0.48 -13.9)"></path><path class="cls-5" d="M154.66,259.49c-.66-13.11.84-27.37,9.68-41.7,4-6.53,7.11-8.08,7.3-17.78,16.92-2.25,28.24.85,33.25,2.76,0,.74-.06,1.47-.06,2.22,0,17.84,5.45,24.72,15.44,60.94s15.93,48.46,5.2,46.38-21.21-3.69-31.84,0-9.12-3.83-23.22-2.76-18.88-3.46-18.77-10.72S155.32,272.6,154.66,259.49Z" transform="translate(0.48 -13.9)"></path><path class="cls-12" d="M185.79,201.11a89.74,89.74,0,0,1,16.45,2.76v5.42a64.3,64.3,0,0,0-17.39-3.67Z" transform="translate(0.48 -13.9)"></path><path class="cls-12" d="M181.59,205.41c-3.13-.14-6-.12-8.5,0a30.12,30.12,0,0,0,.58-4c2.43-.19,5.46-.33,8.93-.32Z" transform="translate(0.48 -13.9)"></path><path class="cls-18" d="M189.76,142.15c1.44-8.21,9.52-1,14.8,9.6.7,1.42,1.46,2.94,2.25,4.53a18.68,18.68,0,0,0-11.65,11.26C190.68,160.13,188.33,150.36,189.76,142.15Z" transform="translate(0.48 -13.9)"></path><path class="cls-18" d="M195,414.84c.89-3.94,4-10.13,4-10.13,4,1.64,8.93,5.41,8.44,3.45s2.25-3,2.25-3,10,8.88,14.39,10.39,9.11,1.68,7.92,4.65c-1,2.6-20.22,0-25.5,0S194.16,418.78,195,414.84Z" transform="translate(0.48 -13.9)"></path><path class="cls-22" d="M206.5,420.22c-5.29,0-12.37-1.44-11.47-5.38.1-.46.24-.95.4-1.46.11,4.16,10,4.28,12.42,4.43s6.31.35,16.64,1.16c3.92.32,6.16,0,7.44-.43a1.73,1.73,0,0,1,.07,1.68C231,422.82,211.78,420.2,206.5,420.22Z" transform="translate(0.48 -13.9)"></path><path class="cls-18" d="M142.37,398.92c1.23,1.91,3.81,3,3.81.8s2.4-1.48,2.4-1.48,8.17,12.49,12,15.17,7.75,4.31,5.35,6.42c-3.4,3-19.39-5.72-24.47-7.19s-11.45-4.87-9.48-8.4a91.07,91.07,0,0,1,6.79-9.42A26,26,0,0,1,142.37,398.92Z" transform="translate(0.48 -13.9)"></path><path class="cls-11" d="M192,75.58s21.56-11.28,24.75,0-14.51,19.11-15.61,18,3.69-4.41,2.82-6.75-5.77,4.18-7.49,9.22-7.26,11.57-7.26,11.57L188,112.05s8.94,19.4,2.68,20.09-3.27,10.52-2.68,28.35-6.52,32-29.51,25.67.24-22.72-1.73-39.19-10.57-49.59,11.8-66.14C187.16,67,192,75.58,192,75.58Z" transform="translate(0.48 -13.9)"></path><path class="cls-23" d="M163.32,180.71c-5.25-1.58-8.56-6.36-6.53-9.4,3.61-5.41,14.42-4.26,14.42-4.26" transform="translate(0.48 -13.9)"></path><path class="cls-23" d="M166.69,105.5c-1.49,18,21.2,59.92,10.75,70.74a17.05,17.05,0,0,1-5.5,3.93" transform="translate(0.48 -13.9)"></path><path class="cls-23" d="M186.67,84.85C180.5,86.18,172,89.69,168,100.06" transform="translate(0.48 -13.9)"></path><path class="cls-23" d="M207.22,88.53s3.56-7.68,0-12c-3.07-3.71-6.49,3.84-13.55,6.74" transform="translate(0.48 -13.9)"></path><path class="cls-23" d="M161,116.89c1.61,11.33,6.89,36.52,3,40" transform="translate(0.48 -13.9)"></path><path class="cls-23" d="M185,80a30.08,30.08,0,0,0-16.55,8.52c-6.46,6.32-7.51,14.19-7.76,20.16" transform="translate(0.48 -13.9)"></path><path class="cls-23" d="M178.3,111.22C177,105.28,179.67,97.83,188,93.6" transform="translate(0.48 -13.9)"></path><path class="cls-23" d="M188,128.79s-.57-4.44-7.15-12.31" transform="translate(0.48 -13.9)"></path><path class="cls-16" d="M192,106.73s-2.79-5.08-6.23-3.53-1.76,10.9,4.36,11.23" transform="translate(0.48 -13.9)"></path><path class="cls-23" d="M219,281.41c2.28,8.43,3.66,16.45,3.36,22.95" transform="translate(0.48 -13.9)"></path><path class="cls-23" d="M195.82,224.16s13.83,26.5,21.54,51.59" transform="translate(0.48 -13.9)"></path><path class="cls-23" d="M169.59,267.91a171.4,171.4,0,0,0,15.14,22.86c6.05,8,2.22,7.65-5.4,7.65s-7.87-2.95-6.89-7.38" transform="translate(0.48 -13.9)"></path><path class="cls-23" d="M160.61,241.43a69.64,69.64,0,0,0,5.9,20.22" transform="translate(0.48 -13.9)"></path><path class="cls-22" d="M131.94,404.24c.18-.33.4-.69.63-1.06-1.06,3.59,6.48,5.76,10.78,7.11s13.15,5.53,18.07,7.62,4.68-.39,4.67-.52a1.52,1.52,0,0,1,.17,2.13,1.56,1.56,0,0,1-.37.31c-3.4,3-19.39-5.72-24.47-7.19S130,407.77,131.94,404.24Z" transform="translate(0.48 -13.9)"></path></g><g id="freepik--Device--inject-53"><g class="cls-24"><path class="cls-2" d="M339.37,177.42s-1.76-3.4-3.9-4.66-6.81.88-6.81.88,2.76-2.88,5-3.51,5.53,2,5.53,2A31.41,31.41,0,0,0,338,167a34.13,34.13,0,0,0-3.51-6.91s4.52,2.76,5.52,4.65a31.42,31.42,0,0,1,1.86,4.77,27.7,27.7,0,0,1,1.38-4.65c.63-1.12,3.9-2.13,3.9-2.13s-2.14,2.89-2.39,4.14-.5,4-.5,4a11,11,0,0,1,3.27-1.76c1.5-.37,3.51,1.76,3.51,1.76a7,7,0,0,0-3.64.62c-1.72.87-3.61,7.69-3.61,7.69l-3.76-.38Z" transform="translate(0.48 -13.9)"></path><g class="cls-25"><path class="cls-26" d="M339.37,177.42s-1.76-3.4-3.9-4.66-6.81.88-6.81.88,2.76-2.88,5-3.51,5.53,2,5.53,2A31.41,31.41,0,0,0,338,167a34.13,34.13,0,0,0-3.51-6.91s4.52,2.76,5.52,4.65a31.42,31.42,0,0,1,1.86,4.77,27.7,27.7,0,0,1,1.38-4.65c.63-1.12,3.9-2.13,3.9-2.13s-2.14,2.89-2.39,4.14-.5,4-.5,4a11,11,0,0,1,3.27-1.76c1.5-.37,3.51,1.76,3.51,1.76a7,7,0,0,0-3.64.62c-1.72.87-3.61,7.69-3.61,7.69l-3.76-.38Z" transform="translate(0.48 -13.9)"></path></g><path class="cls-27" d="M339.37,177.42s-1.76-3.4-3.9-4.66-6.81.88-6.81.88,2.76-2.88,5-3.51,5.53,2,5.53,2A31.41,31.41,0,0,0,338,167a34.13,34.13,0,0,0-3.51-6.91s4.52,2.76,5.52,4.65a31.42,31.42,0,0,1,1.86,4.77,27.7,27.7,0,0,1,1.38-4.65c.63-1.12,3.9-2.13,3.9-2.13s-2.14,2.89-2.39,4.14-.5,4-.5,4a11,11,0,0,1,3.27-1.76c1.5-.37,3.51,1.76,3.51,1.76a7,7,0,0,0-3.64.62c-1.72.87-3.61,7.69-3.61,7.69l-3.76-.38Z" transform="translate(0.48 -13.9)"></path><path class="cls-28" d="M339.37,177.42s-.62-3.9-2-5.91-6.41-3.89-6.41-3.89,4.52-.88,7.16,1,3.89,6.91,3.89,6.91.76-5.53,3.14-8.05,8.55.75,8.55.75-4.65-1.38-6.16.88a27.82,27.82,0,0,0-2.63,5.9s3-1.86,4.64-1,2.26,3.64,2.26,3.64-3.14-2-4.77-1.5-4.27,4.64-4.27,4.64l-2.64-.88Z" transform="translate(0.48 -13.9)"></path><path class="cls-28" d="M339.28,182.11a43.34,43.34,0,0,1-2.19-3.94c-.76-1.63-1.76-2.64-3.15-2.39a12.88,12.88,0,0,0-3.39,1.51s2.52-3.39,5.78-3.27,4.52,4.28,4.52,4.28a7,7,0,0,1,2.48-5.28c2.64-2.14,8.05-.88,8.67,0,0,0-4.4-.26-5.78,1.38a8.82,8.82,0,0,0-1.76,3s2.48-1.86,4.4-1.14,2.63,7.54,2.63,7.54-3.76-4.9-4.89-4.52-3.2,3.21-3.2,3.21Z" transform="translate(0.48 -13.9)"></path><path class="cls-29" d="M340.24,212.58h0a10.17,10.17,0,0,1-10.17-10.17V195.6c0-9.91,4.56-14.7,10.17-14.7h0c5.63,0,10.18,3.39,10.18,14.7v6.81a10.17,10.17,0,0,1-10.17,10.17Z" transform="translate(0.48 -13.9)"></path><path class="cls-13" d="M349.6,205.4c-.25-1-.53-2-.83-3q.84-.52,1.65-1v-.71c-.62.31-1.24.66-1.86,1-.28-.92-.58-1.86-.89-2.72a24.11,24.11,0,0,1,2.76-1.44v-1.74c-.27-.67-.55-1.34-.83-2l.77-.3a3.66,3.66,0,0,0,0-.66c-.33.13-.66.24-1,.38-.41-1-.85-1.93-1.31-2.86.62-.3,1.24-.57,1.86-.82,0-.21-.09-.41-.14-.62-.66.27-1.32.56-2,.88-.43-.9-.87-1.77-1.31-2.61.75-.39,1.51-.78,2.3-1.15l-.28-.56c-.78.37-1.55.76-2.3,1.17-.47-.89-.92-1.72-1.35-2.48.65-.31,1.32-.62,2-.89a5.45,5.45,0,0,0-.5-.46c-.62.26-1.24.53-1.8.8-.46-.83-.9-1.58-1.28-2.24l.23-.08a9.06,9.06,0,0,0-1.17-.28l.05.07c-.8.34-1.56.7-2.3,1.1-.27-.48-.52-.9-.74-1.28a5,5,0,0,0-.66.09c.26.44.54.93.85,1.48a30.54,30.54,0,0,0-2.68,1.68c-.4-.8-.76-1.5-1.07-2.1l-.53.34c.31.62.68,1.31,1.09,2.12a26.76,26.76,0,0,0-2.52,2c-.35-.66-.67-1.24-.95-1.73-.13.19-.26.37-.38.57.25.47.54,1,.85,1.58-.86.78-1.66,1.58-2.39,2.37,0-.05-.05-.09-.06-.14-.14.49-.25,1-.36,1.54l.25-.29c.32.7.7,1.51,1.1,2.42-.62.62-1.2,1.29-1.74,1.91v1q.92-1.09,2-2.28c.35.78.71,1.61,1.08,2.48-.8.74-1.53,1.45-2.19,2.1-.33-.83-.65-1.59-.93-2.25v1.6l.46,1.13-.46.48v.9l.71-.75c.3.73.62,1.52.9,2.34-.57.53-1.09,1-1.58,1.51a6.82,6.82,0,0,0,.08.79c.52-.51,1.11-1.08,1.74-1.67.4,1.1.8,2.26,1.19,3.44-.62.67-1.18,1.29-1.67,1.86.11.2.22.39.34.58.46-.53,1-1.11,1.56-1.73.31,1,.62,2.07.89,3.1l-.62.66c.16.13.32.27.49.39l.34-.34.17.72c.23.16.48.31.73.45q-.18-.84-.39-1.68c.75-.76,1.62-1.6,2.56-2.48.29.9.57,1.79.81,2.65-.76.69-1.48,1.35-2.11,1.95l.62.25c.51-.48,1.06-1,1.65-1.52.19.7.35,1.37.49,2,.22,0,.43.05.62.06-.17-.82-.37-1.67-.62-2.55.92-.81,1.91-1.67,2.94-2.53.32,1.1.62,2.2.87,3.29-.75.62-1.46,1.24-2.1,1.8a9.88,9.88,0,0,0,1.08-.11l1.18-1c.05.24.09.47.14.72l.62-.2c-.07-.32-.13-.62-.2-1,.79-.66,1.61-1.35,2.47-2,.14.52.27,1,.39,1.55l.54-.43c-.13-.51-.26-1-.4-1.55.92-.73,1.86-1.44,2.73-2.1,0,.17.07.35.11.51a10,10,0,0,0,.72-1.86ZM348,202.15q-1.44.93-2.88,2c-.29-.9-.62-1.81-.93-2.7,1-.72,1.95-1.4,2.92-2,.31.9.61,1.81.89,2.73Zm-6.81-8.39c-.38-.87-.75-1.72-1.12-2.55.92-.62,1.86-1.29,2.88-1.91.39.82.78,1.68,1.18,2.56-1,.6-2,1.24-2.95,1.9Zm3.19-1.33c.39.89.78,1.82,1.16,2.78-1,.62-2,1.24-3,1.94-.38-1-.77-1.89-1.15-2.8,1-.67,1.95-1.32,2.94-1.92Zm-3.72,1.7c-.82.58-1.62,1.18-2.39,1.78-.38-.86-.76-1.69-1.13-2.48.76-.62,1.57-1.24,2.41-1.86.37.84.74,1.69,1.11,2.56Zm-.85-3.49c-.43-1-.85-1.86-1.24-2.72.88-.62,1.81-1.24,2.8-1.86.43.82.87,1.71,1.32,2.64C341.72,189.35,340.76,190,339.85,190.64Zm-.51.37c-.85.62-1.67,1.24-2.43,1.86-.44-.93-.87-1.81-1.24-2.64.76-.65,1.58-1.29,2.44-1.93.38.84.8,1.75,1.23,2.71Zm-1.54,5.29c-1,.77-1.93,1.55-2.82,2.31-.34-.84-.69-1.66-1-2.45q1.26-1.14,2.73-2.34c.37.8.74,1.63,1.12,2.48Zm.25.58c.41.94.81,1.9,1.2,2.89-1,.83-1.93,1.68-2.82,2.52-.39-1-.79-2.07-1.2-3.1.89-.74,1.84-1.53,2.81-2.31Zm.5-.39c.78-.62,1.58-1.2,2.4-1.78.38.91.77,1.86,1.15,2.81-.81.62-1.59,1.2-2.35,1.86-.39-1-.79-2-1.2-2.89Zm3.79,1.66c.4,1,.78,2,1.15,3l-2.34,1.85c-.36-1-.74-2.05-1.14-3.05.75-.63,1.54-1.25,2.37-1.85Zm.52-.37c1-.7,2-1.36,3-2,.38,1,.75,2,1.11,3-1,.62-2,1.27-2.93,2-.37-1-.75-2-1.15-3Zm7.36-.72a25.29,25.29,0,0,0-2.73,1.43c-.37-1-.74-2-1.13-3,.88-.5,1.77-1,2.67-1.37.41,1,.82,2,1.19,2.93Zm-1.45-3.5c-.9.4-1.79.85-2.65,1.34-.39-1-.78-1.89-1.17-2.8q1.23-.73,2.52-1.38c.44.92.88,1.87,1.3,2.84Zm-1.57-3.4c-.83.42-1.65.87-2.48,1.37L343.54,189c.77-.47,1.57-.93,2.38-1.38C346.34,188.41,346.76,189.27,347.2,190.16ZM345.61,187c-.81.45-1.6.9-2.36,1.38-.45-.94-.9-1.82-1.32-2.64.74-.44,1.52-.85,2.33-1.24C344.69,185.3,345.14,186.14,345.61,187Zm-3-5.33c.39.67.83,1.43,1.3,2.28-.79.39-1.56.81-2.31,1.24-.46-.88-.9-1.69-1.3-2.41Q341.45,182.21,342.65,181.7Zm-2.86,1.4c.41.73.86,1.55,1.32,2.44-1,.58-1.9,1.19-2.79,1.81-.43-.92-.85-1.78-1.23-2.56C337.94,184.2,338.84,183.63,339.79,183.1Zm-3.22,2.06c.39.77.81,1.63,1.24,2.56-.87.63-1.69,1.27-2.48,1.93-.45-.9-.87-1.73-1.27-2.48C334.86,186.48,335.69,185.8,336.57,185.16ZM331.23,190a30.28,30.28,0,0,1,2.4-2.41c.4.75.82,1.58,1.24,2.48-.92.79-1.77,1.59-2.55,2.38C331.9,191.52,331.52,190.7,331.23,190Zm1.39,3c.79-.79,1.64-1.61,2.56-2.41.42.82.83,1.7,1.24,2.61-1,.8-1.86,1.57-2.71,2.32L332.59,193Zm-1.33,5.7c.65-.66,1.38-1.38,2.2-2.13.34.79.68,1.6,1,2.44-.82.7-1.59,1.4-2.3,2-.37-.85-.65-1.62-.95-2.36Zm1.16,3c.71-.66,1.48-1.36,2.3-2.08.41,1,.83,2,1.24,3.09-.84.82-1.62,1.62-2.34,2.36-.44-1.13-.83-2.28-1.24-3.37Zm2.29,7.19c-.28-1-.58-2.07-.91-3.1.72-.76,1.51-1.56,2.36-2.39.37,1,.74,2,1.08,3C336.35,207.34,335.5,208.17,334.74,208.92Zm1.95-6c.88-.84,1.86-1.7,2.82-2.55q.62,1.51,1.14,3.06c-1,.85-2,1.71-2.87,2.54-.36-1-.71-2-1.09-3Zm2.14,6.37c-.26-.87-.54-1.76-.83-2.65.91-.85,1.86-1.71,2.88-2.56.31.89.62,1.79.87,2.69-1,.88-2,1.71-2.92,2.52Zm2.55-5.64,2.34-1.86c.32.89.62,1.8.92,2.7q-1.22.93-2.37,1.86c-.28-.9-.58-1.8-.89-2.69Zm2,6.63c-.26-1.09-.56-2.18-.88-3.27.77-.62,1.57-1.27,2.37-1.86.33,1,.65,2.11,1,3.16-.83.65-1.66,1.32-2.44,2Zm3-2.41c-.29-1.05-.62-2.09-.94-3.14.95-.7,1.91-1.38,2.86-2,.3,1,.57,2,.83,3-.89.65-1.82,1.38-2.75,2.11Z" transform="translate(0.48 -13.9)"></path><path class="cls-29" d="M350.39,199.39a7.73,7.73,0,1,1-15.45,0h0c0-4.26,3.21-7,7.75-6.81C347.4,192.82,350.39,195.13,350.39,199.39Z" transform="translate(0.48 -13.9)"></path><path class="cls-29" d="M330.33,185l-1.86-4.23a13.88,13.88,0,0,1-1.12-4.69l-.21-6.88h-4.33l-.19,6.9a13.87,13.87,0,0,1-1.12,4.7L319.64,185a13.91,13.91,0,0,0-1.14,5.51V206a1.6,1.6,0,0,0,1.59,1.6h9.77a1.6,1.6,0,0,0,1.59-1.6h0V190.52A13.81,13.81,0,0,0,330.33,185Z" transform="translate(0.48 -13.9)"></path><polygon class="cls-28" points="323.31 155.29 323.3 157.48 327.67 157.48 327.65 155.29 326.92 155.29 324.03 155.29 323.31 155.29"></polygon><path class="cls-28" d="M324.57,186.05s-3.84-3.51-5.05-3.84a43.34,43.34,0,0,0-8.78-.33c-4.28.11-3.94.66-2.19,1.32a7.68,7.68,0,0,0,4.17-.11s-2.64-.11-6.25,2.74-4.51,4.5-3.84,4.61,3.71-2.31,4.49-2.85a6,6,0,0,1,1.43-.77,29.31,29.31,0,0,0-3.95,5.92c-1.21,2.74-3.62,7.24-2.2,8.12s3.52-5.37,3.52-5.37a51.28,51.28,0,0,0-.88,8c.1,2.64,1.64,7,2.2,4.61s1.53-13.27,1.53-13.62,1,2.3,1.53.65.22-8,.55-8.22,1.1,1.31,2,.54,4.28-3.62,4.28-3.62-2,2.31-.55,2.31,3-2,3.4-2.2S324.57,186.05,324.57,186.05Z" transform="translate(0.48 -13.9)"></path><path class="cls-29" d="M333.7,201s-1.64-5.81-2.74-9.54-3-5.82-4.17-6.26-5.32.45-5.7,3.19,1,5.48,2,7.35a62.6,62.6,0,0,1,3.1,6.25,27.28,27.28,0,0,1,1.75,4.83,25.42,25.42,0,0,0,3.41,6.69c.88,1.21,1.31,2.63,2.19,3.1s1.31-.88,1.54-2.64a38.61,38.61,0,0,0-.11-6.36C334.77,206.79,333.7,201,333.7,201Z" transform="translate(0.48 -13.9)"></path><path class="cls-29" d="M328.86,194.05a7.73,7.73,0,1,1-12.5,9.09c-2.48-3.46-1.52-7.56,2.28-10S326.36,190.61,328.86,194.05Z" transform="translate(0.48 -13.9)"></path><polygon class="cls-29" points="320.49 179.41 319.33 176.32 320.33 176 321.2 179.44 320.49 179.41"></polygon><path class="cls-30" d="M317.36,196.93a.51.51,0,0,1-.11.7.5.5,0,0,1-.69-.11.48.48,0,0,1,.1-.69h0a.48.48,0,0,1,.68.11Z" transform="translate(0.48 -13.9)"></path><path class="cls-30" d="M319.55,196.49a.5.5,0,0,1-.11.69h0a.5.5,0,0,1-.59-.8.51.51,0,0,1,.7.11Z" transform="translate(0.48 -13.9)"></path><path class="cls-30" d="M320.46,198a.24.24,0,1,1-.4.28h0a.24.24,0,0,1,.4-.28Z" transform="translate(0.48 -13.9)"></path><path class="cls-30" d="M318.47,198.56a.51.51,0,0,1-.11.7.49.49,0,0,1-.58-.8h0a.5.5,0,0,1,.69.11Z" transform="translate(0.48 -13.9)"></path><path class="cls-29" d="M341.48,200.74a7.73,7.73,0,1,1-15.45,0c0-4.26,3.21-7,7.75-6.81C338.5,194.17,341.48,196.48,341.48,200.74Z" transform="translate(0.48 -13.9)"></path><polygon class="cls-29" points="335.25 181.04 336.13 177.85 337.11 178.18 335.8 181.47 335.25 181.04"></polygon><path class="cls-30" d="M330.49,196.31a.49.49,0,0,1-.49.49.5.5,0,0,1-.5-.49.51.51,0,0,1,.5-.5.5.5,0,0,1,.49.5Z" transform="translate(0.48 -13.9)"></path><path class="cls-30" d="M332.52,197.24a.5.5,0,0,1-.55.44.49.49,0,0,1,0-1,.49.49,0,0,1,.55.43Z" transform="translate(0.48 -13.9)"></path><path class="cls-30" d="M332.36,199a.25.25,0,1,1-.25-.25.25.25,0,0,1,.25.25Z" transform="translate(0.48 -13.9)"></path><path class="cls-30" d="M330.44,198.29a.5.5,0,1,1-.5-.5.49.49,0,0,1,.5.5Z" transform="translate(0.48 -13.9)"></path><path class="cls-29" d="M361.85,202.35a7.73,7.73,0,1,1-15.45,0c0-4.26,3.2-7,7.74-6.81C358.86,195.78,361.85,198.09,361.85,202.35Z" transform="translate(0.48 -13.9)"></path><polygon class="cls-27" points="355.62 182.65 356.49 179.46 357.48 179.79 356.16 183.08 355.62 182.65"></polygon><path class="cls-30" d="M350.86,197.92a.51.51,0,0,1-.5.5h0a.5.5,0,0,1,0-1h0a.51.51,0,0,1,.5.5Z" transform="translate(0.48 -13.9)"></path><path class="cls-30" d="M352.91,198.85a.5.5,0,0,1-1,0,.5.5,0,1,1,1,0Z" transform="translate(0.48 -13.9)"></path><path class="cls-30" d="M352.72,200.63a.25.25,0,0,1-.5,0,.25.25,0,0,1,.25-.25h0A.25.25,0,0,1,352.72,200.63Z" transform="translate(0.48 -13.9)"></path><path class="cls-30" d="M350.8,199.9a.48.48,0,0,1-.49.48h0a.48.48,0,0,1-.49-.48.5.5,0,0,1,.49-.5h0a.5.5,0,0,1,.5.5Z" transform="translate(0.48 -13.9)"></path><path class="cls-29" d="M339.6,204.89s13-30,20.91-34.48,3.77,10,.57,20S350.55,215.81,343.94,222,332.25,224.48,339.6,204.89Z" transform="translate(0.48 -13.9)"></path><path class="cls-27" d="M354.86,178.51l7.34,3S358.82,176.25,354.86,178.51Z" transform="translate(0.48 -13.9)"></path><path class="cls-27" d="M351.47,184.76l7.35,3S355.43,182.47,351.47,184.76Z" transform="translate(0.48 -13.9)"></path><path class="cls-27" d="M347.7,191.89l7.35,3S351.67,189.63,347.7,191.89Z" transform="translate(0.48 -13.9)"></path><path class="cls-27" d="M344.12,200.56l7.35,3S348.08,198.3,344.12,200.56Z" transform="translate(0.48 -13.9)"></path><path class="cls-27" d="M340.16,208.09l7.36,3S344.12,205.82,340.16,208.09Z" transform="translate(0.48 -13.9)"></path><path class="cls-27" d="M337.52,215.07l7.33,3S341.48,212.8,337.52,215.07Z" transform="translate(0.48 -13.9)"></path><path class="cls-19" d="M314,198.3,349.4,206l12.8-5.09s2.47,21.68,4.14,29.77,1.13,13.38-.75,16-11.3,6.19-14.87,7.15-13.37.38-18.08-1.69-15.26-6-18.66-8.29a8,8,0,0,1-3.77-7.16c.2-1.51,3.58-29,3.77-31.65S314,198.3,314,198.3Z" transform="translate(0.48 -13.9)"></path><path class="cls-27" d="M350.43,217c.14,4.3.28,9.55.28,13.34,0,7.54,2.64,16.77.94,20.16" transform="translate(0.48 -13.9)"></path><path class="cls-27" d="M350.15,209.41s.07,1.67.16,4.16" transform="translate(0.48 -13.9)"></path></g></g></svg>