<svg xmlns="http://www.w3.org/2000/svg" id="Layer_1" data-name="Layer 1" viewBox="0 0 424.02 406.96"><defs><style>.cls-1,.cls-7{fill:#e10454;}.cls-11,.cls-14,.cls-17,.cls-19,.cls-2,.cls-3,.cls-5,.cls-9{fill:#fff;}.cls-2{opacity:0.7;}.cls-15,.cls-19,.cls-2,.cls-20,.cls-3{isolation:isolate;}.cls-3{opacity:0.5;}.cls-16,.cls-4{fill:#263238;}.cls-11,.cls-12,.cls-13,.cls-14,.cls-16,.cls-5,.cls-6,.cls-7,.cls-9{stroke:#263238;}.cls-14,.cls-5,.cls-6,.cls-7{stroke-miterlimit:10;}.cls-12,.cls-13,.cls-18,.cls-20,.cls-6{fill:none;}.cls-8{opacity:0.26;}.cls-13,.cls-9{stroke-miterlimit:10;}.cls-10{fill:#40208b;}.cls-11,.cls-12,.cls-16,.cls-18,.cls-20{stroke-linecap:round;stroke-linejoin:round;}.cls-14{stroke-width:2px;}.cls-15,.cls-20{opacity:0.2;}.cls-18,.cls-20{stroke:#fff;}.cls-19{opacity:0.6;}.cls-20{stroke-width:0.75px;}</style></defs><title>دریافت نظر مشتریان</title><g id="freepik--background-simple--inject-230"><g id="freepik--background-simple--inject-11--inject-230"><path class="cls-1" d="M386.33,86.06s-46.51-38-107-21.17-85.83,69-120.51,104.82c-18.17,18.76-45,25.67-66.6,40.12-69,46.18-58.8,150-5.58,189.16,51.44,37.81,119.88,32.5,177.89,15.05,106.06-31.92,233.79-129.3,178.64-254A201.76,201.76,0,0,0,386.33,86.06Z" transform="translate(-38.74 -42.18)"></path><path class="cls-2" d="M386.33,86.06s-46.51-38-107-21.17-85.83,69-120.51,104.82c-18.17,18.76-45,25.67-66.6,40.12-69,46.18-58.8,150-5.58,189.16,51.44,37.81,119.88,32.5,177.89,15.05,106.06-31.92,233.79-129.3,178.64-254A201.76,201.76,0,0,0,386.33,86.06Z" transform="translate(-38.74 -42.18)"></path></g></g><g id="freepik--Shape--inject-230"><ellipse class="cls-1" cx="211.26" cy="390.13" rx="211.26" ry="16.83"></ellipse><ellipse class="cls-3" cx="211.26" cy="390.13" rx="211.26" ry="16.83"></ellipse></g><g id="freepik--Status--inject-230"><rect class="cls-4" x="153.44" y="39.08" width="235.75" height="131.11" rx="8.59"></rect><rect class="cls-5" x="160.42" y="43.99" width="235.75" height="131.11" rx="8.59"></rect><line class="cls-6" x1="182.47" y1="136.98" x2="374.26" y2="136.98"></line><path class="cls-7" d="M227.45,102.12a7.51,7.51,0,1,1-7.51-7.51h0A7.51,7.51,0,0,1,227.45,102.12Z" transform="translate(-38.74 -42.18)"></path><line class="cls-6" x1="176.23" y1="54.31" x2="186.23" y2="65.5"></line><line class="cls-6" x1="186.91" y1="54.41" x2="176.7" y2="65.4"></line><path class="cls-7" d="M397.52,206.29H358.2a8.42,8.42,0,0,1-8.43-8.41v0h0a8.42,8.42,0,0,1,8.43-8.43h39.32a8.45,8.45,0,0,1,8.43,8.43h0a8.42,8.42,0,0,1-8.43,8.43Z" transform="translate(-38.74 -42.18)"></path><path class="cls-4" d="M358.6,198.15v-3.52h.89v3.49c0,1.37.63,2,1.74,2s1.76-.62,1.76-2v-3.49h.85v3.52a2.62,2.62,0,0,1-5.24,0Z" transform="translate(-38.74 -42.18)"></path><path class="cls-4" d="M371.54,196.79c0,1.35-1,2.16-2.58,2.16h-1.53v1.88h-.89v-6.2H369C370.57,194.63,371.54,195.45,371.54,196.79Zm-.88,0c0-.88-.6-1.39-1.73-1.39h-1.5v2.78h1.5C370.06,198.18,370.66,197.68,370.66,196.79Z" transform="translate(-38.74 -42.18)"></path><path class="cls-4" d="M373.73,194.63h2.61a3.11,3.11,0,0,1,.5,6.2h-3.11Zm2.55,5.43a2.34,2.34,0,1,0,.43-4.66,3.09,3.09,0,0,0-.43,0h-1.67v4.66Z" transform="translate(-38.74 -42.18)"></path><path class="cls-4" d="M385.78,199.28h-3.3l-.68,1.55h-.91l2.81-6.2h.87l2.82,6.2h-.93Zm-.31-.71-1.34-3-1.34,3Z" transform="translate(-38.74 -42.18)"></path><path class="cls-4" d="M390.11,195.4H388v-.77h5.12v.77H391v5.43h-.88Z" transform="translate(-38.74 -42.18)"></path><path class="cls-4" d="M399.46,200.06v.77H395v-6.2h4.37v.77h-3.49v1.9H399v.76h-3.11v2Z" transform="translate(-38.74 -42.18)"></path><g class="cls-8"><path class="cls-4" d="M282.35,138.33l-2.81,8.39h-1.26L276,140l-2.29,6.7h-1.28l-2.81-8.39h1.24l2.26,6.82,2.37-6.82h1.1l2.31,6.86,2.32-6.86Z" transform="translate(-38.74 -42.18)"></path><path class="cls-4" d="M291.06,143.06v3.66h-1.15V143.2c0-1.25-.62-1.86-1.71-1.86a1.89,1.89,0,0,0-2,1.76,2,2,0,0,0,0,.35v3.27H285v-8.9h1.15v3.45a2.73,2.73,0,0,1,2.24-1,2.46,2.46,0,0,1,2.68,2.22A2.18,2.18,0,0,1,291.06,143.06Z" transform="translate(-38.74 -42.18)"></path><path class="cls-4" d="M299.44,142.89v3.83h-1.09v-.84a2.35,2.35,0,0,1-2.09.91c-1.44,0-2.35-.76-2.35-1.87s.66-1.86,2.56-1.86h1.82v-.22c0-1-.56-1.54-1.7-1.54a3.21,3.21,0,0,0-2,.69l-.48-.87a4.21,4.21,0,0,1,2.63-.81C298.46,140.31,299.44,141.15,299.44,142.89Zm-1.15,1.89v-.89h-1.78c-1.14,0-1.46.45-1.46,1s.53,1,1.4,1A1.85,1.85,0,0,0,298.29,144.78Z" transform="translate(-38.74 -42.18)"></path><path class="cls-4" d="M306.35,146.35a2.18,2.18,0,0,1-1.39.44,1.81,1.81,0,0,1-2-1.6,2.67,2.67,0,0,1,0-.4V141.3h-1.08v-.94H303V139h1.15v1.39H306v.94H304.1v3.45a.93.93,0,0,0,.79,1.05.74.74,0,0,0,.21,0,1.4,1.4,0,0,0,.9-.3Z" transform="translate(-38.74 -42.18)"></path><path class="cls-4" d="M318.41,142.89v3.83h-1.09v-.84a2.32,2.32,0,0,1-2.09.91c-1.44,0-2.35-.76-2.35-1.87s.66-1.86,2.56-1.86h1.82v-.22c0-1-.56-1.54-1.7-1.54a3.21,3.21,0,0,0-2,.69l-.48-.87a4.21,4.21,0,0,1,2.63-.81C317.43,140.31,318.41,141.15,318.41,142.89Zm-1.15,1.89v-.89h-1.77c-1.14,0-1.47.45-1.47,1s.53,1,1.41,1A1.85,1.85,0,0,0,317.26,144.78Z" transform="translate(-38.74 -42.18)"></path><path class="cls-4" d="M325.17,140.31v1.11h-.26a1.89,1.89,0,0,0-2,1.78,1.53,1.53,0,0,0,0,.37v3.16h-1.15v-6.35h1.1v1.06A2.45,2.45,0,0,1,325.17,140.31Z" transform="translate(-38.74 -42.18)"></path><path class="cls-4" d="M333.45,143.93h-5.16a2.15,2.15,0,0,0,2.3,1.86,2.37,2.37,0,0,0,1.84-.77l.63.74a3.14,3.14,0,0,1-2.5,1,3.18,3.18,0,0,1-3.41-2.93c0-.11,0-.21,0-.32a3.11,3.11,0,0,1,3-3.23h.22a3.08,3.08,0,0,1,3.15,3,2.53,2.53,0,0,1,0,.28C333.47,143.68,333.46,143.82,333.45,143.93Zm-5.16-.83h4.08a2,2,0,0,0-4.08,0Z" transform="translate(-38.74 -42.18)"></path><path class="cls-4" d="M346.32,140.37l-3.08,7c-.56,1.34-1.29,1.76-2.27,1.76a2.33,2.33,0,0,1-1.63-.59l.49-.86a1.63,1.63,0,0,0,1.14.47c.56,0,.9-.25,1.22-1l.2-.44-2.81-6.34h1.2l2.22,5.08,2.2-5.08Z" transform="translate(-38.74 -42.18)"></path><path class="cls-4" d="M347.84,143.54a3.31,3.31,0,1,1,3.37,3.25h-.06a3.17,3.17,0,0,1-3.31-3Zm5.44,0a2.14,2.14,0,1,0-4.28,0h0a2.14,2.14,0,1,0,4.28,0Z" transform="translate(-38.74 -42.18)"></path><path class="cls-4" d="M363.17,140.37v6.35h-1.09v-1a2.6,2.6,0,0,1-2.16,1,2.48,2.48,0,0,1-2.73-2.22,2.53,2.53,0,0,1,0-.55V140.3h1.15v3.52c0,1.25.62,1.87,1.71,1.87a1.87,1.87,0,0,0,2-1.72,1.7,1.7,0,0,0,0-.39V140.3Z" transform="translate(-38.74 -42.18)"></path><path class="cls-4" d="M261.35,153.77h-2.87v-1h6.94v1h-2.88v7.35h-1.19Z" transform="translate(-38.74 -42.18)"></path><path class="cls-4" d="M273.79,157.46v3.66h-1.15V157.6c0-1.25-.62-1.86-1.71-1.86a1.89,1.89,0,0,0-2,1.76,2,2,0,0,0,0,.35v3.27h-1.15v-8.9h1.15v3.45a2.74,2.74,0,0,1,2.25-1,2.45,2.45,0,0,1,2.63,2.26A2.35,2.35,0,0,1,273.79,157.46Z" transform="translate(-38.74 -42.18)"></path><path class="cls-4" d="M276.93,152.8a.76.76,0,0,1,.76-.76h0a.76.76,0,0,1,.78.72v0a.78.78,0,1,1-1.56,0Zm.2,2h1.16v6.35h-1.16Z" transform="translate(-38.74 -42.18)"></path><path class="cls-4" d="M287.71,157.46v3.66h-1.15V157.6c0-1.25-.62-1.86-1.71-1.86a1.89,1.89,0,0,0-2,1.76,2,2,0,0,0,0,.35v3.27H281.7v-6.35h1.11v1a2.69,2.69,0,0,1,2.29-1,2.45,2.45,0,0,1,2.62,2.27A3,3,0,0,1,287.71,157.46Z" transform="translate(-38.74 -42.18)"></path><path class="cls-4" d="M293.53,158.16l-1.32,1.22v1.74h-1.16v-8.9h1.16v5.71l3.46-3.16h1.39l-2.67,2.62,2.94,3.73h-1.42Z" transform="translate(-38.74 -42.18)"></path><path class="cls-4" d="M299.36,152.8a.78.78,0,1,1,.82.74h0a.74.74,0,0,1-.78-.7Zm.2,2h1.15v6.35h-1.15Z" transform="translate(-38.74 -42.18)"></path><path class="cls-4" d="M310.14,157.46v3.66H309V157.6c0-1.25-.62-1.86-1.71-1.86a1.89,1.89,0,0,0-2,1.76,2,2,0,0,0,0,.35v3.27h-1.15v-6.35h1.1v1a2.73,2.73,0,0,1,2.29-1,2.46,2.46,0,0,1,2.62,2.29C310.15,157.2,310.15,157.33,310.14,157.46Z" transform="translate(-38.74 -42.18)"></path><path class="cls-4" d="M319.6,154.77v5.49c0,2.24-1.14,3.26-3.3,3.26a4.64,4.64,0,0,1-3-1l.55-.88a3.93,3.93,0,0,0,2.44.82c1.5,0,2.19-.69,2.19-2.13v-.5a2.89,2.89,0,0,1-2.29,1,3.08,3.08,0,0,1-.35-6.15,2,2,0,0,1,.35,0,2.89,2.89,0,0,1,2.35,1v-1Zm-1.13,3a2.19,2.19,0,1,0-2.31,2.07h.13a2,2,0,0,0,2.17-1.81,2.09,2.09,0,0,0,0-.25Z" transform="translate(-38.74 -42.18)"></path><path class="cls-4" d="M332.46,157.29v3.83h-1.09v-.84a2.34,2.34,0,0,1-2.08.91c-1.44,0-2.36-.76-2.36-1.87s.66-1.86,2.56-1.86h1.82v-.22c0-1-.56-1.54-1.7-1.54a3.21,3.21,0,0,0-2,.69l-.48-.87a4.21,4.21,0,0,1,2.63-.81C331.48,154.71,332.46,155.55,332.46,157.29Zm-1.15,1.89v-.89h-1.77c-1.14,0-1.47.45-1.47,1s.53,1,1.41,1A1.85,1.85,0,0,0,331.31,159.18Z" transform="translate(-38.74 -42.18)"></path><path class="cls-4" d="M342.39,157.94a3.09,3.09,0,0,1-2.92,3.25h-.3a2.67,2.67,0,0,1-2.26-1.07v1H335.8v-8.9H337v3.51a2.68,2.68,0,0,1,2.22-1,3.08,3.08,0,0,1,3.17,3Zm-1.17,0a2.14,2.14,0,1,0-2.14,2.25,2.1,2.1,0,0,0,2.15-2A1.55,1.55,0,0,0,341.22,157.94Z" transform="translate(-38.74 -42.18)"></path><path class="cls-4" d="M344.6,157.94a3.31,3.31,0,1,1,3.37,3.25h-.06a3.17,3.17,0,0,1-3.31-3Zm5.44,0a2.14,2.14,0,0,0-4.28,0h0a2.14,2.14,0,0,0,4.28,0Z" transform="translate(-38.74 -42.18)"></path><path class="cls-4" d="M359.93,154.77v6.35h-1.09v-1a2.6,2.6,0,0,1-2.16,1A2.48,2.48,0,0,1,354,158.9a2.53,2.53,0,0,1,0-.55V154.7h1.15v3.52c0,1.25.62,1.87,1.71,1.87a1.87,1.87,0,0,0,2-1.72,1.7,1.7,0,0,0,0-.39V154.7Z" transform="translate(-38.74 -42.18)"></path><path class="cls-4" d="M366.9,160.75a2.18,2.18,0,0,1-1.39.44,1.81,1.81,0,0,1-2-1.6,2.67,2.67,0,0,1,0-.4V155.7h-1.08v-.94h1.08v-1.39h1.15v1.39h1.82v.94h-1.82v3.45a.93.93,0,0,0,.79,1,.74.74,0,0,0,.21,0,1.4,1.4,0,0,0,.9-.3Z" transform="translate(-38.74 -42.18)"></path><path class="cls-4" d="M373.05,155c0-.77-.64-1.3-1.72-1.3a2.56,2.56,0,0,0-2.14,1l-.88-.62a3.7,3.7,0,0,1,3.11-1.35c1.72,0,2.84.81,2.84,2.14,0,2-2.12,2.13-2.12,3.7h-1.2C370.94,156.59,373.05,156.33,373.05,155Zm-2.28,5.48a.78.78,0,1,1,.8.76h0a.75.75,0,0,1-.78-.72v0Z" transform="translate(-38.74 -42.18)"></path></g><line class="cls-6" x1="225.87" y1="94.34" x2="225.87" y2="104.93"></line><path d="M274.7,99.89v8.4h-1l-5-6.26v6.26h-1.2v-8.4h1l5,6.26V99.89Z" transform="translate(-38.74 -42.18)"></path><path d="M278.05,100a.78.78,0,1,1,1.56,0,.76.76,0,0,1-.75.77h0a.76.76,0,0,1-.78-.72Zm.2,2h1.15v6.36h-1.15Z" transform="translate(-38.74 -42.18)"></path><path d="M282.21,105.11a3.17,3.17,0,0,1,3.11-3.24,2.08,2.08,0,0,1,.25,0,2.83,2.83,0,0,1,2.59,1.36l-.87.56a2,2,0,0,0-1.73-.91,2.24,2.24,0,0,0,0,4.47,2,2,0,0,0,1.73-.91l.87.55a2.84,2.84,0,0,1-2.59,1.37,3.2,3.2,0,0,1-3.36-3Z" transform="translate(-38.74 -42.18)"></path><path d="M293.24,105.33l-1.32,1.22v1.74h-1.15v-8.9h1.15v5.71l3.47-3.17h1.39l-2.68,2.63,2.94,3.73h-1.41Z" transform="translate(-38.74 -42.18)"></path><path d="M305.31,104.63v3.66h-1.15v-3.53c0-1.25-.63-1.86-1.72-1.86a1.87,1.87,0,0,0-2,1.74,1.53,1.53,0,0,0,0,.37v3.28h-1.15v-6.36h1.1v1a2.73,2.73,0,0,1,2.29-1,2.48,2.48,0,0,1,2.64,2.27A3.09,3.09,0,0,1,305.31,104.63Z" transform="translate(-38.74 -42.18)"></path><path d="M313.69,104.45v3.84h-1.1v-.84a2.36,2.36,0,0,1-2.08.91c-1.44,0-2.35-.77-2.35-1.87s.66-1.86,2.55-1.86h1.83v-.23c0-1-.57-1.53-1.71-1.53a3.17,3.17,0,0,0-2,.68l-.48-.86a4.19,4.19,0,0,1,2.62-.82C312.7,101.87,313.69,102.71,313.69,104.45Zm-1.15,1.89v-.88h-1.78c-1.14,0-1.46.44-1.46,1s.52,1,1.4,1A1.85,1.85,0,0,0,312.54,106.34Z" transform="translate(-38.74 -42.18)"></path><path d="M327.58,104.63v3.66h-1.15v-3.53c0-1.25-.6-1.86-1.64-1.86a1.84,1.84,0,0,0-1.93,1.75,2.17,2.17,0,0,0,0,.36v3.28h-1.15v-3.53c0-1.25-.6-1.86-1.65-1.86a1.89,1.89,0,0,0-1.9,2.11v3.28H317v-6.36h1.1v.95a2.56,2.56,0,0,1,2.19-1,2.36,2.36,0,0,1,2.21,1.18,2.88,2.88,0,0,1,2.45-1.18,2.44,2.44,0,0,1,2.64,2.22A2.35,2.35,0,0,1,327.58,104.63Z" transform="translate(-38.74 -42.18)"></path><path d="M336.67,105.49h-5.16a2.14,2.14,0,0,0,2.3,1.86,2.37,2.37,0,0,0,1.84-.77l.63.75a3.46,3.46,0,0,1-5.92-2.22,3.11,3.11,0,0,1,3-3.24h.21a3.08,3.08,0,0,1,3.15,3,2.81,2.81,0,0,1,0,.29C336.69,105.24,336.68,105.39,336.67,105.49Zm-5.16-.82h4.08a2,2,0,0,0-4.08,0Z" transform="translate(-38.74 -42.18)"></path><circle class="cls-4" cx="372" cy="49.37" r="49.32"></circle><circle class="cls-9" cx="376.07" cy="47.95" r="47.44"></circle><path class="cls-10" d="M450.7,121.1a47.38,47.38,0,0,1-66.82,5,46.51,46.51,0,0,1-4.53-4.46c1.91-3.12,4.9-5.91,8.29-6.48a37.09,37.09,0,0,0,4.05-.92c.32-.08.63-.17.94-.27.88-.27,1.75-.57,2.6-.9.43-.17.85-.34,1.27-.53l1.41-.63c.47-.22.92-.46,1.37-.7s.9-.49,1.34-.75.88-.53,1.31-.81.71-.47,1.06-.72l.36-.25c.36-.26.71-.53,1.06-.8h0c.41-.32.8-.64,1.19-1s.76-.68,1.14-1h0c.73-.7,1.44-1.44,2.11-2.22l2.64-.45.4-.07,10.1-1.73,3.29-.57.85-.14c1.11,2.47,3.45,4.07,6,5.12l.33.14c.62.25,1.25.46,1.88.65,3.34,1,6.89,1.59,9.79,3.52C447.81,112.56,449.76,116.7,450.7,121.1Z" transform="translate(-38.74 -42.18)"></path><path class="cls-4" d="M409.06,102.84a12.27,12.27,0,0,1-14,3.29,5.26,5.26,0,0,0,.53,4.19,5.08,5.08,0,0,1-2.7-4.35,13.42,13.42,0,0,0-1.16,4.35c-4.73.91-9.75-1.85-12.1-6.06a15.94,15.94,0,0,1-.25-14l-2.66,3.49c-.86-2.11-.15-4.54,1-6.49s2.77-3.61,3.94-5.56c3.1-5.22,2.69-11.7,3.67-17.68a12.59,12.59,0,0,1,2.41-6.23c1.45-1.72,3.94-2.75,6-1.92.37-2.81,3.91-4.12,6.54-5.19,4.35-1.75,9-3.47,13.62-2.66,7.41,1.3,12.35,8.59,19.44,11.08,3.67,1.29,7.68,1.21,11.43,2.24s7.55,3.77,7.79,7.65l-4-2.09A23.36,23.36,0,0,1,450,93.39l-.75-3.69c.42,1.79-1.06,3.43-2.5,4.58-3.95,3.15-8.91,5.48-13.93,4.9-1.48-.17-2.93-.59-4.41-.83A18.75,18.75,0,0,0,416,100.81,12.92,12.92,0,0,1,409.06,102.84Z" transform="translate(-38.74 -42.18)"></path><path class="cls-11" d="M410.82,94.41c-1.43,2-3.74,8-4.28,13s0,13.2,1.25,13.2,3.39-10.7,3.39-10.7.89,4.1,3,5.35,5.88,9.62,5.88,9.62,5-9.09,5.7-12.12.9-4.45,1.79-3.39a51.83,51.83,0,0,1,4.1,7.85c.89,2.14,1.6-7,.35-12s-4.1-8.37-4.45-9.62-2.32-2.5-2.32-2.5C418.31,85.85,412.25,92.45,410.82,94.41Z" transform="translate(-38.74 -42.18)"></path><path class="cls-11" d="M409.39,97.44a51.8,51.8,0,0,1,3.21,10c.89,4.82,6.6,15.34,7.49,17.47s3.57-6.77,4.63-12.83-.24-20.74-.24-20.74C419.49,97.92,409.39,97.44,409.39,97.44Z" transform="translate(-38.74 -42.18)"></path><path class="cls-11" d="M398.94,64.33a66.87,66.87,0,0,1-3,6.28c-.93,1.81-2.21,3.71-2,5.83s6.1,14,8.6,16.71,11.11,9.47,14.83,6.94c8.23-5.6,7.49-22.19,6.61-24.9s-2-2-2-2c-.46.29-1.65-.67-2.09-.85-2.54-1.07-5.32-1.14-7.89-2.19a19.66,19.66,0,0,1-7.24-4.93c-1.6-1.8-3-3.87-5.47-4.55C400.05,60.88,399.59,62.63,398.94,64.33Z" transform="translate(-38.74 -42.18)"></path><path class="cls-12" d="M400.6,78.15a3.76,3.76,0,0,1,5.15-1.31L406,77" transform="translate(-38.74 -42.18)"></path><path class="cls-12" d="M416,72.7c-4.71-1.47-5.43,2.2-5.43,2.2" transform="translate(-38.74 -42.18)"></path><path class="cls-4" d="M406.19,81.41c.19.81.05,1.54-.32,1.63s-.83-.5-1-1.32-.05-1.54.32-1.63S406,80.59,406.19,81.41Z" transform="translate(-38.74 -42.18)"></path><path class="cls-4" d="M415.83,79c.19.82.05,1.55-.32,1.64s-.83-.51-1-1.32-.05-1.55.32-1.63S415.63,78.21,415.83,79Z" transform="translate(-38.74 -42.18)"></path><path class="cls-12" d="M410.61,77.2c0,4.84,3.21,7.93,3,9.64a.25.25,0,0,1-.28.22l-.07,0c-.74-.39-1.62-1-2.35-1.38" transform="translate(-38.74 -42.18)"></path><path class="cls-12" d="M407.45,89.8a6.3,6.3,0,0,0,6,2.29" transform="translate(-38.74 -42.18)"></path><path class="cls-4" d="M410.33,99.72s4.25,9.79,7.77,8.94,5.59-16.92,5.59-16.92-4.18,7.85-7.67,9.07C413.12,101.83,410.33,99.72,410.33,99.72Z" transform="translate(-38.74 -42.18)"></path><path class="cls-12" d="M406.75,105.87a15.1,15.1,0,0,1-1.14,1c-.39.3-.78.67-1.19,1h0c-.34.28-.7.54-1.06.8l-.36.25c-.35.26-.7.49-1.06.72s-.86.56-1.31.81-.89.52-1.34.75-.91.48-1.37.7-.93.44-1.41.63-.84.37-1.27.53c-.85.33-1.72.63-2.6.9-.31.1-.63.19-.94.27a37.09,37.09,0,0,1-4.05.92c-3.39.57-6.38,3.36-8.29,6.48" transform="translate(-38.74 -42.18)"></path><path class="cls-12" d="M450.7,121.1c-.94-4.4-2.89-8.54-6.55-11-2.9-1.93-6.45-2.51-9.79-3.52-.63-.19-1.26-.4-1.88-.65l-.33-.13" transform="translate(-38.74 -42.18)"></path><path class="cls-4" d="M422.28,130.6c0,1.11-.62,2-1.38,2s-1.38-.89-1.38-2,.62-2,1.38-2S422.28,129.49,422.28,130.6Z" transform="translate(-38.74 -42.18)"></path><path class="cls-12" d="M392.65,121.26a49.44,49.44,0,0,1,5.13,13.16" transform="translate(-38.74 -42.18)"></path><path class="cls-12" d="M397.36,121.73l1.32,7.26" transform="translate(-38.74 -42.18)"></path><circle class="cls-13" cx="376.07" cy="47.95" r="47.44"></circle></g><g id="freepik--Plant--inject-230"><path class="cls-5" d="M322.19,396.26v35.17c0,2.52,21.79,8.44,49.5,8.44s50.84-5.92,50.84-8.44V396.26Z" transform="translate(-38.74 -42.18)"></path><path class="cls-14" d="M322.19,418.07c0,2.52,21.79,8.45,49.5,8.45s50.84-5.93,50.84-8.45" transform="translate(-38.74 -42.18)"></path><path class="cls-7" d="M422.53,396.26c0,1.1-4.25,2.5-11.34,3.72a261.25,261.25,0,0,1-77.67,0c-7.08-1.22-11.33-2.62-11.33-3.72,0-2.53,22.46-4.56,50.16-4.56S422.53,393.73,422.53,396.26Z" transform="translate(-38.74 -42.18)"></path><path class="cls-4" d="M411.19,400a261.25,261.25,0,0,1-77.67,0c7.31-1.28,22-2.15,38.83-2.15S403.88,398.7,411.19,400Z" transform="translate(-38.74 -42.18)"></path><g id="freepik--Plants--inject-83--inject-230"><path class="cls-10" d="M390.3,240.94s0-5.18-7.25-12.42-11.9-11.4-11.9-11.4-3.63,11.91,3.1,19.17a127.18,127.18,0,0,0,16.05,14Z" transform="translate(-38.74 -42.18)"></path><path class="cls-10" d="M379.78,273.28s0-5.18-7.25-12.42-11.91-11.4-11.91-11.4-3.62,11.91,3.11,19.16a126,126,0,0,0,16,14Z" transform="translate(-38.74 -42.18)"></path><path class="cls-10" d="M389.84,249.77s.56-5.16,8.53-11.6,13-10.07,13-10.07,2.35,12.23-5.11,18.72A127.16,127.16,0,0,1,388.86,259Z" transform="translate(-38.74 -42.18)"></path><path class="cls-10" d="M377.14,288s1.08-5.06,9.69-10.63,14-8.65,14-8.65,1.05,12.41-7.05,18.09a128.55,128.55,0,0,1-18.62,10.32Z" transform="translate(-38.74 -42.18)"></path><path class="cls-10" d="M379.53,329.59s0-5.18,7.24-12.43,11.91-11.39,11.91-11.39,3.63,11.91-3.1,19.15a127.18,127.18,0,0,1-16.05,14Z" transform="translate(-38.74 -42.18)"></path><path class="cls-10" d="M379.41,339.75s.73-5.13-5.41-13.33-10.14-13-10.14-13-5.29,11.26.35,19.36a126.23,126.23,0,0,0,13.9,16.12Z" transform="translate(-38.74 -42.18)"></path><path class="cls-10" d="M372.25,369.91s0-5.18,7.26-12.42,11.9-11.4,11.9-11.4S395,358,388.3,365.25a127.18,127.18,0,0,1-16.05,14Z" transform="translate(-38.74 -42.18)"></path><path class="cls-10" d="M391.44,388.67a128.38,128.38,0,0,1-9.2,14c-.94,0-1.9.07-2.86.09h-.82l-1.39-5.32-.08-.3a11.7,11.7,0,0,1,.2-4.75,25.41,25.41,0,0,1,2.11-6.13c.44-.93,1-1.92,1.56-2.95,5.18-8.81,8.63-14,8.63-14S396.12,379.91,391.44,388.67Z" transform="translate(-38.74 -42.18)"></path><path class="cls-12" d="M378.32,402.81c-.5-1.67-1-3.38-1.49-5.09-.38-1.33-.75-2.66-1.12-4s-.7-2.55-1-3.79c-1.11-4.17-2-7.91-2.45-10.58a27.16,27.16,0,0,1,0-8.63c.2-1.36.48-2.73.82-4.12,1.27-5.28,3.31-10.93,4.83-17.9.33-1.48.63-3,.89-4.6v-.19c.14-.89.28-1.81.4-2.75,0-.24.06-.47.08-.71.05-.43.1-.86.13-1.3v0c0-.48.08-1,.1-1.44a52.68,52.68,0,0,0,0-5.62c-.6-12.6-4.82-24.84-4-35.17a27.41,27.41,0,0,1,.5-3.49,66.08,66.08,0,0,1,2.4-8.26c.32-.93.67-1.85,1-2.77a.23.23,0,0,1,.07-.19,2.26,2.26,0,0,0,.2-.52c3.25-8.14,7.24-15.83,9.2-26,.24-1.32.46-2.63.66-3.95v-.05c.08-.58.17-1.16.25-1.74a9.47,9.47,0,0,1,.13-1c.11-.76.2-1.54.28-2.3.28-2.35.49-4.71.66-7.07" transform="translate(-38.74 -42.18)"></path><line class="cls-12" x1="351.03" y1="211.02" x2="358.85" y2="205.03"></line><line class="cls-12" x1="351.4" y1="204.12" x2="348.13" y2="198.3"></line><path class="cls-12" d="M376.51,292.81s6.54-4.91,13.26-9.81" transform="translate(-38.74 -42.18)"></path><path class="cls-12" d="M379.78,282.6s-5.45-10.68-11.63-17.78" transform="translate(-38.74 -42.18)"></path><path class="cls-12" d="M379.79,337a80.6,80.6,0,0,1,14-18.67" transform="translate(-38.74 -42.18)"></path><path class="cls-12" d="M378.51,344.22a89.78,89.78,0,0,0-7.09-13.44c-3.81-5.63-4.36-6.36-4.36-6.36" transform="translate(-38.74 -42.18)"></path><path class="cls-12" d="M372.25,379.39a88.43,88.43,0,0,1,5.89-11.91,75.55,75.55,0,0,1,7.64-10" transform="translate(-38.74 -42.18)"></path><path class="cls-12" d="M379.38,402.79a20,20,0,0,1,2-8.06c2.77-5.27,5.82-12.18,7.09-14.9" transform="translate(-38.74 -42.18)"></path><path class="cls-10" d="M342.84,310.12s-.57-3.25,3.19-8.58,6.23-8.44,6.23-8.44,3.57,7.07.13,12.36a80.5,80.5,0,0,1-8.55,10.5Z" transform="translate(-38.74 -42.18)"></path><path class="cls-10" d="M352.94,329.25s-.56-3.25,3.2-8.57,6.23-8.45,6.23-8.45,3.56,7.08.13,12.35a80.22,80.22,0,0,1-8.5,10.51Z" transform="translate(-38.74 -42.18)"></path><path class="cls-10" d="M344.07,315.6s-.92-3.18-6.6-6.35-9.27-4.89-9.27-4.89-.14,7.92,5.29,11.16a80,80,0,0,0,12.25,5.76Z" transform="translate(-38.74 -42.18)"></path><path class="cls-10" d="M356.19,338.16s-1.23-3.05-7.23-5.61-9.74-3.9-9.74-3.9.69,7.89,6.38,10.57a81.24,81.24,0,0,0,12.78,4.45Z" transform="translate(-38.74 -42.18)"></path><path class="cls-10" d="M359.21,364.54s-.56-3.26-5.89-7-8.7-5.85-8.7-5.85-1,7.86,4,11.68a84.07,84.07,0,0,0,11.58,7Z" transform="translate(-38.74 -42.18)"></path><path class="cls-10" d="M360.39,370.89s-1-3.14,1.94-8.94,5-9.22,5-9.22,4.54,6.5,1.85,12.2a82,82,0,0,1-7,11.62Z" transform="translate(-38.74 -42.18)"></path><path class="cls-10" d="M369.49,397.08s.38-3.27,5.53-7.38,8.36-6.33,8.36-6.33,1.43,7.79-3.35,11.88a80.44,80.44,0,0,1-11.17,7.68Z" transform="translate(-38.74 -42.18)"></path><path class="cls-10" d="M368.14,389s-.56-3.24-5.89-7-8.7-5.85-8.7-5.85-1,7.86,4,11.67a81.68,81.68,0,0,0,11.59,7Z" transform="translate(-38.74 -42.18)"></path><path class="cls-10" d="M367.07,402.83c-1.36,0-2.72-.06-4.05-.11-1.74-.05-3.44-.13-5.11-.21-3.52-4.93-.7-12-.7-12s2.72,2.86,6.93,7.87A20.51,20.51,0,0,1,367.07,402.83Z" transform="translate(-38.74 -42.18)"></path><path class="cls-15" d="M390.3,240.94s0-5.18-7.25-12.42-11.9-11.4-11.9-11.4-3.63,11.91,3.1,19.17a127.18,127.18,0,0,0,16.05,14Z" transform="translate(-38.74 -42.18)"></path><path class="cls-15" d="M379.78,273.28s0-5.18-7.25-12.42-11.91-11.4-11.91-11.4-3.62,11.91,3.11,19.16a126,126,0,0,0,16,14Z" transform="translate(-38.74 -42.18)"></path><path class="cls-15" d="M389.84,249.77s.56-5.16,8.53-11.6,13-10.07,13-10.07,2.35,12.23-5.11,18.72A127.16,127.16,0,0,1,388.86,259Z" transform="translate(-38.74 -42.18)"></path><path class="cls-15" d="M377.14,288s1.08-5.06,9.69-10.63,14-8.65,14-8.65,1.05,12.41-7.05,18.09a128.55,128.55,0,0,1-18.62,10.32Z" transform="translate(-38.74 -42.18)"></path><path class="cls-15" d="M379.53,329.59s0-5.18,7.24-12.43,11.91-11.39,11.91-11.39,3.63,11.91-3.1,19.15a127.18,127.18,0,0,1-16.05,14Z" transform="translate(-38.74 -42.18)"></path><path class="cls-15" d="M372.25,369.91s0-5.18,7.26-12.42,11.9-11.4,11.9-11.4S395,358,388.3,365.25a127.18,127.18,0,0,1-16.05,14Z" transform="translate(-38.74 -42.18)"></path><path class="cls-15" d="M342.84,310.12s-.57-3.25,3.19-8.58,6.23-8.44,6.23-8.44,3.57,7.07.13,12.36a80.5,80.5,0,0,1-8.55,10.5Z" transform="translate(-38.74 -42.18)"></path><path class="cls-15" d="M374,326.42c-6.15-8.21-10.14-13-10.14-13s-.23.48-.54,1.31a15.54,15.54,0,0,0-.95-2.54s-2.47,3.12-6.23,8.45-3.2,8.57-3.2,8.57l1,5.84a79.91,79.91,0,0,0,7.75-9.38,14.65,14.65,0,0,0,2.51,7.11,126.23,126.23,0,0,0,13.9,16.12l1.3-9.19S380.14,334.62,374,326.42Z" transform="translate(-38.74 -42.18)"></path><path class="cls-15" d="M344.07,315.6s-.92-3.18-6.6-6.35-9.27-4.89-9.27-4.89-.14,7.92,5.29,11.16a80,80,0,0,0,12.25,5.76Z" transform="translate(-38.74 -42.18)"></path><path class="cls-15" d="M356.19,338.16s-1.23-3.05-7.23-5.61-9.74-3.9-9.74-3.9.69,7.89,6.38,10.57a81.24,81.24,0,0,0,12.78,4.45Z" transform="translate(-38.74 -42.18)"></path><path class="cls-15" d="M359.21,364.54s-.56-3.26-5.89-7-8.7-5.85-8.7-5.85-1,7.86,4,11.68a84.07,84.07,0,0,0,11.58,7Z" transform="translate(-38.74 -42.18)"></path><path class="cls-15" d="M360.39,370.89s-1-3.14,1.94-8.94,5-9.22,5-9.22,4.54,6.5,1.85,12.2a82,82,0,0,1-7,11.62Z" transform="translate(-38.74 -42.18)"></path><path class="cls-15" d="M389.59,369.31s-3.45,5.23-8.63,14a31.44,31.44,0,0,0-1.56,2.95c-1.23.93-2.7,2.06-4.38,3.4-5.15,4.11-5.53,7.38-5.53,7.38l-.63,5.85a83.08,83.08,0,0,0,8.31-5.45l1.39,5.32h.82c1,0,1.92-.05,2.86-.09a128.38,128.38,0,0,0,9.2-14C396.12,379.91,389.59,369.31,389.59,369.31Z" transform="translate(-38.74 -42.18)"></path><path class="cls-15" d="M368.14,389s-.56-3.24-5.89-7-8.7-5.85-8.7-5.85-1,7.86,4,11.67a81.68,81.68,0,0,0,11.59,7Z" transform="translate(-38.74 -42.18)"></path><path class="cls-15" d="M367.07,402.83c-1.36,0-2.72-.06-4.05-.11-1.74-.05-3.44-.13-5.11-.21-3.52-4.93-.7-12-.7-12s2.72,2.86,6.93,7.87A20.51,20.51,0,0,1,367.07,402.83Z" transform="translate(-38.74 -42.18)"></path><path class="cls-12" d="M368.7,402.85c.29-3.13.48-6,.47-7.88h0a17.32,17.32,0,0,0-.93-5.34,27.26,27.26,0,0,0-1-2.61c-1.38-3.15-3.26-6.45-4.95-10.62-.42-1-.82-2.06-1.18-3.19-.16-.46-.32-.94-.47-1.42v-.21c-.11-.35-.2-.7-.3-1.05h0c-.09-.31-.16-.63-.23-1-.23-1-.4-2.06-.54-3.1-1.06-8.06.29-16.34-1.39-22.82a20.33,20.33,0,0,0-.69-2.13,42.64,42.64,0,0,0-2.39-4.9,18.25,18.25,0,0,0-1-1.63.54.54,0,0,0-.05-.11c-.07-.12-.13-.22-.2-.32-2.91-4.76-6.25-9.14-8.58-15.3-.3-.8-.58-1.61-.85-2.44a.69.69,0,0,1-.05-.13c-.1-.31-.2-.61-.29-.93-.06-.16-.12-.33-.17-.5-.16-.5-.31-1-.46-1.5-.43-1.44-.82-2.89-1.18-4.36" transform="translate(-38.74 -42.18)"></path><line class="cls-12" x1="305.76" y1="275.56" x2="300.21" y2="272.65"></line><line class="cls-12" x1="304.78" y1="271.28" x2="306.2" y2="267.28"></line><path class="cls-12" d="M357.11,341.14s-4.61-2.36-9.38-4.71" transform="translate(-38.74 -42.18)"></path><path class="cls-12" d="M354,335.09a66.69,66.69,0,0,1,5.35-12.4" transform="translate(-38.74 -42.18)"></path><path class="cls-12" d="M359.85,369.18A51.39,51.39,0,0,0,349.05,359" transform="translate(-38.74 -42.18)"></path><path class="cls-12" d="M361.44,373.6a57.38,57.38,0,0,1,3-9.22c1.79-3.94,2-4.46,2-4.46" transform="translate(-38.74 -42.18)"></path><path class="cls-12" d="M368.93,400.58a48.08,48.08,0,0,1,6-6.19,32,32,0,0,0,3.88-3.38" transform="translate(-38.74 -42.18)"></path><path class="cls-12" d="M369.17,395a54.86,54.86,0,0,0-5-6.83,47.88,47.88,0,0,0-5.87-5.43" transform="translate(-38.74 -42.18)"></path><path class="cls-12" d="M359.06,397c.77,1.1,2.32,3.4,4,5.71" transform="translate(-38.74 -42.18)"></path></g></g><g id="freepik--Table--inject-230"><path class="cls-5" d="M275.15,424.1c-9.08-6.37-19.55-16.68-23-31.69a83.76,83.76,0,0,1-11.08,20,49.93,49.93,0,0,1-25.6,17.43c-2.49.76-3.89,1.61-3.89,2.51,0,3.19,17.58,5.78,39.27,5.78s39.28-2.59,39.28-5.78c0-.78-1.08-1.54-3-2.22A49,49,0,0,1,275.15,424.1Z" transform="translate(-38.74 -42.18)"></path><polygon class="cls-5" points="209.44 219.82 201.3 357.25 212.38 373.3 223.31 359.44 217.02 220.2 209.44 219.82"></polygon><path class="cls-4" d="M296.13,250.24H187.26v7.18c0,5.47,28.86,9.91,64.46,9.91s64.46-4.44,64.46-9.91v-7.18Z" transform="translate(-38.74 -42.18)"></path><ellipse class="cls-10" cx="212.98" cy="208.06" rx="64.46" ry="9.91"></ellipse><ellipse class="cls-12" cx="212.98" cy="208.06" rx="64.46" ry="9.91"></ellipse><g id="freepik--Plant--inject-1--inject-2--inject-230"><path class="cls-11" d="M295.69,230.4h-33s0,8.86,4.66,20.45c0,2.22,5.33,4,11.91,4s11.9-1.79,11.9-4a1.82,1.82,0,0,0,0-.33C295.64,239.09,295.69,230.4,295.69,230.4Z" transform="translate(-38.74 -42.18)"></path><ellipse class="cls-11" cx="240.56" cy="188.22" rx="16.57" ry="4.81"></ellipse><ellipse class="cls-11" cx="240.56" cy="188.22" rx="14.87" ry="4.02"></ellipse><path class="cls-16" d="M265.83,232.1c2.38,1.37,7.51,2.31,13.47,2.31s11.09-.94,13.46-2.31c-2.37-1.36-7.51-2.31-13.46-2.31S268.21,230.74,265.83,232.1Z" transform="translate(-38.74 -42.18)"></path><path class="cls-7" d="M272.37,232.48s-4.31-10.76-3.05-13.63,5.38-2.51,6.82.36,2.15,13.63,2.15,13.63S274,234.28,272.37,232.48Z" transform="translate(-38.74 -42.18)"></path><path class="cls-7" d="M276.14,233.56s-3.41-19-2.52-22.6,5.39-4.85,8.61-2.16,2,16.33,2,18.3-.18,6.1-.18,6.1A15,15,0,0,1,276.14,233.56Z" transform="translate(-38.74 -42.18)"></path><path class="cls-7" d="M283.13,233.2s-2.66-7.36-1.07-10.23,4.84-1.79,4.84.54.18,7.9-.18,9.15S284.39,234.28,283.13,233.2Z" transform="translate(-38.74 -42.18)"></path><path class="cls-12" d="M279.19,233c-4.49-17-.72-25.47-.72-25.47s5.38,9.33,2.51,25.47" transform="translate(-38.74 -42.18)"></path><path class="cls-12" d="M271.83,218.49s-4.13.18,2.69,14.35" transform="translate(-38.74 -42.18)"></path></g></g><g id="freepik--Character--inject-230"><path class="cls-5" d="M173.7,425.77c-9.08-5.62-19.55-14.7-23-27.93a71.31,71.31,0,0,1-11.08,17.59c-6.37,7.45-15.47,12.65-25.6,15.36-2.49.67-3.89,1.42-3.89,2.21,0,2.81,17.58,5.09,39.27,5.09s39.28-2.28,39.28-5.09c0-.69-1.08-1.36-3-2A51.91,51.91,0,0,1,173.7,425.77Z" transform="translate(-38.74 -42.18)"></path><polygon class="cls-5" points="107.99 240.76 99.85 361.84 110.93 375.99 121.86 363.78 115.57 241.1 107.99 240.76"></polygon><path class="cls-4" d="M193.85,288.5H85v7.19c0,5.46,28.86,9.9,64.46,9.9s64.46-4.44,64.46-9.9V288.5Z" transform="translate(-38.74 -42.18)"></path><ellipse class="cls-7" cx="110.71" cy="246.33" rx="64.46" ry="9.91"></ellipse><path class="cls-17" d="M252.8,406.38c-2.16,2.4-6,2.39-9,1.45-4.68-1.44-8.7-4.52-13.31-6.14-5.66-2-12.37-1.92-16.77-6a14.77,14.77,0,0,1-4.15-8.12l-.12-.68a45.25,45.25,0,0,1-.07-9.94l11-6.39c7.22,10.25,19.5,19.94,26.53,25.61a47.24,47.24,0,0,1,5.06,4.42C254.45,403.73,252.8,406.38,252.8,406.38Z" transform="translate(-38.74 -42.18)"></path><path class="cls-6" d="M209.34,376.94a45.25,45.25,0,0,0,.07,9.94,15.14,15.14,0,0,0,4.27,8.8c4.4,4.09,11.11,4,16.77,6,4.61,1.62,8.63,4.7,13.31,6.14,3.08.94,6.88.95,9-1.45,0,0,1.65-2.65-.92-5.8s-21.76-16.08-31.59-30Z" transform="translate(-38.74 -42.18)"></path><path class="cls-10" d="M119.88,247.08S107.24,260,108.39,275.57s21.33,22.48,34.66,27.81a79.47,79.47,0,0,1,22.64,14.1s-4.35,12.19,7.08,27.42,37.34,34.29,37.34,34.29a11.93,11.93,0,0,0,11-7.62s-25-43.81-31.17-62.09c0,0-1.15-14-6.91-19.05,0,0,7.64-8.16,7.57-17.33S182,249.63,172,243l-.74,2.29-9,7.31s-20.5,1.62-34.72-10.18V239l-1.13,1.42Z" transform="translate(-38.74 -42.18)"></path><path class="cls-18" d="M180.06,286.2a44.87,44.87,0,0,1,3,4.23" transform="translate(-38.74 -42.18)"></path><path class="cls-18" d="M154.85,262.39s13.38,10.33,22.47,20.56" transform="translate(-38.74 -42.18)"></path><path class="cls-18" d="M165.69,271.48s4.74-4.54,5.61-9.09" transform="translate(-38.74 -42.18)"></path><path class="cls-4" d="M252.8,406.38c-2.16,2.4-6,2.39-9,1.45-4.68-1.44-8.7-4.52-13.31-6.14-5.66-2-12.37-1.92-16.77-6-2.26-2.1-4.3-6.79-4.59-12.46a37.57,37.57,0,0,0,9.09,6.85c3.4,1.78,7,3.88,10.37,5.72a31.89,31.89,0,0,0,11.25,4.06,7.92,7.92,0,0,0,3.48-.39c2.83-1.23,2.39-3.13,2.46-4.11a74.65,74.65,0,0,1,6.14,5.23C254.45,403.73,252.8,406.38,252.8,406.38Z" transform="translate(-38.74 -42.18)"></path><path class="cls-17" d="M159.23,420.34c0,7.85-2.36,16-7.84,21.58a6.36,6.36,0,0,1-3.5,2.12,5.43,5.43,0,0,1-4.6-2.26c-2.2-2.68-2.88-6.34-2.73-9.81a90,90,0,0,1,1.55-10.29c.22-1.43.39-2.86.5-4.3a54.55,54.55,0,0,0-.22-10.3c-.43-3.69-1.25-7.36,1.46-10.18,2.07-2.15,6-5.38,9-2.93a6.88,6.88,0,0,1,1.87,3.37c.46,1.43.92,2.86,1.35,4.31A65.22,65.22,0,0,1,159.23,420.34Z" transform="translate(-38.74 -42.18)"></path><path class="cls-6" d="M142.39,407.08a54.08,54.08,0,0,1-.28,14.6c-.54,3.43-1.41,6.82-1.55,10.29s.53,7.13,2.73,9.81a5.43,5.43,0,0,0,4.6,2.26,6.36,6.36,0,0,0,3.5-2.12c5.48-5.62,7.83-13.73,7.84-21.58s-2.12-15.54-4.55-23a6.88,6.88,0,0,0-1.87-3.37c-3-2.45-6.89.78-9,2.93C141.14,399.72,142,403.39,142.39,407.08Z" transform="translate(-38.74 -42.18)"></path><path class="cls-10" d="M142.23,402s5.63,8.45,13.81,0c0,0-1.13-23.68,1.4-35.93s12.12-50.58-1.4-63.82-25.65-.85-27.9,9.86,4.79,41.14,9,55.23S142.23,402,142.23,402Z" transform="translate(-38.74 -42.18)"></path><path class="cls-18" d="M160.42,309.09S152,287,134.06,299.78" transform="translate(-38.74 -42.18)"></path><path class="cls-4" d="M159.23,420.34c0,7.85-2.36,16-7.84,21.58a6.36,6.36,0,0,1-3.5,2.12,5.43,5.43,0,0,1-4.6-2.26c-2.2-2.68-2.88-6.34-2.73-9.81a90,90,0,0,1,1.55-10.29c.22-1.43.39-2.86.5-4.3.63,3,.75,9.63.84,10.86a12.39,12.39,0,0,0,.62,3.57,4.21,4.21,0,0,0,2.41,2.56,4.16,4.16,0,0,0,4.14-1.2,10.28,10.28,0,0,0,2.19-3.94c2.7-7.62,3.06-15.85,2.95-23.93a14,14,0,0,1,.27-3.65A65.26,65.26,0,0,1,159.23,420.34Z" transform="translate(-38.74 -42.18)"></path><path class="cls-4" d="M123.87,148a13.78,13.78,0,0,0,1.46,13.47c4.78,6.81,19.49,13.19,28,9.57s23.83-3.43,30.85,1,33.41,1.39,33.41-14.62c0,0,3.62,3.18,2.77,7.84,0,0,11.7-10.35-2.13-25.72,0,0,3.92-7.09-4.32-8.14s-9-5.52-9.79-10.2-.6-16.1-10.84-16c0,0-16.54-16.38-35-8.3s-14,20-22.68,18.31a4.85,4.85,0,0,0,0,3.19s2.77,6.38-1.27,9.36-14.78,8.31-15.32,23A5.28,5.28,0,0,1,123.87,148Z" transform="translate(-38.74 -42.18)"></path><path class="cls-17" d="M150.87,163.94l3.12-1.66v-7.69s4.8,8.81,10.26,9.74,11.79-8.6,11.79-8.6-1.08,6.13,0,7.67,10.11,6.26,10.11,6.26-13.87,13.05-17,23c0,0-1-9.4-7.48-14.35A30.77,30.77,0,0,1,150.87,163.94Z" transform="translate(-38.74 -42.18)"></path><path class="cls-1" d="M150.87,163.94a27.1,27.1,0,0,1-11.29.87c-5.45-1-14.36-4.22-20.82.45s-5.26,23.42-6,28.67-1.35,10.37-5.84,14.89-7.5,17.49-6.32,22.28c0,0-3.31,4.49-.9,12.82S104,250.7,104,250.7s9.88.39,15-2.7c0,0,5.12-4.16,6.83-7.59s-1.15-9.31-1.15-9.31l2.85,3v8.35s10.7,7.81,21.68,9.35l12.57.81,9.2-6.49s4-12.45,7.81-17,12.76-12.23,13.33-16.8S190.78,197,190.78,197s6.53,6.83,8.05,14.56,22-7.9,22-7.9-6.05-11.46-7.64-17.63-4-13.42-9.94-14.3S185.66,170,185.66,170s-12.85,12-16.42,23.19c0,0-1.35-8.68-7.61-14.84S151.05,168.26,150.87,163.94Z" transform="translate(-38.74 -42.18)"></path><path class="cls-19" d="M186.15,169.66s-13.85,13.39-16.64,21.91c0,0-3.5-9-8.81-14.21s-7.93-9.27-9.83-13.42l-2.54.87s-2.46,5.94-2.86,8.72l7.19,3.85-.59,13.2s12.68,13.06,14,21l3.48,2s1.7-9.89.89-15.27c0,0,2-2.68,6.92-4.66s8.27-3.73,8.27-3.73l-1.4-8.48a51,51,0,0,0,10.44-3.82l-6.25-7.46Z" transform="translate(-38.74 -42.18)"></path><path class="cls-15" d="M208.14,206.56s-4-11.4-20.12-18.81l.86,3.4-4.07-.53s1,17.34-4.9,23-28.6,1.09-34.5,6.17l10.31.81s-8.9,2.44-9.37,5.5,12.24,1.47,17.33,3.86c0,0,1.19,15-3.3,22.52l1.45.1,9.43-7.29s5.7-15.57,10-19.19,10.82-9.65,10.72-14.51-.9-15-.9-15,5.51,6.9,7,12.42S208.14,206.56,208.14,206.56Z" transform="translate(-38.74 -42.18)"></path><path class="cls-17" d="M207.57,226.56s3.38,14.2,16.35,13.85c0,0,1.52.69,3.22-3.21s3.44-7.92,1.82-15.57-7-16.12-7-16.12l-15.53,8.74Z" transform="translate(-38.74 -42.18)"></path><path class="cls-5" d="M185,131.43s-1-17.55-14-21.68-24.31,6-26.83,19.8c0,0,3,14.6,4.87,18.08s9.43,15.3,14.84,16.71,12.93-9.23,15.93-13.83,5.14-12.34,5.58-19.08" transform="translate(-38.74 -42.18)"></path><path class="cls-12" d="M163.65,150.61a6.08,6.08,0,0,0,1.1,1.37c1.52,1.41,2-.83,2-2a20.89,20.89,0,0,1,1.42-8.2" transform="translate(-38.74 -42.18)"></path><path class="cls-12" d="M170.05,139.15c1.21-1.85,4.28-4,7.23-2" transform="translate(-38.74 -42.18)"></path><path class="cls-12" d="M154.39,136.33c3.24-2,7.08-.8,7.71,1.84" transform="translate(-38.74 -42.18)"></path><path class="cls-4" d="M173,144c-.05,1.17-.52,2.1-1.05,2.08s-.92-1-.88-2.16.52-2.11,1.05-2.09S173,142.81,173,144Z" transform="translate(-38.74 -42.18)"></path><path class="cls-4" d="M159.56,143.67c-.05,1.17-.52,2.1-1.05,2.08s-.93-1-.88-2.16.52-2.11,1.05-2.09S159.61,142.49,159.56,143.67Z" transform="translate(-38.74 -42.18)"></path><path class="cls-5" d="M183.05,143.87s1.07.58,3.62-1.64,4.72-6.53,3.68-8.33-4.2.81-4.2.81Z" transform="translate(-38.74 -42.18)"></path><path class="cls-5" d="M144.46,132.27s-2.71-1.63-4.28-.33c-1.74,1.43.79,6.24,1.66,7.61,1.1,1.73,3.26,3.2,5.09,1.62Z" transform="translate(-38.74 -42.18)"></path><path class="cls-12" d="M158.32,152.44a7,7,0,0,0,4.86,4.23" transform="translate(-38.74 -42.18)"></path><path class="cls-12" d="M176.65,154.93c-1.57,3.51-1.49,6.6-.56,10.33" transform="translate(-38.74 -42.18)"></path><path class="cls-12" d="M153.66,154.59a41.92,41.92,0,0,1,.33,6.72,10.74,10.74,0,0,1-.62,4.39" transform="translate(-38.74 -42.18)"></path><path class="cls-4" d="M143.26,130.45s14.8-.59,18.21-15.95c0,0,6.48,16.36,25.36,17.77,0,0,3.37-11.63,1.47-19.09s-11.2-13.91-23.68-12.88S141.83,105.86,143.26,130.45Z" transform="translate(-38.74 -42.18)"></path><path class="cls-12" d="M127.58,234.08v8.35s14.86,11.31,34.72,10.18l8.7-6.51s2.92-10.95,8.86-18.34,13.3-10.71,12.17-19.94-1.44-12.34-1.44-12.34" transform="translate(-38.74 -42.18)"></path><path class="cls-12" d="M153.66,163s-8.5,3.29-17.19,1.36-14.69-2.38-19.59,2.52-2.22,31-6.45,36.85-12.27,17.61-9.82,27.4" transform="translate(-38.74 -42.18)"></path><path class="cls-6" d="M125.84,235.83c2.33,4.23-2.52,8-6,11.25s-13.38,4-16.44,3.44-5.16-11.27-4.59-14.71,2.49-6.69,5.36-8.05,5-10.3,7.11-11.52,3.37,2.75,3.37,2.75" transform="translate(-38.74 -42.18)"></path><path class="cls-12" d="M152.8,220.25l19.46,2.37c1.84.22,3.85.54,5.06,1.94" transform="translate(-38.74 -42.18)"></path><path class="cls-12" d="M130.54,205.14s1.18-9.93,0-14.56" transform="translate(-38.74 -42.18)"></path><path class="cls-12" d="M131.06,201.52a25.65,25.65,0,0,0,5.1-7.31" transform="translate(-38.74 -42.18)"></path><path class="cls-5" d="M203.19,205.16A7.64,7.64,0,0,1,198.31,193c1-1.38,2.51-2.39,3.48-3.82a6.67,6.67,0,0,0-1.88-9.24,6.49,6.49,0,0,0-1.54-.76,29.28,29.28,0,0,1,5.77.06c3.94.57,6.33,3.32,5.5,7.46s-5.68,4.69-8.56,7a5.59,5.59,0,0,0-2.35,4.68A8,8,0,0,0,203.19,205.16Z" transform="translate(-38.74 -42.18)"></path><path class="cls-12" d="M175.58,163a27.11,27.11,0,0,0,13.3,6.89c7.8,1.32,16.48.94,19.38,4.37s7.23,21.75,12.87,29.93S234.84,229.49,225,240c0,0-10.64,3.48-16.71-11" transform="translate(-38.74 -42.18)"></path><path class="cls-12" d="M188.88,193.42s6.18,7.18,8.78,14.4" transform="translate(-38.74 -42.18)"></path><path class="cls-5" d="M202,227.76a14.23,14.23,0,0,1,9.21-2.17c5.32.63,4.83,2.12,3.9,2.5s-15.15,3.63-15.62,2.79S202,227.76,202,227.76Z" transform="translate(-38.74 -42.18)"></path><path class="cls-12" d="M150.87,163.94c.45,4.71,4.37,8.2,7.82,11.45a39.28,39.28,0,0,1,7.35,8.75c5.21,9.06,4.06,20.29,2.75,30.66" transform="translate(-38.74 -42.18)"></path><path class="cls-12" d="M149,163.89a28.1,28.1,0,0,0-3.5,9,1.1,1.1,0,0,0,0,.67,1,1,0,0,0,.5.41l6.69,3.44a42.81,42.81,0,0,0-.75,9.72,5.69,5.69,0,0,0,.26,1.74,6.19,6.19,0,0,0,1.29,1.91c5.43,6.19,11.29,12.72,12.57,20.85" transform="translate(-38.74 -42.18)"></path><path class="cls-12" d="M186.79,169.29a16,16,0,0,0-3.75,3,62.64,62.64,0,0,0-13.53,20.39" transform="translate(-38.74 -42.18)"></path><path class="cls-12" d="M187.63,169.37q3.63,4,7,8.3a22.83,22.83,0,0,1-10.44,3.82c.47,2.56.93,5.12,1.4,7.67a1.59,1.59,0,0,1,0,.81,1.43,1.43,0,0,1-.78.65c-4.95,2.41-10.93,3.46-14.41,7.74" transform="translate(-38.74 -42.18)"></path><path class="cls-12" d="M161.47,114.5s.87,19.79,24.68,20.21" transform="translate(-38.74 -42.18)"></path><path class="cls-5" d="M213.9,205.14a39.63,39.63,0,0,1,2.64,12.3c.15,6.23-5.59,9.58-9.67,10.32s-9.06.51-12.38-3.67S190,211,190,211Z" transform="translate(-38.74 -42.18)"></path><path class="cls-5" d="M219.3,203.7a5.85,5.85,0,0,0-2.28.6,66.1,66.1,0,0,0-10.57,5.63c-.3.2-.64.45-.67.81,0,.56.63.87,1.18,1,3.21.6,6.51-.11,9.69-.82a10.64,10.64,0,0,0,2.69-.84C222,208.72,223.77,203.76,219.3,203.7Z" transform="translate(-38.74 -42.18)"></path><path class="cls-5" d="M221.11,211a48.82,48.82,0,0,0-7.94,1.62,6.48,6.48,0,0,0-2.31.94.9.9,0,0,0-.45.72c0,.36.36.59.68.74a12.67,12.67,0,0,0,3.59.83c3,.38,6.62.86,9.21-1.06C226.74,212.71,223.46,210.83,221.11,211Z" transform="translate(-38.74 -42.18)"></path><path class="cls-5" d="M213.29,217.56a5.14,5.14,0,0,0-2.54.65,1.31,1.31,0,0,0-.56.58,1.27,1.27,0,0,0,.49,1.45,3.65,3.65,0,0,0,1.52.57l5.41,1.17c1.12.24,2.47.42,3.17-.7a2.51,2.51,0,0,0,0-2.59C219.45,217.06,215.11,217.44,213.29,217.56Z" transform="translate(-38.74 -42.18)"></path><path class="cls-12" d="M105.05,227c-1.68,3.23-1.86,7-2,10.62" transform="translate(-38.74 -42.18)"></path><path class="cls-12" d="M106.24,229.15a19.11,19.11,0,0,0,11.7,17.47" transform="translate(-38.74 -42.18)"></path><path class="cls-12" d="M174.36,225.77c-5.36-.39-10.8-.77-16.05.34" transform="translate(-38.74 -42.18)"></path><polygon class="cls-5" points="122.89 136.15 103.31 136.89 107.18 172.62 125.44 171.45 122.89 136.15"></polygon><path class="cls-17" d="M161.81,188.56l1.09,1.89-5.58,10.2c3-.72,7.87-6.08,8.68-5s-13,14.69-16.38,15.54a18.84,18.84,0,0,1-7.33,0C139.6,214.34,124.57,239,124.57,239s-15.35-1.66-12.32-18.5c0,0,18.92-15.42,24.47-20.35,0,0,2.22-8.63,5.66-9.56l1.22,3s18.44-8.43,19-7.81,0,2.05,0,2.05-10.3,9.46-12.77,10" transform="translate(-38.74 -42.18)"></path><path class="cls-6" d="M161.81,188.56l1.09,1.89-5.58,10.2c3-.72,7.87-6.08,8.68-5s-13,14.69-16.38,15.54a18.84,18.84,0,0,1-7.33,0C139.6,214.34,124.57,239,124.57,239s-15.35-1.66-12.32-18.5c0,0,18.92-15.42,24.47-20.35,0,0,2.22-8.9,5.66-9.56l1.22,3s18.44-8.43,19-7.81,0,2.05,0,2.05-10.3,9.46-12.77,10" transform="translate(-38.74 -42.18)"></path><path class="cls-20" d="M162.24,110.73a49.85,49.85,0,0,0,8,7.29,40.67,40.67,0,0,0,4.1,2.36,86.72,86.72,0,0,0,14.41,5.78" transform="translate(-38.74 -42.18)"></path><path class="cls-20" d="M163.25,106.72a83.47,83.47,0,0,0,22.46,9.51" transform="translate(-38.74 -42.18)"></path><path class="cls-4" d="M154.39,155.59s2.82,12.63,9.26,13.78,11.57-12.5,11.57-12.5-6.39,7.51-10.42,7.45S154.39,155.59,154.39,155.59Z" transform="translate(-38.74 -42.18)"></path><circle class="cls-5" cx="107.79" cy="141.13" r="1.5"></circle></g></svg>