<svg xmlns="http://www.w3.org/2000/svg" id="Layer_1" data-name="Layer 1" viewBox="0 0 644.28 424.44"><defs><style>.cls-1,.cls-20{fill:#ebebeb;}.cls-2{fill:#dbdbdb;}.cls-21,.cls-3{fill:#fff;}.cls-4{fill:#c7c7c7;}.cls-5{fill:#e10454;}.cls-6{fill:#40208b;}.cls-13,.cls-7,.cls-8{fill:#263238;}.cls-8,.cls-9{opacity:0.1;}.cls-13,.cls-19,.cls-20,.cls-21,.cls-22,.cls-8,.cls-9{isolation:isolate;}.cls-10{fill:#37474f;}.cls-11{fill:#a6a6a6;}.cls-12{fill:#dd6a57;}.cls-13,.cls-21,.cls-22{opacity:0.3;}.cls-14{fill:#ff9cbd;}.cls-15{fill:#f7a9a0;}.cls-16{fill:#bc316a;}.cls-17{fill:#d3766a;}.cls-18{fill:#455a64;}.cls-19{opacity:0.2;}.cls-20{opacity:0.5;}</style></defs><title>راحی سایت رستوران سنتی</title><g id="freepik--background-complete--inject-106"><path class="cls-1" d="M14.77,53.35l13.09-.28L34.55,53h7.14v.45l.06,11.19v.5h-.5L28,65c-4.41,0-8.83-.11-13.24-.16h-.28v-.27c0-1.9.08-3.78.13-5.65Zm0,0L14.91,59c0,1.86.11,3.7.13,5.53l-.27-.27c4.41,0,8.83-.16,13.24-.16L41.25,64l-.5.5V53.31l.45.45c-2.18,0-4.36,0-6.55-.06l-6.58-.11Z" transform="translate(0.28 -6.07)"></path><path class="cls-1" d="M29.54,39.24,42.67,39l6.66-.11h7.13V51H56L42.72,51c-4.41,0-8.83-.11-13.24-.16h-.22v-.27c0-1.9.08-3.78.13-5.65Zm0,0,.14,5.66c.05,1.86.11,3.7.13,5.53l-.27-.27c4.41,0,8.83-.16,13.24-.16L56,49.93l-.5.5.06-11.19.44.45c-2.18,0-4.36,0-6.54-.06l-6.62-.11Z" transform="translate(0.28 -6.07)"></path><path class="cls-1" d="M222.7,286.13l13.12-.28,6.66-.11c2.23-.05,4.46,0,6.7-.05h.44v.45l.06,11.19v.5h-.5l-13.24-.06c-4.42,0-8.83-.11-13.24-.17h-.28v-.27c0-1.9.09-3.79.13-5.65Zm0,0,.14,5.65c0,1.87.11,3.71.13,5.54l-.27-.27c4.41-.05,8.82-.16,13.24-.17l13.24-.06-.5.5,0-11.19.45.45c-2.19,0-4.36,0-6.55-.06l-6.58-.11Z" transform="translate(0.28 -6.07)"></path><path class="cls-1" d="M237.47,272l13.12-.28,6.66-.11c2.23-.05,4.47,0,6.7-.05h.44V272l.06,11.19v.5H264l-13.24-.06c-4.42,0-8.83-.11-13.24-.17h-.28v-.27c0-1.9.09-3.79.14-5.65Zm0,0,.14,5.66c0,1.86.11,3.7.13,5.53l-.27-.27c4.41-.05,8.82-.16,13.24-.17l13.24-.06-.5.5L263.5,272l.45.45c-2.18,0-4.36,0-6.55-.06l-6.54-.09Z" transform="translate(0.28 -6.07)"></path><path class="cls-1" d="M0,39.24,13.12,39l6.66-.11h7.14v.45L27,50.53V51h-.5L13.24,51C8.82,51,4.41,50.86,0,50.81H-.28v-.27c0-1.9.09-3.78.13-5.65Zm0,0L.14,44.9c0,1.86.11,3.7.13,5.53L0,50.16c4.41,0,8.82-.16,13.24-.16l13.24-.07-.5.5V39.24l.45.45c-2.18,0-4.36,0-6.55-.06l-6.58-.11Z" transform="translate(0.28 -6.07)"></path><path class="cls-1" d="M400.37,138.06l-13.13.28-6.66.12h-7.14V138l-.05-11.19v-.5h.47l13.24.06c4.41,0,8.82.11,13.24.16h.27v.27c0,1.9-.09,3.79-.13,5.66Zm0,0-.15-5.65c0-1.86-.11-3.7-.13-5.54l.28.28c-4.42,0-8.83.16-13.24.16l-13.24.06.5-.5-.06,11.19-.44-.44h6.54l6.58.12Z" transform="translate(0.28 -6.07)"></path><path class="cls-1" d="M629,302.27l-13.12.27-6.66.12H602v-.44L602,291v-.51h.5l13.24.06c4.41,0,8.83.11,13.24.16h.28V291c0,1.89-.08,3.78-.13,5.65Zm0,0-.14-5.66c0-1.86-.11-3.7-.13-5.53l.27.27c-4.41,0-8.83.16-13.24.16l-13.24.07.5-.5-.05,11.19-.45-.45c2.18,0,4.36,0,6.55.05l6.58.12Z" transform="translate(0.28 -6.07)"></path><path class="cls-1" d="M643.72,316.38l-13.12.27-6.66.12c-2.23,0-4.47,0-6.7.05h-.44v-.44l-.06-11.19v-.51h.5l13.24.06c4.42,0,8.83.11,13.24.16H644v.27c0,1.89-.09,3.78-.13,5.65Zm0,0-.14-5.66c0-1.86-.11-3.7-.13-5.53l.27.27c-4.41.05-8.82.16-13.24.16l-13.24.06.5-.49v11.19l-.45-.45c2.18,0,4.36,0,6.55.05l6.58.12Z" transform="translate(0.28 -6.07)"></path><path class="cls-1" d="M41.48,316.38l-13.13.27-6.66.12c-2.23,0-4.46,0-6.69.05h-.45V304.68h.51l13.24.06c4.41,0,8.82.11,13.24.16h.27v.27c0,1.89-.09,3.78-.13,5.65Zm0,0-.15-5.66c0-1.86-.11-3.7-.13-5.53l.28.27c-4.42.05-8.83.16-13.24.16L15,305.68l.49-.49v11.19l-.44-.45c2.18,0,4.35,0,6.54.05l6.58.12Z" transform="translate(0.28 -6.07)"></path><path class="cls-1" d="M602.36,39.24,615.48,39l6.66-.11h7.14v.45l.06,11.19V51h-.48L615.62,51c-4.42,0-8.83-.11-13.24-.16h-.28v-.27c0-1.9.09-3.78.14-5.65Zm0,0,.14,5.66c0,1.86.11,3.7.13,5.53l-.27-.27c4.41,0,8.82-.16,13.24-.16l13.26-.07-.5.5V39.24l.45.45c-2.18,0-4.36,0-6.55-.06l-6.58-.11Z" transform="translate(0.28 -6.07)"></path><rect class="cls-2" x="187.41" y="13.51" width="67.59" height="81.99"></rect><rect class="cls-3" x="195.13" y="20.99" width="52.15" height="67.02"></rect><rect class="cls-4" x="195.13" y="20.99" width="2.03" height="67.02"></rect><rect class="cls-4" x="255" y="13.51" width="2.03" height="81.99"></rect><rect class="cls-2" x="222.36" y="36.49" width="12.3" height="36.63"></rect><path class="cls-1" d="M240.25,54.75H206.46v-19h33.79Zm-32.79-1h31.79v-17H207.46Z" transform="translate(0.28 -6.07)"></path><rect class="cls-2" x="387.24" y="13.51" width="67.59" height="81.99"></rect><rect class="cls-3" x="394.97" y="20.99" width="52.15" height="67.02"></rect><rect class="cls-4" x="394.97" y="20.99" width="2.03" height="67.02"></rect><rect class="cls-4" x="454.84" y="13.51" width="2.03" height="81.99"></rect><rect class="cls-2" x="412.44" y="36.49" width="12.3" height="36.63"></rect><path class="cls-1" d="M440.08,54.75H406.3v-19h33.78Zm-32.78-1h31.78v-17H407.3Z" transform="translate(0.28 -6.07)"></path><rect class="cls-2" x="287.33" y="13.51" width="67.59" height="81.99"></rect><rect class="cls-3" x="295.05" y="20.99" width="52.15" height="67.02"></rect><rect class="cls-4" x="295.05" y="20.99" width="2.03" height="67.02"></rect><rect class="cls-4" x="354.92" y="13.51" width="2.03" height="81.99"></rect><rect class="cls-1" x="316.07" y="38.32" width="10.53" height="26.63"></rect><path class="cls-2" d="M337.92,79.43h-29.3V60.07h29.3Zm-28.3-1h27.3V61.07h-27.3Z" transform="translate(0.28 -6.07)"></path><rect class="cls-5" x="21.69" width="129.69" height="180.89"></rect><rect class="cls-3" x="28.76" y="7.25" width="54.77" height="80.46"></rect><rect class="cls-3" x="89.55" y="7.25" width="54.77" height="80.46"></rect><rect class="cls-3" x="28.76" y="93.19" width="54.77" height="80.46"></rect><rect class="cls-3" x="89.55" y="93.19" width="54.77" height="80.46"></rect><rect class="cls-6" x="21.69" width="30.72" height="258.79"></rect><polygon class="cls-3" points="46.58 12.31 46.82 40.29 46.91 68.27 47.07 124.23 46.91 180.19 46.82 208.18 46.58 236.16 46.35 208.18 46.26 180.19 46.1 124.23 46.26 68.27 46.35 40.29 46.58 12.31"></polygon><polygon class="cls-3" points="32.48 18.8 32.72 43.78 32.85 68.76 32.97 118.74 32.86 168.71 32.72 193.69 32.48 218.68 32.24 193.69 32.11 168.71 31.99 118.74 32.11 68.76 32.24 43.78 32.48 18.8"></polygon><polygon class="cls-3" points="39.53 24.69 39.77 53.95 39.86 83.21 40.02 141.72 39.86 200.23 39.77 229.48 39.53 258.74 39.29 229.48 39.21 200.23 39.05 141.72 39.21 83.21 39.3 53.95 39.53 24.69"></polygon><polygon class="cls-3" points="27.23 13.78 27.47 44.4 27.56 75.02 27.72 136.26 27.56 197.5 27.47 228.12 27.23 258.74 27 228.12 26.91 197.5 26.75 136.26 26.91 75.02 27 44.4 27.23 13.78"></polygon><rect class="cls-6" x="120.66" y="0.01" width="30.72" height="258.79"></rect><polygon class="cls-3" points="126.49 12.31 126.73 40.29 126.81 68.27 126.98 124.23 126.81 180.19 126.73 208.18 126.49 236.16 126.25 208.18 126.17 180.19 126 124.23 126.17 68.27 126.25 40.29 126.49 12.31"></polygon><polygon class="cls-3" points="140.59 18.8 140.83 43.78 140.97 68.76 141.08 118.74 140.97 168.71 140.83 193.69 140.59 218.68 140.36 193.69 140.22 168.71 140.11 118.74 140.22 68.76 140.36 43.78 140.59 18.8"></polygon><polygon class="cls-3" points="133.54 24.69 133.78 53.95 133.86 83.21 134.03 141.72 133.87 200.23 133.78 229.48 133.54 258.74 133.3 229.48 133.22 200.23 133.05 141.72 133.22 83.21 133.3 53.95 133.54 24.69"></polygon><polygon class="cls-3" points="145.84 13.78 146.08 44.4 146.16 75.02 146.33 136.26 146.16 197.5 146.08 228.12 145.84 258.74 145.6 228.12 145.52 197.5 145.35 136.26 145.52 75.02 145.6 44.4 145.84 13.78"></polygon><rect class="cls-5" x="492.9" width="129.69" height="180.89"></rect><rect class="cls-3" x="499.96" y="7.25" width="54.77" height="80.46"></rect><rect class="cls-3" x="560.76" y="7.25" width="54.77" height="80.46"></rect><rect class="cls-3" x="499.96" y="93.19" width="54.77" height="80.46"></rect><rect class="cls-3" x="560.76" y="93.19" width="54.77" height="80.46"></rect><rect class="cls-6" x="492.9" width="30.72" height="258.79"></rect><polygon class="cls-3" points="517.79 12.31 518.03 40.29 518.11 68.27 518.28 124.23 518.12 180.19 518.03 208.18 517.79 236.16 517.55 208.18 517.47 180.19 517.3 124.23 517.47 68.27 517.55 40.29 517.79 12.31"></polygon><polygon class="cls-3" points="503.68 18.8 503.92 43.78 504.06 68.76 504.17 118.74 504.06 168.71 503.92 193.69 503.68 218.68 503.45 193.69 503.31 168.71 503.2 118.74 503.31 68.76 503.45 43.78 503.68 18.8"></polygon><polygon class="cls-3" points="510.74 24.69 510.98 53.95 511.06 83.21 511.22 141.72 511.06 200.23 510.98 229.48 510.74 258.74 510.5 229.48 510.41 200.23 510.25 141.72 510.41 83.21 510.5 53.95 510.74 24.69"></polygon><polygon class="cls-3" points="498.44 13.78 498.68 44.4 498.76 75.02 498.93 136.26 498.76 197.5 498.68 228.12 498.44 258.74 498.2 228.12 498.12 197.5 497.95 136.26 498.12 75.02 498.2 44.4 498.44 13.78"></polygon><rect class="cls-6" x="591.87" y="0.01" width="30.72" height="258.79"></rect><polygon class="cls-3" points="597.69 12.31 597.93 40.29 598.02 68.27 598.18 124.23 598.02 180.19 597.93 208.18 597.69 236.16 597.46 208.18 597.37 180.19 597.21 124.23 597.37 68.27 597.46 40.29 597.69 12.31"></polygon><polygon class="cls-3" points="611.8 18.8 612.04 43.78 612.17 68.76 612.29 118.74 612.17 168.71 612.04 193.69 611.8 218.68 611.56 193.69 611.42 168.71 611.31 118.74 611.43 68.76 611.56 43.78 611.8 18.8"></polygon><polygon class="cls-3" points="604.75 24.69 604.99 53.95 605.07 83.21 605.23 141.72 605.07 200.23 604.99 229.48 604.75 258.74 604.51 229.48 604.42 200.23 604.26 141.72 604.42 83.21 604.51 53.95 604.75 24.69"></polygon><polygon class="cls-3" points="617.05 13.78 617.28 44.4 617.37 75.02 617.53 136.26 617.37 197.5 617.28 228.12 617.05 258.74 616.81 228.12 616.72 197.5 616.56 136.26 616.72 75.02 616.81 44.4 617.05 13.78"></polygon></g><g id="freepik--Shadow--inject-106"><ellipse class="cls-1" cx="322.14" cy="404.4" rx="295.66" ry="20.04"></ellipse></g><g id="freepik--Floor--inject-106"><polygon class="cls-7" points="5.22 350.94 84.45 350.7 163.68 350.61 322.14 350.44 480.6 350.61 559.83 350.69 639.06 350.94 559.83 351.18 480.6 351.27 322.14 351.44 163.68 351.27 84.45 351.18 5.22 350.94"></polygon></g><g id="freepik--Plant--inject-106"><path class="cls-5" d="M578.68,293.47s-17.31-3.93-26.8-12.67-14.79-24.41-14.79-24.41a149.36,149.36,0,0,1,19.41,5.1,33.09,33.09,0,0,1,5.88,8.3,39.13,39.13,0,0,0,0-5.93,25.74,25.74,0,0,1,6.17,3.74C576.46,274.49,578.68,293.47,578.68,293.47Z" transform="translate(0.28 -6.07)"></path><path class="cls-7" d="M547.86,264c-2.36-1.63-4.77-3.21-7.12-4.85a.14.14,0,0,1,0-.2.14.14,0,0,1,.19,0c4.46,2.67,8.86,5.52,13.11,8.5,1.49,1,2.94,2.12,4.38,3.23l-.3-.52c-.52-.87-1.07-1.72-1.61-2.57a37.41,37.41,0,0,0-3.68-4.91c0-.05,0-.14.09-.08,1.34,1.55,2.69,3.09,3.92,4.74.59.79,1.13,1.6,1.64,2.43.27.43.53.86.78,1.31.09.14.18.29.26.44,2.24,1.76,4.42,3.59,6.5,5.53,1.29,1.2,2.52,2.44,3.72,3.72-.67-2.1-1.25-4.22-2-6.28,0-.07.09-.1.11,0,.76,2.17,1.58,4.34,2.17,6.56,1.32,1.44,2.59,2.92,3.79,4.47a.41.41,0,0,0-.07-.28c-.19-.82-.4-1.63-.62-2.45-.42-1.56-.88-3.12-1.41-4.65a26.93,26.93,0,0,0-4.65-8.79s0-.14.09-.08a33.91,33.91,0,0,1,6.63,13.85c.18.74.36,1.48.53,2.22.09.39.19.79.26,1.19q.78,1.06,1.53,2.16A75.23,75.23,0,0,1,583.39,303a164.23,164.23,0,0,1,5.55,17.3.09.09,0,0,1-.06.11.09.09,0,0,1-.12-.06c-3.38-10.13-6.84-20.41-12.64-29.47a59.19,59.19,0,0,0-4-5.53,32.69,32.69,0,0,1-8.42-1.68,37.32,37.32,0,0,1-8.44-4.07,49,49,0,0,1-4.32-3.27c-.07-.05,0-.14.07-.09A34.72,34.72,0,0,0,559,281a42.69,42.69,0,0,0,8.73,2.93c1.28.28,2.57.49,3.87.66a75.79,75.79,0,0,0-5.1-5.65c-.59-.59-1.19-1.14-1.79-1.71a41.35,41.35,0,0,0-6.4-3.66c-2.84-1.38-5.63-2.83-8.44-4.26-1.59-.8-3.16-1.63-4.76-2.41-.06,0,0-.13.07-.1,2.84,1.38,5.73,2.66,8.6,4,2.71,1.24,5.44,2.48,8,3.94l.32.19c-2.34-2-4.77-4-7.25-5.86C552.59,267.34,550.26,265.64,547.86,264Z" transform="translate(0.28 -6.07)"></path><path class="cls-7" d="M548.86,272.93c1.41.62,2.84,1.16,4.24,1.81s2.79,1.46,4.15,2.26c.06,0,0,.12-.06.09-1.38-.66-2.78-1.27-4.14-2s-2.79-1.46-4.22-2.09C548.78,273,548.86,272.9,548.86,272.93Z" transform="translate(0.28 -6.07)"></path><path class="cls-5" d="M634.93,206.21a24.72,24.72,0,0,0-5.18,14.38c-.06,1.55.19,3.72.37,6.26a41.23,41.23,0,0,0-11.3,9.66,20.56,20.56,0,0,1,11.42-2.73,34.48,34.48,0,0,1-.66,5.17,19.3,19.3,0,0,0-7.35,1.45,16.55,16.55,0,0,1,6.62,1.32c-3.08,9.82-12.26,19.9-37.59,24.19a53.14,53.14,0,0,1,4.49-35.65C603.34,215.33,634.93,206.21,634.93,206.21Z" transform="translate(0.28 -6.07)"></path><path class="cls-7" d="M582.49,307.92c.44-4.19,1-8.38,1.64-12.54a252.41,252.41,0,0,1,5.11-24.8,99.24,99.24,0,0,1,3.66-11.3,16.64,16.64,0,0,1-.09-2v-2.43q0-2.44.24-4.86a58.8,58.8,0,0,1,1.55-9.5c.47-1.8,1-3.58,1.53-5.37,0-.07.14,0,.12,0a67.9,67.9,0,0,0-1.87,9.48,88.92,88.92,0,0,0-.86,9.5v3.74a80.7,80.7,0,0,1,4.26-8.84,106.54,106.54,0,0,1,8.68-13,5.66,5.66,0,0,1,.2-1.42c.12-.56.24-1.13.37-1.69.26-1.16.55-2.31.87-3.46.62-2.29,1.46-4.51,2.17-6.78a.06.06,0,0,1,.12,0c-.67,2.24-1.12,4.57-1.63,6.85l-.75,3.39c-.12.57-.25,1.13-.36,1.7v.12q1.53-1.94,3.13-3.81c4.84-5.68,10.14-10.91,15.48-16.11.66-.64,1.33-1.26,2-1.89.05,0,.13,0,.08.09-5.1,5.32-10.13,10.7-14.89,16.34-1.13,1.34-2.24,2.69-3.33,4.07.57-.4,1.15-.77,1.73-1.15,1.47-1,3-1.9,4.5-2.76s3.09-1.71,4.67-2.49,3.36-1.46,4.92-2.37c.07,0,.13.07.06.1a35.25,35.25,0,0,0-4.62,2.56c-1.54.92-3.08,1.84-4.6,2.8s-3,1.87-4.46,2.83c-1.23.8-2.45,1.68-3.72,2.42a117.66,117.66,0,0,0-8.12,11.81,85.73,85.73,0,0,0-4.2,8l.91-.4,2.32-1c1.49-.66,3-1.3,4.48-1.95,2.84-1.24,5.73-2.37,8.52-3.73a37.28,37.28,0,0,0,4.54-2.53c.07,0,.12.07.06.11-5.19,3.58-11,6.1-16.76,8.64l-2.5,1.11c-.68.3-1.37.64-2.07.9A89.1,89.1,0,0,0,591.29,268a241.69,241.69,0,0,0-5.51,24.51c-1.45,8.28-2.43,16.61-3.19,25-.1,1-.19,2.09-.31,3.13a.33.33,0,0,1-.66,0A123.15,123.15,0,0,1,582.49,307.92Z" transform="translate(0.28 -6.07)"></path><path class="cls-7" d="M597.91,238c.46-2.57,1.15-5.09,1.84-7.61a.06.06,0,0,1,.11,0,0,0,0,0,1,0,0c-.64,2.48-1.1,5-1.56,7.51s-.9,5.13-1.26,7.71m-.07,0a67.29,67.29,0,0,1,.94-7.61Z" transform="translate(0.28 -6.07)"></path><path class="cls-7" d="M608.86,245a44.45,44.45,0,0,1,5.51-3.1c.93-.48,1.86-.93,2.8-1.39s2-.85,2.92-1.33a.07.07,0,0,1,.08,0,.07.07,0,0,1,0,.06c-.93.46-1.81,1-2.72,1.52l-2.81,1.54a62.22,62.22,0,0,1-5.62,2.9.14.14,0,0,1-.18-.07A.14.14,0,0,1,608.86,245Z" transform="translate(0.28 -6.07)"></path><path class="cls-8" d="M578.37,263.47s-16-3.82-23.38-14.57c-7-10.26-9.3-27.76-9.48-29.3.29,1.41,3.6,16.7,14.5,23.83C568.36,248.88,576.43,253.37,578.37,263.47Z" transform="translate(0.28 -6.07)"></path><path class="cls-7" d="M563.58,235.79a20.46,20.46,0,0,1,5.91,9.73m-.06,0a23.9,23.9,0,0,0-5.93-9.66c-.06,0,0-.12.08-.07Z" transform="translate(0.28 -6.07)"></path><path class="cls-5" d="M578.37,263.47s-16-3.82-23.38-14.57c-7-10.26-9.3-27.76-9.48-29.3v-.11s7.69,10.92,15.76,13.71S580.68,245.62,578.37,263.47Z" transform="translate(0.28 -6.07)"></path><path class="cls-7" d="M548.33,225.52a68,68,0,0,0,5,8.47,33.61,33.61,0,0,0,6.59,6.78c2.17,1.73,4.47,3.29,6.68,5l-.05-.08c-.42-.62-.86-1.21-1.32-1.8-.91-1.17-1.92-2.28-2.92-3.37-2-2.16-4-4.28-5.81-6.62a24.78,24.78,0,0,1-2.57-4.13c0-.07.08-.11.11,0,2.6,5.41,7.79,8.88,11.49,13.45a24,24,0,0,1,1.48,2,8.48,8.48,0,0,1,.93,1.63,33.6,33.6,0,0,1,5.46,5.53,22,22,0,0,0-.64-3.11,15.4,15.4,0,0,0-1.7-4.06c0-.06.06-.13.1-.06a19.17,19.17,0,0,1,1.87,4,14,14,0,0,1,.58,3.46h0a31,31,0,0,1,2.16,3.36c-.06-.34-.13-.68-.2-1q-.47-2.4-1.08-4.77a28.73,28.73,0,0,0-3.85-9,.06.06,0,1,1,.07-.1l0,0A34.16,34.16,0,0,1,575,250c.51,1.58.92,3.17,1.28,4.79.18.78.34,1.58.49,2.37.08.41.17.83.23,1.25a58,58,0,0,1,3.7,10.86,159.54,159.54,0,0,1,3.41,20.26A168,168,0,0,1,585.19,311c0,.9-.07,1.8-.12,2.7a.19.19,0,1,1-.37,0c-.16-3.55-.25-7.11-.46-10.66s-.52-7.11-.9-10.65A190.79,190.79,0,0,0,580,271.68c-1.3-5.86-3-11.75-6.18-16.89a32,32,0,0,0-5.78-6.87c-2.25-2-4.71-3.78-7.07-5.65a38.34,38.34,0,0,1-6.49-6.24,51,51,0,0,1-5.1-8.27l-1.15-2.17C548.2,225.51,548.3,225.45,548.33,225.52Z" transform="translate(0.28 -6.07)"></path><path class="cls-7" d="M551.1,227.87a53.48,53.48,0,0,0,3.57,6.24s0,.09-.08,0a44.14,44.14,0,0,1-3.6-6.26C551,227.84,551.07,227.8,551.1,227.87Z" transform="translate(0.28 -6.07)"></path><path class="cls-5" d="M637.16,256.39s.25,22.77-13.36,29.34-20.91,1.1-30.16,3.3h0c.36-.55,7-10,17.46-12.65C621.92,273.68,633.86,265.87,637.16,256.39Z" transform="translate(0.28 -6.07)"></path><path class="cls-9" d="M637.16,256.39s.25,22.77-13.36,29.34-20.91,1.1-30.16,3.3h0a51.42,51.42,0,0,1,15.48-4.57C617.71,283.42,634.11,277.82,637.16,256.39Z" transform="translate(0.28 -6.07)"></path><path class="cls-7" d="M592.74,289.43a22.81,22.81,0,0,1,5.41-3.66c.3-.14.6-.26.89-.38s.3-.36.46-.53c.41-.42.83-.83,1.28-1.21a18.48,18.48,0,0,1,2.74-2c2.26-1.32,4.73-2.25,7-3.48a.06.06,0,0,1,.08,0,.06.06,0,0,1,0,.09h0c-1.14.59-2.24,1.24-3.35,1.89s-2.18,1.23-3.23,1.91a23,23,0,0,0-2.7,2c-.24.21-.47.44-.7.67a34.61,34.61,0,0,1,4.6-1.22c2.5-.51,5-.86,7.5-1.39,1.22-.27,2.43-.61,3.62-1,1.13-.91,2.25-1.81,3.32-2.8a26.57,26.57,0,0,0,3.52-3.9c0-.06.15,0,.1.06a41.8,41.8,0,0,1-5.58,6.16q.89-.33,1.74-.72a28.06,28.06,0,0,0,11.6-9.65c0-.07.15,0,.1.06a31.82,31.82,0,0,1-9.38,9,28.21,28.21,0,0,1-5.93,2.8,54.82,54.82,0,0,1-7.37,1.75,52.6,52.6,0,0,0-7.22,1.71,22,22,0,0,0-6,3.18A28.34,28.34,0,0,0,587.05,299a50.71,50.71,0,0,0-4.5,16.65c0,.24-.4.24-.38,0C582.8,306,585.36,296.08,592.74,289.43Z" transform="translate(0.28 -6.07)"></path><path class="cls-7" d="M608.54,282a7.86,7.86,0,0,1,2.8-2.54,10.29,10.29,0,0,0,3.33-2.75c0-.06.14,0,.1.06a11.36,11.36,0,0,1-2.94,2.63,10.4,10.4,0,0,0-3.21,2.65A0,0,0,1,1,608.54,282Z" transform="translate(0.28 -6.07)"></path><polygon class="cls-10" points="601.6 300.17 600.98 312.69 599.08 350.94 570.52 350.94 568.62 312.69 568 300.17 601.6 300.17"></polygon><polygon class="cls-7" points="601.6 300.17 600.98 312.69 568.62 312.69 568 300.17 601.6 300.17"></polygon><rect class="cls-10" x="566" y="294.94" width="37.6" height="11.94"></rect></g><g id="freepik--Chairs--inject-106"><polygon class="cls-2" points="141.1 294.71 143.62 309.78 160.64 401.71 163.38 401.71 151.01 309.78 149.18 294.71 141.1 294.71"></polygon><polygon class="cls-11" points="149.18 294.71 141.1 294.71 143.62 309.78 151.01 309.78 149.18 294.71"></polygon><polygon class="cls-2" points="87.64 401.71 90.39 401.71 107.41 309.78 109.92 294.71 101.85 294.71 100.02 309.78 87.64 401.71"></polygon><polygon class="cls-11" points="101.85 294.71 100.02 309.78 107.41 309.78 109.92 294.71 101.85 294.71"></polygon><polygon class="cls-2" points="36.58 401.71 39.33 401.71 56.35 309.78 58.86 294.71 50.79 294.71 48.96 309.78 36.58 401.71"></polygon><polygon class="cls-11" points="48.96 309.78 56.35 309.78 58.86 294.71 50.79 294.71 48.96 309.78"></polygon><polygon class="cls-2" points="40.93 301.79 165.68 301.79 165.68 288.64 118.98 288.64 103.29 197.33 45.69 197.33 40.93 301.79"></polygon><polygon class="cls-4" points="40.93 301.79 47.73 301.79 52.17 197.33 45.69 197.33 40.93 301.79"></polygon><polygon class="cls-2" points="476.89 294.71 474.38 309.78 457.36 401.71 454.61 401.71 466.99 309.78 468.82 294.71 476.89 294.71"></polygon><polygon class="cls-11" points="468.82 294.71 476.89 294.71 474.38 309.78 466.99 309.78 468.82 294.71"></polygon><polygon class="cls-2" points="530.36 401.71 527.61 401.71 510.59 309.78 508.07 294.71 516.15 294.71 517.98 309.78 530.36 401.71"></polygon><polygon class="cls-11" points="516.15 294.71 517.98 309.78 510.59 309.78 508.07 294.71 516.15 294.71"></polygon><polygon class="cls-2" points="581.42 401.71 578.67 401.71 561.65 309.78 559.14 294.71 567.21 294.71 569.04 309.78 581.42 401.71"></polygon><polygon class="cls-11" points="569.04 309.78 561.65 309.78 559.14 294.71 567.21 294.71 569.04 309.78"></polygon><polygon class="cls-2" points="577.06 301.79 452.32 301.79 452.32 288.64 499.02 288.64 514.71 197.33 572.31 197.33 577.06 301.79"></polygon><polygon class="cls-4" points="577.06 301.79 570.27 301.79 565.83 197.33 572.31 197.33 577.06 301.79"></polygon><polygon class="cls-2" points="282.17 264.86 279.65 279.93 262.63 371.86 259.89 371.86 272.26 279.93 274.09 264.86 282.17 264.86"></polygon><polygon class="cls-11" points="274.09 264.86 282.17 264.86 279.65 279.93 272.26 279.93 274.09 264.86"></polygon><polygon class="cls-2" points="335.63 371.86 332.88 371.86 315.86 279.93 313.34 264.86 321.42 264.86 323.25 279.93 335.63 371.86"></polygon><polygon class="cls-11" points="321.42 264.86 323.25 279.93 315.86 279.93 313.34 264.86 321.42 264.86"></polygon><polygon class="cls-2" points="386.69 371.86 383.94 371.86 366.92 279.93 364.41 264.86 372.48 264.86 374.31 279.93 386.69 371.86"></polygon><polygon class="cls-11" points="374.31 279.93 366.92 279.93 364.41 264.86 372.48 264.86 374.31 279.93"></polygon><polygon class="cls-2" points="382.34 271.94 257.59 271.94 257.59 258.8 304.29 258.8 319.98 167.48 377.58 167.48 382.34 271.94"></polygon><polygon class="cls-4" points="382.34 271.94 375.54 271.94 371.1 167.48 377.58 167.48 382.34 271.94"></polygon></g><g id="freepik--character-3--inject-106"><path class="cls-12" d="M462.18,406.16c2.22.27,63.32-12.37,65.29-14.28.24-.22-.78-5.77-2.31-13.34v-.15c-.95-4.8-17.48-43.88-17.48-43.88L468,344.3l16.8,36.31s-7.56,5.12-14.06,10h0a88,88,0,0,0-8.22,6.58C460.58,399.54,460,405.9,462.18,406.16Z" transform="translate(0.28 -6.07)"></path><path class="cls-1" d="M462.18,406.15c2.22.28,63.32-12.37,65.3-14.27.24-.22-.8-5.76-2.32-13.34v-.14c-.35-1.79-2.88-8.35-5.9-15.88-6.53,1.55-29.91,7.13-38.41,9.49l4,8.6s-7.55,5.13-14,10h0a88,88,0,0,0-8.22,6.58C460.58,399.54,460,405.9,462.18,406.15Z" transform="translate(0.28 -6.07)"></path><path class="cls-6" d="M462,406.44c2.29.27,63.44-12.55,65.46-14.51.77-.74-.29-10.36-3.31-20.61l-39.41,8.31s-20.46,15.22-22.45,17.61S459.69,406.17,462,406.44Z" transform="translate(0.28 -6.07)"></path><path class="cls-7" d="M462.34,403.81c10.19-2.4,51.55-11.12,61.82-12.71.08,0,.09,0,0,.06-10.06,2.6-51.48,11-61.8,12.82C462.15,404,462.12,403.86,462.34,403.81Z" transform="translate(0.28 -6.07)"></path><path class="cls-7" d="M481.71,381.33c4.09-.92,9.15-.47,12.4,2.35.13.11,0,.29-.16.25a58.09,58.09,0,0,0-12.21-2.08.27.27,0,0,1-.28-.24A.27.27,0,0,1,481.71,381.33Z" transform="translate(0.28 -6.07)"></path><path class="cls-7" d="M478.8,383.23c4.09-.92,9.15-.47,12.4,2.35.13.11,0,.29-.16.25a57.81,57.81,0,0,0-12.18-2.08.26.26,0,0,1-.06-.52Z" transform="translate(0.28 -6.07)"></path><path class="cls-7" d="M475.86,385.13c4.09-.92,9.15-.47,12.4,2.35.13.11,0,.29-.16.25a58,58,0,0,0-12.2-2.08.26.26,0,0,1,0-.52Z" transform="translate(0.28 -6.07)"></path><path class="cls-7" d="M473,387c4.09-.91,9.15-.46,12.41,2.36.12.11,0,.29-.17.25a58,58,0,0,0-12.2-2.09.26.26,0,1,1,0-.52Z" transform="translate(0.28 -6.07)"></path><path class="cls-11" d="M483.22,381.58l42.09-9.93s-36.19-82.94-33.11-87c1.55-2,40.73-2.65,53.2-13.22,16.19-13.74,5.32-34.72,5.32-34.72L507,235.41s.53,9.15-1.18,10.53c-1.12.92-53.27,5.31-59,22.91C439.76,290.38,483.22,381.58,483.22,381.58Z" transform="translate(0.28 -6.07)"></path><path class="cls-7" d="M483.24,375.07c1.1-.53,12-3.73,14.44-4.35,4.93-1.27,9.86-2.5,14.82-3.63,2.59-.59,8.13-1.88,8.47-1.82.16,0,.19.3,0,.35-4.8,1.59-9.67,2.93-14.54,4.29s-21.64,5.4-23.12,5.49C483.21,375.41,483.08,375.14,483.24,375.07Z" transform="translate(0.28 -6.07)"></path><path class="cls-7" d="M484.72,281a6.54,6.54,0,0,1,3.3-1l19-3.18c5.91-1,11.86-1.88,17.74-3,4.87-.94,9.83-2.21,14-4.85a20.38,20.38,0,0,0,8.61-11.27,36.48,36.48,0,0,0,1.11-14.44c-.11-1.18-.33-2.35-.55-3.52a.07.07,0,1,1,.14,0c1.6,9,1.75,19.4-5,26.55-3.28,3.49-7.78,5.54-12.38,6.86a141,141,0,0,1-15.91,3.1l-19,3.17c-3,.5-6.12.9-9.14,1.53a3,3,0,0,0-1.64.73,2.34,2.34,0,0,0-.27,2.19c.3,1.49.7,3,1.13,4.42,3.45,11.79,30,74.22,30.66,75.51a.13.13,0,0,1-.06.17.12.12,0,0,1-.16-.06h0c-5.79-10.34-25.91-60-29.74-71.11a71,71,0,0,1-2.48-8.68C483.92,283,483.79,281.78,484.72,281Z" transform="translate(0.28 -6.07)"></path><path class="cls-12" d="M399.58,408.81c2.12.72,64.52.49,66.83-1,.27-.16.37-5.81.38-13.53v-.15c0-4.9,1.53-46.71,1.53-46.71l-39.06-.33-2.4,41.19s-8.43,3.52-15.77,7h0a86.05,86.05,0,0,0-9.36,4.81C399.33,402,397.45,408.11,399.58,408.81Z" transform="translate(0.28 -6.07)"></path><path class="cls-1" d="M399.57,408.81c2.13.71,64.53.49,66.84-1,.28-.15.37-5.8.38-13.52v-3c.09-3.26.25-8.53.44-14.32l-39.78-.26-.59,11.58s-8.43,3.52-15.77,7h0a86.05,86.05,0,0,0-9.36,4.81C399.33,402,397.45,408.11,399.57,408.81Z" transform="translate(0.28 -6.07)"></path><path class="cls-6" d="M399.32,409.05c2.18.71,64.66.33,67-1.19.91-.57,1.79-10.21.86-20.86l-40.27.3s-23.05,10.85-25.48,12.79S397.13,408.33,399.32,409.05Z" transform="translate(0.28 -6.07)"></path><path class="cls-7" d="M400.2,406.54c10.47-.32,52.73-.63,63.11-.15.08,0,.08.06,0,.07-10.37.54-52.64.51-63.11.25C400,406.71,400,406.55,400.2,406.54Z" transform="translate(0.28 -6.07)"></path><path class="cls-7" d="M423.66,388.37c4.19-.09,9.06,1.36,11.68,4.78.1.13-.08.27-.21.21a58.2,58.2,0,0,0-11.54-4.48.26.26,0,0,1,.07-.51Z" transform="translate(0.28 -6.07)"></path><path class="cls-7" d="M420.43,389.65c4.19-.08,9.06,1.37,11.69,4.78.1.13-.09.27-.22.21a57.56,57.56,0,0,0-11.54-4.47.27.27,0,0,1,.07-.52Z" transform="translate(0.28 -6.07)"></path><path class="cls-7" d="M417.2,390.93c4.19-.08,9.06,1.37,11.69,4.78.1.13-.09.27-.22.21a57.56,57.56,0,0,0-11.54-4.47.27.27,0,0,1,.07-.52Z" transform="translate(0.28 -6.07)"></path><path class="cls-7" d="M414,392.21c4.19-.08,9.06,1.37,11.69,4.78.1.13-.09.27-.21.21a58,58,0,0,0-11.59-4.47.27.27,0,0,1,.11-.52Z" transform="translate(0.28 -6.07)"></path><path class="cls-11" d="M424.66,388.87h44s-.56-81.59,2.9-86c4.6-5.88,69-5.75,82.81-24.94,12.4-17.24,1.93-41.64,1.93-41.64l-48.77-1.45a101.31,101.31,0,0,0,4.52,15.36s-58.74,10.84-75.2,28.86C425.78,291.24,424.66,388.87,424.66,388.87Z" transform="translate(0.28 -6.07)"></path><path class="cls-7" d="M503.52,246.88a22.83,22.83,0,0,1,4.13,1.32c1.4.54,2.78,1.14,4.12,1.8a83.57,83.57,0,0,1,7.72,4.36c.08,0,0,.16-.08.12-2.63-1.37-5.36-2.6-8.09-3.78l-3.94-1.7a39.46,39.46,0,0,1-4-1.76C503.23,247.15,503.32,246.84,503.52,246.88Z" transform="translate(0.28 -6.07)"></path><path class="cls-7" d="M506.44,234.84c.56,2.23,1,4.47,1.68,6.68a29.3,29.3,0,0,0,1,3,2.88,2.88,0,0,0,1.77,2c1,.23,1.42-.73,1.33-1.65s-.36-2-.56-3c-.23-1.16-.47-2.31-.68-3.47-.1-.58-.21-1.16-.31-1.74,0-.15-.14-1.26-.21-1.58,0,0,0,.06-.07,0h0s-.07,0-.07-.06a.23.23,0,0,1,.05-.17c.05-.06.07,0,.11,0,.21.12.22.41.29.62.18.57.36,1.13.53,1.7.3,1.06.61,2.12.88,3.2s.53,2.14.79,3.22a5.05,5.05,0,0,1,.22,2.47,1.9,1.9,0,0,1-1.75,1.42l.12.22c.09.22.16.45.25.68s.16.46.23.69a2,2,0,0,1,.06.35v.38a.18.18,0,0,1-.11.24.19.19,0,0,1-.23-.11,2.2,2.2,0,0,0-.21-.32,1.73,1.73,0,0,1-.16-.37c-.07-.22-.14-.44-.2-.67s-.12-.45-.16-.68a2.81,2.81,0,0,1,0-.41,2.52,2.52,0,0,1-1.29-.49,4.39,4.39,0,0,1-1.33-2c-.33-.93-.59-1.89-.85-2.84a40.62,40.62,0,0,1-1.42-7.17.21.21,0,0,1,.21-.21Z" transform="translate(0.28 -6.07)"></path><path class="cls-7" d="M535.44,240.29c.2,1.1.33,2.22.59,3.31a32.09,32.09,0,0,0,.89,3.19,11.28,11.28,0,0,0,1.36,2.87,10.48,10.48,0,0,0,2.16,2.2,18.34,18.34,0,0,0,5.22,2.91,24.26,24.26,0,0,0,2.91.85,13.58,13.58,0,0,0,1.55.27,3.62,3.62,0,0,1,1.25.29.26.26,0,0,1,.08.36l-.08.08a4.64,4.64,0,0,1-2.31.07,18.76,18.76,0,0,1-2.47-.43,18,18,0,0,1-4.67-2,14.53,14.53,0,0,1-3.91-3.2,11.19,11.19,0,0,1-2.08-4.57,22.8,22.8,0,0,1-.68-6.21.1.1,0,0,1,.15,0Z" transform="translate(0.28 -6.07)"></path><path class="cls-7" d="M462.36,331.67q.66-10.38,1.73-20.74c.18-1.7.35-3.41.56-5.1a16.12,16.12,0,0,1,.85-3.88c1-2.6,3.18-3.91,5.79-4.57,3.08-.78,6.27-1.24,9.4-1.75s6.42-1,9.63-1.43c6.52-.91,13-1.75,19.52-2.84A156.78,156.78,0,0,0,529,287.05c5.76-1.74,11.67-3.89,16.28-7.89,9.93-8.6,10.29-23,9.08-35.08-.18-1.71-.38-3.41-.59-5.11a.07.07,0,1,1,.14,0c.78,6.8,1.7,13.63,1,20.47a33.38,33.38,0,0,1-5.43,15.86c-3.36,4.82-8.33,7.94-13.7,10.11a107.44,107.44,0,0,1-18.27,5.26c-12.87,2.7-26,3.84-38.95,6.06-1.6.27-3.19.56-4.79.87a19.48,19.48,0,0,0-4.31,1.16c-2.94,1.31-3.75,4.18-4.11,7.13-.85,6.87-1.42,13.79-1.92,20.69-1,13.92-1.54,27.91-1.51,41.86v11.24c0,.15-.23.13-.24,0C461.3,365.66,461.49,345.62,462.36,331.67Z" transform="translate(0.28 -6.07)"></path><path class="cls-7" d="M426.72,382.34a26.31,26.31,0,0,1,3.65-.31c1.28-.07,2.56-.14,3.84-.19,2.53-.1,5-.17,7.58-.18,5.08,0,10.17,0,15.25.11,2.65.06,8.34.17,8.66.31.15.07.11.34-.05.35-5,.37-10.09.47-15.15.6s-10.09.22-15.14.1c-1.4,0-2.79-.11-4.19-.16a31.13,31.13,0,0,1-4.42-.27C426.61,382.67,426.55,382.38,426.72,382.34Z" transform="translate(0.28 -6.07)"></path><path class="cls-7" d="M511.79,250.34a165.53,165.53,0,0,0-26.61,5.46,187.28,187.28,0,0,0-25.67,9.3c-4.66,2.1-9.18,4.44-13.66,6.9-.09.05,0,.18.09.14a206.81,206.81,0,0,1,25-10.9,200.77,200.77,0,0,1,26-7.55c5-1.08,10-1.93,15-2.76C512.21,250.88,512.12,250.31,511.79,250.34Z" transform="translate(0.28 -6.07)"></path><path class="cls-12" d="M514.75,184.81c-16.76,11.64-30,20.45-36.69,19.68-5.4-.62-31.33-14.27-35.93-17.5-1.81-1.27-3.29-2.36-4.35-3.13-2.6-1.9,7-21.61,10.4-22.14.79-.12,2.71.89,5.24,2.51,8.5,5.46,24.69,18.68,26.31,18.58s12-2.51,25.69-5.47c9.48-2.06,13.81-1.45,14,1.46C519.49,180.44,518,182.57,514.75,184.81Z" transform="translate(0.28 -6.07)"></path><path class="cls-12" d="M439.55,185.19c-1.46-.84-13.19-6.34-17.84-12.1-2.46-3.05-8.28-12.21-6.61-13.94,1.52-1.58,3.73.54,3.73.54s-2.53-4.12-.39-6.29,5.69,1.59,5.69,1.59-2.3-4.42,0-6.43,5.22,2.37,5.22,2.37-2.28-3.94.3-4.81c3.11-1,6.51,6.71,9.79,9.55.75.65,16,12,16,12Z" transform="translate(0.28 -6.07)"></path><path class="cls-7" d="M429.53,150.91c2.51,5.69,4.6,7.75,9.68,11.16.1.07,0,.23-.09.17-5.28-2.89-8.27-5.09-9.87-11.22C429.17,150.72,429.41,150.64,429.53,150.91Z" transform="translate(0.28 -6.07)"></path><path class="cls-7" d="M424.31,155c3.12,5.68,5.36,7.93,10.42,11.9.07.06,0,.19-.09.14-5.29-3.48-8.22-5.75-10.6-11.84C423.94,154.88,424.16,154.69,424.31,155Z" transform="translate(0.28 -6.07)"></path><path class="cls-7" d="M419.08,159.87c3.43,5.29,5.77,7.86,11.18,11.08a.12.12,0,0,1,0,.17.11.11,0,0,1-.13,0c-5.83-2.75-8.78-5.94-11.22-11.17C418.77,159.64,418.86,159.54,419.08,159.87Z" transform="translate(0.28 -6.07)"></path><path class="cls-1" d="M453.93,126.38c0,22.19-5.26,25.43-13.61,25.43-8,0-13.57-3.24-13.57-25.43Z" transform="translate(0.28 -6.07)"></path><rect class="cls-1" x="439.49" y="141.39" width="2.25" height="27.31"></rect><polygon class="cls-1" points="453.11 170.93 428.12 170.93 440.62 168.16 453.11 170.93"></polygon><path class="cls-6" d="M440.34,149.28c-5,0-9.72-1.68-10.82-15.05a14.88,14.88,0,0,0,8.18,2.47c6.24,0,6.94-2.47,13.4-2.47C451.1,134.23,452,149.28,440.34,149.28Z" transform="translate(0.28 -6.07)"></path><path class="cls-12" d="M458.05,167.4s-3.7-8-6-10.68-14.46-9.41-16.07-6.87c-2.08,3.29,4.18,8.57,7.59,10.76,0,0-4.81,7.6-1.14,12.37S458.05,167.4,458.05,167.4Z" transform="translate(0.28 -6.07)"></path><path class="cls-7" d="M435.72,150.94c.27,4.37,4.92,6.95,8.06,9.32a.36.36,0,0,1,.09.5.38.38,0,0,1-.09.09c-1.81,3.32-3.38,8.53-1.59,12.1a.1.1,0,0,1,0,.13.1.1,0,0,1-.12,0h0c-2.44-3.56-1.31-8.81.9-12.32-3.26-2.38-7.81-5.17-7.27-9.78Z" transform="translate(0.28 -6.07)"></path><path class="cls-6" d="M458.43,167.52l-13.8,22.12s25.13,16.29,34.53,16.27,29.6-15.58,37.3-21.43,4.71-10.36-7-8.61-29.08,6.38-30,6.3S458.43,167.52,458.43,167.52Z" transform="translate(0.28 -6.07)"></path><path class="cls-7" d="M456,181.48c1-1.79,2.06-3.58,3.07-5.38s2.1-3.56,3-5.42c0-.08-.08-.17-.14-.09-1.17,1.61-2.16,3.36-3.21,5.06s-2.2,3.59-3.28,5.4c-2.16,3.57-4.16,7.22-6.1,10.9-.05.1.09.15.14.07C451.69,188.56,453.86,185.07,456,181.48Z" transform="translate(0.28 -6.07)"></path><path class="cls-7" d="M516.46,184.48c-5.07,3.85-15.55,11.91-24.8,17l23.07-25.95C521.86,175.71,522.86,179.63,516.46,184.48Z" transform="translate(0.28 -6.07)"></path><path class="cls-6" d="M497.49,246.48c1.53,1.31,65.39,3.16,65.67,2.73s-16.3-68.46-39.5-77.21c-3.68-1.4-13.37-.6-14.44.78C500.34,184.27,496.53,245.65,497.49,246.48Z" transform="translate(0.28 -6.07)"></path><path class="cls-12" d="M533.41,186.56c.51,18.38-4,41.36-8.61,43.58-9.86,4.8-39.87,4.31-49.49,1.62-3.18-.89-.5-23.47,2.43-25.42s32.35,1.22,33.82-.35c1.31-1.38,7.89-15.55,11-22.67C528.77,169.15,533.27,181.17,533.41,186.56Z" transform="translate(0.28 -6.07)"></path><path class="cls-12" d="M481.56,232.77c-10-1.64-22.51-3.07-31.28-10.37a5.66,5.66,0,0,1-2-3.12c-4-3.2-3.67-6.05-3.67-6.05-2.8-4.12-2.08-7-2.08-7s-4.64-3.81-2.81-7c2-3.59,8.17,2.47,13.57,3.74,12.38,2.91,30.78,3.6,34.43,4.08Z" transform="translate(0.28 -6.07)"></path><path class="cls-7" d="M464.12,215.16a57.43,57.43,0,0,1-21.44-8.94.1.1,0,1,0-.12.16,43.16,43.16,0,0,0,21.53,8.94C464.27,215.34,464.31,215.2,464.12,215.16Z" transform="translate(0.28 -6.07)"></path><path class="cls-7" d="M463.45,222.88c-3.48-1.1-9.57-3.07-18.76-9.74,0,0-.08,0-.05.05a38.9,38.9,0,0,0,18.76,9.86C463.62,223.1,463.68,223,463.45,222.88Z" transform="translate(0.28 -6.07)"></path><path class="cls-7" d="M463,227c-5.84-2.1-9.25-4.16-14.68-7.75,0,0-.08,0-.05.05,5.74,4.73,8.36,5.8,14.69,7.91C463.19,227.31,463.24,227.11,463,227Z" transform="translate(0.28 -6.07)"></path><path class="cls-12" d="M468.44,205.56c1.76-.26,1.63-1.19-1.11-2.76s-15-5.47-13.23-9.62,18.86,1.61,23.23,4.58,10.4,9.31,10.4,9.31C484.17,206.62,475.43,206.35,468.44,205.56Z" transform="translate(0.28 -6.07)"></path><path class="cls-6" d="M489.86,205.77l-.35,28.09s30.51,2.76,36.85-3.74,8.45-36.93,7.31-44.66-5-14.41-11-3.13-10.61,22.72-11.37,23.18S489.86,205.77,489.86,205.77Z" transform="translate(0.28 -6.07)"></path><path class="cls-7" d="M495.91,219.54v-6.19c0-2,0-4.13-.16-6.18a.09.09,0,0,0-.17,0c-.2,2-.18,4-.23,6s-.09,4.21-.13,6.32c-.06,4.17,0,8.33.21,12.49,0,.11.15.09.16,0C495.77,227.81,495.92,223.69,495.91,219.54Z" transform="translate(0.28 -6.07)"></path><path class="cls-7" d="M519.59,188.39c-.7,1.14-7.77,16.22-8.12,16.74s-1.25.44-1.92.44h-8.06c-3,0-5.81.11-8.83.09a.08.08,0,1,0,0,.15c2.81.13,5.38.37,8.19.44s5.62.12,8.43.12c1,0,2.2.18,2.79-.85.69-1.21,7.25-15.47,7.72-17A.12.12,0,0,0,519.59,188.39Z" transform="translate(0.28 -6.07)"></path><path class="cls-7" d="M534.49,193.27c-.42,3.11-.73,6.23-1.17,9.34s-1,6.32-1.56,9.45-1.18,6-1.94,9a41.21,41.21,0,0,1-1.38,4.47,12.33,12.33,0,0,1-2.2,4,10.38,10.38,0,0,1-4,2.55c-.74.29-1.5.53-2.26.75-1.62.37-3.28.62-4.92.86a82,82,0,0,1-14.19.57l-4-.17c-1.37-.05-2.93-.1-4.29-.05l.18.13c1.24.07,2.5.18,3.74.31s2.5.22,3.76.3c2.5.15,5,.25,7.51.21,4.77-.08,9.83-.39,14.37-2a12.22,12.22,0,0,0,3.54-1.94c2.53-1.82,3.39-4.92,4.2-7.79a138.12,138.12,0,0,0,3.74-19c.09-.67.18-1.34.26-2a42.33,42.33,0,0,1,1.7-5.48c0-.1-.11-.15-.15-.05-.45,1.15-.92,2.31-1.3,3.49.27-2.3.5-4.62.58-6.93a.11.11,0,1,0-.22,0Z" transform="translate(0.28 -6.07)"></path><path class="cls-12" d="M512.64,181.42c3.54.6,9.18-5.13,11.26-9.61.14-.31-.52-3.4-1.14-7.2-.37-2.3-.73-4.88-.88-7.25L507.22,162a37.57,37.57,0,0,1,2,9,4.18,4.18,0,0,1,0,1v.16C509,174,509.21,180.84,512.64,181.42Z" transform="translate(0.28 -6.07)"></path><path class="cls-7" d="M520.86,157.67c-.29,3.46-1.82,13.7-10.13,14.44a9.9,9.9,0,0,1-1.54,0V172a4.18,4.18,0,0,0,0-1,37.57,37.57,0,0,0-2-9Z" transform="translate(0.28 -6.07)"></path><path class="cls-7" d="M505.86,133.88s-4.67,1.9-5.56,6.63.17,9.69.58,9.93S505.86,133.88,505.86,133.88Z" transform="translate(0.28 -6.07)"></path><path class="cls-12" d="M525.14,141.79c1.28,5.38-2.45,20.47-6.42,23.64-5.75,4.59-14.7,4.51-18.48-2.3-3.67-6.59,1.55-26.17,5.94-29C512.64,130,523.24,133.84,525.14,141.79Z" transform="translate(0.28 -6.07)"></path><path class="cls-13" d="M499.49,150.83c-.75,5-.69,9.73.81,12.39,3.82,6.78,12.77,6.8,18.5,2.18a14.17,14.17,0,0,0,3.28-5.35,56.61,56.61,0,0,0,1.24-7.77c0-1.48-2.76-1.29-2.76-1.29-.15,1.58-1.5,4.77-2.75,5.83-2.11,1.79-6,.83-7.32.39s-3.78-2.25-6.63-2c-1.28.12-2.55.79-3.57,0S499.48,151.06,499.49,150.83Z" transform="translate(0.28 -6.07)"></path><path class="cls-7" d="M509.29,150.36s.07.07.06.11c-.31,1-.48,2.19.33,2.77h0C508.59,152.83,508.86,151.26,509.29,150.36Z" transform="translate(0.28 -6.07)"></path><path class="cls-7" d="M510.47,149.56c1.65.31.9,3.58-.62,3.29S509.09,149.29,510.47,149.56Z" transform="translate(0.28 -6.07)"></path><path class="cls-7" d="M503.34,149s-.09,0-.09.07c-.2,1-.6,2.16-1.6,2.29v0C502.8,151.5,503.32,150,503.34,149Z" transform="translate(0.28 -6.07)"></path><path class="cls-7" d="M502.68,147.73c-1.6-.5-2.47,2.74-1,3.2S504,148.14,502.68,147.73Z" transform="translate(0.28 -6.07)"></path><path class="cls-7" d="M512.11,148.36c-.42-.22-.78-.49-1.17-.74s-.83-.47-1-1a.69.69,0,0,1,.3-.81A1.79,1.79,0,0,1,512,146a2.59,2.59,0,0,1,1.2,1.42.76.76,0,0,1-1.1.91Z" transform="translate(0.28 -6.07)"></path><path class="cls-7" d="M501.79,145.79q.69,0,1.38,0a2.15,2.15,0,0,0,1.4-.31.7.7,0,0,0,.15-.85,1.73,1.73,0,0,0-1.63-.71,2.53,2.53,0,0,0-1.76.61.75.75,0,0,0,0,1.06A.78.78,0,0,0,501.79,145.79Z" transform="translate(0.28 -6.07)"></path><path class="cls-7" d="M508.32,159.56c-.26.24-.51.56-.89.58a2.86,2.86,0,0,1-1.11-.29s-.07,0-.05.05a1.39,1.39,0,0,0,1.3.6,1.09,1.09,0,0,0,.85-.89C508.44,159.55,508.36,159.53,508.32,159.56Z" transform="translate(0.28 -6.07)"></path><path class="cls-7" d="M507.71,156.35a3.54,3.54,0,0,1-2.65,1,4.51,4.51,0,0,1-1.26-.22,3.34,3.34,0,0,1-.44-.17.24.24,0,0,1-.15-.27h0l.56-2.15c-.32.08-1.92.4-1.81,0a53.84,53.84,0,0,1,3.73-10.14.11.11,0,0,1,.14,0,.1.1,0,0,1,0,.09c-.81,3.23-2.18,6.31-3,9.54a6.4,6.4,0,0,1,1.75-.12s-.76,2.62-.76,2.64a4.91,4.91,0,0,0,3.83-.29S507.79,156.29,507.71,156.35Z" transform="translate(0.28 -6.07)"></path><path class="cls-7" d="M504.38,156.79a4.09,4.09,0,0,0,1.35,1.62,1.9,1.9,0,0,0,1.09.31c.85,0,1-.77,1-1.43a4.24,4.24,0,0,0-.15-1A5.34,5.34,0,0,1,504.38,156.79Z" transform="translate(0.28 -6.07)"></path><path class="cls-14" d="M505.73,158.41a1.9,1.9,0,0,0,1.09.31c.85,0,1-.77,1-1.43A1.93,1.93,0,0,0,505.73,158.41Z" transform="translate(0.28 -6.07)"></path><path class="cls-7" d="M522.56,156c-1.83.12-2.57-5.49-2.66-7.6-.07-1.86.68-7.53.69-7.92s-8.63,3.11-12.64.82-6-6.84-5.59-8.66,6.82-5.13,11.5-4.26,9.56,8.26,9.56,8.26a21.23,21.23,0,0,1-1.4-3.25c.12-.19,2.83,1.72,2.87,4,0,0,0-2.81.28-2.81s2,2.85,1.08,4.46c0,0,2.13,3,1.77,5.59S524.72,155.91,522.56,156Z" transform="translate(0.28 -6.07)"></path><path class="cls-7" d="M505.11,139.71a15,15,0,0,0,3.72,2.43,10,10,0,0,0,4.83.36,14.88,14.88,0,0,0,4.65-1.44c1.29-.63,2.5-1.47,3.84-2,.34-.12.57.37.33.59a15.87,15.87,0,0,1-9.2,3.89,9.13,9.13,0,0,1-8.2-3.81S505.09,139.69,505.11,139.71Z" transform="translate(0.28 -6.07)"></path><path class="cls-12" d="M520.44,154.91s3.85-4.64,6-3.23-1.05,8.34-3.75,9.1a2.67,2.67,0,0,1-3.42-1.62.49.49,0,0,1,0-.11Z" transform="translate(0.28 -6.07)"></path><path class="cls-7" d="M525.47,153.64v.07c-1.9.6-3,2.22-3.83,3.94a1.46,1.46,0,0,1,2-.38,1.56,1.56,0,0,1,.2.16s0,.1-.06.09a1.65,1.65,0,0,0-1.86.42,8.6,8.6,0,0,0-1,1.39c-.1.16-.39,0-.31-.14h0C520.86,156.8,522.93,153.67,525.47,153.64Z" transform="translate(0.28 -6.07)"></path><path class="cls-6" d="M507.12,175.86c.27-.27-.39-5.71-.13-5.93.7-.59,2.38,1.09,5.37,1,5.19-.17,10.78-5.14,12-4.74s1.1,6.4,1.39,6.58-8.25,10.37-14.39,9.16C507.74,181.2,507.12,175.86,507.12,175.86Z" transform="translate(0.28 -6.07)"></path><path class="cls-7" d="M508.93,175.34c-.12-1.27-.33-2.53-.4-3.8a.1.1,0,0,0-.2,0h0a31.56,31.56,0,0,0,0,3.89,16.16,16.16,0,0,0,.74,3.71.09.09,0,0,0,.1.05l.05-.05C509.18,177.86,509,176.59,508.93,175.34Z" transform="translate(0.28 -6.07)"></path><path class="cls-7" d="M511.92,179.64a3.91,3.91,0,0,0-.07-.9c-.06-.65-.13-1.3-.2-2s-.12-1.31-.18-2a19,19,0,0,1-.16-2c0-.13-.2-.12-.21,0,0,.66-.17,1.3-.2,2s0,1.33,0,2a14.83,14.83,0,0,0,.27,1.89c.07.31.15.63.24.94s.27.66.36,1c0,.08.17.07.16,0C511.92,180.34,512,180,511.92,179.64Z" transform="translate(0.28 -6.07)"></path><path class="cls-7" d="M514.44,172.26c0-.12-.2-.08-.21,0a20.67,20.67,0,0,0,.7,7c0,.06.1,0,.11,0A27.44,27.44,0,0,0,514.44,172.26Z" transform="translate(0.28 -6.07)"></path><path class="cls-7" d="M517.79,174.47a15.07,15.07,0,0,0-.12-1.65,9.06,9.06,0,0,0-.25-1.56.11.11,0,0,0-.15,0l0,0a6.8,6.8,0,0,0-.12,1.56,12.38,12.38,0,0,0,.08,1.72,27.67,27.67,0,0,0,.53,3.26c0,.08.16.06.16,0C517.86,176.68,517.86,175.57,517.79,174.47Z" transform="translate(0.28 -6.07)"></path><path class="cls-7" d="M520.41,169.69c0-.12-.2-.08-.2,0a21.09,21.09,0,0,0,.58,5.82.06.06,0,1,0,.12,0A21.5,21.5,0,0,0,520.41,169.69Z" transform="translate(0.28 -6.07)"></path><path class="cls-7" d="M523.7,170.93c0-.49-.5-2.72-.58-3.16,0-.14-.21-.11-.2,0,.06.53.21,2.62.27,3.13.13,1,.23,2,.39,3,0,0,.07.06.08,0A20.28,20.28,0,0,0,523.7,170.93Z" transform="translate(0.28 -6.07)"></path></g><g id="freepik--character-2--inject-106"><path class="cls-15" d="M372.86,389.32c-2.16.71-63.85.13-66.18-1.38-.9-.56-1.34-9.56-1.56-20.44v-.34c-.05-2.24-.09-4.55-.1-6.89,0-.33,2.82-33,2.82-33l40.33.26-3,33-.23,6.57v.67s23.52,10.78,25.91,12.72S375,388.62,372.86,389.32Z" transform="translate(0.28 -6.07)"></path><path class="cls-7" d="M305.22,373.15c.26,8.19.68,14.33,1.42,14.79,2.33,1.51,64,2.09,66.19,1.38s.31-6.91-2.06-8.84a94,94,0,0,0-9.64-5.06c2.42,2.62,3.64,5.53-2.84,5.53C346.78,381,326.69,379.05,305.22,373.15Z" transform="translate(0.28 -6.07)"></path><path class="cls-7" d="M346.86,366.53H302.41S311.36,262.76,311,261c-.45-2.32-3.07-12.83-6.56-26.55L301,220.73c-3.31-12.91-7-27-10.15-39.3-4.77-18.39-8.5-32.68-8.5-32.68H320s4.39,13.91,9.92,32c9,29.42,21.06,69.9,22.24,79.74C354,276.4,346.86,366.53,346.86,366.53Z" transform="translate(0.28 -6.07)"></path><path class="cls-10" d="M344.86,359c-6.78-.14-4.83-.2-11.62-.27-3.32,0-25.14-.22-28.25.3a.07.07,0,0,0,0,.09l0,0c3.11.52,24.93.33,28.25.3,6.79-.07,4.84-.12,11.62-.27a.1.1,0,0,0,.13-.06.11.11,0,0,0-.07-.13Z" transform="translate(0.28 -6.07)"></path><path class="cls-10" d="M319.37,254.61c-1.46-6.43-3.64-12.72-5.53-19q-5.77-19.22-11.62-38.41-2.93-9.6-5.86-19.19l-3-9.68c-1-3.23-2.11-6.28-3-9.46-.36-1.29-.56-.58-.09,1.06.94,3.32,1.86,6.63,2.83,9.94q2.86,9.82,5.77,19.63,5.78,19.51,11.66,39,2.93,9.78,5.88,19.55a78.94,78.94,0,0,1,2.4,9.46,42.77,42.77,0,0,1,.39,10.11c-.42,6.8-1.21,13.59-1.84,20.37s-1.26,13.59-1.88,20.39q-1.89,20.28-3.73,40.57c-.15,1.72-.3,3.43-.43,5.15-.05.57.36.64.42.09,1.46-13.37,3.05-26.9,4.3-40.3l3.75-40c.31-3.35.67-6.7.67-10.06A41.49,41.49,0,0,0,319.37,254.61Z" transform="translate(0.28 -6.07)"></path><path class="cls-10" d="M315.68,148.75c-2.62,20.23-7.6,58.14-11.23,85.65-8.49-33.33-22.15-85.65-22.15-85.65Z" transform="translate(0.28 -6.07)"></path><path class="cls-15" d="M324.93,389.32c-2.16.71-63.86.13-66.19-1.38-.89-.56-1.34-9.56-1.56-20.44v-.34c-.05-2.24-.09-4.55-.1-6.89v-1c-.15-15.71,1-32,1-32l40.32.26-1.13,31.71v1.25l-.22,6.57v.67s23.52,10.78,25.91,12.72S327.09,388.62,324.93,389.32Z" transform="translate(0.28 -6.07)"></path><path class="cls-7" d="M257.32,373.15c.26,8.19.68,14.33,1.42,14.79,2.33,1.51,64,2.09,66.19,1.38s.31-6.91-2.06-8.84a92.09,92.09,0,0,0-9.64-5.06c2.42,2.58,3.63,5.58-2.84,5.58C298.86,381,278.79,379.05,257.32,373.15Z" transform="translate(0.28 -6.07)"></path><path class="cls-7" d="M318.74,148.75s-.87,18-5,32.29c-.33,1.18-.68,2.34-1.07,3.45a67.39,67.39,0,0,0-10.81,5.58s-.44,14.49-.87,30.66c-.48,18.07-1,38.23-.88,42.5.38,16-2,104-2,104l-44.42.18s8-98.22,8-104.08c-.09-9.42,2.15-51,3.87-81.4a239.59,239.59,0,0,1,4.15-33.13Z" transform="translate(0.28 -6.07)"></path><path class="cls-10" d="M296.55,359.28c-6.79-.12-4.84-.18-11.63-.22-3.32,0-25.14-.11-28.24.42a.07.07,0,0,0,0,.09l0,0c3.11.5,24.93.22,28.25.18,6.78-.1,4.83-.15,11.62-.32a.1.1,0,0,0,.13-.06.11.11,0,0,0-.07-.13Z" transform="translate(0.28 -6.07)"></path><path class="cls-10" d="M271.16,155.19c-.82,24.78-1.68,49.57-2.79,74.34s-6.95,113.82-8.44,127.64c0,.1.13.13.14,0,3.24-24.59,5-61,6.63-85.71s2.67-49.51,3.51-74.28c.48-14,.84-28,1.26-42.05C271.48,155,271.17,155,271.16,155.19Z" transform="translate(0.28 -6.07)"></path><path class="cls-10" d="M314.51,183.42a81.55,81.55,0,0,0-12.65,6.65.16.16,0,0,0,0,.21.17.17,0,0,0,.15.05c4.28-2.08,8.66-4.09,12.83-6.4a.3.3,0,1,0-.31-.51Z" transform="translate(0.28 -6.07)"></path><path class="cls-10" d="M314.76,168.13c-.29,1.58-.67,3.15-1,4.71s-.56,3-.95,4.43a7.59,7.59,0,0,1-2.06,3.72c-.58.53-1.21,1-1.83,1.5-.33.27-.69.52-1,.79.05-.21.08-.42.12-.64.11-.59.21-1.19.31-1.79.22-1.33.44-2.66.64-4,.4-2.62.77-5.26,1.31-7.86,0-.1-.13-.14-.16,0-.65,2.57-1.37,5.11-1.94,7.71-.28,1.27-1.27,7.54-1.32,8s-.08.92-.1,1.38a5.55,5.55,0,0,0,0,1.41.11.11,0,0,0,.14.07.12.12,0,0,0,.07-.07h0a5.32,5.32,0,0,0,.4-1.36c.12-.45.22-.91.3-1.36a1.24,1.24,0,0,1,.07-.5c.62-.38,1.2-.88,1.77-1.29s1.26-.89,1.85-1.39a7,7,0,0,0,2.25-3.52,25.56,25.56,0,0,0,.74-4.51c.2-1.79.35-3.58.6-5.36C314.94,168.07,314.78,168,314.76,168.13Z" transform="translate(0.28 -6.07)"></path><path class="cls-7" d="M276.64,123.79c6.5,6.77,17.12,8.76,26.28,8.65,9.34-.12,19.73-1.76,27.82-6.6a22.52,22.52,0,0,0,8.63-8.69c2-3.92,2-7.87-.73-11.18-2.21-2.68-6.73-4.37-6.93-7s1.81-4.8,2.22-7.33c.7-4.33-1.88-7.34-5.12-9.86-7.66-6-6.35-14.8-11.37-22.6-2.85-4.45-10.58-12.44-23-7.58-4.72,1.85-7.7,6.41-9.33,11-1.92,5.42.24,12.2-2.21,17.46-2.09,4.48-5.58,5.44-7.55,10.13-.86,2-1.17,4.35,1.3,8.81.9,1.62,1.91,4.1,1.35,6.14-.78,2.83-4,4.35-4.89,7.3C271.92,116.58,273.77,120.8,276.64,123.79Z" transform="translate(0.28 -6.07)"></path><path class="cls-7" d="M336.62,118.45c4.3-1,5.73-7.08,2.74-9.88-1.89-1.77-4.58-2.45-6.48-4.22-3.12-2.9-.76-5.93.56-9.12,2.88-6.92-2.07-11.06-7.26-14.8-3.93-2.84-4.95-6.36-5.54-10.94a.06.06,0,1,1,.12,0c.61,3.36,1.34,6.65,4,9.11,2.12,2,4.84,3.28,6.91,5.37,3.47,3.5,4.16,7.53,2.25,12-.55,1.28-1.67,2.77-1.83,4.13-.37,3.22,2.18,4.66,4.6,6,1.86,1.06,3.92,2.24,4.75,4.3,1.25,3.12-1.34,7.68-4.69,8.29C336.53,118.74,336.45,118.49,336.62,118.45Z" transform="translate(0.28 -6.07)"></path><path class="cls-7" d="M334.5,121.87c2.55-1.8,5.33-3.47,6.69-6.37,2-4.29-1.13-7.16-4.07-9.86-1.26-1.16-2.33-2.33-2.41-4.09-.11-2.65,1.68-5,1.8-7.66.28-6.3-6.29-9.58-9.8-13.91s-5.08-9.8-6.67-15.12c0-.11.14-.17.18,0,2.08,6.78,4.67,13.1,10.06,18,3.76,3.44,7.77,7.17,6.58,12.67-.29,1.35-1,2.62-1.25,4-.52,2.68.33,4.32,2.24,6s3.94,3.35,4.46,5.89c1,4.91-3.77,8.61-7.57,10.83a.25.25,0,1,1-.24-.43Z" transform="translate(0.28 -6.07)"></path><path class="cls-7" d="M271.86,111.05c1.9-3.2,5.21-5,3.93-9.22-.88-2.91-2.73-5.14-2.39-8.33a11.39,11.39,0,0,1,3.65-6.7c2.35-2.4,5-4.4,6.61-7.4,1.75-3.27,2.34-7,3-10.55,0-.07.13-.06.13,0-.57,4.84-1.34,9.83-4.69,13.71-1.75,2-4,3.63-5.68,5.68-3.11,3.68-2.74,7.37-.9,11.45.85,1.87,1.63,3.76.9,5.81s-2.56,3.5-3.76,5.24c-5,7.51,4.48,15.6,11.8,16.23.33,0,.33.52,0,.5-5.46-.31-11.6-4.58-13.27-9.68A8.13,8.13,0,0,1,271.86,111.05Z" transform="translate(0.28 -6.07)"></path><path class="cls-7" d="M272.42,114.77c-.23-3.14,1.6-5.06,2.92-7.66,2.07-4.09-.8-7.67-1.48-11.73a10,10,0,0,1,2.07-7.59c2.15-3,5.05-5.3,6.73-8.69a20.07,20.07,0,0,0,1.82-11.64c0-.08.1-.08.11,0a19.1,19.1,0,0,1-3.73,15.32c-2.19,2.76-5.25,5.13-6.29,8.67-1.09,3.75,1.08,6.87,1.92,10.42a7.87,7.87,0,0,1-1,6.2,16.42,16.42,0,0,0-2.32,4.45,9.61,9.61,0,0,0,1.3,6.66c3.51,6.32,11,9.78,17.81,10.22.24,0,.26.39,0,.38a23.6,23.6,0,0,1-16.28-7.6A13,13,0,0,1,272.42,114.77Z" transform="translate(0.28 -6.07)"></path><path class="cls-15" d="M303.48,100c2.95,7.76,26.26,44.88,39,46.72,13.29,1.92,46.84-17.74,50-19.34,8.76-4.42-13.16-29-17.5-25.21-7.26,6.37-24.36,18.12-28.27,17-8.21-2.39-24.59-18.17-36.4-26.6C303.2,87.49,300.23,91.45,303.48,100Z" transform="translate(0.28 -6.07)"></path><path class="cls-15" d="M390.39,128.44c1.52-.87,13.65-6.56,18.47-12.53,2.54-3.16,8.57-12.63,6.84-14.42-1.57-1.64-3.86.55-3.86.55s2.62-4.26.4-6.51-5.89,1.65-5.89,1.65,2.38-4.58,0-6.66S400.94,93,400.94,93s2.36-4.08-.31-5c-3.22-1.08-6.74,6.94-10.14,9.89-.77.66-16.59,12.44-16.59,12.44Z" transform="translate(0.28 -6.07)"></path><path class="cls-7" d="M400.76,93c-2.6,5.89-4.75,8-10,11.55a.1.1,0,0,0-.05.13.11.11,0,0,0,.14,0h0c5.46-3,8.55-5.28,10.22-11.62C401.14,92.76,400.86,92.68,400.76,93Z" transform="translate(0.28 -6.07)"></path><path class="cls-7" d="M406.17,97.14c-3.23,5.88-5.55,8.21-10.79,12.32a.08.08,0,0,0,.1.13c5.47-3.6,8.5-5.94,11-12.24C406.55,97.06,406.32,96.87,406.17,97.14Z" transform="translate(0.28 -6.07)"></path><path class="cls-7" d="M411.58,102.23c-3.54,5.47-6,8.13-11.57,11.47a.12.12,0,0,0,0,.17.11.11,0,0,0,.13,0c6-2.85,9.09-6.14,11.61-11.55C411.91,102,411.8,101.89,411.58,102.23Z" transform="translate(0.28 -6.07)"></path><path class="cls-1" d="M375.51,66c0,23,5.44,26.32,14.08,26.32,8.34,0,14-3.34,14-26.32Z" transform="translate(0.28 -6.07)"></path><rect class="cls-1" x="388.69" y="81.76" width="2.33" height="28.27"></rect><polygon class="cls-1" points="376.92 112.35 402.79 112.35 389.86 109.47 376.92 112.35"></polygon><path class="cls-6" d="M389.58,89.72c5.17,0,10.06-1.74,11.19-15.58,0,0-1.87,3.48-4.54,4.35s-11.1-4.35-17.79-4.35C378.44,74.14,377.5,89.72,389.58,89.72Z" transform="translate(0.28 -6.07)"></path><path class="cls-15" d="M370.8,105.61s4.82-6.48,7.56-8.85,16.22-7.48,17.49-4.63c1.63,3.68-5.57,8.15-9.38,9.89,0,0,3.79,8.5-.69,12.83S370.8,105.61,370.8,105.61Z" transform="translate(0.28 -6.07)"></path><path class="cls-7" d="M396,93.29c-.93,4.43-6.09,6.38-9.66,8.33a.38.38,0,0,0-.18.49.27.27,0,0,0,.09.12c1.35,3.67,2.18,9.24-.18,12.63a.09.09,0,1,0,.14.12c3-3.29,2.66-8.83.92-12.76,3.7-1.94,8.78-4.13,8.91-8.93C396,93.27,396,93.26,396,93.29Z" transform="translate(0.28 -6.07)"></path><path class="cls-1" d="M303.69,102.2c3.46,8.25,24.49,43.9,37.07,45.3s44.1-14.82,44.1-14.82l-15.79-26.22s-19.95,11.47-22.08,11.4-29.68-21.09-36.05-25.68S298.06,88.77,303.69,102.2Z" transform="translate(0.28 -6.07)"></path><path class="cls-5" d="M303.69,102.2c3.46,8.25,24.49,43.9,37.07,45.3s38.1-10.5,38.1-10.5L363,108.78s-14.22,8.85-16.35,8.79-29.31-20.81-35.68-25.4S298.06,88.77,303.69,102.2Z" transform="translate(0.28 -6.07)"></path><path class="cls-16" d="M358.21,144.84c-6.29,1.86-12.77,3.18-17.45,2.66-12.58-1.4-33.61-37-37.07-45.3-3-7.24-2.54-10.92-.45-12.06Z" transform="translate(0.28 -6.07)"></path><path class="cls-5" d="M322.7,139.23l2.16,31.45s-50.73-3.18-63.24-5.05c0,0,14.77-57.33,29.44-71,7.33-6.82,15.23-5.65,19.9-.13,1.18,1.4,14.89,22.79,15.91,30.63C327.69,132.08,322.7,139.23,322.7,139.23Z" transform="translate(0.28 -6.07)"></path><path class="cls-15" d="M298,92.85c.44.92,6.5,6.23,10.91,5,1.44-.39-.35-8.33-.35-8.33V80.28l-11-4.06L296,75.71s.15,2.36.36,5.3v.89l.09,1.34a8.26,8.26,0,0,0,.1,1c0,.33.07.71.11,1.06A56.86,56.86,0,0,0,298,92.85Z" transform="translate(0.28 -6.07)"></path><path class="cls-7" d="M296.39,81a17.29,17.29,0,0,0,12.21,7.9V80.27l-11-4.06L296,75.7S296.18,78.1,296.39,81Z" transform="translate(0.28 -6.07)"></path><path class="cls-15" d="M318.39,66.75c2.52,14.92-6.13,18.12-9.35,18.66-2.92.49-12.93,1.8-17-12.78s2.08-20.48,8.7-21.95S315.86,51.83,318.39,66.75Z" transform="translate(0.28 -6.07)"></path><path class="cls-7" d="M314.47,64.29c-.33,0-.67-.05-1-.1a1.62,1.62,0,0,1-1-.3.54.54,0,0,1-.07-.66,1.33,1.33,0,0,1,1.27-.45,1.92,1.92,0,0,1,1.3.55.57.57,0,0,1-.5,1Z" transform="translate(0.28 -6.07)"></path><path class="cls-7" d="M304.46,65.45a9,9,0,0,0,1-.33,1.62,1.62,0,0,0,1-.53.55.55,0,0,0-.08-.65,1.3,1.3,0,0,0-1.34-.16,1.9,1.9,0,0,0-1.14.82.57.57,0,0,0,.21.78A.61.61,0,0,0,304.46,65.45Z" transform="translate(0.28 -6.07)"></path><path class="cls-7" d="M306.86,69s-.07.06-.07.1c.18,1,.2,2.21-.68,2.67v.06C307.27,71.54,307.22,70,306.86,69Z" transform="translate(0.28 -6.07)"></path><path class="cls-7" d="M305.86,68.08c-1.66.1-1.33,3.41.2,3.32S307.22,68,305.86,68.08Z" transform="translate(0.28 -6.07)"></path><path class="cls-7" d="M305.2,68.32c-.27.21-.52.57-.87.64s-.74-.24-1-.55h-.05c.05.64.36,1.27,1,1.3s1-.58,1.12-1.24C305.43,68.39,305.31,68.23,305.2,68.32Z" transform="translate(0.28 -6.07)"></path><path class="cls-7" d="M312.91,68.26a.09.09,0,0,1,.09.09c.06,1,.3,2.2,1.26,2.45v.06C313.11,70.8,312.86,69.25,312.91,68.26Z" transform="translate(0.28 -6.07)"></path><path class="cls-7" d="M313.74,67.11c1.64-.27,2.06,3,.54,3.28S312.36,67.34,313.74,67.11Z" transform="translate(0.28 -6.07)"></path><path class="cls-7" d="M314.45,67.24c.28.14.58.42.9.4s.58-.41.77-.78h.05c.1.63,0,1.31-.61,1.51s-1-.31-1.25-.92C314.27,67.37,314.34,67.18,314.45,67.24Z" transform="translate(0.28 -6.07)"></path><path class="cls-7" d="M307.86,77.35c.26.23.52.55.9.56a2.63,2.63,0,0,0,1.09-.31s.06,0,0,.05a1.39,1.39,0,0,1-1.28.62,1.12,1.12,0,0,1-.86-.86A.1.1,0,0,1,307.86,77.35Z" transform="translate(0.28 -6.07)"></path><path class="cls-7" d="M312.07,73s.37,1.51.45,2.23c0,.07-.16.12-.4.16h0a3.42,3.42,0,0,1-3.47-.92c-.06-.06,0-.14.09-.11a5.18,5.18,0,0,0,3.23.56c0-.21-.73-2.56-.62-2.58a6.33,6.33,0,0,1,1.68.19c-.69-3.16-1.89-6.19-2.54-9.34,0-.12.14-.17.18-.07A52,52,0,0,1,313.86,73C313.91,73.44,312.37,73.06,312.07,73Z" transform="translate(0.28 -6.07)"></path><path class="cls-7" d="M311.86,75.25a4.09,4.09,0,0,1-1.49,1.49,1.81,1.81,0,0,1-1.12.21c-.84-.11-1-.85-.89-1.51a4.29,4.29,0,0,1,.24-1A5.43,5.43,0,0,0,311.86,75.25Z" transform="translate(0.28 -6.07)"></path><path class="cls-14" d="M310.41,76.74a1.81,1.81,0,0,1-1.12.21c-.84-.11-1-.85-.89-1.51A1.93,1.93,0,0,1,310.41,76.74Z" transform="translate(0.28 -6.07)"></path><path class="cls-7" d="M292.86,73.8a6.15,6.15,0,0,0,2.9-5.37,16.14,16.14,0,0,0,6-6c-.07.31-.55,2.61-.83,3.77,9.27-2.79,11.41-10.35,11.41-10.35a16.34,16.34,0,0,1,4.77,5.55s-.56-5.81-4-9.37c-4.16-4.36-16.63-4.3-21.66,2.52C286,61.94,292.86,73.8,292.86,73.8Z" transform="translate(0.28 -6.07)"></path><path class="cls-7" d="M307.91,63.89a17.6,17.6,0,0,1-4.66,2.3h0a14.86,14.86,0,0,0,6.48-5,14.5,14.5,0,0,0,1.73-3.07,9.88,9.88,0,0,0,.87-3.74.07.07,0,0,1,.14,0,11.37,11.37,0,0,1-.34,3.81,10.39,10.39,0,0,1-1.76,3.36,11.77,11.77,0,0,1-2.46,2.32" transform="translate(0.28 -6.07)"></path><path class="cls-15" d="M294.62,73.37s-3.67-4.44-5.71-3.09,1,8,3.57,8.7a2.57,2.57,0,0,0,3.28-1.56l0-.09Z" transform="translate(0.28 -6.07)"></path><path class="cls-7" d="M289.86,72.15v.07c1.82.57,2.88,2.13,3.67,3.76a1.42,1.42,0,0,0-2-.34l-.16.13a0,0,0,0,0,0,.07,0,0,0,0,0,0,0,1.57,1.57,0,0,1,1.77.41,7.27,7.27,0,0,1,.94,1.33c.1.15.38,0,.3-.13h0C294.25,75.18,292.25,72.18,289.86,72.15Z" transform="translate(0.28 -6.07)"></path><path class="cls-15" d="M295.78,77.33a2.84,2.84,0,0,1-1.16,1.46,1.85,1.85,0,0,1-.45.21,2.71,2.71,0,0,1-1.13.1,2.28,2.28,0,0,1-.53-.11h0c-2.58-.74-5.62-7.36-3.57-8.7s5.72,3.09,5.72,3.09Z" transform="translate(0.28 -6.07)"></path><path class="cls-7" d="M289.86,72.15v.07c1.82.57,2.88,2.13,3.67,3.76a1.42,1.42,0,0,0-2-.34l-.16.13a0,0,0,0,0,0,.07,0,0,0,0,0,0,0,1.57,1.57,0,0,1,1.77.41,7.27,7.27,0,0,1,.94,1.33c.1.15.38,0,.3-.13h0C294.25,75.18,292.25,72.18,289.86,72.15Z" transform="translate(0.28 -6.07)"></path><path class="cls-6" d="M295.11,80.09a6,6,0,0,1,.27,1.78c0,.83-.36,1.09-.64,1.17a.79.79,0,0,1-.67-.1c-1-.61-1.46-3.34-1.56-4,.19,0,.37.08.53.11.19,1,.66,3,1.3,3.42a.3.3,0,0,0,.26,0c.24-.07.34-.55.25-1.27a7.3,7.3,0,0,0-.68-2.29c-.24-.52-.5-.86-.63-.87a.23.23,0,0,1-.3-.15v0a.27.27,0,0,1,.17-.31c.45-.13.89.45,1.22,1.14A7.65,7.65,0,0,1,295.11,80.09Z" transform="translate(0.28 -6.07)"></path><path class="cls-1" d="M308.86,90.94l-1.77,6.94-9.23-7.26-2,3s9.75,12.18,9.72,11.58l2-6,4.43,3.44-1.62-9.87Z" transform="translate(0.28 -6.07)"></path><path class="cls-7" d="M311.45,97.65c-.33-1.62-.61-3.26-1-4.86,0-.06-.11-.07-.12,0-.12,1.62,1.15,7.81,1.34,9.31h0c-.19-.15-4.09-3-4.11-2.94-.47,1-1.92,5.38-2,5.77-1.54-1.93-8-9.51-9.76-11.3-.05-.06-.13,0-.09.07,1.41,2.07,9.79,12.09,9.88,12a62.14,62.14,0,0,0,2.05-6.37,45.36,45.36,0,0,0,4.62,3.67C312.12,101.37,311.77,99.28,311.45,97.65Z" transform="translate(0.28 -6.07)"></path><path class="cls-15" d="M288,99c-8.56,14.57-27.45,52.62-20.33,59,11.7,10.54,38,17.8,46.12,19.15,3.5.59,12.39-25.47,9-27.08-4.12-1.94-30.31-6.94-30.47-9.26-.09-1.31,1.45-15.77,2.36-30.1C295.68,94.15,290.92,94,288,99Z" transform="translate(0.28 -6.07)"></path><path class="cls-15" d="M310.24,150s9.89-4.31,16.49-6.82c3.68-1.4,10.21-3.23,13.39-3,4.75.32,24.42,4.65,23.47,9.45-.86,4.33-17.29-1.54-17.29-1.54s17.1,4.46,15.11,9.49-19.67-4.07-19.67-4.07,17.46,5,14.58,9.84c-2.17,3.68-18.65-3.66-18.65-3.66s15,4.38,12.91,8.26c-2.29,4.28-17.92-1.54-17.92-1.54-6.93,9-14.76,11.94-19.94,10.68C311.53,176.72,310.24,150,310.24,150Z" transform="translate(0.28 -6.07)"></path><path class="cls-7" d="M341.29,146.32c12.84,2.33,18.43,7.4,18.26,7.3-4.16-2.47-11.21-4.84-13.19-5.47s-3.12-1.12-5.1-1.75C341.21,146.38,341.24,146.32,341.29,146.32Z" transform="translate(0.28 -6.07)"></path><path class="cls-7" d="M338.08,153.2a44.33,44.33,0,0,1,15,4.82c.17.11.08.15-.11.09-2.5-.87-12.36-4.11-14.89-4.85C338,153.25,338,153.19,338.08,153.2Z" transform="translate(0.28 -6.07)"></path><path class="cls-7" d="M334.92,158.93A32.86,32.86,0,0,1,346.4,163c.18.09,0,.16-.15.09-3.79-1.43-6.75-2.57-11.36-4C334.86,159,334.86,158.91,334.92,158.93Z" transform="translate(0.28 -6.07)"></path><path class="cls-1" d="M314.19,147.05l-8.62,29.86s-37.09-11.68-40.27-21.5,17.09-48.44,21.07-54.83c1.13-1.8,4.3-6,6.13-5.78,2.05.23,2.23,3.19,3,10,1,9.07-2.92,34.85-2.25,35.79S314.19,147.05,314.19,147.05Z" transform="translate(0.28 -6.07)"></path><path class="cls-5" d="M307.36,144.44l-9.87,30.45s-29-9.66-32.19-19.48,17.09-48.44,21.07-54.83c1.13-1.8,4.3-6,6.13-5.78,2.05.23,2.23,3.19,3,10,1,9.07-2.92,34.85-2.25,35.79S307.36,144.44,307.36,144.44Z" transform="translate(0.28 -6.07)"></path><path class="cls-7" d="M307.22,144.32c-2.44-.91-14-4.07-14-4.07h0s.62-4.57.85-6.78.43-4.56.62-6.84c.13-1.44.25-2.88.37-4.33.28-.83.56-1.67.83-2.51.46-1.38.83-2.8,1.23-4.2,0-.06-.06-.09-.09,0a35.67,35.67,0,0,0-1.61,4.13c-.08.26-.14.53-.22.79l.06-.7c.08-1.16.15-2.32.22-3.49s.21-2.18.19-3.26c0-.07-.1-.06-.12,0-.24,1.13-.31,2.32-.46,3.47s-.3,2.31-.44,3.46c-.27,2.27-.5,4.55-.75,6.83s-.47,4.55-.68,6.83a62,62,0,0,0-.54,7.33c0,.1,11.62,3.15,14.39,3.78C307.35,144.78,307.44,144.4,307.22,144.32Z" transform="translate(0.28 -6.07)"></path><path class="cls-7" d="M281.35,168.1a60,60,0,0,1-10.49-6.52c-3.14-2.34-6.38-5.51-5.8-9.78m-.06,0c-1,4.06,1.87,7.7,4.9,10a60.79,60.79,0,0,0,11.38,6.44.08.08,0,1,0,.07-.14Z" transform="translate(0.28 -6.07)"></path><path class="cls-7" d="M293.72,169.73c.49-1,.79-2,1.18-3s.74-2,1.09-3.08c.67-2,1.31-4,1.94-6s1.25-4,1.88-6,1.4-4.15,1.87-6.27a.07.07,0,0,0-.14,0c-.86,2-1.47,4.12-2.18,6.17s-1.38,4-2.06,6.08-1.36,4-2,6.09q-.48,1.5-.9,3a29.86,29.86,0,0,0-.82,3.06S293.69,169.8,293.72,169.73Z" transform="translate(0.28 -6.07)"></path></g><g id="freepik--character-1--inject-106"><path class="cls-17" d="M165.73,406.78c-2.16.74-65.91.76-68.28-.74-.28-.17-.26-7.92-.45-13.83-.29-9,11.79-49.18,11.79-49.18l39.56,2-11,40.49s9.11,4,16.63,7.57h0a88.07,88.07,0,0,1,9.58,4.89C166,399.82,167.86,406.05,165.73,406.78Z" transform="translate(0.28 -6.07)"></path><path class="cls-6" d="M165.73,406.78c-2.16.74-65.91.76-68.28-.74-.28-.17-.41-5.93-.45-13.83,15.8,3.27,57.87,8.31,59.05,5,.46-1.33-.56-2.81-2.08-4.18a88.07,88.07,0,0,1,9.58,4.89C166,399.82,167.86,406.05,165.73,406.78Z" transform="translate(0.28 -6.07)"></path><path class="cls-10" d="M71.29,280.2C79.09,288,90,292.86,99.22,297.63c8,4.09,14.7,8.09,17.24,13.7,2.24,5-14.7,53.42-14.7,53.42l43.45,10.4s19.6-53.54,14.7-76.6c-.81-3.78-4.59-8.67-10-14-19.28-19-59.26-43.79-59.26-43.79H66.1S55.92,264.92,71.29,280.2Z" transform="translate(0.28 -6.07)"></path><path class="cls-7" d="M68.86,246.09c.1-1.11.21-2.23.32-3.34,0-.1.18-.1.17,0-1,8.94-1.86,18.75,2.36,27.06,4.06,8,12.19,12.8,19.41,17.57l13.16,8.69,6.58,4.35a59.26,59.26,0,0,1,5.23,3.68,15.4,15.4,0,0,1,3.81,4.31,10.85,10.85,0,0,1,1.26,6.17C120.08,329,107.31,362.27,107,363.51a.26.26,0,0,1-.32.17.26.26,0,0,1-.16-.32h0c3.1-9.6,10-26.16,13.7-45.42a15.48,15.48,0,0,0,.06-7.53,12,12,0,0,0-3.42-5.05A37.07,37.07,0,0,0,112,301.7l-6.69-4.42-13-8.62c-7.12-4.71-15.15-9.29-19.78-16.73C67.61,264.18,68.08,254.82,68.86,246.09Z" transform="translate(0.28 -6.07)"></path><path class="cls-7" d="M71.29,280.2C79.09,288,90,292.86,99.22,297.63c16.36-4.29,37-9.65,50.69-13.1-19.28-19-59.26-43.79-59.26-43.79H66.1S55.92,264.92,71.29,280.2Z" transform="translate(0.28 -6.07)"></path><path class="cls-17" d="M243.46,395.65c-2.25.44-65.42-8.1-67.57-9.9-.25-.21.39-5.93,1.41-13.76l-11.2-47.73,41.61,5.11,13.09,41a101.21,101.21,0,0,0,12.83,10.05h0a88.13,88.13,0,0,1,8.85,6.12C244.62,388.78,245.7,395.22,243.46,395.65Z" transform="translate(0.28 -6.07)"></path><path class="cls-6" d="M243.46,395.65c-2.25.44-65.42-8.1-67.57-9.9-.25-.21.39-5.93,1.41-13.76,15.22,5.36,56.23,16,57.84,12.86.64-1.25-.17-2.86-1.5-4.41a88.13,88.13,0,0,1,8.85,6.12C244.62,388.78,245.7,395.22,243.46,395.65Z" transform="translate(0.28 -6.07)"></path><path class="cls-10" d="M219.11,356.19l-44.61,8L160.58,313c-1.22-16.93-4.27-25.15-14.23-28.24-17-5.25-58.4,14.15-77.17,1.13-15.24-10.57-3.08-45.13-3.08-45.13h44.06s5.32,6.49,6.3,10.29c0,0,54.57-4.21,66.78,11.28C199.6,283.05,219.11,356.19,219.11,356.19Z" transform="translate(0.28 -6.07)"></path><path class="cls-7" d="M138.72,284a24,24,0,0,1,7.83.6,18.11,18.11,0,0,1,6.68,3.41,16.86,16.86,0,0,1,4.49,5.67,28.57,28.57,0,0,1,2.1,8.28c.24,1.65.4,3.31.49,5s.16,4,.16,5.39c0,.13-.16.14-.17,0a31.81,31.81,0,0,0-.37-4.46c-.19-1.41-.43-2.8-.67-4.2a47.12,47.12,0,0,0-1.94-8.19,17.69,17.69,0,0,0-9.89-10.16,18,18,0,0,0-4.26-1.14,29.92,29.92,0,0,0-4.44-.15S138.69,284,138.72,284Z" transform="translate(0.28 -6.07)"></path><path class="cls-7" d="M75.56,257.45A18.73,18.73,0,0,0,80,255.87a13.14,13.14,0,0,0,3.76-2.63,8.31,8.31,0,0,0,1.58-3.64c.17-.71.27-1.45.39-2.17a23.9,23.9,0,0,0,.38-2.39c0-.1.18-.09.17,0-.37,3,.47,6.36-1.77,8.93a11.11,11.11,0,0,1-4.07,2.61,14.5,14.5,0,0,1-4.81,1.17.16.16,0,0,1,0-.3Z" transform="translate(0.28 -6.07)"></path><path class="cls-7" d="M67.31,250.49c.4-1.63.87-3.23,1.4-4.82a.09.09,0,0,1,.1-.06.1.1,0,0,1,.06.11h0a57.43,57.43,0,0,0-2.8,20.45,39.72,39.72,0,0,0,1.33,9.7,11.88,11.88,0,0,0,5.46,7.21,25.93,25.93,0,0,0,8.91,2.78,61.11,61.11,0,0,0,10.55.75,200.22,200.22,0,0,0,21.46-1.88c6.91-.81,13.82-1.78,20.74-2.4,5.67-.5,11.72-.56,17,1.95,5,2.4,8.24,7,10.37,12,2.4,5.62,3.76,11.69,5.37,17.57,1.93,7,11.9,45.23,12,46.87a.12.12,0,0,1-.24,0c-.36-3.6-9-35.21-10.92-42.27l-2.91-10.58c-.78-2.82-1.54-5.64-2.51-8.4-1.85-5.26-4.55-10.55-9.35-13.69-5.11-3.35-11.48-3.59-17.39-3.17-3.33.24-6.65.68-10,1.08L115.08,285c-7,.82-14,1.8-21,2a68.35,68.35,0,0,1-10.51-.43,35.25,35.25,0,0,1-9.21-2.19,12.48,12.48,0,0,1-6.23-5.3,22.34,22.34,0,0,1-2.29-8.59A57.82,57.82,0,0,1,67.31,250.49Z" transform="translate(0.28 -6.07)"></path><path class="cls-7" d="M117.63,152.79c-3.18-4.53-9.34-6.24-15.59-5.76s-13.87,2.59-15.71,12.24c-1.49,7.83.16,15.82-.93,24.62S71.34,213,86.8,225.34c13.89,11.11,45.35,5.93,48.6-13.33,2.57-15.26-14.8-31.61-16.09-37.92S121.12,157.76,117.63,152.79Z" transform="translate(0.28 -6.07)"></path><path class="cls-7" d="M119.34,161.77a32.93,32.93,0,0,0,1.14,13.28,12.69,12.69,0,0,0,1.55,3.13c.63,1,1.32,1.89,2,2.81,1.38,1.83,2.75,3.64,4,5.5a44.94,44.94,0,0,1,6,11.87,33.46,33.46,0,0,1,1.4,13,28.45,28.45,0,0,0,.58-6.64,30.46,30.46,0,0,0-1-6.64,39.57,39.57,0,0,0-5.89-12.28c-1.3-1.9-2.71-3.72-4.11-5.52a23.16,23.16,0,0,1-3.6-5.58,27.07,27.07,0,0,1-1.57-6.38A53.18,53.18,0,0,1,119.34,161.77Z" transform="translate(0.28 -6.07)"></path><path class="cls-7" d="M86,166c-.42,4.49-.66,9-1.31,13.43A52.36,52.36,0,0,1,83.28,186c-.6,2.11-1.53,4.19-2.36,6.31s-1.59,4.28-2.23,6.47a36.75,36.75,0,0,0-1.27,6.74,23.48,23.48,0,0,0,.53,6.84,16.73,16.73,0,0,0,3.23,6.11,17.44,17.44,0,0,1-2.59-6.23,22.33,22.33,0,0,1-.14-6.63,54.87,54.87,0,0,1,3.73-12.87,67,67,0,0,0,2.32-6.45,42.69,42.69,0,0,0,1.17-6.73A105.66,105.66,0,0,0,86,166Z" transform="translate(0.28 -6.07)"></path><path class="cls-17" d="M97.86,198.69C103.05,218.42,109.54,230,113,232c4.69,2.77,33.59,7.6,39.2,7.81,2.21.08,4.05.11,5.35.14,3.23.06,7.52-21.43,5.12-23.92-.55-.57-2.69-.93-5.68-1.17-10.08-.79-32.64,0-33.87-1s-6.45-9.26-14.31-20.12C103.1,185.85,94.05,184.28,97.86,198.69Z" transform="translate(0.28 -6.07)"></path><path class="cls-17" d="M152.18,239.8a84.36,84.36,0,0,0,10.51,3.33c2.84.57,11.07,2,12-1.06.64-2.09-4.1-3.5-7.43-4.58-1.75-.56-4-2.16-3.58-3.3.72-2,5.24-.42,8.25,1,5.82,2.76,13.69,7.95,16.85,4.86,1.19-1.18-.46-3-2.79-4.71,3.71,1.92,7.63,3.43,9,2.18a1.88,1.88,0,0,0,.2-2.56,2.47,2.47,0,0,0,2.69-.66c1-1.29.34-3-1.06-4.73a1.35,1.35,0,0,0,1-.78c2.13-3.9-10.93-13.54-15.22-14.19-12.63-1.91-25.71.26-25.71.26C152.36,219.16,152.17,239.79,152.18,239.8Z" transform="translate(0.28 -6.07)"></path><path class="cls-7" d="M169.43,226.74a20.26,20.26,0,0,1,8.52,2.5c3.06,1.74,5.58,4.26,8.44,6.28a.08.08,0,1,1-.09.12c-1.35-1.06-2.82-2-4.22-3s-2.7-2-4.12-2.89a20.2,20.2,0,0,0-8.54-3S169.4,226.74,169.43,226.74Z" transform="translate(0.28 -6.07)"></path><path class="cls-7" d="M171.3,221.3a50.38,50.38,0,0,1,9.89,2.53c3.44,1.41,6.26,3.94,9,6.37q2.49,2.19,4.88,4.49c.07.07,0,.18-.09.12q-4.22-3.78-8.64-7.29a26.7,26.7,0,0,0-9.23-4.8c-1.92-.55-3.88-1-5.84-1.37C171.26,221.35,171.26,221.29,171.3,221.3Z" transform="translate(0.28 -6.07)"></path><path class="cls-7" d="M174.4,216.41c3.21.39,6,.72,9,2.18a45.64,45.64,0,0,1,9.15,6.65c1.51,1.37,3,2.78,4.41,4.22.06.06,0,.16-.1.1a105.13,105.13,0,0,0-10.44-8.75,20.8,20.8,0,0,0-5.68-3.06,38.66,38.66,0,0,0-6.31-1.32S174.38,216.41,174.4,216.41Z" transform="translate(0.28 -6.07)"></path><path class="cls-6" d="M149.09,240.41,153,213.76s-26.64-.16-29.64-1.09c-.9-.27-11.31-17.46-17.89-23.11s-11.82-3.91-9.34,6.95,10.06,32.65,14.69,35.5S149.09,240.41,149.09,240.41Z" transform="translate(0.28 -6.07)"></path><path class="cls-3" d="M112.8,205.56A6.87,6.87,0,0,0,112,204a6.58,6.58,0,0,0,.44,1.69,6.87,6.87,0,0,0,.83,1.53A6.58,6.58,0,0,0,112.8,205.56Zm26.93,29.78a6.33,6.33,0,0,0-.84-1.53,6.58,6.58,0,0,0,.44,1.69,6.33,6.33,0,0,0,.84,1.53A6.58,6.58,0,0,0,139.73,235.34ZM121.63,224a6.39,6.39,0,0,0-.84-1.54,6.58,6.58,0,0,0,.44,1.69,6.39,6.39,0,0,0,.84,1.54A6.58,6.58,0,0,0,121.63,224Zm20-6.28a6.39,6.39,0,0,0-.84-1.54,6.58,6.58,0,0,0,.44,1.69,6.39,6.39,0,0,0,.84,1.54,6.71,6.71,0,0,0-.43-1.71Zm-38-16.26a6.87,6.87,0,0,0-1.53.83,7.23,7.23,0,0,0,3.22-1.27,6.09,6.09,0,0,0-1.68.42Zm24.64,29.48a6,6,0,0,0-1.53.83,7.23,7.23,0,0,0,3.22-1.27,6.09,6.09,0,0,0-1.68.42Zm20.57-17.21a5.39,5.39,0,0,0-.5.33,5.34,5.34,0,0,0,1.31-.32ZM111.58,225.5a6,6,0,0,0-1.53.83,6.58,6.58,0,0,0,1.69-.44,6.87,6.87,0,0,0,1.53-.83A5.86,5.86,0,0,0,111.58,225.5ZM98.64,191a6.61,6.61,0,0,0-1.68-.49,7.37,7.37,0,0,0,3.18,1.38A6.67,6.67,0,0,0,98.64,191Zm48.56,37.84a6.42,6.42,0,0,0-1.67-.49,7.25,7.25,0,0,0,3.18,1.38,6.42,6.42,0,0,0-1.51-.9Zm-16.51-11.25a6.06,6.06,0,0,0-1.67-.49,7.37,7.37,0,0,0,3.18,1.38,6.42,6.42,0,0,0-1.51-.9Zm-20.51-3a6.63,6.63,0,0,0-1.68-.5A6.74,6.74,0,0,0,110,215a6.42,6.42,0,0,0,1.67.49,6.7,6.7,0,0,0-1.5-.84ZM117.86,234a6.44,6.44,0,0,0-1.67-.5,4,4,0,0,0,.85.56h0l1.75.43A8.25,8.25,0,0,0,117.86,234Zm3.42-20.71a6.63,6.63,0,0,0-.5,1.68,6.74,6.74,0,0,0,.89-1.51,6.42,6.42,0,0,0,.49-1.67,6.11,6.11,0,0,0-.92,1.53Zm15.34,12.29a6.44,6.44,0,0,0-.5,1.67,7,7,0,0,0,1.38-3.18,6.35,6.35,0,0,0-.92,1.54Z" transform="translate(0.28 -6.07)"></path><path class="cls-7" d="M143.4,238c1.44-7.73,2.45-15.21,3.49-23.3,0-.08-.11-.1-.12,0-1.6,7.72-2.63,15.53-3.52,23.3C143.24,238.07,143.38,238.08,143.4,238Z" transform="translate(0.28 -6.07)"></path><path class="cls-7" d="M139.93,238.82c-10.32-1.82-26.07-4.93-29.14-6.82-4.63-2.85-12.2-24.64-14.69-35.5-1.86-8.14.62-11.16,4.76-9.78Z" transform="translate(0.28 -6.07)"></path><path class="cls-6" d="M116.86,245.53S97.47,250.12,60.73,247c0,0,14.37-45.85,25.94-58.21,5.26-5.63,10.41-4.77,14.77-1.15,1.08.9,14.57,18,15.71,24,1,5.27-3.27,11.12-3.27,11.12Z" transform="translate(0.28 -6.07)"></path><path class="cls-3" d="M79.63,225.67a6.63,6.63,0,0,1,.88-1.5,6.42,6.42,0,0,1-.49,1.67,6.7,6.7,0,0,1-.88,1.51A6.49,6.49,0,0,1,79.63,225.67Zm15.32-18a7.25,7.25,0,0,0,1.38-3.18,6.74,6.74,0,0,0-.89,1.51,6.29,6.29,0,0,0-.49,1.69ZM66.64,245.11A7,7,0,0,0,68,241.93a6.34,6.34,0,0,0-.88,1.51,6.7,6.7,0,0,0-.5,1.69ZM101.77,232a6.34,6.34,0,0,0,.88-1.51,6.44,6.44,0,0,0,.5-1.67,7.27,7.27,0,0,0-1.38,3.18ZM90.29,189a7,7,0,0,0,1.38-3.18A7.37,7.37,0,0,0,90.29,189Zm2.93,35.71A7.25,7.25,0,0,0,90,223.33a6.74,6.74,0,0,0,1.51.89,6.48,6.48,0,0,0,1.67.52Zm18.46-9.23a7.25,7.25,0,0,0-3.18-1.38A6.74,6.74,0,0,0,110,215a6.48,6.48,0,0,0,1.67.52Zm-11.54-23.63A7,7,0,0,0,97,190.47,7.37,7.37,0,0,0,100.14,191.85Zm.88,51.61a7,7,0,0,0-3.18-1.38A7.37,7.37,0,0,0,101,243.46ZM79.43,202.61a6.79,6.79,0,0,0-1.32-.43.19.19,0,0,1-.07.14,6.92,6.92,0,0,0,1.22.68,6.63,6.63,0,0,0,1.68.5,6.63,6.63,0,0,0-1.51-.86Zm-1.75,35.91a6.28,6.28,0,0,0-1.5-.88,6.12,6.12,0,0,0-1.68-.49A6.7,6.7,0,0,0,76,238a6.11,6.11,0,0,0,1.67.52Zm9.09-4.33A7.31,7.31,0,0,0,90,232.92a6.58,6.58,0,0,0-1.69.44,6.83,6.83,0,0,0-1.54.86Zm23.28-7.89a6.58,6.58,0,0,0,1.69-.44,6.87,6.87,0,0,0,1.53-.83,5.86,5.86,0,0,0-1.69.44,6.07,6.07,0,0,0-1.53.86ZM84.37,213a6.58,6.58,0,0,0,1.69-.44,6.39,6.39,0,0,0,1.54-.84A7.17,7.17,0,0,0,84.37,213Zm17.69-10.68a7.23,7.23,0,0,0,3.22-1.27,6.58,6.58,0,0,0-1.69.44,6.69,6.69,0,0,0-1.53.78Zm-34.74,28a6.58,6.58,0,0,0,1.69-.44,6.87,6.87,0,0,0,1.53-.83,5.86,5.86,0,0,0-1.69.44,6.79,6.79,0,0,0-1.53.81Zm6.32-16.54a6.58,6.58,0,0,0,.44,1.69,6.33,6.33,0,0,0,.84,1.53A7,7,0,0,0,73.64,213.78Zm26.06,2.4a6.58,6.58,0,0,0,.44,1.69,6.39,6.39,0,0,0,.84,1.54,7.37,7.37,0,0,0-1.28-3.25Zm9.82,22.61a7.31,7.31,0,0,0,1.27,3.23,6.58,6.58,0,0,0-.44-1.69,7.08,7.08,0,0,0-.83-1.56Zm-25.14,3.67a6.58,6.58,0,0,0,.44,1.69,6.39,6.39,0,0,0,.84,1.54,7.37,7.37,0,0,0-1.28-3.25ZM87,195.15a6.58,6.58,0,0,0,.44,1.69,6.87,6.87,0,0,0,.83,1.53,6.58,6.58,0,0,0-.44-1.69,7,7,0,0,0-.83-1.55Zm25,8.9a6.58,6.58,0,0,0,.44,1.69,6.87,6.87,0,0,0,.83,1.53,6.58,6.58,0,0,0-.44-1.69A6.85,6.85,0,0,0,112,204Z" transform="translate(0.28 -6.07)"></path><path class="cls-17" d="M92.94,186.48c0,1,3.52,8.18,8,8.8,1.46.19,2.89-7.73,2.89-7.73l.24-.56,3.35-7.85-8.48-8-1.24-1.07s-.78,2.21-1.71,5l-.14.39c0,.16-.11.3-.16.45-.14.41-.29.83-.42,1.25s-.21.63-.31,1l-.32,1A55.5,55.5,0,0,0,92.94,186.48Z" transform="translate(0.28 -6.07)"></path><path class="cls-7" d="M96,175.08A17.13,17.13,0,0,0,104.08,187l3.35-7.85-8.48-8-1.24-1.07S96.93,172.32,96,175.08Z" transform="translate(0.28 -6.07)"></path><path class="cls-17" d="M120,161.9c4,14.44-4.23,18.45-7.34,19.31-2.83.77-12.56,3-18-10.9s0-20.37,6.39-22.49S116,147.46,120,161.9Z" transform="translate(0.28 -6.07)"></path><path class="cls-7" d="M117.24,160h-1a1.7,1.7,0,0,1-1.06-.16.54.54,0,0,1-.16-.64,1.3,1.3,0,0,1,1.19-.61,1.92,1.92,0,0,1,1.35.37.57.57,0,0,1-.32,1Z" transform="translate(0.28 -6.07)"></path><path class="cls-7" d="M107.28,162.44a8,8,0,0,0,.93-.45,1.67,1.67,0,0,0,.85-.65.53.53,0,0,0-.16-.63,1.32,1.32,0,0,0-1.33,0,1.88,1.88,0,0,0-1,1,.58.58,0,0,0,.35.73A.56.56,0,0,0,107.28,162.44Z" transform="translate(0.28 -6.07)"></path><path class="cls-7" d="M110.47,165.43s-.06.07,0,.11c.31,1,.49,2.14-.31,2.71v.05C111.18,167.85,110.92,166.3,110.47,165.43Z" transform="translate(0.28 -6.07)"></path><path class="cls-7" d="M109.31,164.64c-1.61.32-.86,3.53.64,3.23S110.67,164.38,109.31,164.64Z" transform="translate(0.28 -6.07)"></path><path class="cls-7" d="M108.72,165c-.23.25-.43.63-.76.75s-.76-.14-1.09-.4v.05c.14.61.52,1.19,1.2,1.12s.93-.7.94-1.35C109,165,108.86,164.86,108.72,165Z" transform="translate(0.28 -6.07)"></path><path class="cls-7" d="M115.94,163.92s.09,0,.1.07c.2,1,.59,2.12,1.56,2.24v.06C116.47,166.39,116,164.9,115.94,163.92Z" transform="translate(0.28 -6.07)"></path><path class="cls-7" d="M116.6,162.68c1.57-.48,2.42,2.7,1,3.15S115.28,163.09,116.6,162.68Z" transform="translate(0.28 -6.07)"></path><path class="cls-7" d="M117.32,162.71c.29.1.62.34.93.28s.52-.48.65-.87H119c.18.6.15,1.29-.4,1.56s-1-.16-1.35-.73C117.16,162.87,117.2,162.67,117.32,162.71Z" transform="translate(0.28 -6.07)"></path><path class="cls-7" d="M112.28,173.6a1.53,1.53,0,0,0,1,.43,2.66,2.66,0,0,0,1-.45h0a1.37,1.37,0,0,1-1.17.79,1.1,1.1,0,0,1-1-.74S112.24,173.58,112.28,173.6Z" transform="translate(0.28 -6.07)"></path><path class="cls-7" d="M115.53,169s.57,1.43.74,2.13c0,.06-.14.14-.38.21h0a3.4,3.4,0,0,1-3.53-.44.07.07,0,0,1,.08-.12,5.14,5.14,0,0,0,3.24.12c0-.21-1.06-2.41-1-2.45a5.91,5.91,0,0,1,1.68,0c-1.11-3-2.68-5.82-3.73-8.83a.1.1,0,0,1,.17-.09,52.13,52.13,0,0,1,4.42,9.34C117.4,169.22,115.86,169.05,115.53,169Z" transform="translate(0.28 -6.07)"></path><path class="cls-7" d="M96,171.13c1.53-.58,4.23-6.13,2-13.67,0,0,1.54,6.91,1.35,8.06s1.5-3.12-.22-9.23a25.42,25.42,0,0,0,7.23,1.27c3.1-.1,4.84-.68,5-.95s-4.48-.27-6-1.22c0,0,8.71,1.14,12.3.31.42-.1-1.72-8.59-8.25-10.42s-14,4.72-15.55,7.64c0,0-2.59,1.23-4.28,6.17S94.36,171.76,96,171.13Z" transform="translate(0.28 -6.07)"></path><path class="cls-6" d="M108.91,171a4.7,4.7,0,1,1,3.72-6.42h0A4.71,4.71,0,0,1,110,170.7,4.39,4.39,0,0,1,108.91,171Zm-1.18-8.7a4.35,4.35,0,0,0-1,.27,4,4,0,1,0,1-.27Z" transform="translate(0.28 -6.07)"></path><path class="cls-6" d="M119.34,168.21c-1.78.25-3.65-1.36-4.26-3.73a5.69,5.69,0,0,1,.14-3.44,2.93,2.93,0,0,1,3.67-1.95,2.77,2.77,0,0,1,1.19.7,5.65,5.65,0,0,1,1.78,2.94c.65,2.51-.35,4.94-2.22,5.42Zm-1.65-8.6h-.23a2.5,2.5,0,0,0-1.65,1.62,5,5,0,0,0-.12,3c.56,2.17,2.26,3.62,3.8,3.23s2.32-2.49,1.76-4.66a5,5,0,0,0-1.57-2.61A2.52,2.52,0,0,0,117.69,159.61Z" transform="translate(0.28 -6.07)"></path><path class="cls-6" d="M112.62,165.1l-.52-.36c.54-.76,1.94-2,3.36-1.05l-.34.53C113.86,163.41,112.67,165,112.62,165.1Z" transform="translate(0.28 -6.07)"></path><path class="cls-6" d="M92.63,171.5l-.61-.14c.07-.29.68-2.81,2-3.38s9.57-1.87,9.93-1.92l.1.62c-2.4.38-8.84,1.46-9.78,1.88S92.79,170.81,92.63,171.5Z" transform="translate(0.28 -6.07)"></path><path class="cls-17" d="M96.06,175.64a3.49,3.49,0,0,0,.72.05,2.38,2.38,0,0,0,.7-.11,2.08,2.08,0,0,0,.8-.43,2.38,2.38,0,0,0,.47-.53,2.87,2.87,0,0,0,.41-.93l-1.54-3.79s-4.07-4-5.94-2.47S93.45,175.18,96.06,175.64Z" transform="translate(0.28 -6.07)"></path><path class="cls-7" d="M92.77,169.25a6.43,6.43,0,0,1,4,3.34,1.41,1.41,0,0,0-2-.14l-.14.14s0,.11.06.09a1.56,1.56,0,0,1,1.79.22,8.21,8.21,0,0,1,1.06,1.22c.11.14.37,0,.28-.16h0c-.4-2.24-2.67-5-5.06-4.78Z" transform="translate(0.28 -6.07)"></path><path class="cls-3" d="M96.15,175a.7.7,0,1,0,1.35-.37.47.47,0,0,0-.06-.15.7.7,0,0,0-1.29.52Z" transform="translate(0.28 -6.07)"></path><path class="cls-3" d="M94.56,174.21a.49.49,0,0,0,.91-.37.47.47,0,0,0-.62-.27h0a.49.49,0,0,0-.28.63Z" transform="translate(0.28 -6.07)"></path><path class="cls-17" d="M85.22,199.72c3.49,18.49,12,46.92,20.75,45.56C120.43,243.06,146.46,222,152.2,217c2.48-2.17-9.07-21.32-12.59-21.54s-28.28,24.48-30,23.23c-1-.7-6.87-9.78-14.25-21C86.8,184.78,84.23,194.43,85.22,199.72Z" transform="translate(0.28 -6.07)"></path><path class="cls-1" d="M180,154.45c0,23-5.44,26.32-14.09,26.32-8.34,0-14-3.35-14-26.32Z" transform="translate(0.28 -6.07)"></path><rect class="cls-1" x="165.02" y="170.2" width="2.33" height="28.27"></rect><polygon class="cls-1" points="179.12 200.78 153.25 200.78 166.19 197.91 179.12 200.78"></polygon><path class="cls-6" d="M165.91,178.15c-5.18,0-10.06-1.73-11.2-15.58,0,0,1.87,3.48,4.55,4.35s11.1-4.35,17.78-4.35C177,162.57,178,178.15,165.91,178.15Z" transform="translate(0.28 -6.07)"></path><path class="cls-17" d="M134.48,198.53s6.64-7.51,11.2-12.22c2.55-2.63,7.33-6.75,10.08-7.82,4.12-1.61,22.39-5.69,23.48-1.28,1,4-15.16,5.5-15.16,5.5s16.15-3,16.45,2S162.37,189,162.37,189s16.66-2.68,16.15,2.55c-.38,4-17.14,4.25-17.14,4.25s14.33-2.2,14.11,1.88c-.24,4.5-15.69,5.75-15.69,5.75-2.31,10.27-7.61,14.22-11.71,16.58C147.09,220.66,134.48,198.53,134.48,198.53Z" transform="translate(0.28 -6.07)"></path><path class="cls-7" d="M158.43,183.38c1.88-.41,3.79-.85,5.7-1.1s3.84-.43,5.77-.5a31.77,31.77,0,0,1,7.54.45c-4.47-.45-11.34.33-13.26.58s-3.83.4-5.74.65Z" transform="translate(0.28 -6.07)"></path><path class="cls-7" d="M159.2,190.31c2.43-.43,4.83-.94,7.28-1.26s4.77-.41,7.22-.57c.19,0,.14.1,0,.12-2.45.25-4.69.67-7.13.94s-4.89.47-7.31.83C159.17,190.38,159.16,190.32,159.2,190.31Z" transform="translate(0.28 -6.07)"></path><path class="cls-7" d="M158.79,196.38a55.44,55.44,0,0,1,11.28-1.08c.18,0,.1.12-.1.14-3.75.29-6.7.49-11.15,1.07C158.75,196.52,158.72,196.4,158.79,196.38Z" transform="translate(0.28 -6.07)"></path><path class="cls-6" d="M132.86,198.35l17.36,24.29s-38.1,28.1-46.55,23S86.8,222.39,84.38,204.51,89,187.2,97,199.37s12.74,18.76,13.52,18.38S132.86,198.35,132.86,198.35Z" transform="translate(0.28 -6.07)"></path><path class="cls-3" d="M95.44,206a6.42,6.42,0,0,0-.49,1.67,7.25,7.25,0,0,0,1.38-3.18A6.74,6.74,0,0,0,95.44,206Zm6.83,24.31a6.51,6.51,0,0,0-.5,1.68,6.34,6.34,0,0,0,.88-1.51,6.44,6.44,0,0,0,.5-1.67,6.22,6.22,0,0,0-.88,1.52Zm34.31-4.72a6.44,6.44,0,0,0-.5,1.67,7,7,0,0,0,1.38-3.18,6.47,6.47,0,0,0-.88,1.53ZM121.24,213.3a6.63,6.63,0,0,0-.5,1.68,6.74,6.74,0,0,0,.89-1.51,6.42,6.42,0,0,0,.49-1.67,6.22,6.22,0,0,0-.88,1.52Zm17.41-4.12a6.51,6.51,0,0,0-.5,1.68,6.34,6.34,0,0,0,.88-1.51,6.51,6.51,0,0,0,.5-1.68,6.47,6.47,0,0,0-.88,1.53ZM91.72,223.84a6.63,6.63,0,0,0-1.68-.5,6.74,6.74,0,0,0,1.51.89,6.42,6.42,0,0,0,1.67.49,6.56,6.56,0,0,0-1.5-.86ZM117.86,234a6.44,6.44,0,0,0-1.67-.5,6.06,6.06,0,0,0,1.51.89,6.42,6.42,0,0,0,1.67.49A6.34,6.34,0,0,0,117.86,234Zm12.87-16.45a6.06,6.06,0,0,0-1.67-.49,7.37,7.37,0,0,0,3.18,1.38,6.19,6.19,0,0,0-1.55-.86ZM100.38,243l.42.41H101A5.35,5.35,0,0,0,100.38,243Zm11.2-17.54a6,6,0,0,0-1.53.83,6.58,6.58,0,0,0,1.69-.44,6.87,6.87,0,0,0,1.53-.83,6.27,6.27,0,0,0-1.69.48Zm18.28-18.4a6,6,0,0,0-1.53.83,6.58,6.58,0,0,0,1.69-.44,6.87,6.87,0,0,0,1.53-.83A5.86,5.86,0,0,0,129.86,207.06Zm-1.61,23.86a6,6,0,0,0-1.53.83,7.23,7.23,0,0,0,3.22-1.27,6,6,0,0,0-1.71.44ZM85.93,212.11l-.14.06.09.41.2-.07a6.39,6.39,0,0,0,1.54-.84,6.72,6.72,0,0,0-1.71.44Zm14.63,5.59a6.39,6.39,0,0,0-.84-1.54,6.58,6.58,0,0,0,.44,1.69,6.39,6.39,0,0,0,.84,1.54,6.62,6.62,0,0,0-.46-1.69Zm41.1,0a6.39,6.39,0,0,0-.84-1.54,6.58,6.58,0,0,0,.44,1.69,6.39,6.39,0,0,0,.84,1.54,6.62,6.62,0,0,0-.46-1.69Zm-31.29,22.61a6.94,6.94,0,0,0-.83-1.54,7.31,7.31,0,0,0,1.27,3.23,6.23,6.23,0,0,0-.46-1.69ZM121.63,224a6.39,6.39,0,0,0-.84-1.54,6.58,6.58,0,0,0,.44,1.69,6.39,6.39,0,0,0,.84,1.54A6.58,6.58,0,0,0,121.63,224ZM87.86,196.66a6.87,6.87,0,0,0-.83-1.53,6.58,6.58,0,0,0,.44,1.69,6.87,6.87,0,0,0,.83,1.53A6.58,6.58,0,0,0,87.86,196.66Z" transform="translate(0.28 -6.07)"></path><path class="cls-7" d="M116.5,243.34c-1.58.52-3.78,1.34-5.68,1.79a12.7,12.7,0,0,1-6,.28c-3.36-.9-5.64-4.15-7.53-6.81-4.14-5.86-6.88-12.51-9.2-19.24-1.3-3.78-2.48-7.6-3.67-11.42,0-.05-.09,0-.08,0,.64,2.56,1.3,5.13,2,7.67a18.26,18.26,0,0,1-1.33-3s0-.08,0-.09a.06.06,0,0,0-.09,0,0,0,0,0,0,0,.05,14.73,14.73,0,0,0,1.65,3.69,95.57,95.57,0,0,0,4.65,13.12A59.12,59.12,0,0,0,96.55,239c1.87,2.68,4.14,5.83,7.42,6.9a11.69,11.69,0,0,0,6.29-.19,29.78,29.78,0,0,0,6.27-2.28C116.67,243.43,116.6,243.31,116.5,243.34Z" transform="translate(0.28 -6.07)"></path><path class="cls-7" d="M121.91,207.83c-2,1.69-4,3.37-6,5-1,.83-2,1.65-3,2.49l-1.48,1.27-.75.63c-.34.28-.48.22-.79-.06a49.5,49.5,0,0,1-4.42-5.48l-.18-.43c-.08-.22-.17-.43-.26-.64-.18-.42-.39-.83-.59-1.24-.43-.84-.89-1.67-1.33-2.5h0c.42.86.8,1.74,1.18,2.61.18.41.36.81.55,1.21l.22.41c-1.73-2.36-3.39-4.72-4.08-5.72a0,0,0,0,0-.07,0,0,0,0,0,0,0,.07h0c2.32,4.1,8.19,11.93,9,12.46s1.18-.16,1.67-.58c1.68-1.41,3.33-2.84,4.95-4.31,1.86-1.69,3.7-3.4,5.53-5.11A.08.08,0,0,0,121.91,207.83Z" transform="translate(0.28 -6.07)"></path><path class="cls-7" d="M144.13,224.62c-4.6-7.12-9.37-13.74-14.57-20.86a.07.07,0,0,0-.12.08c4.46,7.23,9.47,14.12,14.56,20.88a.08.08,0,0,0,.12,0,.08.08,0,0,0,0-.11Z" transform="translate(0.28 -6.07)"></path><path class="cls-7" d="M148.64,220.19c-.12-.11-.32-.13-.24,0,.53.86,1.25,1.61,1.79,2.46-3.25,2.18-6.4,4.51-9.63,6.7s-6.62,4.48-10,6.62a.09.09,0,0,0,0,.12.11.11,0,0,0,.12,0h0c3.49-2,6.94-4.08,10.3-6.32s6.83-4.57,9.9-7.06A16.71,16.71,0,0,0,148.64,220.19Z" transform="translate(0.28 -6.07)"></path></g><g id="freepik--Table--inject-106"><polygon class="cls-18" points="488.38 239.77 488.07 263.74 484.73 413.75 480.97 413.75 477.63 263.74 477.32 239.77 488.38 239.77"></polygon><polygon class="cls-7" points="488.38 239.77 488.07 263.74 477.63 263.74 477.32 239.77 488.38 239.77"></polygon><polygon class="cls-18" points="165.68 239.77 165.37 263.74 162.03 413.75 158.27 413.75 154.92 263.74 154.62 239.77 165.68 239.77"></polygon><polygon class="cls-7" points="154.62 239.77 165.68 239.77 165.37 263.74 154.92 263.74 154.62 239.77"></polygon><rect class="cls-18" x="130.89" y="229.85" width="382.5" height="15.57"></rect><polygon class="cls-1" points="180.55 229.85 463.73 229.85 322.14 272.06 180.55 229.85"></polygon></g><g id="freepik--Food--inject-106"><rect class="cls-4" x="247.73" y="190.56" width="2.16" height="3.53"></rect><rect class="cls-4" x="208.76" y="226.23" width="65.71" height="3.62"></rect><path class="cls-4" d="M271.39,232.3H211s12.29-30.79,36.39-33S271.39,232.3,271.39,232.3Z" transform="translate(0.28 -6.07)"></path><path class="cls-11" d="M271.39,232.29H211.05s.46-1.15,1.37-3l58.14-5.87A58.64,58.64,0,0,1,271.39,232.29Z" transform="translate(0.28 -6.07)"></path><ellipse class="cls-2" cx="233.73" cy="211.79" rx="11.07" ry="5.54" transform="translate(-81.4 206.93) rotate(-42.4)"></ellipse><path class="cls-10" d="M402.94,235.92H380.48c-1.06,0,0-37,0-40.74s8-15.86,8-18V156h6.42v21.2c0,2.14,8,14.23,8,18S404,235.92,402.94,235.92Z" transform="translate(0.28 -6.07)"></path><rect class="cls-6" x="380.3" y="205.38" width="23.39" height="16.95"></rect><rect class="cls-6" x="389.48" y="147.28" width="5.02" height="2.63"></rect><rect class="cls-19" x="389.48" y="147.28" width="5.02" height="2.63"></rect><polygon class="cls-1" points="439.84 227.93 423.17 227.93 422.17 196.78 440.84 196.78 439.84 227.93"></polygon><polygon class="cls-20" points="441.61 229.85 421.4 229.85 420.19 192.08 442.82 192.08 441.61 229.85"></polygon><polygon class="cls-1" points="212.63 227.93 195.97 227.93 194.97 196.78 213.64 196.78 212.63 227.93"></polygon><polygon class="cls-20" points="214.4 229.85 194.2 229.85 192.98 192.08 215.62 192.08 214.4 229.85"></polygon><rect class="cls-4" x="271.23" y="225.69" width="101.82" height="4.16"></rect><path class="cls-1" d="M349.86,194.5c2.65-2.09,3.91-3.31,4-4.11s-.85-3.28,1.74-3.58c2-.23,1.51,3.54,2.1,4,.75.56,3.48.33,3.85,2s-.64,2.53-4.17,2.32c-1.59-.09-4.88,3.87-4.88,3.87S348.11,195.9,349.86,194.5Z" transform="translate(0.28 -6.07)"></path><path class="cls-3" d="M362.63,202.77c-1.67-.29-5.66,3.52-5.66,3.52s-4.38-3.76-2.31-5l.12-.07.62-.39c2.58-1.62,3.85-2.66,4.06-3.42s-.16-3.63,2.64-3.63c2.15,0,.83,4,1.4,4.54.73.68,4.17.68,3.88,3.26C367.19,203.31,366.37,203.43,362.63,202.77Z" transform="translate(0.28 -6.07)"></path><path class="cls-6" d="M371.21,210.22c-2.13-1.69-9.92,2.2-11.76,2.16s-5.7-2.7-5.7-2.7a5.77,5.77,0,0,1,3.21-.87c3.45-.06,1.49-3.91,1.49-3.91l-.87.5a5.11,5.11,0,0,1-2.71-3.76,2.53,2.53,0,0,1,0-.55s-1.74-2.06-3.12-1.16a6.11,6.11,0,0,0-1.24,2.1h0l-.21.49a2.39,2.39,0,0,1-1.44,1.38s-.12-.21-.37-.59c-.38-.59-1.05-1.6-2.05-2.93-.6-.81-1.33-1.74-2.18-2.76a83.17,83.17,0,0,0-8.14-8.44c-1.76-1.6-3.72-3.25-5.89-4.91-5.11-3.91-13.84-4-22.13-1.85a51.83,51.83,0,0,0-8.19,2.83c-4.54,2-8.42,4.6-10.77,7.36C285,197.5,279,209,277.36,212.61s-5,3.94-5.84,7.69,4.12,10.73,6.15,11.42h86C371.44,225.19,374,212.41,371.21,210.22Z" transform="translate(0.28 -6.07)"></path><path class="cls-21" d="M321.27,181.71c-9.42-.73-13.61,4.16-14.34,7.93s3.09,10,9.71,12.62,19.11,4.47,21.58-.54S330.58,182.43,321.27,181.71Z" transform="translate(0.28 -6.07)"></path><path class="cls-9" d="M301.13,224.48a3.83,3.83,0,0,1-.59-3.34,3,3,0,0,1,1-1.47,10.92,10.92,0,0,1,1.49-.93A30.17,30.17,0,0,0,306,217.1a14,14,0,0,0,1.33-1,6.42,6.42,0,0,0,1.11-1.1,13.78,13.78,0,0,0,2.19-6.06,10.4,10.4,0,0,0,0-3.15,1.42,1.42,0,0,0-.19-.52h-.11c-.26.06-.52.34-.78.79a31.3,31.3,0,0,1-1.66,3,8.08,8.08,0,0,1-2.71,2.49,14.34,14.34,0,0,1-3.34,1.26c-1.13.29-2.27.48-3.4.66l-3.37.5c-.56.09-1.13.17-1.66.29a5.2,5.2,0,0,0-1.48.56,6.36,6.36,0,0,0-2.31,2.27,10.61,10.61,0,0,0-1.29,3.11,9.57,9.57,0,0,1,1-3.3,6.93,6.93,0,0,1,2.28-2.67,5.83,5.83,0,0,1,1.64-.76c.58-.17,1.13-.28,1.69-.41,1.12-.25,2.24-.45,3.35-.68a21.5,21.5,0,0,0,6.26-2,6.88,6.88,0,0,0,2.24-2.12,30.61,30.61,0,0,0,1.58-3,4.13,4.13,0,0,1,.61-.83,2.25,2.25,0,0,1,1.06-.62l.31-.05a1.24,1.24,0,0,1,.47,0,1.42,1.42,0,0,1,.7.51,2.71,2.71,0,0,1,.42,1.06,10.85,10.85,0,0,1-.07,3.64,17.51,17.51,0,0,1-.91,3.41,10.7,10.7,0,0,1-1.73,3.14,15.88,15.88,0,0,1-5.94,3.68c-1,.44-2.1.89-2.49,1.91A3.82,3.82,0,0,0,301.13,224.48Z" transform="translate(0.28 -6.07)"></path><path class="cls-9" d="M354,209.5c-1.09.77-2.13,1.6-3.15,2.45a14.73,14.73,0,0,0-2.7,2.82,6,6,0,0,0-.62,1.8c-.14.64-.27,1.3-.43,2a18.66,18.66,0,0,1-1.36,3.84,14.5,14.5,0,0,1-2.32,3.38,19.85,19.85,0,0,1-3.06,2.73,16.38,16.38,0,0,1-7.56,3.17,13.1,13.1,0,0,1-8.12-1.5,14.83,14.83,0,0,1-1.77-1.14,13.79,13.79,0,0,1-1.55-1.41,10.6,10.6,0,0,1-2.29-3.57,12.86,12.86,0,0,1-.83-4.11,10.77,10.77,0,0,1,.67-4.17,12.85,12.85,0,0,1,5.3-6.33h0l.15-.09h-.05a19.34,19.34,0,0,1,3-1.46,14.58,14.58,0,0,1,3.26-.76,30.91,30.91,0,0,1,6.52.27,30.9,30.9,0,0,0,3.18.23,8.9,8.9,0,0,0,3.07-.54c2-.7,3.56-2.34,5.54-3.21-1.9,1-3.32,2.74-5.38,3.6a9.35,9.35,0,0,1-3.21.75,25.31,25.31,0,0,1-3.26-.07,32,32,0,0,0-6.34,0,12.41,12.41,0,0,0-3,.79,18.09,18.09,0,0,0-2.76,1.44h-.05a11.69,11.69,0,0,0-4.67,5.77,10.54,10.54,0,0,0,.2,7.34,9.56,9.56,0,0,0,2,3.09,12.84,12.84,0,0,0,1.38,1.28,14.62,14.62,0,0,0,1.59,1,12,12,0,0,0,7.29,1.42,15.52,15.52,0,0,0,7.06-2.82,18.31,18.31,0,0,0,3-2.48,14.84,14.84,0,0,0,2.3-3.1,17.55,17.55,0,0,0,1.44-3.61l.53-1.92a6.6,6.6,0,0,1,.79-1.92,14.88,14.88,0,0,1,3-2.77Q352.35,210.52,354,209.5Z" transform="translate(0.28 -6.07)"></path><path class="cls-6" d="M355.41,200.58l-.63.39c-.39-.41-1.84-1.81-3-1a6.11,6.11,0,0,0-1.24,2.1h0a11.92,11.92,0,0,1-2,1.28A49,49,0,0,0,344.6,198a4.58,4.58,0,0,0,1.92-1.73c.65-1.51.1-1.92,1.31-3.1s3.11.56,3.11.56-1.21,3.52,3.09,3.84A2.9,2.9,0,0,1,355.41,200.58Z" transform="translate(0.28 -6.07)"></path><path class="cls-19" d="M355.41,200.58l-.63.39c-.39-.41-1.84-1.81-3-1a6.11,6.11,0,0,0-1.24,2.1h0a11.92,11.92,0,0,1-2,1.28A49,49,0,0,0,344.6,198a4.58,4.58,0,0,0,1.92-1.73c.65-1.51.1-1.92,1.31-3.1s3.11.56,3.11.56-1.21,3.52,3.09,3.84A2.9,2.9,0,0,1,355.41,200.58Z" transform="translate(0.28 -6.07)"></path><path class="cls-21" d="M332,209.06c2.89-.19,4.76,1.2,4.93,2.47s-1.13,3.4-4.47,3.5-5.61-1.2-5.26-3.25C327.16,211.78,327.49,209.35,332,209.06Z" transform="translate(0.28 -6.07)"></path><path class="cls-21" d="M362.23,212.68s3.95-1.6,4.58-1.37.17,2.48-1.71,2.66S361.55,213.48,362.23,212.68Z" transform="translate(0.28 -6.07)"></path><path class="cls-18" d="M264.23,216.1l3.34.43a13.18,13.18,0,0,1,0,2.35l-1.83-.25,1.73,1.06a7.78,7.78,0,0,1-.17.81,7.52,7.52,0,0,1-5.44,5.5s-4.72-2.07-3-9a12.84,12.84,0,0,1,1.5-3.44l2.35.6-1.44-2A28,28,0,0,1,265,207.9a30.83,30.83,0,0,1,2.21,6.53Z" transform="translate(0.28 -6.07)"></path><path class="cls-18" d="M278.17,235.37a30,30,0,0,1-7.51-.38h0l-.63-1.45-.65,1.16a11.2,11.2,0,0,1-3.7-1.65,7.51,7.51,0,0,1-3.24-7s3.48-3.54,9.12.17l-1.79,2.38,2.72-1.69A14.73,14.73,0,0,1,275,229.6l-1.67,1.68,2.29-.79c.19.28.37.57.53.84l-1.44.61,1.88.14h0A28.6,28.6,0,0,1,278.17,235.37Z" transform="translate(0.28 -6.07)"></path><path class="cls-18" d="M256.57,234.3a13,13,0,0,1-1.93.69l-1.7-1.65.46,1.93c-.44.08-.87.14-1.31.19h0l-1.15-3.12-.23,3.23a28.65,28.65,0,0,1-5.07-.2s2.59-5.75,6.4-8.66l2.72,2.61-1.54-3.39.6-.3a7.51,7.51,0,0,1,7.72.65S263,231.23,256.57,234.3Z" transform="translate(0.28 -6.07)"></path><path class="cls-6" d="M255.56,223.7a3.85,3.85,0,0,1,5.13-1.42,3.73,3.73,0,0,1,1.45,5A3.77,3.77,0,0,1,257,228.8l-.07,0A3.8,3.8,0,0,1,255.56,223.7Z" transform="translate(0.28 -6.07)"></path><path class="cls-22" d="M255.56,223.7a3.85,3.85,0,0,1,5.13-1.42,3.73,3.73,0,0,1,1.45,5A3.77,3.77,0,0,1,257,228.8l-.07,0A3.8,3.8,0,0,1,255.56,223.7Z" transform="translate(0.28 -6.07)"></path><path class="cls-21" d="M255.75,223.56a2.21,2.21,0,0,1,3-.82,2.15,2.15,0,0,1,.84,2.88,2.2,2.2,0,0,1-3,.88l0,0A2.22,2.22,0,0,1,255.75,223.56Z" transform="translate(0.28 -6.07)"></path><path class="cls-6" d="M262.86,221.83a3.85,3.85,0,0,1,5.31.25,3.7,3.7,0,0,1-.18,5.18,3.76,3.76,0,0,1-5.32-.14l-.06-.07A3.79,3.79,0,0,1,262.86,221.83Z" transform="translate(0.28 -6.07)"></path><path class="cls-9" d="M262.86,221.83a3.85,3.85,0,0,1,5.31.25,3.7,3.7,0,0,1-.18,5.18,3.76,3.76,0,0,1-5.32-.14l-.06-.07A3.79,3.79,0,0,1,262.86,221.83Z" transform="translate(0.28 -6.07)"></path><path class="cls-21" d="M263.13,221.75a2.23,2.23,0,0,1,3.07.15,2.15,2.15,0,0,1-.1,3,2.18,2.18,0,1,1-3-3.15Z" transform="translate(0.28 -6.07)"></path><path class="cls-6" d="M260.1,227.5a3.85,3.85,0,0,1,5.31.25,3.7,3.7,0,0,1-.18,5.18,3.76,3.76,0,0,1-5.32-.14l-.06-.07A3.79,3.79,0,0,1,260.1,227.5Z" transform="translate(0.28 -6.07)"></path><path class="cls-21" d="M260.33,227.42a2.23,2.23,0,0,1,3.07.15,2.15,2.15,0,0,1-.1,3,2.18,2.18,0,1,1-3-3.15Z" transform="translate(0.28 -6.07)"></path><path class="cls-18" d="M374.7,216.1l-3.34.43a15.36,15.36,0,0,0,0,2.35l1.84-.25-1.74,1.06a7.78,7.78,0,0,0,.17.81,7.53,7.53,0,0,0,5.43,5.54s4.72-2.07,3-9a12.7,12.7,0,0,0-1.5-3.44l-2.35.6,1.45-2a28.56,28.56,0,0,0-3.8-4.2,30.83,30.83,0,0,0-2.21,6.53Z" transform="translate(0.28 -6.07)"></path><path class="cls-18" d="M360.76,235.37a30,30,0,0,0,7.51-.38h0l.64-1.45.64,1.16a11.25,11.25,0,0,0,3.71-1.65,7.53,7.53,0,0,0,3.24-7s-3.49-3.54-9.13.17l1.79,2.38-2.72-1.69A15.06,15.06,0,0,0,364,229.6l1.67,1.68-2.29-.79c-.19.28-.36.57-.53.84l1.45.61-1.89.14h0A28.6,28.6,0,0,0,360.76,235.37Z" transform="translate(0.28 -6.07)"></path><path class="cls-18" d="M382.36,234.3a11.2,11.2,0,0,0,1.94.69l1.69-1.65-.46,1.93c.44.08.88.14,1.31.19h0l1.15-3.12.23,3.23a28.65,28.65,0,0,0,5.07-.2s-2.59-5.75-6.4-8.66l-2.72,2.61,1.54-3.39-.59-.3a7.53,7.53,0,0,0-7.73.65S376,231.23,382.36,234.3Z" transform="translate(0.28 -6.07)"></path><path class="cls-6" d="M383.37,223.7a3.85,3.85,0,0,0-5.13-1.42,3.73,3.73,0,1,0,3.66,6.5l.07,0A3.8,3.8,0,0,0,383.37,223.7Z" transform="translate(0.28 -6.07)"></path><path class="cls-22" d="M383.37,223.7a3.85,3.85,0,0,0-5.13-1.42,3.73,3.73,0,1,0,3.66,6.5l.07,0A3.8,3.8,0,0,0,383.37,223.7Z" transform="translate(0.28 -6.07)"></path><path class="cls-21" d="M383.18,223.56a2.21,2.21,0,0,0-3-.82,2.15,2.15,0,0,0-.84,2.88,2.2,2.2,0,0,0,3,.88l0,0A2.22,2.22,0,0,0,383.18,223.56Z" transform="translate(0.28 -6.07)"></path><path class="cls-6" d="M376,221.83a3.85,3.85,0,0,0-5.31.25,3.7,3.7,0,0,0,.18,5.18,3.76,3.76,0,0,0,5.32-.14l.06-.07A3.79,3.79,0,0,0,376,221.83Z" transform="translate(0.28 -6.07)"></path><path class="cls-9" d="M376,221.83a3.85,3.85,0,0,0-5.31.25,3.7,3.7,0,0,0,.18,5.18,3.76,3.76,0,0,0,5.32-.14l.06-.07A3.79,3.79,0,0,0,376,221.83Z" transform="translate(0.28 -6.07)"></path><path class="cls-21" d="M375.8,221.75a2.23,2.23,0,0,0-3.07.15,2.15,2.15,0,0,0,.1,3,2.18,2.18,0,1,0,3-3.15Z" transform="translate(0.28 -6.07)"></path><path class="cls-6" d="M378.86,227.5a3.85,3.85,0,0,0-5.31.25,3.7,3.7,0,0,0,.18,5.18,3.74,3.74,0,0,0,5.41-5.17A3.45,3.45,0,0,0,378.86,227.5Z" transform="translate(0.28 -6.07)"></path><path class="cls-21" d="M378.61,227.42a2.25,2.25,0,0,0-3.08.15,2.16,2.16,0,0,0,3.19,2.91l0,0A2.22,2.22,0,0,0,378.61,227.42Z" transform="translate(0.28 -6.07)"></path><polygon class="cls-6" points="198.71 224.92 194.27 228.85 156.88 228.85 152.44 224.92 198.71 224.92"></polygon><rect class="cls-6" x="156.88" y="228.85" width="37.28" height="1"></rect><rect class="cls-9" x="156.88" y="228.85" width="37.28" height="1"></rect><polygon class="cls-6" points="483.92 224.92 479.48 228.85 442.09 228.85 437.65 224.92 483.92 224.92"></polygon><rect class="cls-6" x="442.09" y="228.85" width="37.28" height="1"></rect><rect class="cls-9" x="442.09" y="228.85" width="37.28" height="1"></rect></g><g id="freepik--Candles--inject-106"><path class="cls-6" d="M236.53,171c-.29,3.18-2.51,3.7-2.51,3.7s-2.21-.52-2.5-3.7,2.5-6.89,2.5-6.89S236.86,167.82,236.53,171Z" transform="translate(0.28 -6.07)"></path><path class="cls-9" d="M236.53,171c-.29,3.18-2.51,3.7-2.51,3.7s-2.21-.52-2.5-3.7,2.5-6.89,2.5-6.89S236.86,167.82,236.53,171Z" transform="translate(0.28 -6.07)"></path><path class="cls-6" d="M235.75,172.15a1.86,1.86,0,1,1-3.45,0c-.2-2.19,1.72-4.75,1.72-4.75S236,170,235.75,172.15Z" transform="translate(0.28 -6.07)"></path><rect class="cls-11" x="234.05" y="168.46" width="0.51" height="2.79"></rect><polygon class="cls-1" points="237.67 215.53 230.94 215.53 231.13 170.46 237.47 170.46 237.67 215.53"></polygon><path class="cls-4" d="M231.65,177c.4.1.8.18,1.2.26a8.33,8.33,0,0,0,2.37.17,4.74,4.74,0,0,0,1.17-.39,2.83,2.83,0,0,1-1.14.85,3.2,3.2,0,0,1-1.23.18A4.16,4.16,0,0,1,231.65,177Z" transform="translate(0.28 -6.07)"></path><rect class="cls-6" x="222.48" y="215.53" width="23.65" height="1.79"></rect><rect class="cls-6" x="225.91" y="228.06" width="16.78" height="1.79"></rect><polygon class="cls-6" points="227.46 228.06 229.31 223.31 239.29 223.31 241.14 228.06 227.46 228.06"></polygon><polygon class="cls-6" points="244.25 217.31 239.29 223.31 229.31 223.31 224.35 217.31 244.25 217.31"></polygon><polygon class="cls-9" points="244.25 217.31 243.19 218.6 226.04 219.35 224.35 217.31 244.25 217.31"></polygon><polygon class="cls-6" points="241.14 228.07 227.47 228.07 227.82 227.15 229.31 223.31 239.28 223.31 240.56 226.58 241.14 228.07"></polygon><polygon class="cls-9" points="241.14 228.07 227.47 228.07 227.82 227.15 240.56 226.58 241.14 228.07"></polygon><path class="cls-9" d="M229,229.38c1.66-.11,3.33-.11,5-.13s3.32,0,5,.13c-1.67.1-3.33.11-5,.12S230.69,229.48,229,229.38Z" transform="translate(0.28 -6.07)"></path><path class="cls-6" d="M412.2,171c-.28,3.18-2.5,3.7-2.5,3.7s-2.21-.52-2.5-3.7,2.5-6.89,2.5-6.89S412.49,167.82,412.2,171Z" transform="translate(0.28 -6.07)"></path><path class="cls-9" d="M412.2,171c-.28,3.18-2.5,3.7-2.5,3.7s-2.21-.52-2.5-3.7,2.5-6.89,2.5-6.89S412.49,167.82,412.2,171Z" transform="translate(0.28 -6.07)"></path><path class="cls-6" d="M411.43,172.15a1.86,1.86,0,1,1-3.45,0c-.2-2.19,1.72-4.75,1.72-4.75S411.63,170,411.43,172.15Z" transform="translate(0.28 -6.07)"></path><rect class="cls-11" x="409.72" y="168.46" width="0.51" height="2.79"></rect><polygon class="cls-1" points="413.34 215.53 406.62 215.53 406.81 170.46 413.15 170.46 413.34 215.53"></polygon><path class="cls-4" d="M407.33,177c.4.1.8.18,1.2.26a7.8,7.8,0,0,0,1.18.17,5.82,5.82,0,0,0,1.18,0,4.81,4.81,0,0,0,1.18-.39,2.77,2.77,0,0,1-1.15.85,3.17,3.17,0,0,1-1.22.18A4.16,4.16,0,0,1,407.33,177Z" transform="translate(0.28 -6.07)"></path><rect class="cls-6" x="398.16" y="215.53" width="23.65" height="1.79"></rect><rect class="cls-6" x="401.59" y="228.06" width="16.78" height="1.79"></rect><polygon class="cls-6" points="403.14 228.06 404.99 223.31 414.97 223.31 416.82 228.06 403.14 228.06"></polygon><polygon class="cls-6" points="419.93 217.31 414.97 223.31 404.99 223.31 400.03 217.31 419.93 217.31"></polygon><polygon class="cls-9" points="419.93 217.31 418.86 218.6 401.72 219.35 400.02 217.31 419.93 217.31"></polygon><polygon class="cls-6" points="416.82 228.07 403.15 228.07 403.5 227.15 404.99 223.31 414.96 223.31 416.23 226.58 416.82 228.07"></polygon><polygon class="cls-9" points="416.82 228.07 403.15 228.07 403.5 227.15 416.23 226.58 416.82 228.07"></polygon><path class="cls-9" d="M404.71,229.38c1.66-.11,3.32-.11,5-.13s3.32,0,5,.13c-1.66.1-3.32.11-5,.12S406.37,229.48,404.71,229.38Z" transform="translate(0.28 -6.07)"></path></g></svg>