<svg xmlns="http://www.w3.org/2000/svg" id="Layer_1" data-name="Layer 1" viewBox="0 0 459.82 424.36"><defs><style>.cls-1{fill:#dbdbdb;}.cls-2{fill:#ebebeb;}.cls-3{fill:#40208b;}.cls-4{fill:#263238;}.cls-5{fill:#eb9481;}.cls-6{fill:#455a64;}.cls-7{fill:#fff;}.cls-8{fill:#dd6a57;}.cls-9{fill:#e10454;}.cls-10{fill:#ff99ba;}</style></defs><title>طراحی سایت رستوران و کافی شاپ</title><g id="freepik--background-complete--inject-148"><rect class="cls-1" x="25.95" y="61.98" width="195.92" height="138.96"></rect><polygon class="cls-1" points="25.95 200.94 25.95 232.63 57.48 200.94 25.95 200.94"></polygon><rect class="cls-2" x="237.95" y="137.44" width="195.92" height="138.96"></rect><polygon class="cls-2" points="433.87 276.39 433.87 308.08 402.34 276.39 433.87 276.39"></polygon><rect class="cls-2" x="18.64" y="264.39" width="26.48" height="11.19"></rect><rect class="cls-2" x="3.87" y="278.5" width="26.48" height="11.19"></rect><rect class="cls-2" x="33.41" y="278.5" width="26.48" height="11.19"></rect><rect class="cls-2" x="414.7" y="324.4" width="26.48" height="11.19"></rect><rect class="cls-2" x="414.7" y="39.67" width="26.48" height="11.19"></rect><rect class="cls-2" x="429.47" y="53.78" width="26.48" height="11.19"></rect><rect class="cls-2" x="3.87" y="39.68" width="26.48" height="11.19"></rect><rect class="cls-2" x="173.77" y="228.16" width="26.48" height="11.19"></rect><rect class="cls-2" x="188.54" y="214.05" width="26.48" height="11.19"></rect><rect class="cls-3" x="399.73" width="1" height="74.81"></rect><rect class="cls-3" x="394.04" y="67.82" width="12.38" height="13.4"></rect><path class="cls-3" d="M445.64,124H395c1-19.27,10.21-50.14,25.33-50.14S444.63,104.72,445.64,124Z" transform="translate(-20.09 -0.03)"></path><rect class="cls-3" x="335.42" width="1" height="74.81"></rect><rect class="cls-3" x="329.73" y="67.82" width="12.38" height="13.4"></rect><path class="cls-3" d="M381.33,124H330.68c1-19.27,10.21-50.14,25.33-50.14S380.32,104.72,381.33,124Z" transform="translate(-20.09 -0.03)"></path><rect class="cls-3" x="271.1" width="1" height="74.81"></rect><rect class="cls-3" x="265.42" y="67.82" width="12.38" height="13.4"></rect><path class="cls-3" d="M317,124H266.37c1-19.27,10.21-50.14,25.32-50.14S316,104.72,317,124Z" transform="translate(-20.09 -0.03)"></path></g><g id="freepik--Table--inject-148"><polygon class="cls-4" points="0 366.82 57.48 366.58 114.96 366.49 229.91 366.32 344.86 366.49 402.34 366.58 459.82 366.82 402.34 367.07 344.86 367.16 229.91 367.32 114.96 367.15 57.48 367.07 0 366.82"></polygon></g><g id="freepik--character-2--inject-148"><path class="cls-4" d="M311.07,291c9.52,12.35,26.69,17.56,41.83,19,15.43,1.49,32.88.66,47.12-5.87,6.24-2.85,12-7.12,15.8-12.8,4.07-6.09,4.75-12.61.82-18.58-3.16-4.81-10.31-8.41-10.18-12.72s3.85-7.59,5-11.7c1.94-7-1.79-12.45-6.67-17.21-11.56-11.29-7.83-25.56-14.7-39.36-3.91-7.84-15.22-22.44-36.56-16.66-8.12,2.21-13.87,9.2-17.4,16.51-4.14,8.61-1.8,20.19-6.79,28.43-4.27,7-10.2,8-14.3,15.36-1.78,3.2-2.71,7,.56,14.78,1.19,2.83,2.4,7.11,1.11,10.38-1.79,4.53-7.4,6.45-9.38,11.17C304.59,278.22,306.87,285.52,311.07,291Z" transform="translate(-20.09 -0.03)"></path><path class="cls-4" d="M411.05,293c7.29-.93,10.74-10.64,6.31-15.8-2.8-3.28-7.13-4.89-9.94-8.15-4.62-5.36-.18-9.92,2.58-15,6-10.91-1.43-18.63-9.31-25.74-6-5.4-7-11.4-7.18-19.07a.11.11,0,0,1,.21,0c.39,5.66,1,11.22,4.87,15.76,3.14,3.69,7.4,6.28,10.44,10.1,5.09,6.41,5.51,13.2,1.54,20.21-1.13,2-3.25,4.27-3.76,6.49-1.19,5.24,2.76,8.09,6.51,10.8,2.87,2.08,6.06,4.39,7.05,7.95,1.5,5.37-3.59,12.44-9.23,12.85C410.85,293.45,410.76,293,411.05,293Z" transform="translate(-20.09 -0.03)"></path><path class="cls-4" d="M406.93,298.25c4.53-2.51,9.44-4.76,12.2-9.3,4.09-6.73-.57-12-4.94-17-1.88-2.14-3.42-4.26-3.23-7.19.28-4.39,3.66-8,4.34-12.32,1.61-10.35-8.64-17-13.67-24.72-5.14-8-6.6-17.11-8.28-26.17a.16.16,0,0,1,.16-.16.15.15,0,0,1,.15.1C395.88,213.06,399,224,407,233.07c5.59,6.35,11.53,13.22,8.58,22.09-.73,2.18-2.11,4.14-2.79,6.32-1.34,4.33-.22,7.19,2.61,10.39s5.91,6.25,6.31,10.52c.78,8.3-7.78,13.53-14.46,16.52a.38.38,0,0,1-.47-.24A.37.37,0,0,1,406.93,298.25Z" transform="translate(-20.09 -0.03)"></path><path class="cls-4" d="M305.45,269.08c3.72-4.94,9.5-7.31,8.16-14.51-.93-5-3.58-9-2.45-14.19.93-4.31,3.83-7.61,7.23-10.39,4.32-3.53,9.06-6.36,12.25-11,3.48-5.08,5.12-11.09,6.81-16.89,0-.11.23-.06.21,0-1.81,7.9-4,16-10.22,21.79-3.25,3-7.18,5.29-10.4,8.35-5.79,5.51-5.86,11.68-3.54,18.75,1.06,3.24,2,6.5.43,9.76s-4.78,5.23-7.06,7.93c-9.68,11.5,4.57,26.57,16.54,28.93.54.1.46.92-.1.82-8.95-1.49-18.31-9.65-20.14-18.36A13.58,13.58,0,0,1,305.45,269.08Z" transform="translate(-20.09 -0.03)"></path><path class="cls-4" d="M305.74,275.33c.18-5.22,3.56-8.06,6.2-12.12,4.15-6.38.06-12.81-.33-19.63-.28-4.75,1.75-8.74,4.8-12.15,4.09-4.6,9.29-7.84,12.68-13.14a33.32,33.32,0,0,0,5.09-18.89c0-.12.19-.1.19,0a31.76,31.76,0,0,1-9,24.61c-4.1,4.17-9.59,7.53-11.94,13.19-2.48,6,.54,11.53,1.28,17.54A13,13,0,0,1,312,264.82c-1.66,2.22-3.68,4.23-4.63,6.92-1.28,3.64-.53,7.73.94,11.23,4.66,11.06,16.36,18.14,27.56,20.08.4.07.36.7,0,.64a39.31,39.31,0,0,1-25.5-15.48C307.65,284.52,305.58,280,305.74,275.33Z" transform="translate(-20.09 -0.03)"></path><path class="cls-5" d="M356.49,254.3c-5.49-1.32-16.81,13-26.78,34.76-16,34.85-24.43,77.79-24.43,77.79H357.4S370.69,257.69,356.49,254.3Z" transform="translate(-20.09 -0.03)"></path><rect class="cls-6" x="257.58" y="369.05" width="21.27" height="3.32"></rect><rect class="cls-4" x="257.58" y="369.05" width="21.27" height="2.19"></rect><path class="cls-6" d="M324.17,360.16a12,12,0,0,1-12,5.12,12.4,12.4,0,0,1-2.16-.62,16.21,16.21,0,0,1-3-1.58l2.71-4a9.62,9.62,0,0,0,1.59.91c5.07,2.29,8.27-1.7,8.9-2.61,2.92-4.1,4-13.45,1-17.05-.2-.27-1-.69-4.48,0-.63.14-1.35.3-2.16.52a8.1,8.1,0,0,1-1.94.42l-.09-2.4-.23-2.4a5.09,5.09,0,0,0,1-.27,31.73,31.73,0,0,1,4.84-1c2.52-.26,5.16,0,6.78,2C329.77,343.14,327.82,355,324.17,360.16Z" transform="translate(-20.09 -0.03)"></path><path class="cls-4" d="M309.74,359.07a9.62,9.62,0,0,0,1.59.91L310,364.66a16.21,16.21,0,0,1-3-1.58Z" transform="translate(-20.09 -0.03)"></path><path class="cls-4" d="M318.19,335.23l-1.43,5.13c-.63.14-1.35.3-2.16.52a8.1,8.1,0,0,1-1.94.42l-.09-2.4-.23-2.4a5.09,5.09,0,0,0,1-.27A32.11,32.11,0,0,1,318.19,335.23Z" transform="translate(-20.09 -0.03)"></path><path class="cls-6" d="M260,329s2.55,21.67,7,30.8,10.56,10.13,14.38,10.13h13.9c3.82,0,10-1,14.38-10.13s6.95-30.8,6.95-30.8Z" transform="translate(-20.09 -0.03)"></path><path class="cls-7" d="M264.17,343.15a1.36,1.36,0,1,1,1.36-1.36h0A1.36,1.36,0,0,1,264.17,343.15Zm0-2.47a1.11,1.11,0,1,0,1.11,1.11h0A1.11,1.11,0,0,0,264.17,340.68Z" transform="translate(-20.09 -0.03)"></path><path class="cls-7" d="M304.48,336.15a1.37,1.37,0,1,1,1.36-1.38v0A1.36,1.36,0,0,1,304.48,336.15Zm0-2.48a1.12,1.12,0,1,0,1.11,1.13h0a1.13,1.13,0,0,0-1.11-1.12Z" transform="translate(-20.09 -0.03)"></path><path class="cls-7" d="M302.47,356.12a1.37,1.37,0,1,1,1.36-1.38h0a1.36,1.36,0,0,1-1.35,1.37Zm0-2.48a1.12,1.12,0,1,0,1.11,1.13v0a1.11,1.11,0,0,0-1.11-1.11Z" transform="translate(-20.09 -0.03)"></path><path class="cls-7" d="M313.58,332.58a1.36,1.36,0,1,1,1.36-1.36h0A1.37,1.37,0,0,1,313.58,332.58Zm0-2.47a1.11,1.11,0,1,0,1.11,1.11h0A1.11,1.11,0,0,0,313.58,330.11Z" transform="translate(-20.09 -0.03)"></path><path class="cls-7" d="M294.61,341.06A1.36,1.36,0,1,1,296,339.7a1.36,1.36,0,0,1-1.39,1.36Zm0-2.47a1.11,1.11,0,1,0,1.11,1.11h0A1.13,1.13,0,0,0,294.61,338.59Z" transform="translate(-20.09 -0.03)"></path><path class="cls-7" d="M279.8,355.55a1.37,1.37,0,1,1,1.36-1.38v0A1.36,1.36,0,0,1,279.8,355.55Zm0-2.48a1.12,1.12,0,1,0,1.11,1.13h0a1.11,1.11,0,0,0-1.1-1.12Z" transform="translate(-20.09 -0.03)"></path><path class="cls-7" d="M288.85,332.58a1.36,1.36,0,1,1,1.36-1.36h0A1.36,1.36,0,0,1,288.85,332.58Zm0-2.47a1.11,1.11,0,1,0,1.11,1.11h0A1.11,1.11,0,0,0,288.85,330.11Z" transform="translate(-20.09 -0.03)"></path><path class="cls-7" d="M290.54,350.09a1.36,1.36,0,1,1,1.36-1.36h0A1.36,1.36,0,0,1,290.54,350.09Zm0-2.47a1.11,1.11,0,1,0,1.11,1.11h0A1.11,1.11,0,0,0,290.54,347.62Z" transform="translate(-20.09 -0.03)"></path><path class="cls-7" d="M304,366.39a1.37,1.37,0,1,1,.07,0Zm0-2.48a1.12,1.12,0,1,0,1.11,1.13h0A1.13,1.13,0,0,0,304,363.91Z" transform="translate(-20.09 -0.03)"></path><path class="cls-7" d="M270.92,334.62a1.36,1.36,0,1,1,1.37-1.36,1.36,1.36,0,0,1-1.37,1.36Zm0-2.47a1.11,1.11,0,1,0,1.12,1.11,1.11,1.11,0,0,0-1.12-1.11Z" transform="translate(-20.09 -0.03)"></path><path class="cls-7" d="M308.92,346.38a1.37,1.37,0,1,1,1.37-1.37h0a1.36,1.36,0,0,1-1.36,1.36Zm0-2.48a1.12,1.12,0,1,0,1.08,1.16V345A1.11,1.11,0,0,0,308.92,343.9Z" transform="translate(-20.09 -0.03)"></path><path class="cls-7" d="M281,342.3a1.36,1.36,0,1,1,1.36-1.36h0A1.36,1.36,0,0,1,281,342.3Zm0-2.47a1.11,1.11,0,1,0,1.11,1.11h0A1.11,1.11,0,0,0,281,339.83Z" transform="translate(-20.09 -0.03)"></path><path class="cls-7" d="M290.54,364.34A1.37,1.37,0,1,1,291.9,363v0A1.36,1.36,0,0,1,290.54,364.34Zm0-2.48a1.12,1.12,0,1,0,1.11,1.13v0A1.11,1.11,0,0,0,290.54,361.86Z" transform="translate(-20.09 -0.03)"></path><path class="cls-7" d="M279.08,369.26a1.37,1.37,0,1,1,1.36-1.38h0A1.38,1.38,0,0,1,279.08,369.26Zm0-2.48a1.12,1.12,0,1,0,1.11,1.13v0A1.13,1.13,0,0,0,279.08,366.78Z" transform="translate(-20.09 -0.03)"></path><path class="cls-7" d="M270.92,348.85a1.36,1.36,0,1,1,1.37-1.36,1.36,1.36,0,0,1-1.37,1.36Zm0-2.47a1.11,1.11,0,1,0,1.12,1.11,1.11,1.11,0,0,0-1.12-1.11Z" transform="translate(-20.09 -0.03)"></path><path class="cls-7" d="M269.69,361.14a1.36,1.36,0,1,1,1.36-1.36h0A1.36,1.36,0,0,1,269.69,361.14Zm0-2.47a1.11,1.11,0,1,0,1.11,1.11h0A1.11,1.11,0,0,0,269.69,358.67Z" transform="translate(-20.09 -0.03)"></path><path class="cls-5" d="M336.28,334.31l-.88,32.54H441.47s-19.92-85-49.75-110c-16.32-13.66-29-7.81-37.62,1.23-2.1,2.28-25.1,39.41-26.1,52.78C327.18,322.66,336.28,334.31,336.28,334.31Z" transform="translate(-20.09 -0.03)"></path><path class="cls-3" d="M336.28,334.31l-.88,32.54H441.46s-10-42.58-26.39-76.32c-2.2,4.16-7.81,12.68-16.85,12.74-12,.09-20.69-19.42-20.69-19.42s-15.72,9.76-25.67,8.21-9.47-14.92-9.47-14.92h0c-6.68,11.94-13.8,26.38-14.34,33.7C327.18,322.66,336.28,334.31,336.28,334.31Z" transform="translate(-20.09 -0.03)"></path><path class="cls-3" d="M377.48,287.62a55.51,55.51,0,0,1-.4-9.9,65.66,65.66,0,0,1,1.11-9.89,29.73,29.73,0,0,1,3.38-9.5,7.94,7.94,0,0,1,3.92-3.47,4.84,4.84,0,0,1,2.64-.13c.41.14.82.28,1.2.44l1.07.65-1.17-.37c-.4-.07-.79-.12-1.18-.17a4.33,4.33,0,0,0-2.18.48,7.34,7.34,0,0,0-2.94,3.34,26.07,26.07,0,0,0-1.66,4.44c-.45,1.53-.82,3.1-1.12,4.68s-.59,3.18-.83,4.79-.46,3.22-.69,4.84C378.23,281.09,377.82,284.34,377.48,287.62Z" transform="translate(-20.09 -0.03)"></path><path class="cls-3" d="M341.17,279.33a69.15,69.15,0,0,1,3.91-8.91,82.62,82.62,0,0,1,5-8.4c.93-1.34,1.89-2.66,2.92-3.94a40.91,40.91,0,0,1,3.35-3.62,18.6,18.6,0,0,1,4-3,5.74,5.74,0,0,1,4.86-.56,6,6,0,0,0-4.34,1.39,22.18,22.18,0,0,0-3.41,3.23,77.2,77.2,0,0,0-5.74,7.6c-1.82,2.63-3.53,5.34-5.27,8S343,276.64,341.17,279.33Z" transform="translate(-20.09 -0.03)"></path><path class="cls-4" d="M441.46,366.85H398.85l-.63-63.58c9-.06,14.65-8.58,16.85-12.74C431.48,324.27,441.46,366.85,441.46,366.85Z" transform="translate(-20.09 -0.03)"></path><path class="cls-5" d="M378.1,252.71c-.53,1.83-10,13.38-18.44,12.53-2.75-.28-1.89-15.35-1.89-15.35l-.19-1.12L354.93,233l18.93-10.77,2.73-1.42s.44,4.37.94,9.81c0,.25.05.5.07.77s.07.6.09.88c.09.82.17,1.65.24,2.47.05.63.1,1.24.13,1.91s.08,1.31.13,2A103.09,103.09,0,0,1,378.1,252.71Z" transform="translate(-20.09 -0.03)"></path><path class="cls-4" d="M377.53,230.61a32.11,32.11,0,0,1-19.95,18.16L354.93,233l18.93-10.77,2.73-1.42S377,225.17,377.53,230.61Z" transform="translate(-20.09 -0.03)"></path><path class="cls-5" d="M334.63,208.75c-2.47,28,14,32.6,20,33.13,5.47.47,24.17,1.4,29.52-26.16s-6.88-37.54-19.34-39.3S337.1,180.79,334.63,208.75Z" transform="translate(-20.09 -0.03)"></path><path class="cls-4" d="M339.26,203.63a17.58,17.58,0,0,0,1.91-.28,3.15,3.15,0,0,0,1.91-.65,1,1,0,0,0,.08-1.22,2.48,2.48,0,0,0-2.4-.73,3.62,3.62,0,0,0-2.36,1.13,1.07,1.07,0,0,0,.86,1.75Z" transform="translate(-20.09 -0.03)"></path><path class="cls-4" d="M358.6,205.49c-.65-.12-1.23-.34-1.86-.52a3.13,3.13,0,0,1-1.81-.9,1,1,0,0,1,.09-1.21,2.44,2.44,0,0,1,2.47-.42,3.55,3.55,0,0,1,2.19,1.43,1.06,1.06,0,0,1-.31,1.47A1.09,1.09,0,0,1,358.6,205.49Z" transform="translate(-20.09 -0.03)"></path><path class="cls-4" d="M354.41,212.32c0-.08.14.1.13.18-.23,1.9-.17,4.11,1.5,4.89v.11C353.93,217,353.89,214.08,354.41,212.32Z" transform="translate(-20.09 -0.03)"></path><path class="cls-4" d="M356.29,210.48c3.08,0,2.77,6.2-.08,6.16S353.7,210.44,356.29,210.48Z" transform="translate(-20.09 -0.03)"></path><path class="cls-4" d="M357.48,210.86c.52.38,1,1,1.66,1.12s1.35-.51,1.87-1.1c.06-.07.11,0,.1.07a2.23,2.23,0,0,1-1.83,2.49c-1.28.12-1.94-1-2.17-2.19C357.06,211,357.27,210.71,357.48,210.86Z" transform="translate(-20.09 -0.03)"></path><path class="cls-4" d="M342.49,210.85c0-.07-.15.09-.15.16,0,1.92-.36,4.1-2.12,4.67-.05,0-.05.11,0,.1C342.35,215.57,342.78,212.67,342.49,210.85Z" transform="translate(-20.09 -0.03)"></path><path class="cls-4" d="M340.87,208.79c-3.06-.37-3.56,5.79-.72,6.12S343.44,209.09,340.87,208.79Z" transform="translate(-20.09 -0.03)"></path><path class="cls-4" d="M339.56,209.09c-.52.28-1,.84-1.63.83s-1.12-.72-1.5-1.39c0-.07-.09,0-.1.06-.13,1.17.16,2.43,1.28,2.74s1.85-.65,2.22-1.8C339.9,209.32,339.76,209,339.56,209.09Z" transform="translate(-20.09 -0.03)"></path><path class="cls-4" d="M352.74,226.91c-.46.45-.92,1.06-1.61,1.12a5.19,5.19,0,0,1-2.05-.49.07.07,0,0,0-.09,0,.09.09,0,0,0,0,.07,2.6,2.6,0,0,0,2.43,1.05,2.06,2.06,0,0,0,1.51-1.69C353,226.89,352.81,226.85,352.74,226.91Z" transform="translate(-20.09 -0.03)"></path><path class="cls-4" d="M345.19,219.53s-.62,3.26-.7,4.61c0,.12,4.65.64,7.22-2.18.11-.12-.06-.28-.19-.2a9.59,9.59,0,0,1-5.9,1.45c-.08-.38,1.1-4.94.89-5a11.54,11.54,0,0,0-3.09.5c1-5.92,3-11.63,3.89-17.54a.17.17,0,0,0-.12-.22.18.18,0,0,0-.23.12c-2.47,5.83-3.79,12.62-5,18.71C341.81,220.56,344.64,219.72,345.19,219.53Z" transform="translate(-20.09 -0.03)"></path><path class="cls-4" d="M381.47,217.88c-6.81-.76-7.2-21.9-7.22-24.49-.08,1.63-.49,10.29-1.18,10.59a6.48,6.48,0,0,1-2.11-.57h0a20.18,20.18,0,0,0,0-3.11c0-.49-.26,1-.66,2.87l-1.24-.45a25.23,25.23,0,0,0-.15-6.61c-.14-.83-.64,2.82-1.66,6-4.62-1.63-11.29-3.81-17.64-4.51-1.7-.19-3.17-.28-4.47-.32.18-2.55.68-5.24.45-4.67a24.38,24.38,0,0,0-1.43,4.66h-2c.1-3.62,2.25-9.24,1.6-8.4a25.54,25.54,0,0,0-4.15,8.61c-2.49.28-3.21.71-3.23.07,0-1.16,2.14-11.14,10.56-17.93,9.14-7.39,26.32-8.12,35,5,0,0,7.51,5.75,8.13,14.16S385.41,218.32,381.47,217.88Z" transform="translate(-20.09 -0.03)"></path><path class="cls-5" d="M379.55,217.48s6.14-8.75,10.11-6.56-.66,14.88-5.33,16.61a4.75,4.75,0,0,1-6.27-2.38L378,225Z" transform="translate(-20.09 -0.03)"></path><path class="cls-4" d="M388.24,214.52a.07.07,0,0,1,0,.09l0,0c-3.28,1.32-5,4.35-6.22,7.5,1-1.21,2.3-1.87,3.92-.71.09.06,0,.19-.09.17a2.91,2.91,0,0,0-3.21,1,13.52,13.52,0,0,0-1.54,2.59c-.16.29-.69.14-.57-.2a.11.11,0,0,0,0-.08C380.51,220.77,383.76,214.94,388.24,214.52Z" transform="translate(-20.09 -0.03)"></path><path class="cls-5" d="M406.93,270.08c34.86,36.73,63.5,113.1,46.73,120.27-15.33,6.55-63.89.5-83.86-4.26-5.87-1.4,5.94-46.85,12.22-45.36,7.58,1.8,27,4.59,27.75,4.54,1.67-.12-17-53.52-22.68-73C379.17,245.06,393.84,256.28,406.93,270.08Z" transform="translate(-20.09 -0.03)"></path><path class="cls-5" d="M321.59,330.29c-2.71,4.2.6,8.18.6,8.18a10.64,10.64,0,0,0-5.11,5.14c-1.66,4.07,4,8.45,4,8.45a13.13,13.13,0,0,0-4.52,6.28c-1.2,4.05,3.87,9.29,3.87,9.29a11.49,11.49,0,0,0-.5,8c2.44,7,13.46,9.49,20.45,11.16s28.37-.16,32.48-.1L383.92,342s-29.22-16.38-37.71-17.17C339.05,324.12,324.62,325.57,321.59,330.29Z" transform="translate(-20.09 -0.03)"></path><path class="cls-4" d="M322.68,337.83c7.78-1.12,15.46.12,23.2.93a.13.13,0,0,1,0,.26c-7.69-.89-15.46-.24-23.17-.82a.19.19,0,0,1,0-.37Z" transform="translate(-20.09 -0.03)"></path><path class="cls-4" d="M321.36,351.51a20.82,20.82,0,0,1,5.34.45q2.81.44,5.61,1,5.61,1.05,11.15,2.39c.16,0,.14.3,0,.27-3.73-.7-7.46-1.34-11.21-1.87q-2.82-.4-5.64-.77a24.24,24.24,0,0,1-5.28-.92.28.28,0,0,1,0-.55Z" transform="translate(-20.09 -0.03)"></path><path class="cls-4" d="M320.58,367.66c1.53-.24,3.29.35,4.78.66,1.7.36,3.39.7,5.09,1,3.4.68,6.8,1.35,10.22,1.91.17,0,.14.29,0,.26-3.48-.54-7-1-10.44-1.62l-5.11-.88a13.29,13.29,0,0,1-4.55-1.21A.09.09,0,0,1,320.58,367.66Z" transform="translate(-20.09 -0.03)"></path><path class="cls-4" d="M331.32,325.84c-3.55.38-7.62,1.07-10,4a6.38,6.38,0,0,0-1.56,4.54,6.18,6.18,0,0,0,2.1,4h0a7.92,7.92,0,0,0-5.55,6.32,5.44,5.44,0,0,0,1.32,4.09,19.92,19.92,0,0,0,1.54,1.65c.54.54,1.11,1,1.65,1.47a16.24,16.24,0,0,0-1.71,1.5,12.19,12.19,0,0,0-1.62,1.82,8.36,8.36,0,0,0-1.63,4.51,8.06,8.06,0,0,0,1.52,4.51,9.34,9.34,0,0,0,3.17,3.32c.08,0,.16-.06.1-.12a13.12,13.12,0,0,1-2.58-3.39,8.5,8.5,0,0,1-1.23-4.45,8.68,8.68,0,0,1,1.55-4.13,21.38,21.38,0,0,1,1.38-1.9c.41-.5,1.48-1.52,1.38-1.59a22.68,22.68,0,0,1-1.52-1.78c-.39-.53-.79-1.11-1.15-1.69a5.39,5.39,0,0,1-.89-3.8,7,7,0,0,1,1.7-3.32c.85-1,1.92-1.71,2.81-2.64a.45.45,0,0,0,0-.34c-1.89-3.09-1.58-6,.56-8.17a13.21,13.21,0,0,1,3.73-2.59,32.36,32.36,0,0,1,4.89-1.66A.08.08,0,1,0,331.32,325.84Z" transform="translate(-20.09 -0.03)"></path><path class="cls-4" d="M399.84,311.74c-.52-2.05-1.1-4.08-1.7-6.12-1.2-4.09-2.44-8.19-4-12.17-.87-2.25-1.83-4.46-2.76-6.69h-.05c.85,2.82,1.63,5.66,2.48,8.48-.87-1.64-1.85-3.21-2.68-4.86,0-.09-.17,0-.13.08.86,1.71,1.56,3.49,2.37,5.22.46,1,1,1.94,1.49,2.88a1.1,1.1,0,0,0,.11.35c1.36,4,2.68,8.12,4.06,12.16.77,2.27,1.61,4.54,2.24,6.85a.08.08,0,0,0,.11,0,.07.07,0,0,0,0-.08C400.82,315.87,400.36,313.79,399.84,311.74Z" transform="translate(-20.09 -0.03)"></path><path class="cls-4" d="M439.24,358.54a47.76,47.76,0,0,0-7.06-4.81,54.77,54.77,0,0,0-7.55-3.86,93.28,93.28,0,0,0-26.07-6.28.08.08,0,0,0,0,.16h0c1.52.28,17.76,4.17,24.58,6.82a80.35,80.35,0,0,1,7.59,3.54c1.43.72,2.83,1.47,4.22,2.25s2.72,1.67,4.12,2.42a.15.15,0,0,0,.2-.08A.16.16,0,0,0,439.24,358.54Z" transform="translate(-20.09 -0.03)"></path></g><g id="freepik--character-1--inject-148"><path class="cls-8" d="M102.37,268.32c7.15,12.86,56.15,62,83.93,63.22,31.77,1.41,91.23-17.42,96.06-21.54,13.22-11.3-2.38-44.78-12.6-44.15-12.74.78-73.13,20.49-82.79,19.45-15.08-1.63-48.73-24-72.82-35.45C100.14,243.18,96.87,258.42,102.37,268.32Z" transform="translate(-20.09 -0.03)"></path><path class="cls-8" d="M277.16,312.44c2.84-1.25,25.27-9.09,34.84-18.73,5.07-5.1,17.43-20.71,14.71-24.18-2.49-3.17-6.92.28-6.92.28s5.4-7,1.9-11.41S311,260.23,311,260.23s5-7.63,1.22-11.73-10,3.33-10,3.33,4.92-6.76.36-8.82c-5.48-2.48-13.15,11-19.67,15.58-1.48,1-31.51,18.91-31.51,18.91Z" transform="translate(-20.09 -0.03)"></path><path class="cls-4" d="M301.92,251.77c-5.66,9.91-9.85,13.27-19.76,18.55-.2.1-.09.41.12.32,10.19-4.28,16.05-7.73,20.13-18.62C302.61,251.49,302.19,251.3,301.92,251.77Z" transform="translate(-20.09 -0.03)"></path><path class="cls-4" d="M310.69,260.13c-6.77,9.78-11.29,13.46-21.27,19.75-.14.09,0,.34.15.26,10.3-5.35,16.07-8.93,21.56-19.59C311.38,260.07,311,259.68,310.69,260.13Z" transform="translate(-20.09 -0.03)"></path><path class="cls-4" d="M319.3,270.1c-7.25,9-12,13.24-22.49,18.1a.22.22,0,0,0-.13.28.22.22,0,0,0,.28.12c11.17-3.92,17.16-9.18,22.59-18.25C319.92,269.73,319.75,269.53,319.3,270.1Z" transform="translate(-20.09 -0.03)"></path><path class="cls-8" d="M242.33,276s8.67-11.37,13.58-15.52,28.91-12.9,31.1-7.83c2.82,6.6-10,14.35-16.84,17.35,0,0,6.53,15.16-1.49,22.74S242.33,276,242.33,276Z" transform="translate(-20.09 -0.03)"></path><path class="cls-4" d="M287.19,254.75c-1.74,7.83-10.91,11.17-17.29,14.56a.67.67,0,0,0-.32.88.85.85,0,0,0,.14.19c2.31,6.54,3.68,16.43-.59,22.38a.17.17,0,0,0,.26.22h0c5.44-5.76,4.89-15.59,1.9-22.58,6.59-3.38,15.65-7.14,16-15.64Z" transform="translate(-20.09 -0.03)"></path><path class="cls-9" d="M102.21,272c5.48,8.18,49.84,56.6,79.06,60.62,19.7,2.71,53.76-1.19,66.64-4.05l-17.77-55.1s-30.32,11.17-42,10.23-58.22-28.83-75.48-35.25c-7.33-2.74-11.76-1-13.8,2.8C96.08,256.32,97.64,265.17,102.21,272Z" transform="translate(-20.09 -0.03)"></path><path class="cls-4" d="M238,327.51c-2.91-8.15-13.62-42-15.45-49.43-.13-.52.17-.73.37-.21,9.29,24.21,12.94,41.36,15.39,49.51C238.36,327.58,238.06,327.71,238,327.51Z" transform="translate(-20.09 -0.03)"></path><path class="cls-4" d="M161.44,313.86a15.83,15.83,0,0,0,2,7.94,14.22,14.22,0,0,0-.49-4.1A14.77,14.77,0,0,0,161.44,313.86Z" transform="translate(-20.09 -0.03)"></path><path class="cls-4" d="M192.63,285.3a15,15,0,0,0,.49,4.1,14.38,14.38,0,0,0,1.52,3.83,15.62,15.62,0,0,0-2-7.93Z" transform="translate(-20.09 -0.03)"></path><path class="cls-4" d="M142.92,269a16.07,16.07,0,0,0,2,7.94A16.07,16.07,0,0,0,142.92,269Z" transform="translate(-20.09 -0.03)"></path><path class="cls-4" d="M227.85,304.91a16.06,16.06,0,0,0,2,7.93A16.06,16.06,0,0,0,227.85,304.91Z" transform="translate(-20.09 -0.03)"></path><path class="cls-4" d="M184.75,325.91a15.82,15.82,0,0,0,7.93-2,14.21,14.21,0,0,0-4.1.48A15.08,15.08,0,0,0,184.75,325.91Z" transform="translate(-20.09 -0.03)"></path><path class="cls-4" d="M211,295.4a15,15,0,0,0,4.1-.49,14.38,14.38,0,0,0,3.83-1.52,15.62,15.62,0,0,0-7.93,2Z" transform="translate(-20.09 -0.03)"></path><path class="cls-4" d="M145.55,301.41a15.83,15.83,0,0,0,7.94-2,14.22,14.22,0,0,0-4.1.49A14.77,14.77,0,0,0,145.55,301.41Z" transform="translate(-20.09 -0.03)"></path><path class="cls-4" d="M98.59,255.63a15.86,15.86,0,0,0,7.94-2,14.21,14.21,0,0,0-4.1.48A15.15,15.15,0,0,0,98.59,255.63Z" transform="translate(-20.09 -0.03)"></path><path class="cls-4" d="M122.1,263.45a14.63,14.63,0,0,0-2.56,3.24,14.18,14.18,0,0,0-1.64,3.79,16,16,0,0,0,4.2-7Z" transform="translate(-20.09 -0.03)"></path><path class="cls-4" d="M220.2,321.88a14.88,14.88,0,0,0-2.55,3.25,14.18,14.18,0,0,0-1.64,3.79,15.87,15.87,0,0,0,4.19-7Z" transform="translate(-20.09 -0.03)"></path><path class="cls-4" d="M178.11,299.39a16,16,0,0,0-4.2,7,14.35,14.35,0,0,0,2.56-3.24A14.8,14.8,0,0,0,178.11,299.39Z" transform="translate(-20.09 -0.03)"></path><path class="cls-4" d="M133.16,293.08a14.63,14.63,0,0,0-3.24-2.56,14.18,14.18,0,0,0-3.79-1.64,16,16,0,0,0,7,4.2Z" transform="translate(-20.09 -0.03)"></path><path class="cls-4" d="M207.65,311a16,16,0,0,0-7-4.19,14.3,14.3,0,0,0,3.24,2.55A14.65,14.65,0,0,0,207.65,311Z" transform="translate(-20.09 -0.03)"></path><path class="cls-4" d="M164.94,287.39a16,16,0,0,0-7-4.19,14.3,14.3,0,0,0,3.24,2.55A15,15,0,0,0,164.94,287.39Z" transform="translate(-20.09 -0.03)"></path><path class="cls-9" d="M150,317.59c-22.56-16.16-44-40.1-47.76-45.63-4.57-6.79-6.13-15.64-3.38-20.75,2-3.8,6.47-5.54,13.8-2.8,1.48.55,3.17,1.26,5,2.09C125.45,267.13,139.28,295.65,150,317.59Z" transform="translate(-20.09 -0.03)"></path><path class="cls-9" d="M147.66,366.56l-108.59.29S51.4,286.4,91.28,248.09c4.93-4.74,16.51-4.18,24.19-.74,2.74,1.22,12.94,14.33,16.21,27S147.94,366.17,147.66,366.56Z" transform="translate(-20.09 -0.03)"></path><path class="cls-4" d="M110.19,281.67a16.07,16.07,0,0,0,2,7.94,14.22,14.22,0,0,0-.49-4.1A14.63,14.63,0,0,0,110.19,281.67Z" transform="translate(-20.09 -0.03)"></path><path class="cls-4" d="M107.2,328.12a16.07,16.07,0,0,0,2,7.94A16.07,16.07,0,0,0,107.2,328.12Z" transform="translate(-20.09 -0.03)"></path><path class="cls-4" d="M70.73,310.16a15.82,15.82,0,0,0,2,7.93,14.21,14.21,0,0,0-.48-4.1A15.08,15.08,0,0,0,70.73,310.16Z" transform="translate(-20.09 -0.03)"></path><path class="cls-4" d="M137.49,309.05a15.86,15.86,0,0,0,2,7.94,14.21,14.21,0,0,0-.48-4.1A15.15,15.15,0,0,0,137.49,309.05Z" transform="translate(-20.09 -0.03)"></path><path class="cls-4" d="M87.58,297.1a15,15,0,0,0,4.1-.49,14.32,14.32,0,0,0,3.84-1.52,15.83,15.83,0,0,0-7.94,2Z" transform="translate(-20.09 -0.03)"></path><path class="cls-4" d="M68.34,339.5a16.07,16.07,0,0,0,7.94-2,14.22,14.22,0,0,0-4.1.49A14.77,14.77,0,0,0,68.34,339.5Z" transform="translate(-20.09 -0.03)"></path><path class="cls-4" d="M118.22,356.66a15,15,0,0,0,4.1-.49,14.32,14.32,0,0,0,3.84-1.52,15.83,15.83,0,0,0-7.94,2Z" transform="translate(-20.09 -0.03)"></path><path class="cls-4" d="M67,363.88a14.57,14.57,0,0,0,4.1-.49,14.06,14.06,0,0,0,3.9-1.52,16.07,16.07,0,0,0-7.94,2Z" transform="translate(-20.09 -0.03)"></path><path class="cls-4" d="M98.48,253.54a15,15,0,0,0,4.1-.49,14.32,14.32,0,0,0,3.84-1.52,15.83,15.83,0,0,0-7.94,2Z" transform="translate(-20.09 -0.03)"></path><path class="cls-4" d="M86,262.18a15.89,15.89,0,0,0-4.2,7A16,16,0,0,0,86,262.18Z" transform="translate(-20.09 -0.03)"></path><path class="cls-4" d="M55.8,316.91a16,16,0,0,0-4.19,7,14.3,14.3,0,0,0,2.55-3.24A15,15,0,0,0,55.8,316.91Z" transform="translate(-20.09 -0.03)"></path><path class="cls-4" d="M121.13,306.91a16.17,16.17,0,0,0-4.19,7A16.17,16.17,0,0,0,121.13,306.91Z" transform="translate(-20.09 -0.03)"></path><path class="cls-4" d="M93.27,346.49a14.88,14.88,0,0,0-2.55,3.25,14.18,14.18,0,0,0-1.64,3.79,15.87,15.87,0,0,0,4.19-7Z" transform="translate(-20.09 -0.03)"></path><path class="cls-4" d="M124.47,264.13a15.78,15.78,0,0,0-4.19,7,14.3,14.3,0,0,0,2.55-3.24A14.8,14.8,0,0,0,124.47,264.13Z" transform="translate(-20.09 -0.03)"></path><path class="cls-4" d="M135.54,293.76a14.36,14.36,0,0,0-3.25-2.55,14.18,14.18,0,0,0-3.79-1.64,14.36,14.36,0,0,0,3.25,2.55A14.18,14.18,0,0,0,135.54,293.76Z" transform="translate(-20.09 -0.03)"></path><path class="cls-4" d="M54.3,350.29a14.92,14.92,0,0,0-3.25-2.56,13.84,13.84,0,0,0-3.79-1.63,16.17,16.17,0,0,0,7,4.19Z" transform="translate(-20.09 -0.03)"></path><path class="cls-4" d="M140.44,336.29a16,16,0,0,0-7-4.2,14.4,14.4,0,0,0,3.25,2.56A14.74,14.74,0,0,0,140.44,336.29Z" transform="translate(-20.09 -0.03)"></path><path class="cls-4" d="M75.44,290a14.92,14.92,0,0,0-3.25-2.56,14.18,14.18,0,0,0-3.79-1.64,16,16,0,0,0,7,4.2Z" transform="translate(-20.09 -0.03)"></path><path class="cls-4" d="M132.83,279.57a83.86,83.86,0,0,1,2.48,8.68v-.34c0-1.67-.08-3.37,0-5a.08.08,0,0,1,.16,0,25.24,25.24,0,0,1,.34,5.06c0,.8,0,1.6-.06,2.4.28,1.32.54,2.64.76,4,.42,2.51,1.65,11.85,1.79,13.71,0,.39-.41.47-.54.07-.58-1.87-2.32-11.48-2.85-13.95a133.94,133.94,0,0,1-2.3-14.51C132.63,279.48,132.8,279.47,132.83,279.57Z" transform="translate(-20.09 -0.03)"></path><path class="cls-8" d="M113.35,267.73c-6.59.9-16.71-10-20.31-18.44-.25-.58,1.15-6.27,2.52-13.26a134.11,134.11,0,0,0,2-13.39c.08-.9,3,1.05,3,1.05l5.54,1.92L124.48,232s-3.6,8.94-4.29,16.59a9.22,9.22,0,0,0,0,1.82v.31C120.45,254.17,119.73,266.85,113.35,267.73Z" transform="translate(-20.09 -0.03)"></path><path class="cls-4" d="M120.21,250.39v.31a19.23,19.23,0,0,1-2.84-.13c-18.49-2.2-18.53-26-18.53-26l7.29,1L124.48,232s-3.6,8.94-4.29,16.59A9.84,9.84,0,0,0,120.21,250.39Z" transform="translate(-20.09 -0.03)"></path><path class="cls-8" d="M95.49,188.62c-3.64,9.58-.4,38.19,6.13,45,9.47,9.81,25.92,11.81,34.5.21,8.32-11.24,3.43-48.44-4-54.69C121.29,169.89,100.88,174.48,95.49,188.62Z" transform="translate(-20.09 -0.03)"></path><path class="cls-4" d="M121.17,208.81c0-.07-.14.11-.13.19.27,1.92.26,4.17-1.42,5-.05,0,0,.13,0,.11C121.75,213.57,121.74,210.59,121.17,208.81Z" transform="translate(-20.09 -0.03)"></path><path class="cls-4" d="M119.23,207c-3.12.1-2.69,6.34.2,6.25S121.85,206.9,119.23,207Z" transform="translate(-20.09 -0.03)"></path><path class="cls-4" d="M133,207.73c0-.07.16.08.16.16.07,1.94.48,4.15,2.28,4.67v.11C133.29,212.52,132.78,209.58,133,207.73Z" transform="translate(-20.09 -0.03)"></path><path class="cls-4" d="M134.61,205.59c3.09-.45,3.77,5.77.9,6.19S132,206,134.61,205.59Z" transform="translate(-20.09 -0.03)"></path><path class="cls-4" d="M116.57,204.3a22.26,22.26,0,0,0,2.36-1,4.14,4.14,0,0,0,2.21-1.5,1.32,1.32,0,0,0-.33-1.58,3.27,3.27,0,0,0-3.32-.11,4.89,4.89,0,0,0-2.63,2.27,1.41,1.41,0,0,0,.71,1.86A1.44,1.44,0,0,0,116.57,204.3Z" transform="translate(-20.09 -0.03)"></path><path class="cls-4" d="M136.8,202.28a23.79,23.79,0,0,1-2.52-.47,4.16,4.16,0,0,1-2.49-1,1.32,1.32,0,0,1,0-1.62,3.24,3.24,0,0,1,3.21-.84,4.85,4.85,0,0,1,3,1.65,1.41,1.41,0,0,1-1.2,2.28Z" transform="translate(-20.09 -0.03)"></path><path class="cls-4" d="M120.73,226.25c.49.42,1,1,1.7,1a5.26,5.26,0,0,0,2-.63c.06,0,.13,0,.09.09a2.58,2.58,0,0,1-2.38,1.22,2,2,0,0,1-1.64-1.6A.15.15,0,0,1,120.73,226.25Z" transform="translate(-20.09 -0.03)"></path><path class="cls-4" d="M122.36,220.31a6.59,6.59,0,0,0,4.6,2.63,8.63,8.63,0,0,0,2.38-.06,2.14,2.14,0,0,0,.44-.08l.42-.09a.47.47,0,0,0,.36-.46h0v-.19h0v-.17c-.06-1.49-.36-3.74-.36-3.74.56.23,3.42,1.29,3.32.51-.83-6.41-1.75-13.55-3.93-19.75a.18.18,0,0,0-.23-.11.16.16,0,0,0-.12.18c.55,6.2,2.19,12.25,2.85,18.47a11.51,11.51,0,0,0-3.17-.73c-.21.08.66,4.35.63,5v.07c-2.48.5-4.42-.13-7-1.64C122.38,220,122.23,220.17,122.36,220.31Z" transform="translate(-20.09 -0.03)"></path><path class="cls-4" d="M128.4,222.19a7.72,7.72,0,0,1-3,2.64,3.52,3.52,0,0,1-2.12.28c-1.57-.3-1.71-1.71-1.51-2.94a8.39,8.39,0,0,1,.56-1.91A10.09,10.09,0,0,0,128.4,222.19Z" transform="translate(-20.09 -0.03)"></path><path class="cls-10" d="M125.44,224.83a3.52,3.52,0,0,1-2.12.28c-1.57-.3-1.71-1.71-1.51-2.94C123.48,222.22,125.19,223.23,125.44,224.83Z" transform="translate(-20.09 -0.03)"></path><path class="cls-4" d="M95,186.24c5-14,28.13-14,34.44-9.73a16,16,0,0,1,6.95,10.19s-1.49-3.6-4-3.59-2.06,2.53-5.77,3.64c-3.36,1-8.1-2.41-13.78-1.44a11.55,11.55,0,0,0-9.74,9.75c-.75,4.64-.17,23.37-4,24.31S91,197.56,95,186.24Z" transform="translate(-20.09 -0.03)"></path><path class="cls-8" d="M102.33,212.54s-6-9.45-10.21-7.37-.09,15.57,4.7,17.62a5,5,0,0,0,6.71-2.23l.06-.12Z" transform="translate(-20.09 -0.03)"></path><path class="cls-4" d="M93.41,209a.07.07,0,0,0,0,.09.08.08,0,0,0,0,0c3.35,1.54,5,4.8,6.1,8.14-1-1.31-2.31-2.07-4.06-.94-.09.06,0,.2.08.19a3,3,0,0,1,3.31,1.22,14.57,14.57,0,0,1,1.47,2.79c.15.31.71.18.61-.18v-.08C101.16,215.93,98.06,209.67,93.41,209Z" transform="translate(-20.09 -0.03)"></path><path class="cls-8" d="M73.71,275C63.37,293.69,39.6,365.36,55.8,378.91c20.1,16.84,82,15.28,95.59,15.53,5.91.11,12.91-41.44,8.28-45.74s-70.45-2-73.35-5.69c-1.19-1.53,11.26-53.94,7.31-76.49C89.56,243.37,78.37,266.52,73.71,275Z" transform="translate(-20.09 -0.03)"></path><path class="cls-9" d="M95.8,257.8c8.13,19-9.42,81.54-7.22,83.26s53.51,2.58,53.51,2.58l-5.86,56.57c-10.37-.11-78.8-6.47-88-24.25s10-79.72,22.41-103.39C79.73,255.39,90.21,244.7,95.8,257.8Z" transform="translate(-20.09 -0.03)"></path><path class="cls-4" d="M76.11,337.83c4.12.57,8.17,1.26,12.25,1.79a.62.62,0,0,1,0-.27l.06-.4A37,37,0,0,0,80.68,336c-.17-.06-.15-.36,0-.34a24.57,24.57,0,0,1,7.92,1.87q4.61-27.86,9.87-55.61c0-.06.12-.05.12,0q-.89,7.43-1.89,14.84c.79-2.47,1.76-4.93,2.52-7.31a.13.13,0,0,1,.18,0,.13.13,0,0,1,.06.11c-.68,4-1.4,8.67-3.34,12.3A.28.28,0,0,1,96,302c-1.72,12.16-3.68,24.28-6,36.34A8.57,8.57,0,0,1,91.89,340c6.07,1.64,49.29,2.25,50,2.92s.19,4.65-.2,8.33c0,.32-.54.54-.52.22.16-2.42.41-7-.07-7.16-.67-.21-44.59,1.1-65.18-6.08C75.67,338.15,75.88,337.8,76.11,337.83Z" transform="translate(-20.09 -0.03)"></path><path class="cls-4" d="M82.93,379.77a15,15,0,0,0,.49,4.1,14.32,14.32,0,0,0,1.52,3.84,15.83,15.83,0,0,0-2-7.94Z" transform="translate(-20.09 -0.03)"></path><path class="cls-4" d="M134.49,370.82a15,15,0,0,0,.49,4.1,14.32,14.32,0,0,0,1.52,3.84,15.83,15.83,0,0,0-2-7.94Z" transform="translate(-20.09 -0.03)"></path><path class="cls-4" d="M69.73,310.16a15.82,15.82,0,0,0,2,7.93,14.21,14.21,0,0,0-.48-4.1A15.08,15.08,0,0,0,69.73,310.16Z" transform="translate(-20.09 -0.03)"></path><path class="cls-4" d="M86.58,297.1a15,15,0,0,0,4.1-.49,14.32,14.32,0,0,0,3.84-1.52,15.83,15.83,0,0,0-7.94,2Z" transform="translate(-20.09 -0.03)"></path><path class="cls-4" d="M67.34,339.5a16.07,16.07,0,0,0,7.94-2,14.22,14.22,0,0,0-4.1.49A14.77,14.77,0,0,0,67.34,339.5Z" transform="translate(-20.09 -0.03)"></path><path class="cls-4" d="M117.22,356.66a15,15,0,0,0,4.1-.49,14.32,14.32,0,0,0,3.84-1.52,15.83,15.83,0,0,0-7.94,2Z" transform="translate(-20.09 -0.03)"></path><path class="cls-4" d="M66,363.88a14.57,14.57,0,0,0,4.1-.49,14.06,14.06,0,0,0,3.9-1.52,16.07,16.07,0,0,0-7.94,2Z" transform="translate(-20.09 -0.03)"></path><path class="cls-4" d="M85,262.18a15.89,15.89,0,0,0-4.2,7A16,16,0,0,0,85,262.18Z" transform="translate(-20.09 -0.03)"></path><path class="cls-4" d="M54.8,316.91a16,16,0,0,0-4.19,7,14.3,14.3,0,0,0,2.55-3.24A15,15,0,0,0,54.8,316.91Z" transform="translate(-20.09 -0.03)"></path><path class="cls-4" d="M92.27,346.49a14.88,14.88,0,0,0-2.55,3.25,14.18,14.18,0,0,0-1.64,3.79,15.87,15.87,0,0,0,4.19-7Z" transform="translate(-20.09 -0.03)"></path><path class="cls-4" d="M120.73,387.77a14.36,14.36,0,0,0-2.55,3.25,14.18,14.18,0,0,0-1.64,3.79,14.36,14.36,0,0,0,2.55-3.25A14.18,14.18,0,0,0,120.73,387.77Z" transform="translate(-20.09 -0.03)"></path><path class="cls-4" d="M53.3,350.29a14.92,14.92,0,0,0-3.25-2.56,13.84,13.84,0,0,0-3.79-1.63,16.17,16.17,0,0,0,7,4.19Z" transform="translate(-20.09 -0.03)"></path><path class="cls-4" d="M74.44,290a14.92,14.92,0,0,0-3.25-2.56,14.18,14.18,0,0,0-3.79-1.64,16,16,0,0,0,7,4.2Z" transform="translate(-20.09 -0.03)"></path><path class="cls-4" d="M108.5,371.75a16,16,0,0,0-7-4.2,14.35,14.35,0,0,0,3.24,2.56A14.8,14.8,0,0,0,108.5,371.75Z" transform="translate(-20.09 -0.03)"></path><path class="cls-4" d="M91.51,320.61a16,16,0,0,0-7-4.2A14.31,14.31,0,0,0,87.72,319,14.91,14.91,0,0,0,91.51,320.61Z" transform="translate(-20.09 -0.03)"></path><path class="cls-8" d="M146.28,346.65s12.09.36,15.08.64,33-6.08,42.55-.18c6.75,4.18,22,23,20.5,35.66C223.49,390.42,215,391,215,391s-1.23,4.66-4.9,6.11a9.85,9.85,0,0,1-8.16-.28,8.2,8.2,0,0,1-6.09,5.63c-6,1.35-8.67-2.2-8.67-2.2a15,15,0,0,1-9.41,4.71c-8.67.71-20.41-4.12-21.79-7.61-2.26-5.7,7.66-5.93,14.46-5.33,0,0-2.46-.18-2.95-3.6,0,0-3.87,9.06-24.76,5.15Z" transform="translate(-20.09 -0.03)"></path><path class="cls-4" d="M176.7,362.31c4.9,5,8.39,11.93,11,18.38s3.86,13.47-.08,19.56a.25.25,0,0,1-.44-.22c3.47-7,1.25-14.23-1.7-21-2.53-5.78-5.12-11.48-9.24-16.32C176,362.46,176.44,362.05,176.7,362.31Z" transform="translate(-20.09 -0.03)"></path><path class="cls-4" d="M189.93,359.62c8.07,8.78,18,24.87,12.2,37.1a.13.13,0,1,1-.25-.09c3.17-13.47-5-26.14-12.31-36.71C189.41,359.7,189.74,359.41,189.93,359.62Z" transform="translate(-20.09 -0.03)"></path><path class="cls-4" d="M202.09,356.23c4.72,4.09,8.29,9.95,11.06,15.49,3,6,4.22,12.65,2.21,19.18a.14.14,0,0,1-.27-.06c1.29-13.26-4.86-24.49-13.38-34.27C201.52,356.35,201.88,356.05,202.09,356.23Z" transform="translate(-20.09 -0.03)"></path><path class="cls-4" d="M155.94,394.77c0,.07,0,.14.09.08,3.15-3.23,8.52-3.23,13.63-2.48h0a.2.2,0,0,0,.21,0c3.13.48,6.14,1.23,8.46,1.69a.32.32,0,0,0,.37-.26.33.33,0,0,0-.17-.34,29.74,29.74,0,0,0-8.9-2.58,8.54,8.54,0,0,1-1.13-3,8,8,0,0,1,1.11-4.74c0-.08-.07-.14-.13-.08a6.32,6.32,0,0,0-2,4.89v.2a6.33,6.33,0,0,1-1.22,1.72,11,11,0,0,1-1,.8C161.5,390.83,157.91,391.94,155.94,394.77Zm12.28-4c-.52,0-1.05-.06-1.58-.08.15-.17.28-.34.41-.52a4.37,4.37,0,0,0,.61-1.29,7.27,7.27,0,0,0,.56,1.88Z" transform="translate(-20.09 -0.03)"></path><path class="cls-9" d="M120.33,247.9l-5.83,16.31L93.75,244.65l-5.41,6.75s20.78,31.54,20.84,30.07l6.09-14.1,9.93,9.27-1.71-24.16Z" transform="translate(-20.09 -0.03)"></path><path class="cls-4" d="M125,264.65c-.41-4-.72-8-1.32-12a.14.14,0,0,0-.27,0c-.65,3.88,1,19.09,1.14,22.75h0c-.42-.41-9.19-8.14-9.27-8-1.35,2.26-5.82,12.53-6.12,13.46-3.28-5-17.17-24.73-21-29.44a.14.14,0,0,0-.19,0,.15.15,0,0,0,0,.2c2.94,5.31,20.9,31.34,21.14,31.26a155.05,155.05,0,0,0,6.36-14.9c1.5,1.7,10.39,10.46,10.4,9.87A125.78,125.78,0,0,0,125,264.65Z" transform="translate(-20.09 -0.03)"></path></g><g id="freepik--Mug--inject-148"><rect class="cls-3" x="123.73" y="421.04" width="21.27" height="3.32"></rect><rect class="cls-4" x="123.73" y="421.04" width="21.27" height="2.19"></rect><path class="cls-3" d="M118.58,412.14a12,12,0,0,0,12,5.13,12.4,12.4,0,0,0,2.16-.62,16.21,16.21,0,0,0,3-1.58l-2.71-4a9.62,9.62,0,0,1-1.59.91c-5.06,2.29-8.27-1.7-8.9-2.61-2.92-4.1-4-13.46-1-17.05.2-.27,1-.69,4.48,0,.63.14,1.35.3,2.16.52a8.1,8.1,0,0,0,1.94.42l.09-2.4.23-2.4a5.09,5.09,0,0,1-1-.27,29.49,29.49,0,0,0-4.84-1c-2.52-.27-5.16,0-6.78,2C113,395.12,114.93,407,118.58,412.14Z" transform="translate(-20.09 -0.03)"></path><path class="cls-4" d="M133,411.06a9.62,9.62,0,0,1-1.59.91l1.29,4.68a16.21,16.21,0,0,0,3-1.58Z" transform="translate(-20.09 -0.03)"></path><path class="cls-4" d="M124.56,387.22l1.43,5.13c.63.14,1.35.3,2.16.52a8.1,8.1,0,0,0,1.94.42l.09-2.4.23-2.4a5.09,5.09,0,0,1-1-.27A29.83,29.83,0,0,0,124.56,387.22Z" transform="translate(-20.09 -0.03)"></path><path class="cls-3" d="M182.74,381s-2.55,21.67-7,30.8-10.56,10.13-14.38,10.13H147.5c-3.82,0-10-1-14.38-10.13s-7-30.8-7-30.8Z" transform="translate(-20.09 -0.03)"></path><path class="cls-7" d="M178.58,395.14a1.36,1.36,0,1,1,1.36-1.36h0A1.36,1.36,0,0,1,178.58,395.14Zm0-2.47a1.11,1.11,0,1,0,1.11,1.11h0A1.11,1.11,0,0,0,178.58,392.67Z" transform="translate(-20.09 -0.03)"></path><path class="cls-7" d="M138.27,388.14a1.37,1.37,0,1,1,1.36-1.38h0a1.36,1.36,0,0,1-1.35,1.37Zm0-2.48a1.12,1.12,0,1,0,1.11,1.13v0A1.11,1.11,0,0,0,138.27,385.66Z" transform="translate(-20.09 -0.03)"></path><path class="cls-7" d="M140.28,408.11a1.37,1.37,0,1,1,1.36-1.38h0a1.36,1.36,0,0,1-1.35,1.37Zm0-2.48a1.12,1.12,0,1,0,1.11,1.13v0a1.11,1.11,0,0,0-1.11-1.11Z" transform="translate(-20.09 -0.03)"></path><path class="cls-7" d="M129.17,384.57a1.37,1.37,0,1,1,1.37-1.37h0a1.36,1.36,0,0,1-1.36,1.36Zm0-2.48a1.12,1.12,0,1,0,1.12,1.12h0A1.12,1.12,0,0,0,129.17,382.09Z" transform="translate(-20.09 -0.03)"></path><path class="cls-7" d="M148.15,393.05a1.36,1.36,0,1,1,1.36-1.36h0A1.36,1.36,0,0,1,148.15,393.05Zm0-2.47a1.11,1.11,0,1,0,1.11,1.11h0A1.13,1.13,0,0,0,148.15,390.58Z" transform="translate(-20.09 -0.03)"></path><path class="cls-7" d="M163,407.54a1.37,1.37,0,1,1,1.37-1.37h0a1.36,1.36,0,0,1-1.35,1.37Zm0-2.48a1.12,1.12,0,1,0,1.12,1.12h0a1.11,1.11,0,0,0-1.11-1.11Z" transform="translate(-20.09 -0.03)"></path><path class="cls-7" d="M153.9,384.57a1.37,1.37,0,1,1,1.36-1.38v0A1.36,1.36,0,0,1,153.9,384.57Zm0-2.48a1.12,1.12,0,1,0,1.11,1.13h0A1.13,1.13,0,0,0,153.9,382.09Z" transform="translate(-20.09 -0.03)"></path><path class="cls-7" d="M152.21,402.08a1.36,1.36,0,1,1,1.37-1.36,1.36,1.36,0,0,1-1.37,1.36Zm0-2.47a1.11,1.11,0,1,0,1.12,1.11,1.11,1.11,0,0,0-1.12-1.11Z" transform="translate(-20.09 -0.03)"></path><path class="cls-7" d="M138.71,418.38a1.37,1.37,0,1,1,1.36-1.38h0a1.36,1.36,0,0,1-1.35,1.37Zm0-2.48a1.12,1.12,0,1,0,1.11,1.13v0A1.11,1.11,0,0,0,138.71,415.9Z" transform="translate(-20.09 -0.03)"></path><path class="cls-7" d="M171.83,386.61a1.36,1.36,0,1,1,1.36-1.36h0A1.37,1.37,0,0,1,171.83,386.61Zm0-2.47a1.11,1.11,0,1,0,1.11,1.11h0a1.11,1.11,0,0,0-1.11-1.11Z" transform="translate(-20.09 -0.03)"></path><path class="cls-7" d="M133.83,398.37a1.37,1.37,0,1,1,1.36-1.38h0A1.38,1.38,0,0,1,133.83,398.37Zm0-2.48a1.12,1.12,0,1,0,1.11,1.13v0a1.13,1.13,0,0,0-1.11-1.11Z" transform="translate(-20.09 -0.03)"></path><path class="cls-7" d="M161.72,394.29a1.37,1.37,0,1,1,1.36-1.38v0A1.36,1.36,0,0,1,161.72,394.29Zm0-2.48a1.12,1.12,0,1,0,1.11,1.13h0A1.13,1.13,0,0,0,161.72,391.81Z" transform="translate(-20.09 -0.03)"></path><path class="cls-7" d="M152.21,416.33a1.37,1.37,0,1,1,1.37-1.37h0A1.37,1.37,0,0,1,152.21,416.33Zm0-2.48a1.12,1.12,0,1,0,1.12,1.12h0a1.11,1.11,0,0,0-1.11-1.11Z" transform="translate(-20.09 -0.03)"></path><path class="cls-7" d="M163.67,421.25a1.37,1.37,0,1,1,1.37-1.37h0A1.37,1.37,0,0,1,163.67,421.25Zm0-2.48a1.12,1.12,0,1,0,1.12,1.12h0a1.11,1.11,0,0,0-1.11-1.11Z" transform="translate(-20.09 -0.03)"></path><path class="cls-7" d="M171.83,400.84a1.36,1.36,0,1,1,1.36-1.36h0A1.37,1.37,0,0,1,171.83,400.84Zm0-2.47a1.11,1.11,0,1,0,1.11,1.11h0A1.13,1.13,0,0,0,171.83,398.37Z" transform="translate(-20.09 -0.03)"></path><path class="cls-7" d="M173.06,413.13a1.37,1.37,0,1,1,1.37-1.37h0a1.36,1.36,0,0,1-1.36,1.36Zm0-2.48a1.12,1.12,0,1,0,1.12,1.12h0A1.12,1.12,0,0,0,173.06,410.65Z" transform="translate(-20.09 -0.03)"></path></g><g id="freepik--speech-bubbles--inject-148"><path class="cls-3" d="M160.91,204.25a22.32,22.32,0,0,1-3.81-12.31c0-15.58,17.12-28.22,38.22-28.22s38.2,12.64,38.2,28.22-17.1,28.23-38.2,28.23A46.13,46.13,0,0,1,169,212.36l-13.17,3.34Z" transform="translate(-20.09 -0.03)"></path><path class="cls-4" d="M209.06,191.94a4,4,0,1,0,4-4A4,4,0,0,0,209.06,191.94Z" transform="translate(-20.09 -0.03)"></path><path class="cls-4" d="M191.35,191.94a4,4,0,1,0,4-4A4,4,0,0,0,191.35,191.94Z" transform="translate(-20.09 -0.03)"></path><path class="cls-4" d="M173.64,191.94a4,4,0,1,0,4-4A4,4,0,0,0,173.64,191.94Z" transform="translate(-20.09 -0.03)"></path><path class="cls-9" d="M327,160.56a22.32,22.32,0,0,0,3.81-12.31c0-15.58-17.12-28.22-38.22-28.22s-38.2,12.64-38.2,28.22,17.1,28.23,38.2,28.23c10.23,0,19.51-3,26.36-7.81L332.11,172Z" transform="translate(-20.09 -0.03)"></path><path class="cls-4" d="M278.84,148.25a4,4,0,1,1-4-4A4,4,0,0,1,278.84,148.25Z" transform="translate(-20.09 -0.03)"></path><path class="cls-4" d="M296.55,148.25a4,4,0,1,1-4-4A4,4,0,0,1,296.55,148.25Z" transform="translate(-20.09 -0.03)"></path><path class="cls-4" d="M314.26,148.25a4,4,0,1,1-4-4A4,4,0,0,1,314.26,148.25Z" transform="translate(-20.09 -0.03)"></path></g></svg>