<svg xmlns="http://www.w3.org/2000/svg" id="Layer_1" data-name="Layer 1" viewBox="0 0 423.66 391.51"><defs><style>.cls-1{fill:#ebebeb;}.cls-2{fill:#e10454;}.cls-3{fill:#dbdbdb;}.cls-4{fill:#263238;}.cls-5{fill:#774442;}.cls-6{fill:#40208b;}.cls-15,.cls-7{opacity:0.1;}.cls-8{fill:#37474f;}.cls-9{fill:#455a64;}.cls-10{fill:#ad6359;}.cls-11{fill:#c7c7c7;}.cls-12{fill:#a6a6a6;}.cls-13{fill:#fff;}.cls-14{fill:#ff9cbd;}.cls-15{isolation:isolate;}</style></defs><title>طراحی سایت رستوران و کافه</title><g id="freepik--background-complete--inject-152"><polygon class="cls-1" points="9.31 69.58 59.94 69.34 110.57 69.25 211.83 69.08 313.09 69.25 363.72 69.34 414.35 69.58 363.72 69.83 313.09 69.92 211.83 70.08 110.57 69.92 59.94 69.83 9.31 69.58"></polygon><polygon class="cls-1" points="9.31 104.17 59.94 103.92 110.57 103.84 211.83 103.67 313.09 103.84 363.72 103.92 414.35 104.17 363.72 104.41 313.09 104.5 211.83 104.67 110.57 104.5 59.94 104.41 9.31 104.17"></polygon><polygon class="cls-1" points="9.31 35.03 59.94 34.79 110.57 34.7 211.83 34.53 313.09 34.7 363.72 34.79 414.35 35.03 363.72 35.28 313.09 35.36 211.83 35.53 110.57 35.36 59.94 35.27 9.31 35.03"></polygon><polygon class="cls-1" points="9.31 138.75 59.94 138.51 110.57 138.42 211.83 138.25 313.09 138.42 363.72 138.51 414.35 138.75 363.72 139 313.09 139.08 211.83 139.25 110.57 139.08 59.94 138.99 9.31 138.75"></polygon><polygon class="cls-1" points="9.31 173.34 59.94 173.09 110.57 173 211.83 172.84 313.09 173 363.72 173.09 414.35 173.34 363.72 173.58 313.09 173.67 211.83 173.84 110.57 173.67 59.94 173.58 9.31 173.34"></polygon><polygon class="cls-1" points="9.31 207.92 59.94 207.68 110.57 207.59 211.83 207.42 313.09 207.59 363.72 207.68 414.35 207.92 363.72 208.16 313.09 208.25 211.83 208.42 110.57 208.25 59.94 208.16 9.31 207.92"></polygon><polygon class="cls-1" points="246.41 0 246.66 30.07 246.75 60.15 246.91 120.29 246.75 180.43 246.66 210.51 246.41 240.58 246.17 210.51 246.08 180.43 245.91 120.29 246.08 60.15 246.17 30.07 246.41 0"></polygon><polygon class="cls-1" points="211.83 0 212.07 30.07 212.16 60.15 212.33 120.29 212.16 180.43 212.08 210.51 211.83 240.58 211.58 210.51 211.5 180.43 211.33 120.29 211.5 60.15 211.59 30.07 211.83 0"></polygon><polygon class="cls-1" points="177.25 0 177.49 30.07 177.58 60.15 177.74 120.29 177.58 180.43 177.49 210.51 177.25 240.58 177 210.51 176.91 180.43 176.75 120.29 176.91 60.15 177 30.07 177.25 0"></polygon><polygon class="cls-1" points="142.66 0 142.9 30.07 142.99 60.15 143.16 120.29 142.99 180.43 142.91 210.51 142.66 240.58 142.42 210.51 142.33 180.43 142.16 120.29 142.33 60.15 142.42 30.07 142.66 0"></polygon><polygon class="cls-1" points="350.17 0 350.41 30.07 350.5 60.15 350.67 120.29 350.5 180.43 350.41 210.51 350.17 240.58 349.92 210.51 349.83 180.43 349.67 120.29 349.84 60.15 349.92 30.07 350.17 0"></polygon><polygon class="cls-1" points="315.58 0 315.83 30.07 315.91 60.15 316.08 120.29 315.91 180.43 315.83 210.51 315.58 240.58 315.34 210.51 315.25 180.43 315.08 120.29 315.25 60.15 315.34 30.07 315.58 0"></polygon><polygon class="cls-1" points="281 0 281.24 30.07 281.33 60.15 281.5 120.29 281.33 180.43 281.24 210.51 281 240.58 280.75 210.51 280.67 180.43 280.5 120.29 280.67 60.15 280.76 30.07 281 0"></polygon><polygon class="cls-1" points="384.75 0 384.99 30.07 385.08 60.15 385.25 120.29 385.08 180.43 385 210.51 384.75 240.58 384.51 210.51 384.42 180.43 384.25 120.29 384.42 60.15 384.51 30.07 384.75 0"></polygon><polygon class="cls-1" points="350.17 0 350.41 30.07 350.5 60.15 350.67 120.29 350.5 180.43 350.41 210.51 350.17 240.58 349.92 210.51 349.83 180.43 349.67 120.29 349.84 60.15 349.92 30.07 350.17 0"></polygon><polygon class="cls-1" points="108.08 0 108.32 30.07 108.41 60.15 108.58 120.29 108.41 180.43 108.32 210.51 108.08 240.58 107.83 210.51 107.74 180.43 107.58 120.29 107.75 60.15 107.83 30.07 108.08 0"></polygon><polygon class="cls-1" points="73.49 0 73.74 30.07 73.82 60.15 73.99 120.29 73.83 180.43 73.74 210.51 73.49 240.58 73.25 210.51 73.16 180.43 72.99 120.29 73.16 60.15 73.25 30.07 73.49 0"></polygon><polygon class="cls-1" points="38.91 0 39.15 30.07 39.24 60.15 39.41 120.29 39.24 180.43 39.15 210.51 38.91 240.58 38.66 210.51 38.58 180.43 38.41 120.29 38.58 60.15 38.67 30.07 38.91 0"></polygon><rect class="cls-1" x="9.9" y="234.84" width="403.86" height="18.14"></rect><polygon class="cls-2" points="246.44 122.01 409.12 122.01 414.35 0 241.2 0 246.44 122.01"></polygon><path class="cls-3" d="M328.49,124.66H262.7l-4.29-99h70.08Zm-64.83-1h63.83v-97h-68Z" transform="translate(-4.17 -13.85)"></path><path class="cls-3" d="M322.55,91.89h-6.83V56.17h6.83Zm-5.83-1h4.83V57.17h-4.83Z" transform="translate(-4.17 -13.85)"></path><path class="cls-3" d="M401.19,124.66H335.4v-99h70.08Zm-64.79-1h63.83l4.2-97h-68Z" transform="translate(-4.17 -13.85)"></path><path class="cls-3" d="M348.17,91.89h-6.83V56.17h6.83Zm-5.83-1h4.83V57.17h-4.83Z" transform="translate(-4.17 -13.85)"></path></g><g id="freepik--Table--inject-152"><polygon class="cls-4" points="0 331.18 52.96 330.94 105.92 330.85 211.83 330.68 317.74 330.85 370.7 330.94 423.66 331.18 370.7 331.43 317.74 331.52 211.83 331.68 105.92 331.51 52.96 331.43 0 331.18"></polygon></g><g id="freepik--Cupcakes--inject-152"><path class="cls-5" d="M329.7,352.27c0,6.44-7.35,14.85-26.39,14.85s-26.38-8.41-26.38-14.85,14.49-17.33,26.38-17.33S329.7,345.84,329.7,352.27Z" transform="translate(-4.17 -13.85)"></path><path class="cls-6" d="M330.47,351.18h.2l-.23,1.52v.44l.3.25-1,1.93-.16.54.19.08-9.35,15.88s-5,6.71-18,6.71-17.56-7.84-17.56-7.84L278,358.86,276.38,357l.08-.65-.93-1.29.23-.13v-.55l-.16-1.57h.17l1.17-1.28v-.15l-.35-1h.2a.57.57,0,0,0,.22.11l.32.08a5.2,5.2,0,0,1,.67.11.12.12,0,0,1,.11.13h0a.26.26,0,0,1-.05.09h0a10,10,0,0,0-1,.8,5.48,5.48,0,0,0-.92.88.82.82,0,0,0-.12.2h0a1.63,1.63,0,0,0,.58-.05,8.88,8.88,0,0,0,1.24-.38.21.21,0,0,1,.27.13h0a.22.22,0,0,1,0,.23h0l-1,1c-.27.3-.56.61-.81.92l.62-.11,1.4-.33a.31.31,0,0,1,.38.22h0a.33.33,0,0,1-.06.29h0c-.32.36-.64.75-.94,1.13-.14.2-.29.39-.41.59l-.05.08.33-.05.71-.15c.48-.11,1-.23,1.43-.36a.37.37,0,0,1,.46.24v0a.41.41,0,0,1-.07.34h0a15.11,15.11,0,0,0-.93,1.29,4.37,4.37,0,0,0-.25.48c.51-.11,1-.24,1.51-.4l.79-.24.42-.11.24,0a1,1,0,0,1,.35,0h.09l.14.07a.58.58,0,0,1,.18.23v.27a1.41,1.41,0,0,1,0,.29,2.11,2.11,0,0,1-.1.45l-.21.78a4.23,4.23,0,0,0-.11.62,2.61,2.61,0,0,0,.54-.24l.7-.39.74-.41a3.43,3.43,0,0,1,.44-.19l.17,0h.12a.74.74,0,0,1,.21,0l.16.07.09.07a1,1,0,0,1,.15.2,1.55,1.55,0,0,1,.08.23,4.51,4.51,0,0,1,0,.52v1.21a1.93,1.93,0,0,0,0,.34v.09h.13a8.9,8.9,0,0,0,1.36-.73,7.22,7.22,0,0,1,.78-.41,2.21,2.21,0,0,1,.51-.18h.41a1,1,0,0,1,.45.22l.14.15.09.13c.06.1.09.18.13.26a3.29,3.29,0,0,1,.16.44l.24.78a1.88,1.88,0,0,0,.25.56l.05.05h.09a2,2,0,0,0,.56-.28c.21-.14.42-.3.64-.46s.45-.33.72-.5a2,2,0,0,1,.46-.24,1.89,1.89,0,0,1,.34-.09,1.07,1.07,0,0,1,.5.07,1.18,1.18,0,0,1,.37.26l.19.24a3.62,3.62,0,0,1,.24.43c.13.27.23.5.35.72a2,2,0,0,0,.36.54.7.7,0,0,0,.38.22.51.51,0,0,0,.4-.07,1.41,1.41,0,0,0,.45-.39,6.85,6.85,0,0,0,.45-.61,4.67,4.67,0,0,1,.59-.74,1.32,1.32,0,0,1,1-.42,1.28,1.28,0,0,1,.43.14l.18.11.12.11a2.09,2.09,0,0,1,.2.22l.15.22.12.2c.23.48.48.94.75,1.39.12.18.26.3.31.3a.46.46,0,0,0,.24-.07,4.62,4.62,0,0,0,.89-1.08,6.14,6.14,0,0,1,.54-.72,1.31,1.31,0,0,1,.61-.43h.33l.3.08a.76.76,0,0,1,.19.12.53.53,0,0,1,.14.12,3.66,3.66,0,0,1,.59.77c.15.23.29.44.44.63.29.4.61.64.84.62a.36.36,0,0,0,.31-.12,1.72,1.72,0,0,0,.29-.49c.1-.22.18-.48.32-.78a2,2,0,0,1,.13-.25l.08-.13.13-.15a1.18,1.18,0,0,1,.18-.13.94.94,0,0,1,.22-.12l.25,0a1,1,0,0,1,.24,0,1.62,1.62,0,0,1,.61.24c.14.09.27.19.4.29l.65.56a9.35,9.35,0,0,0,1.17,1,1,1,0,0,0,.23.13h0a1,1,0,0,0,.12-.23c.09-.2.18-.47.29-.75a2.45,2.45,0,0,1,.58-.9,1.68,1.68,0,0,1,1.15-.45,2.41,2.41,0,0,1,1.05.24,16.56,16.56,0,0,1,1.45.89,1.07,1.07,0,0,0,.52.2h0a2,2,0,0,0,.11-.64,6.86,6.86,0,0,1,.12-.91,2.47,2.47,0,0,1,.1-.29,1.49,1.49,0,0,1,.2-.31,1.23,1.23,0,0,1,.34-.26,1.4,1.4,0,0,1,.4-.11,2.29,2.29,0,0,1,1,.23c.56.22,1,.5,1.51.72a4.27,4.27,0,0,0,.67.27h.23a.53.53,0,0,0,.1-.35,3.35,3.35,0,0,0-.13-.69,7,7,0,0,1-.19-.91,1.14,1.14,0,0,1,.07-.41.74.74,0,0,1,.44-.46.82.82,0,0,1,.44,0l.27.06c.62.18,1.09.41,1.58.58a4.23,4.23,0,0,0,.7.18h.34c.06-.06.09-.16.06-.36a2.41,2.41,0,0,0-.24-.63c-.11-.23-.25-.45-.39-.73a1.89,1.89,0,0,1-.11-.25v-.24a.81.81,0,0,1,0-.22.55.55,0,0,1,.2-.25l.1-.06h.62c.59.1,1.11.24,1.64.35l.49.09c-.2-.44-.46-.89-.71-1.36-.07-.13-.13-.25-.2-.41s0-.08,0-.13a.57.57,0,0,1,0-.26v-.14a.43.43,0,0,1,.15-.18.46.46,0,0,1,.19-.08.67.67,0,0,1,.2,0,4.4,4.4,0,0,1,.88.16,12.68,12.68,0,0,0,1.49.3l-.35-.36c-.42-.38-.83-.77-1.21-1.19a.89.89,0,0,1-.15-.27.38.38,0,0,1,0-.15.43.43,0,0,1,.06-.22c0-.08.09-.1.14-.15l.11,0a1.57,1.57,0,0,1,.53,0l.84.08.8.09H330l0-.07-.27-.27-.6-.54c-.22-.19-.42-.38-.62-.59a1.82,1.82,0,0,1-.29-.38.48.48,0,0,1,0-.37.45.45,0,0,1,.33-.28,1.4,1.4,0,0,1,.5,0l.41.12a6.29,6.29,0,0,0,.74.22L330,351c-.17-.19-.37-.37-.57-.56l-.61-.55a2.91,2.91,0,0,1-.3-.31.44.44,0,0,1-.08-.11.28.28,0,0,1,0-.25.39.39,0,0,1,.29-.13h.83a.87.87,0,0,0,.32-.06H330l.11.05-.42,1.18v.19Z" transform="translate(-4.17 -13.85)"></path><g class="cls-7"><polygon points="296.57 351.02 298.88 364.83 301.39 350.88 298.98 348.65 296.57 351.02"></polygon><polygon points="291.99 350.29 294.07 364.36 295.91 350.98 294.07 348.34 291.99 350.29"></polygon><polygon points="286.09 349.56 290.12 363.45 290.67 350.34 288.95 348.1 286.09 349.56"></polygon><polygon points="281.2 348.34 285.39 361.25 285.52 349.45 284.48 347.03 281.2 348.34"></polygon><polygon points="280.73 345.65 277.42 346.75 282.51 358.97 280.81 348.1 280.73 345.65"></polygon><polygon points="277.68 344.2 274.17 344.82 281.2 357.51 277.27 346.64 277.68 344.2"></polygon><polygon points="272.82 342.94 273.9 345.02 275.24 342.72 272.82 342.94"></polygon><polygon points="303.68 348.65 302.33 350.85 302.33 364.36 306.81 350.85 303.68 348.65"></polygon><polygon points="308.75 348.65 307.43 350.85 306.12 363.72 311.98 350.04 308.75 348.65"></polygon><polygon points="313.16 347.44 312.57 349.82 309.86 362.45 317.01 348.65 313.16 347.44"></polygon><polygon points="317.32 345.77 317.6 348.34 313.01 360.77 320.65 346.5 317.32 345.77"></polygon><polygon points="321.03 346.09 315.75 358.54 323.46 344.2 320.51 343.87 321.03 346.09"></polygon><polygon points="323.46 343.87 324.71 341.92 322.53 341.68 323.46 343.87"></polygon><polygon points="323.62 339.56 325.18 340.93 325.93 339.56 323.62 339.56"></polygon><polygon points="325.71 337.52 324.3 337.17 325.71 338.7 325.71 337.52"></polygon><polygon points="325.56 335.16 324.46 335.29 325.44 336.08 325.56 335.16"></polygon><polygon points="273.6 340.85 271.73 341.13 272.97 342.06 273.6 340.85"></polygon><polygon points="273.36 338.88 271.64 339.03 272.03 340.24 273.36 338.88"></polygon></g><path class="cls-6" d="M328.67,348.12a10.53,10.53,0,0,1,1.23.43.82.82,0,0,1,.2.12l.06.05v.13a.22.22,0,0,1-.09.17l-.09.05a1,1,0,0,1-.37.08h-.81a2.44,2.44,0,0,0,.29.27l.62.53h0c.2.17.38.33.57.52a1.82,1.82,0,0,1,.29.38.61.61,0,0,1,0,.19.28.28,0,0,1-.15.23h-.06a.57.57,0,0,1-.26,0,5.93,5.93,0,0,1-.83-.21l-.39-.1h-.27a1.71,1.71,0,0,0,.21.26c.19.18.4.36.6.53s.43.34.65.53l.27.26h0a1.56,1.56,0,0,1,.16.2.61.61,0,0,1,.1.37.46.46,0,0,1-.13.27l-.17.11h-.73a5.73,5.73,0,0,1-.84-.06c-.26,0-.52-.05-.76-.05.29.3.66.61,1,.93a4.23,4.23,0,0,1,.61.66V355a.64.64,0,0,1,.1.24.47.47,0,0,1,0,.33.44.44,0,0,1-.12.15l-.12.08-.15.05a1.62,1.62,0,0,1-.44,0,15.82,15.82,0,0,1-1.67-.31h-.31l.13.23c.22.39.46.79.67,1.23a1.7,1.7,0,0,1,.16.53v.14a.68.68,0,0,1-.07.2.47.47,0,0,1-.18.19l-.16.07h-.33a6.42,6.42,0,0,1-.88-.12H326l-1.08-.21c.08.13.16.26.23.4a3.19,3.19,0,0,1,.32.79h0v.1a1.47,1.47,0,0,1,0,.59,1.25,1.25,0,0,1-.29.6,1.14,1.14,0,0,1-.62.35H324a4.77,4.77,0,0,1-.91-.2c-.48-.16-1-.36-1.37-.49a1.93,1.93,0,0,0,.12.44,4.11,4.11,0,0,1,.16.93,1.54,1.54,0,0,1-.41,1.16,1.08,1.08,0,0,1-.72.31,1.85,1.85,0,0,1-.57-.06,4.58,4.58,0,0,1-.87-.33c-.52-.23-1-.5-1.46-.68a1.34,1.34,0,0,0-.52-.14.29.29,0,0,0,0,.13,4.18,4.18,0,0,0-.09.71,3.09,3.09,0,0,1-.17,1,1,1,0,0,1-.18.32l-.13.15-.18.13a1.12,1.12,0,0,1-.4.14H316a2.4,2.4,0,0,1-1-.35c-.53-.31-1-.65-1.35-.82s-.74-.17-.88,0a1.36,1.36,0,0,0-.29.49c-.1.22-.17.48-.3.78a3,3,0,0,1-.28.49,1.16,1.16,0,0,1-1.06.48,1.37,1.37,0,0,1-.35-.08,2.26,2.26,0,0,1-.49-.25,11,11,0,0,1-1.34-1.12c-.2-.18-.4-.36-.59-.51l-.27-.19h0v.08c-.09.19-.18.46-.29.74a2.75,2.75,0,0,1-.57.9,1.68,1.68,0,0,1-1.17.47,1.93,1.93,0,0,1-1.13-.39,3.37,3.37,0,0,1-.7-.71c-.18-.24-.34-.49-.49-.71s-.19-.28-.27-.38a5.74,5.74,0,0,0-.36.5,5.4,5.4,0,0,1-1.24,1.41,1.51,1.51,0,0,1-1.32.21,2,2,0,0,1-.92-.76,14.46,14.46,0,0,1-.81-1.5,2.71,2.71,0,0,0-.24-.35l-.06.05c-.26.27-.56.79-1,1.26a2.72,2.72,0,0,1-.8.67,1.8,1.8,0,0,1-1.18.19,1.91,1.91,0,0,1-1-.57,3.06,3.06,0,0,1-.56-.82c-.14-.26-.26-.53-.37-.76a2.69,2.69,0,0,0-.16-.29h0a1,1,0,0,0-.23.12c-.2.12-.42.28-.64.44l-.7.49a3.42,3.42,0,0,1-.91.42,1.3,1.3,0,0,1-.73,0,1.2,1.2,0,0,1-.6-.44,2.67,2.67,0,0,1-.43-.92c-.1-.28-.16-.55-.24-.79a1.93,1.93,0,0,0-.11-.34v-.07l-.21.07c-.21.1-.44.22-.68.36a11.18,11.18,0,0,1-1.54.79,1.43,1.43,0,0,1-.58.12h-.22a1,1,0,0,1-.24-.09,1,1,0,0,1-.2-.15,1.18,1.18,0,0,1-.28-.5l-.06-.28a3.84,3.84,0,0,1,0-.48V360l-.64.33q-.36.21-.75.39a3.86,3.86,0,0,1-.87.35h-.58a.74.74,0,0,1-.27-.19.75.75,0,0,1-.2-.42,1.61,1.61,0,0,1,0-.31h0a5.24,5.24,0,0,1,.16-.88l.23-.8v-.12l-.26.06-.79.22-.24.06a8.61,8.61,0,0,1-1.42.33,1.22,1.22,0,0,1-.6,0l-.14-.07-.14-.14a.46.46,0,0,1-.07-.16v-.14a1,1,0,0,1,0-.35,4.31,4.31,0,0,1,.42-.83c.11-.17.23-.34.35-.5l-.42.09c-.25.06-.5.1-.76.14l-.39,0h-.47a1.09,1.09,0,0,1-.25-.1.46.46,0,0,1-.15-.38.79.79,0,0,1,.08-.3.47.47,0,0,1,.05-.1c0-.09.11-.18.17-.27a5.52,5.52,0,0,1,.46-.62c.12-.15.24-.3.37-.44l-.51.09c-.25,0-.49.08-.75.11h-.48a.31.31,0,0,1-.13-.06.42.42,0,0,1-.11-.18v-.1a.4.4,0,0,1,.07-.18l.12-.19.09-.11c.3-.36.62-.67.93-1l.44-.41-.46.1a2.24,2.24,0,0,1-.73,0l-.17-.06h-.06a.33.33,0,0,1-.11-.31.82.82,0,0,1,.19-.37,6.56,6.56,0,0,1,1-.9l.11-.08c.24-.19.49-.36.74-.53l-.4-.07-.34-.11-.17-.07h0a.29.29,0,0,1-.14-.15.14.14,0,0,1,0-.09v-.08l.08-.07.15-.11.29-.18.54-.3v.15l-.48.29-.27.19-.13.1h0a.57.57,0,0,0,.22.11l.32.08.45.08h.22a.12.12,0,0,1,.11.13h0a.26.26,0,0,1-.05.09h0l-.22.16c-.27.2-.55.41-.82.64a5.48,5.48,0,0,0-.92.88.82.82,0,0,0-.12.2H276a1.63,1.63,0,0,0,.58-.05,8.88,8.88,0,0,0,1.24-.38.21.21,0,0,1,.19,0h0a.2.2,0,0,1,.08.1.17.17,0,0,1,0,.19h0l-1,1c-.27.3-.56.61-.81.92l.62-.11,1.4-.33a.28.28,0,0,1,.22,0h0a.34.34,0,0,1,.15.2.26.26,0,0,1,0,.24v0h0c-.32.36-.64.75-.94,1.13-.14.2-.29.39-.41.59l-.05.08.33-.05.71-.15.9-.22.53-.14a.37.37,0,0,1,.46.24v0a.41.41,0,0,1-.07.34h0l-.48.62c-.16.22-.31.45-.45.67a4.37,4.37,0,0,0-.25.48c.35,0,.69,0,1,0l.4-.12.79-.24.42-.11.24,0a1,1,0,0,1,.35,0h.09l.14.07a.58.58,0,0,1,.18.23v.27a1.41,1.41,0,0,1,0,.29,2.11,2.11,0,0,1-.1.45l-.21.78a4.23,4.23,0,0,0-.11.62,2.61,2.61,0,0,0,.54-.24l.7-.39.74-.41a3.43,3.43,0,0,1,.44-.19l.17,0h.12a.74.74,0,0,1,.21,0l.16.07.09.07a1,1,0,0,1,.15.2,1.55,1.55,0,0,1,.08.23,4.51,4.51,0,0,1,0,.52v1.21a1.93,1.93,0,0,0,0,.34v.09h.13a8.9,8.9,0,0,0,1.36-.73,7.22,7.22,0,0,1,.78-.41,2.21,2.21,0,0,1,.51-.18h.41a1,1,0,0,1,.45.22l.14.15.09.13c.06.1.09.18.13.26a3.29,3.29,0,0,1,.16.44l.24.78a1.88,1.88,0,0,0,.25.56l.05.05h.09a2,2,0,0,0,.56-.28c.21-.14.42-.3.64-.46s.45-.33.72-.5a2,2,0,0,1,.46-.24,1.89,1.89,0,0,1,.34-.09,1.07,1.07,0,0,1,.5.07,1.18,1.18,0,0,1,.37.26l.19.24a3.62,3.62,0,0,1,.24.43c.13.27.23.5.35.72a2,2,0,0,0,.36.54.7.7,0,0,0,.38.22.51.51,0,0,0,.4-.07,1.41,1.41,0,0,0,.45-.39,6.85,6.85,0,0,0,.45-.61,4.67,4.67,0,0,1,.59-.74,1.32,1.32,0,0,1,1-.42,1.28,1.28,0,0,1,.43.14l.18.11.12.11a2.09,2.09,0,0,1,.2.22l.15.22.12.2c.23.48.48.94.75,1.39.12.18.26.3.31.3a.46.46,0,0,0,.24-.07,4.62,4.62,0,0,0,.89-1.08,6.14,6.14,0,0,1,.54-.72,1.31,1.31,0,0,1,.61-.43h.33l.3.08a.76.76,0,0,1,.19.12.53.53,0,0,1,.14.12,3.66,3.66,0,0,1,.59.77c.15.23.29.44.44.63.29.4.61.64.84.62a.36.36,0,0,0,.31-.12,1.51,1.51,0,0,0,.29-.49c.1-.22.18-.48.32-.78a2,2,0,0,1,.13-.25l.08-.13.13-.15a1.18,1.18,0,0,1,.18-.13.94.94,0,0,1,.22-.12l.25,0a1,1,0,0,1,.24,0,1.62,1.62,0,0,1,.61.24c.14.09.27.19.4.29l.65.56a9.35,9.35,0,0,0,1.17,1,1,1,0,0,0,.23.13h0a1,1,0,0,0,.12-.23c.09-.2.18-.47.29-.75a2.45,2.45,0,0,1,.58-.9,1.68,1.68,0,0,1,1.15-.45,2.41,2.41,0,0,1,1.05.24,16.56,16.56,0,0,1,1.45.89,1.07,1.07,0,0,0,.52.2h.05a2,2,0,0,0,.11-.64,6.86,6.86,0,0,1,.12-.91,2.47,2.47,0,0,1,.1-.29,1.49,1.49,0,0,1,.2-.31,1.23,1.23,0,0,1,.34-.26,1.4,1.4,0,0,1,.4-.11,2.29,2.29,0,0,1,1,.23c.56.22,1,.5,1.51.72a4.27,4.27,0,0,0,.67.27h.23a.53.53,0,0,0,.1-.35,3.35,3.35,0,0,0-.13-.69,7,7,0,0,1-.19-.91,1.14,1.14,0,0,1,.07-.41.74.74,0,0,1,.44-.46.82.82,0,0,1,.44,0l.27.06c.62.18,1.09.41,1.58.58a4.23,4.23,0,0,0,.7.18h.34c.06-.06.09-.16.06-.36a2.41,2.41,0,0,0-.24-.63c-.11-.23-.25-.45-.39-.73a1.89,1.89,0,0,1-.11-.25v-.24a.81.81,0,0,1,0-.22.55.55,0,0,1,.2-.25l.1-.06h.62c.59.1,1.11.24,1.64.35h0a2.49,2.49,0,0,1,.46.09c-.08-.18-.17-.35-.27-.53h0l-.44-.82c-.07-.13-.13-.25-.2-.41s0-.08,0-.13a.57.57,0,0,1,0-.26v-.14a.43.43,0,0,1,.15-.18.46.46,0,0,1,.19-.08h.2a4.19,4.19,0,0,1,.86.15h0a15.11,15.11,0,0,0,1.49.3l-.35-.36c-.29-.28-.59-.53-.89-.84l-.32-.35a.89.89,0,0,1-.15-.27.38.38,0,0,1,0-.15.43.43,0,0,1,.06-.22c0-.08.09-.1.14-.15l.11,0a1.46,1.46,0,0,1,.51,0h0l.84.08.8.09h.37l-.05-.07-.27-.27-.6-.54c-.22-.19-.42-.38-.62-.59a1.38,1.38,0,0,1-.22-.26l-.07-.12a.48.48,0,0,1,0-.37.45.45,0,0,1,.21-.24h.12a1.4,1.4,0,0,1,.5,0l.41.12a6.29,6.29,0,0,0,.74.22l-.16-.2c-.17-.19-.37-.37-.57-.56l-.61-.55a2.91,2.91,0,0,1-.3-.31h0a.16.16,0,0,1-.07-.09.28.28,0,0,1,0-.25l.08-.08c.09-.05.15,0,.21-.05h.83a.87.87,0,0,0,.32-.06h0a.42.42,0,0,0-.14-.09,10.14,10.14,0,0,0-1.19-.47h0Z" transform="translate(-4.17 -13.85)"></path><path class="cls-5" d="M265.37,367.05c0,6.44-7.35,14.84-26.39,14.84s-26.39-8.4-26.39-14.84,14.5-17.33,26.39-17.33S265.37,360.61,265.37,367.05Z" transform="translate(-4.17 -13.85)"></path><path class="cls-8" d="M266.13,366h.21l-.24,1.52V368l.3.24-1,1.94-.16.54.19.07-9.35,15.89s-5,6.71-18,6.71-17.56-7.84-17.56-7.84l-6.84-11.84L212,371.8l.08-.65-.93-1.29.23-.13v-.56l-.17-1.57h.18l1.17-1.29v-.14l-.34-1h.2a.65.65,0,0,0,.22.11l.32.08c.22,0,.44.08.66.1a.11.11,0,0,1,.11.13h0a.11.11,0,0,1,0,.08h0a9.22,9.22,0,0,0-1,.8,6,6,0,0,0-.93.89.52.52,0,0,0-.11.19h.06a1.94,1.94,0,0,0,.59-.06,8.84,8.84,0,0,0,1.24-.37.21.21,0,0,1,.27.13h0a.22.22,0,0,1,0,.22h0l-1,1a11.12,11.12,0,0,0-.81.92l.62-.11c.46-.1.94-.22,1.4-.34a.32.32,0,0,1,.38.22h0a.29.29,0,0,1-.06.28h0c-.32.37-.64.75-.94,1.14-.15.2-.29.39-.42.59v.07h.32l.72-.15c.48-.11,1-.23,1.43-.37a.4.4,0,0,1,.47.27.39.39,0,0,1-.07.33h0a13.1,13.1,0,0,0-.92,1.29,4.45,4.45,0,0,0-.26.48,11.78,11.78,0,0,0,1.52-.41l.79-.24.42-.11h.24a.69.69,0,0,1,.35,0h.09l.13.07a.53.53,0,0,1,.19.23v.27a1.41,1.41,0,0,1,0,.29,2,2,0,0,1-.09.44l-.21.79a3.22,3.22,0,0,0-.11.62,5.05,5.05,0,0,0,.53-.24c.24-.12.47-.26.71-.39L220,374l.45-.2h.5l.15.06.1.08a.9.9,0,0,1,.15.19,1.55,1.55,0,0,1,.07.23,2.35,2.35,0,0,1,0,.53v.43q0,.39,0,.78v.34a.14.14,0,0,0,0,.09h.13a11.86,11.86,0,0,0,1.36-.73c.24-.14.49-.29.77-.42a2.78,2.78,0,0,1,.51-.17h.41a1,1,0,0,1,.46.22l.14.15.09.13a2.1,2.1,0,0,1,.13.26,3.29,3.29,0,0,1,.16.44l.24.78a1.88,1.88,0,0,0,.25.56h.14a2.29,2.29,0,0,0,.56-.29c.21-.13.42-.29.64-.45a7,7,0,0,1,.71-.5,3,3,0,0,1,.47-.25l.34-.08a1,1,0,0,1,.5.07,1,1,0,0,1,.36.25,1.57,1.57,0,0,1,.2.25,2.55,2.55,0,0,1,.23.43c.14.26.24.5.36.72a2.21,2.21,0,0,0,.36.54.69.69,0,0,0,.37.21.54.54,0,0,0,.41-.07,1.5,1.5,0,0,0,.45-.38c.15-.18.29-.39.45-.62a5.81,5.81,0,0,1,.58-.73,1.65,1.65,0,0,1,.57-.37,1.38,1.38,0,0,1,.45-.05,1.08,1.08,0,0,1,.43.13l.17.11.13.11a1.06,1.06,0,0,1,.19.23.8.8,0,0,1,.15.21,2.39,2.39,0,0,1,.13.21c.29.52.49,1,.74,1.39a1.11,1.11,0,0,0,.31.3.54.54,0,0,0,.24-.08,4.61,4.61,0,0,0,.9-1.07,6.48,6.48,0,0,1,.53-.73,1.42,1.42,0,0,1,.62-.43.91.91,0,0,1,.33,0,1,1,0,0,1,.29.08l.2.11.14.12a4.49,4.49,0,0,1,.59.77,6.62,6.62,0,0,0,.44.64c.29.4.61.64.84.62a.45.45,0,0,0,.31-.12,1.86,1.86,0,0,0,.29-.49c.1-.23.18-.48.31-.78a1.23,1.23,0,0,1,.14-.25.57.57,0,0,1,.08-.13l.13-.15.17-.14a.91.91,0,0,1,.22-.11l.26-.06h.24a1.62,1.62,0,0,1,.61.24,3.89,3.89,0,0,1,.39.28c.24.19.44.38.65.57a9.35,9.35,0,0,0,1.17,1l.24.13h0a1.71,1.71,0,0,0,.13-.23c.09-.21.17-.47.29-.76a2.68,2.68,0,0,1,.58-.9,1.8,1.8,0,0,1,1.15-.45,2.57,2.57,0,0,1,1,.25,16.29,16.29,0,0,1,1.44.88,1.67,1.67,0,0,0,.52.21h.06a2.68,2.68,0,0,0,.11-.63,4.73,4.73,0,0,1,.12-.92,1.33,1.33,0,0,1,.1-.28,1.27,1.27,0,0,1,.2-.31,1.06,1.06,0,0,1,.34-.26,1.34,1.34,0,0,1,.39-.11,2.4,2.4,0,0,1,1.06.22c.56.23,1,.51,1.51.73a3.77,3.77,0,0,0,.66.26h.24a.45.45,0,0,0,.09-.35,2.62,2.62,0,0,0-.12-.68,5.66,5.66,0,0,1-.19-.91,1,1,0,0,1,.06-.41.76.76,0,0,1,.45-.46.82.82,0,0,1,.44,0l.27.05c.62.18,1.08.42,1.58.58a2.7,2.7,0,0,0,.69.18h.35a.39.39,0,0,0,.06-.36,2.48,2.48,0,0,0-.24-.64c-.11-.23-.25-.45-.39-.72a2,2,0,0,1-.11-.26.45.45,0,0,1,0-.23.81.81,0,0,1,0-.22.49.49,0,0,1,.21-.26l.1-.06h.61c.6.09,1.12.23,1.65.34a4.21,4.21,0,0,0,.49.09c-.2-.43-.47-.88-.71-1.35-.07-.13-.14-.27-.2-.41v-.14a.53.53,0,0,1,0-.25.33.33,0,0,1,0-.14.4.4,0,0,1,.15-.19.44.44,0,0,1,.19-.07h.2a6.64,6.64,0,0,1,.87.16,15.15,15.15,0,0,0,1.49.31,4,4,0,0,0-.35-.36c-.38-.38-.79-.71-1.2-1.19a1.56,1.56,0,0,1-.16-.28.38.38,0,0,1,0-.15.43.43,0,0,1,.2-.36l.11-.05a1.57,1.57,0,0,1,.53-.05,7.26,7.26,0,0,1,.84.08c.27,0,.54.07.8.08h.36v-.06a1.33,1.33,0,0,0-.26-.27c-.19-.19-.4-.37-.61-.55a5.58,5.58,0,0,1-.61-.58,2.19,2.19,0,0,1-.29-.39.48.48,0,0,1,0-.37.42.42,0,0,1,.33-.27,1.4,1.4,0,0,1,.5,0,1.48,1.48,0,0,1,.41.12,6.29,6.29,0,0,0,.74.22c0-.06-.1-.14-.16-.2s-.38-.38-.58-.56l-.61-.56a2.91,2.91,0,0,1-.3-.31.61.61,0,0,1-.07-.1.23.23,0,0,1,0-.25.37.37,0,0,1,.28-.13h.84a1.55,1.55,0,0,0,.31-.06H266l.11.05-.42,1.18v.19Z" transform="translate(-4.17 -13.85)"></path><polygon class="cls-9" points="232.24 365.79 234.54 379.6 237.06 365.65 234.65 363.43 232.24 365.79"></polygon><polygon class="cls-9" points="227.66 365.06 229.74 379.14 231.58 365.76 229.74 363.12 227.66 365.06"></polygon><polygon class="cls-9" points="221.76 364.33 225.78 378.22 226.34 365.11 224.62 362.88 221.76 364.33"></polygon><polygon class="cls-9" points="216.86 363.12 221.06 376.02 221.18 364.23 220.14 361.81 216.86 363.12"></polygon><polygon class="cls-9" points="216.39 360.43 213.09 361.52 218.17 373.75 216.47 362.88 216.39 360.43"></polygon><polygon class="cls-9" points="213.35 358.97 209.84 359.6 216.86 372.28 212.93 361.42 213.35 358.97"></polygon><polygon class="cls-9" points="208.49 357.72 209.57 359.79 210.9 357.5 208.49 357.72"></polygon><polygon class="cls-9" points="239.35 363.43 238 365.63 238 379.14 242.47 365.63 239.35 363.43"></polygon><polygon class="cls-9" points="244.42 363.43 243.1 365.63 241.79 378.5 247.64 364.82 244.42 363.43"></polygon><polygon class="cls-9" points="248.83 362.22 248.23 364.59 245.53 377.22 252.68 363.43 248.83 362.22"></polygon><polygon class="cls-9" points="252.99 360.54 253.27 363.12 248.67 375.54 256.32 361.28 252.99 360.54"></polygon><polygon class="cls-9" points="256.7 360.86 251.42 373.32 259.13 358.97 256.18 358.65 256.7 360.86"></polygon><polygon class="cls-9" points="259.13 358.65 260.38 356.7 258.19 356.46 259.13 358.65"></polygon><polygon class="cls-9" points="259.29 354.34 260.85 355.71 261.59 354.34 259.29 354.34"></polygon><polygon class="cls-9" points="261.38 352.29 259.96 351.95 261.38 353.47 261.38 352.29"></polygon><polygon class="cls-9" points="261.22 349.94 260.12 350.06 261.11 350.85 261.22 349.94"></polygon><polygon class="cls-9" points="209.26 355.62 207.4 355.91 208.64 356.84 209.26 355.62"></polygon><polygon class="cls-9" points="209.03 353.65 207.31 353.8 207.7 355.02 209.03 353.65"></polygon><path class="cls-8" d="M264.33,362.9a7.91,7.91,0,0,1,1.24.43l.2.11.05.06a.29.29,0,0,1,0,.13.22.22,0,0,1-.09.17h-.08a1.24,1.24,0,0,1-.38.09h-.81a2.37,2.37,0,0,0,.28.27l.63.54h.05c.19.17.38.33.57.52a1.76,1.76,0,0,1,.29.37.61.61,0,0,1,0,.19.31.31,0,0,1-.16.24h-.05a.62.62,0,0,1-.27,0,5.35,5.35,0,0,1-.8,0,2.62,2.62,0,0,1-.38-.09.61.61,0,0,0-.27,0h0a1.71,1.71,0,0,0,.21.26c.19.18.39.35.6.52s.43.35.64.54l.27.25v0l.15.2a.56.56,0,0,1,.11.37.46.46,0,0,1-.13.27l-.18.11-.18,0h-.09a3.38,3.38,0,0,1-.45,0,4,4,0,0,1-.85-.06l-.75-.06c.29.31.66.61,1,.93a3.94,3.94,0,0,1,.62.67v.07a.72.72,0,0,1,.1.24.58.58,0,0,1,0,.32.48.48,0,0,1-.12.16l-.13.08-.15.05a1.55,1.55,0,0,1-.43,0,11.93,11.93,0,0,1-1.67-.3h-.32a1.71,1.71,0,0,1,.13.23c.22.39.47.78.68,1.23a1.7,1.7,0,0,1,.16.53v.13a.86.86,0,0,1-.07.21.44.44,0,0,1-.19.19.44.44,0,0,1-.16.06.86.86,0,0,1-.32,0,6.57,6.57,0,0,1-.89-.12h-.19l-1.08-.21.23.4a3.17,3.17,0,0,1,.31.79h0v.1a1.47,1.47,0,0,1,0,.59,1.25,1.25,0,0,1-.29.6,1.2,1.2,0,0,1-.63.35h-.17a1.21,1.21,0,0,1-.38,0,4.8,4.8,0,0,1-.91-.21c-.49-.15-1-.35-1.37-.48a1.94,1.94,0,0,0,.11.43,3.71,3.71,0,0,1,.17.94,1.6,1.6,0,0,1-.41,1.16,1.21,1.21,0,0,1-.72.31,1.86,1.86,0,0,1-.57-.07,4.54,4.54,0,0,1-.87-.32c-.52-.24-1-.51-1.46-.69a1.59,1.59,0,0,0-.52-.13.61.61,0,0,0-.05.12,5.87,5.87,0,0,0-.08.72,3.09,3.09,0,0,1-.17,1,1,1,0,0,1-.18.31c0,.06-.09.11-.13.16l-.19.13a1.12,1.12,0,0,1-.4.14h-.33a2.38,2.38,0,0,1-1-.34c-.53-.31-.95-.65-1.36-.83s-.73-.16-.88,0a1.36,1.36,0,0,0-.29.49c-.09.22-.17.48-.3.77a2.34,2.34,0,0,1-.27.49,1.23,1.23,0,0,1-1.06.49,1.37,1.37,0,0,1-.35-.08,2.26,2.26,0,0,1-.49-.25,10.33,10.33,0,0,1-1.34-1.12c-.2-.18-.4-.36-.59-.51a1.89,1.89,0,0,0-.27-.2h-.05v.08c-.09.2-.18.46-.3.75a2.85,2.85,0,0,1-.56.89,1.61,1.61,0,0,1-1.17.48,1.91,1.91,0,0,1-1.13-.39,3.37,3.37,0,0,1-.7-.71c-.18-.24-.35-.49-.49-.71l-.27-.39a4.74,4.74,0,0,0-.37.51,5,5,0,0,1-1.24,1.4,1.51,1.51,0,0,1-1.32.22,1.85,1.85,0,0,1-.91-.77,16.47,16.47,0,0,1-.81-1.49,2.16,2.16,0,0,0-.24-.35l-.06,0c-.27.26-.56.79-1,1.26a2.9,2.9,0,0,1-.81.67,1.83,1.83,0,0,1-1.17.19,2,2,0,0,1-1-.58,3.25,3.25,0,0,1-.56-.81c-.14-.27-.25-.53-.36-.76a1.6,1.6,0,0,0-.16-.29h0l-.24.12c-.2.12-.41.28-.63.44s-.45.33-.71.49a3,3,0,0,1-.9.43,1.3,1.3,0,0,1-.73,0,1.24,1.24,0,0,1-.6-.43,3.12,3.12,0,0,1-.44-.92c-.09-.28-.15-.55-.23-.8a2.19,2.19,0,0,0-.12-.33v-.08l-.21.08c-.21.1-.45.22-.68.35a10.23,10.23,0,0,1-1.54.8,1.94,1.94,0,0,1-.58.12H221a.68.68,0,0,1-.24-.08.83.83,0,0,1-.21-.16,1.09,1.09,0,0,1-.13-.17,2,2,0,0,1-.15-.33.5.5,0,0,0-.05-.27,3.84,3.84,0,0,1,0-.48V375l-.65.34c-.24.13-.48.27-.74.39a3.84,3.84,0,0,1-.87.34h-.58a.5.5,0,0,1-.27-.18.84.84,0,0,1-.21-.42,1.61,1.61,0,0,1,0-.31h0a4.3,4.3,0,0,1,.16-.87l.23-.8v-.13l-.25.06-.79.22-.24.07a8.61,8.61,0,0,1-1.42.33,1.51,1.51,0,0,1-.6,0l-.14-.08a.93.93,0,0,1-.14-.14,1.09,1.09,0,0,1-.08-.15v-.14a1,1,0,0,1,0-.35,3.85,3.85,0,0,1,.43-.83c.11-.18.23-.34.35-.51l-.43.1-.75.14-.4.05h-.47a.64.64,0,0,1-.24-.1.44.44,0,0,1-.16-.37.85.85,0,0,1,.09-.31l.05-.09a2.46,2.46,0,0,1,.17-.27,5.64,5.64,0,0,1,.46-.63l.37-.44-.52.1c-.24,0-.49.08-.75.1h-.47l-.13-.06a.42.42,0,0,1-.11-.18v-.11a.64.64,0,0,1,.06-.18l.13-.18.09-.12c.3-.35.61-.66.93-1l.44-.42-.47.11a2.17,2.17,0,0,1-.72,0,.51.51,0,0,1-.17-.07h-.06a.36.36,0,0,1-.12-.31.75.75,0,0,1,.2-.37,6.63,6.63,0,0,1,1-.91l.1-.07c.25-.19.5-.36.75-.53l-.4-.08a1.91,1.91,0,0,1-.34-.1l-.17-.07h0a.29.29,0,0,1-.13-.14v-.1a.09.09,0,0,1,0-.07.27.27,0,0,1,.08-.07l.14-.11.3-.18.54-.3v.15l-.47.28-.28.19-.12.11h0a.65.65,0,0,0,.22.11l.32.08a3.5,3.5,0,0,0,.45.07h.21a.11.11,0,0,1,.11.13h0a.11.11,0,0,1,0,.08h0l-.22.17c-.28.2-.56.41-.82.63a6,6,0,0,0-.93.89.52.52,0,0,0-.11.19h.06a1.94,1.94,0,0,0,.59-.06,8.84,8.84,0,0,0,1.24-.37.19.19,0,0,1,.18,0h0a.17.17,0,0,1,.09.11.21.21,0,0,1,0,.19h0l-1,1a11.12,11.12,0,0,0-.81.92l.62-.11c.46-.1.94-.22,1.4-.34a.28.28,0,0,1,.22,0h0a.29.29,0,0,1,.16.2.33.33,0,0,1,0,.24h0c-.32.37-.64.75-.94,1.14-.15.2-.29.39-.42.59v.07h.32l.72-.15.89-.22.54-.15a.4.4,0,0,1,.47.27.38.38,0,0,1-.07.33h0c-.16.2-.31.41-.47.62s-.31.45-.45.67a4.45,4.45,0,0,0-.26.48,10.78,10.78,0,0,0,1.12-.28l.4-.13.79-.24.42-.11h.24a.69.69,0,0,1,.35,0h.09l.13.07a.53.53,0,0,1,.19.23v.27a1.41,1.41,0,0,1,0,.29,2,2,0,0,1-.09.44l-.21.79a3.22,3.22,0,0,0-.11.62,5.05,5.05,0,0,0,.53-.24c.24-.12.47-.26.71-.39L220,374l.45-.2h.5l.15.06.1.08a.9.9,0,0,1,.15.19,1.55,1.55,0,0,1,.07.23,2.35,2.35,0,0,1,0,.53v.43q0,.39,0,.78v.34a.14.14,0,0,0,0,.09h.13a11.86,11.86,0,0,0,1.36-.73c.24-.14.49-.29.77-.42a2.78,2.78,0,0,1,.51-.17h.41a1,1,0,0,1,.46.22l.14.15.09.13a2.1,2.1,0,0,1,.13.26,3.29,3.29,0,0,1,.16.44l.24.78a1.88,1.88,0,0,0,.25.56h.14a2.29,2.29,0,0,0,.56-.29c.21-.13.42-.29.64-.45a7,7,0,0,1,.71-.5,3,3,0,0,1,.47-.25l.34-.08a1,1,0,0,1,.5.07,1,1,0,0,1,.36.25,1.57,1.57,0,0,1,.2.25,2.55,2.55,0,0,1,.23.43c.14.26.24.5.36.72a2.21,2.21,0,0,0,.36.54.69.69,0,0,0,.37.21.54.54,0,0,0,.41-.07,1.5,1.5,0,0,0,.45-.38c.15-.18.29-.39.45-.62a5.81,5.81,0,0,1,.58-.73,1.65,1.65,0,0,1,.57-.37,1.38,1.38,0,0,1,.45-.05,1.08,1.08,0,0,1,.43.13l.17.11.13.11a1.06,1.06,0,0,1,.19.23.8.8,0,0,1,.15.21,2.39,2.39,0,0,1,.13.21c.29.52.49,1,.74,1.39a1.11,1.11,0,0,0,.31.3.54.54,0,0,0,.24-.08,4.61,4.61,0,0,0,.9-1.07,6.48,6.48,0,0,1,.53-.73,1.42,1.42,0,0,1,.62-.43.92.92,0,0,1,.33,0,1,1,0,0,1,.29.08l.2.11.14.12a4.49,4.49,0,0,1,.59.77,6.62,6.62,0,0,0,.44.64c.29.4.61.64.84.62a.45.45,0,0,0,.31-.12,1.86,1.86,0,0,0,.29-.49c.1-.23.18-.48.31-.78a1.23,1.23,0,0,1,.14-.25.57.57,0,0,1,.08-.13l.13-.15.17-.14a.91.91,0,0,1,.22-.11l.26-.06h.24a1.62,1.62,0,0,1,.61.24,3.89,3.89,0,0,1,.39.28c.24.19.44.38.65.57a9.35,9.35,0,0,0,1.17,1l.24.13h0a1.71,1.71,0,0,0,.13-.23c.09-.21.17-.47.29-.76a2.68,2.68,0,0,1,.58-.9,1.8,1.8,0,0,1,1.15-.45,2.57,2.57,0,0,1,1,.25,16.29,16.29,0,0,1,1.44.88,1.67,1.67,0,0,0,.52.21H252a2.68,2.68,0,0,0,.11-.63,4.73,4.73,0,0,1,.12-.92,1.33,1.33,0,0,1,.1-.28,1.27,1.27,0,0,1,.2-.31,1.06,1.06,0,0,1,.34-.26,1.34,1.34,0,0,1,.39-.11,2.4,2.4,0,0,1,1.06.22c.56.23,1,.51,1.51.73a3.77,3.77,0,0,0,.66.26h.24a.45.45,0,0,0,.09-.35,2.62,2.62,0,0,0-.12-.68,5.66,5.66,0,0,1-.19-.91,1,1,0,0,1,.06-.41A.76.76,0,0,1,257,374a.82.82,0,0,1,.44,0l.27.05c.62.18,1.08.42,1.58.58a2.7,2.7,0,0,0,.69.18h.35a.39.39,0,0,0,.06-.36,2.48,2.48,0,0,0-.24-.64c-.11-.23-.25-.45-.39-.72a2,2,0,0,1-.11-.26.45.45,0,0,1,0-.23.81.81,0,0,1,0-.22.49.49,0,0,1,.21-.26l.1-.06h.61c.6.09,1.12.23,1.65.34h0l.47.08c-.08-.17-.17-.35-.27-.53h0c-.14-.27-.3-.54-.44-.82-.07-.13-.14-.27-.2-.41v-.14a.53.53,0,0,1,0-.25.33.33,0,0,1,0-.14A.4.4,0,0,1,262,370a.44.44,0,0,1,.19-.07h.2a5,5,0,0,1,.86.16h0a15.15,15.15,0,0,0,1.49.31,4,4,0,0,0-.35-.36c-.28-.28-.58-.53-.88-.84-.11-.11-.21-.23-.32-.35a1.56,1.56,0,0,1-.16-.28.38.38,0,0,1,0-.15.43.43,0,0,1,.2-.36l.11-.05a1.48,1.48,0,0,1,.51-.05h0a7.26,7.26,0,0,1,.84.08c.27,0,.54.07.8.08h.36v-.06a1.33,1.33,0,0,0-.26-.27c-.19-.19-.4-.37-.61-.55a5.58,5.58,0,0,1-.61-.58,1.44,1.44,0,0,1-.22-.27.75.75,0,0,1-.07-.12.48.48,0,0,1,0-.37.43.43,0,0,1,.21-.23h.12a1.4,1.4,0,0,1,.5,0,1.48,1.48,0,0,1,.41.12,6.29,6.29,0,0,0,.74.22c0-.06-.1-.14-.16-.2s-.38-.38-.58-.56l-.61-.56a2.91,2.91,0,0,1-.3-.31h0l-.06-.09a.23.23,0,0,1,0-.25l.08-.08a.46.46,0,0,1,.2,0h.84a1.55,1.55,0,0,0,.31-.06h0a.57.57,0,0,0-.13-.08,10.14,10.14,0,0,0-1.19-.47h0Z" transform="translate(-4.17 -13.85)"></path><path class="cls-6" d="M216.89,357.85s-2.77,1.89-2.74,4.16,2.75,6.42,5.33,7.46c16.27,6.6,23.7-.32,31.62,0S263,366,263.65,363.64s-.65-5.13-2.76-5.6c0,0,2.2-5.35-2-6.47,0,0-1.22-6.47-6.66-6,0,0,.47-3.7-5.34-5.67s-7-2.77-6.7-4.41,6.6-2.48,6-5.67a6.92,6.92,0,0,1-4.35,1.6c-2.72,0-10.6,1.5-12.75,4.5A7,7,0,0,0,228,342s-4.47-1.46-6.3.49-1.36,5.09-1.36,5.09-3.93.79-5.11,4.42A5.79,5.79,0,0,0,216.89,357.85Z" transform="translate(-4.17 -13.85)"></path><g class="cls-7"><path d="M261,358.16a23.46,23.46,0,0,1-4.13,1c-1.52.29-3,.62-4.54.92-3.07.61-6.16,1.06-9.27,1.4a56.66,56.66,0,0,1-17-.29,30.62,30.62,0,0,1-9-3.11c-.09,0-.16.09-.07.14a37.61,37.61,0,0,0,16,4.6c6.2.41,12.25-.68,18.29-1.92,1.71-.36,3.42-.71,5.11-1.13a18.49,18.49,0,0,0,4.65-1.46.11.11,0,0,0,0-.13Z" transform="translate(-4.17 -13.85)"></path><path d="M258.65,351.89a25.31,25.31,0,0,1-7.14,2,66.84,66.84,0,0,1-7.75.28,60.78,60.78,0,0,1-8.53-.42,34.78,34.78,0,0,1-7.24-1.83,37,37,0,0,1-7.58-3.79c-.07,0-.16.07-.09.13A29.29,29.29,0,0,0,234,354.45a45.54,45.54,0,0,0,8.57.45c2.74-.07,5.49-.25,8.22-.51s5.67-.74,7.91-2.42C258.73,351.94,258.7,351.86,258.65,351.89Z" transform="translate(-4.17 -13.85)"></path><path d="M252.14,345.86c-1,.14-1.95.51-2.94.68a29.59,29.59,0,0,1-3.11.35,28.61,28.61,0,0,1-6.27-.29,30.34,30.34,0,0,1-11.61-4.37c-.07-.05-.16.07-.09.12a24.3,24.3,0,0,0,18.78,5.07,23.24,23.24,0,0,0,2.61-.54,11.94,11.94,0,0,0,2.67-.88C252.24,346,252.22,345.85,252.14,345.86Z" transform="translate(-4.17 -13.85)"></path></g><path class="cls-5" d="M324.41,376.7c0,6.44,7.34,14.85,26.38,14.85s26.39-8.41,26.39-14.85-14.5-17.33-26.39-17.33S324.41,370.26,324.41,376.7Z" transform="translate(-4.17 -13.85)"></path><path class="cls-9" d="M323.64,375.61h-.2l.23,1.52v.44l-.3.25.95,1.93.16.54-.18.08,9.35,15.88s5,6.71,18,6.71,17.56-7.84,17.56-7.84L376,383.28l1.64-1.88-.07-.65.93-1.29-.24-.13v-.55l.17-1.58h-.17l-1.18-1.28v-.15l.35-1h-.2a.57.57,0,0,1-.22.11l-.32.08a4.92,4.92,0,0,1-.67.1.11.11,0,0,0-.11.13h0a.14.14,0,0,0,.05.08h0l1,.8a6.45,6.45,0,0,1,.92.89.56.56,0,0,1,.11.2H378a1.94,1.94,0,0,1-.59-.05,10.3,10.3,0,0,1-1.23-.38.22.22,0,0,0-.28.13.22.22,0,0,0,0,.22h0l1,1a8.34,8.34,0,0,1,.81.92l-.61-.11c-.47-.1-.94-.22-1.41-.34a.31.31,0,0,0-.38.23.34.34,0,0,0,.07.29h0c.33.36.64.74.94,1.13.15.2.29.39.42.59l.05.07h-.33l-.72-.15c-.47-.11-1-.23-1.43-.36a.37.37,0,0,0-.46.25h0a.38.38,0,0,0,.06.34h0a13.1,13.1,0,0,1,.92,1.29,4.45,4.45,0,0,1,.26.48,11.22,11.22,0,0,1-1.51-.41l-.8-.23-.42-.12h-.23a1,1,0,0,0-.35,0h-.09l-.14.07a.58.58,0,0,0-.18.23v.27a1.41,1.41,0,0,0,0,.29c0,.15.06.3.1.44l.21.79a6.17,6.17,0,0,1,.11.62,2.61,2.61,0,0,1-.54-.24c-.23-.12-.47-.25-.7-.39l-.74-.41a2.25,2.25,0,0,0-.45-.19.48.48,0,0,0-.17-.05h-.33l-.15.06-.1.08a.9.9,0,0,0-.15.19,1.55,1.55,0,0,0-.07.23,2.35,2.35,0,0,0,0,.53v1.21a1.93,1.93,0,0,1,0,.34v.09h-.12a12,12,0,0,1-1.37-.73c-.24-.14-.49-.28-.77-.41a2.21,2.21,0,0,0-.51-.18h-.41a1,1,0,0,0-.46.22l-.14.15-.08.13a1.3,1.3,0,0,0-.14.26l-.16.44-.23.78a1.91,1.91,0,0,1-.26.56v0h-.08a2,2,0,0,1-.57-.28c-.21-.14-.42-.3-.64-.46s-.44-.34-.71-.5a2.08,2.08,0,0,0-.47-.24,1.89,1.89,0,0,0-.34-.09.91.91,0,0,0-.49.07.94.94,0,0,0-.37.25,2.35,2.35,0,0,0-.19.25,3.62,3.62,0,0,0-.24.43l-.35.72a2.25,2.25,0,0,1-.37.54.71.71,0,0,1-.37.22.58.58,0,0,1-.41-.07,1.49,1.49,0,0,1-.44-.39c-.15-.18-.3-.38-.46-.61a5.9,5.9,0,0,0-.58-.74,1.62,1.62,0,0,0-.57-.36,1.09,1.09,0,0,0-.44-.06,1,1,0,0,0-.44.14l-.17.1-.13.12c-.08.08-.13.15-.19.22l-.15.21-.12.21c-.23.48-.48.94-.75,1.39a.89.89,0,0,1-.31.3.54.54,0,0,1-.24-.08,4.57,4.57,0,0,1-.89-1.07c-.17-.25-.35-.5-.54-.73a1.46,1.46,0,0,0-.61-.42.91.91,0,0,0-.33,0,1.67,1.67,0,0,0-.3.08c-.09,0-.13.08-.19.11l-.15.13a4.91,4.91,0,0,0-.59.77c-.15.23-.29.44-.43.63-.3.4-.61.64-.84.62a.39.39,0,0,1-.31-.12,1.54,1.54,0,0,1-.3-.49c-.09-.22-.17-.48-.31-.78a2,2,0,0,0-.13-.25l-.09-.13-.13-.15a.7.7,0,0,0-.17-.13.48.48,0,0,0-.22-.12l-.25-.05h-.24a1.62,1.62,0,0,0-.61.24,3.69,3.69,0,0,0-.4.29c-.24.18-.44.38-.65.56a9.35,9.35,0,0,1-1.17,1l-.24.13h0c0-.05-.08-.13-.13-.23s-.17-.47-.29-.75a2.45,2.45,0,0,0-.58-.9,1.67,1.67,0,0,0-1.14-.45,2.42,2.42,0,0,0-1.06.24,15,15,0,0,0-1.44.89,1.23,1.23,0,0,1-.52.2h-.06a2.67,2.67,0,0,1-.1-.63,5.54,5.54,0,0,0-.13-.91,1,1,0,0,0-.1-.29,1.44,1.44,0,0,0-.19-.31,1.1,1.1,0,0,0-.35-.26,1,1,0,0,0-.39-.11,2.39,2.39,0,0,0-1.05.22c-.57.23-1,.51-1.51.73a4.27,4.27,0,0,1-.67.27h-.24A.47.47,0,0,1,333,386a3.87,3.87,0,0,1,.12-.68,4.75,4.75,0,0,0,.19-.91,1,1,0,0,0-.06-.41.74.74,0,0,0-.44-.46,1.14,1.14,0,0,0-.45,0,1.31,1.31,0,0,0-.27.06c-.61.17-1.08.41-1.58.57a2.7,2.7,0,0,1-.69.18.53.53,0,0,1-.25,0h-.09a.39.39,0,0,1-.06-.36,2.08,2.08,0,0,1,.23-.63c.12-.23.25-.45.39-.73a1.12,1.12,0,0,0,.11-.25,1,1,0,0,0,.05-.24.81.81,0,0,0,0-.22.63.63,0,0,0-.2-.26l-.11-.05h-.61c-.59.09-1.12.24-1.64.34l-.5.1c.2-.44.47-.89.72-1.36.06-.13.13-.26.19-.41a.69.69,0,0,1,.05-.13,1.13,1.13,0,0,0,0-.26v-.14a.7.7,0,0,0-.15-.19.48.48,0,0,0-.2-.07h-.19a4.38,4.38,0,0,0-.88.15,12.71,12.71,0,0,1-1.49.31l.35-.36a15,15,0,0,0,1.2-1.19,1,1,0,0,0,.16-.28V378a.39.39,0,0,0-.06-.21.5.5,0,0,0-.14-.15l-.12-.05a1.57,1.57,0,0,0-.53,0l-.84.08-.8.09H324l.05-.07.26-.27c.2-.19.4-.36.61-.54s.42-.38.62-.59a1.49,1.49,0,0,0,.28-.38.48.48,0,0,0,0-.37.43.43,0,0,0-.32-.28,1.4,1.4,0,0,0-.5,0l-.42.12a4.71,4.71,0,0,1-.73.22l.15-.2c.18-.19.38-.38.58-.56l.61-.56q.15-.13.3-.3l.07-.11a.23.23,0,0,0,0-.25.39.39,0,0,0-.29-.13h-.83a.87.87,0,0,1-.32-.06H324l-.1.05.41,1.18.05.19Z" transform="translate(-4.17 -13.85)"></path><polygon class="cls-8" points="349.2 375.44 346.89 389.26 344.37 375.3 346.78 373.08 349.2 375.44"></polygon><polygon class="cls-8" points="353.78 374.71 351.7 388.79 349.86 375.41 351.7 372.77 353.78 374.71"></polygon><polygon class="cls-8" points="359.68 373.99 355.65 387.88 355.1 374.77 356.81 372.53 359.68 373.99"></polygon><polygon class="cls-8" points="364.57 372.77 360.38 385.68 360.25 373.88 361.29 371.46 364.57 372.77"></polygon><polygon class="cls-8" points="365.04 370.08 368.34 371.17 363.26 383.4 364.96 372.53 365.04 370.08"></polygon><polygon class="cls-8" points="368.08 368.62 371.6 369.25 364.57 381.94 368.5 371.07 368.08 368.62"></polygon><polygon class="cls-8" points="372.94 367.37 371.87 369.45 370.53 367.15 372.94 367.37"></polygon><polygon class="cls-8" points="342.08 373.08 343.44 375.28 343.44 388.79 338.96 375.28 342.08 373.08"></polygon><polygon class="cls-8" points="337.02 373.08 338.33 375.28 339.64 388.15 333.79 374.47 337.02 373.08"></polygon><polygon class="cls-8" points="332.61 371.87 333.2 374.25 335.9 386.88 328.76 373.08 332.61 371.87"></polygon><polygon class="cls-8" points="328.44 370.2 328.17 372.77 332.76 385.19 325.11 370.93 328.44 370.2"></polygon><polygon class="cls-8" points="324.73 370.52 330.01 382.97 322.3 368.62 325.25 368.3 324.73 370.52"></polygon><polygon class="cls-8" points="322.3 368.3 321.05 366.35 323.24 366.11 322.3 368.3"></polygon><polygon class="cls-8" points="322.15 363.99 320.58 365.36 319.84 363.99 322.15 363.99"></polygon><polygon class="cls-8" points="320.06 361.94 321.47 361.6 320.06 363.12 320.06 361.94"></polygon><polygon class="cls-8" points="320.21 359.59 321.31 359.71 320.33 360.5 320.21 359.59"></polygon><polygon class="cls-8" points="372.17 365.28 374.03 365.56 372.79 366.49 372.17 365.28"></polygon><polygon class="cls-8" points="372.4 363.31 374.12 363.45 373.73 364.67 372.4 363.31"></polygon><path class="cls-9" d="M325.5,372.68h0a9.5,9.5,0,0,0-1.19.47l-.14.08h0a.87.87,0,0,0,.32.06h.83a.34.34,0,0,1,.2,0l.09.08a.23.23,0,0,1,0,.25l-.06.09h0q-.15.17-.3.3l-.61.56c-.2.19-.4.37-.58.56l-.15.2a4.71,4.71,0,0,0,.73-.22l.42-.12a1.4,1.4,0,0,1,.5,0h.12a.4.4,0,0,1,.2.24.48.48,0,0,1,0,.37.75.75,0,0,1-.07.12l-.21.26c-.2.21-.4.4-.62.59s-.41.35-.61.54l-.26.27-.05.07h.38l.8-.09.84-.08h0a1.46,1.46,0,0,1,.51,0l.12.05a.5.5,0,0,1,.14.15.39.39,0,0,1,.06.21v.15a1,1,0,0,1-.16.28l-.31.35c-.3.31-.6.56-.89.84l-.35.36a12.71,12.71,0,0,0,1.49-.31h0a4.19,4.19,0,0,1,.86-.15h.19a.48.48,0,0,1,.2.07.7.7,0,0,1,.15.19v.14a1.13,1.13,0,0,1,0,.26.69.69,0,0,0,0,.13c-.06.15-.13.28-.19.41s-.3.56-.45.82h0c-.1.18-.19.35-.27.53l.47-.09h0c.52-.1,1-.25,1.64-.34h.61l.11.05a.63.63,0,0,1,.2.26.81.81,0,0,1,0,.22,1,1,0,0,1-.05.24,1.12,1.12,0,0,1-.11.25c-.14.28-.27.5-.39.73a2.08,2.08,0,0,0-.23.63.39.39,0,0,0,.06.36h.09a.53.53,0,0,0,.25,0,2.7,2.7,0,0,0,.69-.18c.5-.16,1-.4,1.58-.57l.27-.06a1.14,1.14,0,0,1,.45,0,.74.74,0,0,1,.44.46,1,1,0,0,1,.06.41,4.75,4.75,0,0,1-.19.91,3.87,3.87,0,0,0-.12.68.49.49,0,0,0,.09.35h.24a4.27,4.27,0,0,0,.67-.27c.47-.22.94-.5,1.51-.73a2.39,2.39,0,0,1,1-.22,1,1,0,0,1,.39.11,1.1,1.1,0,0,1,.35.26,1.44,1.44,0,0,1,.19.31,1,1,0,0,1,.1.29,5.54,5.54,0,0,1,.13.91,2.67,2.67,0,0,0,.1.63h.06a1.23,1.23,0,0,0,.52-.2,15,15,0,0,1,1.44-.89,2.42,2.42,0,0,1,1.06-.24,1.67,1.67,0,0,1,1.14.45,2.45,2.45,0,0,1,.58.9c.12.28.2.55.29.75a.86.86,0,0,0,.13.23h0l.24-.13a9.35,9.35,0,0,0,1.17-1c.21-.18.41-.38.65-.56a3.69,3.69,0,0,1,.4-.29,1.62,1.62,0,0,1,.61-.24h.24l.25.05a.48.48,0,0,1,.22.12.7.7,0,0,1,.17.13l.13.15.09.13a2,2,0,0,1,.13.25c.14.3.22.56.31.78a1.54,1.54,0,0,0,.3.49.39.39,0,0,0,.31.12c.23,0,.54-.22.84-.62.14-.19.28-.4.43-.63a4.91,4.91,0,0,1,.59-.77l.15-.13c.06,0,.1-.07.19-.11a1.67,1.67,0,0,1,.3-.08.92.92,0,0,1,.33,0,1.46,1.46,0,0,1,.61.42c.19.23.37.48.54.73a4.57,4.57,0,0,0,.89,1.07c.14.1.21.09.24.08a.89.89,0,0,0,.31-.3c.27-.45.52-.91.75-1.39l.12-.21.15-.21c.06-.07.11-.14.19-.22l.13-.12.17-.1a1,1,0,0,1,.44-.14,1.09,1.09,0,0,1,.44.06,1.62,1.62,0,0,1,.57.36,5.9,5.9,0,0,1,.58.74c.16.23.31.43.46.61a1.49,1.49,0,0,0,.44.39.58.58,0,0,0,.41.07.67.67,0,0,0,.51.14,2.25,2.25,0,0,0,.37-.54l.35-.72a3.62,3.62,0,0,1,.24-.43,2.35,2.35,0,0,1,.19-.25.94.94,0,0,1,.37-.25.91.91,0,0,1,.49-.07,1.89,1.89,0,0,1,.34.09,2.08,2.08,0,0,1,.47.24c.27.16.49.34.71.5s.43.32.64.46a2,2,0,0,0,.57.28h.08v-.05a1.91,1.91,0,0,0,.26-.56l.23-.78.16-.44a1.3,1.3,0,0,1,.14-.26l.08-.13.14-.15a1,1,0,0,1,.46-.22,1,1,0,0,1,.24,0h.17a2.21,2.21,0,0,1,.51.18c.28.13.53.27.77.41a12,12,0,0,0,1.37.73h.12V386a1.93,1.93,0,0,0,0-.34V384.4a2.35,2.35,0,0,1,0-.53,1.55,1.55,0,0,1,.07-.23.9.9,0,0,1,.15-.19l.1-.08.15-.06h.33a.48.48,0,0,1,.17.05,2.25,2.25,0,0,1,.45.19l.74.41c.23.14.47.27.7.39a2.61,2.61,0,0,0,.54.24,6.17,6.17,0,0,0-.11-.62l-.21-.79c0-.14-.07-.29-.1-.44a1.41,1.41,0,0,1,0-.29v-.27a.58.58,0,0,1,.18-.23l.14-.07h.09a1,1,0,0,1,.35,0h.23l.42.12.8.23.4.13a10.6,10.6,0,0,0,1.11.28,3.67,3.67,0,0,0-.26-.48l-.44-.67-.48-.62h0a.38.38,0,0,1-.06-.34.37.37,0,0,1,.45-.26h0l.54.14.89.22.72.15h.33l-.05-.07c-.13-.2-.27-.39-.42-.59-.3-.39-.61-.77-.94-1.13h0a.33.33,0,0,1,0-.24.45.45,0,0,1,.16-.2h0a.41.41,0,0,1,.22,0c.47.12.94.24,1.41.34l.61.11c-.24-.31-.53-.62-.81-.92s-.67-.7-1-1h0a.21.21,0,0,1,0-.19.22.22,0,0,1,.09-.1h0a.21.21,0,0,1,.19,0,10.3,10.3,0,0,0,1.23.38,1.94,1.94,0,0,0,.59.05h.06a.56.56,0,0,0-.11-.2,6.45,6.45,0,0,0-.92-.89c-.27-.22-.55-.43-.83-.63l-.21-.17h0a.14.14,0,0,1-.05-.08.12.12,0,0,1,.1-.14h.22a3.65,3.65,0,0,0,.46-.07l.32-.08a.57.57,0,0,0,.22-.11h0l-.13-.1-.28-.19-.47-.29V374a4.68,4.68,0,0,1,.54.3l.3.18.15.11.08.07v.17a.27.27,0,0,1-.13.15h0l-.17.07-.34.11-.4.07c.25.17.5.34.74.53l.11.08a6.56,6.56,0,0,1,1,.9.87.87,0,0,1,.19.37.4.4,0,0,1-.11.31h-.06l-.18.06a2.17,2.17,0,0,1-.72,0l-.46-.1.43.41a12.51,12.51,0,0,1,.93,1l.09.11a1.27,1.27,0,0,1,.13.19.49.49,0,0,1,.06.17.21.21,0,0,1,0,.11.32.32,0,0,1-.1.18l-.14.06H378l-.75-.11-.51-.09.36.43c.16.2.32.4.47.63l.17.27v.1a.75.75,0,0,1,.09.3.44.44,0,0,1-.16.37.64.64,0,0,1-.24.1H377l-.39-.05-.76-.14-.43-.1.36.51a4.31,4.31,0,0,1,.42.83,1.34,1.34,0,0,1,0,.35v.14a1.11,1.11,0,0,1-.07.16.86.86,0,0,1-.14.13l-.14.08a1.26,1.26,0,0,1-.61,0,9.63,9.63,0,0,1-1.41-.33l-.25-.06-.79-.22-.25-.07V383l.23.8a5.26,5.26,0,0,1,.17.88h0a1.61,1.61,0,0,1,0,.31.73.73,0,0,1-.21.42.64.64,0,0,1-.27.19h-.24a.92.92,0,0,1-.33,0,3.91,3.91,0,0,1-.88-.34c-.25-.12-.5-.25-.74-.39l-.64-.34v.27a6.17,6.17,0,0,1,0,.86,3.84,3.84,0,0,1,0,.48,2.74,2.74,0,0,1-.05.28,1.83,1.83,0,0,1-.14.32l-.14.18a.8.8,0,0,1-.21.15.63.63,0,0,1-.23.08h-.22a2,2,0,0,1-.59-.12,11.18,11.18,0,0,1-1.54-.79c-.22-.13-.45-.25-.68-.36l-.2-.08v.08a1.56,1.56,0,0,1-.12.34c0,.13-.14.51-.23.79a2.89,2.89,0,0,1-.44.92,1.18,1.18,0,0,1-.6.43,1.26,1.26,0,0,1-.72,0,3.16,3.16,0,0,1-.91-.43c-.25-.16-.48-.32-.7-.48a5.58,5.58,0,0,0-.64-.44l-.23-.13h0a1.59,1.59,0,0,0-.15.29c-.12.23-.23.49-.37.76a3.84,3.84,0,0,1-.56.82,1.91,1.91,0,0,1-1,.57,1.8,1.8,0,0,1-1.18-.19,2.58,2.58,0,0,1-.8-.67c-.4-.47-.7-1-1-1.26h-.06a1.63,1.63,0,0,0-.23.35,16.73,16.73,0,0,1-.82,1.5,1.93,1.93,0,0,1-.91.76,1.55,1.55,0,0,1-1.32-.21,5.06,5.06,0,0,1-1.24-1.41,5.86,5.86,0,0,0-.37-.5c-.08.1-.17.24-.26.38s-.31.47-.5.71a3.14,3.14,0,0,1-.7.71,1.88,1.88,0,0,1-1.12.39,1.68,1.68,0,0,1-1.17-.47,2.75,2.75,0,0,1-.57-.9c-.12-.28-.2-.55-.3-.75v-.07h-.05c-.09,0-.18.13-.28.2s-.39.33-.59.51a9.59,9.59,0,0,1-1.34,1.12,2.26,2.26,0,0,1-.49.25,1.3,1.3,0,0,1-.34.08,1,1,0,0,1-.43,0,1.32,1.32,0,0,1-.64-.45,2.27,2.27,0,0,1-.27-.48c-.13-.3-.21-.56-.3-.78a1.36,1.36,0,0,0-.29-.49c-.15-.16-.49-.18-.88,0s-.82.51-1.36.82a2.4,2.4,0,0,1-1,.35h-.33a1.12,1.12,0,0,1-.4-.14l-.18-.13a1.07,1.07,0,0,1-.14-.16,1.17,1.17,0,0,1-.17-.31,3.39,3.39,0,0,1-.18-1,4.17,4.17,0,0,0-.08-.71.29.29,0,0,0,0-.13,1.44,1.44,0,0,0-.53.14c-.45.17-.94.44-1.46.68a6.36,6.36,0,0,1-.86.33,2.76,2.76,0,0,1-.57.06,1.12,1.12,0,0,1-.73-.31,1.6,1.6,0,0,1-.41-1.16,3.64,3.64,0,0,1,.17-.93l.12-.44c-.42.13-.89.33-1.38.49a5.34,5.34,0,0,1-.9.2h-.56a1.08,1.08,0,0,1-.62-.35,1.25,1.25,0,0,1-.29-.6,1.47,1.47,0,0,1,0-.59v-.1h0a3.19,3.19,0,0,1,.32-.79c.07-.14.15-.27.22-.4l-1.07.21h-.2a6.42,6.42,0,0,1-.88.12.92.92,0,0,1-.33,0,.44.44,0,0,1-.16-.06.47.47,0,0,1-.18-.19.37.37,0,0,1-.07-.2.33.33,0,0,1,0-.14,2.46,2.46,0,0,1,.15-.53c.22-.45.46-.84.68-1.23l.13-.23H327a15.79,15.79,0,0,1-1.67.3,1.62,1.62,0,0,1-.44,0l-.15-.05a.57.57,0,0,1-.13-.08.79.79,0,0,1-.12-.15.62.62,0,0,1,0-.33,1,1,0,0,1,.09-.24l0-.07A4.57,4.57,0,0,1,325,379c.34-.32.72-.63,1-.94l-.76.06c-.28,0-.55.05-.84.06h-.54l-.19-.05-.18-.11a.46.46,0,0,1-.13-.27.56.56,0,0,1,.11-.37l.15-.2h.05a3.31,3.31,0,0,1,.27-.26l.64-.53c.21-.18.42-.35.6-.53a1.33,1.33,0,0,0,.21-.26h0a1.22,1.22,0,0,0-.27,0l-.38.1a5.93,5.93,0,0,1-.83.21.61.61,0,0,1-.27,0h-.05a.28.28,0,0,1-.15-.23.34.34,0,0,1,0-.2,1.76,1.76,0,0,1,.29-.37c.18-.19.37-.35.56-.52h.06l.62-.54a1.79,1.79,0,0,0,.28-.27h-.81a1.24,1.24,0,0,1-.38-.09H324a.22.22,0,0,1-.05-.3l.06-.06a.78.78,0,0,1,.2-.11,7.8,7.8,0,0,1,1.23-.43Z" transform="translate(-4.17 -13.85)"></path><path class="cls-6" d="M372.88,367.5s2.77,1.89,2.74,4.16-2.75,6.42-5.32,7.47c-16.27,6.59-23.7-.33-31.62,0s-11.94-3.46-12.56-5.83.65-5.13,2.76-5.6c0,0-2.2-5.34,2-6.47,0,0,1.22-6.47,6.65-6,0,0-.47-3.7,5.35-5.67s7-2.76,6.7-4.4-4.36-4.13-1.64-4.08,10.59,1.5,12.75,4.5a7,7,0,0,1,1.05,6.09s4.48-1.46,6.3.49,1.36,5.09,1.36,5.09,3.93.8,5.11,4.43A5.79,5.79,0,0,1,372.88,367.5Z" transform="translate(-4.17 -13.85)"></path><g class="cls-7"><path d="M361.21,352.07c-1.83.68-3.55,1.65-5.38,2.35a32.17,32.17,0,0,1-5.61,1.55,22.72,22.72,0,0,1-6.05.32c-2.12-.17-4.3-.41-6.39-.79-.1,0-.14.14,0,.15,2.13.36,4.22,1,6.35,1.35a16.9,16.9,0,0,0,6.1,0,25.45,25.45,0,0,0,5.56-2,41,41,0,0,0,5.52-2.83S361.3,352,361.21,352.07Z" transform="translate(-4.17 -13.85)"></path><path d="M368.9,357.61c-.93.69-1.75,1.54-2.67,2.25a24.31,24.31,0,0,1-2.92,2,24.58,24.58,0,0,1-6.55,2.61c-5.39,1.29-11,.5-16.31-.67l-4.47-1c-1.57-.34-3.21-.6-4.75-1.08-.1,0-.14.13,0,.16,1.41.37,2.78.93,4.18,1.36s2.85.85,4.3,1.21a49.51,49.51,0,0,0,8.37,1.36,26.83,26.83,0,0,0,14.86-3.09,25,25,0,0,0,3.36-2.22,12.46,12.46,0,0,0,2.79-2.73C369.11,357.67,369,357.55,368.9,357.61Z" transform="translate(-4.17 -13.85)"></path><path d="M372.85,366.84c-1.19.77-2.31,1.67-3.51,2.42a31.38,31.38,0,0,1-3.83,2.06,29.44,29.44,0,0,1-8.07,2.29,26.68,26.68,0,0,1-8.27-.18,85.27,85.27,0,0,1-9.42-2.47c-3.48-1-7-2-10.37-3.32-.08,0-.14.13-.06.16a82.11,82.11,0,0,0,9.18,3.74,76.05,76.05,0,0,0,9.72,2.81A28,28,0,0,0,365,372.43a29.87,29.87,0,0,0,4.15-2.28A18.67,18.67,0,0,0,373,367C373,366.89,372.92,366.79,372.85,366.84Z" transform="translate(-4.17 -13.85)"></path></g></g><g id="freepik--Character--inject-152"><path class="cls-8" d="M193,344.67H114.06c-.65-2.54-1.28-5-1.91-7.5-.72-2.83-1.43-5.59-2.11-8.28-.15-.6-.31-1.2-.46-1.79q-.78-3.09-1.53-6c-.3-1.19-.6-2.36-.89-3.52s-.6-2.34-.89-3.47c-.08-.3-.15-.6-.23-.89l-.24-1-.3-1.17h0c-.11-.41-.21-.81-.31-1.21-.2-.76-.39-1.51-.57-2.24-.28-1.08-.55-2.14-.81-3.17-.11-.45-.23-.9-.34-1.34-.19-.72-.37-1.42-.54-2.11-.12-.46-.23-.91-.34-1.35-.47-1.81-.91-3.51-1.3-5.1-.11-.42-.21-.83-.32-1.23l-.5-2q-.16-.6-.3-1.17c-.35-1.36-.67-2.6-.94-3.69-.08-.29-.15-.57-.22-.84-.18-.72-.35-1.36-.49-1.93-.06-.23-.11-.45-.17-.65l-.16-.63a1.67,1.67,0,0,0-.1-.4l-.14-.54a.48.48,0,0,0-.06-.24l-.18-.71h76.81s2.53,8.72,6.58,22.78c.82,2.86,1.71,6,2.66,9.23C186.45,321.89,189.59,332.83,193,344.67Z" transform="translate(-4.17 -13.85)"></path><path class="cls-4" d="M127,344.67h-2q-4.38-18.14-8.49-36.33c-.67-2.95-1.33-5.91-2-8.86l-.18-.83a.11.11,0,0,1,.11-.13.11.11,0,0,1,.12.07.36.36,0,0,0,.08.27q1.33,4.75,2.65,9.53Q122.33,326.48,127,344.67Z" transform="translate(-4.17 -13.85)"></path><path class="cls-4" d="M172,280.51l-3.39,17-2.78,13.92-4.73,23.72-.49,2.43-.81,4.05-.61,3.07H114.05c-.64-2.55-1.28-5.05-1.9-7.5-.72-2.83-1.43-5.59-2.11-8.28-.15-.6-.31-1.2-.46-1.79q-.78-3.09-1.53-6c-.3-1.19-.6-2.36-.89-3.52s-.6-2.34-.89-3.47c-.08-.3-.15-.6-.23-.89l-.24-1-.3-1.17h0c-.11-.41-.21-.81-.31-1.21-.2-.76-.39-1.51-.57-2.24-.28-1.08-.55-2.14-.81-3.17-.12-.46-.23-.9-.34-1.34-.19-.72-.37-1.42-.54-2.11-.12-.46-.23-.91-.34-1.35-.47-1.81-.91-3.51-1.3-5.1-.11-.42-.21-.83-.32-1.23-.17-.69-.34-1.35-.5-2q-.16-.6-.3-1.17c-.35-1.36-.67-2.6-.94-3.69-.08-.29-.15-.57-.22-.84-.18-.72-.35-1.36-.49-1.93-.06-.23-.11-.45-.17-.65l-.16-.63a1.67,1.67,0,0,0-.1-.4l-.14-.54a.48.48,0,0,0-.06-.24l-.18-.71Z" transform="translate(-4.17 -13.85)"></path><path class="cls-8" d="M172,280.48h0c0,.42-.32,5-1.06,12-.21,2-.46,4.28-.75,6.68-.45,3.79-1,8-1.7,12.39-1.18,7.71-2.72,16.12-4.72,24.34-.71,3-1.49,5.89-2.32,8.76H62.34c1.17-15.11,2.24-28.74,3.09-39.51,1.19-15.16,1.95-24.65,1.95-24.65H172Z" transform="translate(-4.17 -13.85)"></path><path class="cls-4" d="M171.83,289.59c-.11,3.55-.26,7.09-.49,10.62-.24,3.83-.59,7.65-1.09,11.47a1.21,1.21,0,0,1-.05.42q-.7,5.37-1.61,10.71c-.57,3.32-1,6.9-2.46,10a9.65,9.65,0,0,1-2.32,3.13,6.85,6.85,0,0,1-3.17,1.64,3.83,3.83,0,0,1-.59.1h-.17a.22.22,0,0,1,.11.21,30.53,30.53,0,0,1-.14,3.58v.15c-.12,1-.31,2-.5,3.07h-1.7v-.06c.3-1.12.55-2.25.83-3.38s.68-2.28,1-3.45a.21.21,0,0,1,.08-.11,5.28,5.28,0,0,1-5.12-3.21,9.2,9.2,0,0,1-.08-4.66c.31-2,.61-4.06.92-6.09.58-3.73,1.33-7.42,2-11.13l.3-1.69c1.33-7.55,2.72-15.1,4.39-22.58.06-.31.13-.62.2-.93s.38-.15.36.05c-.05.5-.1,1-.16,1.51-.29,2.87-.63,5.73-1,8.58-.48,3.35-.81,6.72-1.28,10.07-.16,1.14-.32,2.28-.49,3.42-.77,5.51-1.57,11-2.51,16.51-.44,2.55-2,7.12,1.64,7.91a3.7,3.7,0,0,0,2.49-.31,7.85,7.85,0,0,0,3.41-4.31,56.5,56.5,0,0,0,2-9.18c.6-3.33,1.13-6.7,1.6-10.09h0q.9-6.31,1.88-12.61c.33-2.14.67-4.28,1-6.42l.48-3C171.5,289.32,171.83,289.38,171.83,289.59Z" transform="translate(-4.17 -13.85)"></path><path class="cls-4" d="M84.09,316a50,50,0,0,0,12.23-1.65c1.84-.47,3.67-1.06,5.47-1.65a14.19,14.19,0,0,0,4.94-2.48c2.78-2.4,4.07-6.17,5.28-9.53a91,91,0,0,0,3.21-11.57c0-.19.32-.13.33.06a44.79,44.79,0,0,1-1.67,13.13c-1,3.63-2.34,7.67-5.27,10.21s-7.26,3.62-11.2,4.1a51.73,51.73,0,0,1-13.33-.18.22.22,0,0,1-.22-.23A.23.23,0,0,1,84.09,316Z" transform="translate(-4.17 -13.85)"></path><path class="cls-4" d="M77.22,289.19q-.33,8.32-.7,16.66-.85,19.41-1.87,38.82H72.79q1.27-19.46,2.69-38.88.61-8.31,1.26-16.61A.23.23,0,0,1,77,289a.23.23,0,0,1,.23.24Z" transform="translate(-4.17 -13.85)"></path><path class="cls-4" d="M158.2,130.32c-.42-6.35-17.31-31-41.15-18.23-23.48,12.6-13.27,52.62,14.59,50.1C150.36,160.5,159.1,143.82,158.2,130.32Z" transform="translate(-4.17 -13.85)"></path><path class="cls-10" d="M164.66,187c3.92,36.43,22.19,87.79,31.84,95.38,11.4,9,49.31,23.91,75,26.4,6.64.64,10-51.07-1-53.81-14.5-3.59-40.5-11.05-46.63-15.32s-27.82-44.59-42.14-66.08C164.35,147.48,163.13,172.82,164.66,187Z" transform="translate(-4.17 -13.85)"></path><path class="cls-10" d="M269.07,308.09c-6.47-2.65-6.48-46.8-.85-51.26,1.06-.83,2.64-2,5.94-5h0s12-10.54,18.95-22.88c5.81-10.35,13.26-26.38,18.94-23.47,8.3,4.24,1.32,25.64-3.44,37.69,7-1,13.07-1.14,16.66.07,11.91,4,.86,59.42-11.13,63.82C302.58,311.32,275.55,310.74,269.07,308.09Z" transform="translate(-4.17 -13.85)"></path><path class="cls-6" d="M303.11,307.2c-.07,3.08-.07,6.15,0,9.23.09,4.21-.14,9.19,2.16,12.9a22.61,22.61,0,0,0,6.72,6.53c1,.68,2,1.32,3,2l.61.45c-.46-.32-.37-.31,0,0l.49.45c.65.61-.12-.35.06,0a3.3,3.3,0,0,0,.28.5c-.16,0-.25-.92-.18-.33a2.22,2.22,0,0,0,.09.37c.12.38,0-1.1-.06-.3v.94a4.17,4.17,0,0,0,0,.5c-.08-.44.17-.86,0-.19-.09.41-.18.81-.3,1.22-.06.19-.13.38-.2.58s-.08.19-.11.29c-.12.43.35-.7.14-.3-.48.89-1,1.72-1.5,2.59-.2.34.2-.27.21-.27l-.24.29c-.17.19-.33.38-.51.57-.42.45-.92.83-1.35,1.27s.19-.14.22-.16l-.34.25-.71.49a18.46,18.46,0,0,1-1.86,1l-.43.19c.05,0,.55-.21.14-.07l-.94.34a21.53,21.53,0,0,1-2.23.59,24.39,24.39,0,0,1-4.82.48q-1.26,0-2.52-.06l-1.09-.1H298l-.67-.11a28.18,28.18,0,0,1-3.83-1.05c.59.19.28.12-.09,0l-.68-.35c-.26-.14-1.31-.6-1.39-.89.06.23.58.51.08,0l-.44-.42c-.13-.14-.25-.3-.39-.44-.38-.38.43.74.1.1-.09-.17-.2-.36-.3-.52-.3-.44.21.81.12.31a1.71,1.71,0,0,0-.13-.44c-.18-.36,0,.93,0,.34s-.2.47-.06.19.45-.83,0-.08c.14-.21.23-.45.36-.67a1.9,1.9,0,0,0,.22-.33c.21-.4-.41.42-.07.09s.83-.9,1.29-1.32c.13-.11.94-.78.4-.36.32-.25.66-.48,1-.71.6-.39,1.22-.76,1.85-1.1.32-.18.65-.34,1-.5l.5-.23c-.48.22.08,0,.28-.11a17.33,17.33,0,0,1,2-.66c.33-.09.67-.17,1-.23a3.1,3.1,0,0,0,.5-.09c-.49.09-.25,0,.1,0a25.19,25.19,0,0,1,2.88-.09l1.29.06c.19,0,1.28.15.88.08a18.91,18.91,0,0,1,2.48.55c.34.1.68.22,1,.34s-.06,0-.12-.07c.19.09.39.18.57.28l.76.44c.61.35-.41-.38.05.07.28.27,0,.13,0,0l-.16-.2c.16.27.16.24,0-.11-.13-.57-.11-.29-.08-.16a2.89,2.89,0,0,1,0-1.43c-.13.53.41-.84.12-.31s.58-.54.11-.16c-.17.14-.33.31-.48.46s-.41.34,0,0-.14.09-.25.16a17,17,0,0,1-1.48.88l-.83.41-.43.2c-.51.24.54-.21,0,0a25.69,25.69,0,0,1-4,1.24c-.3.06-.61.1-.91.17s.23,0,.27,0l-.57.05a18.43,18.43,0,0,1-2.35,0l-1.24-.08-.59,0h-.24c.39.06-.17,0-.2,0l-.65-.13c-.33-.08-.66-.22-1-.29s.28.12.31.13a1.73,1.73,0,0,1-.3-.16c-.34-.25.38.3.35.27s-.28-.37.06.1a2.46,2.46,0,0,1,.53,1.77,2.18,2.18,0,0,1-.28.86c.31-.56-.49.58-.22.26.43-.49-.3.14-.12.07s.41-.26.61-.36.86-.38.38-.19.43-.14.59-.19a16.79,16.79,0,0,1,1.85-.49c.28-.07.57-.12.86-.17.89-.16-.36,0,.27,0s1.09-.09,1.64-.08c.18,0,.91.1.23,0s0,0,.16.06a3.75,3.75,0,1,0,2-7.23h0c-2.81-.81-6.29-.14-9,.73-3.39,1.1-7.37,3.62-6.28,7.83s6.46,4.77,10.05,5a23.39,23.39,0,0,0,10.25-1.84c3-1.25,6.82-3.06,7.92-6.42,1.36-4.17-2.63-7-6-8.25-8-3.05-17.19-1-23.77,4.2-2.5,2-5,5-4.76,8.38a9.43,9.43,0,0,0,3.68,6.56c5.89,4.77,14.55,5.06,21.67,3.58a19.68,19.68,0,0,0,14.53-11.74,13,13,0,0,0,1-6.06c-.32-3.2-2.2-5.24-4.73-7.06-1.13-.81-2.33-1.54-3.47-2.34-.34-.23-.66-.47-1-.71.58.43-.12-.1-.32-.27a14.64,14.64,0,0,1-1.7-1.64l-.42-.49c.1.13.38.58,0,0-.2-.33-.42-.64-.61-1-.08-.14-.15-.29-.23-.44-.45-.81.15.27.14.39a2.21,2.21,0,0,0-.15-.5c-.11-.4-.18-.82-.25-1.23-.14-.79.08.77,0,.1l-.09-.88a131.23,131.23,0,0,1-.33-14.3v-1.05a3.79,3.79,0,0,0-3.75-3.75,3.84,3.84,0,0,0-3.75,3.75Z" transform="translate(-4.17 -13.85)"></path><g class="cls-7"><path d="M313.27,337c-1.67-1.36-3.45-2.64-5-4.11-.07-.07-.18,0-.11.11a40,40,0,0,1,3.58,3.55,16,16,0,0,1,2.64,3.27c1.49,2.82-1.35,5.93-3.7,7.17a23,23,0,0,1-9.26,2.2,19.18,19.18,0,0,1-9-1.28,5.67,5.67,0,0,1-3.06-3.26,4,4,0,0,1,.75-4.06m-.06,0c-1.83,1.76-1.21,4.77.44,6.42,2.24,2.23,5.83,2.69,8.83,2.86a24.73,24.73,0,0,0,10.7-1.66,10.69,10.69,0,0,0,4-2.73,6.42,6.42,0,0,0,1.91-4.3c-.08-1.73-1.38-3.06-2.66-4.13Z" transform="translate(-4.17 -13.85)"></path><path d="M305.11,336.25a14.28,14.28,0,0,0-5.93.11,34.11,34.11,0,0,0-6.79,2.42c-.09,0-.05.19,0,.15,3.93-1.61,8.87-3,13.05-1.49a3.77,3.77,0,0,1,2.24,1.79,2.55,2.55,0,0,1-1.07,3,8.58,8.58,0,0,1-2.82,1.24,24.28,24.28,0,0,1-3.58.77v.07A19.56,19.56,0,0,0,306,343c1.39-.61,2.76-1.92,2.62-3.57C308.44,337.6,306.74,336.61,305.11,336.25Z" transform="translate(-4.17 -13.85)"></path><path d="M306.58,340.15a8.83,8.83,0,0,0-7-.32,16.09,16.09,0,0,0-6.12,3.76c-.08.07,0,.17.11.11a15.94,15.94,0,0,1,6.47-3.24c2.23-.58,4.26-1,6.52-.17C306.61,340.32,306.65,340.19,306.58,340.15Z" transform="translate(-4.17 -13.85)"></path></g><path class="cls-1" d="M301.87,315.07s-37-105.74-36.44-121.13c.23-6.41,15.43-20.42,15.43-20.42l22-2.66s14.07,6,19.08,14-10.68,129-10.68,129Z" transform="translate(-4.17 -13.85)"></path><path class="cls-6" d="M301.27,307.2S268.32,213,268.81,199.33c.21-5.7,45.87-15.24,50.33-8.12s-9.51,114.84-9.51,114.84Z" transform="translate(-4.17 -13.85)"></path><path class="cls-1" d="M280.86,173.52s-26.35-3.53-26.16-6.84,9.67-3.38,10.68-6.92-3.45-6.84-.75-9.62,10.67,2.53,12.27,2-1.91-7.81,2.63-9.14,9.22,9.12,12.84,8.8,7.66-10.56,12.09-10,2.54,10,5.56,10.86,6.84-3.29,10,.07-17.14,18.14-17.14,18.14Z" transform="translate(-4.17 -13.85)"></path><polygon class="cls-11" points="282.04 257.25 314.38 253.77 307.96 303.81 305.56 304.19 303.06 300.3 302.24 304.39 298.5 305.22 282.04 257.25"></polygon><path class="cls-12" d="M284.68,173.27c-1.45,1.45-3,2.8-4.4,4.32a34.36,34.36,0,0,0-3.7,4.79A23.94,23.94,0,0,0,272.81,194a18.22,18.22,0,0,0,.86,6.8.08.08,0,1,0,.16,0,20.34,20.34,0,0,1,.91-11.9,44,44,0,0,1,5.76-10.2,47.62,47.62,0,0,1,4.3-5.3C284.87,173.31,284.75,173.2,284.68,173.27Z" transform="translate(-4.17 -13.85)"></path><path class="cls-12" d="M287.07,172.84c-.43.88-1,1.68-1.42,2.58a23.17,23.17,0,0,0-1,2.67,25.71,25.71,0,0,0-1,5.51,39.84,39.84,0,0,0,.82,11.37c0,.05.07,0,.07,0a31.5,31.5,0,0,1-.05-11.25c.3-1.81.74-3.58,1.2-5.35.22-.85.45-1.7.68-2.54a20.65,20.65,0,0,1,.88-2.9.12.12,0,0,0,0-.14.11.11,0,0,0-.14.05Z" transform="translate(-4.17 -13.85)"></path><path class="cls-12" d="M302,188a35.71,35.71,0,0,0-1.53-6.46,22.33,22.33,0,0,0-2.76-5.28,18.16,18.16,0,0,0-4-4.34c-.07,0-.14.07-.09.13a27,27,0,0,1,3.47,4.81,46.27,46.27,0,0,1,2.3,5.43,91.38,91.38,0,0,1,3.31,12.82c0,.09.16.07.15,0C302.66,192.75,302.36,190.38,302,188Z" transform="translate(-4.17 -13.85)"></path><path class="cls-12" d="M309.85,184c-.81-1.59-1.62-3.18-2.4-4.78a11.4,11.4,0,0,0-2.64-4.06,16.63,16.63,0,0,0-4.19-2.26,23.84,23.84,0,0,0-4.72-1.52.07.07,0,1,0,0,.14,45.11,45.11,0,0,1,8.26,4.53,12.81,12.81,0,0,1,2.87,3.6c.93,1.47,1.83,3,2.73,4.43C309.77,184.15,309.89,184.06,309.85,184Z" transform="translate(-4.17 -13.85)"></path><path class="cls-12" d="M284.9,171.71a72.07,72.07,0,0,0-8.66-2.51c-1.44-.34-2.91-.51-4.37-.75s-3-.54-4.5-.78a.1.1,0,0,0-.11.11.1.1,0,0,0,.06.1c1.46.42,2.93.79,4.39,1.21s2.89.93,4.37,1.26a74.93,74.93,0,0,0,8.8,1.52C285,171.87,285,171.74,284.9,171.71Z" transform="translate(-4.17 -13.85)"></path><path class="cls-12" d="M285.7,170.76a16.35,16.35,0,0,0-1.2-1.44,25.13,25.13,0,0,0-2.86-2.6,35.3,35.3,0,0,0-6.6-3.82c-.14-.07-.25.13-.12.2a34.54,34.54,0,0,1,5.82,4c.88.71,1.74,1.45,2.58,2.21l1.33,1.2a14.08,14.08,0,0,0,1.2,1.12.06.06,0,0,0,0,.06.31.31,0,0,0,.17.13.11.11,0,0,0,.12,0C286.32,171.41,285.92,171.05,285.7,170.76Z" transform="translate(-4.17 -13.85)"></path><path class="cls-12" d="M293.71,162.64a48.39,48.39,0,0,1,1.58-8,.07.07,0,0,0-.09,0l0,0a38.82,38.82,0,0,0-2.31,8.19,23.58,23.58,0,0,0-.47,4.19,14,14,0,0,0,.11,2.15,7.1,7.1,0,0,0,.17.92c.09.34.28.56.39.88a.09.09,0,0,0,.1.05.12.12,0,0,0,.05-.05c0-.3.09-.64.08-.95s0-.72,0-1.07v-2A41.65,41.65,0,0,1,293.71,162.64Z" transform="translate(-4.17 -13.85)"></path><path class="cls-12" d="M303.94,160.11a26.75,26.75,0,0,0-9.71,11.1c0,.07.06.17.12.09a70.36,70.36,0,0,1,9.76-11C304.22,160.21,304.06,160,303.94,160.11Z" transform="translate(-4.17 -13.85)"></path><path class="cls-12" d="M305,163.77a27.58,27.58,0,0,0-4.81,2.95,31.86,31.86,0,0,0-4,3.79.08.08,0,0,0,0,.11.06.06,0,0,0,.08,0,36.73,36.73,0,0,1,4.33-3.54,47.86,47.86,0,0,1,4.61-3C305.39,164,305.18,163.66,305,163.77Z" transform="translate(-4.17 -13.85)"></path><path class="cls-10" d="M305.7,240.77c-4.09,5.1,4.25,7,4.25,7s-12.66.17-14.83,7c-2.08,6.63,8.07,8.56,8.8,8.71-.67,0-12.3.48-13.78,7.61-1.52,7.42,9,7.61,9.68,7.62-.62.21-8.88,3.16-8.77,8.84.2,9.76,21.52,2.8,28.41,6.67,0,0-5.23,12.42-5.31,12.81,0,0,20.42-6.2,25.12-15.78a6.81,6.81,0,0,0-1.74-8.36s6.81-1.28,8.14-6.86c.68-2.87-3.3-6.51-3.3-6.51s5.41-1.24,6.29-6.28c.71-4-3.39-7-3.39-7s4.63-3.6,4-8C348.1,239.52,314.44,229.87,305.7,240.77Z" transform="translate(-4.17 -13.85)"></path><path class="cls-4" d="M344.69,255.65a.1.1,0,0,0,.13,0,.1.1,0,0,0,0-.12h0c-10.3-5.87-23.41-9.17-35.27-7.88-.38,0-.48.69-.05.73C321.93,249.34,332.92,251.23,344.69,255.65Z" transform="translate(-4.17 -13.85)"></path><path class="cls-4" d="M342.56,269.54c.13,0,.21-.16.08-.23-10.64-6-25.51-9.3-39-6.21-.46.11-.77.67-.23.59C312.54,262.31,332,265.51,342.56,269.54Z" transform="translate(-4.17 -13.85)"></path><path class="cls-4" d="M299,279.29c13-2.47,25.57-.51,38.15,3.36.16.05.22-.19.09-.27-5.64-3.56-13.91-5.19-20.45-5.91a34.94,34.94,0,0,0-17.88,2.37A.23.23,0,0,0,299,279.29Z" transform="translate(-4.17 -13.85)"></path><path class="cls-4" d="M309.81,247.59c-.47.06.12.68-.35.75-1.95.27-13.58,3-13.9,7.2-.24,3.4,4.16,6.09,6.26,6.46l5.27.93-5.28,1a22.13,22.13,0,0,0-6.7,2.32c-2,1.14-3.75,2.8-4.17,4.86a4.47,4.47,0,0,0,2.21,5.18,13.35,13.35,0,0,0,6.62,1.44h6.34l-5.95,2.1a20.6,20.6,0,0,0-4.69,2.35,8.45,8.45,0,0,0-3.24,3.66,4,4,0,0,0,.7,4.19,8.88,8.88,0,0,0,4.56,2,69.83,69.83,0,0,0,11,.78c1.85.05,3.72.1,5.58.24a13.2,13.2,0,0,1,5.42,1.26,14.38,14.38,0,0,0-5.44-.75c-1.85,0-3.7.1-5.55.19a60.41,60.41,0,0,1-11.25-.21,10.44,10.44,0,0,1-5.54-2.25,5.71,5.71,0,0,1-1.28-6.14,10.23,10.23,0,0,1,3.9-4.65,22.09,22.09,0,0,1,5.19-2.7l.38,2.06a15.44,15.44,0,0,1-7.84-1.62,6.51,6.51,0,0,1-2.94-3.27,7.24,7.24,0,0,1-.24-4.32c.67-2.92,3-4.93,5.27-6.16a24,24,0,0,1,7.42-2.44v1.89c-2.65-.56-7.89-3-8.18-8.36C294,248.54,307.36,247.59,309.81,247.59Z" transform="translate(-4.17 -13.85)"></path><path class="cls-4" d="M310,247.76a13.26,13.26,0,0,1-3.37-2.16,3,3,0,0,1-1-2.9,6,6,0,0,1,2-2.85c1-.87,2.08-1.72,3.24-2.56a10.44,10.44,0,0,0-4.09,1.41,6.09,6.09,0,0,0-3,3.6,4.31,4.31,0,0,0,.29,2.58,4.52,4.52,0,0,0,1.64,1.83A7,7,0,0,0,310,247.76Z" transform="translate(-4.17 -13.85)"></path><path class="cls-6" d="M199.77,199l-31.19,24.43s-5.91-28.85-5.77-47.51,6.89-24.22,22.56-1.36A199,199,0,0,1,199.77,199Z" transform="translate(-4.17 -13.85)"></path><path class="cls-13" d="M167.59,168.25a.47.47,0,0,1-.47.49h0a.5.5,0,0,1,0-1,.47.47,0,0,1,.48.48Zm11.89-.48a.5.5,0,1,0,.5.5A.5.5,0,0,0,179.48,167.77Zm-12.37,16.46a.49.49,0,0,0-.49.49h0a.47.47,0,0,0,.48.48h0a.47.47,0,0,0,.48-.46v0a.47.47,0,0,0-.47-.49Zm12.37,0a.49.49,0,0,0-.49.49h0a.47.47,0,0,0,.48.48h0a.47.47,0,0,0,.48-.46v0a.47.47,0,0,0-.47-.49Zm12.15.05a.52.52,0,0,0-.27.44.47.47,0,0,0,.48.48h0a.38.38,0,0,0,.27-.1,7.09,7.09,0,0,0-.49-.82Zm-18.34-8.38a.47.47,0,0,0-.48.46v0a.47.47,0,0,0,.47.49h0a.49.49,0,0,0,.49-.49h0a.47.47,0,0,0-.48-.48Zm12.37,0a.47.47,0,0,0-.48.48.5.5,0,0,0,1,0,.47.47,0,0,0-.48-.48Zm-18.55,24.8a.47.47,0,0,0-.49.47h0a.49.49,0,0,0,.49.49h0a.47.47,0,0,0,.48-.48h0a.47.47,0,0,0-.46-.48Zm12.37,0a.47.47,0,0,0-.49.47h0a.49.49,0,0,0,.49.49h0a.47.47,0,0,0,.48-.48h0a.47.47,0,0,0-.46-.48Zm12.37,0a.47.47,0,0,0-.49.47h0a.49.49,0,0,0,.49.49h0a.47.47,0,0,0,.48-.48h0a.47.47,0,0,0-.46-.48Zm-18.56-8.34a.5.5,0,1,0,.5.5.5.5,0,0,0-.5-.5Zm12.37,0a.49.49,0,1,0,.49.49.49.49,0,0,0-.49-.49Zm-18.25,24.91a4.14,4.14,0,0,0,.11.63.55.55,0,0,0,.07-.25.49.49,0,0,0-.18-.38Zm5.88-8.45a.47.47,0,0,0-.48.48h0a.47.47,0,0,0,.46.48h0a.47.47,0,0,0,.49-.47h0a.49.49,0,0,0-.49-.49Zm12.37,0a.49.49,0,0,0-.48.49.5.5,0,1,0,.51-.49Z" transform="translate(-4.17 -13.85)"></path><path class="cls-4" d="M168.32,213.24A211.57,211.57,0,0,1,194,193.52a.16.16,0,1,1,.2.25c-2,1.82-21.13,17-25.78,19.67C168.33,213.51,168.23,213.33,168.32,213.24Z" transform="translate(-4.17 -13.85)"></path><path class="cls-1" d="M63.41,285.87S53,267.53,53.21,265.76s9.31-4.77,10.86-4.54,2,24.19,2,24.19Z" transform="translate(-4.17 -13.85)"></path><path class="cls-3" d="M66.07,285.41l-1.37.24s-5.11-20.6-2.36-22.47S66.07,285.41,66.07,285.41Z" transform="translate(-4.17 -13.85)"></path><path class="cls-1" d="M63.32,288.1s-20.67-4.18-21.86-5.51,2.52-10.15,3.7-11.18S64.73,285.8,64.73,285.8Z" transform="translate(-4.17 -13.85)"></path><path class="cls-3" d="M64.73,285.8,64,287s-18.88-9.67-18.49-13S64.73,285.8,64.73,285.8Z" transform="translate(-4.17 -13.85)"></path><path class="cls-6" d="M186.39,312.68,186,258.4s17.05-16.46,14.61-32.53c-1.23-8.14-16.94-50.59-26.59-63-9.05-11.66-28.29-7.59-36.39-2.87C106.47,178.17,78.47,244.62,58,304.7Z" transform="translate(-4.17 -13.85)"></path><path class="cls-13" d="M130.48,168.25a.49.49,0,1,1-.5-.48h0A.5.5,0,0,1,130.48,168.25Zm11.89-.48a.49.49,0,1,0,.48.5v0A.5.5,0,0,0,142.37,167.77Zm12.37,0a.49.49,0,1,0,.48.5v0a.5.5,0,0,0-.48-.48Zm12.37,0a.5.5,0,1,0,.5.5A.5.5,0,0,0,167.11,167.77Zm-18.56-8.34a.47.47,0,0,0-.48.48h0a.47.47,0,0,0,.46.48h0a.47.47,0,0,0,.49-.47h0a.49.49,0,0,0-.49-.49Zm12.37,0a.47.47,0,0,0-.48.48h0a.47.47,0,0,0,.46.48h0a.47.47,0,0,0,.49-.47h0a.49.49,0,0,0-.49-.49Zm-43.3,24.8a.49.49,0,0,0-.48.49.5.5,0,1,0,.51-.49Zm12.38,0a.49.49,0,0,0-.49.49h0a.5.5,0,1,0,.51-.49Zm12.37,0a.49.49,0,0,0-.49.49h0a.5.5,0,1,0,.51-.49Zm12.37,0a.49.49,0,0,0-.49.49h0a.5.5,0,1,0,.51-.49Zm12.37,0a.49.49,0,0,0-.49.49h0a.47.47,0,0,0,.48.48h0a.47.47,0,0,0,.48-.46v0a.47.47,0,0,0-.47-.49Zm12.37,0a.49.49,0,0,0-.49.49h0a.47.47,0,0,0,.48.48h0a.47.47,0,0,0,.48-.46v0a.47.47,0,0,0-.47-.49Zm-55.67-8.33a.47.47,0,0,0-.49.47h0a.5.5,0,0,0,1,0,.47.47,0,0,0-.48-.48Zm12.37,0a.47.47,0,0,0-.48.46v0a.47.47,0,0,0,.47.49h0a.49.49,0,0,0,.49-.49h0a.47.47,0,0,0-.48-.48Zm12.37,0a.47.47,0,0,0-.48.46v0a.47.47,0,0,0,.47.49h0a.49.49,0,0,0,.49-.49h0a.47.47,0,0,0-.48-.48Zm12.37,0a.47.47,0,0,0-.48.46v0a.47.47,0,0,0,.47.49h0a.49.49,0,0,0,.49-.49h0a.47.47,0,0,0-.48-.48Zm12.37,0a.47.47,0,0,0-.48.46v0a.47.47,0,0,0,.47.49h0a.49.49,0,0,0,.49-.49h0a.47.47,0,0,0-.48-.48Zm-68,24.8a.47.47,0,0,0-.48.48.5.5,0,0,0,1,0,.49.49,0,0,0-.47-.49h0Zm12.37,0a.47.47,0,0,0-.48.48.5.5,0,0,0,1,0,.49.49,0,0,0-.47-.49h0Zm12.38,0a.47.47,0,0,0-.49.47h0a.5.5,0,0,0,1,0,.49.49,0,0,0-.47-.49h0Zm12.37,0a.47.47,0,0,0-.49.47h0a.5.5,0,0,0,1,0,.49.49,0,0,0-.47-.49h0Zm12.37,0a.47.47,0,0,0-.49.47h0a.5.5,0,0,0,1,0,.49.49,0,0,0-.47-.49h0Zm12.37,0a.47.47,0,0,0-.49.47h0a.49.49,0,0,0,.49.49h0a.47.47,0,0,0,.48-.48h0a.46.46,0,0,0-.46-.48h0Zm12.37,0a.47.47,0,0,0-.49.47h0a.49.49,0,0,0,.49.49h0a.47.47,0,0,0,.48-.48h0a.46.46,0,0,0-.46-.48h0Zm12.37,0a.47.47,0,0,0-.49.47h0a.49.49,0,0,0,.49.49h0a.47.47,0,0,0,.48-.48h0a.46.46,0,0,0-.46-.48h0Zm-80.41-8.34a.5.5,0,1,0,.5.5A.5.5,0,0,0,111.48,192.36Zm12.37,0a.49.49,0,1,0,.49.49.49.49,0,0,0-.49-.49h0Zm12.37,0a.5.5,0,1,0,.5.5A.5.5,0,0,0,136.22,192.36Zm12.37,0a.5.5,0,1,0,.5.5A.5.5,0,0,0,148.59,192.36Zm12.37,0a.5.5,0,1,0,.5.5A.5.5,0,0,0,161,192.36Zm12.37,0a.5.5,0,1,0,.5.5A.5.5,0,0,0,173.33,192.36Zm12.37,0a.49.49,0,1,0,.49.49.49.49,0,0,0-.49-.49h0ZM93.39,217.53l-.28.56a.48.48,0,0,0,.3-.44.34.34,0,0,0-.06-.12Zm11.9-.37a.49.49,0,1,0,.49.49.49.49,0,0,0-.49-.49h0Zm12.37,0a.49.49,0,1,0,.49.49.49.49,0,0,0-.49-.49h0Zm12.38,0a.49.49,0,1,0,.48.5h0a.49.49,0,0,0-.49-.49h0Zm12.37,0a.49.49,0,1,0,.48.5h0a.49.49,0,0,0-.49-.49h0Zm12.37,0a.49.49,0,1,0,.48.5h0a.49.49,0,0,0-.49-.49h0Zm12.37,0a.5.5,0,1,0,.5.5.5.5,0,0,0-.5-.5Zm12.37,0a.5.5,0,0,0,0,1h0a.5.5,0,0,0,0-1Zm12.37,0a.5.5,0,1,0,.5.5.5.5,0,0,0-.5-.5Zm-92.78-8.34a.49.49,0,0,0-.49.49h0a.47.47,0,0,0,.48.48h0a.47.47,0,0,0,.48-.46v0a.47.47,0,0,0-.47-.49h0Zm12.37,0a.49.49,0,0,0-.49.49h0a.47.47,0,0,0,.48.48h0a.47.47,0,0,0,.48-.46v0a.47.47,0,0,0-.47-.49h0Zm12.37,0a.49.49,0,0,0-.49.49h0a.5.5,0,1,0,.51-.49h0Zm12.37,0a.47.47,0,0,0-.48.48h0a.47.47,0,0,0,.46.48h0a.48.48,0,0,0,.49-.47h0a.49.49,0,0,0-.49-.49h0Zm12.37,0a.47.47,0,0,0-.48.48h0a.47.47,0,0,0,.46.48h0a.48.48,0,0,0,.49-.47h0a.49.49,0,0,0-.49-.49h0Zm12.37,0a.47.47,0,0,0-.48.48h0a.47.47,0,0,0,.46.48h0a.48.48,0,0,0,.49-.47h0a.49.49,0,0,0-.49-.49h0Zm12.37,0a.47.47,0,0,0-.48.48h0a.47.47,0,0,0,.46.48h0a.48.48,0,0,0,.49-.47h0a.49.49,0,0,0-.49-.49h0Zm12.37,0a.49.49,0,0,0-.48.49.5.5,0,0,0,1,0,.48.48,0,0,0-.49-.49h0Zm-92.78,24.8a.5.5,0,0,0,0,1h0a.5.5,0,1,0,0-1Zm12.37,0a.49.49,0,1,0,.49.49h0a.49.49,0,0,0-.49-.49h0Zm12.37,0a.49.49,0,1,0,.49.49h0a.49.49,0,0,0-.49-.49h0Zm12.38,0a.49.49,0,1,0,.48.5h0a.49.49,0,0,0-.49-.49h0Zm12.37,0a.49.49,0,1,0,.48.5h0a.49.49,0,0,0-.49-.49h0Zm12.37,0a.49.49,0,1,0,.48.5h0a.49.49,0,0,0-.49-.49h0Zm12.37,0a.5.5,0,1,0,.5.5A.5.5,0,0,0,167.15,233.62Zm12.37,0a.5.5,0,1,0,.5.5A.5.5,0,0,0,179.52,233.62Zm12.37,0a.5.5,0,1,0,.5.5A.5.5,0,0,0,191.89,233.62Zm-92.78-8.33a.5.5,0,1,0,.5.5A.5.5,0,0,0,99.11,225.29Zm12.37,0a.5.5,0,1,0,.5.5A.5.5,0,0,0,111.48,225.29Zm12.37,0a.49.49,0,1,0,.49.49h0a.48.48,0,0,0-.5-.48h0Zm12.37,0a.5.5,0,1,0,.5.5A.5.5,0,0,0,136.22,225.29Zm12.37,0a.5.5,0,1,0,.5.5A.5.5,0,0,0,148.59,225.29Zm12.37,0a.5.5,0,1,0,.5.5A.5.5,0,0,0,161,225.29Zm12.37,0a.5.5,0,1,0,.5.5A.5.5,0,0,0,173.33,225.29Zm12.37,0a.49.49,0,1,0,.49.49h0a.48.48,0,0,0-.5-.48h0Zm12.37,0a.49.49,0,1,0,.49.49h0a.48.48,0,0,0-.5-.48h0ZM80.55,250.09a.5.5,0,1,0,0,1h0a.5.5,0,0,0,0-1Zm12.37,0a.5.5,0,1,0,.5.5A.5.5,0,0,0,92.92,250.09Zm12.37,0a.49.49,0,1,0,.49.49h0a.48.48,0,0,0-.5-.48h0Zm12.37,0a.49.49,0,1,0,.49.49h0a.48.48,0,0,0-.5-.48h0Zm12.38,0a.49.49,0,1,0,.48.5v0a.49.49,0,0,0-.5-.48h0Zm12.37,0a.49.49,0,1,0,.48.5v0a.49.49,0,0,0-.5-.48h0Zm12.37,0a.49.49,0,1,0,.48.5v0a.49.49,0,0,0-.5-.48h0Zm12.37,0a.5.5,0,1,0,.5.5A.5.5,0,0,0,167.15,250.09Zm12.37,0a.5.5,0,0,0,0,1h0a.5.5,0,0,0,0-1Zm12.37,0a.5.5,0,1,0,.5.5A.5.5,0,0,0,191.89,250.09ZM86.7,241.75a.49.49,0,0,0-.49.49.47.47,0,0,0,.48.48h0a.47.47,0,0,0,.48-.46v0a.47.47,0,0,0-.47-.49Zm12.37,0a.49.49,0,0,0-.49.49.47.47,0,0,0,.48.48h0a.47.47,0,0,0,.48-.46v0a.47.47,0,0,0-.47-.49Zm12.37,0a.49.49,0,0,0-.49.49.47.47,0,0,0,.48.48h0a.47.47,0,0,0,.48-.46v0a.47.47,0,0,0-.47-.49Zm12.37,0a.5.5,0,1,0,.51.49.49.49,0,0,0-.51-.49Zm12.37,0a.47.47,0,0,0-.48.48h0a.47.47,0,0,0,.46.48h0a.47.47,0,0,0,.49-.47h0a.49.49,0,0,0-.49-.49Zm12.37,0a.47.47,0,0,0-.48.48h0a.47.47,0,0,0,.46.48h0a.47.47,0,0,0,.49-.47h0a.49.49,0,0,0-.49-.49Zm12.37,0a.47.47,0,0,0-.48.48h0a.47.47,0,0,0,.46.48h0a.47.47,0,0,0,.49-.47h0a.49.49,0,0,0-.49-.49Zm12.37,0a.47.47,0,0,0-.48.48h0a.47.47,0,0,0,.46.48h0a.47.47,0,0,0,.49-.47h0a.49.49,0,0,0-.49-.49Zm12.37,0a.49.49,0,0,0-.48.49.5.5,0,1,0,.51-.49Zm11.89.49h0l.21-.45a.52.52,0,0,0-.21.45Zm-117,24.31a.47.47,0,0,0-.48.48h0a.47.47,0,0,0,.46.48h0A.48.48,0,0,0,81,267h0a.49.49,0,0,0-.49-.45Zm12.37,0a.47.47,0,0,0-.48.48h0a.47.47,0,0,0,.46.48h0a.48.48,0,0,0,.49-.47h0a.49.49,0,0,0-.49-.49h0Zm12.37,0a.49.49,0,0,0-.48.49.5.5,0,1,0,.52-.5h0Zm12.37,0a.49.49,0,0,0-.48.49.5.5,0,1,0,.52-.5h0Zm12.38,0a.5.5,0,1,0,.51.49.49.49,0,0,0-.51-.49h0Zm12.37,0a.5.5,0,1,0,.51.49.49.49,0,0,0-.51-.49h0Zm12.37,0a.5.5,0,1,0,.51.49.49.49,0,0,0-.51-.49h0Zm12.37,0a.49.49,0,0,0-.49.49.47.47,0,0,0,.48.48h0a.47.47,0,0,0,.48-.46v0a.47.47,0,0,0-.47-.49h0Zm12.37,0a.49.49,0,0,0-.49.49.47.47,0,0,0,.48.48h0a.46.46,0,0,0,.48-.46V267a.48.48,0,0,0-.51-.45h0Zm-92.78-8.33a.47.47,0,0,0-.49.47h0a.49.49,0,0,0,.49.49.47.47,0,0,0,.48-.48h0a.46.46,0,0,0-.46-.48h0Zm12.37,0a.47.47,0,0,0-.49.47h0a.49.49,0,0,0,.49.49.47.47,0,0,0,.48-.48h0a.46.46,0,0,0-.46-.48h0Zm12.37,0a.47.47,0,0,0-.49.47h0a.49.49,0,0,0,.49.49.47.47,0,0,0,.48-.48h0a.46.46,0,0,0-.46-.48h0Zm12.37,0a.47.47,0,0,0-.49.47h0a.5.5,0,0,0,1,0h0a.49.49,0,0,0-.47-.49h0Zm12.37,0a.47.47,0,0,0-.48.46v0a.47.47,0,0,0,.47.49h0a.49.49,0,0,0,.49-.49.47.47,0,0,0-.48-.48h0Zm12.37,0a.47.47,0,0,0-.48.46v0a.47.47,0,0,0,.47.49h0a.49.49,0,0,0,.49-.49.47.47,0,0,0-.48-.48h0Zm12.37,0a.47.47,0,0,0-.48.46v0a.47.47,0,0,0,.47.49h0a.49.49,0,0,0,.49-.49.47.47,0,0,0-.48-.48h0Zm12.37,0a.47.47,0,0,0-.48.46v0a.47.47,0,0,0,.47.49h0a.49.49,0,0,0,.49-.49.47.47,0,0,0-.48-.48h0Zm12.75.17a.5.5,0,0,0-.38-.17.47.47,0,0,0-.48.48h0a.49.49,0,0,0,.48.49.46.46,0,0,0,.3-.19ZM68.14,283a.47.47,0,0,0-.48.46v0a.47.47,0,0,0,.47.49h0a.49.49,0,0,0,.49-.49.47.47,0,0,0-.48-.48Zm12.37,0a.47.47,0,0,0-.48.46v0a.47.47,0,0,0,.47.49h0a.49.49,0,0,0,.49-.49.47.47,0,0,0-.48-.48Zm12.37,0a.47.47,0,0,0-.48.46v0a.47.47,0,0,0,.47.49h0a.49.49,0,0,0,.49-.49.47.47,0,0,0-.48-.48Zm12.37,0a.47.47,0,0,0-.48.48h0a.5.5,0,0,0,1,0,.47.47,0,0,0-.48-.48Zm12.37,0a.47.47,0,0,0-.48.48h0a.5.5,0,0,0,1,0,.47.47,0,0,0-.48-.48ZM130,283a.47.47,0,0,0-.49.47h0a.5.5,0,0,0,1,0A.47.47,0,0,0,130,283Zm12.37,0a.47.47,0,0,0-.49.47h0a.5.5,0,0,0,1,0,.47.47,0,0,0-.48-.48Zm12.37,0a.47.47,0,0,0-.49.47h0a.5.5,0,0,0,1,0,.47.47,0,0,0-.48-.48Zm12.37,0a.47.47,0,0,0-.49.47h0a.49.49,0,0,0,.49.49.47.47,0,0,0,.48-.48h0a.47.47,0,0,0-.46-.48Zm12.37,0a.47.47,0,0,0-.49.47h0a.49.49,0,0,0,.49.49.47.47,0,0,0,.48-.48h0a.47.47,0,0,0-.46-.48ZM74.33,274.66a.49.49,0,1,0,.48.5h0a.49.49,0,0,0-.48-.47Zm12.37,0a.5.5,0,1,0,.5.5A.5.5,0,0,0,86.7,274.66Zm12.37,0a.5.5,0,1,0,.5.5A.5.5,0,0,0,99.07,274.66Zm12.37,0a.5.5,0,1,0,.5.5A.5.5,0,0,0,111.44,274.66Zm12.37,0a.49.49,0,1,0,.49.49h0a.49.49,0,0,0-.49-.47Zm12.37,0a.5.5,0,1,0,.5.5A.5.5,0,0,0,136.18,274.66Zm12.37,0a.5.5,0,1,0,.5.5A.5.5,0,0,0,148.55,274.66Zm12.37,0a.5.5,0,1,0,.5.5A.5.5,0,0,0,160.92,274.66Zm12.37,0a.5.5,0,1,0,.5.5A.5.5,0,0,0,173.29,274.66Zm12.37,0a.49.49,0,1,0,.49.49h0a.49.49,0,0,0-.49-.47ZM68.14,299.46a.5.5,0,1,0,.5.5A.5.5,0,0,0,68.14,299.46Zm12.37,0a.5.5,0,1,0,.5.5A.5.5,0,0,0,80.51,299.46Zm12.37,0a.5.5,0,0,0,0,1h0a.5.5,0,0,0,0-1Zm12.37,0a.49.49,0,1,0,.49.49h0a.49.49,0,0,0-.49-.47Zm12.37,0a.49.49,0,1,0,.49.49h0a.49.49,0,0,0-.49-.47Zm12.38,0a.49.49,0,1,0,.48.5h0a.49.49,0,0,0-.48-.47Zm12.37,0a.49.49,0,1,0,.48.5h0a.49.49,0,0,0-.48-.47Zm12.37,0a.49.49,0,1,0,.48.5h0a.49.49,0,0,0-.48-.47Zm12.37,0a.5.5,0,1,0,.5.5A.5.5,0,0,0,167.11,299.46Zm12.37,0a.5.5,0,1,0,.5.5A.5.5,0,0,0,179.48,299.46ZM74.33,291.12a.49.49,0,1,0,.48.5h0a.49.49,0,0,0-.48-.47Zm12.37,0a.5.5,0,1,0,.5.5A.5.5,0,0,0,86.7,291.12Zm12.37,0a.5.5,0,1,0,.5.5A.5.5,0,0,0,99.07,291.12Zm12.37,0a.5.5,0,1,0,.5.5A.5.5,0,0,0,111.44,291.12Zm12.37,0a.49.49,0,1,0,.49.49h0a.49.49,0,0,0-.49-.47Zm12.37,0a.5.5,0,1,0,.5.5A.5.5,0,0,0,136.18,291.12Zm12.37,0a.5.5,0,1,0,.5.5A.5.5,0,0,0,148.55,291.12Zm12.37,0a.5.5,0,1,0,.5.5A.5.5,0,0,0,160.92,291.12Zm12.37,0a.5.5,0,1,0,.5.5.5.5,0,0,0-.5-.5Zm12.37,0a.49.49,0,1,0,.49.49h0a.49.49,0,0,0-.49-.47ZM111.92,308a.48.48,0,0,0-.48-.44.49.49,0,0,0-.48.38Zm11.89-.44a.49.49,0,1,0,.49.49h0a.49.49,0,0,0-.49-.46Zm12.37,0a.5.5,0,1,0,.5.5A.5.5,0,0,0,136.18,307.59Zm12.37,0a.5.5,0,1,0,.5.5A.5.5,0,0,0,148.55,307.59Zm12.37,0a.5.5,0,1,0,.5.5A.5.5,0,0,0,160.92,307.59Zm12.37,0a.5.5,0,0,0,0,1h0a.5.5,0,1,0,0-1Zm12.37,0a.49.49,0,1,0,.49.49h0a.49.49,0,0,0-.49-.46Z" transform="translate(-4.17 -13.85)"></path><path class="cls-1" d="M62.34,286.05s37.75-6.32,40.75-8,37.44-61.55,39.67-67.69-4.93-50.91-4.38-51.35,5-2.46,5.78-2.43,7.26,35.45,8.36,35.67,26.12-.44,26.81-1.33-8.51-30.6-8.56-31.35,3.93,1.22,4.5,2.11,26.36,53.4,26.47,66.71-14.63,30-14.63,30,.66,54.53.77,55.75,8.43,30.47,8.43,30.47H83.13L98.21,294l-37.69-1.44Z" transform="translate(-4.17 -13.85)"></path><path class="cls-10" d="M170.55,159.43s-1.52,17.4-4.71,17.26c-9.8-.43-18.74-15.23-19-17.41-.07-.56,2.55-13.87,4.61-24.22,1.33-6.65,2.43-12.08,2.43-12.08l22.78,17.57L171,158.17Z" transform="translate(-4.17 -13.85)"></path><path class="cls-4" d="M176.62,140.55,171,158.17a37.1,37.1,0,0,1-19.55-23.11c1.33-6.65,2.43-12.08,2.43-12.08l2.89,2.08Z" transform="translate(-4.17 -13.85)"></path><path class="cls-10" d="M205.8,120.77c-6,31.93-25.8,31.94-32.69,30.64-6.25-1.18-27.37-6-24.7-38.38s19.41-39.68,33.84-37.73S211.8,88.84,205.8,120.77Z" transform="translate(-4.17 -13.85)"></path><path class="cls-4" d="M200.82,114.8a21.94,21.94,0,0,1-2-1,3.7,3.7,0,0,1-1.85-1.41,1.18,1.18,0,0,1,.36-1.37,2.84,2.84,0,0,1,2.9.07,4.16,4.16,0,0,1,2.18,2.11,1.24,1.24,0,0,1-.69,1.6A1.27,1.27,0,0,1,200.82,114.8Z" transform="translate(-4.17 -13.85)"></path><path class="cls-4" d="M180.5,109.77a21.17,21.17,0,0,0,2.25.1,3.59,3.59,0,0,0,2.3-.32,1.15,1.15,0,0,0,.36-1.37,2.86,2.86,0,0,0-2.57-1.36,4.2,4.2,0,0,0-2.93.77,1.24,1.24,0,0,0,.59,2.18Z" transform="translate(-4.17 -13.85)"></path><path class="cls-4" d="M182.62,118.79c0-.08-.19.06-.21.15-.44,2.17-1.31,4.58-3.43,4.83-.07,0-.08.12,0,.13C181.43,124.13,182.55,120.92,182.62,118.79Z" transform="translate(-4.17 -13.85)"></path><path class="cls-4" d="M181.23,116.09c-3.4-1.08-5.32,5.8-2.17,6.8S184.08,117,181.23,116.09Z" transform="translate(-4.17 -13.85)"></path><path class="cls-4" d="M179.78,116.08c-.71.22-1.49.74-2.24.61s-1.29-1-1.65-1.89c0-.09-.11,0-.14,0-.38,1.31-.25,2.8,1.11,3.39s2.49-.37,3.18-1.6C180.17,116.41,180.06,116,179.78,116.08Z" transform="translate(-4.17 -13.85)"></path><path class="cls-4" d="M194.63,121.56c0-.08.14.14.11.23-.68,2.11-1.1,4.63.62,5.89.06,0,0,.15-.05.12C193.06,126.79,193.65,123.44,194.63,121.56Z" transform="translate(-4.17 -13.85)"></path><path class="cls-4" d="M197.16,119.88c3.5.72,1.8,7.66-1.44,7S194.23,119.27,197.16,119.88Z" transform="translate(-4.17 -13.85)"></path><path class="cls-4" d="M198.5,120.69c.46.5.84,1.3,1.48,1.5s1.49-.37,2.15-1c.07-.07.11,0,.09.1-.29,1.33-1.06,2.61-2.4,2.55S198,122.44,198,121C198,120.81,198.31,120.49,198.5,120.69Z" transform="translate(-4.17 -13.85)"></path><path class="cls-4" d="M177.51,135.45c.34.66.62,1.5,1.36,1.82a5.92,5.92,0,0,0,2.44.21.09.09,0,0,1,.08.08.07.07,0,0,1,0,.06,3,3,0,0,1-3,.26,2.34,2.34,0,0,1-1-2.4C177.28,135.35,177.46,135.36,177.51,135.45Z" transform="translate(-4.17 -13.85)"></path><path class="cls-4" d="M188.5,130.1s-.41,3.31-.81,4.82c0,.14-.42.11-.94,0h-.06a7.4,7.4,0,0,1-6.24-4.52.17.17,0,0,1,.09-.21.17.17,0,0,1,.19.06,11.22,11.22,0,0,0,6,3.61c.22-.39.51-5.7.75-5.65a13.9,13.9,0,0,1,3.22,1.68c1-6.87,1-13.85,2.13-20.68a.21.21,0,0,1,.42,0c.58,7.31-.45,15.25-1.35,22.37C191.83,132.47,189,130.52,188.5,130.1Z" transform="translate(-4.17 -13.85)"></path><path class="cls-4" d="M186.18,134a8.3,8.3,0,0,1-3.72,1.92,3.78,3.78,0,0,1-2.25-.27c-1.52-.72-1.29-2.2-.76-3.41a8.75,8.75,0,0,1,1.07-1.79A10.68,10.68,0,0,0,186.18,134Z" transform="translate(-4.17 -13.85)"></path><path class="cls-14" d="M182.46,135.94a3.78,3.78,0,0,1-2.25-.27c-1.52-.72-1.29-2.2-.76-3.41C181.13,132.76,182.62,134.24,182.46,135.94Z" transform="translate(-4.17 -13.85)"></path><path class="cls-4" d="M150.72,111.71c7.2,2.17,10.45-9.23,10.45-9.23s8.4,1.63,12.84-11.4c0,0,1.62,9.12,12.25,14,2.25,1-3.86-7.35-3.86-7.35s6.95,11.28,25.4,13.13c1.31.13,4-19.11-7.87-29.4s-25.33-10.31-36.34-4.11c0,0-11.42,1.72-15.32,10.92S147.93,110.87,150.72,111.71Z" transform="translate(-4.17 -13.85)"></path><path class="cls-10" d="M153,116.44s-4.1-11.67-9.21-10.48-3.93,16.79.73,20.18a5.49,5.49,0,0,0,7.73-.68l.15-.18Z" transform="translate(-4.17 -13.85)"></path><path class="cls-4" d="M144.26,110.42c-.09,0-.13.09-.07.14,3.24,2.49,4.21,6.41,4.58,10.29-.71-1.65-2-2.8-4.15-2-.11,0-.06.21,0,.22a3.39,3.39,0,0,1,3.27,2.13,15.76,15.76,0,0,1,.9,3.38c.08.37.72.36.7,0v-.09C150.92,119.81,149.12,112.29,144.26,110.42Z" transform="translate(-4.17 -13.85)"></path><path class="cls-13" d="M147.86,125.58a1.14,1.14,0,0,1-2.18-.66,1.13,1.13,0,0,1,1.42-.76h0a1.13,1.13,0,0,1,.75,1.41Z" transform="translate(-4.17 -13.85)"></path><path class="cls-13" d="M145.4,122.76a.72.72,0,1,1-.48-.9A.73.73,0,0,1,145.4,122.76Z" transform="translate(-4.17 -13.85)"></path><path class="cls-4" d="M172.48,164.82a49.6,49.6,0,0,1-.33,5.72,30.13,30.13,0,0,1-1,5.57,9.24,9.24,0,0,1-2.63,4.69c-1.37,1.12-3.34.69-5,0-3.42-1.44-6.4-3.94-9.2-6.46a53.91,53.91,0,0,1-4-4,38.37,38.37,0,0,1-3.6-4.44,42.06,42.06,0,0,0,7.1,9,43.78,43.78,0,0,0,4.36,3.8,24,24,0,0,0,5,3,9.26,9.26,0,0,0,2.93.72,4.88,4.88,0,0,0,1.57-.16,4.41,4.41,0,0,0,1.4-.75,6.68,6.68,0,0,0,1.85-2.4,13.77,13.77,0,0,0,1-2.78A36.76,36.76,0,0,0,172.48,164.82Z" transform="translate(-4.17 -13.85)"></path><path class="cls-1" d="M145.64,99.06c-.32-.33-10.74-14.85-12.18-16.18s-13-.11-15-5.1-2.32-15.07,3.77-19.4,12.75-5.87,13.19-6.54-1.62-15.52,7.34-20.28,21.15,8,21.82,8,4.4-8.32,11-8.65,12.65,10,14.31,9.87,10.59-1,17.27,4.21-.42,16.74-2.31,18.4-.55,18.84-.55,18.84Z" transform="translate(-4.17 -13.85)"></path><path class="cls-11" d="M151.58,92.41a7.5,7.5,0,0,1-1.65-2.07c-.49-.76-1-1.52-1.52-2.26a38,38,0,0,0-3.55-4.16,6.77,6.77,0,0,0-3.7-2.37,3.19,3.19,0,0,0-1.87.32,3.38,3.38,0,0,0-1,.67,9.64,9.64,0,0,0-.54,1c-.06.09.1.18.15.08a1.84,1.84,0,0,1,.88-1,4.93,4.93,0,0,1,1.06-.37,3.18,3.18,0,0,1,2.27.44,13.31,13.31,0,0,1,3.26,3.18c1,1.2,2,2.39,3.07,3.58s1.76,2.56,3.06,3.22C151.55,92.64,151.68,92.48,151.58,92.41Z" transform="translate(-4.17 -13.85)"></path><path class="cls-11" d="M155.2,92.12q-3.15-4.64-6.33-9.26A49.06,49.06,0,0,1,143.18,73c0-.1-.2-.05-.17,0a51.16,51.16,0,0,0,4.88,10.24A71.27,71.27,0,0,0,155,92.2C155.12,92.34,155.27,92.22,155.2,92.12Z" transform="translate(-4.17 -13.85)"></path><path class="cls-11" d="M164.14,86.38c-1.36-2.9-3-5.68-4.64-8.44a32,32,0,0,0-5.16-6.65c-.08-.08-.19,0-.12.12,1.92,2.15,3.11,4.8,4.52,7.28,1.55,2.71,3.1,5.45,4.89,8a.3.3,0,0,0,.42.06A.31.31,0,0,0,164.14,86.38Z" transform="translate(-4.17 -13.85)"></path><path class="cls-11" d="M177.8,59.21a3.27,3.27,0,0,0-4.56.75,3,3,0,0,0-.32.54c-1.06,2.19-.66,5-.35,7.36a31.21,31.21,0,0,0,2,7.36,32.88,32.88,0,0,0,4.26,7.47.08.08,0,0,0,.11,0,.1.1,0,0,0,0-.12A37.92,37.92,0,0,1,174.33,70a36.71,36.71,0,0,1-.6-6.62c0-1.86,1-4.89,3.49-4,2.31.83,2.91,3.83,4.4,5.52,0,0,.09,0,.06-.06C180.19,63,179.8,60.59,177.8,59.21Z" transform="translate(-4.17 -13.85)"></path><path class="cls-11" d="M199.73,58.21a16.88,16.88,0,0,0-3.92,10.24,30.21,30.21,0,0,0,.3,6.23A32.44,32.44,0,0,0,197.36,81a.08.08,0,0,0,.16,0c0-2-.5-4-.57-6a40,40,0,0,1,.16-6.09,37.81,37.81,0,0,1,1-5.28,26.25,26.25,0,0,1,2-5.06C200.22,58.26,199.91,58,199.73,58.21Z" transform="translate(-4.17 -13.85)"></path><path class="cls-11" d="M190.61,71.83a67.23,67.23,0,0,0-2.49-9.36.25.25,0,0,0-.48.14c.76,3.11,1.32,6.27,1.88,9.42s.91,6.29,1.66,9.36c0,.1.16.06.17,0A37,37,0,0,0,190.61,71.83Z" transform="translate(-4.17 -13.85)"></path><path class="cls-3" d="M147.83,106.8c-.6-2.37,23-22.12,58.51-16.48,1.66.26-.2-13.23-2-14.45s-48.52-5.32-62.76,19.76C140.59,97.32,147.83,106.8,147.83,106.8Z" transform="translate(-4.17 -13.85)"></path><path class="cls-10" d="M123.63,189c-.95,53.55,21.77,107.37,33.69,111.22,18.58,6,64-4.2,102.09-24.45,6.24-3.32-25.63-55.31-32.58-52.34-13.8,5.88-52.82,16.66-53.56,17.2-1.59,1.15-18.67-33.45-28.17-55.28C131.86,154.89,124,166.68,123.63,189Z" transform="translate(-4.17 -13.85)"></path><path class="cls-10" d="M304.53,198.51c4.3,5,.67,10.84.67,10.84a14.11,14.11,0,0,1,7.61,5.84c2.9,5-3.73,11.8-3.73,11.8a17.4,17.4,0,0,1,7.05,7.44c2.28,5.1-3.43,12.87-3.43,12.87a15.29,15.29,0,0,1,2.07,10.44c-1.95,9.61-16,14.85-24.84,18.28s-37.26,4.83-42.64,5.64l-22.47-56.77s35.43-26.69,46.43-29.23C280.53,193.51,299.71,192.86,304.53,198.51Z" transform="translate(-4.17 -13.85)"></path><path class="cls-4" d="M304.44,208.59c-10.4-.08-20.27,2.91-30.28,5.35a.17.17,0,1,0,.08.34h0c9.94-2.53,20.25-3.06,30.26-5.19a.27.27,0,0,0,.15-.34A.29.29,0,0,0,304.44,208.59Z" transform="translate(-4.17 -13.85)"></path><path class="cls-4" d="M308.6,226.31a27,27,0,0,0-6.92,1.55c-2.41.71-4.81,1.47-7.19,2.26q-7.17,2.38-14.21,5.12c-.21.08-.13.42.09.35,4.76-1.58,9.55-3.08,14.37-4.45l7.26-2a31.57,31.57,0,0,0,6.77-2.15.36.36,0,0,0,.16-.48A.36.36,0,0,0,308.6,226.31Z" transform="translate(-4.17 -13.85)"></path><path class="cls-4" d="M312.5,247.36c-2.05,0-4.26,1-6.16,1.72-2.17.77-4.33,1.53-6.5,2.27-4.34,1.49-8.68,3-13.07,4.31-.21.07-.13.42.09.35,4.47-1.34,8.95-2.61,13.4-4,2.19-.67,4.37-1.35,6.55-2.06,1.85-.59,4.24-1.13,5.77-2.39a.12.12,0,0,0,0-.17A.09.09,0,0,0,312.5,247.36Z" transform="translate(-4.17 -13.85)"></path><path class="cls-4" d="M316.65,236.52c0-.1-.15-.06-.15,0,0,6.38-3.2,9-3.8,10.74,0,.11,3.4,8.15-.35,14.69-2.45,4.28-7.06,6.76-11.4,8.74a88.1,88.1,0,0,1-15.95,6c-5.87,1.41-11.92,1.89-17.92,2.47-6.58.62-19.84,1.42-20.15,1.51-2.19.65-21.77,8.89-26.07,10.66-1.18.49-2.36,1-3.54,1.48s-2.4,1-3.53,1.57c-.08,0,0,.16.07.14,1.11-.24,2.21-.65,3.3-1s27.75-10.3,30-11.51c6.24-.14,12.46-.61,18.68-1.17s12.58-.46,18.66-1.88a92.12,92.12,0,0,0,16.71-6.19c4.57-2.06,9.21-5,11.86-9.44a15.39,15.39,0,0,0,.09-16C314.28,245.68,317.8,241.22,316.65,236.52Z" transform="translate(-4.17 -13.85)"></path><path class="cls-4" d="M215.07,227.66c-1.14.15-5.82,1.58-7,2-2.42.74-4.76,1.62-7.1,2.58a.09.09,0,0,0-.05.1.12.12,0,0,0,.05.05c2.45-.58,4.86-1.22,7.26-2,1.17-.39,5.82-2,6.88-2.51a.09.09,0,0,0,.07-.1.1.1,0,0,0-.11-.07Z" transform="translate(-4.17 -13.85)"></path><path class="cls-6" d="M156.94,208.45l-33.63,20.94s-2.78-29.31-.64-47.85,9.45-23.34,22.58,1.07A200.6,200.6,0,0,1,156.94,208.45Z" transform="translate(-4.17 -13.85)"></path><path class="cls-13" d="M130.48,168.25a.49.49,0,1,1-.5-.48h0A.5.5,0,0,1,130.48,168.25Zm-.48,16a.49.49,0,0,0-.49.49h0a.5.5,0,0,0,1,0h0a.49.49,0,0,0-.47-.51h0Zm12.37,0a.49.49,0,0,0-.49.49h0a.5.5,0,0,0,1,0h0a.49.49,0,0,0-.47-.51h0Zm-18.56-8.33a.47.47,0,0,0-.49.47h0a.5.5,0,1,0,1,0,.48.48,0,0,0-.46-.5h0Zm12.37,0a.47.47,0,0,0-.48.46v0a.47.47,0,0,0,.47.49h0a.49.49,0,0,0,.49-.49h0a.48.48,0,0,0-.46-.5h0ZM130,200.7a.47.47,0,0,0-.49.47h0a.5.5,0,0,0,1,0,.47.47,0,0,0-.48-.48Zm12.37,0a.47.47,0,0,0-.49.47h0a.5.5,0,0,0,1,0,.47.47,0,0,0-.48-.48Zm-18.56-8.34a.49.49,0,1,0,.49.49.49.49,0,0,0-.49-.49Zm12.37,0a.5.5,0,1,0,.5.5A.5.5,0,0,0,136.18,192.36Zm12.37,0a.5.5,0,1,0,.5.5A.5.5,0,0,0,148.55,192.36ZM130,217.16a.49.49,0,1,0,.48.5h0A.49.49,0,0,0,130,217.16Zm12.37,0a.49.49,0,0,0-.49.49h0a.43.43,0,0,0,0,.16l.81-.5A.5.5,0,0,0,142.37,217.16Zm-18.56-8.34a.49.49,0,0,0-.49.49h0a.5.5,0,1,0,.51-.49Zm12.37,0a.47.47,0,0,0-.48.48h0a.47.47,0,0,0,.46.48h0a.47.47,0,0,0,.49-.47h0a.49.49,0,0,0-.49-.49Zm12.37,0a.47.47,0,0,0-.48.48h0a.47.47,0,0,0,.46.48h0a.47.47,0,0,0,.49-.47h0a.49.49,0,0,0-.49-.49Zm-24.74,16.47a.49.49,0,1,0,.49.49h0a.49.49,0,0,0-.49-.48Z" transform="translate(-4.17 -13.85)"></path><path class="cls-4" d="M124.15,219.22a211.16,211.16,0,0,1,27.68-16.85.15.15,0,0,1,.2.1.16.16,0,0,1,0,.16c-2.23,1.59-22.84,14.69-27.74,16.8C124.13,219.48,124.05,219.29,124.15,219.22Z" transform="translate(-4.17 -13.85)"></path><path class="cls-4" d="M126.62,227.34c-.35-.1-3.23,1.92-3.28,2,.1-4.28-.24-8.44-.45-12.71-.23-4.62-.33-9.23-.49-13.85-.09-2.6,0-5.2-.14-7.8,0-.16-.23-.15-.25,0-.28,3.06-.38,6.15-.4,9.24-.22-1.74-.44-3.47-.72-5.2,0-.12-.22-.08-.21,0a50.51,50.51,0,0,0,.92,7.46v2.33c0,4.62.12,9.25.5,13.86.21,2.59.44,7.88.44,7.71a31.78,31.78,0,0,0,4.11-3S126.65,227.34,126.62,227.34Z" transform="translate(-4.17 -13.85)"></path></g><g id="freepik--cooking-tools--inject-152"><rect class="cls-2" x="65.51" y="361.29" width="44.4" height="6.68"></rect><path class="cls-2" d="M155.43,338.15s-3.24,21.41-19.88,31.14-38.81,10-43.67,10-27-.24-43.68-10-19.88-31.14-19.88-31.14Z" transform="translate(-4.17 -13.85)"></path><ellipse class="cls-2" cx="87.7" cy="324.3" rx="63.55" ry="8.15"></ellipse><ellipse class="cls-15" cx="87.7" cy="324.3" rx="63.55" ry="8.15"></ellipse><path class="cls-13" d="M137.23,343.86a369.45,369.45,0,0,1-45.35,2.44,390.68,390.68,0,0,1-42.44-2.07h0c1.9-.73,9.2-7.18,11.88-4.62s8,1.72,11.21.92,3.4-2.27,5.48-1.59,2.43,1.3,4.62,1.59,1.91-2.09,4-2.36,3.55-.51,5.26.77,1,1.05,2.8,1.59a12.17,12.17,0,0,0,3.16.54s2.55-2.05,4.63-.54-1.22,2.85,2.68,1.88,5.48-3.66,7.18-2.68-.53,1,1.75,2,.48,1.7,4.17,1.09,3.09-1.58,5.52-1.58,2.31-.73,3.65.24.49,0,3,.86a23.78,23.78,0,0,0,2.56.85c1.7.49,1.23-.54,3.46,0A1,1,0,0,1,137.23,343.86Z" transform="translate(-4.17 -13.85)"></path><path class="cls-12" d="M63.34,392.62a11.18,11.18,0,0,1,3.16-8.43c4.53-5.14,13-8.52,22.21-8.81,6.2-.2,14.4,1.83,22.33,3.79s15.64,3.86,20.71,3.39l60-5.57.34,3.68-1.41.12-.21-2.26L131.88,384c-5.3.49-13-1.42-21.17-3.43-7.84-1.94-15.94-4-22-3.75-8.79.28-16.92,3.48-21.21,8.34a9.83,9.83,0,0,0-2.81,7.36Z" transform="translate(-4.17 -13.85)"></path><path class="cls-12" d="M64.23,395.81a9.1,9.1,0,0,1-.89-3.19l1.4-.13a9.85,9.85,0,0,0,4.12,6.71c5.11,4,13.69,5.64,22.38,4.3,5.94-.92,13.53-4.38,20.88-7.73,7.65-3.49,14.88-6.78,20.19-7.27l58.55-5.44-.21-2.27,1.41-.12.34,3.66-60,5.57c-5.08.47-12.2,3.72-19.73,7.15s-15.13,6.89-21.26,7.84c-9.06,1.4-18-.36-23.46-4.57A12.9,12.9,0,0,1,64.23,395.81Z" transform="translate(-4.17 -13.85)"></path><path class="cls-12" d="M63.34,392.62a5.48,5.48,0,0,1,1.57-4.13c3.76-4.35,13.5-7.66,24.24-8.23,6.16-.33,14.25.74,22.08,1.77,8,1.05,15.51,2,20.62,1.56l60-5.56.25,2.64-1.41.12-.11-1.23L132,385c-5.27.49-12.88-.51-20.93-1.57-7.77-1-15.8-2.08-21.83-1.76-10.21.54-19.77,3.72-23.24,7.74a4.19,4.19,0,0,0-1.24,3.08Z" transform="translate(-4.17 -13.85)"></path><path class="cls-12" d="M63.76,394.14a4.47,4.47,0,0,1-.42-1.52l-.07-.7L192,380l.31,3.34-60,5.57c-5.11.48-12.33,2.84-20,5.34s-15.27,5-21.39,5.8c-10.66,1.42-20.84,0-25.33-3.62A6.68,6.68,0,0,1,63.76,394.14Zm1.13-1a4.82,4.82,0,0,0,1.63,2.1c4.15,3.31,14.14,4.68,24.28,3.34,6-.8,13.68-3.32,21.13-5.75,7.72-2.53,15-4.91,20.28-5.4L190.77,382l-.05-.53Z" transform="translate(-4.17 -13.85)"></path><polygon class="cls-8" points="190.06 360.53 142.73 364.93 143.85 376.98 191.45 372.56 190.06 360.53"></polygon><path class="cls-6" d="M356.4,244.8c14-2.39,15.12-16,12.94-24.47s-12.68-17.64-20.83-16.24S335.32,217.35,336.07,226,342.46,247.19,356.4,244.8Z" transform="translate(-4.17 -13.85)"></path><polygon class="cls-6" points="347.98 228.86 355.01 227.55 374.6 318.94 362.79 321.15 347.98 228.86"></polygon><rect class="cls-12" x="363.67" y="258.23" width="56.57" height="4.48" transform="translate(71.54 595.13) rotate(-81.38)"></rect><path class="cls-12" d="M386.32,231.65l23.91,3.75,6.45-33.17-26.35-4.13Zm21.58-26.78,2.49.38-3.87,24.68-2.48-.39Zm-6.24-1,2.47.38L400.26,229l-2.47-.38Zm-6.25-1,2.47.38L394,228l-2.47-.38Z" transform="translate(-4.17 -13.85)"></path><polygon class="cls-6" points="385.63 303.08 392.59 262.07 382.15 260.3 375.14 301.54 385.63 303.08"></polygon><rect class="cls-12" x="377.46" y="223.19" width="5.48" height="56.5" transform="translate(-9.31 -5.9) rotate(-1.19)"></rect><path class="cls-2" d="M370,224.71l19.74-.86s-1.87-34-2.31-34.82-13.73-1.16-16.49,9S370,224.71,370,224.71Z" transform="translate(-4.17 -13.85)"></path><polygon class="cls-2" points="381.85 295.42 381.52 253.83 370.93 253.91 371.26 295.75 381.85 295.42"></polygon><polygon class="cls-9" points="350.02 265.82 393.83 265.82 389.12 331.08 353.79 331.08 350.02 265.82"></polygon></g></svg>