<svg xmlns="http://www.w3.org/2000/svg" xmlns:xlink="http://www.w3.org/1999/xlink" id="Layer_1" data-name="Layer 1" viewBox="0 0 460.39 410.51"><defs><style>.cls-1,.cls-13,.cls-4{fill:none;}.cls-2{fill:#e10454;}.cls-11,.cls-3,.cls-8,.cls-9{fill:#fff;}.cls-3{opacity:0.7;}.cls-11,.cls-3{isolation:isolate;}.cls-4{stroke:#e10454;}.cls-4,.cls-7{stroke-miterlimit:10;}.cls-5{fill:#bfbfbf;}.cls-13,.cls-5,.cls-7,.cls-8{stroke:#263238;}.cls-13,.cls-5,.cls-8{stroke-linecap:round;stroke-linejoin:round;}.cls-6{fill:#263238;}.cls-7{fill:#40208b;}.cls-10{clip-path:url(#clip-path);}.cls-11,.cls-12{opacity:0.5;}.cls-14{clip-path:url(#clip-path-2);}.cls-15{fill:#c7c7c7;}.cls-16{fill:#8727ff;}.cls-17{fill:#455a64;}.cls-18{fill:#dbdbdb;}.cls-19{fill:#a6a6a6;}.cls-20{fill:#37474f;}.cls-21{fill:#ebebeb;}</style><clipPath id="clip-path" transform="translate(0.05 0)"><path class="cls-1" d="M101.29,186.54c-.21.61-5,11.06-5.23,11.68-2.66,8.56-2.43,13.71-1,22.59l.19,1.23c.64,16.62-3.9,25.07-12.46,39.33l-1.73,2.89-1.13,1.68h0l-2.53,3.35s.58,3.22-.88,4.52c-5.39,4.75-8.06,5.62-8.86,13.95L67.17,316l-1.37-.14c-2.88-.3-5.72-.67-8.49-1.13l-2.37-.41a97.75,97.75,0,0,1-10.52-2.57c-.39-.12-.78-.24-1.16-.38-1.16-.38-2.31-.78-3.42-1.21-.38-.14-.76-.29-1.13-.45-1-.39-1.9-.8-2.82-1.22l-.65-.32c-1.35-.65-2.68-1.34-4-2.09a18.5,18.5,0,0,1-1.59-1c.36-2,.72-3.91,1.07-5.8A393.78,393.78,0,0,0,37.1,239.2l1.14-39.06a40.86,40.86,0,0,1,11-25.12L74,149.29c.64-.67,2.88-1,3.74-1v47.54s6.72-22.53,9-28c5.58-13.6,15.23-10.75,17.43-5.8C105.59,165.24,101.44,186.11,101.29,186.54Z"></path></clipPath><clipPath id="clip-path-2" transform="translate(0.05 0)"><path class="cls-1" d="M372.77,388.76v-46.9l-.7-10.44s-6.31-9.1-5.91-19.15c.33-8.47,10.09-35.16,10.78-37.95.26-1,2.44-18.45,2.44-19.48s1-15.32,4.52-18.45,9.4-4.53,11.14,0,3.48,18.79,2.45,24-3.14,11.49-3.84,16a35.56,35.56,0,0,0,.36,10.09h15.66l2.77-8.7.71-17.41s-8.92-4.56-10.55-9v-4.21c.07-1.45.06-2.94,0-4.28v-4.61c3.1,1.5,23.59,11.51,25.51,14.07,2.09,2.79,3.48,13.93,3.48,13.93l2.76-6.91v-.06S425.64,245,425,242.61c0,0-7-1.74-10.09-5.58s-5.22-7.65-2.09-11.13S433,232.16,433,232.16l11.41,14.75,5.29,6.83s9.75,9.87,10.14,12.47c.45,2.94-3.88,15.72-3.88,15.72l-14.26,28.55c-.83,1.5-7.7,8.67-14.68,15.77-7.67,7.82-15.47,15.56-15.47,15.56l1.18,10.55a105.23,105.23,0,0,1-15.35,17.7c-1.85,1.69-3.75,3.34-5.72,5a179.2,179.2,0,0,1-18.88,13.64"></path></clipPath></defs><title>منوغذایی رستوران ها</title><g id="freepik--background-simple--inject-34"><path class="cls-2" d="M444.4,247c-1.68,28.89-7.53,56.32-17.39,79.34a145.72,145.72,0,0,1-14.29,26.11,105.23,105.23,0,0,1-15.35,17.7c-1.85,1.69-3.75,3.34-5.72,5a179.38,179.38,0,0,1-18.88,13.66q-5.92,3.74-12.44,7.21l-2.87,1.49-.23.12c-.93.47-1.85.92-2.79,1.36s-1.69.79-2.53,1.16l-1,.46c-.7.31-1.39.61-2.09.89l-.27.12c-.94.4-1.9.78-2.85,1.13h0l-2.64,1-.69.24c-.75.27-1.51.53-2.27.78l-.25.08c-.82.28-1.66.54-2.48.79s-1.52.44-2.27.65l-1.85.51c-1.5.39-3,.76-4.48,1.09l-1.75.37-1.62.33c-.93.18-1.84.34-2.75.48-.72.13-1.43.23-2.14.33l-2.27.34L316,410l-2.23.21-2.21.16-2.22.12c-.65,0-1.3,0-1.95.06H305c-1.46,0-2.92,0-4.38-.07l-1.55-.06-1-.05-1.52-.1c-1.09-.08-2.17-.17-3.25-.28s-2.35-.24-3.52-.4l-1.61-.22-1-.15-1.64-.26c-2.2-.37-4.37-.8-6.53-1.28l-1.92-.45c-.67-.15-1.31-.32-2-.49h-.13c-1.4-.36-2.78-.74-4.16-1.15-1.15-.34-2.29-.69-3.42-1.06-.79-.26-1.56-.51-2.33-.78-.61-.21-1.23-.42-1.83-.65q-6.41-2.3-12.57-5.21c-.6-.27-1.2-.56-1.79-.85l-.39-.2c-.58-.28-1.15-.55-1.72-.84h0c-1.29-.64-2.57-1.32-3.85-2l-.89-.49c-.55-.29-1.09-.6-1.64-.9q-4-2.26-7.91-4.73c-.67-.41-1.33-.83-2-1.26s-1.56-1-2.32-1.53-1.54-1-2.3-1.57-1.28-.89-1.92-1.34c-2.82-2-5.6-4.1-8.31-6.25-.58-.45-1.14-.91-1.71-1.37l-1.7-1.39c-.57-.46-1.13-.92-1.68-1.4s-1.11-.94-1.66-1.41-1.09-.93-1.62-1.4l-1.76-1.56c-.84-.75-1.67-1.52-2.51-2.28-1.27-1.17-2.52-2.37-3.77-3.56-.52-.5-1-1-1.56-1.52L196,358.47c-1.31-1.31-2.61-2.65-3.89-4l-.09-.1c-1.89-2-3.74-4-5.53-6-.07-.09-.15-.16-.21-.24-1.15-1.29-2.29-2.59-3.39-3.89L181,342a53.75,53.75,0,0,0-7.09-7.06c-.31-.27-.64-.53-1-.79l-1-.77c-.59-.45-1.19-.88-1.79-1.29-.31-.21-.6-.42-.91-.62l-1-.66-1-.63-.65-.38c-.28-.18-.58-.35-.86-.51l-1.08-.6-1.62-.85c-.34-.17-.69-.33-1-.51-1.47-.71-3-1.37-4.53-2l-1-.38a106.05,106.05,0,0,0-25.54-5.79c-.42-.06-.85-.1-1.29-.14-2.57-.28-5.19-.51-7.82-.69-1.2-.09-2.39-.17-3.6-.23l-1.7-.09-2.66-.12c-1.33-.06-2.67-.11-4-.15h-1.63c-.79,0-1.57-.05-2.37-.06l-4-.1-3.37-.08-4.18-.08H94l-3.87-.1-2.78-.08-2.65-.07h-.2l-2.67-.09c-4.77-.2-9.49-.48-14.09-.91l-.54-.05L65.84,316c-2.88-.3-5.72-.67-8.49-1.13L55,314.43a97.75,97.75,0,0,1-10.52-2.57c-.39-.12-.78-.24-1.16-.38-1.16-.38-2.31-.78-3.42-1.21-.38-.14-.76-.29-1.13-.45-1-.39-1.9-.8-2.82-1.22l-.69-.4c-1.35-.65-2.68-1.34-4-2.09a18.5,18.5,0,0,1-1.59-1l-.28-.18-.93-.61c-.61-.41-1.22-.83-1.81-1.27l-.55-.42-.72-.53-.93-.75c-.42-.34-.82-.7-1.23-1s-1-.93-1.55-1.42-1.12-1.09-1.67-1.67l-.81-.87-.78-.89-.87-1c-.28-.32-.44-.55-.67-.84s-.49-.63-.74-1c-.49-.65-1-1.32-1.43-2l-.16-.24c-.34-.52-.69-1.06-1-1.6l-.08-.13L13,288c-.12-.19-.23-.38-.34-.59s-.4-.7-.59-1l-.57-1.08c-.19-.37-.32-.61-.46-.92s-.43-.87-.64-1.32c-.52-1.11-1-2.22-1.49-3.35h0a.37.37,0,0,0,0-.11c-.34-.82-.68-1.63-1-2.45l-.09-.23c-.33-.83-.65-1.66-1-2.51s-.65-1.77-1-2.67S5.24,270,5,269.07c-.56-1.8-1.08-3.61-1.54-5.43q-.29-1.11-.54-2.22c-.11-.39-.19-.8-.28-1.22-.15-.62-.28-1.25-.4-1.89a1.36,1.36,0,0,1-.06-.29c-.18-.88-.35-1.77-.5-2.66s-.32-1.85-.46-2.79-.27-1.87-.39-2.81S.57,247.89.48,247c-.08-.73-.15-1.48-.2-2.22a4.18,4.18,0,0,0-.08-1c-.05-.72-.1-1.44-.13-2.17a2.53,2.53,0,0,1,0-.55c0-.48-.06-1-.06-1.46,0-.67-.06-1.33-.06-2V232.3a19.1,19.1,0,0,1,.07-2v-1c0-.61.06-1.23.11-1.83l.06-.95c0-.71.1-1.41.17-2.11a2.76,2.76,0,0,1,.08-.81c.08-.87.17-1.72.27-2.58a.29.29,0,0,1,0-.13c.11-1,.23-1.94.37-2.92.1-.77.22-1.53.34-2.31.2-1.2.4-2.41.63-3.62.13-.73.27-1.43.41-2.16.54-2.67,1.17-5.37,1.89-8.08.18-.69.36-1.38.55-2.07C6,195.85,7.23,191.94,8.65,188l.55-1.47c.2-.5.4-1,.59-1.52.47-1.25,1-2.51,1.48-3.77s1-2.46,1.57-3.69a1.19,1.19,0,0,0,.08-.2c.47-1.07,1-2.14,1.45-3.21.09-.21.19-.42.29-.63.53-1.15,1.07-2.3,1.63-3.44l.09-.19c.58-1.16,1.17-2.34,1.77-3.51a9.64,9.64,0,0,1,.54-1c.35-.69.7-1.38,1.08-2.06s.66-1.24,1-1.87.8-1.45,1.21-2.17c.85-1.52,1.72-3,2.62-4.53l.23-.36c.71-1.2,1.43-2.39,2.18-3.58s1.49-2.38,2.27-3.58,1.55-2.39,2.35-3.58,1.62-2.39,2.46-3.59,1.61-2.31,2.45-3.47l.08-.12c.87-1.19,1.74-2.39,2.64-3.58s1.79-2.4,2.72-3.59c.78-1,1.56-2,2.36-3l.74-.92c.85-1.07,1.72-2.16,2.61-3.23s1.65-2,2.5-3c.21-.26.44-.51.66-.78,1-1.12,1.92-2.25,2.9-3.37s2-2.22,3-3.33c.16-.2.34-.39.51-.58l3-3.26c1-1.09,1.86-2,2.8-3,.38-.42.77-.83,1.17-1.24,1-1,2-2,3-3.06s2.23-2.27,3.36-3.4q13.57-13.59,29.69-27C156.17,23.7,257.38,3.75,323.9,21.7,411.73,45.36,449.83,153.7,444.4,247Z" transform="translate(0.05 0)"></path><path class="cls-3" d="M444.4,247c-1.68,28.89-7.53,56.32-17.39,79.34a145.72,145.72,0,0,1-14.29,26.11,105.23,105.23,0,0,1-15.35,17.7c-1.85,1.69-3.75,3.34-5.72,5a179.38,179.38,0,0,1-18.88,13.66q-5.92,3.74-12.44,7.21l-2.87,1.49-.23.12c-.93.47-1.85.92-2.79,1.36s-1.69.79-2.53,1.16l-1,.46c-.7.31-1.39.61-2.09.89l-.27.12c-.94.4-1.9.78-2.85,1.13h0l-2.64,1-.69.24c-.75.27-1.51.53-2.27.78l-.25.08c-.82.28-1.66.54-2.48.79s-1.52.44-2.27.65l-1.85.51c-1.5.39-3,.76-4.48,1.09l-1.75.37-1.62.33c-.93.18-1.84.34-2.75.48-.72.13-1.43.23-2.14.33l-2.27.34L316,410l-2.23.21-2.21.16-2.22.12c-.65,0-1.3,0-1.95.06H305c-1.46,0-2.92,0-4.38-.07l-1.55-.06-1-.05-1.52-.1c-1.09-.08-2.17-.17-3.25-.28s-2.35-.24-3.52-.4l-1.61-.22-1-.15-1.64-.26c-2.2-.37-4.37-.8-6.53-1.28l-1.92-.45c-.67-.15-1.31-.32-2-.49h-.13c-1.4-.36-2.78-.74-4.16-1.15-1.15-.34-2.29-.69-3.42-1.06-.79-.26-1.56-.51-2.33-.78-.61-.21-1.23-.42-1.83-.65q-6.41-2.3-12.57-5.21c-.6-.27-1.2-.56-1.79-.85l-.39-.2c-.58-.28-1.15-.55-1.72-.84h0c-1.29-.64-2.57-1.32-3.85-2l-.89-.49c-.55-.29-1.09-.6-1.64-.9q-4-2.26-7.91-4.73c-.67-.41-1.33-.83-2-1.26s-1.56-1-2.32-1.53-1.54-1-2.3-1.57-1.28-.89-1.92-1.34c-2.82-2-5.6-4.1-8.31-6.25-.58-.45-1.14-.91-1.71-1.37l-1.7-1.39c-.57-.46-1.13-.92-1.68-1.4s-1.11-.94-1.66-1.41-1.09-.93-1.62-1.4l-1.76-1.56c-.84-.75-1.67-1.52-2.51-2.28-1.27-1.17-2.52-2.37-3.77-3.56-.52-.5-1-1-1.56-1.52L196,358.47c-1.31-1.31-2.61-2.65-3.89-4l-.09-.1c-1.89-2-3.74-4-5.53-6-.07-.09-.15-.16-.21-.24-1.15-1.29-2.29-2.59-3.39-3.89L181,342a53.75,53.75,0,0,0-7.09-7.06c-.31-.27-.64-.53-1-.79l-1-.77c-.59-.45-1.19-.88-1.79-1.29-.31-.21-.6-.42-.91-.62l-1-.66-1-.63-.65-.38c-.28-.18-.58-.35-.86-.51l-1.08-.6-1.62-.85c-.34-.17-.69-.33-1-.51-1.47-.71-3-1.37-4.53-2l-1-.38a106.05,106.05,0,0,0-25.54-5.79c-.42-.06-.85-.1-1.29-.14-2.57-.28-5.19-.51-7.82-.69-1.2-.09-2.39-.17-3.6-.23l-1.7-.09-2.66-.12c-1.33-.06-2.67-.11-4-.15h-1.63c-.79,0-1.57-.05-2.37-.06l-4-.1-3.37-.08-4.18-.08H94l-3.87-.1-2.78-.08-2.65-.07h-.2l-2.67-.09c-4.77-.2-9.49-.48-14.09-.91l-.54-.05L65.84,316c-2.88-.3-5.72-.67-8.49-1.13L55,314.43a97.75,97.75,0,0,1-10.52-2.57c-.39-.12-.78-.24-1.16-.38-1.16-.38-2.31-.78-3.42-1.21-.38-.14-.76-.29-1.13-.45-1-.39-1.9-.8-2.82-1.22l-.69-.4c-1.35-.65-2.68-1.34-4-2.09a18.5,18.5,0,0,1-1.59-1l-.28-.18-.93-.61c-.61-.41-1.22-.83-1.81-1.27l-.55-.42-.72-.53-.93-.75c-.42-.34-.82-.7-1.23-1s-1-.93-1.55-1.42-1.12-1.09-1.67-1.67l-.81-.87-.78-.89-.87-1c-.28-.32-.44-.55-.67-.84s-.49-.63-.74-1c-.49-.65-1-1.32-1.43-2l-.16-.24c-.34-.52-.69-1.06-1-1.6l-.08-.13L13,288c-.12-.19-.23-.38-.34-.59s-.4-.7-.59-1l-.57-1.08c-.19-.37-.32-.61-.46-.92s-.43-.87-.64-1.32c-.52-1.11-1-2.22-1.49-3.35h0a.37.37,0,0,0,0-.11c-.34-.82-.68-1.63-1-2.45l-.09-.23c-.33-.83-.65-1.66-1-2.51s-.65-1.77-1-2.67S5.24,270,5,269.07c-.56-1.8-1.08-3.61-1.54-5.43q-.29-1.11-.54-2.22c-.11-.39-.19-.8-.28-1.22-.15-.62-.28-1.25-.4-1.89a1.36,1.36,0,0,1-.06-.29c-.18-.88-.35-1.77-.5-2.66s-.32-1.85-.46-2.79-.27-1.87-.39-2.81S.57,247.89.48,247c-.08-.73-.15-1.48-.2-2.22a4.18,4.18,0,0,0-.08-1c-.05-.72-.1-1.44-.13-2.17a2.53,2.53,0,0,1,0-.55c0-.48-.06-1-.06-1.46,0-.67-.06-1.33-.06-2V232.3a19.1,19.1,0,0,1,.07-2v-1c0-.61.06-1.23.11-1.83l.06-.95c0-.71.1-1.41.17-2.11a2.76,2.76,0,0,1,.08-.81c.08-.87.17-1.72.27-2.58a.29.29,0,0,1,0-.13c.11-1,.23-1.94.37-2.92.1-.77.22-1.53.34-2.31.2-1.2.4-2.41.63-3.62.13-.73.27-1.43.41-2.16.54-2.67,1.17-5.37,1.89-8.08.18-.69.36-1.38.55-2.07C6,195.85,7.23,191.94,8.65,188l.55-1.47c.2-.5.4-1,.59-1.52.47-1.25,1-2.51,1.48-3.77s1-2.46,1.57-3.69a1.19,1.19,0,0,0,.08-.2c.47-1.07,1-2.14,1.45-3.21.09-.21.19-.42.29-.63.53-1.15,1.07-2.3,1.63-3.44l.09-.19c.58-1.16,1.17-2.34,1.77-3.51a9.64,9.64,0,0,1,.54-1c.35-.69.7-1.38,1.08-2.06s.66-1.24,1-1.87.8-1.45,1.21-2.17c.85-1.52,1.72-3,2.62-4.53l.23-.36c.71-1.2,1.43-2.39,2.18-3.58s1.49-2.38,2.27-3.58,1.55-2.39,2.35-3.58,1.62-2.39,2.46-3.59,1.61-2.31,2.45-3.47l.08-.12c.87-1.19,1.74-2.39,2.64-3.58s1.79-2.4,2.72-3.59c.78-1,1.56-2,2.36-3l.74-.92c.85-1.07,1.72-2.16,2.61-3.23s1.65-2,2.5-3c.21-.26.44-.51.66-.78,1-1.12,1.92-2.25,2.9-3.37s2-2.22,3-3.33c.16-.2.34-.39.51-.58l3-3.26c1-1.09,1.86-2,2.8-3,.38-.42.77-.83,1.17-1.24,1-1,2-2,3-3.06s2.23-2.27,3.36-3.4q13.57-13.59,29.69-27C156.17,23.7,257.38,3.75,323.9,21.7,411.73,45.36,449.83,153.7,444.4,247Z" transform="translate(0.05 0)"></path></g><g id="freepik--Plants--inject-34"><path class="cls-2" d="M135.31,42.22c1.56,6.42,7.84,14.21,14,11.23a12.41,12.41,0,0,0,2.7-1.9c-2.36-4.36-1.51-10.46-5.26-13.61-2.06-1.74-6.71-4.68-9.27-4.13C134,34.54,134.47,38.7,135.31,42.22Z" transform="translate(0.05 0)"></path><path class="cls-2" d="M149.59,59.05c3.83,3.8,8.1,6.37,14.86,3.62a9.28,9.28,0,0,0,3.79-3,5.59,5.59,0,0,0,1.09-4.48,5.18,5.18,0,0,0-4.47-3.69,14.49,14.49,0,0,0-6.13.7,20.39,20.39,0,0,0-5.94,3A14.64,14.64,0,0,0,149.59,59.05Z" transform="translate(0.05 0)"></path><path class="cls-4" d="M158.51,36.93c-4.09,10.86-9.25,21.11-13.42,31.64" transform="translate(0.05 0)"></path><path class="cls-2" d="M121.88,75.83a17.46,17.46,0,0,0,6.27,8.89c2.85,2,6.13,2.66,8.91.76a14.91,14.91,0,0,0,2.41-2.22c-1.43-2-2.09-4.58-2.82-7s-1.51-4.82-3.42-6.41c-2.09-1.71-6.7-4.81-9.36-3.9C120.34,67.15,120.69,72.07,121.88,75.83Z" transform="translate(0.05 0)"></path><path class="cls-2" d="M138.24,90.93a16.66,16.66,0,0,0,7,3.12,13.2,13.2,0,0,0,8.26-1.78,8.09,8.09,0,0,0,3.17-3,4.15,4.15,0,0,0,.41-4,5.82,5.82,0,0,0-4.86-3.1,13.4,13.4,0,0,0-5.93,1.06,16.15,16.15,0,0,0-5.46,3.46A14.06,14.06,0,0,0,138.24,90.93Z" transform="translate(0.05 0)"></path><path class="cls-4" d="M145.09,68.57c-2.16,5.24-3.93,10.61-5.61,16-1.52,5.44-2.93,10.91-3.93,16.48" transform="translate(0.05 0)"></path><path class="cls-2" d="M114.14,112.53c3.4,6.27,11.86,11.43,16.74,6.65a12.46,12.46,0,0,0,2-2.62,14,14,0,0,1-2.3-3c-.63-1.09-1.19-2.26-1.78-3.4-1.16-2.28-2.44-4.44-4.63-5.62-2.39-1.28-7.46-3.43-9.94-2C111,104.41,112.33,109.14,114.14,112.53Z" transform="translate(0.05 0)"></path><path class="cls-2" d="M133,124.36c4.93,2.34,9.74,3.2,15.23-1.37,2.37-1.91,3.9-5.29,2.27-7.76a5.63,5.63,0,0,0-5.32-2.14,13.66,13.66,0,0,0-5.67,2.18,17.66,17.66,0,0,0-4.71,4.45A13.16,13.16,0,0,0,133,124.36Z" transform="translate(0.05 0)"></path><path class="cls-4" d="M135.55,101.05a232,232,0,0,0-3.62,33.77" transform="translate(0.05 0)"></path><path class="cls-2" d="M112.49,150a16.56,16.56,0,0,0,9.18,6.2c3.41.8,6.67.09,8.53-2.73a14.23,14.23,0,0,0,1.4-3c-2.09-1.31-3.62-3.47-5.13-5.63s-3-4.07-5.29-5c-2.52-.93-7.89-2.28-10.12-.6-1.47,1.14-1.74,2.7-1.36,4.57A15.18,15.18,0,0,0,112.49,150Z" transform="translate(0.05 0)"></path><path class="cls-2" d="M133.38,158c5.33,1.15,10.17.66,14.55-4.64,1.85-2.24,2.78-5.43.78-7.16a6.77,6.77,0,0,0-5.61-1,12.27,12.27,0,0,0-5.2,2.83,15.09,15.09,0,0,0-3.8,5.12A12.91,12.91,0,0,0,133.38,158Z" transform="translate(0.05 0)"></path><path class="cls-4" d="M131.93,134.82l-.22,8.52a72.55,72.55,0,0,0,.41,8.34A122.66,122.66,0,0,0,135,168.29" transform="translate(0.05 0)"></path><path class="cls-2" d="M120.7,188.18a17.14,17.14,0,0,0,10.54,3.38c3.52-.17,6.41-1.76,7.45-5a16.15,16.15,0,0,0,.54-3.23c-4.79-1.35-8.22-6.72-13.11-7.08-2.69-.16-8.27,0-9.86,2.36C114.09,181.82,117.48,185.79,120.7,188.18Z" transform="translate(0.05 0)"></path><path class="cls-2" d="M143,190.07a16.34,16.34,0,0,0,7.35-2.07,13.88,13.88,0,0,0,5.36-6.39c1.19-2.62,1.2-5.92-1.29-7.26a6,6,0,0,0-5.71.53,13.22,13.22,0,0,0-4.13,4.35,15.77,15.77,0,0,0-2.21,6A12.82,12.82,0,0,0,143,190.07Z" transform="translate(0.05 0)"></path><path class="cls-4" d="M135,168.29a106.88,106.88,0,0,0,12.51,31.08" transform="translate(0.05 0)"></path><path class="cls-2" d="M141.39,223.42a17.65,17.65,0,0,0,5.92.65,14.66,14.66,0,0,0,5.44-1.42c3.15-1.56,5.06-4.31,4.67-7.66a18.07,18.07,0,0,0-.8-3.16c-2.45.34-5-.45-7.52-1.17s-5-1.43-7.36-.8c-2.61.73-7.89,2.61-8.51,5.51C132.35,219.29,137.31,222.22,141.39,223.42Z" transform="translate(0.05 0)"></path><path class="cls-2" d="M162.78,216.28a16.38,16.38,0,0,0,5.59-5.17,16.18,16.18,0,0,0,2.31-7.83c.2-2.74-.72-5.3-3.32-5.42a6.82,6.82,0,0,0-5,2.72A13,13,0,0,0,160,206a13.76,13.76,0,0,0,.22,6.22A10.7,10.7,0,0,0,162.78,216.28Z" transform="translate(0.05 0)"></path><path class="cls-4" d="M147.48,199.37a73.3,73.3,0,0,0,10.28,13.06A56.83,56.83,0,0,0,171,222.22" transform="translate(0.05 0)"></path><path class="cls-2" d="M175.59,245.7a19.46,19.46,0,0,0,9.35-5.11c2.42-2.52,3.56-5.64,2.11-8.7a13.34,13.34,0,0,0-1.87-2.71c-4.38,2.3-10.49,1.31-13.68,5a40.14,40.14,0,0,0-3.16,4.29c-1,1.67-1.56,3.51-1.13,4.9C167.84,246.78,172,246.43,175.59,245.7Z" transform="translate(0.05 0)"></path><path class="cls-2" d="M192.63,231.54c3.76-3.89,6.12-8.21,3.64-14.84-1-2.8-3.93-5.51-7.1-4.83a5.22,5.22,0,0,0-3.78,4.41,14.8,14.8,0,0,0,.6,6.13,19.3,19.3,0,0,0,2.82,6A13.56,13.56,0,0,0,192.63,231.54Z" transform="translate(0.05 0)"></path><path class="cls-4" d="M171,222.22c1.18.7,2.47,1.19,3.71,1.79l4,1.73,7.82,3.57c2.6,1.18,5.18,2.35,7.79,3.42,1.3.54,2.6,1.06,3.92,1.55s2.64.95,4,1.5" transform="translate(0.05 0)"></path><path class="cls-2" d="M205,258.7a27.11,27.11,0,0,0,4.55-1.55,24.16,24.16,0,0,0,4.55-2.61c2.73-2,4.77-4.75,3.89-8a12.28,12.28,0,0,0-1.41-3c-4.74,1.6-10.5.26-13.77,4-1.8,2-4.75,6.56-4.54,9.06a2.63,2.63,0,0,0,.72,1.78,2.58,2.58,0,0,0,1.56.75A14.19,14.19,0,0,0,205,258.7Z" transform="translate(0.05 0)"></path><path class="cls-2" d="M223.57,247.56c2.38-1.36,4.53-2.74,5.93-4.85s2-4.88.87-8.93c-.9-3.4-4.42-7.25-8.12-7.13a4.61,4.61,0,0,0-4.4,3.88,16.22,16.22,0,0,0,.29,6.36,28.51,28.51,0,0,0,2.22,6.54A20.43,20.43,0,0,0,223.57,247.56Z" transform="translate(0.05 0)"></path><path class="cls-4" d="M202.24,235.78a79.06,79.06,0,0,1,29,19.52" transform="translate(0.05 0)"></path><path class="cls-2" d="M223.94,277.24a26.28,26.28,0,0,0,10,.11c3.39-.69,6.31-2.26,6.94-5.61a10.33,10.33,0,0,0,0-3.33c-4.94-.58-9.64-4.21-14.18-2.25-2.47,1-7.11,3.85-8,6.23C217.54,275.49,220.86,276.48,223.94,277.24Z" transform="translate(0.05 0)"></path><path class="cls-2" d="M245.5,275.05c5.38-.44,10.49-1.29,12.05-9.58a12,12,0,0,0-.65-5.73,7.71,7.71,0,0,0-3.67-4.19,4.69,4.69,0,0,0-5.66,1.66,16.31,16.31,0,0,0-2.44,5.87,30,30,0,0,0-.77,6.87,11,11,0,0,0,.43,2.6C245,273.41,245.24,274.23,245.5,275.05Z" transform="translate(0.05 0)"></path><path class="cls-4" d="M231.24,255.3a78.33,78.33,0,0,1,17.89,30.06" transform="translate(0.05 0)"></path><path class="cls-2" d="M231.93,296.15c5.49,3.28,15.19,3.57,17.68-2.17a11.13,11.13,0,0,0,.72-2.89c-4.62-1-7.86-5.47-12.72-5.49-2.66,0-8.17.51-9.77,2.7C225.71,291.28,228.93,294.37,231.93,296.15Z" transform="translate(0.05 0)"></path><path class="cls-2" d="M253.54,297.12c5.32-.21,10.13-1.46,13.21-7.6,1.31-2.6,1.34-6-1.12-7.16a6.31,6.31,0,0,0-5.67.69,14.25,14.25,0,0,0-4.18,4.15,16.43,16.43,0,0,0-2.46,5.52A11.44,11.44,0,0,0,253.54,297.12Z" transform="translate(0.05 0)"></path><path class="cls-4" d="M246.44,278c2.58,9.39,6.51,18.48,9.95,27.88" transform="translate(0.05 0)"></path><path class="cls-2" d="M241.44,322.76a23.56,23.56,0,0,0,9.37,2.55c3.3.14,6.7-.42,8.32-3.13a9.46,9.46,0,0,0,1.08-2.8c-4.42-1.64-7.48-5.93-12.33-5.66-2.65.13-8,1.07-9.7,3C236,319.2,238.75,321.28,241.44,322.76Z" transform="translate(0.05 0)"></path><path class="cls-2" d="M262.42,326.11a18.59,18.59,0,0,0,7.64.45c2.49-.53,4.78-2,6.76-5.73,1.65-3,1.86-7.29-.73-9.23a5.27,5.27,0,0,0-5.78.07,15.61,15.61,0,0,0-4.33,4.24,23,23,0,0,0-3,5.57A16.1,16.1,0,0,0,262.42,326.11Z" transform="translate(0.05 0)"></path><path class="cls-4" d="M256.39,305.92a132.8,132.8,0,0,1,4.48,14.46,57.63,57.63,0,0,1,1.31,7.61c.08,1.29.24,2.59.25,3.88v3.83" transform="translate(0.05 0)"></path><path class="cls-2" d="M241.75,344a25.29,25.29,0,0,0,7.13,6.58c2.86,1.75,6.15,2.67,8.82,1.06a9.76,9.76,0,0,0,2.25-2,34.2,34.2,0,0,1-3.7-5.88,9.84,9.84,0,0,0-4.78-4.51c-2.42-1-7.79-2.18-10-1.39-1.54.53-1.89,1.42-1.61,2.5A10.72,10.72,0,0,0,241.75,344Z" transform="translate(0.05 0)"></path><path class="cls-2" d="M258.9,356.59c4.29,3.15,8.67,5.74,15.17,1.91,2.71-1.63,5-5.45,3.58-8.51a5,5,0,0,0-5.16-2.64,16,16,0,0,0-5.81,1.9,23,23,0,0,0-5.23,3.56A14.87,14.87,0,0,0,258.9,356.59Z" transform="translate(0.05 0)"></path><path class="cls-4" d="M262.4,335.7a75.14,75.14,0,0,1-2.33,15.13,98.72,98.72,0,0,1-4.86,14.4" transform="translate(0.05 0)"></path><path class="cls-2" d="M232.76,367.21a23,23,0,0,0,5,8.47c2.34,2.48,5.23,4.13,8.28,3.3a9.3,9.3,0,0,0,2.68-1.32c-2.11-4.22-1.28-9.45-5-12.58-2-1.72-6.59-4.7-9.08-4.52C231.37,360.78,231.88,364.19,232.76,367.21Z" transform="translate(0.05 0)"></path><path class="cls-2" d="M246,384.05c3.31,4.08,7.06,7.6,14.14,5.71,3-.78,6-3.65,5.49-6.75a5.37,5.37,0,0,0-4.25-3.93,16.14,16.14,0,0,0-6,.05,21,21,0,0,0-5.94,1.94A12.76,12.76,0,0,0,246,384.05Z" transform="translate(0.05 0)"></path><path class="cls-4" d="M255.24,365.26a132.15,132.15,0,0,1-14.88,26.3" transform="translate(0.05 0)"></path><path class="cls-2" d="M294.46,368.13c-7.23.6-16.85-3.95-16-10.92a12.53,12.53,0,0,1,.91-3.23c5.08,1.23,10.7-1.62,15.47.72,2.59,1.34,7.71,4.51,8.06,7.5C303.29,366.22,298.39,367.87,294.46,368.13Z" transform="translate(0.05 0)"></path><path class="cls-2" d="M272.82,358.37c-5-2.88-9-6.54-8.6-14.16.17-3.21,2-6.58,5-6.53,2,0,4,1.61,5.12,3.5a14.7,14.7,0,0,1,1.79,6.2,17.81,17.81,0,0,1-.66,6.73A13.56,13.56,0,0,1,272.82,358.37Z" transform="translate(0.05 0)"></path><path class="cls-2" d="M313.62,349.35c-7.23.6-16.86-4-16.06-10.92a13.61,13.61,0,0,1,.92-3.24c5.08,1.24,10.7-1.61,15.46.73,2.59,1.33,7.72,4.51,8.07,7.5C322.45,347.44,317.54,349.09,313.62,349.35Z" transform="translate(0.05 0)"></path><path class="cls-2" d="M292,339.59c-5.05-2.88-9-6.55-8.61-14.16.17-3.21,2-6.59,5-6.53,2,0,4,1.61,5.12,3.5a14.7,14.7,0,0,1,1.79,6.2,17.8,17.8,0,0,1-.67,6.73A13.32,13.32,0,0,1,292,339.59Z" transform="translate(0.05 0)"></path><path class="cls-2" d="M332.85,328.91c-7.24.6-16.86-4-16.06-10.92a12.51,12.51,0,0,1,.92-3.24c5.08,1.24,10.7-1.61,15.46.73,2.59,1.33,7.72,4.51,8.07,7.5C341.67,327,336.77,328.64,332.85,328.91Z" transform="translate(0.05 0)"></path><path class="cls-2" d="M311.24,319.15c-5.05-2.88-9-6.55-8.61-14.16.17-3.22,2-6.59,5-6.53,2,0,4,1.6,5.13,3.5a14.54,14.54,0,0,1,1.78,6.2,17.61,17.61,0,0,1-.66,6.73A13.35,13.35,0,0,1,311.24,319.15Z" transform="translate(0.05 0)"></path><path class="cls-2" d="M346.82,310.54c-7.24.6-16.86-4-16.06-10.92a12.55,12.55,0,0,1,.92-3.23c5.08,1.23,10.7-1.62,15.46.72,2.59,1.34,7.72,4.51,8.07,7.5C355.64,308.63,350.74,310.28,346.82,310.54Z" transform="translate(0.05 0)"></path><path class="cls-2" d="M325.18,300.78c-5.05-2.88-9-6.54-8.61-14.16.17-3.21,2-6.58,5-6.53,2,0,4,1.61,5.13,3.5a14.69,14.69,0,0,1,1.78,6.2,17.61,17.61,0,0,1-.66,6.73A13.35,13.35,0,0,1,325.18,300.78Z" transform="translate(0.05 0)"></path><path class="cls-2" d="M358.32,273.56c-5.78,4.39-16.34,5.71-19.41-.6a13.07,13.07,0,0,1-1-3.22c5-1.68,8.16-7.11,13.44-7.69,2.9-.26,8.93-.34,10.83,2C364.74,267.21,361.49,271.23,358.32,273.56Z" transform="translate(0.05 0)"></path><path class="cls-2" d="M334.83,276.94c-5.81.28-11.12-.69-14.87-7.33-1.58-2.8-1.88-6.61.75-8.21,1.72-1.06,4.25-.8,6.2.2a14.45,14.45,0,0,1,4.83,4.27,17.66,17.66,0,0,1,3.05,6A13.3,13.3,0,0,1,334.83,276.94Z" transform="translate(0.05 0)"></path><path class="cls-4" d="M265.07,365.7c8.68-7.53,17.63-14.64,25.21-22.87,0,0,53.94-49.26,45.08-72.83" transform="translate(0.05 0)"></path><path class="cls-2" d="M269.17,390.37a23.53,23.53,0,0,1-10.6-2.52c-3.32-1.7-5.87-4.25-5.75-7.77a10.77,10.77,0,0,1,.71-3.32c5.16.91,10.64-1.75,15.17,1,2.47,1.51,7.14,5.2,7.57,8C276.84,389.48,272.7,390.26,269.17,390.37Z" transform="translate(0.05 0)"></path><path class="cls-2" d="M247.33,381.85c-5.36-2.25-10.14-5-10-13.33a10.22,10.22,0,0,1,1.64-5.17,5.91,5.91,0,0,1,4.16-2.79,5.72,5.72,0,0,1,5.37,3.26,16.46,16.46,0,0,1,1.63,6.42,23.51,23.51,0,0,1-.51,7A17,17,0,0,1,247.33,381.85Z" transform="translate(0.05 0)"></path><path class="cls-4" d="M265.07,365.7c-8.68,7.5-17.27,15.44-24.3,24.85" transform="translate(0.05 0)"></path><path class="cls-2" d="M286.7,5.92c2.45,6.13,1.87,16.12-4.85,17.26a12.16,12.16,0,0,1-3.3,0c-.62-4.92-4.85-9.39-3.62-14.13.66-2.61,2.73-7.71,5.13-8.75C283.24-1.08,285.31,2.55,286.7,5.92Z" transform="translate(0.05 0)"></path><path class="cls-2" d="M284.85,27.91c-.91,5.33-2.89,9.89-10,11.59a9.35,9.35,0,0,1-4.81-.21,5.55,5.55,0,0,1-3.49-3,5.16,5.16,0,0,1,1.51-5.59,14.37,14.37,0,0,1,5.4-3A20.5,20.5,0,0,1,280,26.64,15.06,15.06,0,0,1,284.85,27.91Z" transform="translate(0.05 0)"></path><path class="cls-4" d="M264.74,15.1c9.64,6.46,19.79,11.8,29.31,17.94" transform="translate(0.05 0)"></path><path class="cls-2" d="M317.16,25.46a17.4,17.4,0,0,1,.08,10.89c-1.14,3.3-3.44,5.72-6.81,5.79a14.76,14.76,0,0,1-3.25-.41c0-2.45-1-4.93-1.8-7.37s-1.58-4.8-.94-7.2c.7-2.62,2.65-7.82,5.35-8.62C313.36,17.5,315.94,21.7,317.16,25.46Z" transform="translate(0.05 0)"></path><path class="cls-2" d="M312.64,47.24a16.48,16.48,0,0,1-3.87,6.6A13.2,13.2,0,0,1,301,57.2a8.17,8.17,0,0,1-4.34-.62,4.17,4.17,0,0,1-2.63-3,5.83,5.83,0,0,1,2.2-5.33,13.22,13.22,0,0,1,5.39-2.55,16.36,16.36,0,0,1,6.46-.37A14.58,14.58,0,0,1,312.64,47.24Z" transform="translate(0.05 0)"></path><path class="cls-4" d="M294.05,33c4.8,3,9.36,6.35,13.86,9.77a139.24,139.24,0,0,1,12.78,11.12" transform="translate(0.05 0)"></path><path class="cls-2" d="M344.78,50.83c.88,7.09-3,16.19-9.75,15.15a13.06,13.06,0,0,1-3.12-1,14,14,0,0,0,.14-3.77c-.13-1.26-.35-2.53-.54-3.8-.37-2.54-.59-5,.5-7.27,1.23-2.44,4.09-7.12,6.93-7.44C342.62,42.4,344.29,47,344.78,50.83Z" transform="translate(0.05 0)"></path><path class="cls-2" d="M336.34,71.39c-2.65,4.78-6.06,8.27-13.19,7.74-3-.18-6.24-2-6.36-5a5.69,5.69,0,0,1,3.09-4.84,13.73,13.73,0,0,1,5.89-1.52,17.87,17.87,0,0,1,6.41.89A13.11,13.11,0,0,1,336.34,71.39Z" transform="translate(0.05 0)"></path><path class="cls-4" d="M320.69,53.93a231.06,231.06,0,0,1,22.55,25.38" transform="translate(0.05 0)"></path><path class="cls-2" d="M367.88,80.33A16.49,16.49,0,0,1,364,90.7c-2.3,2.64-5.37,4-8.52,2.74a14.29,14.29,0,0,1-2.86-1.59c.94-2.29.93-4.93.9-7.57s0-5,1.43-7.09,5.1-6.45,7.89-6.38c1.86.08,3,1.19,3.76,2.94A15.18,15.18,0,0,1,367.88,80.33Z" transform="translate(0.05 0)"></path><path class="cls-2" d="M355.55,99c-3.66,4-7.89,6.45-14.53,4.69-2.81-.75-5.42-2.8-4.8-5.38a6.77,6.77,0,0,1,4-4.07,12.23,12.23,0,0,1,5.87-.72,15.22,15.22,0,0,1,6.07,2A12.76,12.76,0,0,1,355.55,99Z" transform="translate(0.05 0)"></path><path class="cls-4" d="M343.24,79.31l5.12,6.81a71.39,71.39,0,0,1,4.52,7,125.79,125.79,0,0,1,7.36,15.19" transform="translate(0.05 0)"></path><path class="cls-2" d="M383.42,116.21a17.25,17.25,0,0,1-6.59,8.85c-3,1.91-6.24,2.3-9,.28a15.83,15.83,0,0,1-2.31-2.32c3.12-3.87,2.78-10.23,6.55-13.37,2.1-1.7,6.72-4.83,9.4-3.81C385.09,107.19,384.65,112.39,383.42,116.21Z" transform="translate(0.05 0)"></path><path class="cls-2" d="M366.39,130.7a16.41,16.41,0,0,1-7.19,2.58,13.83,13.83,0,0,1-8.07-2.09c-2.49-1.43-4.42-4.11-3.17-6.65a6.06,6.06,0,0,1,5-2.89,13.45,13.45,0,0,1,5.9,1.14,16,16,0,0,1,5.28,3.6A12.64,12.64,0,0,1,366.39,130.7Z" transform="translate(0.05 0)"></path><path class="cls-4" d="M360.24,108.31a107.4,107.4,0,0,1,7.89,32.57" transform="translate(0.05 0)"></path><path class="cls-2" d="M387.06,156.9a17.46,17.46,0,0,1-4.44,4,15,15,0,0,1-5.25,2c-3.47.55-6.63-.57-8.26-3.53a18,18,0,0,1-1.18-3c2.19-1.15,3.8-3.27,5.44-5.33s3.22-4.06,5.52-4.93c2.55-.91,7.94-2.46,10.13-.45C392,148.29,389.68,153.56,387.06,156.9Z" transform="translate(0.05 0)"></path><path class="cls-2" d="M365.5,163.53a16.46,16.46,0,0,1-7.55-1,16.1,16.1,0,0,1-6.43-5c-1.75-2.12-2.5-4.74-.45-6.35a6.78,6.78,0,0,1,5.67-.7,12.78,12.78,0,0,1,5.06,3.06,13.85,13.85,0,0,1,3.44,5.16A10.66,10.66,0,0,1,365.5,163.53Z" transform="translate(0.05 0)"></path><path class="cls-4" d="M368.13,140.88a73.24,73.24,0,0,1-.78,16.6,57,57,0,0,1-5.1,15.67" transform="translate(0.05 0)"></path><path class="cls-2" d="M372.16,194.89a19.36,19.36,0,0,1-10.58,1.28c-3.44-.65-6.18-2.52-6.77-5.86a12.94,12.94,0,0,1-.06-3.29c4.91-.67,9.3-5,14.07-3.85a39.37,39.37,0,0,1,5.06,1.66c1.8.76,3.31,1.94,3.76,3.33C379.11,191.29,375.54,193.41,372.16,194.89Z" transform="translate(0.05 0)"></path><path class="cls-2" d="M350.09,193.3c-5.33-1-9.76-3.13-11.6-10-.78-2.89,0-6.78,3-8.06a5.18,5.18,0,0,1,5.63,1.39,14.57,14.57,0,0,1,3.07,5.34,19.38,19.38,0,0,1,1.17,6.48A14.1,14.1,0,0,1,350.09,193.3Z" transform="translate(0.05 0)"></path><path class="cls-4" d="M362.24,173.15c-.56,1.26-1.33,2.4-2,3.62l-2.2,3.7-4.3,7.45c-1.42,2.47-2.85,4.92-4.34,7.31-.75,1.19-1.51,2.37-2.3,3.54s-1.59,2.31-2.4,3.56" transform="translate(0.05 0)"></path><path class="cls-2" d="M355.82,222.59a28.31,28.31,0,0,1-4.6,1.38,24.78,24.78,0,0,1-5.22.52c-3.37,0-6.65-1.1-7.82-4.26a11.81,11.81,0,0,1-.61-3.28c4.79-1.45,8.7-5.89,13.54-4.73,2.62.56,7.68,2.58,9,4.73a2.53,2.53,0,0,1-.38,3.38A14.29,14.29,0,0,1,355.82,222.59Z" transform="translate(0.05 0)"></path><path class="cls-2" d="M334.24,224.31c-2.73.28-5.29.4-7.65-.5s-4.44-2.82-5.9-6.75c-1.24-3.3-.62-8.48,2.46-10.53a4.62,4.62,0,0,1,5.84.6,16.61,16.61,0,0,1,3.47,5.35,28.82,28.82,0,0,1,2,6.61A20.28,20.28,0,0,1,334.24,224.31Z" transform="translate(0.05 0)"></path><path class="cls-4" d="M344.73,202.33a79,79,0,0,0-12.29,32.75" transform="translate(0.05 0)"></path><path class="cls-2" d="M351.16,248.7a26.28,26.28,0,0,1-8.08,5.89c-3.15,1.41-6.44,1.83-8.89-.53a10,10,0,0,1-1.94-2.71c3.68-3.34,5.39-9,10.22-10.07,2.6-.63,8-1,10.13.42C355.35,243.53,353.24,246.27,351.16,248.7Z" transform="translate(0.05 0)"></path><path class="cls-2" d="M332.35,259.43c-4.64,2.77-9.3,5-15.38-.8a11.82,11.82,0,0,1-2.8-5,7.79,7.79,0,0,1,.55-5.55,4.73,4.73,0,0,1,5.58-1.94,16.42,16.42,0,0,1,5.39,3.36,29.35,29.35,0,0,1,4.62,5.15,11.08,11.08,0,0,1,1.16,2.37C331.8,257.8,332.07,258.62,332.35,259.43Z" transform="translate(0.05 0)"></path><path class="cls-4" d="M332.44,235.08A78.9,78.9,0,0,0,335.36,270" transform="translate(0.05 0)"></path><path class="cls-2" d="M435.58,142.31a15.67,15.67,0,0,1-3.15,5.2,13.77,13.77,0,0,1-4.5,3.4c-3.22,1.48-6.54,1.24-8.88-1.18a13.77,13.77,0,0,1-2-2.62c1.74-1.7,2.75-4.22,3.67-6.7s1.8-5,3.66-6.61c2.1-1.72,6.6-5.16,9.42-3.77,1.9.93,2.73,3,2.93,5.32A16.86,16.86,0,0,1,435.58,142.31Z" transform="translate(0.05 0)"></path><path class="cls-2" d="M416.68,154.7a14.62,14.62,0,0,1-15.1-2c-2.14-1.62-3.73-3.77-2.09-5.7a7.35,7.35,0,0,1,5.21-2.21,11.79,11.79,0,0,1,5.7,1.37,13.16,13.16,0,0,1,4.76,4A11.06,11.06,0,0,1,416.68,154.7Z" transform="translate(0.05 0)"></path><path class="cls-4" d="M409.44,124.59c7.65,13.78,8.66,29.45,6.82,40.44" transform="translate(0.05 0)"></path><path class="cls-2" d="M431.08,184.92a16.42,16.42,0,0,1-10.64,3.56c-3.52-.19-6.39-1.83-7.39-5.08a17.88,17.88,0,0,1-.51-3.25c4.81-1.31,8.16-6.87,13-7.56,2.7-.3,8.32-.57,10,1.89C437.77,177.82,434.36,182.33,431.08,184.92Z" transform="translate(0.05 0)"></path><path class="cls-2" d="M408.69,186.86a16.43,16.43,0,0,1-7.32-2.17,14.13,14.13,0,0,1-5.26-6.47,8,8,0,0,1-.75-4,3.41,3.41,0,0,1,1.91-2.88,6.51,6.51,0,0,1,5.7.54,12.87,12.87,0,0,1,4.21,4.19,14.56,14.56,0,0,1,2.21,5.94A12.48,12.48,0,0,1,408.69,186.86Z" transform="translate(0.05 0)"></path><path class="cls-4" d="M416.24,165a76.71,76.71,0,0,1-4.54,16.14,100.6,100.6,0,0,1-7.7,15" transform="translate(0.05 0)"></path><path class="cls-2" d="M411.39,219.52a17.39,17.39,0,0,1-10.91-.05c-3.3-1.19-5.67-3.51-5.7-6.91a13.29,13.29,0,0,1,.46-3.26c5,.13,9.89-3.9,14.68-2.71,2.6.69,7.84,2.57,8.61,5.35C419.54,215.7,415.14,218.32,411.39,219.52Z" transform="translate(0.05 0)"></path><path class="cls-2" d="M389.61,214.7c-5.12-1.82-9.1-4.71-9.76-11.76-.27-3,.85-6.4,3.72-7a5.84,5.84,0,0,1,5.29,2.22,13.18,13.18,0,0,1,2.54,5.48,16.63,16.63,0,0,1,.25,6.48A13.58,13.58,0,0,1,389.61,214.7Z" transform="translate(0.05 0)"></path><path class="cls-4" d="M404,196.2a166.38,166.38,0,0,1-21.19,26.65" transform="translate(0.05 0)"></path><path class="cls-2" d="M386.86,246.52A20,20,0,0,1,376.53,245c-3.15-1.43-5.52-3.78-5.32-7.19a12.34,12.34,0,0,1,.75-3.23c4.94.54,10.28-2.55,14.74-.45,2.43,1.16,7.14,4.07,7.51,6.81C394.69,244.59,390.41,246,386.86,246.52Z" transform="translate(0.05 0)"></path><path class="cls-2" d="M365.9,239.81c-5.06-1.86-9.48-4.39-9.19-12.28.13-3.32,2.19-7.24,5.36-7.69a5.23,5.23,0,0,1,5.09,2.76,14,14,0,0,1,1.63,6,20.94,20.94,0,0,1-.54,6.69A16.77,16.77,0,0,1,365.9,239.81Z" transform="translate(0.05 0)"></path><path class="cls-4" d="M382.83,222.85c-7.85,8.28-16.48,16.14-23.46,25.69" transform="translate(0.05 0)"></path><path class="cls-2" d="M369.76,269a32.25,32.25,0,0,1-9.61,1.44c-3.37,0-6.68-.88-7.93-4.07a10.08,10.08,0,0,1-.59-3.31c2.43-.71,4.57-2.17,6.82-3.22s4.49-1.74,6.82-1.09c2.6.67,7.56,2.93,8.74,5.13C375.62,266.7,372.59,268,369.76,269Z" transform="translate(0.05 0)"></path><path class="cls-2" d="M348.38,270.7c-2.69.48-5.26.88-7.68.13s-4.67-2.71-6.1-7c-1.26-3.66-.38-9.43,2.86-11.57a4.49,4.49,0,0,1,5.88.68,16.74,16.74,0,0,1,3.23,5.57,34.49,34.49,0,0,1,1.88,6.84A27.33,27.33,0,0,1,348.38,270.7Z" transform="translate(0.05 0)"></path><path class="cls-4" d="M359.37,248.54a64.67,64.67,0,0,0-8.59,15.6c-2.09,5.6-10.34,21.46-22.67,34.34" transform="translate(0.05 0)"></path></g><g id="freepik--Manual--inject-34"><path class="cls-5" d="M241.24,343.7V92.2H410.08V345.57l-5.48,3.3h-119c-2.6-.57-24.24-.29-44.31-5.18" transform="translate(0.05 0)"></path><path class="cls-6" d="M239.68,342.63l-1.23.47c-8.19,3.15-34.31,4.77-43.08,4.77H81.24V92.2h160Z" transform="translate(0.05 0)"></path><path class="cls-7" d="M241.24,343.7l-1.22.46c-8.2,3.12-34.32,4.72-43.09,4.72h-119V97.38H198.36c9.2,0,34.34-1.76,42.88-5.18h0Z" transform="translate(0.05 0)"></path><path class="cls-8" d="M241.24,344l1.22.46c8.2,3.12,32.32,4.72,41.09,4.72H402.6V97.7H282.12c-9.2,0-32.34-1.76-40.88-5.18h0Z" transform="translate(0.05 0)"></path><path class="cls-9" d="M101.29,186.54c-.21.61-5,11.06-5.23,11.68-2.66,8.56-2.43,13.71-1,22.59l.19,1.23c.64,16.62-3.9,25.07-12.46,39.33l-1.73,2.89-1.13,1.68h0l-2.53,3.35s.58,3.22-.88,4.52c-5.39,4.75-8.06,5.62-8.86,13.95L67.17,316l-1.37-.14c-2.88-.3-5.72-.67-8.49-1.13l-2.37-.41a97.75,97.75,0,0,1-10.52-2.57c-.39-.12-.78-.24-1.16-.38-1.16-.38-2.31-.78-3.42-1.21-.38-.14-.76-.29-1.13-.45-1-.39-1.9-.8-2.82-1.22l-.65-.32c-1.35-.65-2.68-1.34-4-2.09a18.5,18.5,0,0,1-1.59-1c.36-2,.72-3.91,1.07-5.8A393.78,393.78,0,0,0,37.1,239.2l1.14-39.06a40.86,40.86,0,0,1,11-25.12L74,149.29c.64-.67,2.88-1,3.74-1v47.54s6.72-22.53,9-28c5.58-13.6,15.23-10.75,17.43-5.8C105.59,165.24,101.44,186.11,101.29,186.54Z" transform="translate(0.05 0)"></path><g class="cls-10"><path class="cls-2" d="M63.15,174.77l5.43,4.59A84.8,84.8,0,0,0,62.24,189c6,6.81,4.76,18.62-2.46,24.09l5.61-3a19.69,19.69,0,0,1-1.15,8.8c8.12-7.81,12.2-19.08,13.38-30.29a95.71,95.71,0,0,0,.22-15.7c-.27-4.39.06-10.81-1.83-14.74C75.15,159.44,65.05,176.38,63.15,174.77Z" transform="translate(0.05 0)"></path><path class="cls-11" d="M63.15,174.77l5.43,4.59A84.8,84.8,0,0,0,62.24,189c6,6.81,4.76,18.62-2.46,24.09l5.61-3a19.69,19.69,0,0,1-1.15,8.8c8.12-7.81,12.2-19.08,13.38-30.29a95.71,95.71,0,0,0,.22-15.7c-.27-4.39.06-10.81-1.83-14.74C75.15,159.44,65.05,176.38,63.15,174.77Z" transform="translate(0.05 0)"></path><path class="cls-2" d="M77.39,269.3s-8.74,2-9.22,8-.52,10.49-.52,10.49a17.11,17.11,0,0,1,8.86-14Z" transform="translate(0.05 0)"></path><path class="cls-11" d="M77.39,269.3s-8.74,2-9.22,8-.52,10.49-.52,10.49a17.11,17.11,0,0,1,8.86-14Z" transform="translate(0.05 0)"></path><path class="cls-2" d="M101.58,160l-4.28-.41,1.16,1.3c-2.94,1-6.08,2.06-7.89,4.58s-1.25,6.87,1.71,7.75l-4.07-.87a5.33,5.33,0,0,0,2.64,6.27,15.55,15.55,0,0,0-5.94,8.47c-1.56,5.61,0,12-2.65,17.14a22.47,22.47,0,0,1-5.29,6L63.91,221.92A140.14,140.14,0,0,0,82.57,181c2-7.26,3.63-15.15,9.11-20.31A10,10,0,0,1,96.46,158a5.37,5.37,0,0,1,5.09,1.54l-1.16-.91Z" transform="translate(0.05 0)"></path><g class="cls-12"><path class="cls-9" d="M101.58,160l-4.28-.41,1.16,1.3c-2.94,1-6.08,2.06-7.89,4.58s-1.25,6.87,1.71,7.75l-4.07-.87a5.33,5.33,0,0,0,2.64,6.27,15.55,15.55,0,0,0-5.94,8.47c-1.56,5.61,0,12-2.65,17.14a22.47,22.47,0,0,1-5.29,6L63.91,221.92A140.14,140.14,0,0,0,82.57,181c2-7.26,3.63-15.15,9.11-20.31A10,10,0,0,1,96.46,158a5.37,5.37,0,0,1,5.09,1.54l-1.16-.91Z" transform="translate(0.05 0)"></path></g></g><path class="cls-13" d="M29.64,305.16c.36-2,.72-3.91,1.07-5.8a393.78,393.78,0,0,0,6.38-60.11l1.15-39.11a40.86,40.86,0,0,1,11-25.12L74,149.29c.64-.67,2.88-1,3.74-1v47.54s6.72-22.53,9-28c5.58-13.6,15.23-10.75,17.43-5.8,1.45,3.26-2.7,24.13-2.85,24.56-.21.61-5,11.06-5.23,11.68-2.66,8.56-2.43,13.71-1,22.59l.19,1.23c.64,16.62-3.9,25.07-12.46,39.33l-1.73,2.89L79.94,266h0l-2.53,3.35s.58,3.22-.88,4.52c-5.39,4.75-8.06,5.62-8.86,13.95l-.49,28.27" transform="translate(0.05 0)"></path><path class="cls-13" d="M61.51,177.39c4.9,1.88,7.68,2.29,10.54,1.88,2.52-.36,4.68-5.43,5.83-8.49" transform="translate(0.05 0)"></path><path class="cls-13" d="M59.47,186.54a26.08,26.08,0,0,1,16.35,14.51" transform="translate(0.05 0)"></path><path class="cls-13" d="M64.24,222a22.28,22.28,0,0,1,6.68-10.54c1.59-1.39,2.32-4.3,3.19-6.22l4.13-10.94" transform="translate(0.05 0)"></path><path class="cls-13" d="M88.45,172.11l10.22,4.64s4.88-9.91,1.32-14.2" transform="translate(0.05 0)"></path><path class="cls-13" d="M64.5,210.92a25.64,25.64,0,0,1,7.92-1.22" transform="translate(0.05 0)"></path><path class="cls-13" d="M72.3,179.37c.1,1.52,4.23,4.26,5.58,4" transform="translate(0.05 0)"></path><path class="cls-13" d="M67.3,295.58l.52-16.35a6.33,6.33,0,0,1,2.78-5.15c3.11-2.11,7.86-5.47,10.36-9.67" transform="translate(0.05 0)"></path><path class="cls-9" d="M372.77,388.76v-46.9l-.7-10.44s-6.31-9.1-5.91-19.15c.33-8.47,10.09-35.16,10.78-37.95.26-1,2.44-18.45,2.44-19.48s1-15.32,4.52-18.45,9.4-4.53,11.14,0,3.48,18.79,2.45,24-3.14,11.49-3.84,16a35.56,35.56,0,0,0,.36,10.09h15.66l2.77-8.7.71-17.41s-8.92-4.56-10.55-9v-4.21c.07-1.45.06-2.94,0-4.28v-4.61c3.1,1.5,23.59,11.51,25.51,14.07,2.09,2.79,3.48,13.93,3.48,13.93l2.76-6.91v-.06S425.64,245,425,242.61c0,0-7-1.74-10.09-5.58s-5.22-7.65-2.09-11.13S433,232.16,433,232.16l11.41,14.75,5.29,6.83s9.75,9.87,10.14,12.47c.45,2.94-3.88,15.72-3.88,15.72l-14.26,28.55c-.83,1.5-7.7,8.67-14.68,15.77-7.67,7.82-15.47,15.56-15.47,15.56l1.18,10.55a105.23,105.23,0,0,1-15.35,17.7c-1.85,1.69-3.75,3.34-5.72,5a179.2,179.2,0,0,1-18.88,13.64" transform="translate(0.05 0)"></path><g class="cls-14"><path class="cls-2" d="M406.81,330c1.55-3.87,4.8-6.75,7.69-9.75a70.41,70.41,0,0,0,18.74-37.83,55.59,55.59,0,0,1-1.12,28.48A47.84,47.84,0,0,0,446,289.59a44.71,44.71,0,0,1-9,23.82,33.52,33.52,0,0,0,8.7-12.19c-4.3,10.34-12.54,20.15-20.32,28-3.35,3.4-8.76,10.1-13.37,11.63C406.46,342.7,405.24,333.91,406.81,330Z" transform="translate(0.05 0)"></path><path class="cls-2" d="M406.81,330c1.55-3.87,4.8-6.75,7.69-9.75a70.41,70.41,0,0,0,18.74-37.83,55.59,55.59,0,0,1-1.12,28.48A47.84,47.84,0,0,0,446,289.59a44.71,44.71,0,0,1-9,23.82,33.52,33.52,0,0,0,8.7-12.19c-4.3,10.34-12.54,20.15-20.32,28-3.35,3.4-8.76,10.1-13.37,11.63C406.46,342.7,405.24,333.91,406.81,330Z" transform="translate(0.05 0)"></path><path class="cls-11" d="M406.81,330c1.55-3.87,4.8-6.75,7.69-9.75a70.41,70.41,0,0,0,18.74-37.83,55.59,55.59,0,0,1-1.12,28.48A47.84,47.84,0,0,0,446,289.59a44.71,44.71,0,0,1-9,23.82,33.52,33.52,0,0,0,8.7-12.19c-4.3,10.34-12.54,20.15-20.32,28-3.35,3.4-8.76,10.1-13.37,11.63C406.46,342.7,405.24,333.91,406.81,330Z" transform="translate(0.05 0)"></path><path class="cls-2" d="M411.24,228A16.34,16.34,0,0,0,426,235.81a16.9,16.9,0,0,0,5,11.33c2.59,2.57,6.18,4.51,7.25,8a12.78,12.78,0,0,1,0,5.64,165.86,165.86,0,0,1-5.51,24.2V263.21a25.88,25.88,0,0,0-.52-6.51c-1.29-4.9-5.37-8.75-6.42-13.71-8.72-.66-16-9.44-15-18.13Z" transform="translate(0.05 0)"></path><path class="cls-2" d="M392.08,236.23c-1.53.4-2.14,2.32-1.88,3.89s1.07,3,1.35,4.53-.24,3.49-1.75,4c2.43-.26,4.51,2.07,4.88,4.49s-.49,4.82-1.35,7.11c-2.73,7.29-5.52,14.82-5.16,22.59s4.72,15.93,12.16,18.22c-1.93,0-3.21-2.42-2.57-4.26a5.43,5.43,0,0,1,4.48-3.22,20.76,20.76,0,0,1,5.78.33,10.85,10.85,0,0,0,5.73-.42c-.2-4.63,1-9.19,2.18-13.67l4.92-18.54c.54-2,1.06-4.26.14-6.14s-4-2.67-5.07-.87l1.77-4.71a6.65,6.65,0,0,0-5,3.43l-10-11.65c-1.06,4.36-1.86,9.66,1.41,12.73,1.64,1.54,4,2.13,5.73,3.57,3.06,2.56,3.47,7.07,3.25,11a60.56,60.56,0,0,1-3.84,18.28l-11.37-.1a6.07,6.07,0,0,1-3.19-.62c-1.46-.9-1.88-2.83-2-4.55-.28-6.15,3.37-14.34,4.61-20.36,1.59-7.68.12-13.43-1.62-21.07a12.19,12.19,0,0,0-2.15-5.14c-.43-.52-3.2-2.83-4-1.83S391.57,235.47,392.08,236.23Z" transform="translate(0.05 0)"></path><path class="cls-2" d="M411.24,228A16.34,16.34,0,0,0,426,235.81a16.9,16.9,0,0,0,5,11.33c2.59,2.57,6.18,4.51,7.25,8a12.78,12.78,0,0,1,0,5.64,165.86,165.86,0,0,1-5.51,24.2V263.21a25.88,25.88,0,0,0-.52-6.51c-1.29-4.9-5.37-8.75-6.42-13.71-8.72-.66-16-9.44-15-18.13Z" transform="translate(0.05 0)"></path><path class="cls-2" d="M392.08,236.23c-1.53.4-2.14,2.32-1.88,3.89s1.07,3,1.35,4.53-.24,3.49-1.75,4c2.43-.26,4.51,2.07,4.88,4.49s-.49,4.82-1.35,7.11c-2.73,7.29-5.52,14.82-5.16,22.59s4.72,15.93,12.16,18.22c-1.93,0-3.21-2.42-2.57-4.26a5.43,5.43,0,0,1,4.48-3.22,20.76,20.76,0,0,1,5.78.33,10.85,10.85,0,0,0,5.73-.42c-.2-4.63,1-9.19,2.18-13.67l4.92-18.54c.54-2,1.06-4.26.14-6.14s-4-2.67-5.07-.87l1.77-4.71a6.65,6.65,0,0,0-5,3.43l-10-11.65c-1.06,4.36-1.86,9.66,1.41,12.73,1.64,1.54,4,2.13,5.73,3.57,3.06,2.56,3.47,7.07,3.25,11a60.56,60.56,0,0,1-3.84,18.28l-11.37-.1a6.07,6.07,0,0,1-3.19-.62c-1.46-.9-1.88-2.83-2-4.55-.28-6.15,3.37-14.34,4.61-20.36,1.59-7.68.12-13.43-1.62-21.07a12.19,12.19,0,0,0-2.15-5.14c-.43-.52-3.2-2.83-4-1.83S391.57,235.47,392.08,236.23Z" transform="translate(0.05 0)"></path><g class="cls-12"><path class="cls-9" d="M411.24,228A16.34,16.34,0,0,0,426,235.81a16.9,16.9,0,0,0,5,11.33c2.59,2.57,6.18,4.51,7.25,8a12.78,12.78,0,0,1,0,5.64,165.86,165.86,0,0,1-5.51,24.2V263.21a25.88,25.88,0,0,0-.52-6.51c-1.29-4.9-5.37-8.75-6.42-13.71-8.72-.66-16-9.44-15-18.13Z" transform="translate(0.05 0)"></path><path class="cls-9" d="M392.08,236.23c-1.53.4-2.14,2.32-1.88,3.89s1.07,3,1.35,4.53-.24,3.49-1.75,4c2.43-.26,4.51,2.07,4.88,4.49s-.49,4.82-1.35,7.11c-2.73,7.29-5.52,14.82-5.16,22.59s4.72,15.93,12.16,18.22c-1.93,0-3.21-2.42-2.57-4.26a5.43,5.43,0,0,1,4.48-3.22,20.76,20.76,0,0,1,5.78.33,10.85,10.85,0,0,0,5.73-.42c-.2-4.63,1-9.19,2.18-13.67l4.92-18.54c.54-2,1.06-4.26.14-6.14s-4-2.67-5.07-.87l1.77-4.71a6.65,6.65,0,0,0-5,3.43l-10-11.65c-1.06,4.36-1.86,9.66,1.41,12.73,1.64,1.54,4,2.13,5.73,3.57,3.06,2.56,3.47,7.07,3.25,11a60.56,60.56,0,0,1-3.84,18.28l-11.37-.1a6.07,6.07,0,0,1-3.19-.62c-1.46-.9-1.88-2.83-2-4.55-.28-6.15,3.37-14.34,4.61-20.36,1.59-7.68.12-13.43-1.62-21.07a12.19,12.19,0,0,0-2.15-5.14c-.43-.52-3.2-2.83-4-1.83S391.57,235.47,392.08,236.23Z" transform="translate(0.05 0)"></path></g><path class="cls-2" d="M440.36,311.75q7.88-15.17,15.23-30.6c1.73-3.63,3.47-7.4,3.65-11.43.11-2.63-2.06-12.74-6.05-12.67-2.66,0-4.18,14.06-4.7,16.49Z" transform="translate(0.05 0)"></path><path class="cls-11" d="M440.36,311.75q7.88-15.17,15.23-30.6c1.73-3.63,3.47-7.4,3.65-11.43.11-2.63-2.06-12.74-6.05-12.67-2.66,0-4.18,14.06-4.7,16.49Z" transform="translate(0.05 0)"></path></g><path class="cls-13" d="M372.77,388.76v-46.9l-.7-10.44s-6.31-9.1-5.91-19.15c.33-8.47,10.09-35.16,10.78-37.95.26-1,2.44-18.45,2.44-19.48s1-15.32,4.52-18.45,9.4-4.53,11.14,0,3.48,18.79,2.45,24-3.14,11.49-3.84,16a35.56,35.56,0,0,0,.36,10.09h15.66l2.77-8.7.71-17.41s-8.92-4.56-10.55-9v-4.21c.07-1.45.06-2.94,0-4.28v-4.61c3.1,1.5,23.59,11.51,25.51,14.07,2.09,2.79,3.48,13.93,3.48,13.93l2.76-6.91v-.06S425.64,245,425,242.61c0,0-7-1.74-10.09-5.58s-5.22-7.65-2.09-11.13S433,232.16,433,232.16l11.41,14.75,5.29,6.83s9.75,9.87,10.14,12.47c.45,2.94-3.88,15.72-3.88,15.72l-14.26,28.55c-.83,1.5-7.7,8.67-14.68,15.77-7.67,7.82-15.47,15.56-15.47,15.56l1.18,10.55" transform="translate(0.05 0)"></path><path class="cls-13" d="M451.55,261.49A143.27,143.27,0,0,1,443,298.17" transform="translate(0.05 0)"></path><path class="cls-13" d="M432.32,271.89a90.12,90.12,0,0,0,1.18,14.94c.55,3.35,1.22,7.05-.58,9.92" transform="translate(0.05 0)"></path><path class="cls-13" d="M393.17,249,383,249.5s-.77-10,3.69-12.46" transform="translate(0.05 0)"></path><path class="cls-13" d="M413.3,260.83a7.73,7.73,0,0,1,.5-4.65" transform="translate(0.05 0)"></path><path class="cls-13" d="M434.05,259.94l2.86-4.94" transform="translate(0.05 0)"></path><path class="cls-13" d="M426.32,238a6.7,6.7,0,0,0-.91,5.55" transform="translate(0.05 0)"></path><path class="cls-13" d="M393.38,282.21s-1.17,8.15,3,10.76" transform="translate(0.05 0)"></path></g><rect class="cls-15" x="303.05" y="230.7" width="17.15" height="2.37"></rect><rect class="cls-16" x="250.87" y="118.82" width="36" height="38.22"></rect><rect class="cls-11" x="250.87" y="118.82" width="36" height="38.22"></rect><path class="cls-6" d="M272.71,142.91,268,141.23s-2.46,2-4.1-1.38a3.84,3.84,0,0,1-4.77-2.59,1.09,1.09,0,0,1-.05-.17h0l-.05-.2s-4.53-1.52-3.23-4.24,4.91.14,4.91.14a5,5,0,0,1,4.87,3.6s3.45,0,3.46,3.35Z" transform="translate(0.05 0)"></path><path class="cls-9" d="M257.87,133.7q1.9,1.06,3.78,2.16c1.25.73,2.51,1.48,3.76,2.25s2.45,1.53,3.69,2.33,2.46,1.61,3.61,2.48l-.92-.59-.92-.58L269,140.66l-3.73-2.28-3.71-2.33Z" transform="translate(0.05 0)"></path><path class="cls-6" d="M273,142.7l.05-5.3s2.54-1.79.09-4.55a4.27,4.27,0,0,0-.89-5.74L272,127s.13-5-2.72-4.62-1.46,5-1.46,5a5.43,5.43,0,0,0,1.63,6.09s-1.13,3.48,1.87,4.56Z" transform="translate(0.05 0)"></path><path class="cls-9" d="M269.57,124.83c.29,1.49.58,3,.86,4.48l.82,4.47.81,4.48.43,2.24.22,1.12.23,1.11c-.4-1.46-.73-2.95-1-4.43s-.6-3-.87-4.47-.54-3-.82-4.5S269.77,126.33,269.57,124.83Z" transform="translate(0.05 0)"></path><path class="cls-17" d="M273.24,143.55l-4.64-5.17s-3.91,1-4.24-4c0,0-5.05-.67-4.42-6.32,0,0-4.72-4.35-1.8-7s5.91,2.93,5.91,2.93a6.87,6.87,0,0,1,4.09,7s4.1,1.94,2.46,6Z" transform="translate(0.05 0)"></path><path class="cls-9" d="M261.12,124c1.16,1.51,2.28,3.08,3.35,4.66l.82,1.19.82,1.21.77,1.21.77,1.22c.51.82,1,1.65,1.49,2.47l.72,1.26.37.61.34.64c.95,1.68,1.83,3.4,2.67,5.14l-.35-.63-.35-.63-.3-.6-.36-.61-.72-1.26-.72-1.25c-1-1.65-2-3.3-3-4.93-.49-.82-1-1.63-1.52-2.44l-.77-1.21-.78-1.21-1.57-2.41C262.24,125.54,261.65,124.75,261.12,124Z" transform="translate(0.05 0)"></path><path class="cls-9" d="M280.73,143.44c.08.11.15.23.22.35,2.26,3.79-.69,6.82-.82,8.18s.93,2.3.34,2.75-1-.87-2.33-1.24c-1-.26-3.58,1-5.91-.36a4.35,4.35,0,0,1-.57-.38,5.92,5.92,0,0,1-1.08-1.1l-.24-.34-.12-.18A6.71,6.71,0,0,1,269,145.9a6.87,6.87,0,0,1,2.71-4.21,5.68,5.68,0,0,1,7.56.08c.15.14.31.28.46.44a10.12,10.12,0,0,1,.88,1.08Z" transform="translate(0.05 0)"></path><path class="cls-18" d="M274.93,150.28l.35.52-3,2.32a4.35,4.35,0,0,1-.57-.38Z" transform="translate(0.05 0)"></path><path class="cls-18" d="M272.34,149.52l.36.53-2.11,1.59a2.62,2.62,0,0,1-.24-.34l-.12-.18Z" transform="translate(0.05 0)"></path><path class="cls-18" d="M280.73,143.44c.08.11.15.23.22.35l-2.09,1.59-.36-.52,2.11-1.6Z" transform="translate(0.05 0)"></path><path class="cls-18" d="M279.73,142.18l-1.5,1.14-.37-.53,1.38-1.09C279.42,141.87,279.58,142,279.73,142.18Z" transform="translate(0.05 0)"></path><path class="cls-18" d="M270.67,144.59l.35.54-2.12,1.57a8.58,8.58,0,0,1,.1-.87Z" transform="translate(0.05 0)"></path><path class="cls-19" d="M262.24,160.18a.17.17,0,0,1,.17.16v.27a2.08,2.08,0,0,1,1.16.49.2.2,0,0,1,.09.17.18.18,0,0,1-.18.16h-.09a1.8,1.8,0,0,0-1-.45v1.94c1,.22,1.42.62,1.42,1.3a1.32,1.32,0,0,1-1.35,1.29h0v.55a.17.17,0,0,1-.17.16.18.18,0,0,1-.15-.16v-.55a2.42,2.42,0,0,1-1.48-.68.21.21,0,0,1,0-.26.14.14,0,0,1,.12-.06.13.13,0,0,1,.12,0,2,2,0,0,0,1.28.63v-1.93c-1-.23-1.4-.61-1.4-1.31a1.31,1.31,0,0,1,1.37-1.25h0v-.27a.18.18,0,0,1,.13-.21Zm-.13,2.61v-1.9a1,1,0,0,0-1.06.87c0,.45.21.87,1.06,1.06Zm.28.42v1.92a1,1,0,0,0,1.08-.88v-.06c0-.52-.24-.74-1.06-1Z" transform="translate(0.05 0)"></path><path class="cls-19" d="M264.64,165.18l2.13-2a1.3,1.3,0,0,0,.1-1.76A1.16,1.16,0,0,0,266,161a1.1,1.1,0,0,0-.82.33l-.22.2a.13.13,0,0,1-.18,0l0,0h0a.17.17,0,0,1,0-.23h0l.22-.22a1.5,1.5,0,0,1,1-.41,1.56,1.56,0,0,1,1.48,1.61,1.64,1.64,0,0,1-.48,1.16l-1.84,1.74h2.2a.16.16,0,0,1,.16.16h0a.17.17,0,0,1-.16.17h-2.58a.11.11,0,0,1-.11,0,.21.21,0,0,1,0-.26Z" transform="translate(0.05 0)"></path><path class="cls-19" d="M269,164.78a.35.35,0,1,1-.33.37v0h0a.34.34,0,0,1,.33-.35Z" transform="translate(0.05 0)"></path><path class="cls-19" d="M270.11,165a.17.17,0,0,1,0-.23h0a.16.16,0,0,1,.21,0l0,0a1.19,1.19,0,0,0,.87.37,1.27,1.27,0,0,0,1.22-1.29,1.38,1.38,0,0,0-.35-.93,1.18,1.18,0,0,0-1.67-.07l-.07.07a.16.16,0,0,1-.22,0h0v-.06h0v-.06h0l.22-1.95a.15.15,0,0,1,.07-.13.11.11,0,0,1,.11,0h2.13a.17.17,0,0,1,0,.34h-2.06l-.16,1.45a1.46,1.46,0,0,1,1.87.25,1.68,1.68,0,0,1,0,2.29,1.44,1.44,0,0,1-2.05.05l-.1-.1Z" transform="translate(0.05 0)"></path><path class="cls-19" d="M274,163a3.24,3.24,0,0,1,.44-1.69,1.29,1.29,0,0,1,1.71-.6l.05,0a1.41,1.41,0,0,1,.54.57,3.54,3.54,0,0,1,0,3.4,1.28,1.28,0,0,1-1.71.59l-.06,0a1.43,1.43,0,0,1-.53-.56A3.31,3.31,0,0,1,274,163Zm.33,0a2.77,2.77,0,0,0,.38,1.51.94.94,0,0,0,1.75,0,3,3,0,0,0,0-3,1.11,1.11,0,0,0-.87-.59,1.07,1.07,0,0,0-.88.59,2.88,2.88,0,0,0-.38,1.49Z" transform="translate(0.05 0)"></path><rect class="cls-2" x="293.43" y="118.82" width="36" height="38.22"></rect><rect class="cls-11" x="293.43" y="118.82" width="36" height="38.22"></rect><path class="cls-9" d="M317.7,143.12c4.56,4.91,9.15,10.06,9.15,10.06a2.2,2.2,0,0,1-1.64,1.63l-9.25-10-.48-.51-.32-.35-1-1-.33-.35-1.88-2-.32-.35c-1.86-2-3.28-3.48-3.68-3.95-2.06-2.23-12.12-6.84-12.12-6.84s-.82-.57.26-2c0,0,3.9,2,7.55,3.91l-8.52-5.74a1.74,1.74,0,0,1,.75-1.53l4.87,3.42-4.36-4.46s.1-.73,1.28-1.29l7.52,8.24-5.35-7.5a2.81,2.81,0,0,1,1.28-1s3.28,5.27,7.92,11.83l-4.92-8.77a1.74,1.74,0,0,1,1.35-.68s3.82,9.66,7.86,14.63l.3.36c.14.17.29.33.43.48h0l1.47,1.55.32.35,1,1,.32.34Z" transform="translate(0.05 0)"></path><path class="cls-17" d="M305.56,123.86s3.82,9.66,7.86,14.63l-1.74,1.74c-1.86-2-3.28-3.48-3.68-4-2.06-2.23-12.12-6.83-12.12-6.83s-.82-.57.26-2.05c0,0,3.9,2,7.55,3.92l-8.52-5.71a1.74,1.74,0,0,1,.75-1.53l4.87,3.42L296.43,123s.1-.73,1.28-1.29l7.52,8.24-5.35-7.5a2.81,2.81,0,0,1,1.28-1s3.28,5.27,7.92,11.83l-4.92-8.77A1.75,1.75,0,0,1,305.56,123.86Z" transform="translate(0.05 0)"></path><path class="cls-17" d="M315.65,140.89l-1.73,1.74-1.92-2,1.72-1.74c.14.17.29.32.43.48h0Z" transform="translate(0.05 0)"></path><path class="cls-17" d="M316.91,142.25,315.18,144l-.95-1,1.72-1.74Z" transform="translate(0.05 0)"></path><path class="cls-17" d="M317.7,143.12,316,144.86l-.47-.51,1.73-1.74Z" transform="translate(0.05 0)"></path><path class="cls-19" d="M305.17,160.18a.17.17,0,0,1,.15.16v.27a2.11,2.11,0,0,1,1.17.49.21.21,0,0,1,.1.17.19.19,0,0,1-.18.17.16.16,0,0,1-.11-.05,1.8,1.8,0,0,0-1-.45v1.94c1,.22,1.4.62,1.4,1.3a1.32,1.32,0,0,1-1.35,1.29h-.05V166a.17.17,0,0,1-.15.16A.16.16,0,0,1,305,166h0v-.55a2.42,2.42,0,0,1-1.47-.68.18.18,0,0,1-.08-.15.19.19,0,0,1,.17-.17.11.11,0,0,1,.11,0,2.09,2.09,0,0,0,1.28.63v-1.93c-1-.23-1.38-.61-1.38-1.31a1.3,1.3,0,0,1,1.3-1.3H305v-.27a.16.16,0,0,1,.16-.16h0Zm-.15,2.61v-1.9a1,1,0,0,0-1,.87c0,.59.21.87,1,1.06Zm.3.42v1.92a1,1,0,0,0,1.07-.88v-.06c0-.52-.24-.74-1.08-1Z" transform="translate(0.05 0)"></path><path class="cls-19" d="M308.31,161.1l-.64.41h-.09a.14.14,0,0,1-.13-.09.17.17,0,0,1,0-.21h0l.89-.58a.17.17,0,0,1,.21.07.13.13,0,0,1,0,.12v4.47a.16.16,0,0,1-.15.17h0a.17.17,0,0,1-.16-.17Z" transform="translate(0.05 0)"></path><path class="cls-19" d="M310.24,164.78a.32.32,0,0,1,.33.31h0a.32.32,0,0,1-.29.35h0a.32.32,0,0,1-.33-.31h0A.34.34,0,0,1,310.24,164.78Z" transform="translate(0.05 0)"></path><path class="cls-19" d="M311.24,163a3.14,3.14,0,0,1,.43-1.69,1.41,1.41,0,0,1,1.15-.74,1.39,1.39,0,0,1,1.14.74,3.44,3.44,0,0,1,0,3.4,1.26,1.26,0,0,1-1.67.62,1.33,1.33,0,0,1-.62-.62A3.2,3.2,0,0,1,311.24,163Zm.31,0a2.86,2.86,0,0,0,.39,1.51,1.11,1.11,0,0,0,.88.59,1.14,1.14,0,0,0,.88-.59,3.08,3.08,0,0,0,0-3,1,1,0,0,0-1.76,0,2.92,2.92,0,0,0-.36,1.5Z" transform="translate(0.05 0)"></path><path class="cls-19" d="M315.86,163a3.14,3.14,0,0,1,.43-1.69,1.47,1.47,0,0,1,1.15-.74,1.43,1.43,0,0,1,1.15.74,3.49,3.49,0,0,1,0,3.4,1.26,1.26,0,0,1-1.69.61,1.25,1.25,0,0,1-.61-.61A3.3,3.3,0,0,1,315.86,163Zm.32,0a2.77,2.77,0,0,0,.38,1.51,1,1,0,0,0,1.31.48,1,1,0,0,0,.45-.48,3.08,3.08,0,0,0,0-3,1,1,0,0,0-1.31-.48,1,1,0,0,0-.45.48A2.88,2.88,0,0,0,316.18,163Z" transform="translate(0.05 0)"></path><rect class="cls-16" x="335.99" y="118.82" width="36" height="38.22"></rect><rect class="cls-11" x="335.99" y="118.82" width="36" height="38.22"></rect><path class="cls-9" d="M343.24,142.6c2.82,9.75,11.47,8.51,13.93,7.71s10.25-4.92,7.43-14.66-12-7.5-13.69-7C349.06,129.31,340.43,132.86,343.24,142.6Z" transform="translate(0.05 0)"></path><path class="cls-17" d="M351.69,130s.38,3.67,6.45,1.47C358.16,131.49,354.06,126.86,351.69,130Z" transform="translate(0.05 0)"></path><path class="cls-17" d="M352.3,131.54s2.85.2,2-5.31C354.34,126.23,350.24,129.08,352.3,131.54Z" transform="translate(0.05 0)"></path><path class="cls-17" d="M352.07,130.57s-1,2.84-5.4-.2C346.67,130.37,350.8,127.57,352.07,130.57Z" transform="translate(0.05 0)"></path><path class="cls-17" d="M351.89,129.84s-2.66,2.39,2.45,6.5C354.33,136.34,355.65,130.17,351.89,129.84Z" transform="translate(0.05 0)"></path><path class="cls-17" d="M351.61,130.37s-3.83-1.13-3.33,5.81C348.24,136.18,354.15,134,351.61,130.37Z" transform="translate(0.05 0)"></path><path class="cls-6" d="M352.24,131.23a7.5,7.5,0,0,0-2.39-6.2,2.22,2.22,0,0,0-2,1.82s3.27,1.94,3.49,5.09l.76-.48" transform="translate(0.05 0)"></path><path class="cls-19" d="M347.81,160.18a.17.17,0,0,1,.17.16v.27a2.08,2.08,0,0,1,1.16.49.2.2,0,0,1,.09.17.16.16,0,0,1-.18.16h-.11a1.8,1.8,0,0,0-1-.45v1.94c1,.22,1.42.62,1.42,1.3a1.32,1.32,0,0,1-1.35,1.29H348v.55a.17.17,0,0,1-.17.16.18.18,0,0,1-.15-.16v-.55a2.42,2.42,0,0,1-1.48-.68.21.21,0,0,1,0-.26.14.14,0,0,1,.12-.06.13.13,0,0,1,.12,0,2,2,0,0,0,1.27.63v-1.93c-1-.23-1.39-.61-1.39-1.31a1.3,1.3,0,0,1,1.35-1.25h0v-.27a.18.18,0,0,1,.13-.21Zm-.14,2.61v-1.9a1,1,0,0,0-1.05.87c0,.45.21.87,1.05,1.06Zm.29.42v1.92a1,1,0,0,0,1.08-.88v-.06c0-.52-.23-.74-1.08-1Z" transform="translate(0.05 0)"></path><path class="cls-19" d="M351,161.1l-.66.41h-.07a.14.14,0,0,1-.14-.09.17.17,0,0,1,0-.21h0l.89-.58a.16.16,0,0,1,.22.07.24.24,0,0,1,0,.12v4.47a.17.17,0,0,1-.16.17.16.16,0,0,1-.15-.17h0Z" transform="translate(0.05 0)"></path><path class="cls-19" d="M352.92,164.78a.35.35,0,1,1-.33.37v0h0a.34.34,0,0,1,.33-.35Z" transform="translate(0.05 0)"></path><path class="cls-19" d="M354,165a.16.16,0,0,1,0-.23h0a.16.16,0,0,1,.21,0l0,0a1.19,1.19,0,0,0,.87.37,1.27,1.27,0,0,0,1.22-1.29,1.38,1.38,0,0,0-.35-.93,1.18,1.18,0,0,0-1.67-.07.46.46,0,0,0-.07.07.16.16,0,0,1-.22,0h0v-.06h0a.06.06,0,0,1,0-.06h0l.22-1.95a.18.18,0,0,1,.17-.17h2.13a.18.18,0,0,1,.17.18.18.18,0,0,1-.17.17h-2l-.16,1.44a1.49,1.49,0,0,1,1.85.27,1.75,1.75,0,0,1,0,2.34,1.51,1.51,0,0,1-1.09.48A1.47,1.47,0,0,1,354,165Z" transform="translate(0.05 0)"></path><path class="cls-19" d="M358,163a3.24,3.24,0,0,1,.44-1.69,1.29,1.29,0,0,1,1.71-.6l0,0a1.33,1.33,0,0,1,.53.57,3.49,3.49,0,0,1,0,3.4,1.27,1.27,0,0,1-1.7.59l-.06,0a1.43,1.43,0,0,1-.53-.56A3.31,3.31,0,0,1,358,163Zm.32,0a3,3,0,0,0,.39,1.51,1.11,1.11,0,0,0,.88.59,1.13,1.13,0,0,0,.87-.59,3,3,0,0,0,0-3,1.11,1.11,0,0,0-.87-.59,1.07,1.07,0,0,0-.88.59,2.93,2.93,0,0,0-.42,1.5Z" transform="translate(0.05 0)"></path><rect class="cls-2" x="250.87" y="174.63" width="36" height="38.22"></rect><rect class="cls-11" x="250.87" y="174.63" width="36" height="38.22"></rect><path class="cls-9" d="M278.83,190.52v18.85c0,1.17-2.21,1.84-9.63,1.84s-9.63-.67-9.63-1.84V190.52c0-5,5.23-8.31,5.23-9.28v-3.8h8.8v3.8C273.6,182.21,278.83,185.49,278.83,190.52Z" transform="translate(0.05 0)"></path><rect class="cls-20" x="264.36" y="175.7" width="9.8" height="3.17"></rect><rect class="cls-20" x="259.62" y="195.5" width="19.26" height="10.19"></rect><path class="cls-19" d="M263.46,217.18a.17.17,0,0,1,.17.16v.28a2.08,2.08,0,0,1,1.16.49.17.17,0,0,1,.09.16.18.18,0,0,1-.19.17h-.1a1.88,1.88,0,0,0-1-.46v2c1,.23,1.42.62,1.42,1.31a1.33,1.33,0,0,1-1.37,1.28h0v.54a.16.16,0,1,1-.32,0v-.54a2.42,2.42,0,0,1-1.47-.68.18.18,0,0,1,0-.25h0a.19.19,0,0,1,.12-.07.24.24,0,0,1,.11.06,2.09,2.09,0,0,0,1.28.63v-2c-1-.24-1.39-.61-1.39-1.31a1.3,1.3,0,0,1,1.34-1.26h0v-.27a.18.18,0,0,1,.13-.2Zm-.14,2.6v-1.89a1,1,0,0,0-1.05.87c0,.45.21.87,1.05,1.07Zm.29.43v1.92a1,1,0,0,0,1.08-.87v-.08c0-.53-.23-.73-1.08-.93Z" transform="translate(0.05 0)"></path><path class="cls-19" d="M268.64,217.92l-1.19,1.3a1.69,1.69,0,0,1,.78,2.78,1.58,1.58,0,0,1-1.1.49A1.5,1.5,0,0,1,266,222a.16.16,0,0,1,0-.23h0a.14.14,0,0,1,.19,0,1.2,1.2,0,0,0,1.7,0l0,0a1.37,1.37,0,0,0,0-1.85,1.2,1.2,0,0,0-.87-.38.17.17,0,0,1-.13-.07h0a.2.2,0,0,1,0-.25l1.14-1.24h-1.76a.18.18,0,0,1-.17-.18.18.18,0,0,1,.17-.17h2.14a.18.18,0,0,1,.17.17v.08Z" transform="translate(0.05 0)"></path><path class="cls-19" d="M270.37,221.79a.32.32,0,0,1,.33.31h0a.33.33,0,0,1-.66,0,.32.32,0,0,1,.3-.34h0Z" transform="translate(0.05 0)"></path><path class="cls-19" d="M269.77,219.15a3.38,3.38,0,0,1,.44-1.73,1.29,1.29,0,0,1,1.71-.6l.05,0a1.41,1.41,0,0,1,.54.57,3.54,3.54,0,0,1,0,3.43,1.26,1.26,0,0,1-1.67.62l-.08,0a1.34,1.34,0,0,1-.55-.58A3.27,3.27,0,0,1,269.77,219.15Zm.33,0a3,3,0,0,0,.38,1.51.93.93,0,0,0,1.2.53l.07,0a1,1,0,0,0,.48-.5,3.13,3.13,0,0,0,0-3,1.09,1.09,0,0,0-.88-.58,1,1,0,0,0-.87.58,2.91,2.91,0,0,0-.42,1.55Z" transform="translate(0.05 0)"></path><path class="cls-19" d="M274.38,219.15a3.27,3.27,0,0,1,.45-1.73,1.28,1.28,0,0,1,1.69-.61l.07,0a1.39,1.39,0,0,1,.53.57,3.38,3.38,0,0,1,.44,1.73,3.27,3.27,0,0,1-.44,1.7,1.26,1.26,0,0,1-1.67.62l-.08,0a1.32,1.32,0,0,1-.54-.58A3.16,3.16,0,0,1,274.38,219.15Zm.33,0a3,3,0,0,0,.39,1.51,1,1,0,0,0,1.3.48,1,1,0,0,0,.45-.48,3.13,3.13,0,0,0,0-3,1.09,1.09,0,0,0-.88-.58,1.06,1.06,0,0,0-.87.58,2.77,2.77,0,0,0-.41,1.51Z" transform="translate(0.05 0)"></path><rect class="cls-16" x="293.43" y="174.63" width="36" height="38.22"></rect><rect class="cls-11" x="293.43" y="174.63" width="36" height="38.22"></rect><rect class="cls-9" x="304.11" y="182.91" width="15.02" height="28.26"></rect><rect class="cls-9" x="304.11" y="182.91" width="15.02" height="28.26"></rect><rect class="cls-17" x="304.11" y="193.35" width="15.02" height="11.87"></rect><polygon class="cls-9" points="319.14 182.91 304.12 182.91 305.98 179.02 317.26 179.02 319.14 182.91"></polygon><polygon class="cls-18" points="319.14 182.91 304.12 182.91 305.98 179.02 317.26 179.02 319.14 182.91"></polygon><rect class="cls-9" x="305.96" y="175.74" width="11.3" height="3.28"></rect><path class="cls-19" d="M304.61,216.28a.16.16,0,0,1,.16.16v.26a2,2,0,0,1,1.16.49.18.18,0,0,1,.1.16.18.18,0,0,1-.16.18h0a.14.14,0,0,1-.12-.06,1.87,1.87,0,0,0-1-.45v2c1,.23,1.41.62,1.41,1.3a1.33,1.33,0,0,1-1.37,1.29h0v.54a.15.15,0,0,1-.12.19.15.15,0,0,1-.19-.11.11.11,0,0,1,0-.08h0v-.55a2.37,2.37,0,0,1-1.48-.68.17.17,0,0,1-.07-.14.18.18,0,0,1,.16-.18.17.17,0,0,1,.12.05,2,2,0,0,0,1.28.64v-2c-1-.24-1.39-.61-1.39-1.31a1.31,1.31,0,0,1,1.35-1.26h0v-.27a.16.16,0,0,1,.15-.17Zm-.15,2.6V217a1,1,0,0,0-1,.87c0,.56.21.87,1,1.07Zm.3.43v1.92a1,1,0,0,0,1.07-.88v-.06c0-.54-.23-.74-1.07-.94Z" transform="translate(0.05 0)"></path><path class="cls-19" d="M307,221.29l2.14-2.06a1.28,1.28,0,0,0,.08-1.74,1.18,1.18,0,0,0-.86-.41,1.1,1.1,0,0,0-.82.33l-.22.21a.15.15,0,0,1-.21,0h0a.16.16,0,0,1,0-.22h0l.23-.23a1.5,1.5,0,0,1,1-.41,1.56,1.56,0,0,1,1.48,1.61,1.64,1.64,0,0,1-.48,1.16l-1.84,1.74h2.17a.18.18,0,0,1,0,.35h-2.58a.14.14,0,0,1-.12-.06.19.19,0,0,1,0-.26Z" transform="translate(0.05 0)"></path><path class="cls-19" d="M311.38,220.89a.31.31,0,0,1,.32.3v0h0a.32.32,0,0,1-.29.35h0a.33.33,0,0,1-.32-.34h0a.33.33,0,0,1,.29-.34h0Z" transform="translate(0.05 0)"></path><path class="cls-19" d="M312.48,221.1a.17.17,0,0,1,0-.23h0a.16.16,0,0,1,.23,0h0a1.17,1.17,0,0,0,.82.38,1.25,1.25,0,0,0,1.24-1.28h0a1.28,1.28,0,0,0-1.22-1.32,1.23,1.23,0,0,0-.88.38.16.16,0,0,1-.21,0l0,0V219h0v-.08h0l.22-2a.14.14,0,0,1,.07-.12.09.09,0,0,1,.1,0H315a.18.18,0,0,1,.17.18.16.16,0,0,1-.15.17h-2.06l-.16,1.45a1.39,1.39,0,0,1,.82-.22,1.6,1.6,0,0,1,1.55,1.64,1.71,1.71,0,0,1-.46,1.17,1.59,1.59,0,0,1-1.1.48A1.46,1.46,0,0,1,312.48,221.1Z" transform="translate(0.05 0)"></path><path class="cls-19" d="M316.42,219.15a3.27,3.27,0,0,1,.43-1.73,1.41,1.41,0,0,1,1.15-.74,1.39,1.39,0,0,1,1.14.74,3.49,3.49,0,0,1,0,3.43,1.26,1.26,0,0,1-1.67.62,1.33,1.33,0,0,1-.62-.62A3.15,3.15,0,0,1,316.42,219.15Zm.31,0a3,3,0,0,0,.39,1.51,1,1,0,0,0,1.3.48,1,1,0,0,0,.45-.48,3.08,3.08,0,0,0,0-3,1,1,0,0,0-1.3-.48,1,1,0,0,0-.45.48A2.89,2.89,0,0,0,316.73,219.15Z" transform="translate(0.05 0)"></path><rect class="cls-2" x="335.99" y="174.63" width="36" height="38.22"></rect><rect class="cls-11" x="335.99" y="174.63" width="36" height="38.22"></rect><path class="cls-9" d="M360.88,190.52v18.85c0,1.17-1.59,1.84-6.94,1.84s-6.93-.67-6.93-1.84V190.52c0-5,3.77-8.31,3.77-9.28v-3.8h6.33v3.8C357.11,182.21,360.88,185.49,360.88,190.52Z" transform="translate(0.05 0)"></path><rect class="cls-17" x="350.47" y="175.7" width="7.05" height="3.17"></rect><rect class="cls-18" x="349.04" y="196.94" width="9.93" height="7.3"></rect><path class="cls-19" d="M346.7,216.28a.16.16,0,0,1,.16.16h0v.26a2.11,2.11,0,0,1,1.17.49.17.17,0,0,1,.09.16.19.19,0,0,1-.19.17h-.1a1.88,1.88,0,0,0-1-.46V219c1,.23,1.41.62,1.41,1.31a1.31,1.31,0,0,1-1.34,1.28h0v.54a.18.18,0,0,1-.17.17.16.16,0,0,1-.15-.17v-.54a2.42,2.42,0,0,1-1.48-.68.21.21,0,0,1,0-.26.14.14,0,0,1,.12-.06.18.18,0,0,1,.12.05,2,2,0,0,0,1.27.63v-2c-1-.24-1.39-.61-1.39-1.3a1.32,1.32,0,0,1,1.35-1.27h0v-.27a.17.17,0,0,1,.13-.2Zm-.14,2.6V217a1,1,0,0,0-1.06.87c0,.45.22.87,1.06,1.07Zm.29.43v1.92a1,1,0,0,0,1.07-.87v-.07c0-.54-.23-.74-1.08-.94Z" transform="translate(0.05 0)"></path><path class="cls-19" d="M349.1,221.29l2.14-2.06a1.32,1.32,0,0,0,.09-1.77,1.15,1.15,0,0,0-.91-.41,1.2,1.2,0,0,0-.82.33l-.23.22a.15.15,0,0,1-.21,0h0a.16.16,0,0,1,0-.24h0l.22-.22a1.45,1.45,0,0,1,1-.41,1.55,1.55,0,0,1,1.49,1.6,1.62,1.62,0,0,1-.49,1.17l-1.82,1.73h2.16a.18.18,0,0,1,.16.18h0a.17.17,0,0,1-.16.17h-2.47a.16.16,0,0,1-.11-.05A.18.18,0,0,1,349.1,221.29Z" transform="translate(0.05 0)"></path><path class="cls-19" d="M353.47,220.89a.32.32,0,0,1,.33.31h0a.33.33,0,0,1-.31.35h0a.32.32,0,0,1-.32-.32h0a.33.33,0,0,1,.29-.34h0Z" transform="translate(0.05 0)"></path><path class="cls-19" d="M354.41,219.15a3.26,3.26,0,0,1,.44-1.73,1.29,1.29,0,0,1,1.71-.6l.05,0a1.33,1.33,0,0,1,.53.57,3.49,3.49,0,0,1,0,3.43,1.24,1.24,0,0,1-1.65.62l-.09,0a1.29,1.29,0,0,1-.55-.58A3.27,3.27,0,0,1,354.41,219.15Zm.33,0a3,3,0,0,0,.38,1.51,1,1,0,0,0,1.24.51,1,1,0,0,0,.51-.51,3.08,3.08,0,0,0,0-3,1,1,0,0,0-1.3-.48,1,1,0,0,0-.45.48A2.88,2.88,0,0,0,354.74,219.15Z" transform="translate(0.05 0)"></path><path class="cls-19" d="M359.06,219.15a3.38,3.38,0,0,1,.44-1.73,1.29,1.29,0,0,1,1.71-.6l.05,0a1.41,1.41,0,0,1,.54.57,3.54,3.54,0,0,1,0,3.43,1.26,1.26,0,0,1-1.67.62l-.08,0a1.34,1.34,0,0,1-.55-.58A3.27,3.27,0,0,1,359.06,219.15Zm.33,0a3,3,0,0,0,.38,1.51.93.93,0,0,0,1.2.53l.07,0a1,1,0,0,0,.48-.5,3.13,3.13,0,0,0,0-3,1.09,1.09,0,0,0-.88-.58,1.06,1.06,0,0,0-.87.58A2.7,2.7,0,0,0,359.39,219.15Z" transform="translate(0.05 0)"></path><rect class="cls-16" x="250.87" y="246.24" width="36" height="38.22"></rect><rect class="cls-11" x="250.87" y="246.24" width="36" height="38.22"></rect><path class="cls-9" d="M260.51,266c0,6.71,2.57,17.19,2.82,17.19H274c.3,0,4-9,4-18,0-9.41-6.15-11-6.15-11.67v-3.61h-6.24v3.61C265.52,254.13,260.51,257.63,260.51,266Zm11.87-9.36c3,0,5.53,8.78,3.27,9.63-3.15,1.21-6.08-9.61-3.27-9.63Z" transform="translate(0.05 0)"></path><path class="cls-21" d="M269.42,256.6c.17-2.25-4.5-1.74-6.45,5.62-1.48,5.59.2,17.11,5.44,17.11,6.26,0,6.64-9.78,6.24-10.17S268.64,266.7,269.42,256.6Z" transform="translate(0.05 0)"></path><polygon class="cls-17" points="264.26 251.93 273.06 251.93 272.46 247.8 264.86 247.8 264.26 251.93"></polygon><path class="cls-19" d="M261.91,289.33a.16.16,0,0,1,.16.16h0v.28a2,2,0,0,1,1.16.48.18.18,0,0,1,.08.24.16.16,0,0,1-.15.09h-.11a1.8,1.8,0,0,0-1-.45v1.94c1,.22,1.42.62,1.42,1.3a1.32,1.32,0,0,1-1.35,1.29h-.05v.54a.16.16,0,0,1-.16.16h0a.17.17,0,0,1-.15-.16h0v-.55a2.37,2.37,0,0,1-1.48-.68.18.18,0,0,1,0-.25.24.24,0,0,1,.11-.06h0a.24.24,0,0,1,.12,0,2,2,0,0,0,1.27.64v-2c-1-.22-1.39-.6-1.39-1.3a1.32,1.32,0,0,1,1.38-1.26h0v-.26a.16.16,0,0,1,.15-.17h0Zm-.14,2.61V290a1,1,0,0,0-1,.87V291C260.71,291.47,260.92,291.76,261.77,291.94Zm.28.43v1.92a1,1,0,0,0,1.08-.88v-.07c0-.53-.23-.75-1.09-.95Z" transform="translate(0.05 0)"></path><path class="cls-19" d="M264.41,294.15a.16.16,0,0,1,0-.23h0a.17.17,0,0,1,.23,0,1.24,1.24,0,0,0,.87.38,1.17,1.17,0,0,0,.82-.38,1.36,1.36,0,0,0,0-1.84,1.17,1.17,0,0,0-1.65-.08l-.08.08h0a.14.14,0,0,1-.2,0l0,0h0V292h0V292h0l.22-2a.15.15,0,0,1,.07-.12h2.23a.18.18,0,0,1,.17.17h0a.17.17,0,0,1-.15.18h-2.06l-.17,1.44a1.56,1.56,0,0,1,2.14.54,1.5,1.5,0,0,1,.22.88h0a1.64,1.64,0,0,1-.45,1.17,1.5,1.5,0,0,1-2.12.08l-.08-.08Z" transform="translate(0.05 0)"></path><path class="cls-19" d="M268.78,293.93a.32.32,0,0,1,.33.31h0a.33.33,0,0,1-.66,0,.32.32,0,0,1,.3-.34h0Z" transform="translate(0.05 0)"></path><path class="cls-19" d="M269.71,292.19a3.33,3.33,0,0,1,.45-1.74,1.27,1.27,0,0,1,1.7-.59l.06,0a1.36,1.36,0,0,1,.53.56,3.41,3.41,0,0,1,.44,1.74,3.27,3.27,0,0,1-.44,1.7,1.24,1.24,0,0,1-1.65.62l-.09,0a1.29,1.29,0,0,1-.55-.58A3.25,3.25,0,0,1,269.71,292.19Zm.33,0a3,3,0,0,0,.39,1.52,1.08,1.08,0,0,0,.87.58,1.16,1.16,0,0,0,.88-.58,3.13,3.13,0,0,0,0-3,1,1,0,0,0-1.24-.51,1,1,0,0,0-.51.51,3,3,0,0,0-.39,1.51Z" transform="translate(0.05 0)"></path><path class="cls-19" d="M274.37,292.19a3.23,3.23,0,0,1,.44-1.74,1.27,1.27,0,0,1,1.7-.59l.06,0a1.3,1.3,0,0,1,.53.56,3.42,3.42,0,0,1,.45,1.74,3.38,3.38,0,0,1-.45,1.7,1.24,1.24,0,0,1-1.65.62l-.09,0a1.29,1.29,0,0,1-.55-.58A3.16,3.16,0,0,1,274.37,292.19Zm.32,0a3,3,0,0,0,.39,1.52,1.09,1.09,0,0,0,.88.58,1.14,1.14,0,0,0,.87-.58,3.08,3.08,0,0,0,0-3,1,1,0,0,0-1.24-.51,1,1,0,0,0-.51.51,3,3,0,0,0-.39,1.51Z" transform="translate(0.05 0)"></path><rect class="cls-2" x="293.43" y="246.24" width="36" height="38.22"></rect><rect class="cls-11" x="293.43" y="246.24" width="36" height="38.22"></rect><path class="cls-9" d="M301.12,256.17h20.73a3.85,3.85,0,0,1,3.74,4v13.38a3.86,3.86,0,0,1-3.7,4H301.12a3.84,3.84,0,0,1-3.73-4v-13.4a3.85,3.85,0,0,1,3.73-4Z" transform="translate(0.05 0)"></path><rect class="cls-17" x="300.63" y="253.51" width="21.81" height="2.66"></rect><rect class="cls-17" x="297.44" y="261.33" width="28.38" height="10.95"></rect><path class="cls-9" d="M320.09,266.81c0,2.54-3.86,4.61-8.61,4.61s-8.6-2.07-8.6-4.61,3.85-4.61,8.6-4.61S320.09,264.26,320.09,266.81Z" transform="translate(0.05 0)"></path><path class="cls-19" d="M304.37,289.33a.16.16,0,0,1,.16.16h0v.28a2,2,0,0,1,1.16.48.19.19,0,0,1,.08.24h0a.15.15,0,0,1-.16.09h-.11a1.8,1.8,0,0,0-1-.45v1.94c1,.22,1.42.62,1.42,1.3a1.33,1.33,0,0,1-1.37,1.29h0v.54a.17.17,0,0,1-.15.16h0a.16.16,0,0,1-.16-.16h0v-.55a2.27,2.27,0,0,1-1.47-.68.16.16,0,0,1-.08-.14.19.19,0,0,1,.17-.17.24.24,0,0,1,.12,0,2,2,0,0,0,1.28.64v-2c-1-.22-1.4-.6-1.4-1.3a1.32,1.32,0,0,1,1.38-1.26h0v-.26a.17.17,0,0,1,.16-.17Zm-.14,2.61V290a1,1,0,0,0-1.06.87V291c0,.5.19.79,1.07,1Zm.28.43v1.92a1,1,0,0,0,1.08-.88v-.07c0-.53-.23-.75-1.08-.95Z" transform="translate(0.05 0)"></path><path class="cls-19" d="M309.39,293.63h-2.5a.16.16,0,0,1-.17-.14h0a.15.15,0,0,1,0-.13l2.66-3.48h0a.13.13,0,0,1,.18,0l0,0h0a.11.11,0,0,1,.05.09h0v3.35h.31a.17.17,0,0,1,.2.13h0a.18.18,0,0,1-.12.21h-.39v.87a.17.17,0,0,1-.16.17.18.18,0,0,1-.16-.17Zm0-.34v-2.85l-2.15,2.85Z" transform="translate(0.05 0)"></path><path class="cls-19" d="M311.62,293.93a.32.32,0,0,1,.33.31h0a.34.34,0,0,1-.33.35h0a.34.34,0,0,1-.32-.35.31.31,0,0,1,.28-.34h0Z" transform="translate(0.05 0)"></path><path class="cls-19" d="M312.72,294.15a.17.17,0,0,1,0-.23h0a.18.18,0,0,1,.24,0,1.2,1.2,0,0,0,.87.38,1.3,1.3,0,0,0,0-2.59,1.15,1.15,0,0,0-.85.37h0a.14.14,0,0,1-.2,0l0,0h0V292h0V292h0l.22-2a.14.14,0,0,1,.06-.12h2.2a.15.15,0,0,1,.16.14v0h0a.16.16,0,0,1-.13.17h-2l-.17,1.44a1.58,1.58,0,0,1,2.15.56,1.61,1.61,0,0,1,.21.86h0a1.66,1.66,0,0,1-.45,1.18,1.52,1.52,0,0,1-2.15.05l-.05-.05Z" transform="translate(0.05 0)"></path><path class="cls-19" d="M316.65,292.19a3.33,3.33,0,0,1,.45-1.74,1.27,1.27,0,0,1,1.7-.59l.06,0a1.36,1.36,0,0,1,.53.56,3.41,3.41,0,0,1,.44,1.74,3.27,3.27,0,0,1-.44,1.7,1.26,1.26,0,0,1-1.67.62l-.08,0a1.32,1.32,0,0,1-.54-.58A3.16,3.16,0,0,1,316.65,292.19Zm.33,0a2.9,2.9,0,0,0,.39,1.52.94.94,0,0,0,1.23.5l.07,0a1.13,1.13,0,0,0,.45-.47,3.13,3.13,0,0,0,0-3,1,1,0,0,0-1.24-.51,1,1,0,0,0-.51.51,2.86,2.86,0,0,0-.39,1.51Z" transform="translate(0.05 0)"></path><rect class="cls-16" x="335.99" y="246.24" width="36" height="38.22"></rect><rect class="cls-11" x="335.99" y="246.24" width="36" height="38.22"></rect><path class="cls-9" d="M362.49,270.45v10.18H345.4V270.45c0-3.56.82-12.91,8.55-12.91S362.49,266.89,362.49,270.45Z" transform="translate(0.05 0)"></path><path class="cls-9" d="M363,282H344.91A.9.9,0,0,1,344,281h0a.89.89,0,0,1,.85-.93H363a.88.88,0,0,1,.86.9h0a.9.9,0,0,1-.85.95Z" transform="translate(0.05 0)"></path><rect class="cls-9" x="351.3" y="255.47" width="5.39" height="4.38"></rect><rect class="cls-17" x="350.67" y="253.35" width="6.65" height="2.84"></rect><rect class="cls-17" x="352.78" y="250.57" width="2.42" height="3.27"></rect><path class="cls-17" d="M351.39,249.4a1.26,1.26,0,0,0-.38,1.73,1.3,1.3,0,0,0,.45.42c.82.51,5.19-.63,5.66-.57s1.55.57,1.7.57.63-.26.6-.49a5.61,5.61,0,0,0-2.64-1.68C355.64,249.1,352.32,248.7,351.39,249.4Z" transform="translate(0.05 0)"></path><path class="cls-19" d="M346.91,289.33a.17.17,0,0,1,.17.16h0v.28a2,2,0,0,1,1.16.48.19.19,0,0,1,.08.24.16.16,0,0,1-.15.09h0a.13.13,0,0,1-.12,0,1.8,1.8,0,0,0-1-.45v1.94c1,.22,1.42.62,1.42,1.3a1.33,1.33,0,0,1-1.36,1.29h0v.54a.16.16,0,0,1-.16.16h0a.16.16,0,0,1-.16-.16h0v-.55a2.32,2.32,0,0,1-1.47-.68.16.16,0,0,1,0-.24.17.17,0,0,1,.14-.07h0a.21.21,0,0,1,.11,0,2.1,2.1,0,0,0,1.28.64v-2c-1-.22-1.39-.6-1.39-1.3a1.31,1.31,0,0,1,1.36-1.26h0v-.26a.18.18,0,0,1,.16-.17Zm-.14,2.61V290a1,1,0,0,0-1,.87V291C345.72,291.47,346,291.76,346.77,291.94Zm.29.43v1.92a1,1,0,0,0,1.08-.88v-.07c0-.53-.23-.75-1.08-.95Z" transform="translate(0.05 0)"></path><path class="cls-19" d="M352.09,290.06l-1.22,1.3a1.47,1.47,0,0,1,.82.44,1.75,1.75,0,0,1,0,2.34,1.5,1.5,0,0,1-2.12.09l-.09-.09h0a.2.2,0,0,1,0-.25.18.18,0,0,1,.2,0,1.19,1.19,0,0,0,1.68.06l.06-.06a1.37,1.37,0,0,0,0-1.85,1.2,1.2,0,0,0-.87-.38.17.17,0,0,1-.13-.07h0a.18.18,0,0,1,0-.25l1.13-1.25h-1.76a.16.16,0,0,1-.16-.16h0a.18.18,0,0,1,.16-.18h2.15a.18.18,0,0,1,.16.18h0a.11.11,0,0,1,0,.08Z" transform="translate(0.05 0)"></path><path class="cls-19" d="M353.82,293.93a.32.32,0,0,1,.33.31h0a.34.34,0,0,1-.33.35h0a.33.33,0,0,1-.33-.33h0a.31.31,0,0,1,.28-.34h.05Z" transform="translate(0.05 0)"></path><path class="cls-19" d="M354.92,294.15a.16.16,0,0,1,0-.23h0a.17.17,0,0,1,.23,0,1.24,1.24,0,0,0,.87.38,1.17,1.17,0,0,0,.82-.38,1.36,1.36,0,0,0,0-1.84,1.17,1.17,0,0,0-1.65-.08l-.08.08h0a.14.14,0,0,1-.2,0s0,0,0,0h0V292h0V292h0l.22-2a.15.15,0,0,1,.07-.12h2.24a.18.18,0,0,1,.17.17h0a.17.17,0,0,1-.15.18h-2l-.2,1.42a1.58,1.58,0,0,1,.82-.22A1.59,1.59,0,0,1,357.6,293h0a1.65,1.65,0,0,1-.45,1.17,1.5,1.5,0,0,1-2.12.08l-.08-.08Z" transform="translate(0.05 0)"></path><path class="cls-19" d="M358.85,292.19a3.23,3.23,0,0,1,.44-1.74,1.27,1.27,0,0,1,1.7-.59l.06,0a1.3,1.3,0,0,1,.53.56,3.42,3.42,0,0,1,.45,1.74,3.38,3.38,0,0,1-.45,1.7,1.24,1.24,0,0,1-1.65.62l-.09,0a1.29,1.29,0,0,1-.55-.58A3.27,3.27,0,0,1,358.85,292.19Zm.33,0a3,3,0,0,0,.38,1.52,1.09,1.09,0,0,0,.88.58,1.14,1.14,0,0,0,.87-.58,3.08,3.08,0,0,0,0-3,1,1,0,0,0-1.3-.48,1,1,0,0,0-.45.48,3,3,0,0,0-.38,1.51Z" transform="translate(0.05 0)"></path><path class="cls-9" d="M95.6,218a9.75,9.75,0,0,1,1.15-5.57,12.14,12.14,0,0,1,3.76-4.2,10.78,10.78,0,0,1,5.07-1.94,6,6,0,0,1,2.16.19,1.21,1.21,0,0,1,.41,2.33,10.51,10.51,0,0,1-1.77.85,16.47,16.47,0,0,0-3.07,1.56,7,7,0,0,0-2.53,2.93,8,8,0,0,0,.06,6.79,7.68,7.68,0,0,0,5.41,4,9.56,9.56,0,0,0,5.66-.55,8.37,8.37,0,0,0,3.28-2.49,5.68,5.68,0,0,0,1.25-3.78,13.6,13.6,0,0,0-.46-2.62,10.35,10.35,0,0,1-.36-1.87,2.38,2.38,0,0,1,.78-1.94,2.18,2.18,0,0,1,1.83-.52,2.43,2.43,0,0,1,1.7,1.48,9.47,9.47,0,0,1,.67,2.1,11.56,11.56,0,0,1-.37,6,12.76,12.76,0,0,1-3.18,5.15,12.29,12.29,0,0,1-6.31,3.3,13,13,0,0,1-6.8-.53,12.79,12.79,0,0,1-5.6-3.9A12.46,12.46,0,0,1,95.6,218ZM107,214.24a3.37,3.37,0,0,1,2.47.21,2.67,2.67,0,0,1,1.45,1.68,2.45,2.45,0,0,1-.5,2.24,3.37,3.37,0,0,1-1.71,1.13,3.15,3.15,0,0,1-3-.7,2.78,2.78,0,0,1-.89-2.47C105,215.4,105.72,214.7,107,214.24Z" transform="translate(0.05 0)"></path><path class="cls-9" d="M126.93,203.28c0,1.92,0,4.4-.09,7.42s-.29,5.47-.55,7.34a9.36,9.36,0,0,1-1,3.22c-.43.71-.84.89-1.22.54s-.62-1.44-.72-3.23l-.29-14a3.46,3.46,0,0,1,1-2.77,1.68,1.68,0,0,1,1.84-.25A1.92,1.92,0,0,1,126.93,203.28Z" transform="translate(0.05 0)"></path><path class="cls-9" d="M135.6,213.15a16.5,16.5,0,0,1,.08,4.76,11.55,11.55,0,0,1-1.47,4.42,8.46,8.46,0,0,1-3.43,3.24,9.37,9.37,0,0,1-2.15.81,6,6,0,0,1-2.3.12,4.13,4.13,0,0,1-1-.31,1.1,1.1,0,0,1-.7-.75.87.87,0,0,1,.4-.77,4.32,4.32,0,0,1,1-.56,4.51,4.51,0,0,1,.87-.3,6.34,6.34,0,0,0,2.95-1.83,9.18,9.18,0,0,0,1.76-3,7.68,7.68,0,0,0,.27-3.27c0-.44-.09-.87-.15-1.31s-.12-1-.16-1.58a4.56,4.56,0,0,1,0-1,2,2,0,0,1,.3-.93,1.34,1.34,0,0,1,.66-.49,2.87,2.87,0,0,1,.81-.18,3,3,0,0,1,.85,0,1.32,1.32,0,0,1,.74.4,2.54,2.54,0,0,1,.47,1,12.16,12.16,0,0,1,.22,1.22A2.93,2.93,0,0,0,135.6,213.15Z" transform="translate(0.05 0)"></path><path class="cls-9" d="M150,217.71a2.13,2.13,0,0,1,1,.26,2,2,0,0,1,.78.77,2.19,2.19,0,0,1,.28,1,2.15,2.15,0,0,1-.27,1,2,2,0,0,1-.77.76,2.1,2.1,0,0,1-1,.27h-2.18a8.77,8.77,0,0,1-4.22,4.91,8.25,8.25,0,0,1-2.16.82,6.6,6.6,0,0,1-2.29.13,4,4,0,0,1-1.05-.31,1.16,1.16,0,0,1-.72-.77.9.9,0,0,1,.42-.75,4.46,4.46,0,0,1,1-.56,6.72,6.72,0,0,1,.88-.32,6.43,6.43,0,0,0,3.92-3.18,5.82,5.82,0,0,1-3.2-1,4.76,4.76,0,0,1-1.94-2.81,4.85,4.85,0,0,1,.14-2.79,5.62,5.62,0,0,1,1.69-2.42,5.36,5.36,0,0,1,3-1.17,4.79,4.79,0,0,1,4.14,1.57,5.43,5.43,0,0,1,1.2,3.4q0,.54,0,1.11Zm-5.85,1.17a1.6,1.6,0,0,0,1.58-1,1.88,1.88,0,0,0-.3-1.78,2.35,2.35,0,0,0-2.08-.84,1.81,1.81,0,0,0-1.24.6,1.63,1.63,0,0,0,.45,2.55A2.88,2.88,0,0,0,144.15,218.88Z" transform="translate(0.05 0)"></path><path class="cls-9" d="M162.39,217.71a2,2,0,0,1,1,.27,1.9,1.9,0,0,1,.78.76,2.08,2.08,0,0,1,.28,1,2.15,2.15,0,0,1-.27,1,2,2,0,0,1-.77.76,2.09,2.09,0,0,1-1,.27h-1.26a9.72,9.72,0,0,1-3.8-.7,5.56,5.56,0,0,1-2.87-2.44,5,5,0,0,1-1.77,2.27,4.52,4.52,0,0,1-2.43.85.65.65,0,0,1-.2,0H150a2.14,2.14,0,0,1-1-.27,1.92,1.92,0,0,1-.76-.76,2.05,2.05,0,0,1,0-2.07,1.87,1.87,0,0,1,.78-.77,2.37,2.37,0,0,1,.94-.26h.11a3.72,3.72,0,0,0,1.91-.38,2.21,2.21,0,0,0,.91-.94,3.21,3.21,0,0,0,.3-1.18,13.14,13.14,0,0,0,0-1.41,12.36,12.36,0,0,1,.07-2.1,1.82,1.82,0,0,1,.9-1.42,1.23,1.23,0,0,1,1.43.16,3.24,3.24,0,0,1,.89,2.27c0,.25.06.48.11.71s.09.65.13,1a3.79,3.79,0,0,0,.79,1.61,4.34,4.34,0,0,0,1.76,1.24A7.91,7.91,0,0,0,162.39,217.71Zm-6-13.6a8.35,8.35,0,0,1,3,.73c.63.35.78.71.43,1.07s-1.32.64-2.92.82q-1.24.17-3.12.36a30,30,0,0,1-3.35.2h-.31a3.58,3.58,0,0,1-1.32-.16c-.33-.12-.5-.46-.5-1a1.71,1.71,0,0,1,1.08-1.49,6.71,6.71,0,0,1,2.34-.54q1.35-.08,2.46-.06l.61,0h.88A6,6,0,0,0,156.4,204.11Z" transform="translate(0.05 0)"></path><path class="cls-9" d="M162.39,217.71a2,2,0,0,1,1,.27,1.9,1.9,0,0,1,.78.76,2.08,2.08,0,0,1,.28,1,2.15,2.15,0,0,1-.27,1,2,2,0,0,1-.77.76,2.08,2.08,0,0,1-2,0,2,2,0,0,1-.77-.76,2.12,2.12,0,0,1,0-2.07,1.88,1.88,0,0,1,.77-.76A2.08,2.08,0,0,1,162.39,217.71Zm17.38,3a4.06,4.06,0,0,1-3,1.17,4.75,4.75,0,0,1-3.22-1.43,3.1,3.1,0,0,1-1.89,1.35,3.54,3.54,0,0,1-2.26-.21,3.62,3.62,0,0,1-1.77-1.63,5.91,5.91,0,0,1-2.68,1.68,7.37,7.37,0,0,1-2.52.23v-4.13a3.59,3.59,0,0,0,2.06-.41,1.94,1.94,0,0,0,.82-1.1,6.76,6.76,0,0,0,.24-1.45,6.94,6.94,0,0,1,.21-1.35,1.72,1.72,0,0,1,.74-1,2,2,0,0,1,1.57-.21,1.63,1.63,0,0,1,1.14,1.07,5.74,5.74,0,0,1,.24,1.73,8.87,8.87,0,0,0,.12,1.45c.21,1,.51,1.44.91,1.26a2.66,2.66,0,0,0,1.1-1.47,6.82,6.82,0,0,0,.56-2.37,2.11,2.11,0,0,1,.88-1.76,1.46,1.46,0,0,1,1.64,0,3.05,3.05,0,0,1,1.08,2.36l0,1.29c0,1.34.24,2,.6,1.9s.78-.69,1.24-1.83a6.12,6.12,0,0,0,.42-2.44,3.26,3.26,0,0,1,.77-2.38,1.65,1.65,0,0,1,1.69-.45,2.42,2.42,0,0,1,1.47,1.6,6.72,6.72,0,0,1,.31,3.07,10,10,0,0,1-.82,3A9,9,0,0,1,179.77,220.68Z" transform="translate(0.05 0)"></path><path class="cls-9" d="M190.15,213.15a16.5,16.5,0,0,1,.09,4.76,11.57,11.57,0,0,1-1.48,4.42,8.46,8.46,0,0,1-3.43,3.24,9.37,9.37,0,0,1-2.15.81,6,6,0,0,1-2.3.12,4.13,4.13,0,0,1-1-.31,1.1,1.1,0,0,1-.7-.75.87.87,0,0,1,.4-.77,4.54,4.54,0,0,1,1-.56,4.75,4.75,0,0,1,.87-.3,6.29,6.29,0,0,0,3-1.83,9,9,0,0,0,1.76-3,7.53,7.53,0,0,0,.27-3.27c0-.44-.08-.87-.14-1.31s-.13-1-.17-1.58a5.31,5.31,0,0,1,0-1,2,2,0,0,1,.3-.93,1.34,1.34,0,0,1,.66-.49,2.87,2.87,0,0,1,.82-.18,3,3,0,0,1,.84,0,1.29,1.29,0,0,1,.74.4,2.41,2.41,0,0,1,.47,1,12.16,12.16,0,0,1,.22,1.22A2.93,2.93,0,0,0,190.15,213.15Z" transform="translate(0.05 0)"></path><path class="cls-9" d="M208.25,217.71a2.19,2.19,0,0,1,1,.26,2,2,0,0,1,.77.77,2.08,2.08,0,0,1,.28,1,2.15,2.15,0,0,1-.27,1,1.94,1.94,0,0,1-.77.76,2,2,0,0,1-1,.27h-2.19a8.73,8.73,0,0,1-4.22,4.91,8.12,8.12,0,0,1-2.16.82,6.6,6.6,0,0,1-2.29.13,4.13,4.13,0,0,1-1-.31,1.13,1.13,0,0,1-.71-.77.86.86,0,0,1,.41-.75,4.32,4.32,0,0,1,1-.56,6.19,6.19,0,0,1,.87-.32,6.48,6.48,0,0,0,3.93-3.18,5.79,5.79,0,0,1-3.2-1,4.79,4.79,0,0,1-1.8-5.6,5.45,5.45,0,0,1,1.69-2.42,5.3,5.3,0,0,1,3-1.17,4.79,4.79,0,0,1,4.14,1.57,5.43,5.43,0,0,1,1.2,3.4,10.27,10.27,0,0,1,0,1.11Zm-5.86,1.17a1.59,1.59,0,0,0,1.58-1,1.88,1.88,0,0,0-.3-1.78,2.34,2.34,0,0,0-2.08-.84,1.81,1.81,0,0,0-1.24.6,1.78,1.78,0,0,0-.4,1.42,1.75,1.75,0,0,0,.85,1.13A2.88,2.88,0,0,0,202.39,218.88Z" transform="translate(0.05 0)"></path><path class="cls-9" d="M208.26,217.71a2.08,2.08,0,0,1,1,.27,1.82,1.82,0,0,1,.77.76,2.09,2.09,0,0,1,.29,1,2.06,2.06,0,0,1-.28,1,1.92,1.92,0,0,1-.76.76,2.12,2.12,0,0,1-1,.27,2,2,0,0,1-1-.27,1.94,1.94,0,0,1-.77-.76,2.12,2.12,0,0,1,0-2.07,1.82,1.82,0,0,1,.77-.76A2.13,2.13,0,0,1,208.26,217.71Zm12.33,0v4.13h-1.25a9.69,9.69,0,0,1-3.8-.7,5.62,5.62,0,0,1-2.88-2.44,4.92,4.92,0,0,1-1.77,2.27,4.63,4.63,0,0,1-2.68.87v-4.13a3.82,3.82,0,0,0,2-.37,2.38,2.38,0,0,0,.92-1,3.21,3.21,0,0,0,.3-1.18,13.14,13.14,0,0,0,0-1.41,11.41,11.41,0,0,1,.07-2.1,1.82,1.82,0,0,1,.9-1.42,1.23,1.23,0,0,1,1.43.16,3.24,3.24,0,0,1,.89,2.27,5.27,5.27,0,0,0,.11.71c0,.33.09.65.12,1a3.91,3.91,0,0,0,.79,1.61,4.45,4.45,0,0,0,1.77,1.24A7.89,7.89,0,0,0,220.59,217.71Zm-9.73-15.09a3.4,3.4,0,0,1,2.48.21,2.7,2.7,0,0,1,1.45,1.68,2.47,2.47,0,0,1-.5,2.24,3.39,3.39,0,0,1-1.72,1.13,3.11,3.11,0,0,1-2.95-.7,2.78,2.78,0,0,1-.89-2.47C208.85,203.78,209.57,203.08,210.86,202.62Zm9.73,15.09a2.1,2.1,0,0,1,1,.27,1.82,1.82,0,0,1,.77.76,2.09,2.09,0,0,1,.29,1,2.16,2.16,0,0,1-.28,1,1.92,1.92,0,0,1-.76.76,2.12,2.12,0,0,1-1,.27,2.17,2.17,0,0,1-1-.27,1.92,1.92,0,0,1-.76-.76,2.26,2.26,0,0,1-.26-1,2.17,2.17,0,0,1,.27-1,1.85,1.85,0,0,1,.76-.76A2.1,2.1,0,0,1,220.59,217.71Z" transform="translate(0.05 0)"></path><path class="cls-9" d="M220.63,217.71h.29a1.62,1.62,0,0,0,1.32-.67,6.05,6.05,0,0,0,.72-1.53c.1-.27.22-.55.34-.83a5.94,5.94,0,0,1,.78-1.6,6.4,6.4,0,0,1,5.29-2.79,6.66,6.66,0,0,1,3.76,1.08,6,6,0,0,1,2.16,2.63,7.13,7.13,0,0,1,.56,3.35,6,6,0,0,1-2.36,4.5,6.88,6.88,0,0,1-4.54,1.26,6.69,6.69,0,0,1-4.32-1.85,6.21,6.21,0,0,1-.82-1,5.63,5.63,0,0,1-2.16,1.38,2.2,2.2,0,0,1-1,.25,2.1,2.1,0,0,1-1-.27,1.92,1.92,0,0,1-.76-.76,2.05,2.05,0,0,1,0-2.07,1.8,1.8,0,0,1,.76-.76A2.1,2.1,0,0,1,220.63,217.71Zm9.09-3.16a3.24,3.24,0,0,0-2,.29,2.23,2.23,0,0,0-1.06,1,2,2,0,0,0,.06,1.44,3.19,3.19,0,0,0,1,1.41,3,3,0,0,0,1.92.67,2.47,2.47,0,0,0,2.37-3.1C231.77,215.42,231,214.84,229.72,214.55Z" transform="translate(0.05 0)"></path></svg>