<svg xmlns="http://www.w3.org/2000/svg" xmlns:xlink="http://www.w3.org/1999/xlink" id="Layer_1" data-name="Layer 1" viewBox="0 0 419.9 361.18"><defs><style>.cls-1,.cls-15,.cls-16,.cls-6{fill:none;}.cls-19,.cls-2{fill:#e10454;}.cls-11,.cls-3,.cls-4,.cls-5,.cls-8{fill:#fff;}.cls-3{opacity:0.7;}.cls-3,.cls-4,.cls-8{isolation:isolate;}.cls-10,.cls-4{opacity:0.5;}.cls-11,.cls-12,.cls-15,.cls-19,.cls-6,.cls-7{stroke:#263238;}.cls-11,.cls-12,.cls-15,.cls-16,.cls-19,.cls-6,.cls-7{stroke-linecap:round;stroke-linejoin:round;}.cls-7{fill:#412e88;}.cls-8{opacity:0.3;}.cls-9{fill:#40208b;}.cls-12{fill:#263238;}.cls-13{clip-path:url(#clip-path);}.cls-14{clip-path:url(#clip-path-2);}.cls-15{stroke-width:2px;}.cls-16{stroke:#fff;}.cls-17{clip-path:url(#clip-path-3);}.cls-18{clip-path:url(#clip-path-4);}</style><clipPath id="clip-path" transform="translate(-11.26 -6.61)"><path class="cls-1" d="M130.14,172.78s.86,14.86.21,18.74,0,4.52-11.41.64-18.31-2.58-22.83,9.05S111.4,286.93,112,289.08s-7.1,21.32-12.7,40.71-8.83,36.4-8.83,36.4H194.32s-3.66-27.14-9.48-43.73-12.49-38.55-12.49-38.55S185.27,221,182.9,206.38s-9-16.59-16.8-16.59a50.14,50.14,0,0,0-15.29,2.8l.65-15.29S132.29,177.73,130.14,172.78Z"></path></clipPath><clipPath id="clip-path-2" transform="translate(-11.26 -6.61)"><path class="cls-1" d="M161.37,190.49s12.92-8.4,20.89-2.59S187,212.24,187,223.66s2.15,35.75.43,44.36-5,12.71-9.48,13.36S168,277.29,168,266.09s-2.15-40.28-2.37-46.1-1.5-14.43-1.5-14.43"></path></clipPath><clipPath id="clip-path-3" transform="translate(-11.26 -6.61)"><path class="cls-1" d="M118.08,194.1a16.55,16.55,0,0,0-12.5-4.52c-7.53.64-14,6.46-15.07,17s21.32,68.49,25.2,73.23,7.32,6.68,13.13,5.17,6-26.92,1.94-38.55-12.27-37.26-12.27-37.26"></path></clipPath><clipPath id="clip-path-4" transform="translate(-11.26 -6.61)"><path class="cls-1" d="M88.14,66.81l14,56.22s5,3.87,24.33-7.54,8.84-18.74,8.84-18.74Z"></path></clipPath></defs><title>مناسبت های ویژه سایت رستوران</title><g id="freepik--background-simple--inject-196"><path class="cls-2" d="M34.74,224.32s9.2,69.83,72.13,110,144,34.3,209.87,31.34,112.37-45.81,114.37-102.83S381.5,195,348,134.12,314.91,52,253.65,19.12s-148.6,1.48-189,74.17S34.74,224.32,34.74,224.32Z" transform="translate(-11.26 -6.61)"></path><path class="cls-3" d="M34.74,224.32s9.2,69.83,72.13,110,144,34.3,209.87,31.34,112.37-45.81,114.37-102.83S381.5,195,348,134.12,314.91,52,253.65,19.12s-148.6,1.48-189,74.17S34.74,224.32,34.74,224.32Z" transform="translate(-11.26 -6.61)"></path></g><g id="freepik--Pictures--inject-196"><rect class="cls-2" x="179.52" y="93.28" width="55.02" height="81.1"></rect><rect class="cls-4" x="179.52" y="93.28" width="55.02" height="81.1"></rect><rect class="cls-5" x="186.16" y="103.07" width="41.74" height="61.52"></rect><rect class="cls-2" x="93.52" y="14.28" width="77.33" height="114"></rect><rect class="cls-4" x="93.52" y="14.28" width="77.33" height="114"></rect><rect class="cls-5" x="102.85" y="28.04" width="58.67" height="86.48"></rect></g><g id="freepik--birthday-ornament--inject-196"><path class="cls-6" d="M16.53,109.23c25.12,6.81,56.36,10,89.45.64,68.55-19.33,111.44-93.11,111.44-93.11" transform="translate(-11.26 -6.61)"></path><polygon class="cls-2" points="78.98 106.13 69.15 134.35 54.52 108.3 78.98 106.13"></polygon><polygon class="cls-7" points="41.24 108.04 25.12 133.2 16.94 104.47 41.24 108.04"></polygon><polygon class="cls-7" points="111.55 96.41 109.04 126.18 88.39 104.58 111.55 96.41"></polygon><polygon class="cls-2" points="142.61 78.97 145.95 108.67 121.49 91.51 142.61 78.97"></polygon><polygon class="cls-7" points="172.74 52.03 183.1 80.06 155.24 69.26 172.74 52.03"></polygon><polygon class="cls-2" points="197.32 21.37 211.99 47.4 182.77 41.16 197.32 21.37"></polygon><path class="cls-6" d="M228.47,16s36.82,75.38,116.73,93.46c21.38,4.84,43.08,4,62.88.49" transform="translate(-11.26 -6.61)"></path><polygon class="cls-2" points="318.73 97.9 296.63 118.01 296.2 88.13 318.73 97.9"></polygon><polygon class="cls-7" points="284.65 81.58 258.49 95.99 265.01 66.84 284.65 81.58"></polygon><polygon class="cls-2" points="250.38 53.65 221.64 61.81 234.56 34.87 250.38 53.65"></polygon><polygon class="cls-7" points="352 104.9 335.58 129.87 327.75 101.03 352 104.9"></polygon><polygon class="cls-2" points="387.61 104.4 376.38 132.09 363.07 105.34 387.61 104.4"></polygon></g><g id="freepik--Balloons--inject-196"><path class="cls-7" d="M391.18,186.07c0,25.13-17,53.93-34.13,53.93s-34.15-28.8-34.15-53.93S339.9,144,357,144,391.18,160.94,391.18,186.07Z" transform="translate(-11.26 -6.61)"></path><path class="cls-8" d="M391.18,186.07c0,25.13-17,53.93-34.13,53.93s-34.15-28.8-34.15-53.93S339.9,144,357,144,391.18,160.94,391.18,186.07Z" transform="translate(-11.26 -6.61)"></path><path class="cls-2" d="M421.33,246.66c-5.17,20.23-24.78,39.91-38.57,36.38s-21.54-30.2-16.37-50.43,22.35-30.39,36.14-26.87S426.51,226.43,421.33,246.66Z" transform="translate(-11.26 -6.61)"></path><path class="cls-4" d="M421.33,246.66c-5.17,20.23-24.78,39.91-38.57,36.38s-21.54-30.2-16.37-50.43,22.35-30.39,36.14-26.87S426.51,226.43,421.33,246.66Z" transform="translate(-11.26 -6.61)"></path><path class="cls-2" d="M353.75,233.18c5.67,20.09-1.42,46.95-15.13,50.82s-33.78-15.33-39.45-35.42,4.09-37.51,17.79-41.37S348.08,213.08,353.75,233.18Z" transform="translate(-11.26 -6.61)"></path><path class="cls-4" d="M353.75,233.18c5.67,20.09-1.42,46.95-15.13,50.82s-33.78-15.33-39.45-35.42,4.09-37.51,17.79-41.37S348.08,213.08,353.75,233.18Z" transform="translate(-11.26 -6.61)"></path><polyline class="cls-6" points="371.5 276.43 345.79 359.72 345.79 233.39"></polyline><line class="cls-6" x1="327.36" y1="277.39" x2="345.79" y2="359.72"></line></g><g id="freepik--Plants--inject-196"><path class="cls-9" d="M75.62,271.34c.06,0-.16-4.67-.21-5-.5-3.35-3.23-9.29-6.57-9.44-2.41-.11-4.36,2.36-4.45,5.06s1.72,5.18,3.45,6.62C69.9,270.31,75.62,271.34,75.62,271.34Z" transform="translate(-11.26 -6.61)"></path><path class="cls-9" d="M67.61,356.87c1.76,3.66,3.21,6.93,4.34,9.59h2.59c-1.26-2.86-3-6.61-5.17-10.89-.78-1.55-1.64-3.17-2.54-4.84a52.45,52.45,0,0,0,3.74-4.43c2.21,1.19,7.09,1.47,7.73,1.5-.13,1.85-.27,3.65-.42,5.34-.48,5.4-1,10-1.5,13.32h2.24c.4-3.39.88-8,1.25-13.34.13-1.88.25-3.88.34-5.94.65-.16,5.92-1.43,8.06-3.13,1.94-1.54,4.1-4.08,4.38-6.84s-1.34-5.07-3.77-4.83c-3.38.34-6.93,6.44-7.9,9.84-.06.2-.48,2.43-.72,3.84,0-.84.08-1.66.11-2.53.06-1.71.08-3.41.11-5.25v-2.67c0-.9-.09-1.83-.13-2.76-.14-2.14-.38-4.28-.65-6.44,1.3-.09,5.9-.49,8-1.7s4.52-3.38,5.16-6.09-.64-5.34-3-5.52c-3.33-.26-7.59,5.25-9,8.49-.08.2-.87,2.63-1.28,4-.17-1.3-.34-2.59-.55-3.88-.62-3.74-1.35-7.49-2.06-11.24-.22-1.14-.43-2.29-.64-3.44.46,0,5.94-.37,8.29-1.72,2.1-1.21,4.53-3.38,5.16-6.1s-.63-5.33-3-5.52c-3.33-.25-7.59,5.25-9,8.49-.1.25-1.23,3.74-1.48,4.64-.46-2.53-.9-5.05-1.24-7.58a89.51,89.51,0,0,1-.84-10.34c.21,0,5.92-.34,8.33-1.73,2.1-1.2,4.53-3.38,5.16-6.09s-.63-5.34-3-5.52c-3.33-.26-7.59,5.25-9,8.49-.09.21-.95,2.87-1.33,4.14h-.19A69.8,69.8,0,0,1,75,277.58c.28-1.94.63-3.8,1-5.59,1.06.06,5.91.3,8.17-.69s4.77-2.81,5.65-5.46-.11-5.45-2.45-5.94c-3.24-.68-8,4.31-9.63,7.39-.09.16-.87,2-1.42,3.28.19-.8.36-1.64.55-2.42.7-2.9,1.5-5.53,2.21-7.85.42-1.32.82-2.51,1.2-3.61,1.13-.57,5.63-2.93,7.33-4.93s3.33-4.92,3.09-7.62-2.29-4.51-4.67-3.67c-3.31,1.16-5.71,7.88-6,11.36v5h.07c-.38,1.06-.79,2.2-1.21,3.45-.76,2.31-1.61,4.94-2.36,7.84a95.49,95.49,0,0,0-2.07,9.46,71.22,71.22,0,0,0-1,10.71v.13c-.28-1.06-1.16-4-1.25-4.18-1.27-3-5.34-7.72-8.69-6.84-2.41.64-3.78,3.56-3.25,6.11s2.89,4.33,5,5.15c2.31.92,7.82.23,8.26.17a87.88,87.88,0,0,0,.66,10.75c.24,2.06.54,4.12.86,6.18-.27-.9-.52-1.7-.57-1.81-1.27-3-5.34-7.71-8.69-6.83-2.41.63-3.77,3.55-3.25,6.11s2.89,4.33,5,5.14,6.78.35,8,.21c.13.78.25,1.57.39,2.36.64,3.78,1.29,7.54,1.83,11.27.19,1.31.34,2.62.49,3.93-.24-.8-.45-1.48-.49-1.57-1.28-3-5.35-7.72-8.7-6.84-2.41.64-3.77,3.56-3.25,6.11s2.9,4.33,5,5.15,6.32.39,7.8.23c.12,1.34.24,2.69.3,4,0,.9.1,1.76.08,2.68s0,1.79,0,2.68c-.06,1.71-.12,3.48-.21,5.15-.06,1.16-.14,2.27-.21,3.39C78.4,345.8,78,343.25,78,343a15.68,15.68,0,0,0-4.27-7,4.92,4.92,0,0,0-.32-.91,3.51,3.51,0,0,0-4.52-2.06,3.59,3.59,0,0,0-1.16.72c-2.85,2.42-3.08,9.45-2.32,12.71,0,.19.74,2.19,1.2,3.44-.37-.68-.72-1.34-1.11-2-.76-1.37-1.56-2.71-2.42-4.15l-1.32-2.06c-.42-.69-1-1.36-1.44-2.05-1.15-1.57-2.38-3.09-3.66-4.59,1.11-.9,5-4.17,6.31-6.46s2.42-5.52,1.68-8-3.13-3.74-5.35-2.35c-3.09,1.94-4.25,9-3.93,12.36,0,.21.49,2.6.76,3.9-.77-.89-1.54-1.78-2.35-2.65-2.35-2.51-4.79-5-7.23-7.42l-2.21-2.26c.4-.32,5.11-4.1,6.56-6.66,1.28-2.28,2.41-5.53,1.67-8s-3.13-3.74-5.35-2.35c-3.09,1.94-4.24,8.95-3.93,12.36,0,.25.7,3.69.91,4.55-1.62-1.67-3.22-3.35-4.74-5.09a69.37,69.37,0,0,1-5.72-7.5c.19-.15,5.12-4.07,6.6-6.69,1.29-2.28,2.42-5.53,1.68-8.05s-3.13-3.73-5.35-2.34c-3.09,1.93-4.24,8.94-3.93,12.35,0,.23.53,2.85.8,4.08l-.17.11A53.82,53.82,0,0,1,29,300.22c-.69-1.69-1.26-3.36-1.78-5,1-.63,5.4-3.55,6.95-5.77s2.9-5.25,2.41-7.87-2.71-4.16-5-3c-3.22,1.55-5,8.45-5,11.91,0,.19.17,2.09.32,3.47-.23-.75-.47-1.51-.67-2.24-.77-2.7-1.33-5.26-1.8-7.52-.26-1.3-.48-2.47-.66-3.58.72-1.16,3.61-5.88,4.16-8.52s.6-6-.9-7.91a3.63,3.63,0,0,0-5.93.14c-2.38,3-1.31,9.79.07,12.71.11.26,2.39,3.91,2.43,3.85v-.07c.16,1.07.35,2.21.57,3.46.44,2.28.94,4.86,1.66,7.61a82.22,82.22,0,0,0,2.7,8.68,55.46,55.46,0,0,0,4.22,9l.07.1c-.76-.64-2.94-2.34-3.12-2.45-2.57-1.5-8.46-2.57-11,.26a5.07,5.07,0,0,0,0,6.84c1.72,1.68,4.65,1.51,6.88.82,2.5-.77,7.07-4.83,7.44-5.16a67.77,67.77,0,0,0,5.74,7.93c1.2,1.45,2.46,2.86,3.74,4.26-.68-.53-1.28-1-1.38-1.05-2.57-1.51-8.46-2.57-11,.26a5,5,0,0,0,0,6.83c1.72,1.69,4.65,1.52,6.87.83s6.21-4.07,7.25-5l1.47,1.59c2.39,2.52,4.78,5,7,7.58.81.9,1.56,1.82,2.32,2.74-.6-.47-1.11-.86-1.19-.91-2.57-1.5-8.46-2.56-11,.27a5.06,5.06,0,0,0,0,6.83c1.73,1.68,4.66,1.51,6.88.83s5.82-3.75,7.06-4.83c.75,1,1.5,1.95,2.19,2.93.45.69.93,1.31,1.35,2l1.28,2.09c.77,1.37,1.57,2.78,2.28,4.14.51.94,1,1.85,1.45,2.76-.79-.9-2.37-2.63-2.51-2.76-2.31-2-7.9-4.07-10.76-1.68a5.24,5.24,0,0,0-.87,6.87c1.46,2,4.33,2.33,6.58,2,2.48-.33,7.28-3.45,7.88-3.84C66.19,354,66.9,355.49,67.61,356.87Z" transform="translate(-11.26 -6.61)"></path><path class="cls-9" d="M18.13,297.61c2.63,0,8.23-2.87,8.24-2.88S24,291.21,23.8,291c-2.06-2.28-7.34-5.14-10.39-3.12a5.31,5.31,0,0,0-1.51,6.78C13.1,296.88,15.9,297.6,18.13,297.61Z" transform="translate(-11.26 -6.61)"></path><g class="cls-10"><path class="cls-5" d="M75.62,271.34c.06,0-.16-4.67-.21-5-.5-3.35-3.23-9.29-6.57-9.44-2.41-.11-4.36,2.36-4.45,5.06s1.72,5.18,3.45,6.62C69.9,270.31,75.62,271.34,75.62,271.34Z" transform="translate(-11.26 -6.61)"></path><path class="cls-5" d="M67.61,356.87c1.76,3.66,3.21,6.93,4.34,9.59h2.59c-1.26-2.86-3-6.61-5.17-10.89-.78-1.55-1.64-3.17-2.54-4.84a52.45,52.45,0,0,0,3.74-4.43c2.21,1.19,7.09,1.47,7.73,1.5-.13,1.85-.27,3.65-.42,5.34-.48,5.4-1,10-1.5,13.32h2.24c.4-3.39.88-8,1.25-13.34.13-1.88.25-3.88.34-5.94.65-.16,5.92-1.43,8.06-3.13,1.94-1.54,4.1-4.08,4.38-6.84s-1.34-5.07-3.77-4.83c-3.38.34-6.93,6.44-7.9,9.84-.06.2-.48,2.43-.72,3.84,0-.84.08-1.66.11-2.53.06-1.71.08-3.41.11-5.25v-2.67c0-.9-.09-1.83-.13-2.76-.14-2.14-.38-4.28-.65-6.44,1.3-.09,5.9-.49,8-1.7s4.52-3.38,5.16-6.09-.64-5.34-3-5.52c-3.33-.26-7.59,5.25-9,8.49-.08.2-.87,2.63-1.28,4-.17-1.3-.34-2.59-.55-3.88-.62-3.74-1.35-7.49-2.06-11.24-.22-1.14-.43-2.29-.64-3.44.46,0,5.94-.37,8.29-1.72,2.1-1.21,4.53-3.38,5.16-6.1s-.63-5.33-3-5.52c-3.33-.25-7.59,5.25-9,8.49-.1.25-1.23,3.74-1.48,4.64-.46-2.53-.9-5.05-1.24-7.58a89.51,89.51,0,0,1-.84-10.34c.21,0,5.92-.34,8.33-1.73,2.1-1.2,4.53-3.38,5.16-6.09s-.63-5.34-3-5.52c-3.33-.26-7.59,5.25-9,8.49-.09.21-.95,2.87-1.33,4.14h-.19A69.8,69.8,0,0,1,75,277.58c.28-1.94.63-3.8,1-5.59,1.06.06,5.91.3,8.17-.69s4.77-2.81,5.65-5.46-.11-5.45-2.45-5.94c-3.24-.68-8,4.31-9.63,7.39-.09.16-.87,2-1.42,3.28.19-.8.36-1.64.55-2.42.7-2.9,1.5-5.53,2.21-7.85.42-1.32.82-2.51,1.2-3.61,1.13-.57,5.63-2.93,7.33-4.93s3.33-4.92,3.09-7.62-2.29-4.51-4.67-3.67c-3.31,1.16-5.71,7.88-6,11.36v5h.07c-.38,1.06-.79,2.2-1.21,3.45-.76,2.31-1.61,4.94-2.36,7.84a95.49,95.49,0,0,0-2.07,9.46,71.22,71.22,0,0,0-1,10.71v.13c-.28-1.06-1.16-4-1.25-4.18-1.27-3-5.34-7.72-8.69-6.84-2.41.64-3.78,3.56-3.25,6.11s2.89,4.33,5,5.15c2.31.92,7.82.23,8.26.17a87.88,87.88,0,0,0,.66,10.75c.24,2.06.54,4.12.86,6.18-.27-.9-.52-1.7-.57-1.81-1.27-3-5.34-7.71-8.69-6.83-2.41.63-3.77,3.55-3.25,6.11s2.89,4.33,5,5.14,6.78.35,8,.21c.13.78.25,1.57.39,2.36.64,3.78,1.29,7.54,1.83,11.27.19,1.31.34,2.62.49,3.93-.24-.8-.45-1.48-.49-1.57-1.28-3-5.35-7.72-8.7-6.84-2.41.64-3.77,3.56-3.25,6.11s2.9,4.33,5,5.15,6.32.39,7.8.23c.12,1.34.24,2.69.3,4,0,.9.1,1.76.08,2.68s0,1.79,0,2.68c-.06,1.71-.12,3.48-.21,5.15-.06,1.16-.14,2.27-.21,3.39C78.4,345.8,78,343.25,78,343a15.68,15.68,0,0,0-4.27-7,4.92,4.92,0,0,0-.32-.91,3.51,3.51,0,0,0-4.52-2.06,3.59,3.59,0,0,0-1.16.72c-2.85,2.42-3.08,9.45-2.32,12.71,0,.19.74,2.19,1.2,3.44-.37-.68-.72-1.34-1.11-2-.76-1.37-1.56-2.71-2.42-4.15l-1.32-2.06c-.42-.69-1-1.36-1.44-2.05-1.15-1.57-2.38-3.09-3.66-4.59,1.11-.9,5-4.17,6.31-6.46s2.42-5.52,1.68-8-3.13-3.74-5.35-2.35c-3.09,1.94-4.25,9-3.93,12.36,0,.21.49,2.6.76,3.9-.77-.89-1.54-1.78-2.35-2.65-2.35-2.51-4.79-5-7.23-7.42l-2.21-2.26c.4-.32,5.11-4.1,6.56-6.66,1.28-2.28,2.41-5.53,1.67-8s-3.13-3.74-5.35-2.35c-3.09,1.94-4.24,8.95-3.93,12.36,0,.25.7,3.69.91,4.55-1.62-1.67-3.22-3.35-4.74-5.09a69.37,69.37,0,0,1-5.72-7.5c.19-.15,5.12-4.07,6.6-6.69,1.29-2.28,2.42-5.53,1.68-8.05s-3.13-3.73-5.35-2.34c-3.09,1.93-4.24,8.94-3.93,12.35,0,.23.53,2.85.8,4.08l-.17.11A53.82,53.82,0,0,1,29,300.22c-.69-1.69-1.26-3.36-1.78-5,1-.63,5.4-3.55,6.95-5.77s2.9-5.25,2.41-7.87-2.71-4.16-5-3c-3.22,1.55-5,8.45-5,11.91,0,.19.17,2.09.32,3.47-.23-.75-.47-1.51-.67-2.24-.77-2.7-1.33-5.26-1.8-7.52-.26-1.3-.48-2.47-.66-3.58.72-1.16,3.61-5.88,4.16-8.52s.6-6-.9-7.91a3.63,3.63,0,0,0-5.93.14c-2.38,3-1.31,9.79.07,12.71.11.26,2.39,3.91,2.43,3.85v-.07c.16,1.07.35,2.21.57,3.46.44,2.28.94,4.86,1.66,7.61a82.22,82.22,0,0,0,2.7,8.68,55.46,55.46,0,0,0,4.22,9l.07.1c-.76-.64-2.94-2.34-3.12-2.45-2.57-1.5-8.46-2.57-11,.26a5.07,5.07,0,0,0,0,6.84c1.72,1.68,4.65,1.51,6.88.82,2.5-.77,7.07-4.83,7.44-5.16a67.77,67.77,0,0,0,5.74,7.93c1.2,1.45,2.46,2.86,3.74,4.26-.68-.53-1.28-1-1.38-1.05-2.57-1.51-8.46-2.57-11,.26a5,5,0,0,0,0,6.83c1.72,1.69,4.65,1.52,6.87.83s6.21-4.07,7.25-5l1.47,1.59c2.39,2.52,4.78,5,7,7.58.81.9,1.56,1.82,2.32,2.74-.6-.47-1.11-.86-1.19-.91-2.57-1.5-8.46-2.56-11,.27a5.06,5.06,0,0,0,0,6.83c1.73,1.68,4.66,1.51,6.88.83s5.82-3.75,7.06-4.83c.75,1,1.5,1.95,2.19,2.93.45.69.93,1.31,1.35,2l1.28,2.09c.77,1.37,1.57,2.78,2.28,4.14.51.94,1,1.85,1.45,2.76-.79-.9-2.37-2.63-2.51-2.76-2.31-2-7.9-4.07-10.76-1.68a5.24,5.24,0,0,0-.87,6.87c1.46,2,4.33,2.33,6.58,2,2.48-.33,7.28-3.45,7.88-3.84C66.19,354,66.9,355.49,67.61,356.87Z" transform="translate(-11.26 -6.61)"></path><path class="cls-5" d="M18.13,297.61c2.63,0,8.23-2.87,8.24-2.88S24,291.21,23.8,291c-2.06-2.28-7.34-5.14-10.39-3.12a5.31,5.31,0,0,0-1.51,6.78C13.1,296.88,15.9,297.6,18.13,297.61Z" transform="translate(-11.26 -6.61)"></path></g></g><g id="freepik--Cake--inject-196"><path class="cls-11" d="M259.36,347.66s5.17,3.23,4.09,15.08h9.45s-1-9.91,4.55-15.25Z" transform="translate(-11.26 -6.61)"></path><rect class="cls-11" x="235.83" y="355.27" width="42.18" height="4.74"></rect><path class="cls-11" d="M244.63,218.49s-3.93,22.31-.93,39.19h3.56A195.57,195.57,0,0,0,244.63,218.49Z" transform="translate(-11.26 -6.61)"></path><path class="cls-2" d="M244.63,218.49s-3.74-3-2.24-6.75a35.13,35.13,0,0,1,3.18-6.19s.56,3.94,1.31,7.32S244.63,218.49,244.63,218.49Z" transform="translate(-11.26 -6.61)"></path><path class="cls-11" d="M256.63,218.49s-3.93,22.31-.93,39.19h3.56A195.57,195.57,0,0,0,256.63,218.49Z" transform="translate(-11.26 -6.61)"></path><path class="cls-2" d="M256.63,218.49s-3.75-3-2.25-6.75a34.18,34.18,0,0,1,3.19-6.19s.56,3.94,1.31,7.32S256.63,218.49,256.63,218.49Z" transform="translate(-11.26 -6.61)"></path><path class="cls-11" d="M268.63,218.49s-3.93,22.31-.93,39.19h3.56A195.57,195.57,0,0,0,268.63,218.49Z" transform="translate(-11.26 -6.61)"></path><path class="cls-2" d="M268.63,218.49s-3.75-3-2.25-6.75a34.18,34.18,0,0,1,3.19-6.19s.56,3.94,1.31,7.32S268.63,218.49,268.63,218.49Z" transform="translate(-11.26 -6.61)"></path><path class="cls-11" d="M280.63,218.49s-3.93,22.31-.94,39.19h3.57A197.06,197.06,0,0,0,280.63,218.49Z" transform="translate(-11.26 -6.61)"></path><path class="cls-2" d="M280.63,218.49s-3.75-3-2.25-6.75a34.18,34.18,0,0,1,3.19-6.19s.56,3.94,1.31,7.32S280.63,218.49,280.63,218.49Z" transform="translate(-11.26 -6.61)"></path><path class="cls-11" d="M292.63,218.49s-3.94,22.31-.94,39.19h3.57A197.06,197.06,0,0,0,292.63,218.49Z" transform="translate(-11.26 -6.61)"></path><path class="cls-2" d="M292.63,218.49s-3.75-3-2.25-6.75a34.18,34.18,0,0,1,3.19-6.19s.56,3.94,1.31,7.32S292.63,218.49,292.63,218.49Z" transform="translate(-11.26 -6.61)"></path><path class="cls-7" d="M235.58,253.54H301.9a4.33,4.33,0,0,1,4.33,4.33v32.28h-75V257.87a4.33,4.33,0,0,1,4.33-4.33Z" transform="translate(-11.26 -6.61)"></path><path class="cls-12" d="M300.9,253.54H236.52a5.27,5.27,0,0,0-5.26,5.26h0v14.76h1a6.87,6.87,0,0,0,6.87-6.86v-.14a4.63,4.63,0,0,1,9.26,0v6a3.77,3.77,0,1,0,7.54,0h0v-9.36a2.37,2.37,0,0,1,2.37-2.37h3.87a2.37,2.37,0,0,1,2.37,2.37,5,5,0,0,0,9.91,0v-1.08a2.37,2.37,0,0,1,4.74,0h0v5.92a4.85,4.85,0,1,0,9.69.44,3.23,3.23,0,0,0,0-.44v-3.77h4.41a2.27,2.27,0,0,0,2.27-2.26,2.26,2.26,0,0,1,2.26-2.26h0a2.9,2.9,0,0,1,2.9,2.9h0v4.05a4.89,4.89,0,0,0,4.89,4.89h.61v-12.8a5.27,5.27,0,0,0-5.27-5.27Z" transform="translate(-11.26 -6.61)"></path><circle class="cls-11" cx="258.61" cy="270.97" r="2.9"></circle><path class="cls-11" d="M254.55,258.94a2.9,2.9,0,1,0-2.9,2.9h0A2.9,2.9,0,0,0,254.55,258.94Z" transform="translate(-11.26 -6.61)"></path><circle class="cls-11" cx="288.03" cy="270.14" r="2.07"></circle><circle class="cls-11" cx="270.51" cy="251.03" r="2.07"></circle><path class="cls-11" d="M241.7,280.49a2.07,2.07,0,1,0-2.07,2.07,2.07,2.07,0,0,0,2.07-2.07Z" transform="translate(-11.26 -6.61)"></path><circle class="cls-11" cx="288.86" cy="257.71" r="2.07"></circle><circle class="cls-11" cx="237.07" cy="263.1" r="2.07"></circle><path class="cls-7" d="M220.66,288H316.8a6.74,6.74,0,0,1,6.74,6.74v50.55H213.9V294.75a6.75,6.75,0,0,1,6.73-6.75Z" transform="translate(-11.26 -6.61)"></path><path class="cls-12" d="M315.34,288H222.12a8.21,8.21,0,0,0-8.2,8.21V322.9h2.6a5.38,5.38,0,0,0,5.38-5.38V307.06a2.26,2.26,0,0,1,4.52,0h0v3.43a4.63,4.63,0,1,0,9.26,0v-5.71a5,5,0,0,1,5-4.95h0a5,5,0,0,1,5,4.95v13a4.85,4.85,0,1,0,9.69.44,3.23,3.23,0,0,0,0-.44V304.49a.76.76,0,0,1,.75-.75h0a7,7,0,0,0,7-7,1.83,1.83,0,0,1,1.83-1.83h4.91a4.89,4.89,0,0,1,4.89,4.89h0v5.69a3.24,3.24,0,0,0,6.47,0v-1.14a4.89,4.89,0,0,1,4.89-4.89h.72a6.45,6.45,0,0,1,6.45,6.45h0v7.87a3.12,3.12,0,0,0,6.24,0v-6.57a5.17,5.17,0,1,1,10.34,0v14.18a2.8,2.8,0,1,0,5.6,0v-8.9a6.62,6.62,0,0,1,6.6-6.6h1.58v-9.67a8.21,8.21,0,0,0-8.2-8.22Z" transform="translate(-11.26 -6.61)"></path><path class="cls-11" d="M229.69,329a2.9,2.9,0,1,0-2.9,2.9h0A2.9,2.9,0,0,0,229.69,329Z" transform="translate(-11.26 -6.61)"></path><path class="cls-11" d="M251.23,308.65a2.9,2.9,0,1,0-2.9,2.9h0A2.9,2.9,0,0,0,251.23,308.65Z" transform="translate(-11.26 -6.61)"></path><circle class="cls-11" cx="268.56" cy="318.2" r="2.9"></circle><circle class="cls-11" cx="308.33" cy="297.07" r="2.9"></circle><path class="cls-11" d="M260.76,330.61a2.07,2.07,0,1,0-2.07,2.07,2.07,2.07,0,0,0,2.07-2.07Z" transform="translate(-11.26 -6.61)"></path><path class="cls-11" d="M234.24,306.58a2.07,2.07,0,1,0-2.07,2.07,2.07,2.07,0,0,0,2.07-2.07Z" transform="translate(-11.26 -6.61)"></path><circle class="cls-11" cx="232.51" cy="319.03" r="2.07"></circle><path class="cls-11" d="M274.9,308.24a2.08,2.08,0,1,0-2.09,2.07h0a2.07,2.07,0,0,0,2.07-2.07Z" transform="translate(-11.26 -6.61)"></path><circle class="cls-11" cx="278.09" cy="327.73" r="2.07"></circle><path class="cls-11" d="M306.33,330.2a2.07,2.07,0,1,0-2.07,2.07,2.07,2.07,0,0,0,2.07-2.07Z" transform="translate(-11.26 -6.61)"></path><path class="cls-11" d="M261.59,295a2.07,2.07,0,1,0-2.07,2.07,2.07,2.07,0,0,0,2.07-2.07Z" transform="translate(-11.26 -6.61)"></path><circle class="cls-11" cx="285.96" cy="290.86" r="2.07"></circle><rect class="cls-11" x="196.84" y="336.1" width="119.32" height="5.82"></rect></g><g id="freepik--Character--inject-196"><path class="cls-12" d="M110.75,146.49s.43,23-2.37,29.08a59.57,59.57,0,0,1-3.87,7.54,7.07,7.07,0,0,0-8.83-2.37c-5.82,2.37-13.79,9.47-11.2,22.4s20.89,22.61,44.79,25.41,41.14-19.38,42.65-29.51-5.39-42.64-7.32-59-20.25-25.41-34.46-24.77S110.75,146.49,110.75,146.49Z" transform="translate(-11.26 -6.61)"></path><path class="cls-2" d="M130.14,172.78s.86,14.86.21,18.74,0,4.52-11.41.64-18.31-2.58-22.83,9.05S111.4,286.93,112,289.08s-7.1,21.32-12.7,40.71-8.83,36.4-8.83,36.4H194.32s-3.66-27.14-9.48-43.73-12.49-38.55-12.49-38.55S185.27,221,182.9,206.38s-9-16.59-16.8-16.59a50.14,50.14,0,0,0-15.29,2.8l.65-15.29S132.29,177.73,130.14,172.78Z" transform="translate(-11.26 -6.61)"></path><g class="cls-13"><path class="cls-5" d="M190.78,347.89a1.22,1.22,0,0,0,.46-.09c-.16-.83-.32-1.66-.5-2.51a1.3,1.3,0,1,0,0,2.6h0Z" transform="translate(-11.26 -6.61)"></path><path class="cls-5" d="M190.78,353.57a1.31,1.31,0,1,0,1.31,1.31h0A1.31,1.31,0,0,0,190.78,353.57Z" transform="translate(-11.26 -6.61)"></path><path class="cls-5" d="M192.11,352.49c-.22-1.22-.46-2.49-.7-3.79a2.17,2.17,0,1,0,.7,3.79Z" transform="translate(-11.26 -6.61)"></path><circle class="cls-5" cx="176.59" cy="347.05" r="1.3"></circle><circle class="cls-5" cx="175.38" cy="344.12" r="1.3"></circle><path class="cls-5" d="M188.78,348.73a1.31,1.31,0,1,0-1.85,0h0A1.33,1.33,0,0,0,188.78,348.73Z" transform="translate(-11.26 -6.61)"></path><path class="cls-5" d="M165,189.82c-.67,0-1.34.06-2,.12a1.26,1.26,0,0,0,1.79.11A.93.93,0,0,0,165,189.82Z" transform="translate(-11.26 -6.61)"></path><path class="cls-5" d="M161.71,190.06c-1.21.15-2.37.34-3.47.55a2.22,2.22,0,0,0,1.54.63A2.17,2.17,0,0,0,161.71,190.06Z" transform="translate(-11.26 -6.61)"></path><path class="cls-5" d="M157.78,192.92a1.31,1.31,0,0,0,0-1.85,1.37,1.37,0,0,0-.44-.28c-.5.1-1,.21-1.43.32a1.3,1.3,0,0,0,1.87,1.81Z" transform="translate(-11.26 -6.61)"></path><path class="cls-5" d="M161.79,192.92a1.31,1.31,0,0,0,1.85-1.85,1.33,1.33,0,0,0-1.85,0A1.31,1.31,0,0,0,161.79,192.92Z" transform="translate(-11.26 -6.61)"></path><path class="cls-5" d="M159.78,194.49a1.31,1.31,0,0,0,.23-2.61h-.23a1.31,1.31,0,0,0,0,2.61Z" transform="translate(-11.26 -6.61)"></path><circle class="cls-5" cx="145.59" cy="217.72" r="1.3"></circle><path class="cls-5" d="M163.64,219.39a1.3,1.3,0,1,0-1.85,0,1.3,1.3,0,0,0,1.85,0Z" transform="translate(-11.26 -6.61)"></path><path class="cls-5" d="M163.9,220.1a1.3,1.3,0,1,0,1.3,1.3h0A1.3,1.3,0,0,0,163.9,220.1Z" transform="translate(-11.26 -6.61)"></path><path class="cls-5" d="M159.78,226.85a1.31,1.31,0,1,0-1.3-1.32h0A1.31,1.31,0,0,0,159.78,226.85Z" transform="translate(-11.26 -6.61)"></path><path class="cls-5" d="M163.64,223.41a1.3,1.3,0,0,0-1.84,0,1.32,1.32,0,0,0,0,1.84,1.3,1.3,0,0,0,1.84,0A1.32,1.32,0,0,0,163.64,223.41Z" transform="translate(-11.26 -6.61)"></path><path class="cls-5" d="M159.78,219.22A2.18,2.18,0,1,0,162,221.4h0A2.18,2.18,0,0,0,159.78,219.22Z" transform="translate(-11.26 -6.61)"></path><circle class="cls-5" cx="144.38" cy="214.79" r="1.3"></circle><path class="cls-5" d="M159.78,218.56a1.31,1.31,0,1,0-1.3-1.32v0A1.32,1.32,0,0,0,159.78,218.56Z" transform="translate(-11.26 -6.61)"></path><path class="cls-5" d="M157.78,219.39a1.3,1.3,0,1,0-1.85,0,1.3,1.3,0,0,0,1.85,0Z" transform="translate(-11.26 -6.61)"></path><path class="cls-5" d="M177.8,205.56a2.18,2.18,0,1,0-2.18-2.18h0a2.17,2.17,0,0,0,2.17,2.17Z" transform="translate(-11.26 -6.61)"></path><path class="cls-5" d="M175.79,201.38a1.31,1.31,0,1,0-1.85,0h0A1.31,1.31,0,0,0,175.79,201.38Z" transform="translate(-11.26 -6.61)"></path><path class="cls-5" d="M177.8,208.84a1.31,1.31,0,1,0-1.31-1.31h0A1.31,1.31,0,0,0,177.8,208.84Z" transform="translate(-11.26 -6.61)"></path><path class="cls-5" d="M175.79,207.24a1.31,1.31,0,0,0,0-1.85,1.33,1.33,0,0,0-1.85,0,1.31,1.31,0,1,0,1.75,2Z" transform="translate(-11.26 -6.61)"></path><path class="cls-5" d="M181.65,205.39a1.3,1.3,0,0,0-1.84,1.85,1.3,1.3,0,1,0,1.84-1.85Z" transform="translate(-11.26 -6.61)"></path><path class="cls-5" d="M173.65,204.69a1.31,1.31,0,1,0-1.3-1.32v0A1.32,1.32,0,0,0,173.65,204.69Z" transform="translate(-11.26 -6.61)"></path><path class="cls-5" d="M181.65,201.38l.1-.15c-.22-.71-.45-1.38-.69-2a1.28,1.28,0,0,0-1.25.31,1.3,1.3,0,0,0,1.84,1.85h0Z" transform="translate(-11.26 -6.61)"></path><path class="cls-5" d="M177.8,200.55a1.31,1.31,0,1,0-1.31-1.31h0A1.31,1.31,0,0,0,177.8,200.55Z" transform="translate(-11.26 -6.61)"></path><path class="cls-5" d="M180.64,203.39a1.3,1.3,0,0,0,1.3,1.3,1.15,1.15,0,0,0,.62-.18c-.17-.85-.36-1.66-.57-2.42h-.09A1.32,1.32,0,0,0,180.64,203.39Z" transform="translate(-11.26 -6.61)"></path><path class="cls-5" d="M163.64,255.74a1.31,1.31,0,1,0,0,1.85h0A1.31,1.31,0,0,0,163.64,255.74Z" transform="translate(-11.26 -6.61)"></path><path class="cls-5" d="M159.78,259.18a1.31,1.31,0,1,0-1.3-1.32v0A1.32,1.32,0,0,0,159.78,259.18Z" transform="translate(-11.26 -6.61)"></path><circle class="cls-5" cx="155.66" cy="253.76" r="1.3" transform="translate(-110.29 401.29) rotate(-89.66)"></circle><path class="cls-5" d="M163.64,251.73a1.31,1.31,0,1,0-1.85,0h0A1.33,1.33,0,0,0,163.64,251.73Z" transform="translate(-11.26 -6.61)"></path><path class="cls-5" d="M157.78,257.59a1.31,1.31,0,1,0-1.85,0h0A1.31,1.31,0,0,0,157.78,257.59Z" transform="translate(-11.26 -6.61)"></path><path class="cls-5" d="M163.9,252.43a1.31,1.31,0,1,0,1.3,1.32v0A1.3,1.3,0,0,0,163.9,252.43Z" transform="translate(-11.26 -6.61)"></path><circle class="cls-5" cx="145.59" cy="244.19" r="1.3"></circle><path class="cls-5" d="M159.78,251.56a2.18,2.18,0,1,0,2.18,2.18h0a2.17,2.17,0,0,0-2.17-2.17Z" transform="translate(-11.26 -6.61)"></path><path class="cls-5" d="M159.78,250.89a1.31,1.31,0,1,0-1.3-1.32v0A1.32,1.32,0,0,0,159.78,250.89Z" transform="translate(-11.26 -6.61)"></path><path class="cls-5" d="M181.39,231.7a1.27,1.27,0,0,0-1.58.17,1.3,1.3,0,0,0,0,1.84h0a1.29,1.29,0,0,0,1.27.32C181.19,233.24,181.29,232.49,181.39,231.7Z" transform="translate(-11.26 -6.61)"></path><path class="cls-5" d="M180.76,236.26c.07-.46.13-.91.2-1.37a1.32,1.32,0,0,0-.32.83A1.63,1.63,0,0,0,180.76,236.26Z" transform="translate(-11.26 -6.61)"></path><path class="cls-5" d="M179.81,239.57a1.37,1.37,0,0,0,.42.29c.13-.83.25-1.66.37-2.49a1.23,1.23,0,0,0-.79.36,1.3,1.3,0,0,0,0,1.84Z" transform="translate(-11.26 -6.61)"></path><path class="cls-5" d="M173.9,237.73a1.3,1.3,0,1,0,1.85,0,1.31,1.31,0,0,0-1.85,0Z" transform="translate(-11.26 -6.61)"></path><path class="cls-5" d="M177.8,237.9a2.18,2.18,0,1,0-2.18-2.18h0A2.19,2.19,0,0,0,177.8,237.9Z" transform="translate(-11.26 -6.61)"></path><path class="cls-5" d="M177.8,238.56a1.31,1.31,0,1,0,1.3,1.32v0A1.3,1.3,0,0,0,177.8,238.56Z" transform="translate(-11.26 -6.61)"></path><path class="cls-5" d="M173.65,237a1.3,1.3,0,1,0-1.3-1.3h0A1.32,1.32,0,0,0,173.65,237Z" transform="translate(-11.26 -6.61)"></path><path class="cls-5" d="M177.8,232.88a1.31,1.31,0,1,0-1.31-1.31h0a1.3,1.3,0,0,0,1.3,1.3Z" transform="translate(-11.26 -6.61)"></path><path class="cls-5" d="M173.9,233.71a1.3,1.3,0,1,0,0-1.84A1.32,1.32,0,0,0,173.9,233.71Z" transform="translate(-11.26 -6.61)"></path><path class="cls-5" d="M163.9,284.76a1.31,1.31,0,1,0-.23,2.61h.23a1.31,1.31,0,0,0,0-2.61Z" transform="translate(-11.26 -6.61)"></path><path class="cls-5" d="M159.78,291.49a1.31,1.31,0,0,0,.23-2.61h-.23a1.31,1.31,0,0,0,0,2.61Z" transform="translate(-11.26 -6.61)"></path><path class="cls-5" d="M163.64,284.06a1.31,1.31,0,1,0-1.85,0h0A1.31,1.31,0,0,0,163.64,284.06Z" transform="translate(-11.26 -6.61)"></path><path class="cls-5" d="M159.78,283.23a1.31,1.31,0,0,0,.23-2.61h-.23a1.31,1.31,0,0,0,0,2.61Z" transform="translate(-11.26 -6.61)"></path><circle class="cls-5" cx="145.59" cy="276.53" r="1.3"></circle><circle class="cls-5" cx="145.59" cy="282.39" r="1.3"></circle><circle class="cls-5" cx="155.66" cy="286.09" r="1.3" transform="translate(-142.62 433.43) rotate(-89.66)"></circle><path class="cls-5" d="M159.78,283.89a2.18,2.18,0,1,0,2.18,2.18h0a2.17,2.17,0,0,0-2.16-2.18Z" transform="translate(-11.26 -6.61)"></path><path class="cls-5" d="M163.64,288.07a1.33,1.33,0,0,0-1.85,0,1.31,1.31,0,1,0,1.85,0Z" transform="translate(-11.26 -6.61)"></path><path class="cls-5" d="M173.9,266.05a1.33,1.33,0,0,0,1.85,0h0c.08-.46.17-.93.25-1.41a1.22,1.22,0,0,0-.27-.41,1.31,1.31,0,0,0-1.95,1.75l.1.1Z" transform="translate(-11.26 -6.61)"></path><path class="cls-5" d="M174.64,272.24c.15-.8.31-1.64.48-2.51a1.28,1.28,0,1,0-.48,2.51Z" transform="translate(-11.26 -6.61)"></path><path class="cls-5" d="M173.65,269.36a1.31,1.31,0,0,0,.23-2.61h-.23a1.31,1.31,0,0,0,0,2.61Z" transform="translate(-11.26 -6.61)"></path><path class="cls-5" d="M159.78,316.22A2.18,2.18,0,1,0,162,318.4h0A2.18,2.18,0,0,0,159.78,316.22Z" transform="translate(-11.26 -6.61)"></path><path class="cls-5" d="M163.64,316.39a1.3,1.3,0,1,0-1.85,0,1.3,1.3,0,0,0,1.85,0Z" transform="translate(-11.26 -6.61)"></path><path class="cls-5" d="M159.78,315.56a1.31,1.31,0,1,0-1.3-1.32v0A1.32,1.32,0,0,0,159.78,315.56Z" transform="translate(-11.26 -6.61)"></path><path class="cls-5" d="M155.9,316.39a1.3,1.3,0,1,0,0-1.84A1.32,1.32,0,0,0,155.9,316.39Z" transform="translate(-11.26 -6.61)"></path><circle class="cls-5" cx="155.65" cy="318.43" r="1.3" transform="translate(-174.96 465.58) rotate(-89.66)"></circle><circle class="cls-5" cx="145.59" cy="314.72" r="1.3"></circle><path class="cls-5" d="M163.64,320.41a1.3,1.3,0,0,0-1.84,0,1.32,1.32,0,0,0,0,1.84,1.3,1.3,0,0,0,1.84,0A1.32,1.32,0,0,0,163.64,320.41Z" transform="translate(-11.26 -6.61)"></path><path class="cls-5" d="M159.78,321.24a1.31,1.31,0,1,0,1.31,1.31h0a1.3,1.3,0,0,0-1.3-1.3Z" transform="translate(-11.26 -6.61)"></path><path class="cls-5" d="M163.9,317.09a1.31,1.31,0,1,0-.23,2.61h.23a1.31,1.31,0,0,0,0-2.61Z" transform="translate(-11.26 -6.61)"></path><path class="cls-5" d="M177.8,305.84a1.3,1.3,0,0,0,1.2-.8l-.51-1.59a1.28,1.28,0,0,0-.69-.22,1.31,1.31,0,0,0-.23,2.61A.88.88,0,0,0,177.8,305.84Z" transform="translate(-11.26 -6.61)"></path><path class="cls-5" d="M177.8,302.56h.39l-1.31-4.1a2.17,2.17,0,0,0,.92,4.14Z" transform="translate(-11.26 -6.61)"></path><path class="cls-5" d="M173.65,301.69a1.31,1.31,0,1,0-1.3-1.32v0A1.32,1.32,0,0,0,173.65,301.69Z" transform="translate(-11.26 -6.61)"></path><path class="cls-5" d="M173.9,298.38a1.31,1.31,0,1,0,0-1.85h0A1.31,1.31,0,0,0,173.9,298.38Z" transform="translate(-11.26 -6.61)"></path><path class="cls-5" d="M173.9,302.39a1.31,1.31,0,1,0,1.85,0h0A1.33,1.33,0,0,0,173.9,302.39Z" transform="translate(-11.26 -6.61)"></path><path class="cls-5" d="M161.79,352.74a1.31,1.31,0,1,0,1.85,0h0A1.31,1.31,0,0,0,161.79,352.74Z" transform="translate(-11.26 -6.61)"></path><path class="cls-5" d="M159.78,353.57a1.31,1.31,0,1,0,1.31,1.31h0A1.31,1.31,0,0,0,159.78,353.57Z" transform="translate(-11.26 -6.61)"></path><circle class="cls-5" cx="145.59" cy="347.05" r="1.3"></circle><path class="cls-5" d="M163.9,349.43a1.31,1.31,0,1,0,1.3,1.32v0A1.3,1.3,0,0,0,163.9,349.43Z" transform="translate(-11.26 -6.61)"></path><path class="cls-5" d="M161.79,346.88a1.31,1.31,0,0,0,0,1.85,1.33,1.33,0,0,0,1.85,0,1.31,1.31,0,0,0-1.85-1.85Z" transform="translate(-11.26 -6.61)"></path><path class="cls-5" d="M155.9,346.88a1.31,1.31,0,0,0,0,1.85,1.33,1.33,0,0,0,1.85,0,1.31,1.31,0,0,0-1.85-1.85Z" transform="translate(-11.26 -6.61)"></path><circle class="cls-5" cx="144.38" cy="344.12" r="1.3"></circle><path class="cls-5" d="M159.78,345.28a1.31,1.31,0,1,0,1.31,1.31h0A1.31,1.31,0,0,0,159.78,345.28Z" transform="translate(-11.26 -6.61)"></path><path class="cls-5" d="M159.78,348.56a2.18,2.18,0,1,0,2.18,2.18h0a2.17,2.17,0,0,0-2.17-2.17Z" transform="translate(-11.26 -6.61)"></path><path class="cls-5" d="M181.65,330.71a1.3,1.3,0,1,0-1.84,0,1.3,1.3,0,0,0,1.84,0Z" transform="translate(-11.26 -6.61)"></path><path class="cls-5" d="M177.8,329.88a1.31,1.31,0,1,0-1.31-1.31h0a1.3,1.3,0,0,0,1.29,1.31Z" transform="translate(-11.26 -6.61)"></path><path class="cls-5" d="M181.9,331.41a1.31,1.31,0,1,0,1.31,1.31h0A1.31,1.31,0,0,0,181.9,331.41Z" transform="translate(-11.26 -6.61)"></path><path class="cls-5" d="M173.9,330.71a1.3,1.3,0,1,0,0-1.84A1.32,1.32,0,0,0,173.9,330.71Z" transform="translate(-11.26 -6.61)"></path><path class="cls-5" d="M177.8,330.54a2.18,2.18,0,1,0,2.17,2.19h0A2.18,2.18,0,0,0,177.8,330.54Z" transform="translate(-11.26 -6.61)"></path><path class="cls-5" d="M181.65,334.73a1.3,1.3,0,0,0-1.84,0,1.32,1.32,0,0,0,0,1.84,1.3,1.3,0,0,0,1.84-1.84Z" transform="translate(-11.26 -6.61)"></path><path class="cls-5" d="M175.79,334.73a1.3,1.3,0,0,0-1.84,0,1.32,1.32,0,0,0,0,1.84,1.3,1.3,0,0,0,1.84,0A1.32,1.32,0,0,0,175.79,334.73Z" transform="translate(-11.26 -6.61)"></path><path class="cls-5" d="M177.8,335.56a1.31,1.31,0,1,0,1.3,1.32v0A1.3,1.3,0,0,0,177.8,335.56Z" transform="translate(-11.26 -6.61)"></path><path class="cls-5" d="M173.65,334a1.31,1.31,0,1,0-1.3-1.32v0A1.32,1.32,0,0,0,173.65,334Z" transform="translate(-11.26 -6.61)"></path><path class="cls-5" d="M177.8,359.6a1.31,1.31,0,0,0-.23,2.61.88.88,0,0,0,.23,0,1.31,1.31,0,0,0,0-2.61Z" transform="translate(-11.26 -6.61)"></path><path class="cls-5" d="M181.9,363.75a1.3,1.3,0,0,0-.61,2.44h1.22a1.29,1.29,0,0,0-.61-2.44Z" transform="translate(-11.26 -6.61)"></path><path class="cls-5" d="M173.9,361.2a1.31,1.31,0,0,0,0,1.85,1.33,1.33,0,0,0,1.85,0,1.31,1.31,0,0,0-1.85-1.85Z" transform="translate(-11.26 -6.61)"></path><path class="cls-5" d="M179.81,361.2a1.3,1.3,0,1,0,1.84,0A1.32,1.32,0,0,0,179.81,361.2Z" transform="translate(-11.26 -6.61)"></path><path class="cls-5" d="M177.8,362.88a2.17,2.17,0,0,0-2.18,2.16h0a2.19,2.19,0,0,0,.33,1.14h3.7a2.17,2.17,0,0,0-1.85-3.31Z" transform="translate(-11.26 -6.61)"></path><path class="cls-5" d="M173.65,363.75a1.3,1.3,0,0,0-.61,2.44h1.22a1.29,1.29,0,0,0-.61-2.44Z" transform="translate(-11.26 -6.61)"></path><path class="cls-5" d="M132.64,192.92a1.31,1.31,0,0,0,0-1.85,1.33,1.33,0,0,0-1.85,0,1.31,1.31,0,0,0,1.85,1.85Z" transform="translate(-11.26 -6.61)"></path><path class="cls-5" d="M132.9,187.76a1.31,1.31,0,1,0-.23,2.61h.23a1.31,1.31,0,0,0,0-2.61Z" transform="translate(-11.26 -6.61)"></path><path class="cls-5" d="M130.58,187.84c0,1-.05,1.86-.11,2.58A2.13,2.13,0,0,0,130.58,187.84Z" transform="translate(-11.26 -6.61)"></path><path class="cls-5" d="M130.79,187.06a1.31,1.31,0,1,0,0-1.85h0a1.27,1.27,0,0,0-.2.31v1.24A1.57,1.57,0,0,0,130.79,187.06Z" transform="translate(-11.26 -6.61)"></path><path class="cls-5" d="M130.08,193.16a3.52,3.52,0,0,1-.24.78,1.28,1.28,0,0,0,.25-.73A.2.2,0,0,1,130.08,193.16Z" transform="translate(-11.26 -6.61)"></path><path class="cls-5" d="M126.78,219.39a1.3,1.3,0,1,0-1.85,0,1.3,1.3,0,0,0,1.85,0Z" transform="translate(-11.26 -6.61)"></path><path class="cls-5" d="M132.64,223.41a1.3,1.3,0,0,0-1.84,0,1.32,1.32,0,0,0,0,1.84,1.3,1.3,0,0,0,1.84,0A1.32,1.32,0,0,0,132.64,223.41Z" transform="translate(-11.26 -6.61)"></path><path class="cls-5" d="M128.78,223.58a2.18,2.18,0,1,0-2.17-2.19h0A2.18,2.18,0,0,0,128.78,223.58Z" transform="translate(-11.26 -6.61)"></path><path class="cls-5" d="M132.64,219.39a1.3,1.3,0,1,0-1.85,0,1.3,1.3,0,0,0,1.85,0Z" transform="translate(-11.26 -6.61)"></path><path class="cls-5" d="M128.78,218.56a1.31,1.31,0,1,0-1.3-1.32v0A1.32,1.32,0,0,0,128.78,218.56Z" transform="translate(-11.26 -6.61)"></path><circle class="cls-5" cx="114.59" cy="217.72" r="1.3"></circle><path class="cls-5" d="M132.9,220.1a1.3,1.3,0,1,0,1.3,1.3h0A1.3,1.3,0,0,0,132.9,220.1Z" transform="translate(-11.26 -6.61)"></path><circle class="cls-5" cx="113.38" cy="214.79" r="1.3"></circle><path class="cls-5" d="M128.78,226.85a1.31,1.31,0,1,0-1.3-1.32h0A1.31,1.31,0,0,0,128.78,226.85Z" transform="translate(-11.26 -6.61)"></path><path class="cls-5" d="M146.8,200.55a1.31,1.31,0,1,0-1.31-1.31h0A1.31,1.31,0,0,0,146.8,200.55Z" transform="translate(-11.26 -6.61)"></path><path class="cls-5" d="M150.65,201.38a1.3,1.3,0,1,0-1.84,0A1.32,1.32,0,0,0,150.65,201.38Z" transform="translate(-11.26 -6.61)"></path><path class="cls-5" d="M142.65,204.69a1.31,1.31,0,1,0-1.3-1.32v0A1.32,1.32,0,0,0,142.65,204.69Z" transform="translate(-11.26 -6.61)"></path><path class="cls-5" d="M144.79,201.38a1.31,1.31,0,1,0-1.85,0h0A1.31,1.31,0,0,0,144.79,201.38Z" transform="translate(-11.26 -6.61)"></path><path class="cls-5" d="M146.8,208.84a1.31,1.31,0,1,0-1.31-1.31h0A1.31,1.31,0,0,0,146.8,208.84Z" transform="translate(-11.26 -6.61)"></path><path class="cls-5" d="M146.8,205.56a2.18,2.18,0,1,0-2.18-2.18h0a2.17,2.17,0,0,0,2.17,2.17Z" transform="translate(-11.26 -6.61)"></path><path class="cls-5" d="M150.9,202.08a1.31,1.31,0,1,0,1.31,1.31h0A1.31,1.31,0,0,0,150.9,202.08Z" transform="translate(-11.26 -6.61)"></path><path class="cls-5" d="M144.79,207.24a1.31,1.31,0,0,0,0-1.85,1.33,1.33,0,0,0-1.85,0,1.31,1.31,0,1,0,1.75,2Z" transform="translate(-11.26 -6.61)"></path><path class="cls-5" d="M150.65,205.39a1.3,1.3,0,0,0-1.84,1.85,1.3,1.3,0,1,0,1.84-1.85Z" transform="translate(-11.26 -6.61)"></path><path class="cls-5" d="M132.64,251.73a1.31,1.31,0,1,0-1.85,0h0A1.33,1.33,0,0,0,132.64,251.73Z" transform="translate(-11.26 -6.61)"></path><path class="cls-5" d="M132.64,255.74a1.31,1.31,0,1,0,0,1.85h0A1.31,1.31,0,0,0,132.64,255.74Z" transform="translate(-11.26 -6.61)"></path><path class="cls-5" d="M126.78,257.59a1.31,1.31,0,1,0-1.85,0h0A1.31,1.31,0,0,0,126.78,257.59Z" transform="translate(-11.26 -6.61)"></path><path class="cls-5" d="M132.9,252.43a1.31,1.31,0,1,0,1.3,1.32v0A1.3,1.3,0,0,0,132.9,252.43Z" transform="translate(-11.26 -6.61)"></path><path class="cls-5" d="M128.78,259.18a1.31,1.31,0,1,0-1.3-1.32v0A1.32,1.32,0,0,0,128.78,259.18Z" transform="translate(-11.26 -6.61)"></path><circle class="cls-5" cx="124.64" cy="253.73" r="1.3" transform="translate(-140.96 370.51) rotate(-89.72)"></circle><path class="cls-5" d="M128.78,250.89a1.31,1.31,0,1,0-1.3-1.32v0A1.32,1.32,0,0,0,128.78,250.89Z" transform="translate(-11.26 -6.61)"></path><path class="cls-5" d="M128.78,251.56a2.18,2.18,0,1,0,2.18,2.18h0a2.17,2.17,0,0,0-2.17-2.17Z" transform="translate(-11.26 -6.61)"></path><circle class="cls-5" cx="114.59" cy="244.19" r="1.3"></circle><path class="cls-5" d="M146.8,233.54a2.18,2.18,0,1,0,2.17,2.19h0A2.18,2.18,0,0,0,146.8,233.54Z" transform="translate(-11.26 -6.61)"></path><path class="cls-5" d="M146.8,232.88a1.31,1.31,0,1,0-1.31-1.31h0a1.3,1.3,0,0,0,1.3,1.3Z" transform="translate(-11.26 -6.61)"></path><path class="cls-5" d="M142.9,233.71a1.3,1.3,0,1,0,0-1.84A1.32,1.32,0,0,0,142.9,233.71Z" transform="translate(-11.26 -6.61)"></path><path class="cls-5" d="M142.65,237a1.3,1.3,0,1,0-1.3-1.3h0A1.32,1.32,0,0,0,142.65,237Z" transform="translate(-11.26 -6.61)"></path><path class="cls-5" d="M150.9,234.42a1.3,1.3,0,1,0,1.31,1.3,1.3,1.3,0,0,0-1.31-1.3Z" transform="translate(-11.26 -6.61)"></path><path class="cls-5" d="M150.65,233.71a1.3,1.3,0,1,0-1.84,0,1.3,1.3,0,0,0,1.84,0Z" transform="translate(-11.26 -6.61)"></path><path class="cls-5" d="M144.79,239.57a1.3,1.3,0,1,0-1.85,0,1.3,1.3,0,0,0,1.85,0Z" transform="translate(-11.26 -6.61)"></path><path class="cls-5" d="M146.8,241.17a1.31,1.31,0,1,0-1.31-1.31h0a1.3,1.3,0,0,0,1.29,1.31Z" transform="translate(-11.26 -6.61)"></path><path class="cls-5" d="M150.65,237.73a1.3,1.3,0,0,0-1.84,0,1.32,1.32,0,0,0,0,1.84,1.3,1.3,0,0,0,1.84-1.84Z" transform="translate(-11.26 -6.61)"></path><circle class="cls-5" cx="114.59" cy="282.39" r="1.3"></circle><path class="cls-5" d="M128.78,283.89a2.18,2.18,0,1,0,2.18,2.18h0a2.17,2.17,0,0,0-2.16-2.18Z" transform="translate(-11.26 -6.61)"></path><path class="cls-5" d="M128.78,291.49a1.31,1.31,0,0,0,.23-2.61h-.23a1.31,1.31,0,0,0,0,2.61Z" transform="translate(-11.26 -6.61)"></path><path class="cls-5" d="M132.64,288.07a1.33,1.33,0,0,0-1.85,0,1.31,1.31,0,1,0,1.85,0Z" transform="translate(-11.26 -6.61)"></path><path class="cls-5" d="M132.9,284.76a1.31,1.31,0,0,0-.23,2.61h.23a1.31,1.31,0,0,0,0-2.61Z" transform="translate(-11.26 -6.61)"></path><path class="cls-5" d="M128.78,283.23a1.31,1.31,0,0,0,.23-2.61h-.23a1.31,1.31,0,0,0,0,2.61Z" transform="translate(-11.26 -6.61)"></path><path class="cls-5" d="M132.64,284.06a1.31,1.31,0,1,0-1.85,0h0A1.31,1.31,0,0,0,132.64,284.06Z" transform="translate(-11.26 -6.61)"></path><circle class="cls-5" cx="124.65" cy="286.07" r="1.3" transform="translate(-173.29 402.7) rotate(-89.72)"></circle><circle class="cls-5" cx="114.59" cy="276.53" r="1.3"></circle><path class="cls-5" d="M150.9,266.75a1.31,1.31,0,1,0,.23,0Z" transform="translate(-11.26 -6.61)"></path><path class="cls-5" d="M150.65,266.05a1.3,1.3,0,1,0-1.84,0A1.32,1.32,0,0,0,150.65,266.05Z" transform="translate(-11.26 -6.61)"></path><path class="cls-5" d="M142.9,266.05a1.33,1.33,0,0,0,1.85,0,1.31,1.31,0,1,0-1.85,0Z" transform="translate(-11.26 -6.61)"></path><path class="cls-5" d="M146.8,265.21a1.31,1.31,0,1,0-.23,0A.88.88,0,0,0,146.8,265.21Z" transform="translate(-11.26 -6.61)"></path><path class="cls-5" d="M146.8,265.88a2.18,2.18,0,1,0,2.17,2.19v0a2.17,2.17,0,0,0-2.17-2.17Z" transform="translate(-11.26 -6.61)"></path><path class="cls-5" d="M146.8,273.49a1.31,1.31,0,1,0-.23,0Z" transform="translate(-11.26 -6.61)"></path><path class="cls-5" d="M144.79,271.91a1.31,1.31,0,1,0-1.85,0h0A1.31,1.31,0,0,0,144.79,271.91Z" transform="translate(-11.26 -6.61)"></path><path class="cls-5" d="M150.65,270.06a1.3,1.3,0,1,0,0,1.85,1.31,1.31,0,0,0,0-1.85Z" transform="translate(-11.26 -6.61)"></path><path class="cls-5" d="M142.65,269.36a1.31,1.31,0,0,0,.23-2.61h-.23a1.31,1.31,0,0,0,0,2.61Z" transform="translate(-11.26 -6.61)"></path><path class="cls-5" d="M128.78,316.22A2.18,2.18,0,1,0,131,318.4h0A2.18,2.18,0,0,0,128.78,316.22Z" transform="translate(-11.26 -6.61)"></path><path class="cls-5" d="M132.64,320.41a1.3,1.3,0,0,0-1.84,0,1.32,1.32,0,0,0,0,1.84,1.3,1.3,0,0,0,1.84,0A1.32,1.32,0,0,0,132.64,320.41Z" transform="translate(-11.26 -6.61)"></path><path class="cls-5" d="M128.78,321.24a1.31,1.31,0,1,0,1.31,1.31h0a1.3,1.3,0,0,0-1.3-1.3Z" transform="translate(-11.26 -6.61)"></path><path class="cls-5" d="M132.9,317.09a1.31,1.31,0,0,0-.23,2.61h.23a1.31,1.31,0,0,0,0-2.61Z" transform="translate(-11.26 -6.61)"></path><path class="cls-5" d="M128.78,315.56a1.31,1.31,0,1,0-1.3-1.32v0A1.32,1.32,0,0,0,128.78,315.56Z" transform="translate(-11.26 -6.61)"></path><path class="cls-5" d="M124.9,316.39a1.3,1.3,0,1,0,0-1.84A1.32,1.32,0,0,0,124.9,316.39Z" transform="translate(-11.26 -6.61)"></path><circle class="cls-5" cx="114.59" cy="314.72" r="1.3"></circle><path class="cls-5" d="M132.64,316.39a1.3,1.3,0,1,0-1.85,0,1.3,1.3,0,0,0,1.85,0Z" transform="translate(-11.26 -6.61)"></path><circle class="cls-5" cx="124.64" cy="318.39" r="1.3" transform="translate(-205.62 434.86) rotate(-89.72)"></circle><path class="cls-5" d="M150.65,302.39a1.3,1.3,0,0,0-1.84,1.85,1.3,1.3,0,1,0,1.84-1.85Z" transform="translate(-11.26 -6.61)"></path><path class="cls-5" d="M146.8,297.55a1.31,1.31,0,1,0-1.31-1.31h0A1.31,1.31,0,0,0,146.8,297.55Z" transform="translate(-11.26 -6.61)"></path><path class="cls-5" d="M150.65,298.38a1.3,1.3,0,1,0-1.84,0A1.32,1.32,0,0,0,150.65,298.38Z" transform="translate(-11.26 -6.61)"></path><path class="cls-5" d="M150.9,299.08a1.31,1.31,0,1,0,1.31,1.31h0A1.31,1.31,0,0,0,150.9,299.08Z" transform="translate(-11.26 -6.61)"></path><path class="cls-5" d="M146.8,298.21A2.18,2.18,0,1,0,149,300.4h0a2.17,2.17,0,0,0-2.16-2.18Z" transform="translate(-11.26 -6.61)"></path><path class="cls-5" d="M142.65,301.69a1.31,1.31,0,1,0-1.3-1.32v0A1.32,1.32,0,0,0,142.65,301.69Z" transform="translate(-11.26 -6.61)"></path><path class="cls-5" d="M146.8,305.84a1.31,1.31,0,1,0-1.31-1.31h0A1.31,1.31,0,0,0,146.8,305.84Z" transform="translate(-11.26 -6.61)"></path><path class="cls-5" d="M142.9,298.38a1.31,1.31,0,1,0,0-1.85h0A1.31,1.31,0,0,0,142.9,298.38Z" transform="translate(-11.26 -6.61)"></path><path class="cls-5" d="M144.79,304.24a1.31,1.31,0,0,0,0-1.85,1.33,1.33,0,0,0-1.85,0,1.31,1.31,0,1,0,1.75,1.95Z" transform="translate(-11.26 -6.61)"></path><path class="cls-5" d="M128.78,348.56a2.18,2.18,0,1,0,2.18,2.18h0a2.17,2.17,0,0,0-2.17-2.17Z" transform="translate(-11.26 -6.61)"></path><path class="cls-5" d="M132.9,349.43a1.31,1.31,0,1,0,1.3,1.32v0A1.3,1.3,0,0,0,132.9,349.43Z" transform="translate(-11.26 -6.61)"></path><path class="cls-5" d="M130.79,352.74a1.31,1.31,0,1,0,1.85,0h0A1.31,1.31,0,0,0,130.79,352.74Z" transform="translate(-11.26 -6.61)"></path><path class="cls-5" d="M124.9,346.88a1.31,1.31,0,0,0,0,1.85,1.33,1.33,0,0,0,1.85,0,1.31,1.31,0,0,0-1.85-1.85Z" transform="translate(-11.26 -6.61)"></path><path class="cls-5" d="M130.79,346.88a1.31,1.31,0,0,0,0,1.85,1.33,1.33,0,0,0,1.85,0,1.31,1.31,0,0,0-1.85-1.85Z" transform="translate(-11.26 -6.61)"></path><circle class="cls-5" cx="114.59" cy="347.05" r="1.3"></circle><path class="cls-5" d="M128.78,345.28a1.31,1.31,0,1,0,1.31,1.31h0A1.31,1.31,0,0,0,128.78,345.28Z" transform="translate(-11.26 -6.61)"></path><circle class="cls-5" cx="113.38" cy="344.12" r="1.3"></circle><path class="cls-5" d="M128.78,353.57a1.31,1.31,0,1,0,1.31,1.31h0A1.31,1.31,0,0,0,128.78,353.57Z" transform="translate(-11.26 -6.61)"></path><path class="cls-5" d="M146.8,330.54a2.18,2.18,0,1,0,2.17,2.19h0A2.18,2.18,0,0,0,146.8,330.54Z" transform="translate(-11.26 -6.61)"></path><path class="cls-5" d="M146.8,329.88a1.31,1.31,0,1,0-1.31-1.31h0a1.3,1.3,0,0,0,1.29,1.31Z" transform="translate(-11.26 -6.61)"></path><path class="cls-5" d="M142.9,330.71a1.3,1.3,0,1,0,0-1.84A1.32,1.32,0,0,0,142.9,330.71Z" transform="translate(-11.26 -6.61)"></path><path class="cls-5" d="M150.9,331.41a1.31,1.31,0,1,0,1.31,1.31h0A1.31,1.31,0,0,0,150.9,331.41Z" transform="translate(-11.26 -6.61)"></path><path class="cls-5" d="M150.65,330.71a1.3,1.3,0,1,0-1.84,0,1.3,1.3,0,0,0,1.84,0Z" transform="translate(-11.26 -6.61)"></path><path class="cls-5" d="M144.79,334.73a1.3,1.3,0,0,0-1.84,0,1.32,1.32,0,0,0,0,1.84,1.3,1.3,0,0,0,1.84,0A1.32,1.32,0,0,0,144.79,334.73Z" transform="translate(-11.26 -6.61)"></path><path class="cls-5" d="M146.8,335.56a1.31,1.31,0,1,0,1.3,1.32v0A1.3,1.3,0,0,0,146.8,335.56Z" transform="translate(-11.26 -6.61)"></path><path class="cls-5" d="M142.65,334a1.31,1.31,0,1,0-1.3-1.32v0A1.32,1.32,0,0,0,142.65,334Z" transform="translate(-11.26 -6.61)"></path><path class="cls-5" d="M150.65,334.73a1.3,1.3,0,0,0-1.84,0,1.32,1.32,0,0,0,0,1.84,1.3,1.3,0,0,0,1.84-1.84Z" transform="translate(-11.26 -6.61)"></path><path class="cls-5" d="M148.81,361.2a1.3,1.3,0,1,0,1.84,0A1.32,1.32,0,0,0,148.81,361.2Z" transform="translate(-11.26 -6.61)"></path><path class="cls-5" d="M142.65,363.75a1.3,1.3,0,0,0-.61,2.44h1.22a1.29,1.29,0,0,0-.61-2.44Z" transform="translate(-11.26 -6.61)"></path><path class="cls-5" d="M146.8,362.88a2.17,2.17,0,0,0-2.18,2.16h0a2.19,2.19,0,0,0,.33,1.14h3.7a2.17,2.17,0,0,0-1.85-3.31Z" transform="translate(-11.26 -6.61)"></path><path class="cls-5" d="M150.9,363.75a1.3,1.3,0,0,0-.61,2.44h1.22a1.29,1.29,0,0,0-.61-2.44Z" transform="translate(-11.26 -6.61)"></path><path class="cls-5" d="M146.8,359.6a1.31,1.31,0,0,0-.23,2.61.88.88,0,0,0,.23,0,1.31,1.31,0,0,0,0-2.61Z" transform="translate(-11.26 -6.61)"></path><path class="cls-5" d="M142.9,361.2a1.31,1.31,0,0,0,0,1.85,1.33,1.33,0,0,0,1.85,0,1.31,1.31,0,0,0-1.85-1.85Z" transform="translate(-11.26 -6.61)"></path><path class="cls-5" d="M101.9,192.49c-.3.23-.59.47-.87.73a1.25,1.25,0,0,0,.6-.32A1.22,1.22,0,0,0,101.9,192.49Z" transform="translate(-11.26 -6.61)"></path><path class="cls-5" d="M101.9,220.1a1.3,1.3,0,1,0,1.3,1.3h0A1.3,1.3,0,0,0,101.9,220.1Z" transform="translate(-11.26 -6.61)"></path><path class="cls-5" d="M101.64,223.41a1.3,1.3,0,0,0-1.84,0,1.32,1.32,0,0,0,0,1.84,1.3,1.3,0,0,0,1.84,0A1.32,1.32,0,0,0,101.64,223.41Z" transform="translate(-11.26 -6.61)"></path><path class="cls-5" d="M101.64,219.39a1.3,1.3,0,1,0-1.85,0,1.3,1.3,0,0,0,1.85,0Z" transform="translate(-11.26 -6.61)"></path><path class="cls-5" d="M97.78,218.56a1.31,1.31,0,1,0-1.3-1.32v0A1.32,1.32,0,0,0,97.78,218.56Z" transform="translate(-11.26 -6.61)"></path><path class="cls-5" d="M97.34,224.33c.13.83.28,1.67.42,2.52h0a1.31,1.31,0,1,0,.23-2.61.89.89,0,0,0-.23,0A1.58,1.58,0,0,0,97.34,224.33Z" transform="translate(-11.26 -6.61)"></path><path class="cls-5" d="M96.6,219.57c.18,1.27.39,2.58.6,3.92a1.9,1.9,0,0,0,.58.09,2.18,2.18,0,0,0,0-4.36,2.2,2.2,0,0,0-1.22.36Z" transform="translate(-11.26 -6.61)"></path><path class="cls-5" d="M113.79,207.24a1.31,1.31,0,0,0,0-1.85,1.33,1.33,0,0,0-1.85,0,1.31,1.31,0,1,0,1.75,2Z" transform="translate(-11.26 -6.61)"></path><path class="cls-5" d="M115.8,208.84a1.31,1.31,0,1,0-1.31-1.31h0A1.31,1.31,0,0,0,115.8,208.84Z" transform="translate(-11.26 -6.61)"></path><path class="cls-5" d="M119.65,205.39a1.3,1.3,0,0,0-1.84,1.85,1.3,1.3,0,1,0,1.84-1.85Z" transform="translate(-11.26 -6.61)"></path><path class="cls-5" d="M115.8,205.56a2.18,2.18,0,1,0-2.18-2.18h0a2.17,2.17,0,0,0,2.17,2.17Z" transform="translate(-11.26 -6.61)"></path><path class="cls-5" d="M111.65,204.69a1.31,1.31,0,1,0-1.3-1.32v0A1.32,1.32,0,0,0,111.65,204.69Z" transform="translate(-11.26 -6.61)"></path><path class="cls-5" d="M119.9,202.08a1.31,1.31,0,1,0,1.31,1.31h0A1.31,1.31,0,0,0,119.9,202.08Z" transform="translate(-11.26 -6.61)"></path><path class="cls-5" d="M119.65,201.38a1.3,1.3,0,1,0-1.84,0A1.32,1.32,0,0,0,119.65,201.38Z" transform="translate(-11.26 -6.61)"></path><path class="cls-5" d="M115.8,200.55a1.31,1.31,0,1,0-1.31-1.31h0A1.31,1.31,0,0,0,115.8,200.55Z" transform="translate(-11.26 -6.61)"></path><path class="cls-5" d="M113.79,201.38a1.31,1.31,0,1,0-1.85,0h0A1.31,1.31,0,0,0,113.79,201.38Z" transform="translate(-11.26 -6.61)"></path><path class="cls-5" d="M111.65,237a1.3,1.3,0,1,0-1.3-1.3h0A1.32,1.32,0,0,0,111.65,237Z" transform="translate(-11.26 -6.61)"></path><path class="cls-5" d="M111.9,233.71a1.3,1.3,0,1,0,0-1.84A1.32,1.32,0,0,0,111.9,233.71Z" transform="translate(-11.26 -6.61)"></path><path class="cls-5" d="M115.8,232.88a1.31,1.31,0,1,0-1.31-1.31h0a1.3,1.3,0,0,0,1.3,1.3Z" transform="translate(-11.26 -6.61)"></path><path class="cls-5" d="M119.65,233.71a1.3,1.3,0,1,0-1.84,0,1.3,1.3,0,0,0,1.84,0Z" transform="translate(-11.26 -6.61)"></path><path class="cls-5" d="M115.8,241.17a1.31,1.31,0,1,0-1.31-1.31h0a1.3,1.3,0,0,0,1.29,1.31Z" transform="translate(-11.26 -6.61)"></path><path class="cls-5" d="M119.65,237.73a1.3,1.3,0,0,0-1.84,0,1.32,1.32,0,0,0,0,1.84,1.3,1.3,0,0,0,1.84-1.84Z" transform="translate(-11.26 -6.61)"></path><path class="cls-5" d="M119.9,234.42a1.3,1.3,0,1,0,1.31,1.3,1.3,1.3,0,0,0-1.31-1.3Z" transform="translate(-11.26 -6.61)"></path><path class="cls-5" d="M113.79,239.57a1.3,1.3,0,1,0-1.85,0,1.3,1.3,0,0,0,1.85,0Z" transform="translate(-11.26 -6.61)"></path><path class="cls-5" d="M115.8,233.54a2.18,2.18,0,1,0,2.17,2.19h0A2.18,2.18,0,0,0,115.8,233.54Z" transform="translate(-11.26 -6.61)"></path><path class="cls-5" d="M119.65,270.06a1.3,1.3,0,1,0,0,1.85,1.31,1.31,0,0,0,0-1.85Z" transform="translate(-11.26 -6.61)"></path><path class="cls-5" d="M115.8,265.88a2.18,2.18,0,1,0,2.17,2.19v0a2.17,2.17,0,0,0-2.17-2.17Z" transform="translate(-11.26 -6.61)"></path><path class="cls-5" d="M113.79,271.91a1.31,1.31,0,1,0-1.85,0h0A1.31,1.31,0,0,0,113.79,271.91Z" transform="translate(-11.26 -6.61)"></path><path class="cls-5" d="M115.8,273.49a1.31,1.31,0,1,0-.23,0Z" transform="translate(-11.26 -6.61)"></path><path class="cls-5" d="M119.9,266.75a1.31,1.31,0,1,0,.23,0Z" transform="translate(-11.26 -6.61)"></path><path class="cls-5" d="M115.8,265.21a1.31,1.31,0,1,0-.23,0A.88.88,0,0,0,115.8,265.21Z" transform="translate(-11.26 -6.61)"></path><path class="cls-5" d="M119.65,266.05a1.3,1.3,0,1,0-1.84,0A1.32,1.32,0,0,0,119.65,266.05Z" transform="translate(-11.26 -6.61)"></path><path class="cls-5" d="M111.9,266.05a1.33,1.33,0,0,0,1.85,0,1.31,1.31,0,1,0-1.85,0Z" transform="translate(-11.26 -6.61)"></path><path class="cls-5" d="M111.65,269.36a1.31,1.31,0,0,0,.23-2.61h-.23a1.31,1.31,0,0,0,0,2.61Z" transform="translate(-11.26 -6.61)"></path><path class="cls-5" d="M102,321.11c-.13.39-.25.77-.37,1.16h0A1.29,1.29,0,0,0,102,321.11Z" transform="translate(-11.26 -6.61)"></path><path class="cls-5" d="M102.46,319.58a1.28,1.28,0,0,0,.77-1.18,1.18,1.18,0,0,0-.18-.63C102.9,318.37,102.66,319,102.46,319.58Z" transform="translate(-11.26 -6.61)"></path><path class="cls-5" d="M115.8,305.84a1.31,1.31,0,1,0-1.31-1.31h0A1.31,1.31,0,0,0,115.8,305.84Z" transform="translate(-11.26 -6.61)"></path><path class="cls-5" d="M115.8,298.21A2.18,2.18,0,1,0,118,300.4h0a2.17,2.17,0,0,0-2.16-2.18Z" transform="translate(-11.26 -6.61)"></path><path class="cls-5" d="M119.65,302.39a1.3,1.3,0,0,0-1.84,1.85,1.3,1.3,0,1,0,1.84-1.85Z" transform="translate(-11.26 -6.61)"></path><path class="cls-5" d="M119.9,299.08a1.31,1.31,0,1,0,1.31,1.31h0A1.31,1.31,0,0,0,119.9,299.08Z" transform="translate(-11.26 -6.61)"></path><path class="cls-5" d="M113.79,304.24a1.31,1.31,0,0,0,0-1.85,1.33,1.33,0,0,0-1.85,0,1.31,1.31,0,1,0,1.75,1.95Z" transform="translate(-11.26 -6.61)"></path><path class="cls-5" d="M119.65,298.38a1.3,1.3,0,1,0-1.84,0A1.32,1.32,0,0,0,119.65,298.38Z" transform="translate(-11.26 -6.61)"></path><path class="cls-5" d="M111.9,298.38a1.31,1.31,0,1,0,0-1.85h0A1.31,1.31,0,0,0,111.9,298.38Z" transform="translate(-11.26 -6.61)"></path><path class="cls-5" d="M115.8,297.55a1.31,1.31,0,1,0-1.31-1.31h0A1.31,1.31,0,0,0,115.8,297.55Z" transform="translate(-11.26 -6.61)"></path><path class="cls-5" d="M111.65,301.69a1.31,1.31,0,1,0-1.3-1.32v0A1.32,1.32,0,0,0,111.65,301.69Z" transform="translate(-11.26 -6.61)"></path><path class="cls-5" d="M97.78,353.57a1.31,1.31,0,1,0,1.31,1.31h0A1.31,1.31,0,0,0,97.78,353.57Z" transform="translate(-11.26 -6.61)"></path><path class="cls-5" d="M97.78,347.89a1.31,1.31,0,1,0-1.3-1.32v0A1.32,1.32,0,0,0,97.78,347.89Z" transform="translate(-11.26 -6.61)"></path><circle class="cls-5" cx="83.59" cy="347.05" r="1.3"></circle><path class="cls-5" d="M95.78,348.73a1.31,1.31,0,0,0-.88-2.24q-.32,1.26-.6,2.46A1.29,1.29,0,0,0,95.78,348.73Z" transform="translate(-11.26 -6.61)"></path><path class="cls-5" d="M99.79,346.88a1.31,1.31,0,0,0,0,1.85,1.33,1.33,0,0,0,1.85,0,1.31,1.31,0,0,0-1.85-1.85Z" transform="translate(-11.26 -6.61)"></path><path class="cls-5" d="M94.9,350.73a1.31,1.31,0,0,0-.79-1.2c-.2.86-.4,1.69-.59,2.49h.08A1.32,1.32,0,0,0,94.9,350.73Z" transform="translate(-11.26 -6.61)"></path><path class="cls-5" d="M101.9,349.43a1.31,1.31,0,1,0,1.3,1.32v0A1.3,1.3,0,0,0,101.9,349.43Z" transform="translate(-11.26 -6.61)"></path><path class="cls-5" d="M99.79,352.74a1.31,1.31,0,1,0,1.85,0h0A1.31,1.31,0,0,0,99.79,352.74Z" transform="translate(-11.26 -6.61)"></path><path class="cls-5" d="M97.78,348.56a2.18,2.18,0,1,0,2.18,2.18h0a2.17,2.17,0,0,0-2.17-2.17Z" transform="translate(-11.26 -6.61)"></path><path class="cls-5" d="M115.8,335.56a1.31,1.31,0,1,0,1.3,1.32v0A1.3,1.3,0,0,0,115.8,335.56Z" transform="translate(-11.26 -6.61)"></path><path class="cls-5" d="M119.65,334.73a1.3,1.3,0,0,0-1.84,0,1.32,1.32,0,0,0,0,1.84,1.3,1.3,0,0,0,1.84-1.84Z" transform="translate(-11.26 -6.61)"></path><path class="cls-5" d="M119.9,331.41a1.31,1.31,0,1,0,1.31,1.31h0A1.31,1.31,0,0,0,119.9,331.41Z" transform="translate(-11.26 -6.61)"></path><path class="cls-5" d="M113.79,334.73a1.3,1.3,0,0,0-1.84,0,1.32,1.32,0,0,0,0,1.84,1.3,1.3,0,0,0,1.84,0A1.32,1.32,0,0,0,113.79,334.73Z" transform="translate(-11.26 -6.61)"></path><path class="cls-5" d="M115.8,330.54a2.18,2.18,0,1,0,2.17,2.19h0A2.18,2.18,0,0,0,115.8,330.54Z" transform="translate(-11.26 -6.61)"></path><path class="cls-5" d="M111.65,334a1.31,1.31,0,1,0-1.3-1.32v0A1.32,1.32,0,0,0,111.65,334Z" transform="translate(-11.26 -6.61)"></path><path class="cls-5" d="M111.9,330.71a1.3,1.3,0,1,0,0-1.84A1.32,1.32,0,0,0,111.9,330.71Z" transform="translate(-11.26 -6.61)"></path><path class="cls-5" d="M119.65,330.71a1.3,1.3,0,1,0-1.84,0,1.3,1.3,0,0,0,1.84,0Z" transform="translate(-11.26 -6.61)"></path><path class="cls-5" d="M115.8,329.88a1.31,1.31,0,1,0-1.31-1.31h0a1.3,1.3,0,0,0,1.29,1.31Z" transform="translate(-11.26 -6.61)"></path><path class="cls-5" d="M111.9,361.2a1.31,1.31,0,0,0,0,1.85,1.33,1.33,0,0,0,1.85,0,1.31,1.31,0,0,0-1.85-1.85Z" transform="translate(-11.26 -6.61)"></path><path class="cls-5" d="M117.81,361.2a1.3,1.3,0,1,0,1.84,0A1.32,1.32,0,0,0,117.81,361.2Z" transform="translate(-11.26 -6.61)"></path><path class="cls-5" d="M111.65,363.75a1.3,1.3,0,0,0-.61,2.44h1.22a1.29,1.29,0,0,0-.61-2.44Z" transform="translate(-11.26 -6.61)"></path><path class="cls-5" d="M115.8,362.88a2.17,2.17,0,0,0-2.18,2.16h0a2.19,2.19,0,0,0,.33,1.14h3.7a2.17,2.17,0,0,0-1.85-3.31Z" transform="translate(-11.26 -6.61)"></path><path class="cls-5" d="M115.8,359.6a1.31,1.31,0,0,0-.23,2.61.88.88,0,0,0,.23,0,1.31,1.31,0,0,0,0-2.61Z" transform="translate(-11.26 -6.61)"></path><path class="cls-5" d="M119.9,363.75a1.3,1.3,0,0,0-.61,2.44h1.22a1.29,1.29,0,0,0-.61-2.44Z" transform="translate(-11.26 -6.61)"></path><path class="cls-1" d="M90.51,366.19h.39v-2C90.64,365.49,90.51,366.19,90.51,366.19Z" transform="translate(-11.26 -6.61)"></path></g><path class="cls-6" d="M130.14,172.78s.86,14.86.21,18.74,0,4.52-11.41.64-18.31-2.58-22.83,9.05S111.4,286.93,112,289.08s-7.1,21.32-12.7,40.71-8.83,36.4-8.83,36.4H194.32s-3.66-27.14-9.48-43.73-12.49-38.55-12.49-38.55S185.27,221,182.9,206.38s-9-16.59-16.8-16.59a50.14,50.14,0,0,0-15.29,2.8l.65-15.29S132.29,177.73,130.14,172.78Z" transform="translate(-11.26 -6.61)"></path><path class="cls-2" d="M161.37,190.49s12.92-8.4,20.89-2.59S187,212.24,187,223.66s2.15,35.75.43,44.36-5,12.71-9.48,13.36S168,277.29,168,266.09s-2.15-40.28-2.37-46.1-1.5-14.43-1.5-14.43" transform="translate(-11.26 -6.61)"></path><g class="cls-14"><path class="cls-5" d="M186.9,223.41a1.3,1.3,0,0,0,0,1.84h0a.09.09,0,0,1,.08.06v-1.95Z" transform="translate(-11.26 -6.61)"></path><path class="cls-5" d="M187.1,219.49c0-.69.06-1.41.1-2.13a1.27,1.27,0,0,0-.27.18,1.3,1.3,0,0,0,0,1.84h0Z" transform="translate(-11.26 -6.61)"></path><path class="cls-5" d="M186.64,222.7a.89.89,0,0,0,.36-.07c0-.79,0-1.61.07-2.45a1.26,1.26,0,0,0-.43-.08,1.3,1.3,0,0,0,0,2.6Z" transform="translate(-11.26 -6.61)"></path><path class="cls-5" d="M186.9,251.73a1.25,1.25,0,0,0,1.09.34c0-.84,0-1.69-.07-2.55a1.29,1.29,0,0,0-1,.36A1.32,1.32,0,0,0,186.9,251.73Z" transform="translate(-11.26 -6.61)"></path><path class="cls-5" d="M188.08,255.4a1.28,1.28,0,0,0-1.54,1,1.28,1.28,0,0,0,1.52,1.55C188.1,257.1,188.09,256.26,188.08,255.4Z" transform="translate(-11.26 -6.61)"></path><circle class="cls-5" cx="175.38" cy="247.12" r="1.3"></circle><path class="cls-5" d="M161.79,191.07a1.31,1.31,0,0,0-.24.37l.28,1.51a1.31,1.31,0,0,0,1.81-1.88A1.33,1.33,0,0,0,161.79,191.07Z" transform="translate(-11.26 -6.61)"></path><path class="cls-5" d="M162.76,189.62a1.29,1.29,0,1,0,2.3-1.17h0C164.15,188.88,163.36,189.29,162.76,189.62Z" transform="translate(-11.26 -6.61)"></path><path class="cls-5" d="M161.37,190.49h0a1.24,1.24,0,0,0,.18-.22Z" transform="translate(-11.26 -6.61)"></path><path class="cls-5" d="M177.8,205.56a2.18,2.18,0,1,0-2.18-2.18h0a2.17,2.17,0,0,0,2.17,2.17Z" transform="translate(-11.26 -6.61)"></path><path class="cls-5" d="M175.79,207.24a1.31,1.31,0,0,0,0-1.85,1.33,1.33,0,0,0-1.85,0,1.31,1.31,0,1,0,1.75,2Z" transform="translate(-11.26 -6.61)"></path><path class="cls-5" d="M181.65,205.39a1.3,1.3,0,0,0-1.84,1.85,1.3,1.3,0,1,0,1.84-1.85Z" transform="translate(-11.26 -6.61)"></path><path class="cls-5" d="M181.9,202.08a1.31,1.31,0,1,0,1.31,1.31h0A1.31,1.31,0,0,0,181.9,202.08Z" transform="translate(-11.26 -6.61)"></path><path class="cls-5" d="M177.8,200.55a1.31,1.31,0,1,0-1.31-1.31h0A1.31,1.31,0,0,0,177.8,200.55Z" transform="translate(-11.26 -6.61)"></path><path class="cls-5" d="M181.65,201.38a1.3,1.3,0,1,0-1.84,0A1.32,1.32,0,0,0,181.65,201.38Z" transform="translate(-11.26 -6.61)"></path><path class="cls-5" d="M175.79,201.38a1.31,1.31,0,1,0-1.85,0h0A1.31,1.31,0,0,0,175.79,201.38Z" transform="translate(-11.26 -6.61)"></path><path class="cls-5" d="M173.65,204.69a1.31,1.31,0,1,0-1.3-1.32v0A1.32,1.32,0,0,0,173.65,204.69Z" transform="translate(-11.26 -6.61)"></path><path class="cls-5" d="M177.8,208.84a1.31,1.31,0,1,0-1.31-1.31h0A1.31,1.31,0,0,0,177.8,208.84Z" transform="translate(-11.26 -6.61)"></path><path class="cls-5" d="M181.65,237.73a1.3,1.3,0,0,0-1.84,0,1.32,1.32,0,0,0,0,1.84,1.3,1.3,0,0,0,1.84-1.84Z" transform="translate(-11.26 -6.61)"></path><path class="cls-5" d="M181.65,233.71a1.3,1.3,0,1,0-1.84,0,1.3,1.3,0,0,0,1.84,0Z" transform="translate(-11.26 -6.61)"></path><path class="cls-5" d="M177.8,233.54a2.18,2.18,0,1,0,2.17,2.19h0A2.18,2.18,0,0,0,177.8,233.54Z" transform="translate(-11.26 -6.61)"></path><path class="cls-5" d="M181.9,234.42a1.3,1.3,0,1,0,1.31,1.3,1.3,1.3,0,0,0-1.31-1.3Z" transform="translate(-11.26 -6.61)"></path><path class="cls-5" d="M177.8,238.56a1.31,1.31,0,1,0,1.3,1.32v0A1.3,1.3,0,0,0,177.8,238.56Z" transform="translate(-11.26 -6.61)"></path><path class="cls-5" d="M177.8,232.88a1.31,1.31,0,1,0-1.31-1.31h0a1.3,1.3,0,0,0,1.3,1.3Z" transform="translate(-11.26 -6.61)"></path><path class="cls-5" d="M175.79,237.73a1.3,1.3,0,0,0-1.84,0,1.32,1.32,0,0,0,0,1.84,1.3,1.3,0,0,0,1.84,0A1.32,1.32,0,0,0,175.79,237.73Z" transform="translate(-11.26 -6.61)"></path><path class="cls-5" d="M173.65,237a1.3,1.3,0,1,0-1.3-1.3h0A1.32,1.32,0,0,0,173.65,237Z" transform="translate(-11.26 -6.61)"></path><path class="cls-5" d="M173.9,233.71a1.3,1.3,0,1,0,0-1.84A1.32,1.32,0,0,0,173.9,233.71Z" transform="translate(-11.26 -6.61)"></path><path class="cls-5" d="M179.81,270.06a1.3,1.3,0,1,0,1.84,0A1.32,1.32,0,0,0,179.81,270.06Z" transform="translate(-11.26 -6.61)"></path><path class="cls-5" d="M179.81,264.2a1.3,1.3,0,1,0,1.84,0A1.32,1.32,0,0,0,179.81,264.2Z" transform="translate(-11.26 -6.61)"></path><path class="cls-5" d="M177.8,265.88a2.18,2.18,0,1,0,2.17,2.19v0a2.17,2.17,0,0,0-2.17-2.17Z" transform="translate(-11.26 -6.61)"></path><path class="cls-5" d="M177.8,270.89a1.31,1.31,0,1,0-.23,2.61h.23a1.31,1.31,0,0,0,0-2.61Z" transform="translate(-11.26 -6.61)"></path><path class="cls-5" d="M181.9,266.75a1.31,1.31,0,1,0,.23,0Z" transform="translate(-11.26 -6.61)"></path><path class="cls-5" d="M177.8,262.6a1.31,1.31,0,0,0-.23,2.61.88.88,0,0,0,.23,0,1.31,1.31,0,0,0,0-2.61Z" transform="translate(-11.26 -6.61)"></path><path class="cls-5" d="M173.9,264.2a1.31,1.31,0,0,0,0,1.85,1.33,1.33,0,0,0,1.85,0,1.31,1.31,0,0,0-1.85-1.85Z" transform="translate(-11.26 -6.61)"></path><path class="cls-5" d="M175,268.05a1.31,1.31,0,1,0-1.31,1.31h0A1.31,1.31,0,0,0,175,268.05Z" transform="translate(-11.26 -6.61)"></path><path class="cls-5" d="M173.9,270.06a1.31,1.31,0,1,0,1.85,0h0A1.31,1.31,0,0,0,173.9,270.06Z" transform="translate(-11.26 -6.61)"></path></g><path class="cls-6" d="M161.37,190.49s12.92-8.4,20.89-2.59S187,212.24,187,223.66s2.15,35.75.43,44.36-5,12.71-9.48,13.36S168,277.29,168,266.09s-2.15-40.28-2.37-46.1-1.5-14.43-1.5-14.43" transform="translate(-11.26 -6.61)"></path><path class="cls-11" d="M165.81,222.72c.53,9.33,2.23,33.37,2.23,43.32,0,11.2,5.39,15.93,9.91,15.29s7.75-4.74,9.48-13.36-.43-33-.43-44.36c0-1,0-2,.06-3C176.72,215.79,169.59,219.49,165.81,222.72Z" transform="translate(-11.26 -6.61)"></path><path class="cls-11" d="M116.14,155.12s-2.37-5.39-5.82-3.45-3,6.25,0,11.42,9.48,6.67,11,5.81S116.14,155.12,116.14,155.12Z" transform="translate(-11.26 -6.61)"></path><path class="cls-11" d="M166,155.28s1.81-5.59,5.44-4,3.62,5.92,1.14,11.36-8.77,7.59-10.35,6.89S166,155.28,166,155.28Z" transform="translate(-11.26 -6.61)"></path><path class="cls-11" d="M114.84,150.38s3.24,13.57,8.83,21.75S143.9,187.64,149.74,187s13.13-12.92,16.58-25,2.15-22.4,2.15-26.49-3.87-16.8-20-23-26.7-1.07-32.09,8S112,144.78,114.84,150.38Z" transform="translate(-11.26 -6.61)"></path><path class="cls-6" d="M150.17,149.3a12.1,12.1,0,0,0-1.51,7.54c.64,4.09,2.58,6.46,1.08,7.11a5,5,0,0,1-3.45-.22" transform="translate(-11.26 -6.61)"></path><path class="cls-6" d="M151.46,168.69s-3.23,3.66-9.05.43" transform="translate(-11.26 -6.61)"></path><path class="cls-15" d="M129.06,153.18s3.66-5.39,8.83-1.94" transform="translate(-11.26 -6.61)"></path><path class="cls-15" d="M152.54,150.59s4.73-3.87,8.18,0" transform="translate(-11.26 -6.61)"></path><path class="cls-6" d="M137.24,139s-6.24-3.23-10.77,4.31" transform="translate(-11.26 -6.61)"></path><path class="cls-6" d="M150.38,137.89s6.89-3.88,11.63,4.73" transform="translate(-11.26 -6.61)"></path><path class="cls-12" d="M189.8,123.24c-.22-6.24-9.91-2.58-13.79-5.81s-.64-9.7-15.29-16.59-29.29-5.6-42.21,1.51S99.34,118.29,100,128.84s9,14.65,9.91,17.23a62.39,62.39,0,0,0,3.66,7.54s2.59,1.51,3.23-.86-5.6-6.68.22-11.42,10.34-4.74,9.26-9.9-2.37-11.2,1.72-9.05,7.11,8.61,13.57,11.2,4.09-4.52,4.09-4.52,9.66,12.19,19.75,14.49c1.15,3,.47,8.34,1.68,9.55a1,1,0,0,0,.55.32,65.69,65.69,0,0,0,1.11-9.49c10.53.21,16.09-4.15,15-6s-3.87-1.73-3.87-1.73S190,129.49,189.8,123.24Z" transform="translate(-11.26 -6.61)"></path><path class="cls-16" d="M173,135.81a32.88,32.88,0,0,0,4.44-.11" transform="translate(-11.26 -6.61)"></path><path class="cls-16" d="M138.22,116.49s12.2,14.83,28.81,18.56" transform="translate(-11.26 -6.61)"></path><path class="cls-16" d="M169.51,117.11c1.23-.16,2.49-.38,3.79-.67" transform="translate(-11.26 -6.61)"></path><path class="cls-16" d="M142.69,110.94s8,6.38,21,6.53" transform="translate(-11.26 -6.61)"></path><path class="cls-16" d="M114.12,138.2a19.32,19.32,0,0,1-2.37,1.28" transform="translate(-11.26 -6.61)"></path><path class="cls-16" d="M121.72,121.26s1.22,7.51-3.68,13.49" transform="translate(-11.26 -6.61)"></path><path class="cls-11" d="M157.82,176.54s3.35,4.37,5.7,5.82,5.79,1.25,6.28,5.32-2.59,12.68-3.31,19.27,2.1,14.59,5.21,24.19,11.69,22.15,14.54,31.35-1.07,21.6-10.69,21S158.9,258,157.27,244.28s-2.69-30-5.24-34.93-8.95-13-7.78-19.45,4.68-7.94,6.16-10.07S153.67,172.71,157.82,176.54Z" transform="translate(-11.26 -6.61)"></path><path class="cls-2" d="M118.08,194.1a16.55,16.55,0,0,0-12.5-4.52c-7.53.64-14,6.46-15.07,17s21.32,68.49,25.2,73.23,7.32,6.68,13.13,5.17,6-26.92,1.94-38.55-12.27-37.26-12.27-37.26" transform="translate(-11.26 -6.61)"></path><g class="cls-17"><path class="cls-1" d="M121.9,228.49h2.86c-1-3.07-2-6.07-2.86-8.77Z" transform="translate(-11.26 -6.61)"></path><path class="cls-5" d="M130.79,251.73a1.28,1.28,0,0,0,1.44.26c-.16-.86-.35-1.69-.55-2.49a1.31,1.31,0,0,0-.89,2.23Z" transform="translate(-11.26 -6.61)"></path><path class="cls-5" d="M128.78,256.57a1.31,1.31,0,1,0,1.31,1.31h0A1.31,1.31,0,0,0,128.78,256.57Z" transform="translate(-11.26 -6.61)"></path><path class="cls-5" d="M130.79,255.74a1.31,1.31,0,0,0,1.85,1.85,1.18,1.18,0,0,0,.34-.75,5.71,5.71,0,0,0-.08-.71,1.66,1.66,0,0,0-.26-.39A1.31,1.31,0,0,0,130.79,255.74Z" transform="translate(-11.26 -6.61)"></path><path class="cls-5" d="M131.62,253.73a1.28,1.28,0,0,0,1.12,1.27c-.12-.82-.25-1.63-.39-2.42A1.3,1.3,0,0,0,131.62,253.73Z" transform="translate(-11.26 -6.61)"></path><path class="cls-5" d="M124.9,255.74a1.31,1.31,0,1,0,1.85,0h0A1.31,1.31,0,0,0,124.9,255.74Z" transform="translate(-11.26 -6.61)"></path><path class="cls-5" d="M128.78,250.89a1.31,1.31,0,1,0-1.3-1.32v0A1.32,1.32,0,0,0,128.78,250.89Z" transform="translate(-11.26 -6.61)"></path><circle class="cls-5" cx="124.64" cy="253.73" r="1.3" transform="translate(-140.96 370.51) rotate(-89.72)"></circle><circle class="cls-5" cx="114.59" cy="244.19" r="1.3"></circle><path class="cls-5" d="M128.78,255.91a2.18,2.18,0,1,0-2.17-2.19h0a2.17,2.17,0,0,0,2.16,2.18Z" transform="translate(-11.26 -6.61)"></path><path class="cls-5" d="M126.72,285.4a16.88,16.88,0,0,0,2.12-.41,2.61,2.61,0,0,0,1.18-.71,2.1,2.1,0,0,0-1.24-.39A2.17,2.17,0,0,0,126.72,285.4Z" transform="translate(-11.26 -6.61)"></path><path class="cls-5" d="M124.64,284.76a1.3,1.3,0,0,0-1.06.58,10.9,10.9,0,0,0,2.21.14A1.3,1.3,0,0,0,124.64,284.76Z" transform="translate(-11.26 -6.61)"></path><circle class="cls-5" cx="114.59" cy="276.53" r="1.3"></circle><path class="cls-5" d="M128.78,283.23a1.31,1.31,0,0,0,.23-2.61h-.23a1.31,1.31,0,0,0,0,2.61Z" transform="translate(-11.26 -6.61)"></path><path class="cls-5" d="M130.54,283.68a8,8,0,0,0,1-1.81,1.27,1.27,0,0,0-.74.34A1.3,1.3,0,0,0,130.54,283.68Z" transform="translate(-11.26 -6.61)"></path><path class="cls-5" d="M97.78,194.49a1.31,1.31,0,0,0,1.31-1.31,1.29,1.29,0,0,0-.71-1.14,15.92,15.92,0,0,0-1.85,1.42A1.29,1.29,0,0,0,97.78,194.49Z" transform="translate(-11.26 -6.61)"></path><path class="cls-5" d="M102.68,190.1l-.81.26h0A1.22,1.22,0,0,0,102.68,190.1Z" transform="translate(-11.26 -6.61)"></path><path class="cls-5" d="M99.79,192.92a1.31,1.31,0,0,0,1.85-1.85,1.27,1.27,0,0,0-.74-.34c-.44.18-.86.38-1.28.6A1.31,1.31,0,0,0,99.79,192.92Z" transform="translate(-11.26 -6.61)"></path><path class="cls-5" d="M97.78,224.24a1.31,1.31,0,1,0,1.31,1.31h0a1.3,1.3,0,0,0-1.3-1.3Z" transform="translate(-11.26 -6.61)"></path><path class="cls-5" d="M97.78,219.22A2.18,2.18,0,1,0,100,221.4h0A2.18,2.18,0,0,0,97.78,219.22Z" transform="translate(-11.26 -6.61)"></path><path class="cls-5" d="M101.9,220.1a1.3,1.3,0,1,0,1.3,1.3h0A1.3,1.3,0,0,0,101.9,220.1Z" transform="translate(-11.26 -6.61)"></path><path class="cls-5" d="M99.79,223.41a1.3,1.3,0,1,0,1.85,0,1.31,1.31,0,0,0-1.85,0Z" transform="translate(-11.26 -6.61)"></path><path class="cls-5" d="M95.78,217.55a1.3,1.3,0,0,0-1.84,0,1.32,1.32,0,0,0,0,1.84,1.3,1.3,0,0,0,1.84,0A1.32,1.32,0,0,0,95.78,217.55Z" transform="translate(-11.26 -6.61)"></path><path class="cls-5" d="M97.78,218.56a1.31,1.31,0,1,0-1.3-1.32v0A1.32,1.32,0,0,0,97.78,218.56Z" transform="translate(-11.26 -6.61)"></path><path class="cls-5" d="M95.78,225.25a1.3,1.3,0,1,0-1.85-1.84h0c.2.7.42,1.42.64,2.15A1.3,1.3,0,0,0,95.78,225.25Z" transform="translate(-11.26 -6.61)"></path><path class="cls-5" d="M101.64,219.39a1.3,1.3,0,1,0-1.85,0,1.3,1.3,0,0,0,1.85,0Z" transform="translate(-11.26 -6.61)"></path><path class="cls-5" d="M94.9,221.4a1.3,1.3,0,0,0-1.3-1.3,1.28,1.28,0,0,0-.63.18c.22.78.45,1.59.69,2.41A1.3,1.3,0,0,0,94.9,221.4Z" transform="translate(-11.26 -6.61)"></path><path class="cls-5" d="M115.8,206.23a1.31,1.31,0,1,0,1.3,1.32v0A1.3,1.3,0,0,0,115.8,206.23Z" transform="translate(-11.26 -6.61)"></path><path class="cls-5" d="M111.9,205.39a1.31,1.31,0,1,0,1.85,0h0A1.33,1.33,0,0,0,111.9,205.39Z" transform="translate(-11.26 -6.61)"></path><path class="cls-5" d="M115.8,201.21A2.18,2.18,0,1,0,118,203.4h0a2.17,2.17,0,0,0-2.16-2.18Z" transform="translate(-11.26 -6.61)"></path><path class="cls-5" d="M113,203.39a1.31,1.31,0,0,0-2.61-.23.89.89,0,0,0,0,.23,1.31,1.31,0,0,0,2.61,0Z" transform="translate(-11.26 -6.61)"></path><path class="cls-5" d="M113.79,201.38a1.31,1.31,0,1,0-1.85,0h0A1.31,1.31,0,0,0,113.79,201.38Z" transform="translate(-11.26 -6.61)"></path><path class="cls-5" d="M115.8,200.55a1.31,1.31,0,1,0-1.31-1.31h0A1.31,1.31,0,0,0,115.8,200.55Z" transform="translate(-11.26 -6.61)"></path><path class="cls-5" d="M117.81,201.38a1.34,1.34,0,0,0,.48.3l-.07-2.42a1.22,1.22,0,0,0-.41.27,1.3,1.3,0,0,0,0,1.84S117.79,201.39,117.81,201.38Z" transform="translate(-11.26 -6.61)"></path><path class="cls-5" d="M117.81,207.24a1.19,1.19,0,0,0,.65.33l-.07-2.49a1.27,1.27,0,0,0-.94,1.53,1.22,1.22,0,0,0,.36.63Z" transform="translate(-11.26 -6.61)"></path><path class="cls-5" d="M119.9,234.42a1.3,1.3,0,1,0,1.31,1.3,1.3,1.3,0,0,0-1.31-1.3Z" transform="translate(-11.26 -6.61)"></path><path class="cls-5" d="M119.65,233.71a1.3,1.3,0,1,0-1.84,0,1.3,1.3,0,0,0,1.84,0Z" transform="translate(-11.26 -6.61)"></path><path class="cls-5" d="M117.81,237.73a1.3,1.3,0,1,0,1.84,0,1.3,1.3,0,0,0-1.84,0Z" transform="translate(-11.26 -6.61)"></path><path class="cls-5" d="M115.8,232.88a1.31,1.31,0,1,0-1.31-1.31h0a1.3,1.3,0,0,0,1.3,1.3Z" transform="translate(-11.26 -6.61)"></path><path class="cls-5" d="M115.8,233.54a2.18,2.18,0,1,0,2.17,2.19h0A2.18,2.18,0,0,0,115.8,233.54Z" transform="translate(-11.26 -6.61)"></path><path class="cls-5" d="M113,235.72a1.31,1.31,0,1,0-1.32,1.3h0A1.31,1.31,0,0,0,113,235.72Z" transform="translate(-11.26 -6.61)"></path><path class="cls-5" d="M111.9,237.73a1.3,1.3,0,1,0,1.85,0,1.31,1.31,0,0,0-1.85,0Z" transform="translate(-11.26 -6.61)"></path><path class="cls-5" d="M113.79,233.71a1.3,1.3,0,1,0-1.85,0,1.3,1.3,0,0,0,1.85,0Z" transform="translate(-11.26 -6.61)"></path><path class="cls-5" d="M115.8,238.56a1.31,1.31,0,1,0,1.3,1.32v0A1.3,1.3,0,0,0,115.8,238.56Z" transform="translate(-11.26 -6.61)"></path><path class="cls-5" d="M115.8,265.88a2.18,2.18,0,1,0,2.17,2.19v0a2.17,2.17,0,0,0-2.17-2.17Z" transform="translate(-11.26 -6.61)"></path><path class="cls-5" d="M117.81,270.06a1.3,1.3,0,1,0,1.84,0A1.32,1.32,0,0,0,117.81,270.06Z" transform="translate(-11.26 -6.61)"></path><path class="cls-5" d="M119.65,266.05a1.3,1.3,0,1,0-1.84,0A1.32,1.32,0,0,0,119.65,266.05Z" transform="translate(-11.26 -6.61)"></path><path class="cls-5" d="M115.8,270.89a1.31,1.31,0,1,0-.23,2.61h.23a1.31,1.31,0,0,0,0-2.61Z" transform="translate(-11.26 -6.61)"></path><path class="cls-5" d="M119.9,266.75a1.31,1.31,0,1,0,.23,0Z" transform="translate(-11.26 -6.61)"></path><path class="cls-5" d="M111.9,270.06a1.31,1.31,0,1,0,1.85,0h0A1.31,1.31,0,0,0,111.9,270.06Z" transform="translate(-11.26 -6.61)"></path><path class="cls-5" d="M115.8,265.21a1.31,1.31,0,1,0-.23,0A.88.88,0,0,0,115.8,265.21Z" transform="translate(-11.26 -6.61)"></path><path class="cls-5" d="M113,268.05a1.31,1.31,0,1,0-1.31,1.31h0A1.31,1.31,0,0,0,113,268.05Z" transform="translate(-11.26 -6.61)"></path><path class="cls-5" d="M113.79,266.05a1.31,1.31,0,1,0-1.85,0h0A1.33,1.33,0,0,0,113.79,266.05Z" transform="translate(-11.26 -6.61)"></path><path class="cls-1" d="M90.51,206.59a19.23,19.23,0,0,0,.39,4.79v-7.32C90.74,204.87,90.6,205.71,90.51,206.59Z" transform="translate(-11.26 -6.61)"></path></g><path class="cls-6" d="M118.08,194.1a16.55,16.55,0,0,0-12.5-4.52c-7.53.64-14,6.46-15.07,17s21.32,68.49,25.2,73.23,7.32,6.68,13.13,5.17,6-26.92,1.94-38.55-12.27-37.26-12.27-37.26" transform="translate(-11.26 -6.61)"></path><path class="cls-11" d="M130.78,246.49c-1.92-5.48-4.75-14.05-7.21-21.59-12.94-3.7-21.53,3.76-26.1,9.75,6.62,19.65,15.87,42.33,18.24,45.22,3.87,4.74,7.32,6.68,13.13,5.17S134.9,258.07,130.78,246.49Z" transform="translate(-11.26 -6.61)"></path><path class="cls-11" d="M132.07,176.87s-2.8,4.74-4.95,6.46-5.6,1.94-5.6,6,4.09,12.28,5.6,18.74,1.72,14.86-.21,24.77-11,23.26-12.71,32.73,3.66,21.33,13.14,19.6,15.29-26.7,15.29-40.49-2.8-30.8-.86-36,7.32-14,5.38-20.25-5.6-7.32-7.32-9.26S135.74,172.56,132.07,176.87Z" transform="translate(-11.26 -6.61)"></path><path class="cls-12" d="M194.32,366.62s-3.18-23.55-8.32-40.18c-35.61,13.58-72.84,5.88-86.23,2.29-.14.5-.29,1-.43,1.49-5.6,19.38-8.83,36.4-8.83,36.4Z" transform="translate(-11.26 -6.61)"></path><path class="cls-5" d="M88.14,66.81l14,56.22s5,3.87,24.33-7.54,8.84-18.74,8.84-18.74Z" transform="translate(-11.26 -6.61)"></path><g class="cls-18"><path class="cls-7" d="M114.61,83.62a155,155,0,0,1-16.06,25l3.36,13.5a177,177,0,0,0,22-32.58Z" transform="translate(-11.26 -6.61)"></path><path class="cls-7" d="M135.31,96.75,134.07,96c-3.88,7.06-8.51,14.88-13.9,23,1.91-.95,4-2.09,6.3-3.44C145.9,104.07,135.31,96.75,135.31,96.75Z" transform="translate(-11.26 -6.61)"></path><path class="cls-7" d="M91.28,79.42,94.9,93.93a171.22,171.22,0,0,0,10.37-16.25l-9.39-6Q93.79,75.44,91.28,79.42Z" transform="translate(-11.26 -6.61)"></path></g><path class="cls-6" d="M88.14,66.81l14,56.22s5,3.87,24.33-7.54,8.84-18.74,8.84-18.74Z" transform="translate(-11.26 -6.61)"></path><path class="cls-12" d="M88.14,66.81s-3.66,14.22-9.48,23S69.4,97.4,65.52,104.49s-2.15,21.11-2.15,21.11l5.17-.65s-6-11,1.08-19.6S85.34,94.8,85.55,86.62,88.14,66.81,88.14,66.81Z" transform="translate(-11.26 -6.61)"></path><path class="cls-19" d="M88.14,66.81s0,8.4-11.42,16.37-22.18,7.11-25.63,18.95-4.3,15.94-4.3,15.94L51.52,117s0-12.71,7.11-19.39S75.86,89.43,79.52,86.2,88.14,66.81,88.14,66.81Z" transform="translate(-11.26 -6.61)"></path><path class="cls-11" d="M88.14,66.81s-.43,6.68-3.45,21.32-6.89,23.48-3.88,29.94a59.51,59.51,0,0,0,6,10.34L90.47,126s-9-5.38-6.9-20S88.14,66.81,88.14,66.81Z" transform="translate(-11.26 -6.61)"></path><line class="cls-6" x1="34.45" y1="360.01" x2="375.4" y2="360.01"></line></g></svg>